<svg height="56" viewBox="0 0 56 56" width="56" xmlns="http://www.w3.org/2000/svg"><g fill="none" fill-rule="evenodd" transform="translate(1 1)"><path d="m0 0h18v54h-18z" fill="#fff"/><path d="m0 0h18v54h-18z" stroke="#99a3a4" stroke-linejoin="round" stroke-width="2"/><path d="m18 0h18v54h-18z" fill="#fff"/><path d="m18 0h18v54h-18z" stroke="#99a3a4" stroke-linejoin="round" stroke-width="2"/><path d="m36 0h18v54h-18z" fill="#fff"/><path d="m36 0h18v54h-18z" stroke="#99a3a4" stroke-linejoin="round" stroke-width="2"/><path d="m4 31h10v10h-10z" fill="#d4e7f0"/><path d="m4 31h10v10h-10z" stroke="#99a3a4" stroke-linejoin="round" stroke-width="2"/><path d="m22 31h10v10h-10z" fill="#d4e7f0"/><path d="m22 31h10v10h-10z" stroke="#99a3a4" stroke-linejoin="round" stroke-width="2"/><path d="m40 31h10v10h-10z" fill="#d4e7f0"/><g stroke="#99a3a4" stroke-linejoin="round" stroke-width="2"><path d="m40 31h10v10h-10z"/><path d="m0 45h54"/></g></g></svg>