<svg height="60" viewBox="0 0 60 60" width="60" xmlns="http://www.w3.org/2000/svg"><path d="m57 60h-54c-1.65610489-.0018077-2.99819229-1.3438951-3-3v-46c0-.5522847.44771525-1 1-1h58c.5522847 0 1 .4477153 1 1v46c-.0018077 1.6561049-1.3438951 2.9981923-3 3zm-55-48v45c.00071619.5519878.44801218.9992838 1 1h54c.5519878-.0007162.9992838-.4480122 1-1v-45z"/><path d="m59 12h-58c-.55228475 0-1-.4477153-1-1v-8c.00180771-1.65610489 1.34389511-2.99819229 3-3h54c1.6561049.00180771 2.9981923 1.34389511 3 3v8c0 .5522847-.4477153 1-1 1zm-57-2h56v-7c-.0007162-.55198782-.4480122-.99928381-1-1h-54c-.55198782.00071619-.99928381.44801218-1 1z"/><path d="m12 7h-2c-.55228475 0-1-.44771525-1-1s.44771525-1 1-1h2c.5522847 0 1 .44771525 1 1s-.4477153 1-1 1z"/><path d="m18 7h-2c-.5522847 0-1-.44771525-1-1s.4477153-1 1-1h2c.5522847 0 1 .44771525 1 1s-.4477153 1-1 1z"/><path d="m17 8c-.5522847 0-1-.44771525-1-1v-2c0-.55228475.4477153-1 1-1s1 .44771525 1 1v2c0 .55228475-.4477153 1-1 1z"/><path d="m6 7c-.13080741-.00155701-.26003839-.02876425-.38037-.08008-.38067266-.14427889-.62898503-.51293037-.61963-.91992.00368941-.26476578.10727134-.51836293.29-.71.09538602-.09059216.20727331-.1620345.32959-.21045.24150901-.10986537.51874099-.10986537.76025 0 .12122321.05085867.232879.1220301.33016.21045.38677239.39432301.38677239 1.02567699 0 1.42-.0973967.08811353-.20899797.1591153-.33008.21-.1201938.0512424-.24926839.07842172-.37992.08z"/><path d="m54 34h-48c-1.10411252-.0011025-1.99889754-.8958875-2-2v-16c.00110246-1.1041125.89588748-1.9988975 2-2h48c1.1041125.0011025 1.9988975.8958875 2 2v16c-.0011025 1.1041125-.8958875 1.9988975-2 2zm-48-18v16h48.00146l-.00146-16z"/><path d="m14 30c-3.3137085 0-6-2.6862915-6-6s2.6862915-6 6-6 6 2.6862915 6 6c-.0036154 3.3122098-2.6877902 5.9963846-6 6zm0-10c-2.209139 0-4 1.790861-4 4s1.790861 4 4 4 4-1.790861 4-4c-.0025239-2.2080927-1.7919073-3.9974761-4-4z"/><path d="m37 21h-14c-.5522847 0-1-.4477153-1-1s.4477153-1 1-1h14c.5522847 0 1 .4477153 1 1s-.4477153 1-1 1z"/><path d="m51 25h-28c-.5522847 0-1-.4477153-1-1s.4477153-1 1-1h28c.5522847 0 1 .4477153 1 1s-.4477153 1-1 1z"/><path d="m51 29h-28c-.5522847 0-1-.4477153-1-1s.4477153-1 1-1h28c.5522847 0 1 .4477153 1 1s-.4477153 1-1 1z"/><path d="m54 56h-48c-1.10411252-.0011025-1.99889754-.8958875-2-2v-16c.00110246-1.1041125.89588748-1.9988975 2-2h48c1.1041125.0011025 1.9988975.8958875 2 2v16c-.0011025 1.1041125-.8958875 1.9988975-2 2zm-48-18v16h48.00146l-.00146-16z"/><path d="m14 52c-3.3137085 0-6-2.6862915-6-6s2.6862915-6 6-6 6 2.6862915 6 6c-.0036154 3.3122098-2.6877902 5.9963846-6 6zm0-10c-2.209139 0-4 1.790861-4 4s1.790861 4 4 4 4-1.790861 4-4c-.0025239-2.2080927-1.7919073-3.9974761-4-4z"/><path d="m37 43h-14c-.5522847 0-1-.4477153-1-1s.4477153-1 1-1h14c.5522847 0 1 .4477153 1 1s-.4477153 1-1 1z"/><path d="m51 47h-28c-.5522847 0-1-.4477153-1-1s.4477153-1 1-1h28c.5522847 0 1 .4477153 1 1s-.4477153 1-1 1z"/><path d="m51 51h-28c-.5522847 0-1-.4477153-1-1s.4477153-1 1-1h28c.5522847 0 1 .4477153 1 1s-.4477153 1-1 1z"/></svg>