<svg height="60" viewBox="0 0 60 60" width="60" xmlns="http://www.w3.org/2000/svg"><g fill="none" fill-rule="evenodd" transform="translate(1 1)"><g stroke="#000" stroke-linecap="round" stroke-width="2"><g stroke-linejoin="round"><path d="m0 56.709v-29.418c0-.529.606-.83 1.027-.509l19.973 15.218-19.973 15.218c-.421.32-1.027.02-1.027-.509z"/><path d="m58 56.709v-29.418c0-.529-.606-.83-1.027-.509l-19.973 15.218 19.973 15.218c.421.32 1.027.02 1.027-.509z"/><path d="m20 42h17z"/></g><path d="m26 17h6m3 16h6m-24-8h5m8 0h7m-16 8h10"/><path d="m52 9h-46v21.571l15 11.429h16l15-11.429z" stroke-linejoin="round"/><path d="m39.741 9-8.879-8.267c-1.049-.976-2.675-.976-3.723 0l-8.88 8.267z" stroke-linejoin="round"/><path d="m52 20.413v10.158l-15 11.429h-16l-15-11.429v-10.158l-6 5.586v32.001h58v-32.001z" stroke-linejoin="round"/></g><g fill="#000" fill-rule="evenodd"><path d="m27 25c0 .552-.448 1-1 1s-1-.448-1-1 .448-1 1-1 1 .448 1 1"/><path d="m42 25c0 .552-.448 1-1 1s-1-.448-1-1 .448-1 1-1 1 .448 1 1"/><path d="m18 33c0 .552-.448 1-1 1s-1-.448-1-1 .448-1 1-1 1 .448 1 1"/></g></g></svg>