<svg height="60" viewBox="0 0 60 60" width="60" xmlns="http://www.w3.org/2000/svg"><g fill="none" fill-rule="evenodd" transform="translate(1 1)"><path d="m39.741 9-8.879-8.267c-1.049-.976-2.675-.976-3.723 0l-8.88 8.267z" fill="#fff"/><path d="m39.741 9-8.879-8.267c-1.049-.976-2.675-.976-3.723 0l-8.88 8.267z" stroke="#99a3a4" stroke-linecap="round" stroke-linejoin="round" stroke-width="2"/><path d="m52 20.413v10.158l-15 11.429h-16l-15-11.429v-10.158l-6 5.586v32.001h58v-32.001z" fill="#fff"/><path d="m52 20.413v10.158l-15 11.429h-16l-15-11.429v-10.158l-6 5.586v32.001h58v-32.001z" stroke="#99a3a4" stroke-linecap="round" stroke-linejoin="round" stroke-width="2"/><path d="m52 9h-46v21.571l15 11.429h16l15-11.429z" fill="#d4e7f0"/><path d="m52 9h-46v21.571l15 11.429h16l15-11.429z" stroke="#99a3a4" stroke-linecap="round" stroke-linejoin="round" stroke-width="2"/><path d="m0 56.709v-29.418c0-.529.606-.829 1.027-.509l19.973 15.218-19.973 15.218c-.421.321-1.027.02-1.027-.509zm58 0v-29.418c0-.529-.606-.829-1.027-.509l-19.973 15.218 19.973 15.218c.421.321 1.027.02 1.027-.509zm-38-14.709h17zm6-25h6m3 16h6m-24-8h5m8 0h7" stroke="#99a3a4" stroke-linecap="round" stroke-linejoin="round" stroke-width="2"/><path d="m26 26c-.26 0-.521-.11-.71-.29-.181-.19-.29-.45-.29-.71s.109-.521.29-.71c.37-.37 1.04-.37 1.42 0 .18.189.29.45.29.71s-.11.52-.29.71c-.191.18-.45.29-.71.29" fill="#99a3a4"/><path d="m21 33h10" stroke="#99a3a4" stroke-linecap="round" stroke-linejoin="round" stroke-width="2"/><path d="m17 34c-.26 0-.521-.11-.71-.29-.181-.19-.29-.45-.29-.71 0-.271.109-.521.29-.71.37-.37 1.04-.37 1.42 0 .18.189.29.439.29.71 0 .26-.11.52-.29.71-.191.18-.45.29-.71.29m24-8c-.26 0-.521-.11-.71-.29-.181-.19-.29-.45-.29-.71s.109-.521.29-.71c.37-.37 1.04-.37 1.42 0 .18.189.29.439.29.71 0 .27-.11.52-.3.71-.181.18-.44.29-.7.29" fill="#99a3a4"/></g></svg>