<svg height="42" viewBox="0 0 60 42" width="60" xmlns="http://www.w3.org/2000/svg"><g fill="none" fill-rule="evenodd" transform="translate(1 1)"><path d="m52 40h3v-13h-5z" fill="#fff"/><path d="m52 40h3v-13h-5z" stroke="#99a3a4" stroke-linecap="round" stroke-linejoin="round" stroke-width="2"/><path d="m6 40h-3v-13h5z" fill="#fff"/><path d="m6 40h-3v-13h5z" stroke="#99a3a4" stroke-linecap="round" stroke-linejoin="round" stroke-width="2"/><path d="m18 17h12v4h-12z" fill="#d4e7f0"/><path d="m18 17h12v4h-12z" stroke="#99a3a4" stroke-linecap="round" stroke-linejoin="round" stroke-width="2"/><path d="m20 13h12v4h-12z" fill="#d4e7f0"/><path d="m20 13h12v4h-12z" stroke="#99a3a4" stroke-linecap="round" stroke-linejoin="round" stroke-width="2"/><path d="m18 9h12v4h-12z" fill="#d4e7f0"/><path d="m18 9h12v4h-12z" stroke="#99a3a4" stroke-linecap="round" stroke-linejoin="round" stroke-width="2"/><path d="m55 17h-14c1.105 0 4 .896 4 2v2h6v-2c0-1.104 2.895-2 4-2z" stroke="#99a3a4" stroke-linecap="round" stroke-linejoin="round" stroke-width="2"/><path d="m0 21h58v6h-58z" fill="#fff"/><path d="m0 21h58v6h-58z" stroke="#99a3a4" stroke-linecap="round" stroke-linejoin="round" stroke-width="2"/><path d="m10 15h-3.6c-.282 1.13-.965 2.088-1.82 2.88-.438.404-.675 1.022-.544 1.683.169.854.972 1.437 1.843 1.437h4.642c.871 0 1.673-.583 1.843-1.437.131-.661-.106-1.279-.544-1.683-.855-.792-1.538-1.75-1.82-2.88z" fill="#d4e7f0"/><path d="m10 15h-3.6c-.282 1.13-.965 2.088-1.82 2.88-.438.404-.675 1.022-.544 1.683.169.854.972 1.437 1.843 1.437h4.642c.871 0 1.673-.583 1.843-1.437.131-.661-.106-1.279-.544-1.683-.855-.792-1.538-1.75-1.82-2.88zm-2 0v-8zm0-15h-3v4c0 1.65 1.35 3 3 3zm0 14 3-3zm0-12h3v1c0 1.65-1.35 3-3 3zm32 15h16z" stroke="#99a3a4" stroke-linecap="round" stroke-linejoin="round" stroke-width="2"/></g></svg>