<svg height="60" viewBox="0 0 60 60" width="60" xmlns="http://www.w3.org/2000/svg"><g fill-rule="evenodd"><path d="m2 30h56v-2h-56zm57 2h-58c-.552 0-1-.447-1-1v-4c0-.553.448-1 1-1h58c.553 0 1 .447 1 1v4c0 .553-.447 1-1 1z"/><path d="m4 58h2v-26h-2zm3 2h-4c-.552 0-1-.447-1-1v-28c0-.553.448-1 1-1h4c.553 0 1 .447 1 1v28c0 .553-.447 1-1 1z"/><path d="m57.0003 46c-.552 0-1-.447-1-1v-14c0-.553.448-1 1-1s1 .447 1 1v14c0 .553-.448 1-1 1"/><path d="m39.0003 46c-.552 0-1-.447-1-1v-14c0-.553.448-1 1-1s1 .447 1 1v14c0 .553-.448 1-1 1"/><path d="m40 58h16v-12h-16zm17 2h-18c-.552 0-1-.447-1-1v-14c0-.553.448-1 1-1h18c.553 0 1 .447 1 1v14c0 .553-.447 1-1 1z"/><path d="m50.0003 39h-4c-.552 0-1-.447-1-1s.448-1 1-1h4c.552 0 1 .447 1 1s-.448 1-1 1"/><path d="m50.0003 53h-4c-.552 0-1-.447-1-1s.448-1 1-1h4c.552 0 1 .447 1 1s-.448 1-1 1"/><path d="m18 18h30v-16h-30zm31 2h-32c-.552 0-1-.447-1-1v-18c0-.553.448-1 1-1h32c.553 0 1 .447 1 1v18c0 .553-.447 1-1 1z"/><path d="m49.0003 16h-32c-.552 0-1-.447-1-1s.448-1 1-1h32c.552 0 1 .447 1 1s-.448 1-1 1"/><path d="m22.0003 28c-.552 0-1-.447-1-1s.448-1 1-1c2.757 0 5-2.243 5-5v-2c0-.553.448-1 1-1s1 .447 1 1v2c0 3.859-3.14 7-7 7"/><path d="m44.0003 28c-3.86 0-7-3.141-7-7v-2c0-.553.448-1 1-1s1 .447 1 1v2c0 2.757 2.243 5 5 5 .552 0 1 .447 1 1s-.448 1-1 1"/><path d="m48.0672 26h3.866c-.297-2-1.501-2-1.933-2s-1.636 0-1.933 2m4.933 2h-6c-.552 0-1-.447-1-1 0-3.131 1.495-5 4-5s4 1.869 4 5c0 .553-.448 1-1 1"/><path d="m4.8524 26h8.148c.551 0 1-.448 1-1s-.449-1-1-1h-8.148c.098.32.148.656.148 1s-.05.68-.148 1m8.148 2h-10.002c-.405 0-.77-.243-.924-.617-.155-.374-.07-.804.216-1.09l.297-.297c.266-.267.413-.62.413-.996s-.147-.729-.413-.996l-.297-.297c-.286-.286-.371-.716-.216-1.09.154-.374.519-.617.924-.617h10.002c1.654 0 3 1.346 3 3s-1.346 3-3 3"/><path d="m2.8524 22h8.15c.552 0 1-.448 1-1s-.448-1-1-1h-8.15c.198.65.198 1.35 0 2m8.15 2h-10.002c-.404 0-.769-.243-.924-.617s-.069-.804.217-1.09l.297-.297c.266-.266.412-.62.412-.996s-.146-.73-.412-.996l-.297-.297c-.286-.286-.372-.716-.217-1.09s.52-.617.924-.617h10.002c1.655 0 3 1.346 3 3s-1.345 3-3 3"/></g></svg>