<svg height="60" viewBox="0 0 60 60" width="60" xmlns="http://www.w3.org/2000/svg"><g fill="none" fill-rule="evenodd" transform="translate(0 1)"><path d="m54.115 30.449-24.16-17.629-24.126 16.729c-1.313 1.01-3.197.764-4.207-.549s-.764-3.197.549-4.207l27.874-19.613 27.84 20.601c1.289 1.041 1.49 2.93.449 4.219h-.001c-1.041 1.289-2.929 1.49-4.218.449z" fill="#d4e7f0"/><path d="m54.115 30.449-24.16-17.629-24.126 16.729c-1.313 1.01-3.197.764-4.207-.549s-.764-3.197.549-4.207l27.874-19.613 27.84 20.601c1.289 1.041 1.49 2.93.449 4.219h-.001c-1.041 1.289-2.929 1.49-4.218.449z" stroke="#99a3a4" stroke-linejoin="round" stroke-width="2"/><path d="m52 21.426v-9.426h-6v4.986z" fill="#fff"/><path d="m52 21.426v-9.426h-6v4.986z" stroke="#99a3a4" stroke-linejoin="round" stroke-width="2"/><path d="m51.5 38h-43c-1.381 0-2.5-1.119-2.5-2.5s1.119-2.5 2.5-2.5h43c1.381 0 2.5 1.119 2.5 2.5s-1.119 2.5-2.5 2.5z" fill="#d4e7f0"/><path d="m51.5 38h-43c-1.381 0-2.5-1.119-2.5-2.5s1.119-2.5 2.5-2.5h43c1.381 0 2.5 1.119 2.5 2.5s-1.119 2.5-2.5 2.5z" stroke="#99a3a4" stroke-linejoin="round" stroke-width="2"/><path d="m39 23h4.906l-6.852-5h-14.57l-7.211 5h5.727" stroke="#99a3a4" stroke-linecap="round" stroke-linejoin="round" stroke-width="2"/><path d="m24 38h12v20h-12z" fill="#fff"/><path d="m24 38h12v20h-12z" stroke="#99a3a4" stroke-linejoin="round" stroke-width="2"/><path d="m8.5 53c-1.381 0-2.5 1.119-2.5 2.5s1.119 2.5 2.5 2.5h15.5v-5z" fill="#d4e7f0"/><path d="m8.5 53c-1.381 0-2.5 1.119-2.5 2.5s1.119 2.5 2.5 2.5h15.5v-5z" stroke="#99a3a4" stroke-linejoin="round" stroke-width="2"/><path d="m51.5 53h-15.5v5h15.5c1.381 0 2.5-1.119 2.5-2.5s-1.119-2.5-2.5-2.5z" fill="#d4e7f0"/><path d="m51.5 53h-15.5v5h15.5c1.381 0 2.5-1.119 2.5-2.5s-1.119-2.5-2.5-2.5zm-27.5 0v-5m-16 0v5m43 0v-5m-15 0v5" stroke="#99a3a4" stroke-linejoin="round" stroke-width="2"/><path d="m24 43h-15.5c-1.381 0-2.5 1.119-2.5 2.5s1.119 2.5 2.5 2.5h15.5z" fill="#d4e7f0"/><path d="m24 43h-15.5c-1.381 0-2.5 1.119-2.5 2.5s1.119 2.5 2.5 2.5h15.5z" stroke="#99a3a4" stroke-linejoin="round" stroke-width="2"/><path d="m51.5 43h-15.5v5h15.5c1.381 0 2.5-1.119 2.5-2.5s-1.119-2.5-2.5-2.5z" fill="#d4e7f0"/><path d="m51.5 43h-15.5v5h15.5c1.381 0 2.5-1.119 2.5-2.5s-1.119-2.5-2.5-2.5zm-.5 0v-5m-15 0v5m-12 0v-5m-16 0v5" stroke="#99a3a4" stroke-linejoin="round" stroke-width="2"/><path d="m28 48c0 .552-.448 1-1 1s-1-.448-1-1 .448-1 1-1 1 .448 1 1" fill="#99a3a4"/><path d="m25 23h10v10h-10z" fill="#fff"/><g stroke="#99a3a4" stroke-linejoin="round" stroke-width="2"><path d="m25 23h10v10h-10z"/><path d="m20 28h-11.937l-.063.044v4.956m43 0v-4.824l-.242-.176h-10.758" stroke-linecap="round"/><path d="m30 23v10m-5-5h10"/><path d="m51 9v-4m0-3v-2m-4 6v-2m0-3v-1" stroke-linecap="round"/></g></g></svg>