<svg height="60" viewBox="0 0 60 60" width="60" xmlns="http://www.w3.org/2000/svg"><g fill="none" fill-rule="evenodd" transform="translate(0 1)"><path d="m54.115 30.449-24.16-17.629-24.126 16.729c-1.313 1.01-3.197.764-4.207-.549s-.764-3.197.549-4.207l27.874-19.613 27.84 20.601c1.289 1.041 1.49 2.93.449 4.219h-.001c-1.041 1.289-2.929 1.49-4.218.449zm-2.115-9.023v-9.426h-6v4.986zm-.5 16.574h-43c-1.381 0-2.5-1.119-2.5-2.5s1.119-2.5 2.5-2.5h43c1.381 0 2.5 1.119 2.5 2.5s-1.119 2.5-2.5 2.5zm-12.5-15h4.906l-6.852-5h-14.57l-7.211 5h5.727z" stroke="#000" stroke-linejoin="round" stroke-width="2"/><path d="m39 23h4.906l-6.852-5h-14.57l-7.211 5h5.727" stroke="#000" stroke-linecap="round" stroke-linejoin="round" stroke-width="2"/><path d="m24 38h12v20h-12zm-15.5 15c-1.381 0-2.5 1.119-2.5 2.5s1.119 2.5 2.5 2.5h15.5v-5zm43 0h-15.5v5h15.5c1.381 0 2.5-1.119 2.5-2.5s-1.119-2.5-2.5-2.5zm-27.5 0v-5zm-16-5v5zm43 5v-5zm-15-5v5zm-12-5h-15.5c-1.381 0-2.5 1.119-2.5 2.5s1.119 2.5 2.5 2.5h15.5zm27.5 0h-15.5v5h15.5c1.381 0 2.5-1.119 2.5-2.5s-1.119-2.5-2.5-2.5zm-.5 0v-5zm-15-5v5zm-12 5v-5zm-16-5v5z" stroke="#000" stroke-linejoin="round" stroke-width="2"/><path d="m28 48c0 .552-.448 1-1 1s-1-.448-1-1 .448-1 1-1 1 .448 1 1" fill="#000" fill-rule="evenodd"/><g stroke="#000" stroke-linejoin="round" stroke-width="2"><path d="m25 23h10v10h-10z"/><path d="m20 28h-11.937l-.063.044v4.956m43 0v-4.824l-.242-.176h-10.758" stroke-linecap="round"/><path d="m30 23v10m-5-5h10"/><path d="m51 9v-4m0-3v-2m-4 6v-2m0-3v-1" stroke-linecap="round"/></g></g></svg>