<svg height="55" viewBox="0 0 60 55" width="60" xmlns="http://www.w3.org/2000/svg"><g fill="none" fill-rule="evenodd" transform="translate(1 1)"><path d="m33 4c0 2.209-1.791 4-4 4s-4-1.791-4-4 1.791-4 4-4 4 1.791 4 4z" fill="#d4e7f0"/><path d="m33 4c0 2.209-1.791 4-4 4s-4-1.791-4-4 1.791-4 4-4 4 1.791 4 4z" stroke="#99a3a4" stroke-linecap="round" stroke-linejoin="round" stroke-width="2"/><path d="m0 21h58v32h-58z" fill="#fff"/><path d="m0 21h58v32h-58z" stroke="#99a3a4" stroke-linecap="round" stroke-linejoin="round" stroke-width="2"/><path d="m25 4-17 17" fill="#fff"/><path d="m25 4-17 17m25-17 17 17" stroke="#99a3a4" stroke-linecap="round" stroke-linejoin="round" stroke-width="2"/><path d="m11 47c-2.2 0-4-1.8-4-4v-12c0-2.2 1.8-4 4-4s4 1.8 4 4v12c0 2.2-1.8 4-4 4z" fill="#fff"/><path d="m11 47c-2.2 0-4-1.8-4-4v-12c0-2.2 1.8-4 4-4s4 1.8 4 4v12c0 2.2-1.8 4-4 4z" stroke="#99a3a4" stroke-linecap="round" stroke-linejoin="round" stroke-width="2"/><path d="m23 40c-2.2 0-4-1.8-4-4v-5c0-2.2 1.8-4 4-4s4 1.8 4 4v5c0 2.2-1.8 4-4 4z" fill="#fff"/><path d="m23 40c-2.2 0-4-1.8-4-4v-5c0-2.2 1.8-4 4-4s4 1.8 4 4v5c0 2.2-1.8 4-4 4zm8 7v-20m20 0v20m-8 0v-20m-24 9v11m20-10h-8m8-10h-8m8 20h-8m12-20 8 20" stroke="#99a3a4" stroke-linecap="round" stroke-linejoin="round" stroke-width="2"/></g></svg>