<svg height="55" viewBox="0 0 60 55" width="60" xmlns="http://www.w3.org/2000/svg"><g fill="none" fill-rule="evenodd" stroke="#000" stroke-linecap="round" stroke-width="2" transform="translate(1 1)"><path d="m33 4c0 2.209-1.791 4-4 4s-4-1.791-4-4 1.791-4 4-4 4 1.791 4 4z"/><path d="m0 21h58v32h-58z"/><path d="m25 4-17 17"/><path d="m33 4 17 17"/><path d="m11 47c-2.2 0-4-1.8-4-4v-12c0-2.2 1.8-4 4-4s4 1.8 4 4v12c0 2.2-1.8 4-4 4z"/><path d="m23 40c-2.2 0-4-1.8-4-4v-5c0-2.2 1.8-4 4-4s4 1.8 4 4v5c0 2.2-1.8 4-4 4z"/><path d="m31 47v-20"/><path d="m51 27v20"/><path d="m43 47v-20"/><path d="m19 36v11"/><path d="m39 37h-8"/><path d="m39 27h-8"/><path d="m39 47h-8"/><path d="m43 27 8 20"/></g></svg>