<svg enable-background="new 0 0 595.496 248.643" height="248.643" viewBox="0 0 595.496 248.643" width="595.496" xmlns="http://www.w3.org/2000/svg"><g fill="#8e9ba0"><path d="m411.383 169.398s-2.75-9.75 7.5-28.5 18.25-8.5 18.25-8.5 8.75 9.5-1.25 23.75-24.5 13.25-24.5 13.25zm-78.75 13.5c-11.75 30.75-40.25 18.25-40.25 18.25s-3.25-11 6-41.75 31-18.75 31-18.75 15 11.5 3.25 42.25zm-21.25-128.75s17.75-46.25 22-23.75-37.25 89.5-37.25 89.5c.5-15 15.25-65.75 15.25-65.75zm-253.751 115.25c.75-29.75 20.25-42.75 27-36.25s4.25 20.5-8.5 29.25-18.5 7-18.5 7zm537.751-4.937c-1-10-10-6.282-10-6.282s-14.5 11.237-27.25 9.985c-12.75-1.25-8.75-29.758-8.75-29.758s2.75-26.125-4.75-28.314c-7.5-2.19-16.75 6.808-16.75 6.808s-11.5 12.749-17 28.999l-1.5.5s1.75-28.501-.25-35.001c-1.5-3.25-15.25-3-17.5 2.75s-13.25 45.75-14 62.5c0 0-21.5 18.25-40.25 21.25s-23.25-8.75-23.25-8.75 51-14.25 49.25-55-41.125-25.683-45.584-22.333c-4.311 3.239-27.325 17.123-34.038 55.561-.229 1.312-.628 7.022-.628 7.022s-19.75 13.25-30.75 16.75c0 0 30.75-51.75-6.75-75.25-17-10.25-30.5 11.25-30.5 11.25s50.75-56.5 39.5-104.25c-5.358-22.738-16.724-25.181-27.162-21.502-15.838 6.252-21.838 15.502-21.838 15.502s-20.5 29.75-25.25 74-11.75 97.75-11.75 97.75-9.75 9.5-18.75 10-5-26.75-5-26.75 7-41.5 6.5-48.5-1-10.75-9.25-13.25-17.25 8-17.25 8-23.75 36-25.75 41.5l-1.25 2.25-1.25-1.5s16.75-49 .75-49.75-26.5 17.5-26.5 17.5-18.25 30.5-19 34l-1.25-1.5s7.5-35.5 6-44.25-9.75-7-9.75-7-10.5-1.25-13.25 5.5-12.75 51.5-14 65.75c0 0-26.25 18.75-43.5 19s-15.5-10.938-15.5-10.938 63.251-21.655 46.001-64.405c-7.751-11-16.751-14.453-29.501-14.203s-28.199 8.024-38.449 31.024c-4.893 10.977-6.301 21.381-7.301 29.265v-.003s-11.449 2.261-17.449-2.739-9.275 0-9.275 0-10.389 12.935-.139 16.935 26.155 5.684 26.155 5.684h-.012c1.47 7 5.745 19.077 18.225 28.561 18.75 14.25 54.747-1.215 54.747-1.215l14.749-8.232s.499 13.557 11.249 15.531c10.75 1.977 15.25-.019 34-45.519 11-23.25 11.75-21.998 11.75-21.998l1.25-.249s-8.5 44.501-5.25 56.501 17.5 10.749 17.5 10.749 7.75 1.311 14-20.689 18.25-46.439 18.25-46.439h1.5s-5.25 45.689 2.75 60.189 28.75 4.971 28.75 4.971 14.5-7.266 16.75-9.516c0 0 17.214 14.666 41.484 12.017 54.266-10.681 73.565-25.091 73.565-25.091s9.325 23.623 38.2 25.812c33 2.5 51-18.251 51-18.251s-.25 13.5 11.25 18.25 19.25-22.129 19.25-22.129l19.25-53.252h1.75s1 34.689 20 40.189 43.75-12.779 43.75-12.779 6.001-3.218 5.001-13.218z"/><text font-family="'MyriadPro-Regular'" font-size="40" transform="translate(505.4868 238.6431)">®</text></g></svg>