<svg enable-background="new 0 0 579.812 130.257" height="130.257" viewBox="0 0 579.812 130.257" width="579.812" xmlns="http://www.w3.org/2000/svg"><path clip-rule="evenodd" d="m341.702 94.365c-.57-5.737-5.74-3.604-5.74-3.604s-8.32 6.451-15.631 5.734c-7.318-.719-5.02-17.078-5.02-17.078s1.57-14.992-2.73-16.25c-4.299-1.256-9.609 3.908-9.609 3.908s-6.6 7.316-9.76 16.641l-.859.287s1.01-16.354-.141-20.084c-.859-1.865-8.75-1.721-10.041 1.578-1.289 3.299-7.6 26.252-8.039 35.863 0 0-12.33 10.471-23.09 12.193-10.76 1.721-13.34-5.021-13.34-5.021s29.26-8.177 28.26-31.559c-1.01-23.383-23.6-14.735-26.16-12.813-2.471 1.859-15.68 9.823-19.529 31.88-.131.752-.361 4.028-.361 4.028s-11.33 7.603-17.639 9.612c0 0 17.639-29.695-3.881-43.18-9.75-5.881-17.5 6.455-17.5 6.455s29.119-32.419 22.67-59.818c-3.08-13.048-9.6-14.448-15.59-12.336-9.09 3.586-12.529 8.893-12.529 8.893s-11.762 17.07-14.49 42.462c-2.721 25.392-6.74 56.089-6.74 56.089s-5.59 5.451-10.76 5.738c-5.16.287-2.871-15.35-2.871-15.35s4.021-23.812 3.73-27.828c-.279-4.018-.57-6.17-5.311-7.604-4.729-1.435-9.889 4.59-9.889 4.59s-13.631 20.657-14.781 23.813l-.719 1.291-.711-.861s9.611-28.116.43-28.546c-9.18-.432-15.209 10.041-15.209 10.041s-10.471 17.501-10.9 19.51l-.721-.861s4.311-20.369 3.441-25.391c-.861-5.021-5.59-4.017-5.59-4.017s-6.021-.718-7.602 3.155-7.318 29.552-8.039 37.729c0 0-15.061 10.76-24.961 10.902-9.889.143-8.889-6.277-8.889-6.277s36.289-12.423 26.389-36.953c-4.439-6.312-9.609-8.297-16.92-8.154-7.318.144-16.4 4.608-22.279 17.806-2.811 6.295-3.83 12.269-4.4 16.79 0 0-6.359 1.296-9.799-1.573-3.441-2.869-5.221 0-5.221 0s-5.91 7.534-.02 9.83c5.879 2.295 15.059 3.368 15.059 3.368h-.01c.85 4.016 3.301 10.839 10.461 16.279 10.76 8.176 31.41-.752 31.41-.752l8.469-4.752s.281 7.764 6.451 8.899c6.17 1.131 8.75-.017 19.51-26.125 6.311-13.341 6.74-12.629 6.74-12.629l.719-.144s-4.879 25.535-3.01 32.42c1.861 6.885 10.041 6.168 10.041 6.168s4.449.86 8.029-11.762c3.59-12.625 10.471-26.539 10.471-26.539h.869s-3.02 26.107 1.57 34.428 16.5 2.801 16.5 2.801 8.32-4.201 9.609-5.492c0 0 9.881 8.406 23.811 6.88 31.131-6.128 42.211-14.401 42.211-14.401s5.35 13.553 21.92 14.81c18.93 1.435 29.26-10.478 29.26-10.478s-.141 7.746 6.459 10.471c6.59 2.726 11.041-12.588 11.041-12.588l11.049-30.446h1s.58 19.796 11.48 22.952 25.1-7.391 25.1-7.391 3.442-1.898 2.872-7.637zm-308.56 2.834c.43-17.069 11.619-24.53 15.49-20.8 3.869 3.73 2.439 11.764-4.881 16.783-7.308 5.022-10.609 4.017-10.609 4.017zm145.6-66.13s10.189-26.539 12.621-13.628c2.439 12.911-21.371 51.354-21.371 51.354.291-8.606 8.75-37.726 8.75-37.726zm12.191 73.877c-6.74 17.645-23.092 10.473-23.092 10.473s-1.869-6.312 3.441-23.957c5.309-17.645 17.789-10.758 17.789-10.758s8.612 6.598 1.862 24.242zm45.19-7.747s-1.58-5.594 4.299-16.353c5.891-10.76 10.48-4.877 10.48-4.877s5.02 5.451-.719 13.627c-5.74 8.177-14.06 7.603-14.06 7.603z" fill="#8E9BA0" fill-rule="evenodd"/><g fill="#8e9ba0"><path d="m392.712 30.229c.279-3.143.42-5.635.42-7.477 0-2.424-.221-4.107-.66-5.051-.43-.941-1.061-1.414-1.881-1.414-1.459 0-2.779.908-3.969 2.727-1.191 1.816-2.141 4.161-2.861 7.029-.719 2.869-1.5 5.989-2.35 9.358s-1.469 6.669-1.859 9.897c-.391 3.23-.699 6.142-.939 8.734-.24 2.59-.4 4.432-.5 5.525-.191 2.23-.352 4.379-.471 6.447-.129 2.069-.211 3.957-.26 5.662-.051 1.707-.08 3.196-.08 4.469v2.934.684c2.5-5.98 4.801-11.934 6.9-17.869.879-2.528 1.75-5.168 2.6-7.91.859-2.747 1.699-5.473 2.541-8.174.85-2.703 1.559-5.379 2.139-8.027.58-2.649.99-5.164 1.23-7.544zm-31.76 45.928c-2.961 1.446-5.6 3.361-7.91 5.736s-4.24 5.506-5.791 9.4c-1.549 3.891-2.729 7.24-3.539 10.045-.801 2.805-1.211 5.338-1.211 7.603 0 .703.102 1.403.301 2.106.211.701.57 1.334 1.109 1.897.541.56 1.311 1.019 2.291 1.368.99.354 2.27.527 3.84.527.811 0 1.609-.178 2.389-.539.791-.354 1.541-.823 2.262-1.399.719-.576 1.398-1.235 2.049-1.972.65-.734 1.25-1.502 1.791-2.299 1.26-1.832 2.398-3.899 3.439-6.207-.141-.633-.25-1.64-.34-3.021-.1-1.378-.17-3.484-.211-6.311-.049-2.828-.09-5.149-.129-6.959-.051-1.81-.08-3.459-.109-4.955-.021-1.493-.061-2.713-.102-3.664-.049-.949-.09-1.402-.129-1.356zm46.66 39.756c-3.191 2.619-6.33 4.957-9.432 7.006-1.299.856-2.658 1.705-4.1 2.539-1.439.832-2.85 1.573-4.25 2.217-1.379.644-2.738 1.166-4.049 1.572-1.311.404-2.521.606-3.6.606-.65 0-1.602-.144-2.871-.429-1.26-.289-2.641-.869-4.131-1.752-1.5-.881-2.988-2.158-4.479-3.824-1.5-1.67-2.791-3.887-3.891-6.648-1.67 1.715-3.43 3.348-5.301 4.895-1.869 1.549-3.809 2.896-5.809 4.037-2.01 1.145-4.031 2.062-6.08 2.752-2.041.691-4.111 1.037-6.18 1.037-2.91 0-5.441-.606-7.57-1.82-2.131-1.215-3.9-2.828-5.32-4.846-1.41-2.014-2.471-4.299-3.16-6.857-.699-2.555-1.049-5.202-1.049-7.934 0-2.912.369-5.861 1.119-8.848.74-2.98 1.811-5.875 3.23-8.676 1.41-2.801 2.979-5.727 4.709-8.781 1.73-3.051 4.02-5.83 6.871-8.336 2.84-2.505 5.77-4.395 8.779-5.671 3-1.274 6.211-2.071 9.629-2.392.131-5.83.75-10.967 1.852-15.41 1.1-4.441 2.289-9.221 3.57-14.34 1.27-5.117 2.898-9.83 4.908-14.139 2.012-4.309 4.211-8.032 6.611-11.174 2.389-3.141 4.939-5.598 7.65-7.369 2.709-1.771 5.5-2.659 8.389-2.659 2.111 0 3.91.551 5.391 1.651 1.48 1.102 2.68 2.562 3.6 4.385.92 1.821 1.58 3.934 1.98 6.338.41 2.406.609 4.891.609 7.453 0 1.599-.01 3.244-.039 4.934-.131 6.443-1.131 12.441-2.98 17.992-1.859 5.549-3.699 11.037-5.52 16.459-1.82 5.424-4.01 10.791-6.57 16.098-3.92 8.124-6.42 13.639-7.5 16.542-.23.635-.461 1.407-.701 2.315-.229.908-.449 1.894-.658 2.959-.211 1.066-.391 2.157-.531 3.27-.139 1.111-.209 2.189-.209 3.23 0 1.317.08 2.566.24 3.746.148 1.18.398 2.235.75 3.164.35.932.818 1.67 1.41 2.213.59.545 1.318.816 2.189.816.859 0 1.789-.17 2.799-.51 1.012-.338 2.08-.801 3.201-1.391 1.119-.588 2.25-1.256 3.389-2.002 1.15-.748 2.262-1.504 3.342-2.275 2.459-1.809 5.039-3.869 7.738-6.176z"/><path d="m416.751 107.964c0 1.158.08 2.28.24 3.369.15 1.088.43 2.059.84 2.916.4.856.941 1.551 1.621 2.084.67.53 1.529.797 2.559.797 1.66 0 3.17-.722 4.521-2.168 1.35-1.445 2.52-3.186 3.5-5.219.99-2.033 1.789-4.136 2.4-6.303.609-2.168.998-3.977 1.18-5.424l5.02-21.883c-1.84 0-3.641.457-5.391 1.367-1.75.914-3.398 2.146-4.939 3.705-1.551 1.557-2.98 3.336-4.279 5.338-1.301 2.002-2.58 4.473-3.842 7.407-1.248 2.937-2.139 5.517-2.648 7.741-.522 2.226-.782 4.318-.782 6.273zm57.75 5.275c-1.029 1.451-2.41 3.152-4.139 5.105-1.73 1.951-3.66 3.812-5.82 5.582-2.15 1.769-4.471 3.269-6.93 4.494-2.471 1.225-4.941 1.836-7.41 1.836-2.98 0-5.471-.942-7.461-2.832-1.99-1.889-3.709-4.629-5.15-8.229-1.09 1.244-2.42 2.509-4.01 3.797-1.58 1.289-3.309 2.455-5.189 3.5-1.881 1.042-3.83 1.897-5.869 2.563-2.031.668-4.07 1-6.111 1-2.148 0-4.25-.442-6.289-1.325-2.041-.884-3.85-2.149-5.42-3.802-1.57-1.654-2.83-3.668-3.77-6.045-.941-2.379-1.41-5.061-1.41-8.049 0-3.353.469-6.797 1.42-10.33.949-3.533 2.41-7.354 4.398-11.471 1.99-4.115 4.121-7.669 6.4-10.666 2.281-2.994 4.771-5.611 7.48-7.847 2.711-2.237 5.57-4.015 8.57-5.334s6.061-1.979 9.18-1.979c1.029 0 1.85.205 2.439.611.58.409 1.07.875 1.451 1.395.379.522.76 1.035 1.119 1.533.359.497.811.861 1.35 1.088.541.226 1.102.373 1.66.441.57.066 1.141.102 1.73.102.49 0 1-.011 1.52-.035.521-.021 1.031-.031 1.531-.031.67 0 1.309.066 1.889.201.59.138 1.111.431 1.561.886.449.456.801 1.088 1.039 1.903.25.816.371 1.929.371 3.334 0 2.146-.221 4.527-.67 7.142-.451 2.614-.961 5.294-1.541 8.038s-1.238 5.87-1.979 9.384c-.74 3.511-1.111 6.47-1.111 8.878 0 2.057.191 3.664.57 4.822.381 1.161 1.201 1.74 2.461 1.74.939 0 1.92-.234 2.959-.7 1.031-.47 2.07-1.08 3.131-1.834 1.049-.757 2.109-1.613 3.16-2.572 1.059-.956 2.059-1.946 3-2.97 2.199-2.402 4.42-5.116 6.66-8.141z"/><path d="m510.052 115.581c-1.609 1.481-3.621 3.062-6.02 4.747-2.4 1.681-4.99 3.232-7.781 4.644-2.779 1.416-5.619 2.593-8.51 3.535-2.9.942-5.65 1.414-8.25 1.414-2.33 0-4.299-.326-5.889-.976-1.59-.651-2.881-1.56-3.871-2.728-.99-1.166-1.689-2.594-2.119-4.273-.432-1.686-.641-3.535-.641-5.555 0-2.827.311-6.127.939-9.896 1.301-7.798 2.131-12.176 2.5-13.14.611-1.917 8.49-43.576 10.33-50.152 1.701-5.36 2.75-8.848 3.15-10.467.221-1.133.84-2.153 1.85-3.063.93-.816 1.98-1.486 3.15-2.006 1.17-.523 2.381-.908 3.641-1.158 1.25-.25 2.389-.375 3.398-.375 1.852 0 3.111.348 3.771 1.045.66.695.99 1.627.99 2.793 0 .988-.23 2.383-.691 4.185-.459 1.804-.988 3.858-1.568 6.163-.592 2.309-1.471 5.271-2.621 8.896-1.16 3.625-8.609 44.129-9.029 46.684-.43 2.559-.961 5.1-1.611 7.624-.639 2.522-.969 4.817-.969 6.879 0 2.021.229 3.622.68 4.812.439 1.188 1.359 1.783 2.76 1.783 1.609 0 3.41-.56 5.381-1.683 1.979-1.12 3.969-2.479 5.99-4.074 2.02-1.592 3.998-3.239 5.93-4.946 1.93-1.705 3.629-3.164 5.109-4.375v13.663z"/><path d="m522.062 107.964c0 1.158.08 2.28.23 3.369.16 1.088.439 2.059.85 2.916.4.856.939 1.551 1.619 2.084.672.53 1.521.797 2.561.797 1.66 0 3.17-.722 4.521-2.168 1.338-1.445 2.51-3.186 3.498-5.219.99-2.033 1.791-4.136 2.391-6.303.609-2.168 1.01-3.977 1.189-5.424l5.021-21.883c-1.852 0-3.641.457-5.391 1.367-1.75.914-3.4 2.146-4.949 3.705-1.551 1.557-2.971 3.336-4.271 5.338-1.309 2.002-2.58 4.473-3.84 7.407-1.26 2.937-2.139 5.517-2.66 7.741-.51 2.226-.769 4.318-.769 6.273zm57.75 5.275c-1.029 1.451-2.41 3.152-4.141 5.105-1.729 1.951-3.67 3.812-5.818 5.582-2.16 1.769-4.471 3.269-6.941 4.494-2.459 1.225-4.93 1.836-7.398 1.836-2.98 0-5.471-.942-7.461-2.832-1.99-1.889-3.711-4.629-5.16-8.229-1.08 1.244-2.42 2.509-4 3.797-1.59 1.289-3.311 2.455-5.189 3.5-1.881 1.042-3.84 1.897-5.871 2.563-2.039.668-4.068 1-6.109 1-2.15 0-4.25-.442-6.291-1.325-2.049-.884-3.85-2.149-5.42-3.802-1.568-1.654-2.83-3.668-3.77-6.045-.939-2.379-1.42-5.061-1.42-8.049 0-3.353.48-6.797 1.43-10.33.941-3.533 2.41-7.354 4.4-11.471 1.98-4.115 4.121-7.669 6.4-10.666 2.279-2.994 4.77-5.611 7.48-7.847 2.709-2.237 5.57-4.015 8.57-5.334s6.059-1.979 9.17-1.979c1.039 0 1.85.205 2.439.611.59.409 1.07.875 1.459 1.395.381.522.75 1.035 1.111 1.533.359.497.82.861 1.359 1.088.539.226 1.09.373 1.66.441.561.066 1.141.102 1.73.102.49 0 1-.011 1.52-.035.52-.021 1.029-.031 1.52-.031.68 0 1.311.066 1.9.201.59.138 1.1.431 1.561.886.449.456.789 1.088 1.039 1.903.25.816.371 1.929.371 3.334 0 2.146-.221 4.527-.67 7.142-.451 2.614-.971 5.294-1.541 8.038-.59 2.744-1.25 5.87-1.99 9.384-.74 3.511-1.109 6.47-1.109 8.878 0 2.057.189 3.664.58 4.822.379 1.161 1.199 1.74 2.449 1.74.951 0 1.932-.234 2.971-.7 1.029-.47 2.07-1.08 3.119-1.834 1.061-.757 2.111-1.613 3.17-2.572 1.051-.956 2.051-1.946 3-2.97 2.191-2.402 4.41-5.116 6.66-8.141z"/><path d="m500.562 57.561c.35-.167.949-.226 1.791-.179.85.051 1.818.064 2.92.047 1.09-.021 2.279-.043 3.559-.072 1.281-.027 2.521-.047 3.721-.064 1.199-.014 2.311-.023 3.35-.033 1.041-.006 1.9-.002 2.58.006.801.011 1.41.482 1.811 1.416.41.935.65 2.129.719 3.582.092 1.681-.238 3.072-.988 4.168-.75 1.099-1.602 1.67-2.551 1.718l-23 1.153-19.949-1.164c-1.221-.141-2.16-.281-2.842-.424-.67-.142-1.379-.283-2.129-.42-.75-.139-1.699-.279-2.859-.422-1.15-.143-2.82-.311-5-.503-.971-.102-1.73-.352-2.281-.753-.539-.398-.939-.88-1.219-1.445-.26-.562-.441-1.156-.512-1.783-.068-.625-.119-1.161-.139-1.612-.031-.71.33-1.272 1.09-1.685.77-.414 1.75-.742 2.971-.992 1.209-.247 2.549-.42 4.01-.518 1.459-.095 2.869-.152 4.209-.176 1.35-.021 2.551-.049 3.621-.081 1.059-.028 1.789-.099 2.189-.21z"/></g></svg>
