<svg height="271" viewBox="0 0 443 271" width="443" xmlns="http://www.w3.org/2000/svg"><g fill="#8e9ba0" fill-rule="evenodd"><g><path d="m231.293 239.182c-17.481 0-21.144-8.023-21.144-14.755 0-.641.515-1.151 1.153-1.151h5.166c.576 0 1.058.416 1.147.979.78 5.259 3.104 7.912 13.677 7.912 8.416 0 11.999-1.903 11.999-6.369 0-2.573-1.016-4.485-14.095-5.767-10.931-1.081-17.691-3.496-17.691-12.239 0-8.062 6.793-12.868 18.187-12.868 12.798 0 19.131 4.441 19.933 13.973.03.328-.086.645-.305.889-.22.229-.524.369-.847.369h-5.186c-.537 0-1.012-.383-1.121-.902-1.243-5.533-4.27-7.302-12.476-7.302-9.189 0-10.257 3.2-10.257 5.601 0 2.906 1.26 3.751 13.667 5.393 12.276 1.623 18.108 3.922 18.108 12.551.002 8.699-7.256 13.686-19.915 13.686zm-12.34 31.762c-1.46 0-2.912-.382-4.189-1.121l-13.338-7.893c-1.992-1.113-1.02-1.509-.363-1.737 2.658-.922 3.195-1.136 6.031-2.743.295-.167.688-.104.992.076l10.247 6.083c.371.206.896.206 1.237 0l39.95-23.059c.372-.212.609-.641.609-1.081v-46.104c0-.451-.237-.872-.62-1.101l-39.933-23.039c-.369-.216-.858-.216-1.231 0l-39.922 23.045c-.389.223-.635.658-.635 1.095v46.104c0 .44.246.858.63 1.067l10.944 6.323c5.938 2.969 9.574-.528 9.574-4.041v-45.518c0-.646.517-1.151 1.16-1.151h5.065c.634 0 1.158.508 1.158 1.151v45.52c0 7.925-4.315 12.47-11.829 12.47-2.309 0-4.127 0-9.202-2.501l-10.476-6.03c-2.588-1.496-4.19-4.293-4.19-7.288v-46.104c0-2.995 1.603-5.792 4.19-7.281l39.952-23.086c2.527-1.43 5.888-1.43 8.396 0l39.947 23.085c2.587 1.496 4.194 4.286 4.194 7.281v46.104c0 2.995-1.607 5.781-4.194 7.288l-39.947 23.064c-1.277.74-2.726 1.122-4.207 1.122z"/><path d="m288.898 190.831c0 4.235-3.465 7.698-7.698 7.698-4.197 0-7.7-3.422-7.7-7.698 0-4.358 3.586-7.701 7.7-7.701 4.155 0 7.698 3.343 7.698 7.701zm-14.154-.02c0 3.586 2.893 6.479 6.436 6.479 3.586 0 6.479-2.954 6.479-6.479 0-3.586-2.934-6.438-6.479-6.438-3.503 0-6.436 2.811-6.436 6.438z"/><path d="m278.307 186.511h2.977c1.019 0 3.016 0 3.016 2.283 0 1.589-1.019 1.914-1.632 2.118 1.184.081 1.264.855 1.426 1.955.083.691.206 1.875.448 2.281h-1.831c-.043-.406-.329-2.607-.329-2.729-.119-.489-.285-.731-.896-.731h-1.507v3.461h-1.672zm1.631 3.789h1.345c1.098 0 1.304-.772 1.304-1.221 0-1.183-.816-1.183-1.264-1.183h-1.385z"/><path d="m394.842 105.215c.305-.176.68-.176.982 0l8.13 4.689c.304.176.491.5.491.852v9.388c0 .353-.188.675-.491.851l-8.13 4.691c-.305.176-.678.176-.982 0l-8.124-4.691c-.304-.176-.489-.498-.489-.851v-9.388c0-.352.187-.676.489-.852zm45.289 2.29c1.576-.915 2.546-2.601 2.546-4.424v-11.854c0-1.822-.97-3.51-2.548-4.424l-42.099-24.443c-1.584-.922-3.539-.922-5.127-.008l-42.356 24.453c-1.583.914-2.558 2.603-2.558 4.43v48.903c0 1.84.985 3.537 2.584 4.446l42.093 23.984c1.552.887 3.455.896 5.017.027l25.46-14.149c.81-.45 1.312-1.298 1.316-2.22.006-.924-.485-1.776-1.284-2.235l-42.625-24.466c-.796-.455-1.286-1.303-1.286-2.219v-15.326c0-.914.488-1.76 1.281-2.215l13.266-7.648c.789-.456 1.766-.456 2.556 0l13.271 7.648c.793.455 1.28 1.301 1.28 2.215v12.059c0 .916.49 1.762 1.283 2.218.793.458 1.77.454 2.561-.005z"/><path d="m394.842 105.215c.305-.176.68-.176.982 0l8.13 4.689c.304.176.491.5.491.852v9.388c0 .353-.188.675-.491.851l-8.13 4.691c-.305.176-.678.176-.982 0l-8.124-4.691c-.304-.176-.489-.498-.489-.851v-9.388c0-.352.187-.676.489-.852zm45.289 2.29c1.576-.915 2.546-2.601 2.546-4.424v-11.854c0-1.822-.97-3.51-2.548-4.424l-42.099-24.443c-1.584-.922-3.539-.922-5.127-.008l-42.356 24.453c-1.583.914-2.558 2.603-2.558 4.43v48.903c0 1.84.985 3.537 2.584 4.446l42.093 23.984c1.552.887 3.455.896 5.017.027l25.46-14.149c.81-.45 1.312-1.298 1.316-2.22.006-.924-.485-1.776-1.284-2.235l-42.625-24.466c-.796-.455-1.286-1.303-1.286-2.219v-15.326c0-.914.488-1.76 1.281-2.215l13.266-7.648c.789-.456 1.766-.456 2.556 0l13.271 7.648c.793.455 1.28 1.301 1.28 2.215v12.059c0 .916.49 1.762 1.283 2.218.793.458 1.77.454 2.561-.005z"/><path d="m299.04.34c-.793-.439-1.76-.431-2.543.029-.78.459-1.262 1.299-1.262 2.206v65c0 .639-.343 1.231-.895 1.551-.555.32-1.237.32-1.791 0l-10.608-6.112c-1.582-.912-3.529-.91-5.112.002l-42.371 24.453c-1.584.914-2.559 2.604-2.559 4.43v48.917c0 1.828.975 3.516 2.557 4.432l42.37 24.471c1.584.914 3.534.914 5.118 0l42.377-24.471c1.582-.916 2.558-2.604 2.558-4.432v-121.937c0-1.854-1.004-3.564-2.624-4.468zm-3.931 124.403c0 .456-.244.879-.641 1.106l-14.549 8.386c-.395.227-.882.227-1.276 0l-14.548-8.386c-.396-.228-.641-.65-.641-1.106v-16.799c0-.456.243-.88.64-1.108l14.547-8.402c.396-.229.885-.229 1.28 0l14.548 8.402c.396.229.64.652.64 1.108z"/></g><path d="m160.756 62.869-42.02 24.254c-1.572.906-2.539 2.582-2.539 4.395v48.549c0 1.813.967 3.488 2.537 4.396l42.02 24.273c1.571.906 3.508.906 5.079 0l42.028-24.273c1.572-.908 2.539-2.583 2.539-4.396v-48.547c0-1.814-.967-3.49-2.539-4.396l-42.03-24.254c-.785-.454-1.661-.68-2.538-.68-.876-.001-1.753.225-2.537.679"/><path d="m95.242 90.566c0-1.84-.969-3.532-2.558-4.444l-42.354-24.375c-.717-.422-1.52-.642-2.331-.674h-.438c-.81.032-1.611.252-2.339.674l-42.354 24.375c-1.58.912-2.562 2.604-2.562 4.444l.093 65.636c0 .913.475 1.762 1.277 2.21.786.471 1.758.471 2.541 0l25.172-14.414c1.592-.945 2.561-2.614 2.561-4.438v-30.665c0-1.828.969-3.52 2.555-4.428l10.718-6.174c.8-.461 1.672-.688 2.563-.688.873 0 1.769.227 2.545.688l10.715 6.174c1.586.908 2.559 2.6 2.559 4.428v30.665c0 1.824.981 3.504 2.563 4.438l25.165 14.414c.789.471 1.775.471 2.557 0 .78-.448 1.271-1.297 1.271-2.21z"/></g></svg>