<svg enable-background="new 0 0 720 232" height="232" viewBox="0 0 720 232" width="720" xmlns="http://www.w3.org/2000/svg"><path d="m284.634 98.086h-26.543v-13.762h69.249v13.763h-26.409v78.095h-16.297z" fill="#8e9ba0"/><path d="m325.878 107.218h13.344l1.119 12.216h.567c4.916-8.988 12.221-13.902 19.524-13.902 3.507 0 5.755.42 7.864 1.408l-2.81 14.043c-2.387-.703-4.215-1.125-7.164-1.125-5.476 0-12.079 3.793-16.295 14.185v42.14h-16.151z" fill="#8e9ba0"/><path d="m412.4 132.078c-.143-7.305-3.231-13.482-12.501-13.482-6.884 0-13.348 3.088-19.382 6.739l-5.901-10.817c7.584-4.771 17.276-8.987 28.231-8.987 17.275 0 25.703 10.536 25.703 29.779v40.871h-13.204l-1.259-7.586h-.426c-6.18 5.198-13.204 9.27-21.348 9.27-12.08 0-20.513-8.143-20.513-20.227.005-14.743 12.37-22.471 40.6-25.56zm-15.027 33.147c5.616 0 9.972-2.808 15.027-7.586v-15.449c-18.68 2.39-24.859 7.306-24.859 14.188 0 6.179 4.066 8.847 9.832 8.847z" fill="#8e9ba0"/><path d="m433.177 107.218h16.435l10.954 35.816c1.826 6.739 3.935 13.763 5.758 20.786h.564c1.96-7.023 3.933-14.047 5.896-20.786l10.958-35.816h15.59l-23.454 68.964h-18.682z" fill="#8e9ba0"/><path d="m505.384 86.007c0-5.477 4.216-9.272 9.972-9.272 5.765 0 9.973 3.796 9.973 9.272 0 5.335-4.208 9.132-9.973 9.132-5.756.001-9.972-3.796-9.972-9.132zm1.827 21.211h16.156v68.964h-16.156z" fill="#8e9ba0"/><path d="m540.206 157.922c6.176 4.775 12.08 7.729 19.104 7.729 7.443 0 10.951-3.512 10.951-8.287 0-5.76-7.442-8.288-14.747-11.098-9.133-3.371-19.384-8.566-19.384-20.082 0-12.083 9.691-20.651 25.14-20.651 9.552 0 17.279 3.928 22.898 8.288l-7.442 9.833c-4.775-3.512-9.69-5.899-15.169-5.899-6.884 0-10.119 3.231-10.119 7.584 0 5.335 6.885 7.587 14.328 10.255 9.411 3.508 19.804 8.004 19.804 20.928 0 11.797-9.407 21.348-26.822 21.348-9.412 0-19.385-4.07-26.124-9.551z" fill="#8e9ba0"/><path d="m664.793 82.639c11.235 0 20.363 5.477 26.124 11.656l-8.988 10.108c-4.774-4.628-9.972-7.579-16.995-7.579-15.027 0-25.844 12.635-25.844 33.287 0 20.928 9.969 33.572 25.279 33.572 8.146 0 14.188-3.375 19.383-9.133l8.987 9.971c-7.442 8.572-16.994 13.344-28.65 13.344-23.313 0-41.715-16.855-41.715-47.33 0-30.061 18.819-47.896 42.419-47.896z" fill="#8e9ba0"/><path d="m702.704 84.324h16.296v91.857h-16.296z" fill="#8e9ba0"/><path d="m163.518 131.626c.024 1.401-1.089 2.556-2.49 2.584-1.401.024-2.562-1.095-2.581-2.492-.029-1.401 1.086-2.56 2.486-2.584 1.407-.03 2.565 1.091 2.585 2.492z" fill="#fff"/><path d="m92.362 133.492c.035 1.396-1.07 2.564-2.467 2.601-1.407.04-2.575-1.063-2.614-2.471-.035-1.397 1.068-2.571 2.476-2.601 1.395-.039 2.566 1.065 2.605 2.471z" fill="#fff"/><path d="m64.104 173.65c-.118.02-.236.035-.354.035h.003c.112.001.231-.015.351-.035z" fill="#fff"/><path d="m53.321 166.736c.043.129.089.252.131.379-.041-.124-.086-.248-.124-.373z" fill="#fff"/><path d="m61.003 172.122 1.823 1.273-1.823-1.279-5.468-3.828v.004z" fill="#fff"/><path d="m198.125 168.553c.205-.589.409-1.178.607-1.775-.2.595-.402 1.186-.607 1.775z" fill="#fff"/><path d="m188.788 168.953c-.098.007-.194.005-.289-.008.096.013.191.015.289.008z" fill="#fff"/><path d="m205.661 93.444c.06.028.055.026 0 0z" fill="#dfc78b"/><path d="m205.266 93.25c.187.092.328.162.396.194-.06-.028-.188-.091-.396-.194z" fill="#dfc78b"/><path d="m204.406 92.83c.372.183.655.32.859.42-.236-.116-.542-.265-.859-.42z" fill="#dfc78b"/><path d="m204.406 92.83c-.019-.009-.035-.018-.054-.026.019.008.037.017.054.026z" fill="#dfc78b"/><path d="m162.795 51.025-.191-.708c.024.357.048.71.068 1.058z" fill="#dfc78b"/><path d="m45.415 93.444c-.054.026-.059.028 0 0z" fill="#dfc78b"/><path d="m46.671 92.83c.043-.021.086-.042.13-.063-.047.023-.085.041-.13.063z" fill="#dfc78b"/><path d="m46.671 92.83c-.318.155-.623.304-.859.42.203-.1.485-.237.859-.42z" fill="#dfc78b"/><path d="m45.812 93.25c-.211.103-.336.166-.396.194.067-.032.207-.102.396-.194z" fill="#dfc78b"/><path d="m149.597 100.985c-.37.481-.777 1.005-1.213 1.555-2.239 2.828-5.34 6.438-9.013 9.979-4.279-.134-8.672-.208-13.194-.208-7.474 0-14.64.197-21.444.524 9.618-3.986 21.167-7.884 33.677-10.222 3.65-.692 7.388-1.247 11.187-1.628z" fill="#d1e5ed"/><path d="m93.332 105.289c-3.437 2.412-7.309 5.487-11.068 9.221-9.622.966-18.021 2.129-24.944 3.248 10.646-4.892 22.799-9.399 36.012-12.469z" fill="#d1e5ed"/><path d="m210.924 125.158-3.919 27.385-18.754 13.141-48.91-5.562-7.359-24.248c-.175-.588-.674-1.021-1.282-1.123-1.812-.293-3.412-.437-4.75-.437-1.341 0-2.942.144-4.764.437-.601.104-1.096.535-1.279 1.123l-7.179 23.657-48.634 10.822-19.274-13.501-3.804-30.733c.832-.464 1.675-.931 2.52-1.396 1.195-.258 2.537-.529 4.022-.812l3.58 29.001c.049.45.303.853.675 1.112l13.263 9.291c.267.185.594.289.914.289.119 0 .233-.017.358-.041l39.985-8.896c.139-.034.271-.083.4-.146.367-.201.663-.537.783-.957l7.206-23.707c1.931-.496 6.879-1.655 11.227-1.655 4.339 0 9.287 1.159 11.223 1.655l7.201 23.707c.183.613.722 1.06 1.356 1.133l39.991 4.543c.386.045.78-.061 1.099-.283l13.267-9.275c.358-.258.604-.658.664-1.095l3.542-24.78c2.659.507 4.882.974 6.632 1.351z" fill="#d1e5ed"/><path d="m215.861 107.983-3.443 13.06c-7.041-1.555-22.503-4.601-43.551-6.652 6.874-2.932 13.877-6.606 20.275-11.207 12.525 1.768 21.721 3.67 26.719 4.799z" fill="#d1e5ed"/><path d="m36.503 107.983.957 3.615c2.679-2.134 5.131-3.902 7.2-5.313-3.372.648-6.122 1.237-8.157 1.698z" fill="#d1e5ed"/><path d="m182.942 101.466c-.01-.01-.024-.016-.034-.016-2.309-.172-4.615-.328-6.923-.478 2.308.15 4.614.307 6.923.483.015.001.025.006.034.011z" fill="#a51e28"/><path d="m166.035 111.08c5.273-2.334 10.642-5.218 15.747-8.782-5.106 3.563-10.474 6.447-15.747 8.782z" fill="#a51e28"/><path d="m171.542 100.698c-5.271-.297-10.539-.55-15.814-.768-.302.451-.925 1.356-1.816 2.576-2.826 3.822-8.397 10.792-15.536 16.771 5.372-1.703 26.682-8.852 37.477-18.312-1.437-.092-2.873-.184-4.311-.267z" fill="#8E9BA0"/><path d="m111.588 105.537c-.383.139-.768.278-1.146.418.378-.14.763-.279 1.146-.418z" fill="#a51e28"/><path d="m114.025 104.676c-.438.151-.875.303-1.307.456.432-.153.869-.305 1.307-.456z" fill="#a51e28"/><path d="m109.23 106.407c-.331.124-.658.248-.985.372.327-.124.654-.249.985-.372z" fill="#a51e28"/><path d="m106.944 107.282c-.268.104-.531.208-.797.313.266-.104.53-.208.797-.313z" fill="#a51e28"/><path d="m116.612 103.803c-.519.17-1.036.341-1.549.515.513-.173 1.031-.344 1.549-.515z" fill="#a51e28"/><path d="m125.445 101.154c-1.872.508-3.717 1.037-5.519 1.59 1.804-.554 3.648-1.082 5.519-1.59z" fill="#a51e28"/><path d="m119.927 102.744c-.826.254-1.646.515-2.459.777.813-.263 1.633-.523 2.459-.777z" fill="#a51e28"/><path d="m102.573 109.048c-.026.011-.054.022-.079.033.026-.011.053-.022.079-.033z" fill="#a51e28"/><path d="m104.724 108.165c-.18.071-.354.144-.532.217.177-.073.352-.146.532-.217z" fill="#a51e28"/><path d="m132.919 99.307c.008-.002.016-.003.023-.005-2.675-.035-5.35-.064-8.019-.074h-.005c-3.932.01-7.855.06-11.787.129l-7.25 3.437c-.011 0-.055.025-.107.06-1.091.53-10.608 5.333-19.569 13.901.784-.413 1.615-.841 2.471-1.275 4.901-3.293 17.972-11.091 38.296-16.231 1.983.012 3.966.024 5.947.058z" fill="#8E9BA0"/><path d="m88.367 100.183c-3.357.155-6.715.327-10.069.516-3.889.218-7.766.48-11.64.772-1.932.148-3.867.313-5.783.515-.556.054-1.1.114-1.645.184-5.062 3.025-24.436 15.188-37.747 31.105.229-.275.466-.549.701-.822 24.643-21.023 51.661-29.207 66.183-32.27z" fill="#8E9BA0"/><path d="m82.163 103.747c-26.62 7.875-48.152 20.821-60.68 29.528 12.532-8.709 34.06-21.654 60.68-29.528z" fill="#a51e28"/><path d="m84.756 103c4.427-1.238 8.988-2.327 13.668-3.229-.011.001-.021.001-.031.001-4.664.906-9.22 1.989-13.637 3.228z" fill="#a51e28"/><path d="m197.729 191.473s-.004.006-.008.012c-.001.002-.002.002-.003.004.003-.009.007-.01.011-.016z" fill="#a51e28"/><path d="m203.481 184.869c.138-.062.272-.127.41-.189-.137.064-.272.125-.41.189z" fill="#a51e28"/><path d="m204.403 184.439c.084-.039.167-.078.251-.117-.084.039-.167.078-.251.117z" fill="#a51e28"/><path d="m201.868 185.643c.185-.092.373-.18.564-.271-.191.091-.379.179-.564.271z" fill="#a51e28"/><path d="m201.146 185.996c.194-.096.396-.193.598-.293-.205.1-.403.197-.598.293z" fill="#a51e28"/><path d="m202.646 185.268c.167-.08.336-.16.504-.24-.169.079-.336.16-.504.24z" fill="#a51e28"/><path d="m199.858 186.645c.043-.021.085-.045.129-.065-.042.02-.087.043-.129.065z" fill="#a51e28"/><path d="m199.987 186.578c.128-.066.257-.131.391-.199-.135.068-.263.133-.391.199z" fill="#a51e28"/><path d="m200.378 186.379c.229-.115.462-.23.706-.352-.244.121-.48.237-.706.352z" fill="#a51e28"/><path d="m140.782 37.728h5.572v-11.321h-6.083-11.014-23.647v11.321h5.572v-5.75h11.522v34.959h-4.743v6.488h16.04v-6.488h-4.744v-34.959h11.525z" fill="#8E9BA0"/><path d="m166.035 111.08c-10.724 4.748-21.054 7.218-27.972 8.462 6.918-1.242 17.248-3.713 27.972-8.462z" fill="#88162b"/><path d="m138.375 119.277c-.105.088-.207.177-.312.265.105-.088.207-.177.312-.265z" fill="#88162b"/><path d="m175.853 100.964c.044.004.089.006.133.009-.045-.003-.089-.006-.133-.009z" fill="#88162b"/><path d="m182.942 101.466c-.387.272-.768.559-1.16.831.398-.272.774-.564 1.16-.831z" fill="#88162b"/><path d="m182.942 101.466c-.01-.005-.02-.01-.034-.01-2.309-.176-4.615-.333-6.923-.483-.044-.003-.089-.005-.134-.008-10.795 9.461-32.104 16.609-37.477 18.312-.105.088-.207.177-.312.265 6.918-1.245 17.248-3.715 27.972-8.462 5.272-2.335 10.641-5.218 15.747-8.782.394-.273.775-.56 1.161-.832z" fill="#8E9BA0"/><path d="m88.667 115.484c3.931-2 8.593-4.21 13.827-6.403-5.233 2.192-9.89 4.397-13.818 6.397-.003.002-.007.004-.009.006z" fill="#88162b"/><path d="m115.063 104.318c-.348.119-.692.239-1.038.358.345-.119.691-.239 1.038-.358z" fill="#88162b"/><path d="m132.919 99.307c-2.543.56-5.032 1.184-7.474 1.847 2.448-.665 4.945-1.289 7.497-1.847-.007 0-.015 0-.023 0z" fill="#88162b"/><path d="m117.468 103.521c-.288.093-.569.188-.855.282.285-.094.568-.189.855-.282z" fill="#88162b"/><path d="m110.441 105.955c-.407.149-.811.3-1.211.452.401-.152.804-.303 1.211-.452z" fill="#88162b"/><path d="m108.245 106.779c-.437.167-.871.335-1.301.503.429-.168.865-.336 1.301-.503z" fill="#88162b"/><path d="m106.147 107.595c-.478.19-.954.378-1.424.569.47-.19.947-.379 1.424-.569z" fill="#88162b"/><path d="m104.191 108.381c-.544.222-1.086.444-1.618.667.532-.222 1.075-.445 1.618-.667z" fill="#88162b"/><path d="m112.719 105.131c-.38.135-.754.27-1.131.406.377-.136.751-.271 1.131-.406z" fill="#88162b"/><path d="m126.972 99.248c-20.324 5.14-33.395 12.938-38.296 16.231 3.929-2 8.585-4.206 13.818-6.397.025-.011.053-.022.079-.033.532-.222 1.074-.445 1.618-.667.178-.073.353-.146.532-.217.47-.191.946-.379 1.424-.569.266-.104.529-.208.797-.313.43-.168.864-.336 1.301-.503.327-.124.654-.249.985-.372.4-.152.804-.303 1.211-.452.379-.14.764-.279 1.146-.418.377-.136.751-.271 1.131-.406.432-.152.868-.304 1.307-.456.346-.119.69-.239 1.038-.358.513-.173 1.03-.344 1.549-.515.286-.094.567-.189.855-.282.813-.263 1.633-.523 2.459-.777 1.802-.553 3.646-1.082 5.519-1.59 2.441-.664 4.931-1.287 7.474-1.847-1.981-.034-3.964-.046-5.947-.059z" fill="#8E9BA0"/><path d="m98.424 99.767c-3.35.121-6.701.26-10.055.415-.001 0-.002.001-.002.001 3.343-.154 6.686-.291 10.025-.41.011-.002.021-.005.032-.006z" fill="#88162b"/><path d="m88.367 100.183c-14.522 3.063-41.54 11.247-66.183 32.27-.235.273-.472.546-.701.822 12.527-8.707 34.06-21.653 60.68-29.528.858-.254 1.724-.502 2.593-.746 4.417-1.24 8.974-2.322 13.637-3.228-3.34.119-6.683.256-10.026.41z" fill="#8E9BA0"/><g fill="#88162b"><path d="m201.084 186.027c.021-.01.041-.021.062-.031-.021.012-.042.022-.062.031z"/><path d="m204.467 185.807c.22-.416.43-.82.639-1.217 0 0-.001 0-.001.002-.209.392-.422.803-.638 1.215z"/><path d="m201.743 185.703c.042-.02.084-.041.125-.061-.041.02-.083.042-.125.061z"/><path d="m131.385 198.79 1.736 2.065-1.725-2.057z"/><path d="m204.467 185.807c-1.361 2.598-2.891 5.541-4.362 8.403 1.472-2.862 3-5.802 4.362-8.403z"/><path d="m183.01 209.234c-.795.182-1.543.354-2.221.549.678-.193 1.431-.367 2.221-.549z"/><path d="m183.01 209.234c4.559-1.051 10.797-2.502 14.095-9.121-3.302 6.619-9.537 8.069-14.095 9.121z"/><path d="m197.721 191.482.004-.005-.006.007z"/><path d="m200.104 194.21c-1.058 2.062-2.087 4.08-3 5.904.914-1.822 1.943-3.843 3-5.904z"/><path d="m203.892 184.68c.168-.08.34-.16.512-.24-.173.08-.344.16-.512.24z"/><path d="m133.319 201.091c.88 1.035 4.566 5.313 8.944 9.657 3.332 3.301 7.349 4.969 11.963 4.969-4.61 0-8.631-1.668-11.963-4.973-4.377-4.342-8.064-8.618-8.944-9.653z"/><path d="m202.433 185.371c.072-.035.145-.068.214-.104-.07.036-.142.069-.214.104z"/><path d="m204.654 184.322c.26-.121.521-.242.78-.359-.258.117-.52.238-.78.359z"/><path d="m203.15 185.027c.111-.053.221-.105.331-.158-.11.053-.219.106-.331.158z"/><path d="m159.129 215.111c1.551-.375 3.23-.783 4.953-1.193 5.112-1.221 10.774-2.576 14.535-3.553-3.761.977-9.423 2.33-14.535 3.549-1.723.414-3.407.816-4.953 1.197z"/><path d="m50.302 195.098c.892 1.315 1.869 2.743 2.884 4.2-1.011-1.455-1.984-2.881-2.873-4.196-.003-.002-.007-.002-.011-.004z"/><path d="m130.001 198.6-.003.002h.001z"/><path d="m130.001 198.604-.002-.002-1.112 2.987z"/><path d="m57.716 205.634c-1.515-2.045-3.062-4.221-4.53-6.336 1.466 2.115 3.013 4.293 4.53 6.336z"/><path d="m85.23 221.805c1.649 0 3.402-.096 5.204-.305-1.801.203-3.557.305-5.206.305z"/><path d="m59.739 208.305c-.658-.847-1.339-1.748-2.023-2.671.685.925 1.362 1.824 2.02 2.671 5.452 7.016 12.322 13.5 25.49 13.5h.002c-13.171 0-20.036-6.485-25.489-13.5z"/><path d="m118.616 216.426c2.609-1.266 5.176-3.168 6.432-5.982 3.17-7.096 3.814-8.785 3.839-8.854-.024.062-.669 1.758-3.839 8.85-1.256 2.814-3.822 4.718-6.432 5.986z"/><path d="m110.39 218.844c.164-.021.331-.045.509-.066.059-.006 3.932-.506 7.718-2.352-3.786 1.842-7.658 2.34-7.723 2.346-.176.023-.342.048-.504.072z"/><path d="m92.797 221.23c11.454-1.318 14.596-1.873 16.34-2.176.452-.082.837-.148 1.253-.212-.417.062-.802.13-1.253.207-1.744.303-4.886.863-16.34 2.181z"/><path d="m66.996 209.16.009.01-.008-.008z"/></g><path d="m133.319 201.091c.88 1.035 4.566 5.313 8.944 9.657 3.332 3.301 7.349 4.969 11.963 4.969-4.61 0-8.631-1.668-11.963-4.973-4.377-4.342-8.064-8.618-8.944-9.653z" fill="#07090a"/><path d="m57.716 205.634c-1.515-2.045-3.062-4.221-4.53-6.336 1.466 2.115 3.013 4.293 4.53 6.336z" fill="#07090a"/><path d="m118.616 216.426c2.609-1.266 5.176-3.168 6.432-5.982 3.17-7.096 3.814-8.785 3.839-8.854-.024.062-.669 1.758-3.839 8.85-1.256 2.814-3.822 4.718-6.432 5.986z" fill="#07090a"/><path d="m85.23 221.805c1.649 0 3.402-.096 5.204-.305-1.801.203-3.557.305-5.206.305z" fill="#07090a"/><path d="m159.129 215.111c1.551-.375 3.23-.783 4.953-1.193 5.453-1.303 11.533-2.76 15.262-3.744-3.729.984-9.809 2.441-15.262 3.74-1.723.414-3.407.816-4.953 1.197z" fill="#07090a"/><path d="m91.663 221.359c12.383-1.412 15.673-1.994 17.474-2.305.452-.082.837-.148 1.253-.212-.417.062-.802.13-1.253.207-1.801.312-5.091.898-17.474 2.31z" fill="#07090a"/><path d="m204.467 185.807c-1.361 2.598-2.891 5.541-4.362 8.403 1.472-2.862 3-5.802 4.362-8.403z" fill="#07090a"/><path d="m130.001 198.6-.003.002h.001z" fill="#07090a"/><path d="m176.634 145.641c-3.351-1.619-7.014.43-13.686.555-4.967.179-9.132.232-9.405-7.561-.276-7.811 2.902-14.264 7.87-14.437 4.963-.175 9.495 6.013 10.104 13.797.169 2.149-.069 3.714-.6 4.873 4.615-.55 5.667 2.583 5.717 2.773zm-15.607-11.43c1.401-.029 2.515-1.184 2.49-2.584-.02-1.402-1.178-2.521-2.585-2.491-1.4.024-2.516 1.183-2.486 2.585.02 1.395 1.18 2.515 2.581 2.49z" fill="#8e9ba0"/><path d="m97.566 140.178c.074 7.799-4.056 7.33-9.027 7.379-.505.016-.98.023-1.457.023-.554.015-1.089.021-1.603.011-4.825-.011-7.905-.228-10.634 1.247.064-.168 1.263-2.847 5.592-3.938-.478-1.053-.778-2.521-.857-4.549-.298-7.795 4.511-14.189 9.478-14.234 4.967-.049 8.434 6.261 8.508 14.061zm-7.67-4.085c1.396-.034 2.502-1.204 2.467-2.601-.039-1.406-1.21-2.51-2.605-2.471-1.407.029-2.511 1.203-2.476 2.601.038 1.405 1.206 2.511 2.614 2.471z" fill="#8e9ba0"/><path d="m204.353 92.804c-.2-.097-.4-.196-.592-.29-.293-.142-.619-.303-.992-.485-.022-.01-.037-.018-.037-.018-.211-.104-.419-.223-.622-.354-2.197-1.014-4.498-1.8-6.797-2.554-.272-.089-.539-.169-.812-.248.021-.069.04-.139.051-.208.034-.26.624-4.625.269-11.504-.152-2.939-.477-6.334-1.092-10.068-.099-.595-.534-1.079-1.108-1.244l-3.382-.956c-.729-26.179-11.506-38.48-11.844-38.861 9.629 15.497 9.545 33.875 9.377 38.158l-20.975-5.962c-.015 0-.029 0-.049-.01-.085-.02-.18-.03-.269-.04-.02 0-.044-.004-.077-.004-.109-.005-.229.004-.343.03-.016 0-.034.015-.056.015-.093.02-.178.05-.271.094-.033.015-.063.035-.094.045-.069.048-.139.088-.208.138-.015.01-.035.02-.05.034-.02.015-.029.03-.04.04-.02.02-.044.035-.06.05-.02.021-.584.574-1.461 1.402.061-1.962.076-4.964-.147-8.63-.021-.348-.044-.701-.068-1.058-.659-9.21-2.836-22.147-9.342-33.472.057.163.699 2.042 1.531 5.207 2.094 7.963 5.39 24.078 3.593 41.565-.008.08-.014.16-.022.241-.027.022-.057.043-.085.065-.82.65-1.657 1.286-2.486 1.846-.415.288-.674.757-.683 1.262 0 .08-.185 7.898-3.636 14.555-.061.109-.093.219-.128.332-8.588-.589-17.2-.841-25.803-.847-8.597.005-17.215.243-25.808.827-.034-.104-.069-.213-.119-.312-3.456-6.657-3.634-14.475-3.639-14.555-.009-.505-.263-.975-.678-1.262-.857-.58-1.739-1.238-2.582-1.912-1.745-16.636 1.135-32.052 3.231-40.44.995-3.982 1.816-6.389 1.881-6.573-9.44 16.427-9.767 36.247-9.558 43.16-.893-.828-1.446-1.381-1.461-1.402-.016-.015-.045-.03-.065-.05-.01-.01-.02-.025-.034-.04-.016-.015-.035-.024-.055-.034-.069-.05-.14-.09-.209-.128-.034-.02-.059-.04-.099-.055-.09-.044-.167-.074-.257-.084-.025-.01-.044-.025-.06-.025-.119-.025-.238-.035-.348-.03-.029 0-.06.004-.089.004-.085.01-.168.02-.257.04-.02.01-.03.01-.05.01l-20.968 5.962c-.169-4.284-.259-22.662 9.369-38.158-.337.381-11.113 12.683-11.847 38.861l-3.367.956c-.589.165-1.021.648-1.118 1.244-.615 3.729-.938 7.12-1.092 10.056-.356 6.887.235 11.256.273 11.516.016.069.035.134.046.204-.269.083-.545.163-.813.247-2.302.754-4.612 1.544-6.81 2.562-.202.13-.409.248-.62.351 0 0-.014.007-.034.018-.374.182-.7.343-.993.485-.167.082-.343.167-.516.252-.109.062-.221.118-.328.181 1.556-.61 3.165-1.056 4.773-1.452 1.615-.401 3.24-.758 4.863-1.065 3.265-.608 6.538-1.134 9.831-1.535 3.284-.431 6.582-.787 9.885-1.064 3.305-.282 6.603-.56 9.915-.752 13.243-.783 26.52-1.03 39.803-1.035 13.286.01 26.563.217 39.803 1.03 3.313.193 6.611.469 9.919.748 3.31.282 6.597.643 9.88 1.074 3.295.396 6.573.921 9.831 1.531 1.63.312 3.25.658 4.858 1.069 1.62.396 3.22.842 4.78 1.452-.082-.049-.171-.094-.257-.143zm-118.958-9.583c-3.329.406-6.662.826-9.979 1.376-3.308.565-6.617 1.168-9.896 1.896-1.99.462-3.961.952-5.934 1.486-.018-.157-.042-.396-.07-.705-.229-2.447-.662-9.495.759-18.725l23.729-6.749c-.179 3.532-.276 10.688 1.249 18.008.212 1.015.453 2.033.731 3.045.03.098.07.198.114.288-.239.03-.467.05-.703.08zm3.585-.392c.067-.252.072-.53 0-.802-1.948-7.102-2.052-14.704-1.918-18.903 1.57 1.421 3.695 3.249 5.844 4.769.13 2.193.739 8.403 3.526 14.249-2.486.196-4.971.425-7.452.687zm73.131-.802c-.079.272-.069.555 0 .818-2.485-.263-4.972-.486-7.457-.689 2.787-5.845 3.396-12.069 3.531-14.263 2.144-1.521 4.273-3.348 5.839-4.769.142 4.189.038 11.791-1.913 18.903zm29.522 4.52c-.053.686-.104 1.174-.135 1.438-1.96-.534-3.94-1.02-5.932-1.486-6.562-1.441-13.202-2.511-19.879-3.273-.229-.03-.465-.045-.698-.074.044-.099.085-.199.114-.297.2-.728.374-1.458.539-2.188 1.721-7.613 1.631-15.195 1.437-18.864l23.736 6.749c1.293 8.434 1.043 15.052.818 17.995z" fill="#8e9ba0"/><path d="m150.549 41.912v-19.695h-49.123v19.695h13.95v-5.749h3.134v26.579h-4.733v14.863h24.415v-14.863h-4.749v-26.579h3.146v5.749zm-21.292-9.934v34.959h4.744v6.488h-16.04v-6.488h4.743v-34.959h-11.522v5.75h-5.571v-11.321h23.646 11.015 6.082v11.321h-5.571v-5.75z" fill="#8e9ba0"/><path d="m131.29 198.673v-.002c-.006-.004-.011-.008-.018-.014.007.006.012.01.018.016z" fill="#07090a"/><path d="m232.258 85.895c-.08-1.684-.247-3.367-.485-5.032-.108-.842-.238-1.684-.412-2.51-.162-.853-.33-1.646-.599-2.571l-.177-.654-.467-.367c-2.654-2.084-5.518-3.66-8.424-5.052-2.401-1.134-4.839-2.12-7.305-3.03-6.875-19.078-18.691-35.994-34.228-47.781-16.059-12.182-34.947-18.631-54.618-18.631-19.672 0-38.56 6.449-54.62 18.632-15.536 11.787-27.354 28.703-34.227 47.786-2.46.906-4.902 1.896-7.299 3.025-2.912 1.392-5.774 2.967-8.429 5.052l-.467.367-.179.654c-.257.925-.425 1.718-.599 2.571-.167.826-.292 1.668-.411 2.51-.238 1.665-.396 3.348-.484 5.032-.169 3.372-.074 6.75.296 10.103.357 3.348.981 6.666 1.871 9.955.467 1.634.997 3.249 1.626 4.853.312.803.653 1.599 1.031 2.396.186.397.39.784.598 1.189l.332.589c.129.218.213.377.407.664l.335.53.537.272c.568.292 1.039.515 1.553.759l1.501.673c.278.113.539.227.823.342-6.819 6.305-14.225 14.494-20.639 24.617l-8.099 12.775 11.371-9.979c.193-.169 9.727-8.423 25.628-17.773l.223 1.828c-1.04.541-6.04 3.164-7.526 4.408-2.463 2.045-2.582 5.219-1.923 11.142.338 3.036 1.476 8.929 3.011 14.331 2.645 9.297 4.583 10.941 6.285 11.326.768.185 1.759.27 2.873.27 3.046 0 6.947-.594 9.493-1.361 2.986 9.285 7.216 17.668 12.372 25.024-.249.067-.495.147-.744.219-3.101-1.438-13.945-6.462-17.591-8.101l-7.616-3.428 4.505 7.033c.328.508 8.104 12.633 14.453 20.807 5.938 7.621 14.069 15.422 29.412 15.422 1.847 0 3.779-.119 5.77-.338 4.575-.525 8.013-.938 10.627-1.273 16.106 5.918 33.865 6.281 50.719-.104 4.612-1.752 8.815-3.877 12.673-6.26.08-.011.154-.029.229-.05 6.27-1.512 13.377-3.205 16.888-4.19.564-.152 1.268-.32 2.001-.494 4.893-1.125 13.068-3.021 17.428-11.743 4.393-8.8 11.557-22.28 11.632-22.419l3.35-6.289-6.528 2.838c-.348.158-8.618 3.76-12.916 6.012-.153.086-.326.16-.501.242 3.487-7.115 5.246-12.805 5.859-14.988 2.406.578 5.972.504 8.596.504 1.29 0 2.617-.224 3.478-.444 1.705-.433 3.022-1.565 5.499-11.158 1.441-5.576 2.475-11.647 2.758-14.769.549-6.075.371-9.33-2.109-11.385-1.234-1.021-4.858-2.972-6.702-3.933l.09-.664c.941.224 1.446.353 1.486.362l1.674-6.346c.589-.252 1.213-.504 1.921-.777 1.01-.401 2.021-.801 3.032-1.237l1.493-.673c.521-.244.987-.467 1.557-.759l.533-.272.338-.53c.189-.287.289-.446.406-.664l.327-.589c.224-.405.42-.792.604-1.189.378-.797.714-1.594 1.031-2.396.628-1.604 1.158-3.219 1.624-4.853.887-3.289 1.521-6.606 1.873-9.955.376-3.353.46-6.731.292-10.103zm-210.775 47.38c.229-.276.466-.549.701-.823 13.283-15.507 32.082-27.311 37.046-30.283.549-.07 1.089-.13 1.64-.184 1.921-.208 3.853-.367 5.788-.509 3.879-.298 7.751-.566 11.645-.778 3.354-.189 6.709-.361 10.066-.517 3.354-.155 6.705-.294 10.055-.415-4.675.907-9.241 1.991-13.668 3.234-27.815 7.781-50.343 21.287-63.273 30.275zm15.02-25.292c2.035-.461 4.785-1.05 8.157-1.698-2.069 1.411-4.521 3.179-7.2 5.313zm41.298 11.371c-1.183 1.406-2.331 2.892-3.417 4.463l-6.565 9.424 9.562-6.379c.144-.1 6.235-4.105 16.189-8.973 9.93-.748 20.884-1.234 32.606-1.234 2.861 0 5.655.041 8.419.084-1.927 1.561-3.957 3.021-6.071 4.3l-7.042 4.259c-4.429.535-8.271 1.635-8.489 1.694-.135.028-.251.083-.365.157-.343.199-.604.531-.724.922l-7.191 23.668-38.381 8.531-12.094-8.468-3.512-28.491c6.86-1.263 16.051-2.725 27.075-3.957zm-20.482-1.596c10.646-4.897 22.8-9.399 36.003-12.469-3.422 2.412-7.299 5.487-11.063 9.221-9.622.962-18.012 2.129-24.94 3.248zm72.483 7.304c.797-.054 14.015-1.674 29.805-7.115 17.486 1.341 31.764 3.486 41.521 5.269l-3.457 24.228-12.193 8.537-38.332-4.356-7.156-23.554c-.163-.525-.569-.928-1.096-1.08-.235-.075-4.981-1.428-10.012-1.862zm8.261-5.52c.104-.088.206-.177.312-.265 7.139-5.985 12.709-12.95 15.536-16.771.892-1.224 1.515-2.125 1.821-2.581 5.271.223 10.539.476 15.81.773 1.439.081 2.875.173 4.311.266 2.351.152 4.702.313 7.056.492.015 0 .024.005.034.01-.387.267-.763.559-1.16.831-15.492 10.811-33.399 15.392-43.72 17.245zm10.321-17.006c-2.233 2.827-5.34 6.442-9.013 9.979-4.279-.124-8.672-.203-13.194-.203-7.474 0-14.635.197-21.444.524 9.613-3.991 21.167-7.878 33.677-10.222 3.65-.693 7.389-1.248 11.183-1.629-.366.481-.774 1.006-1.209 1.551zm-28.457.208c-12.534 3.857-23.363 8.725-31.26 12.74-.853.433-1.681.858-2.462 1.27 8.961-8.568 18.479-13.371 19.574-13.901.052-.035.092-.054.097-.06l7.256-3.437c3.932-.074 7.86-.119 11.781-.129h.006c.684.003 1.368.016 2.053.021 1.99.013 3.98.026 5.971.059-4.498.985-8.857 2.159-13.016 3.437zm-80.646 63.974c-.739-.747-1.727-3.208-2.704-6.339-1.521-4.877-3.009-11.386-3.481-15.621-.623-5.634-.184-6.848.393-7.322.663-.556 3.153-1.977 5.309-3.125l2.912 23.647c.06.455.298.856.673 1.123l5.972 4.18c.097.341.202.677.302 1.017.138.472.271.943.416 1.412-2.471.727-7.513 1.425-9.792 1.028zm96.81 44.839c-1.236.178-2.465.336-3.683.433-.793.038-1.625.125-2.383.125h-.283c.951-2.121 1.675-3.769 2.219-5.017 1.121 1.248 2.532 2.791 4.13 4.459zm-6.918 14.416c-6.334.426-12.763-.322-19.057-2.045.531-.1.911-.164 1.376-.219.521-.064 11.812-1.539 16.893-9.102l.482.01 1.252-.01c.843 0 1.61-.07 2.416-.105 1.923-.162 3.799-.439 5.646-.811.199.197.388.393.586.594 3.822 3.783 8.557 5.953 13.768 6.334-8.759 3.551-17.008 4.928-23.362 5.354zm70.24-39.1c.143-.072.296-.152.445-.229 1.563-.806 3.607-1.781 5.576-2.683-.106.203-.218.416-.329.627-.209.396-.419.802-.639 1.218-1.361 2.602-2.89 5.539-4.362 8.402-1.058 2.061-2.087 4.082-3 5.904-3.298 6.619-9.536 8.07-14.095 9.119-.79.183-1.543.355-2.221.55-.431.12-.913.25-1.445.391-3.729.984-9.809 2.44-15.262 3.744-1.723.41-3.402.817-4.953 1.192-1.672.398-3.327.605-4.902.605-4.614 0-8.631-1.668-11.963-4.969-4.378-4.344-8.064-8.622-8.944-9.657-.127-.147-.193-.229-.198-.233l-1.736-2.066c-.685-.52-1.097-.83-1.097-.83s-.148.189-.406.529l-.18-.17.296.281c.001-.002.002-.002.003-.002l-.002.002.002.002-1.114 2.985c-.024.067-.669 1.759-3.839 8.854-1.256 2.813-3.822 4.717-6.432 5.981-3.786 1.847-7.659 2.347-7.718 2.353-.178.021-.345.045-.509.065-.416.062-.801.13-1.253.211-1.801.312-5.091.894-17.474 2.306-.4.047-.809.094-1.229.141-1.802.209-3.555.305-5.204.305 0 0-.001 0-.002 0 0 0-.001 0-.003 0-13.168 0-20.038-6.484-25.49-13.501-.657-.846-1.335-1.747-2.02-2.67-1.517-2.043-3.063-4.221-4.53-6.336-1.015-1.457-1.992-2.885-2.884-4.2.004.002.008.002.011.004.374.174.751.344 1.126.518 4.714 2.166 9.295 4.295 9.377 4.322l.842.389.881-.25c13.655-3.904 26.53-8.059 26.654-8.1l.862-.275.479-.764c7.484-11.832 13.332-14.609 14.373-14.664.827-.041 1.677-.061 2.529-.061 10.404 0 19.087 3.219 19.177 3.242l.803.305.812-.26c13.231-4.1 19.273-5.977 21.354-5.977.407 0 .407 0 1.091.584.216.173.455.377.718.591 6.481 5.095 14.495 11.487 14.579 11.542l.555.447.698.074c.095.016 9.247 1.094 14.654 1.588 2.708.244 5.15.453 7.642.453 4.186.007 7.425-.63 9.896-1.929zm.061-22.375c-.454 1.451-.93 2.859-1.414 4.243-1.931 5.509-4.104 10.507-6.466 15.022-.649.038-1.343.069-2.075.069-2.283 0-4.615-.199-7.191-.435-4.477-.407-11.578-1.221-13.817-1.479-1.936-1.545-8.548-6.795-14.044-11.129-.214-.167-.396-.331-.585-.48-.967-.822-2.065-1.75-4.299-1.75-2.024 0-4.982.736-12.134 2.898 3.714-2.777 3.744-6.366 3.744-6.366s-5.298 4.923-13.837 6.021c-8.533 1.095-15.232-4.146-15.232-4.146.281.912.679 2.974 2.614 4.724-2.278-.266-4.733-.453-7.301-.453-.935 0-1.876.029-2.782.074-5.249.271-12.64 8.209-17.828 16.209-2.547.805-10.52 3.338-19.73 6.052-5.441-7.534-9.132-15.169-11.22-20.089-1.217-2.863-1.89-4.812-2.044-5.273v-.01c-.168-.479-.352-.969-.506-1.467l2.209 1.541v.015l5.468 3.83 1.823 1.272c.276.191.604.291.927.291.112 0 .231-.017.351-.035l46.812-10.428 3.43-.766c.565-.124 1.016-.544 1.185-1.094l7.165-23.588c1.234-.162 2.323-.248 3.26-.248.914 0 2.016.086 3.248.248l7.375 24.287c.187.625.723 1.063 1.356 1.139l2.735.309.696.078 47.133 5.357c.386.046.781-.061 1.098-.282l4.739-3.317 4.374-3.063 1.625-1.14c-.269 1.132-.561 2.252-.862 3.359zm-11.223 1.186-48.904-5.562-7.365-24.242c-.175-.594-.674-1.03-1.282-1.129-1.812-.293-3.412-.437-4.744-.437-1.353 0-2.942.144-4.764.437-.606.099-1.102.535-1.285 1.129l-7.175 23.655-48.638 10.818-19.279-13.502-3.799-30.733c.832-.464 1.669-.931 2.515-1.401 1.2-.252 2.542-.525 4.033-.812l3.569 29c.059.449.302.861.68 1.117l13.263 9.287c.267.193.594.293.914.293.119 0 .229-.016.353-.039l39.991-8.896c.144-.034.276-.077.396-.146.378-.199.663-.541.788-.951l7.211-23.711c1.921-.496 6.874-1.66 11.228-1.66 4.333 0 9.286 1.164 11.212 1.66l7.206 23.711c.183.607.717 1.055 1.356 1.123l39.996 4.548c.381.045.781-.06 1.089-.283l13.271-9.274c.358-.259.6-.66.664-1.096l3.536-24.775c2.665.504 4.888.976 6.633 1.352l-3.92 27.378zm29.61-31.81c.59.479 1.054 1.737.524 7.583-.638 7.16-3.65 19.725-5.512 21.745-2.055.401-6.368-.074-8.993-.683.445-1.804.579-2.676.94-4.517l4.602-3.221c.365-.257.608-.653.674-1.089l3.213-22.514c1.952 1.062 3.959 2.197 4.552 2.696zm-5.443-12.831c-7.041-1.551-22.503-4.601-43.551-6.652 6.874-2.932 13.877-6.606 20.275-11.207 12.524 1.773 21.727 3.669 26.719 4.798zm14.728-25.629c-.425 3.119-.999 6.21-1.841 9.202-.416 1.495-.887 2.976-1.432 4.397-.276.723-.574 1.426-.888 2.105-.156.342-.315.679-.484 1l-.188.376c-.236.119-.475.242-.703.347l-1.396.669c-.49.228-.989.441-1.491.663l2.472-9.379c-.573-.153-5.973-1.555-15.252-3.273.291-.059.579-.128.86-.193 1.928-.477 3.823-1.065 5.665-1.808.912-.392 1.824-.807 2.677-1.297.85-.491 1.697-1.045 2.346-1.789-9.291 3.041-28.496 1.664-45.577-.099-15.604-1.614-31.264-2.654-46.999-2.694-15.731.04-31.373 1.08-46.993 2.694-17.074 1.763-36.28 3.139-45.572.099.654.743 1.496 1.298 2.354 1.789.856.49 1.757.905 2.669 1.297 1.839.743 3.745 1.332 5.666 1.808.679.164 1.371.312 2.055.436-8.464 1.614-13.372 2.883-13.921 3.031l2.585 9.846c-.04.04-.09.089-.145.134-.885-.397-1.956-.908-2.738-1.264l-1.396-.669c-.222-.104-.465-.228-.698-.347l-.196-.376c-.165-.321-.323-.658-.477-1-.312-.679-.614-1.382-.881-2.105-.552-1.421-1.017-2.902-1.44-4.397-.843-2.992-1.413-6.083-1.845-9.202-.396-3.105-.608-6.245-.579-9.38.016-1.57.069-3.135.214-4.695.06-.783.149-1.55.236-2.323.069-.545.154-1.12.244-1.649 2.079-1.749 4.433-3.298 6.888-4.714 2.656-1.551 5.439-2.938 8.276-4.229 2.826-1.332 5.72-2.541 8.627-3.714 1.461-.584 2.927-1.159 4.393-1.709 1.476-.563 2.957-1.104 4.448-1.644-3.121.516-6.212 1.229-9.276 2.016-1.985.51-3.973 1.089-5.938 1.708 14.001-36.62 47.491-60.466 84.068-60.466 36.573 0 70.066 23.846 84.076 60.463-1.965-.619-3.956-1.198-5.947-1.708-3.061-.787-6.149-1.5-9.271-2.016 1.485.54 2.972 1.081 4.438 1.644 1.476.55 2.941 1.125 4.397 1.709 2.91 1.174 5.809 2.383 8.626 3.714 2.842 1.292 5.626 2.679 8.284 4.229 2.453 1.417 4.812 2.965 6.886 4.714.091.53.182 1.104.247 1.649.094.772.179 1.54.242 2.323.135 1.561.194 3.125.21 4.695.032 3.137-.182 6.277-.585 9.382z" fill="#8e9ba0"/><path d="m199.413 186.873c.143-.072.296-.152.445-.229 1.563-.806 3.607-1.781 5.576-2.683-.106.203-.218.416-.329.627-.209.396-.419.802-.639 1.218-1.361 2.602-2.89 5.539-4.362 8.402-1.058 2.061-2.087 4.082-3 5.904-3.298 6.619-9.536 8.07-14.095 9.119-.79.183-1.543.355-2.221.55-.431.12-.913.25-1.445.391-3.729.984-9.809 2.44-15.262 3.744-1.723.41-3.402.817-4.953 1.192-1.672.398-3.327.605-4.902.605-4.614 0-8.631-1.668-11.963-4.969-4.378-4.344-8.064-8.622-8.944-9.657-.127-.147-.193-.229-.198-.233l-1.736-2.066c-.685-.52-1.097-.83-1.097-.83s-.148.189-.406.529l-.18-.17.296.281c.001-.002.002-.002.003-.002l-.002.002.002.002-1.114 2.985c-.024.067-.669 1.759-3.839 8.854-1.256 2.813-3.822 4.717-6.432 5.981-3.786 1.847-7.659 2.347-7.718 2.353-.178.021-.345.045-.509.065-.416.062-.801.13-1.253.211-1.801.312-5.091.894-17.474 2.306-.4.047-.809.094-1.229.141-1.802.209-3.555.305-5.204.305 0 0-.001 0-.002 0 0 0-.001 0-.003 0-13.168 0-20.038-6.484-25.49-13.501-.657-.846-1.335-1.747-2.02-2.67-1.517-2.043-3.063-4.221-4.53-6.336-1.015-1.457-1.992-2.885-2.884-4.2.004.002.008.002.011.004.374.174.751.344 1.126.518 4.714 2.166 9.295 4.295 9.377 4.322l.842.389.881-.25c13.655-3.904 26.53-8.059 26.654-8.1l.862-.275.479-.764c7.484-11.832 13.332-14.609 14.373-14.664.827-.041 1.677-.061 2.529-.061 10.404 0 19.087 3.219 19.177 3.242l.803.305.812-.26c13.231-4.1 19.273-5.977 21.354-5.977.407 0 .407 0 1.091.584.216.173.455.377.718.591 6.481 5.095 14.495 11.487 14.579 11.542l.555.447.698.074c.095.016 9.247 1.094 14.654 1.588 2.708.244 5.15.453 7.642.453 4.186.007 7.425-.63 9.896-1.929z" fill="#8E9BA0"/></svg>
