<svg xmlns="http://www.w3.org/2000/svg" viewBox="0 0 20 20"><defs><style>.drop-acquia{fill:#26a4dd;}</style></defs><g id="Layer_2" data-name="Layer 2"><g id="ACQ_BRAND" data-name="ACQ BRAND"><path id="drop-acquia" class="drop-acquia" d="M3.83,9.84l.62,1.36H3.21Zm14.67,1.5A8.66,8.66,0,0,1,10,20C5,20,1.5,15.47,1.5,11.34,1.5,4.24,8.76,3,9.5,0,10.53,3.11,18.5,3.75,18.5,11.34Zm-13.1.78L4,9.06a.22.22,0,0,0-.2-.13.21.21,0,0,0-.2.13L2.24,12.12h.55l.2-.44H4.66l.2.44Zm.42-1.26A.91.91,0,0,1,6.71,10a.86.86,0,0,1,.6.24,2,2,0,0,1,.25-.45,1.4,1.4,0,1,0-.86,2.5A1.44,1.44,0,0,0,7.56,12a2,2,0,0,1-.25-.45.87.87,0,0,1-.6.24A.89.89,0,0,1,5.82,10.86ZM11,12.12l-.7-.66a1.52,1.52,0,0,0,.13-.62,1.39,1.39,0,0,0-1.34-1.4h0s0,0,0,0h0a1.54,1.54,0,0,0,.4.53,1,1,0,0,1,.46.83.88.88,0,1,1-1.76,0A1,1,0,0,1,8.62,10,1.4,1.4,0,0,0,9,9.47s0,0,0,0a1.4,1.4,0,0,0-1.36,1.4A1.38,1.38,0,0,0,9,12.18a1.54,1.54,0,0,0,1-.31l.27.25ZM13.31,9.5h-.53v1.32c0,.54-.28.87-.72.87s-.71-.34-.71-.87V9.5h-.54v1.32a1.26,1.26,0,1,0,2.5,0Zm1,0H13.8v2.62h.53Zm3,2.61V9.49h-.52V9.9l-.1-.1a1.13,1.13,0,0,0-1.7,0,1.41,1.41,0,0,0-.35,1,1.49,1.49,0,0,0,.35,1,1.17,1.17,0,0,0,.9.39,1.16,1.16,0,0,0,.8-.35l.1-.09v.36ZM16.05,9.87a.76.76,0,0,0-.59.27,1,1,0,0,0-.23.66,1,1,0,0,0,.23.67.74.74,0,0,0,.59.27.8.8,0,0,0,.61-.26,1,1,0,0,0,.23-.66,1,1,0,0,0-.23-.68A.78.78,0,0,0,16.05,9.87Z"/></g></g></svg>
