<svg height="24" viewBox="0 0 112 24" width="112" xmlns="http://www.w3.org/2000/svg"><path d="m106.771493 18.6067447c-1.218682 1.309776-2.673184 1.8491201-4.56021 1.8491201-1.729719 0-3.2235716-.6548881-4.2849942-1.9647103-1.0614227-1.3097761-1.6118092-2.8892473-1.6118092-4.892426 0-1.8491201.5503865-3.4285912 1.7297188-4.73836728 1.1793795-1.30982228 2.6732316-1.9647103 4.2850406-1.9647103 1.886979 0 3.380832.65488802 4.442254 1.9647103 1.061423 1.30977608 1.729719 2.88924718 1.729719 4.89242598 0 1.9261956-.511036 3.5441814-1.729719 4.8539575zm1.493853-11.47995955-.825557-.80899292c-1.729718-1.84912007-3.773957-2.77365699-6.054063-2.77365699-2.5552746 0-4.8353799.92453692-6.4471419 2.88924722-1.7297188 1.84912007-2.555275 4.35312814-2.555275 7.12683134 0 2.8892473.9434658 5.3932554 2.555275 7.2423754 1.7297188 1.8491201 4.0491273 2.8892472 6.6044019 2.8892472 2.162149 0 4.049128-.9245831 5.896803-2.5040081l.668297-.6549342v2.658113h3.891914v-19.10752783h-3.891914v3.04330588zm-30.1523585 6.58748735c0 3.9679353-2.0048885 6.4719434-5.3857197 6.4719434-3.3808311 0-5.3857668-2.5040081-5.3857668-6.4719434v-9.63079323h-3.8918673v9.63079323c0 5.7784944 3.8918673 10.0160786 9.2776341 10.0160786s9.2776341-4.1990695 9.2776341-10.0160786v-9.63079323h-3.8918673v9.63079323zm7.5479153 9.4767808h3.8918673v-19.10757403h-3.8918673zm-25.0024105-9.3226759c0-5.54736021-4.442301-9.90048837-9.9459775-10.1316226-.1179096 0-.2751697.115544-.1179096.2696489.3931264.80899292 1.3365923 2.61959832 2.9484014 3.81383037 2.1621485 1.57942494 3.3808312 3.54413523 3.3808312 5.93255313 0 3.0433521-2.4373653 6.4719433-6.4471895 6.4719433-4.0491273 0-6.4471894-3.4285912-6.4471894-6.4719433 0-2.3884179 1.3366395-4.35312819 3.3808311-5.93255313 1.6118092-1.30982228 2.6732319-2.99711602 2.9484487-3.80610894.1179096-.11559024 0-.2696489-.1179568-.2696489-5.6609365.115544-10.1031903 4.46099697-10.1031903 9.96979627 0 4.4687184 3.8918673 9.7464297 10.2211471 9.7464297 2.8304447 0 5.2284596-.8089929 6.9975288-2.2343592l2.0048885 1.8491201h5.6609365l-5.3071132-4.8924722c.5503865-1.1557174.943513-2.6195983.943513-4.3146135zm-53.38574664 2.6195983 4.56016344-9.90048834 4.5995139 9.90048834zm4.44225384-16.4879757c-.6683434 0-1.2186827.38523913-1.4938524.92453692l-10.2211471 22.26647018h4.04912733l1.49385234-3.1588961h12.38329563l1.4938523 3.1588961h4.0491746l-10.1425407-22.11236529c-.2751697-.65488802-.9434659-1.07864181-1.611762-1.07864181zm21.3857129 7.39648028c1.729766 0 3.3808311.65488802 4.442301 1.69501517.3930793-1.19423205 1.0614226-2.2343592 1.8869788-3.31300101-1.729766-1.30982228-3.8919145-2.1188152-6.3292798-2.1188152-5.6609365.0385609-10.37836 4.54579396-10.37836 10.20869816 0 5.5473602 4.5602106 10.1316226 10.3390568 10.1316226 2.4373653 0 4.5602106-.8089929 6.3292326-2.118769-.8255562-1.0401271-1.3365923-2.1187689-1.8869788-3.313001-1.2186355 1.0401272-2.6731846 1.6950152-4.4422538 1.6950152-3.6166977 0-6.6044024-2.8892472-6.6044024-6.4718971.0393033-3.5056206 2.9877047-6.39486782 6.6437056-6.39486782z" fill="#8e9ba0" fill-rule="evenodd"/></svg>