<svg id="Layer_1" data-name="Layer 1" xmlns="http://www.w3.org/2000/svg" width="2.86in" height="0.92in" viewBox="0 0 205.72 66.14"><defs><style>.cls-1{fill:#8f9ba1;}.cls-2{fill:#8f9ba1;}</style></defs><title>expel-io-logo-dark-registered</title><g id="_3fed3bff-f496-4f10-ab30-9bf7228c9af2" data-name="3fed3bff-f496-4f10-ab30-9bf7228c9af2"><g id="b98b3951-c4a9-468c-bc36-474d00def6ce"><path class="cls-1" d="M20.31,14.13a10.5,10.5,0,0,1,6.42,2.33l2.89,2.33a10.2,10.2,0,0,1,3.61,7.71v8c0,1.93-1.52,3.37-3.77,3.37H6.74v1.77a3.25,3.25,0,0,0,1.2,2.49l2.89,2.41a3,3,0,0,0,2.09.72H29.46c2.33,0,3.77,1.44,3.77,3.37S31.71,52,29.46,52H12.84A10.14,10.14,0,0,1,6.5,49.69L3.61,47.28A10,10,0,0,1,0,39.65V26.49a10.2,10.2,0,0,1,3.61-7.71L6.5,16.46a10.14,10.14,0,0,1,6.34-2.33ZM10.84,21.6,8,24a3.25,3.25,0,0,0-1.2,2.49v4.58H26.49V26.49A3.38,3.38,0,0,0,25.29,24L22.4,21.59a3.63,3.63,0,0,0-2.09-.8H12.92a3.6,3.6,0,0,0-2.08.8Z"/><path class="cls-2" d="M85.08,6.51h-41a1.56,1.56,0,0,0-1.56,1.56h0V57.53a1.56,1.56,0,0,0,1.56,1.56h41a1.56,1.56,0,0,0,1.56-1.56V8.07A1.56,1.56,0,0,0,85.08,6.51ZM77.65,51.94a3.91,3.91,0,0,1-2.89-1.44L64.41,37.89,54,50.49a3.66,3.66,0,0,1-2.89,1.44,3.19,3.19,0,0,1-3.29-3.09v-.12a3.72,3.72,0,0,1,1-2.49L60.07,32.67,49.47,19.91a3.93,3.93,0,0,1-1-2.73,3.37,3.37,0,0,1,3.21-3,3.78,3.78,0,0,1,3,1.44l9.79,11.8L74,15.57a3.76,3.76,0,0,1,2.89-1.44,3.31,3.31,0,0,1,3.29,3.29,3.91,3.91,0,0,1-1,2.49L68.82,32.59,80,46.24a3.41,3.41,0,0,1,1,2.41,3.25,3.25,0,0,1-3.21,3.29Z"/><path class="cls-1" d="M102.28,17.82l1.61-1.61a10.58,10.58,0,0,1,7.63-3.53H113a10.07,10.07,0,0,1,6.42,2.41l5.7,4.74a10.17,10.17,0,0,1,3.61,7.63V38.61a10.17,10.17,0,0,1-3.61,7.63L119.46,51A10.11,10.11,0,0,1,113,53.38h-1.52a10.58,10.58,0,0,1-7.63-3.53l-1.61-1.61V62.37c0,2.33-1.45,3.77-3.37,3.77a3.45,3.45,0,0,1-3.37-3.77V16.46c0-2.41,1.45-3.77,3.37-3.77a3.45,3.45,0,0,1,3.37,3.77Zm6.9,2.65-6,5.94a3.22,3.22,0,0,0-1,2.33v8.59a3.22,3.22,0,0,0,1,2.33l6,5.94a3.41,3.41,0,0,0,2.25,1H113a4,4,0,0,0,2.41-1L121,40.94a3.44,3.44,0,0,0,1-2.33V27.45A3.66,3.66,0,0,0,121,25l-5.62-4.74a3.64,3.64,0,0,0-2.41-.8h-1.52A3.17,3.17,0,0,0,109.18,20.47Z"/><path class="cls-1" d="M157.19,14.13a10.5,10.5,0,0,1,6.42,2.33l2.89,2.33a10.2,10.2,0,0,1,3.61,7.71v8c0,1.93-1.52,3.37-3.77,3.37H143.63v1.77a3.25,3.25,0,0,0,1.2,2.49l2.89,2.41a3,3,0,0,0,2.09.72h16.54c2.33,0,3.77,1.44,3.77,3.37S168.59,52,166.34,52H149.73a10.14,10.14,0,0,1-6.34-2.33l-2.89-2.41a10,10,0,0,1-3.61-7.63V26.49a10.2,10.2,0,0,1,3.61-7.71l2.89-2.33a10.14,10.14,0,0,1,6.34-2.33Zm-9.47,7.47L144.83,24a3.25,3.25,0,0,0-1.2,2.49v4.58h19.75V26.49a3.38,3.38,0,0,0-1.2-2.49l-2.89-2.41a3.63,3.63,0,0,0-2.09-.8h-7.38a3.52,3.52,0,0,0-2.1.8Z"/><path class="cls-1" d="M191.9,0c2.33,0,3.77,1.44,3.77,3.37v41.9h6.18c2.33,0,3.77,1.44,3.77,3.37S204.1,52,201.85,52H182.74c-2.33,0-3.77-1.44-3.77-3.37a3.45,3.45,0,0,1,3.77-3.37h6.1V6.74h-6.1c-2.41,0-3.77-1.45-3.77-3.37A3.46,3.46,0,0,1,182.74,0Z"/></g></g><path class="cls-1" d="M202,.41a3.72,3.72,0,0,1,0,7.44,3.69,3.69,0,0,1-3.72-3.72A3.69,3.69,0,0,1,202,.41Zm0,6.9a3.09,3.09,0,0,0,3.06-3.18,3.06,3.06,0,1,0-6.12,0A3.08,3.08,0,0,0,202,7.31ZM200.58,2h1.64c1,0,1.52.41,1.52,1.24a1.12,1.12,0,0,1-1.15,1.19l1.25,1.92h-.71L202,4.43h-.71V6.3h-.66Zm.66,1.94h.68c.59,0,1.16,0,1.16-.73s-.52-.67-1-.67h-.87Z"/></svg>