<svg height="36" viewBox="0 0 196 36" width="196" xmlns="http://www.w3.org/2000/svg"><g fill="#8e9ba0" fill-rule="evenodd"><path d="m25.57 5.82c-.78.76-7.13 6.39-7.13 6.39h-8.79l.81-4.38h9.1l-.29 1.75 5.29-5-3.73-4.58-.27 1.63h-8.43c-3.69 0-8.9 2.89-8.9 10.41-.01588029 1.2602769.28316369 2.5045749.87 3.62-1.67989328.6350177-2.8229306 2.206203-2.91 4-.02609925 1.1491328.27194346 2.2823883.86 3.27-.65013713 1.0034559-1.10792513 2.1191022-1.35 3.29-.14.71-.35 1.85-.59 3.05-.5 2.56.64 6.72 6 6.72h11.08c3.17 0 4.31-1.82 4.83-4.33s.78-3.55 1.16-5.42c.48-2.37-.33-6.82-6-6.82h-6.71c-.0249086-.4186699-.1373273-.8274652-.33-1.2h7.16c3.37 0 7.23-1.85 8.53-7.25.1465896-.7265849.2501034-1.46119929.31-2.2.16-1.32.11-2.29-.57-2.95zm-8.84 19.68-1 4.41h-9.24l1-4.41zm27.27.02c-.82 4-3.55 5.18-7.12 5.18-1.7719342.0420303-3.532049-.2990772-5.16-1l1.84-3.18c.9792912.4292542 2.041116.6375221 3.11.61 1.39 0 2.07-.41 2.27-1.32l.11-.48c-.5656204.1773948-1.1577505.2552176-1.75.23-1.1564564.0487899-2.2803125-.3899565-3.097827-1.2093721-.8175145-.8194157-1.253649-1.9442879-1.202173-3.1006279.0694486-1.9621579.735765-3.8564502 1.91-5.43 1.41-1.75 3.55-2.71 6.5-2.71 1.7192578-.0309005 3.4248776.3102235 5 1zm-3.44-9.52c-.82 0-1.41.5-1.86 1.73-.4014353 1.1714455-.6370511 2.3932816-.7 3.63 0 1 .36 1.41 1.21 1.41.1627268.0026865.3248178-.0209517.48-.07l1.31-6.61c-.1405045-.0547251-.289292-.0851589-.44-.09z" fill-rule="nonzero"/><path d="m54.38 16.65c-.5382412-.3667034-1.2032448-.4968128-1.84-.36l-1.91 9.3h-5.09l2.39-11.53c1.9202048-.7043338 3.9551575-1.0434926 6-1 .6911408-.0087771 1.3822291.0212702 2.07.09z"/><path d="m66.2 20.2-7 .93c.16 1 1 1.32 1.93 1.32 1.1473695-.0305471 2.2794166-.2711918 3.34-.71l.46 3.12c-1.5795681.6755522-3.2821094 1.0160604-5 1-3.52 0-5.41-2.09-5.41-5 .0165554-1.807348.6163148-3.5610304 1.71-5 1.3409074-1.7502654 3.4356238-2.7567692 5.64-2.71 1.2857392-.1201406 2.5585894.3358497 3.4755575 1.245096.9169681.9092462 1.3837059 2.1781948 1.2744425 3.464904-.0390957.7947811-.1802538 1.5812331-.42 2.34zm-5-4.21c-.86 0-1.43.7-1.77 1.64-.1377087.373988-.2284038.763641-.27 1.16l2.8-.41c.0848001-.3268737.1317746-.6624059.14-1-.1-.84-.33-1.38-.95-1.38zm17.86 4.21-7 .93c.16 1 1 1.32 1.93 1.32 1.1473695-.0305471 2.2794166-.2711918 3.34-.71l.46 3.12c-1.5795681.6755522-3.2821094 1.0160604-5 1-3.52 0-5.41-2.09-5.41-5 .0165554-1.807348.6163148-3.5610304 1.71-5 1.3409074-1.7502654 3.4356238-2.7567692 5.64-2.71 1.2857392-.1201406 2.5585894.3358497 3.4755575 1.245096.9169681.9092462 1.3837059 2.1781948 1.2744425 3.464904-.0392059.7947685-.1803614 1.5812066-.42 2.34zm-5.06-4.2c-.86 0-1.43.7-1.77 1.64-.1234817.3724654-.2007272.7586928-.23 1.15l2.8-.41c.0848001-.3268737.1317746-.6624059.14-1-.04-.84-.31-1.38-.94-1.38z" fill-rule="nonzero"/><path d="m92.79 17.47-1.71 8.12h-5.08l1.7-8.32c.009455-.0997765.009455-.2002235 0-.3 0-.46-.3-.75-.93-.75-.2445854.0076119-.488425.0309938-.73.07l-1.93 9.3h-5.03l2.39-11.53c1.926956-.678445 3.9571675-1.0168136 6-1 3.8 0 5.39 1.25 5.39 3.32.0103058.3647141-.0131272.7296001-.07 1.09z"/><path d="m97.79 25.59h-5.07l3.7-17.85h5.07z"/><path d="m104.59 25.59h-5.1l2.51-12.26h5.09zm.27-13.59c-.537326.0497335-1.071949-.119772-1.482458-.4700226s-.662065-.8515219-.697542-1.3899774c.176656-1.55789741 1.523156-2.7170203 3.09-2.66.5487-.06431489 1.099564.10119974 1.521948.45729014.422384.35609041.678661.87103545.708052 1.42270986-.187449 1.5699491-1.561183 2.7249356-3.14 2.64zm12.91 13.52c-.82 4-3.55 5.18-7.12 5.18-1.771934.0420303-3.532049-.2990772-5.16-1l1.84-3.18c.979291.4292542 2.041116.6375221 3.11.61 1.39 0 2.07-.41 2.27-1.32l.11-.48c-.56562.1773948-1.157751.2552176-1.75.23-1.179272.0707743-2.332397-.3668595-3.167769-1.2022313-.835372-.8353717-1.273005-1.9884964-1.202231-3.1677687.068816-1.9622774.735197-3.8567531 1.91-5.43 1.41-1.75 3.55-2.71 6.5-2.71 1.719258-.0309005 3.424878.3102235 5 1zm-3.48-9.52c-.82 0-1.41.5-1.86 1.73-.409327 1.1637236-.655008 2.3786685-.73 3.61 0 1 .36 1.41 1.21 1.41.162727.0026865.324818-.0209517.48-.07l1.39-6.62c-.158158-.0504028-.324354-.0707533-.49-.06z" fill-rule="nonzero"/><path d="m132.89 17.24-1.73 8.34h-5.09l1.73-8.37c.009222-.0997874.009222-.2002126 0-.3 0-.48-.29-.77-1-.77-.216802-.0048955-.432957.0255013-.64.09l-1.93 9.34h-5.09l3.71-17.85h5.15l-1.23 5.82c.832037-.2951944 1.707199-.4506285 2.59-.46 2.55 0 3.66 1.3 3.66 3.09-.00889.3600125-.052424.7183326-.13 1.07zm9.11-.56h-1.66l-1 4.75c-.031127.1419553-.054495.2855015-.07.43-.013081.1584174.045632.3143416.159952.4247865.11432.110445.272176.1637477.430048.1452135.346885.0039915.689715-.0748592 1-.23l-.64 3.11c-.797973.3339648-1.65497.504004-2.52.5-2.48 0-3.57-1.32-3.57-3.12.006536-.335962.043352-.6706503.11-1l1-5h-1.24l.68-3.34h1.32l.48-2.39 5.37-1.23-.85 3.6h1.66z"/><path d="m158.38 25.52c-.82 4-3.55 5.18-7.12 5.18-1.771934.0420303-3.532049-.2990772-5.16-1l1.84-3.18c.982362.4306999 2.047761.6389991 3.12.61 1.39 0 2.07-.41 2.27-1.32l.11-.48c-.56562.1773948-1.157751.2552176-1.75.23-1.179272.0707743-2.332397-.3668595-3.167769-1.2022313-.835372-.8353717-1.273005-1.9884964-1.202231-3.1677687.069449-1.9621579.735765-3.8564502 1.91-5.43 1.41-1.75 3.55-2.71 6.5-2.71 1.719258-.0309005 3.424878.3102235 5 1zm-3.48-9.52c-.82 0-1.41.5-1.86 1.73-.410459 1.1634114-.656173 2.3785163-.73 3.61 0 1 .36 1.41 1.21 1.41.162727.0026865.324818-.0209517.48-.07l1.39-6.62c-.158158-.0504028-.324354-.0707533-.49-.06z" fill-rule="nonzero"/><path d="m171.77 24.86c-1.919719.706169-3.955022 1.045386-6 1-3.37 0-5.23-.91-5.23-3.34.004973-.4500439.051842-.8986471.14-1.34l1.64-7.8h5.09l-1.71 8.21c-.009651.1131279-.009651.2268721 0 .34 0 .34.18.54.75.54.261017.0067361.52131-.0304486.77-.11l1.89-9h5.07zm10.05-8.21c-.538241-.3667034-1.203245-.4968128-1.84-.36l-1.91 9.3h-5.07l2.39-11.53c1.920265-.7041056 3.955174-1.0432572 6-1 .691141-.0087771 1.382229.0212702 2.07.09zm11.5 8.21c-1.919719.706169-3.955022 1.045386-6 1-3.37 0-5.23-.91-5.23-3.34.005031-.4500406.051899-.8986384.14-1.34l1.64-7.8h5.13l-1.71 8.21c-.009369.1131397-.009369.2268603 0 .34 0 .34.18.54.75.54.261017.0067361.52131-.0304486.77-.11l1.89-9h5.07z"/></g></svg>