<svg height="42" viewBox="0 0 225 42" width="225" xmlns="http://www.w3.org/2000/svg"><g fill="#8e9ba0" fill-rule="evenodd"><path d="m223.737113 26.7391304h-.412371v.5478261h.412371c.128866 0 .283506-.1043478.283506-.2608695-.025774-.1826087-.15464-.2869566-.283506-.2869566zm.231959 1.3304348-.386598-.6h-.257732v.6h-.206185v-1.5130435h.618556c.257732 0 .489691.1826087.489691.4695653 0 .3391304-.309278.4434782-.386598.4434782l.412371.6zm-.360825-1.9043478c-.618556 0-1.108247.4956522-1.108247 1.1478261 0 .6260869.489691 1.1217391 1.108247 1.1217391.618557 0 1.134021-.5217391 1.134021-1.1217391 0-.6521739-.489691-1.1478261-1.134021-1.1478261zm0 2.4782609c-.721649 0-1.314433-.6-1.314433-1.3304348s.592784-1.3304348 1.314433-1.3304348c.72165 0 1.314433.6 1.314433 1.3304348s-.56701 1.3304348-1.314433 1.3304348zm-5.515463-.2086957-6.597939-7.5913043-1.752577 1.9565217v5.6347826h-1.365979v-16.1478261h1.365979v8.8434783l7.706186-8.8434783h1.726804l-6.778351 7.6956522 7.422681 8.4521739zm-25.386598 0v-16.1478261h10.128866v1.2521739h-8.762887v6h8.608247v1.2521739h-8.608247v6.3913044h8.762887v1.2521739zm-11.572165 0v-14.8956522h-5.231959v-1.2521739h11.829897v1.2521739h-5.206186v14.8956522zm-102.319588-14.6608696-3.7886598 9.4434783h7.5515464zm5.7989691 14.6608696-1.572165-3.9652174h-8.4536082l-1.572165 3.9652174h-1.5721649l6.5463917-16.1478261h1.7010309l6.5463918 16.1478261zm58.9948449 0-10.051546-13.8782609v13.8782609h-1.365979v-16.1478261h1.391752l10 13.6956522v-13.6956522h1.36598v16.1478261zm-23.298969-14.6608696-3.788659 9.4434783h7.551546zm5.798969 14.6608696-1.572165-3.9652174h-8.453608l-1.572165 3.9652174h-1.572165l6.546392-16.1478261h1.701031l6.546392 16.1478261zm-19.046391-16.1478261h1.365979v16.1478261h-1.365979zm-6.984536 4.7217392c0-2.0347827-1.4175262-3.4695653-3.5309282-3.4695653h-4.4845361v6.9652174h4.4845361c2.113402 0 3.5309282-1.4608695 3.5309282-3.4956521zm-.025774 11.4260869-4.4845357-6.6782609h-3.5309278v6.6782609h-1.3659794v-16.1478261h5.9793814c2.757732 0 4.8711345 1.7739131 4.8711345 4.7217392 0 2.9217391-2.0360829 4.5652173-4.4329901 4.6434782l4.6134021 6.7826087zm56.778351-14.6608696-3.762887 9.4434783h7.551547zm5.798969 14.6608696-1.572165-3.9652174h-8.453608l-1.572165 3.9652174h-1.572165l6.546392-16.1478261h1.701031l6.546391 16.1478261zm-97.0876289 0v-14.4l-5.8247423 14.4h-.5154639l-5.8505154-14.4v14.4h-1.3659794v-16.1478261h2.0360825l5.4381443 13.4347826 5.4123711-13.4347826h2.0360825v16.1478261z" fill-rule="nonzero"/><path d="m1.05670103 25.173913c.41237113-.2608695.82474227-.4956521 1.2628866-.6521739.15463917.026087.30927835.1043479.38659794.2608696.02577319.6.15463917 1.226087.36082474 1.8.12886598.3391304.46391753.573913.82474227.4695652.33505154-.0782609.5927835-.4956522.46391752-.8347826-.23195876-.626087-.33505154-1.226087-.33505154-1.8782609.12886598-.0782608.36082474-.1565217.38659793-.1565217.18041238-.0521739.36082475-.0782609.54123712-.0782609.02577319 0 .05154639 0 .07731959-.0260869.5927835.0260869 1.15979381.1304348 1.75257732.3130434v.026087c.10309278.5217391-.10309279 1.0434783-.36082475 1.5130435-.28350515.5478261-.6185567 1.0695652-1.00515464 1.5391304-.77319587.9391305-1.72680412 1.6956522-2.93814433 1.8521739-.36082474.0521739-.56701031.5217392-.46391752.8347826.10309278.3913044.46391752.5217392.82474227.4695653.12886598-.026087.23195876-.052174.36082474-.0782609.23195876 0 .48969072-.026087.69587629.1043478.07731958.2608696.12886598.5739131.15463917.7565218.10309279.4695652.18041237 1.0173913-.02577319 1.4608695-.15463918.3391305-.10309279.7304348.23195876.9391305.28350515.1565217.77319588.1043478.92783505-.2347827.36082474-.8347826.33505155-1.6434782.15463918-2.5304347-.0515464-.2086957-.07731959-.3913044-.12886598-.5739131 0-.2608695 0-.5217391.07731958-.7304348.0515464-.1565217.12886598-.2869565.20618557-.4434782.20618557-.1826087.41237114-.3652174.59278351-.5739131.18041237 0 .33505154.026087.48969072.0782609.30927835.4695652.23195876 1.173913.20618557 1.6956522-.0515464.8869565 1.28865979.8608695 1.34020618 0 .05154639-.8608696 0-1.8521739-.48969072-2.5565218-.12886598-.3652174-.18041237-.7565217-.15463918-1.1217391.48969073-.8608696.82474227-1.8.61855671-2.7391304v-.026087c.15463917-.1043478.33505154-.1826087.51546391-.2347826.20618557-.0521739.43814433-.1043478.6701031-.1043478.30927835 0 .6185567.0260869.92783508.1043478.4123711.1043478.798969.2608696 1.185567.4695652.4896907.2869565.9536082.626087 1.3659794 1.0173913.1546391.1565218.3092783.3130435.4381443.4695652.1804124.3913044.3092783.8869566.2577319 1.3043479-.0773195.2086956-.1804123.4173913-.2835051.6260869-.1546392.2869565-.3350516.5478261-.5412371.8086957-.0515464.0260869-.0773196.0782608-.128866.1304348 0 0-.0257732 0-.0257732.0260869-.0257732 0-.0515464.026087-.0773196.026087-.0773196.0260869-.1546392.0521739-.2061856.0521739-.1030927.0260869-.1804123.0521739-.2835051.0782609h-.0515464c-.1804124-.7043479-.5412371-1.3304348-1.056701-1.852174-.0773196-.1043478-.1804124-.1565217-.2835052-.2086956-.0515464-.026087-.1030928-.026087-.1804124-.0521739-.1804123-.026087-.3350515.0521739-.48969068.1565217-.12886597.1043478-.23195876.2869565-.25773195.4695652-.0257732.1565218.02577319.3652174.15463917.4956522.18041237.1826087.36082476.3913044.48969076.6.1288659.2347826.2319587.4434783.3092783.7043478.0773196.2608696.1030928.5217392.128866.7826087v.026087c-.128866.2608696-.257732.5478261-.4381443.7826087-.128866.0782609-.257732.1826087-.38659798.2608695-.36082474.2086957-.72164948.3913044-1.10824742.4956522l-.69587629.1565218c-.36082474.0521739-.5927835.4173913-.54123711.7826087.0257732.1565217.12886598.3391304.25773196.4434782s.33505155.1565218.51546392.1304348c.07731958 0 .15463917-.026087.20618556-.026087.15463918.2347827.18041237.626087.18041237.8347827 0 .2608695-.05154639.5217391-.10309278.7565217-.02577319.0521739-.02577319.0782609-.05154639.1304348-.23195876.573913-.56701031 1.173913-.97938144 1.6695652-.18041238.0782609-.30927835.2347826-.41237114.4434783v.0260869c-.07731959.2086957.0257732.5217391.18041237.6521739l.0257732.026087c.18041237.1565217.41237113.2608695.6443299.1826087.43814433-.1565218.72164948-.6521739.97938144-1.0173913.33505155-.4695652.5927835-.9652174.82474227-1.4869566.15463917-.4173913.28350516-.8086956.33505156-1.2521739.0773196-.5217391.0257732-1.0434782.0515464-1.5391304v-.026087c.0257732 0 .0515464-.0260869.0773196-.0260869.5670103-.3130435 1.0824742-.7043478 1.5721649-1.1478261.1546392-.1304348.3092784-.2869565.4639175-.4173913h.0257732l.386598-.0782609c.0257732 0 .0515464.026087.0773196.026087 0 .0260869.0257732.0260869.0257732.0521739.1546391.2608696.2577319.5478261.3608247.8347826.2061856.7043478.3092783 1.4347826.3350515 2.1391304 0 .3391305 0 .7043479-.0257732 1.0434783 0 0 0 .026087-.0257731.026087-.2319588.0521739-.4639176.0782608-.6701031.1565217-.1804124.0521739-.3608248.1043478-.515464.1826087-.2061855.1304348-.3865979.2608696-.5412371.4695652-.2061855.3130435-.1546391.7043478.128866.9391304.128866.1043479.3350516.1565218.5154639.1304348.1546392-.0260869.3350516-.1304348.4381444-.2608695l.0257732-.026087c.0257731 0 .0257731-.026087.0515463-.026087l.1546392-.0782608h.0257732c.0515464.0260869.1030928.0782608.128866.1304348v.0260869c-.1546392.5478261-.3350516 1.0695652-.5927835 1.5652174-.1546392.2608696-.3350516.5217391-.5154639.7565217-.0773196.0782609-.1546392.1304348-.2319588.2086957-.2835051.2347826-.3092783.6521739-.1030928.9391304.1030928.1304348.2835052.2347826.4639175.2608696.1546392.026087.3608248-.026087.4896908-.1565217.6958763-.5739131 1.1340206-1.3826087 1.4690721-2.1913044.5412371-1.4086956.7731959-2.9478261.6701031-4.4608696-.0515464-.7565217-.1804123-1.4869565-.3865979-2.1913043-.128866-.4695652-.3350516-.9130435-.6185567-1.2782609 0-.0521739-.0257732-.0782608-.0257732-.1304348 0-.1565217.0257732-.3130434.0257732-.4695652.0257732-.0521739.0773196-.0782608.1030928-.1304348.2061855-.2869565.3865979-.6.5670103-.9391304l.0773196-.1565217c0-.026087.0257732-.026087.0257732 0 .1804123.4173913.3350515.8608695.4896907 1.2782608.2835051.7826087.5670103 1.5913044.9536082 2.3217392.0257732.0260869.0257732.0521739.0515464.0782608.1030928.3652174.5412371 1.6173913.6701031 1.8.3608248.5478261.7474227 1.0695653 1.1082474 1.5913044.3350516.4956522.7216495.9652174 1.1855671 1.3304348-.128866.3130435-.2319588.6260869-.386598.9391304-.4639175 1.0173913-1.0824742 1.9826087-1.8041237 2.8434783-.1030928.1304348-.4639175.6521739-.5927835.7565217s-.1546392.1304348-.2061856.2608696c.8505155.1826087 1.7268042.3913043 2.6030928.4173913.6701031.0260869 1.2886598.0521739 1.9587629.1043478-.0257732-.1826087-.1804124-.4173913-.3608247-.5478261-.128866-.1043478-.386598-.5478261-.4639176-.6782609-.1546391-.2347826-.2319587-.4956521-.2835051-.7565217.1546392.0521739.3092783.1043478.4639175.1304348.7731959.1565217 1.5206186.2086956 2.2938144.1043478.386598-.0521739.7474227-.1304348 1.1340207-.2608695.0257732 0 .5412371-.2086957.5670103-.2347827.798969-.3652173 1.5463917-.9130434 2.1391752-1.5652173.1030928-.1304348.2319588-.2608696.3350516-.3913044h.0257732c.5154639.3391304 1.1082474.6 1.7010309.7304348.7731959.1826087 1.5721649.2086956 2.371134.0521739.4381443-.0782609.8505155-.2347826 1.2628866-.4173913.3092784-.1565217.4639175-.6.2835052-.9130435-.1804124-.3130435-.5670103-.4434782-.9020619-.2869565-.1030928.0521739-.2061856.1043478-.3092783.1304348-.3092784.1043478-.6443299.1826087-.9793815.2347826-.3608247.0260869-.7216495.0260869-1.0824742-.026087-.1546392-.0260869-.3092784-.0521739-.4639175-.1043478-.257732-.1304348-.515464-.2608696-.7474227-.4434783l-.0257732-.0260869c-.0257732-.026087-.0773196-.0782609-.128866-.1043478-.0515464-.0782609-.1030928-.1826087-.1546392-.2869566.0515464-.1304347.1030928-.2347826.128866-.3652174.1804124-.4695652-.2319588-.9913043-.7216495-.9130434-.2319587.0521739-.4381443.2086956-.5412371.4695652-.0515464.1304348-.1030928.2869565-.1546392.4173913-.1804123.4173913-.4381443.8086956-.7216494 1.1478261-.2061856.2347826-.4381444.4695652-.6701031.6782608-.2061856.052174-.4123712.1304348-.5927835.2086957-.1546392 0-.3092784-.026087-.4381444-.0782609-.0773196-.0782608-.128866-.1565217-.2061855-.2608695-.0773196-.2608696-.1030928-.5217392-.1546392-.7826087-.0515464-.5739131-.0257732-1.1739131.0773196-1.7478261.1546391-.9391305.4381443-1.8521739.8247422-2.7130435.386598-.3391304.9536083-.026087 1.3917526.1304348.3092784.1043478.6185567.2086956.9536083.2869565.1546391.0521739.3350515.1043478.5154639.1304348.5670103.1565217 1.1597938.2347826 1.7525773.2608696.7474227 1.3565217 2.2164948 1.9565217 3.685567 2.1130434 1.4690722.1565218 3.1701031.1304348 4.4587629-.6782608.7474227-.4434783.0515464-1.6434783-.6701031-1.1739131-.4639175.2869565-1.0051546.4434783-1.5463917.4956522-.1030928-.0782609-.2061856-.1826087-.3092784-.2608696-.0257732-.0521739-.0515464-.0782608-.0515464-.1304348-.1030928-1.4086956.4123711-2.8434782 1.3917526-3.8347826 1.056701-1.0695652 2.5515464-1.5652174 4.0463917-1.4086956.3608248.0260869.6701031-.3391304.6701031-.6782609 0-.3913043-.3092783-.6521739-.6701031-.6782609-1.8556701-.1826086-3.7886598.5217392-5.0773195 1.8782609-1.2113403 1.3043478-1.8041238 3.0521739-1.6752578 4.826087-.128866.1304348-.2835051.2347826-.4639175.2869565-.7474227-.0782609-1.5206186-.3130435-2.0876289-.8086957 0-.0260869.0257732-.0782608.0515464-.1043478.1030928-.0260869.2319588-.0521739.3350516-.0782609.1804123-.0521739.3350515-.1565217.4123711-.3130434.0773196-.1304348.128866-.3391305.0773196-.4956522-.0773196-.2608696-.2835052-.4695652-.5670103-.5217391-.1030928-.026087-.2319588-.026087-.3350516 0-.0515464.0260869-.1288659.0260869-.1804123.0782608-.128866-.0521739-.257732-.1043478-.3608248-.1826087-.0257732-.2869565 0-.573913.0257732-.8608695.0515464-.3130435.1546392-.626087.2835052-.9391305.128866-.2869565.3092783-.547826.4896907-.8086956.1804124-.2086957.3865979-.4173913.6185567-.5739131.128866-.1043478.2061856-.3130434.2061856-.4695652 0-.1565217-.0515464-.3652174-.1804124-.4695652-.128866-.1304348-.2835052-.2086956-.4639175-.2086956-.0515464 0-.1030928 0-.1804124.0260869-.1030928.026087-.2061856.0782609-.3092784.1565218-.5670103.4173913-1.0309278.9913043-1.3144329 1.6173913-.3350516.6782608-.5412372 1.4347826-.5412372 2.1913043v.3652174c-.1030927.1304348-.2319587.2347826-.3608247.2869565-.1030928 0-.1804124-.0260869-.2835052-.0260869-.5670103-.1043479-1.1340206-.2608696-1.6752577-.4956522-.0773196-.026087-.1546392-.0782609-.2319588-.1304348-.2061855-.1826087-.4639175-.4434783-.4639175-.6782609 0-.1304347.0515464-.2608695.0515464-.3913043v-.0782609c.0773196-.1043478.1546392-.2086956.2319588-.2869565.4639175-.573913.9793814-1.0695652 1.5463917-1.5391304.128866-.1043479.2061856-.3130435.2061856-.4695653 0-.1565217-.0515464-.3652173-.1804124-.4695652-.2577319-.2608695-.6443299-.2869565-.9536082-.0521739-.3608248.3130435-.6958763.626087-1.0309279.9652174-.1546391 0-.2835051-.0521739-.4123711-.1043478l-.3092783-.3913044c-.128866-.2086956-.257732-.3913043-.3608248-.6 0-.0260869.0257732-.0260869.0257732-.0521739.128866-.1826087.257732-.3652174.4123711-.4956522.1804124-.0260869.386598-.0521739.5412372-.1043478.6701031-.2086956 1.2371134-.573913 1.7783505-1.0173913.6185567-.4956522 1.1597938-1.0956522 1.5979381-1.773913.2061856-.1826087.4123712-.3130435.6701031-.3913044.2835052.026087.5927835.026087.8762887.026087.1804123.1043478.3350515.2608695.4381443.4434782-.0257732.626087-.0515464 1.252174.2835052 1.8.4381443.7565218 1.2886597 1.2 2.0876288 1.4869566.8247423.2869565 1.185567-1.0434783.3608248-1.3043479-.4639176-.1565217-1.1082475-.4695652-1.3402062-.9652174-.1804124-.4434782-.0773196-.9913043-.0257732-1.4608695.1030928-.0782609.2061855-.1565218.3092783-.2086957.2835052-.0521739.5412371-.1304348.7989691-.2086956 1.056701.8869565 2.4226804 1.2 3.7628866 1.2521739 1.443299.0521739 3.0412371.0260869 4.3298969-.7043478.7474227-.4434783.0773196-1.6173913-.6701031-1.1739131-.3350515.1826087-.6958763.3130435-1.056701.3913044-.0257732 0-.0515464-.026087-.0773196-.026087-.1030928-.0782609-.1804124-.1565217-.257732-.2347826-.4381443-1.7217391.2835052-3.5217391 1.8556701-4.4086957.7474227-.4173913.0773196-1.5913043-.670103-1.173913-2.0103093 1.1217391-3.0412372 3.5217391-2.5257732 5.7652174-.2061856.1043478-.4639176.1826087-.6701031.2086956h-.0773196c-.7989691-.0260869-1.6237114-.1304347-2.3195877-.4695652.2319588-.1043478.4639176-.2086956.6701031-.3391304.7474227-.4173913.0773196-1.5913044-.6701031-1.173913-.3608247.2086956-.7474226.3913043-1.1340206.547826-.2319587 0-.4381443 0-.6185567-.1043478.2835052-1.0956522.0515464-2.2956522-.8247422-3.2086956-.5927835-.626087-1.5463918.3391304-.9536083.9652174.7474227.7826086.7216495 2.0347826-.0257732 2.7652173l-.5927835.1826087c-.0257732 0-.0257732 0-.0515464.026087h-.7474227c-.0515464-.0521739-.1288659-.1043478-.1546391-.1565217l-.0773196-.1565218c.0773196-.3652174.128866-.7304348.128866-1.0695652 0-.1826087-.0515464-.3391304-.1804124-.4695652-.1030928-.1304348-.3092784-.2086957-.4639175-.2086957-.3608248 0-.6958763.2869566-.6958763.6521739 0 .2086957-.0257732.4173913-.0515464.626087-.0257732.1043478-.0515464.2347826-.0773196.3391304 0 0 0 .026087-.0257732.026087-.2835052.1043478-.5670103.1565217-.8505155.1826087-.3092783.0260869-.6443299.0260869-.9536082-.026087-.3092784-.0521739-.6185567-.1565217-.9020619-.2608695-.2835051-.1304348-.5670103-.3130435-.8247422-.5217392-.257732-.2086956-.4639176-.4695652-.6701031-.7304347-.0773196-.1043479-.128866-.2086957-.1804124-.3130435-.0773196-.1565218-.2319588-.2869565-.4123711-.3391305-.1546392-.0521739-.3608248-.0260869-.4896908.052174-.3092783.1826086-.4639175.573913-.2835051.9130434.4896907.8608696 1.2113402 1.5913044 2.0876288 2.0347826.6443299.3391305 1.3659794.5217392 2.1134021.5478261.0257732.026087.0773196.026087.1030928.0521739.2061856.1043479.0773196.3652174-.0257732.5478261-.0257732.0521739-.0515464.1043479-.0515464.1826087-.3092783.3130435-.6185567.6-.9793814.8608696-.257732.1826087-.515464.3391304-.7989691.4434782-.1546392.052174-.3350516.1043479-.5154639.1304348h-.4123712c-.1288659-.0260869-.2577319-.0782608-.3865979-.1304348-.0257732 0-.0257732-.0260869-.0515464-.0260869-.0257732-.026087-.0515464-.0521739-.0515464-.0782609-.0257732-.4434782-.0257732-.8869565.0257732-1.3565217.0257732-.1565218-.0773196-.3652174-.1804124-.4695652-.1030927-.1304348-.3092783-.2086957-.4639175-.2086957-.1804124 0-.3608247.0521739-.4639175.1826087-.0257732.0521739-.0773196.1043478-.1030928.1304348-.0515464.1043478-.1030928.2086956-.1030928.3391304-.1030928.8086957-.0515464 1.6695652.1546392 2.4782609.1804124.8086956.5154639 1.5652174.9793814 2.2434783.128866.2086956.2835052.3913043.4123712.573913.0257732.1043478.0515464.2086957.0773196.3391304.0257732.2347826.0257732.5478261-.0257732.8347826l-.3092784.4695653s-.5927835 1.0956521-.7474227 1.4608695c-.3608247.8347826-.6701031 1.6956522-.8247422 2.6086957-.0773196.4434782-.1546392.8869565-.1804124 1.3304348-.0257732.4434782 0 .8869565.0515464 1.3304347.0515464.3913044.128866.7565218.2577319 1.1478261-.0257731.1043479-.0773195.2347826-.1288659.3130435-.1030928.0782609-.2319588.1043478-.3608248.1043478-.3608247-.1043478-.7216495-.2347826-1.056701-.3913043-.0257732 0-.0257732-.026087-.0257732-.026087-.0773196-.2086956-.128866-.4173913-.2061856-.6260869-.0257732-.3130435.0515464-.6782609.0515464-.9130435.2061856-.573913.3608248-1.173913.4896907-1.8.515464-2.7130435.1546392-5.4782609-.2061855-8.1913044-.0515464-.4434782-.1030928-.9391304-.1546392-1.4086956 0-.8869565-1.6752577-3.3130435-2.5515464-4.2.2319588-.1565217.4639175-.3130435.6701031-.4956522.0515464.026087.128866.0782609.1804124.0782609.0773196.0260869.128866.0260869.2061855.0260869.0515464.0782609.1546392.1565218.2061856.2086957.1804124.2086957.3608248.4434783.5670103.6521739.2319588.2869565.6958763.2347826.9536083 0 .2835051-.2869565.2319587-.6782609 0-.9652174-.1546392-.1826087-.3350516-.3913043-.4896908-.573913-.1288659-.1565218-.2577319-.3130435-.3865979-.4434783v-.1043478c0-.0521739.0257732-.0782609.0257732-.1304348.6958763-.8347826 1.2628866-1.773913 1.6752577-2.7913043.128866-.3130435.257732-.652174.3608248-.9652174.128866-.0782609.2577319-.1304348.4123711-.1826087.9278351.1826087 1.8814433.1826087 2.8350516.1043478.0773195.0521739.1288659.1043478.2061855.1565217.0515464.052174.0773196.1043479.128866.1565218.0515464.0782608.0773196.1565217.1030928.2608695-.0773196 1.0434783.1546392 2.1391305.7216495 3.026087.1804123.2869565.4639175.3652174.7216495.2869565.6443299-.0782608.7474226-.9130435.3092783-1.2260869-.3865979-.7304348-.4896907-1.5391305-.3350515-2.3217392.1288659-.2869565.3092783-.5217391.5927835-.7043478.2835051-.0521739.5412371-.1304348.8247422-.1826087.5670103-.1304348 1.1597938-.2869565 1.7268042-.4956522.3865979 0 1.1597938.2869566 1.2628866.2869566 1.185567.573913 2.5257732.7043478 3.8659793.7043478 1.701031 0 3.4536083-.0521739 4.8195877-1.1478261.2835051-.2347826.2319587-.7304348 0-.9652174-.2835052-.2869565-.6701031-.2347826-.9536083 0-1.056701.8347826-2.628866.7565217-3.8917526.7565217-.927835 0-1.984536-.0521739-2.8865979-.3652173-.0257732-.026087-.0515464-.0782609-.0515464-.1304348-.0257732-.026087-.0257732-.0782609-.0257732-.1043479.6185567-.3913043 1.1597938-.8608695 1.6237114-1.4347826.2319587-.2869565.0515463-.7565217-.2319588-.9391304-.3350516-.2086956-.6958763-.0521739-.9278351.2347826-.4896907.6521739-1.2628866 1.0956522-2.0103092 1.4086957-.1546392.0521739-.2835052.1304347-.4381444.1826087-.1288659 0-.2577319 0-.3865979-.026087-.0515464 0-.2319588-.0521739-.4123711-.1043478-.4639176-1.1478261-.5927835-2.4-.3608248-3.62608698 0-.02608695.0257732-.05217391.0257732-.07826087 0-.05217391.0257732-.10434782.0257732-.18260869.1030928-.10434783.2835052-.1826087.3865979-.23478261.0515464-.02608696.0773196-.02608696.128866-.05217392.7474227.31304348 1.6494846.33913044 2.371134.31304348 1.443299-.05217391 2.8608248-.54782608 3.7113403-1.77391304.2061855-.28695652.0515463-.75652174-.2319588-.93913044-.3350516-.20869565-.6958763-.05217391-.9278351.23478261-.5412371.75652174-1.5463917 1.04347826-2.4226804 1.09565218-.4896907.02608695-1.0051546.02608695-1.4948453-.07826087-.1546392-.02608696-.3092784-.07826087-.4896908-.13043478-.0773195-.07826087-.1288659-.15652174-.1804123-.26086957-.0257732-.07826087-.0257732-.15652174 0-.23478261.6185567-.93913043 1.4690721-1.69565217 2.4484536-2.2173913.7731959-.39130435.0773196-1.56521739-.6701031-1.17391305-1.3402062.70434783-2.4484536 1.82608696-3.1701031 3.15652174-.1030928.10434783-.4123711.88695652-.5154639 1.14782609-.5927835 1.66956522-.5412371 3.54782613.0515464 5.21739133 0 .2608695-.0773196.4956521-.2835052.6260869-.2835051.0782609-.5670103.1304348-.8505154.1826087-.1804124-.0260869-.3092784-.1304348-.4123712-.2869565-.0515464-1.0695652-.5154639-2.1130435-1.3659794-2.7652174-.2835051-.2347826-.6701031-.2869565-.9536082 0-.2319588.2347826-.2835052.7304348 0 .9652174.6185567.4956522.9793814 1.226087.9793814 2.0086957-.1030927.1304347-.2061855.2608695-.3350515.3652173-.0515464.026087-.0773196.026087-.128866.052174-.8505155.0521739-1.6752577.0260869-2.4742268-.1565218.2319588-1.2260869.2319588-2.5043478-.2319588-3.6782608 1.3659794-.83478266 2.5257732-2.06086961 3.2989691-3.46956527.9793815-1.8 1.2886598-3.8347826 1.0309278-5.86956521-.0515463-.36521739-.5154639-.57391305-.8247422-.46956522-.386598.10434783-.5154639.46956522-.4639175.83478261.0515463.46956522.0773195.93913043.0515463 1.40869565-.1030927.10434783-.2319587.1826087-.3608247.23478261-1.9329897.10434783-3.7371134-.91304348-4.6649484-2.68695652-.4123712-.7826087-1.572165-.07826087-1.1597939.67826087 1.0051547 1.95652174 2.9639176 3.20869565 5.1030928 3.36521739 0 0 .2835052.10434782.4123712.15652174.1288659.07826087.2061855.20869565.2577319.33913043-.5412371 1.64347826-1.6237113 3.10434783-3.0670103 4.12173913-.1030928 0-.2319588 0-.3350515-.02608695-.1030928-.15652174-.2061856-.31304348-.3092784-.44347826-.3350515-.49565218-.6701031-1.01739131-1.2113402-1.33043479-.7731959-.4173913-1.443299.75652174-.6701031 1.17391305.4381443.23478261.7474227.83478261 1.0051546 1.22608695.0515464.07826087.1030928.15652174.1546392.26086957-.0515464.18260872-.1546392.33913042-.2835051.49565222-.2835052.0782608-.5927835.1304347-.8247423.1565217-.5927835.1043478-1.2371134.1043478-1.8298969.0782609-1.0309278-.0782609-2.0360825-.3652174-2.9381443-.83478265-.0257732-.07826087-.0515464-.18260869-.0773196-.26086956.6701031-.88695652 1.0824742-1.90434783 1.3402062-2.94782609.1546391-.13043478.3092783-.23478261.5154639-.31304348.1030928-.05217391.2319587-.05217391.3608247-.07826087h.1030928c.9536083-.05217391 1.8041237-.4173913 2.5-1.04347826.6443299-.57391304-.3092783-1.53913043-.9536082-.96521739-.3350516.31304348-.7474227.49565217-1.1855671.6h-.0515463c-.4123712-.02608696-.7731959-.23478261-.9793815-.6.0257732-.80869565.0257732-1.64347826-.0257732-2.45217391-.0515464-.86086957-1.3917526-.88695652-1.3402062 0 .128866 2.32173913.128866 4.93043478-1.2371134 6.86086956-.1030928.02608696-.2061855.05217392-.3092783.10434783-.1030928.02608695-.2061856.02608695-.3092784.02608695-1.3659794-1.12173913-2.4226804-2.6347826-3.11855668-4.27826086-.15463917-.33913044-.64432989-.41739131-.92783505-.23478261-.33505154.20869565-.38659793.6-.23195876.93913043.67010309 1.56521739 1.67525769 3 2.91237109 4.14782609v.31304348c0 .15652174-.0515463.26086956-.1030927.36521739-2.31958767 1.53913045-5.30927839 1.95652175-7.93814437 1.14782605-.82474227-.2608695-1.18556701 1.0695653-.36082474 1.3043479 3.0927835.7304347 6.72680412.0521739 9.43298971-2.0086957.1546392 0 .3092783-.0260869.3608247-.0260869h.2319588c1.1082474.6521739 2.3195876 1.1217391 3.5824742 1.3043478h.0257732c.2061856.1043478.3608247.2608695.4639175.4434782 0 0 0 .026087.0257732.026087.2319588 1.0695652.386598 2.2695652-.2577319 3.1565217-.2061856.2869566-.0515464.7565218.2319587.9391305.3350516.2086956.6958763.0521739.9278351-.2347826.7474227-1.0173913.7216495-2.3478261.5154639-3.6.0257732-.026087-.128866-.4956522.1030928-.7043479.0257732-.0260869.0773196 0 .128866 0 .5154639-.0521739 1.0051546-.1565217 1.4948453-.2869565.1804124.026087.3608248 0 .5412371.0782609.0515464.0260869.1030928.0521739.1546392.1043478.128866.9652174-.1030928 1.9565217-.3608247 2.8956522-.4896907 1.8521739-1.443299 3.573913-2.886598 4.773913-.1288659.0782609-.2577319.1565218-.3865979.2086957-.1804124.1043478-.4896907.1565217-.7216495.1043478-.0257732 0-.0515464-.026087-.0773196-.026087-.3350515-.4173913-.5927835-.8869565-.798969-1.4347826-.3608248-.8869565-.7731959-1.8-.6958763-2.7913043.0257732-.3652174-.3350516-.6782609-.6701031-.6782609-.386598 0-.6443299.3130435-.6701031.6782609v.4956522c-.0257732.0521739-.0773196.0782608-.1030928.1304347-.1030928.026087-.2061856.026087-.2835052 0-.8762886-.5217391-1.5721649-1.4347826-2.1391752-2.2434782-.2061856-.3130435-.5927835-.4434783-.9278351-.2347826-.2835051.1826087-.4639175.6260869-.2319587.9391304 1.056701 1.5130435 2.2938144 2.9217391 4.1494845 3.2869565.0773196.1826087.1546392.3913044.2061856.5739131.3608247.9391304.7731958 1.8260869 1.4690721 2.5826087.6185567.6521739 1.2628866 1.3043478 1.9072165 1.9565217.7474227.7565218 1.2628866 2.426087 1.2886598 2.5043478.0515464.2869566.0773196.6.128866.8869566.0773196.573913.1546392 1.147826.2061856 1.747826.1288659 1.1739131.2577319 2.3217392.2835051 3.4956522.0257732.626087 0 1.2782609-.0773196 1.9043478-.0257732 0-.0515464.026087-.1030927.026087-.1804124-.0521739-.3350516-.1304348-.4896908-.2086956-.3092783-.1826087-.5927835-.4173914-.8762886-.652174-.3350516-.3391304-.6443299-.7304347-.9020619-1.1217391-.0515464-.0782609-.1030928-.1565217-.128866-.2347826-.1546391-.2869565-.3092783-.6-.4381443-.9130435.0257732-.0782608.0257732-.1565217.0515464-.2347826.3865979-.2086956.7474227-.4956522 1.0309278-.8347826.386598-.4434783.6185567-.9913043.7216495-1.5913043.0257732-.1826087-.0515464-.3391305-.1546392-.4956522-.1030927-.1565218-.2835051-.2347826-.4639175-.2608696-.1546392-.0260869-.3608247.0521739-.4896907.1565218-.1546392.1043478-.2061856.2869565-.257732.4695652 0 .0260869-.0257732.0782608-.0257732.1043478-.0515464.1565217-.1030927.2869565-.1546391.4173913-.0773196.1565217-.1804124.2869565-.3092784.4173913-.1030928.0782609-.1804124.1565217-.2835051.2347826h-.1804124c-.0515464-.0260869-.1030928-.0521739-.128866-.0782609-.0257732-.0782608-.0515464-.1565217-.1030928-.2347826-.3092783-.8086956-.6443299-1.5913043-1.0824742-2.3217391-.0257732-.0782609-.0773196-.1565217-.128866-.2347826-.0257732-.026087-.0515464-.0782609-.0773196-.1043478-.0515464-.0521739-.0773196-.1304348-.1288659-.1826087-.3350516-.4434783-.6958763-.8608696-1.1082475-1.2521739-.3608247-.3391305-.7216495-.6521739-1.1340206-.9130435 0 0-.0257732 0-.0257732-.026087-.0773196-.1304348-.1804124-.2347826-.2577319-.3652174-.2319588-.3913043-.3092784-.6782608-.3092784-1.1217391 0-.0782609-.0257732-.2869565-.0257732-.3391304.128866-.9652174 0-1.9565218-.3092783-2.8695652-.1546392-.4695653-.3608248-.8869566-.6185567-1.3043479-.257732-.4173913-.5670103-.7565217-.92783509-1.0956521-.12886598-.1304348-.33505155-.1304348-.51546392-.1304348-.18041237.0260869-.33505155.1304348-.43814433.2608695-.10309278.1304348-.15463917.3391305-.12886598.5217392.0257732.1565217.10309278.2869565.20618557.3913043l-.05154639-.0521739c.28350515.2869565.54123711.6.74742268.9130435 0 .1565217-.05154639.2869565-.07731959.4434782-1.54639175.7826087-3.32474227 1.0956522-5.05154639.9652174-.10309279-.0782608-.20618557-.1826087-.28350516-.2608695l-.07731958-.0782609c-.0515464-.6-.15463918-1.173913-.28350516-1.7478261 0-.0782609 0-.1826087.0257732-.2608696.02577319-.1304347.07731958-.2608695.12886598-.3913043.74742268-.4173913 1.57216494-.6521739 2.42268041-.7043478.85051546-.0521739.87628866-1.4086957 0-1.3565218-.92783505.0521739-1.8556701.2608696-2.68041237.6782609-.07731959 0-.18041237.026087-.25773196.026087h-.0257732c-.07731958-.026087-.15463917-.052174-.23195876-.1043479-.0257732-.0260869-.05154639-.0521739-.05154639-.0782608-.30927835-.6521739-.72164949-1.2-1.34020619-1.6434783-.28350515-.2086956-.74742268-.0521739-.92783505.2347826-.20618557.3391304-.05154639.7043478.23195876.9391304.6185567.4695653.90206186 1.1739131 1.13402062 1.8782609 0 .1304348.48969072 1.3304348.48969072 2.1652174 0 .0782609-.02577319.1565217-.05154639.2347826-.05154639.026087-.10309278.0521739-.15463917.0521739-.54123712-.1565217-1.05670103-.3913043-1.57216495-.6521739-.77319588-.4173913-1.44329897.7565218-.67010309 1.1739131 2.98969072 1.5913043 6.62371134 1.6695652 9.66494847.2086956.0257732 0 .0773196 0 .1030928.026087.0515464.0260869.1030927.0260869.1546391.0521739.0257732.0260869.0515464.0521739.0773196.1043478.0257732.1565217.0257732.3130435.0515464.4695652 0 .4173913-.0257732.8347826-.128866 1.226087-.0257732.1043478-.0515464.2086956-.1030927.3130435l-.0257732.0260869c-.0515464.026087-.0773196.0782609-.128866.1043478-.1030928.0782609-.20618559.1304348-.30927837.1826087h-.0257732-.02577319c-.85051547-.0782608-1.70103093.0782609-2.44845361.5217392-.20618557.0260869-.43814433.0260869-.67010309 0-2.16494846-.5739131-4.51030928-.2086957-6.39175258 1.0173913-.6185567.573913.07731959 1.7478261.79896907 1.2782608"/></g></svg>