<svg height="37" viewBox="0 0 136 37" width="136" xmlns="http://www.w3.org/2000/svg"><path d="m18.7003984 34.6150855c-2.0458437.3616546-4.1276797.4700841-6.2812343.7588729l-6.56864066-19.367035v20.1982388c-2.04584375.2167253-3.91225782.5057816-5.85052344.7948378v-37h5.4559375l7.4656562 20.9934777v-20.9934777h5.7788047zm11.306461-21.0652738c2.225539 0 5.6353672-.1084295 7.6812109-.1084295v5.7811247c-2.5485391 0-5.5275234 0-7.6812109.1084295v8.5997572c3.3741015-.2167254 6.7480703-.506049 10.1577656-.6144785v5.5641319l-15.9008438 1.2649219v-34.1452689h15.9008438v5.78125836h-10.1577656zm31.5142812-7.76841965h-5.9582344v26.59370825c-1.9382656 0-3.8765312 0-5.7426796.0720635v-26.66577175h-5.9582344v-5.78139205h17.659414zm9.3322031 7.37106765h7.8607735v5.7811246h-7.8607735v13.1163611h-5.6356328v-32.0499454h16.0448125v5.78125836h-10.4091797zm19.7413829 13.8387343c3.2663906.0720635 6.568375.3254222 9.7630464.5057815v5.7090612c-5.1326714-.3254223-10.2654761-.650176-15.5058589-.7588729v-32.4471638h5.7428125zm14.6085784 6.6123284c1.830554.1085632 3.76882.2169927 5.635234.4334507v-34.0369731h-5.635234zm30.796695-33.6035224-7.286492 17.5967327 7.286492 19.4032673c-2.15382-.2890562-4.307375-.686542-6.461063-1.0479291l-4.127546-10.6950806-4.199133 9.8281793c-2.082235-.3616546-4.092219-.4700841-6.173656-.7591403l7.393937-16.9462893-6.676352-17.37974h6.173391l3.76882 9.7197498 4.020235-9.7197498z" fill="#8e9ba0"/></svg>