<?xml version="1.0" encoding="utf-8"?>
<!-- Generator: Adobe Illustrator 16.0.0, SVG Export Plug-In . SVG Version: 6.00 Build 0)  -->
<!DOCTYPE svg PUBLIC "-//W3C//DTD SVG 1.1//EN" "http://www.w3.org/Graphics/SVG/1.1/DTD/svg11.dtd">
<svg version="1.1" id="Layer_1" xmlns="http://www.w3.org/2000/svg" xmlns:xlink="http://www.w3.org/1999/xlink" x="0px" y="0px"
	 width="503.777px" height="166.444px" viewBox="0 0 503.777 166.444" enable-background="new 0 0 503.777 166.444"
	 xml:space="preserve">
<g>
	<g>
		<path fill="#8e9ba0" d="M450.735,10.365c-0.023,0.012-0.043,0.019-0.067,0.035C450.911,10.431,450.933,10.422,450.735,10.365z"/>
		<path fill="#8e9ba0" d="M490.845,73.686C488.971,63.557,492.189,80.967,490.845,73.686c-1.86-10.065-11.433-18.023-21.566-18.544
			c0.76,0.039,2.805-2.955,3.26-3.565c0.831-1.106,1.554-2.295,2.121-3.559c1.024-2.299,1.47-4.795,1.326-7.307
			c-0.138-2.347-0.613-5.146-1.942-7.108c-1.8-2.654-4.205-4.877-6.331-7.262c-5.427-6.099-4.003-17.435-11.993-21.51
			c-9.808-4.995-20.217,19.61-20.195,19.619c-6.238-3.202-30.15-18.332-25.856,0.358c1.659,7.22,3.843,14.482,6.137,21.52
			c1.272,3.904,2.729,7.76,4.562,11.434c-5.722,0.429,1.689,9.227,2.936,10.259c5.053,4.18,10.818,6.962,15.726,11.366
			c1.337,1.201,4.028,3.23,5.3,0.972c3.674,1.657,7.512,2.941,11.411,3.96C465.623,86.907,494.538,93.664,490.845,73.686z
			 M440.622,23.443c0.437-0.964,0.878-1.921,1.428-2.825c1.377-2.256,2.865-4.481,4.424-6.59c1.324-1.795,3.28-3.595,5.633-3.679
			c3.17-0.117,7.531,13.521,9.092,15.995c3.289,5.202,10.886,10.648,9.794,17.489c-0.678,4.224-5.707,9.225-8.649,12.066
			c-5.857,1.04-11.284,3.824-15.864,7.569c-5.829,4.767-6.68,9.256-12.729,2.476c-0.788-0.882-0.609-4.615-0.727-5.82
			c-0.194-1.994-0.327-3.995-0.382-5.999c-0.107-4,0.102-8.013,0.769-11.959c0.667-3.95,1.797-7.822,3.428-11.484
			c0.752-1.685,1.729-3.159,2.601-4.767C439.875,25.112,440.247,24.276,440.622,23.443z M414.274,20.384
			c2.104-2.944,17.044,6.024,19.826,7.358c-4.815,10.843-6.293,22.554-4.475,34.268c-4.438-3.337-7.025-9.689-8.994-14.699
			c-0.998-2.537-2.172-5.252-2.859-7.901c-0.914-3.51-2.307-6.766-3.372-10.214C413.597,26.603,412.524,22.839,414.274,20.384
			C414.373,20.251,413.908,20.901,414.274,20.384z M484.018,74.667c0.366,11.861-36.329,0.346-41.422-2.219
			c5.373-6.801,15.644-15.119,25.089-13.223C473.364,60.365,483.814,68.006,484.018,74.667
			C484.049,75.655,483.941,72.111,484.018,74.667z"/>
	</g>
	<g>
		<path fill="#8e9ba0" d="M12.595,82.02c0-1.177,0.943-2.239,2.239-2.239h33.709c14.144,0,25.692,11.315,25.692,25.341
			c0,10.843-7.189,19.683-17.441,23.806l16.145,29.938c0.825,1.531,0,3.417-2.004,3.417H58.561c-1.061,0-1.65-0.589-1.886-1.06
			L41,129.991H27.917v30.052c0,1.18-1.062,2.24-2.239,2.24H14.834c-1.296,0-2.239-1.06-2.239-2.24V82.02z M47.246,117.378
			c6.247,0,11.668-5.42,11.668-12.022c0-6.247-5.421-11.431-11.668-11.431h-19.21v23.453H47.246z"/>
		<path fill="#8e9ba0" d="M83.219,159.219l36.655-79.32c0.353-0.707,0.942-1.296,2.002-1.296h1.18c1.179,0,1.65,0.589,2.003,1.296
			l36.302,79.32c0.707,1.531-0.236,3.063-2.005,3.063h-10.253c-1.768,0-2.594-0.707-3.418-2.357l-5.775-12.729h-35.24l-5.774,12.729
			c-0.472,1.178-1.533,2.357-3.418,2.357H85.222C83.454,162.283,82.513,160.75,83.219,159.219z M134.133,134.114l-11.783-25.929
			h-0.354l-11.551,25.929H134.133z"/>
		<path fill="#8e9ba0" d="M172.087,82.02c0-1.177,0.943-2.239,2.239-2.239h26.991c14.024,0,24.867,9.429,24.867,21.805
			c0,9.076-7.425,16.146-12.964,18.739c6.245,2.003,15.322,8.369,15.322,19.212c0,13.199-11.315,22.746-25.694,22.746h-28.522
			c-1.296,0-2.239-1.06-2.239-2.24V82.02z M199.902,114.432c6.012,0,10.137-4.713,10.137-10.606c0-5.894-4.125-10.019-10.137-10.019
			h-12.611v20.625H199.902z M201.552,148.376c5.893,0,10.608-4.597,10.608-10.726c0-5.893-5.894-10.254-12.022-10.254h-12.847
			v20.979H201.552z"/>
		<path fill="#8e9ba0" d="M242.906,82.02c0-1.177,0.943-2.239,2.24-2.239h26.99c14.025,0,24.868,9.429,24.868,21.805
			c0,9.076-7.426,16.146-12.966,18.739c6.247,2.003,15.322,8.369,15.322,19.212c0,13.199-11.316,22.746-25.694,22.746h-28.521
			c-1.297,0-2.24-1.06-2.24-2.24V82.02z M270.723,114.432c6.01,0,10.134-4.713,10.134-10.606c0-5.894-4.124-10.019-10.134-10.019
			H258.11v20.625H270.723z M272.373,148.376c5.892,0,10.605-4.597,10.605-10.726c0-5.893-5.893-10.254-12.022-10.254H258.11v20.979
			H272.373z"/>
		<path fill="#8e9ba0" d="M313.728,82.02c0-1.177,0.943-2.239,2.24-2.239h10.842c1.179,0,2.238,1.063,2.238,2.239v66.12h30.055
			c1.297,0,2.239,1.061,2.239,2.24v9.664c0,1.18-0.942,2.24-2.239,2.24h-43.135c-1.297,0-2.24-1.06-2.24-2.24V82.02z"/>
		<path fill="#8e9ba0" d="M374.198,82.02c0-1.177,0.944-2.239,2.24-2.239h47.968c1.297,0,2.24,1.063,2.24,2.239v9.666
			c0,1.177-0.943,2.239-2.24,2.239h-34.888v19.327h29.112c1.179,0,2.24,1.063,2.24,2.24v9.782c0,1.296-1.062,2.24-2.24,2.24h-29.112
			v20.625h34.888c1.297,0,2.24,1.061,2.24,2.24v9.664c0,1.18-0.943,2.24-2.24,2.24h-47.968c-1.296,0-2.24-1.06-2.24-2.24V82.02z"/>
	</g>
</g>
</svg>
