<svg height="44" viewBox="0 0 138 44" width="138" xmlns="http://www.w3.org/2000/svg"><g fill-rule="evenodd"><path d="m0 0h138v44h-138z" fill="#fff"/><path d="m16.1175766 25.5221722c0-.6338432-.5096949-1.1474142-1.1378829-1.1474142-.6290594 0-1.1387542.513571-1.1387542 1.1474142s.5096948 1.1474142 1.1387542 1.1474142c.628188 0 1.1378829-.513571 1.1378829-1.1474142zm2.240915 0c0 1.9024075-2.5388905 4.8143989-3.4180052 4.8143989-.8146406 0-3.4180052-2.9119914-3.4180052-4.8143989 0-1.9024074 1.5299559-3.4439983 3.4180052-3.4439983 1.8880492 0 3.4180052 1.5415909 3.4180052 3.4439983zm8.9200961 0c0 .6338432.5096949 1.1474142 1.137883 1.1474142.6290593 0 1.1378829-.513571 1.1378829-1.1474142s-.5088236-1.1474142-1.1378829-1.1474142c-.6281881 0-1.137883.513571-1.137883 1.1474142zm-17.2573104-4.6853477c-3.3666001-2.8786313-3.80310803-7.3076325-1.08386403-10.95354769 2.82031173 1.24837259 4.47224593 3.44312049 5.09346373 6.44816919.092355.4468507.1446314.8937014-.468745 1.1921871-1.5012039.73129-2.6826505 1.8585125-3.5408547 3.3131914zm23.5269932.0623308c-.9601432-1.5328119-2.1720844-2.5511749-3.5783195-3.3930802-.2927479-.1755798-.4591611-.9077477-.3772614-1.3212382.5462884-2.7522138 2.062304-4.8170326 4.5802838-6.0645273.1977791-.0983247.7109591.0667203.8364224.2651255 1.8244463 2.872486 2.0448785 6.4077859-.2883915 9.1977494-.3537369.4231474-.7327408.8243473-1.1727338 1.3159708zm-5.2441941-4.1823115c.6403859-1.5055971 1.1535659-3.0138278 1.9002471-4.3938853 1.0185185-1.879582 2.6782942-3.13497781 4.5349776-4.13929444.4713588-.25459075.6700092-.08427832.9305199.29672991 2.8856572 4.22620653 2.5240788 9.29344033-.9714698 13.02802333-.3650635.3897872-.4748439.6996856-.3450242 1.2615411.7170579 3.0981061.1158794 6.1145675-.7379685 9.088012-.6490986 2.2553229-1.6798149 4.3306765-3.2672749 6.07594-1.3975224 1.5354456-3.1635934 2.1306612-5.1997591 1.8260302-1.0472705-.157144-1.8653962-.7277784-2.1973513-1.7751121-.3267275-1.0280199-.6116339-2.0797431-.79373-3.1428789-.2509267-1.4573126.2927478-2.6538892 1.4053639-3.6151887.5820105-.5021583 1.2842568-.9735902.9610144-1.9489361-.3101733-.94023-1.0690523-1.3080698-1.9342267-1.3651332-.8233533-.0553077-1.6946266-.0544298-2.4805151.1580218-1.4402148.3906652-1.77217 1.9348898-.5933372 2.8127889 2.0405221 1.5178876 2.2931914 3.4483879 1.6118557 5.7160014-.3990432 1.3291393-.7763046 2.62843-2.3228147 3.0673796-1.6153407.4591412-3.1069606.2484454-4.3607229-.9042361-2.8961125-2.6582787-4.29712-6.1189571-5.04641502-9.8904118-.42518138-2.1385624-.66042517-4.292049-.05576149-6.4578262.06447422-.2308874-.1568292-.6206747-.35373697-.8366379-3.49380597-3.8460761-3.87280986-8.7368523-1.02723123-13.05611607.32847004-.49689091.58462439-.54517537 1.07950763-.27829403 3.36398628 1.8181291 5.39666688 4.6019473 6.07626008 8.4831395 4.5053543-1.3045582 8.9253238-1.375668 13.1875928-.0096569zm-5.7033551-16.7037871c-12.2832111-.42051369-22.30024035 9.37157339-22.59385946 21.4058149-.3066882 12.5627368 9.71034104 22.3478007 21.37059176 22.5769324 12.2169944.2387885 22.3176658-9.7455585 22.2662607-21.9264091.1036815-11.9403063-9.3958114-21.65777199-21.042993-22.0563382zm103.8618777 22.4733403c.629059.0289706 1.211941.0553076 1.872366.0860341 0 .3906651-.001742.7163657 0 1.0429442.010455 2.2658577-.028752 4.5343491.047049 6.7993289.070573 2.1016905.673494 3.9909295 2.871717 4.7792829 2.198222.7874756 4.486186.3204332 6.746269.4371938v-4.7555797c-.99238 0-1.920286-.0193138-2.847321.0052674-.825967.0228254-1.39578-.330968-1.412334-1.1640943-.047049-2.3720835-.016554-4.7468006-.016554-7.2198425h4.268368v-4.7468007h-4.363337v-4.5931684h-5.343519v4.6317959h-1.822704zm-48.8113448-4.8381022c-3.6009726.7497258-6.3350283 3.6704963-6.8482083 7.1873603-.6046636 4.1480735 1.0350727 7.7281462 4.3929601 9.6375768 2.4630896 1.4011271 5.1257009 1.2852444 7.7961536 1.0464558 1.150952-.1035921 2.2914488-.3177995 3.4293317-.4802108v-4.7345101c-.2962329 0-.532348-.0140464-.7667205.0026337-1.8836929.1343185-3.764772.3590607-5.6484649.3897872-2.308003.0368718-3.9825903-1.758432-4.000887-4.1006669-.019168-2.4273912 1.6135981-4.2112822 3.9468681-4.2648341.7466812-.0166801 1.4977188.0500403 2.2417862.1229059 1.3949086.1369523 2.7854608.3055089 4.2370021.4661644v-4.8969214c-2.9466463-.5100594-5.8488577-.9858807-8.7798211-.3757408zm41.1650498.8656085c0 2.7820624.019168 5.5641248-.014811 8.3461872-.008713.6838835-.102811 1.3958597-.318015 2.0411155-.42431 1.271198-1.618826 1.9313782-2.999794 1.7830132-1.075151-.1167606-1.814862-.9850028-1.981276-2.3527697-.036593-.2984857-.02788-.6031167-.028752-.905114-.001742-2.9936361-.000871-5.9872722-.000871-8.9817862v-.9709565h-5.216313c0 4.2235728-.131563 8.3953496.04792 12.5530799.111523 2.5731224 1.502946 4.5466397 4.088014 5.2805634 2.213034.6285758 4.399059.5618555 6.296692-1.0332873.054891-.0465286.162057-.0289707.264867-.0447728.034851.3379911.066217.6505232.096712.9454973h4.985426v-17.7256616h-5.219799zm-17.719956 7.9660569c.012197 2.3738393-1.7164088 4.1910905-4.0069863 4.2139159-2.3289135.0219475-4.1063111-1.8067165-4.0975984-4.2165496.0087128-2.3703277 1.7477743-4.152463 4.054906-4.1559746 2.3027754-.0035116 4.0374807 1.7768679 4.0496787 4.1586083zm-4.9819411-9.0625529c-5.5587237.3318459-9.4376325 5.4675559-8.2657699 10.9658382.7449387 3.4940386 2.8159553 5.8511979 6.2217627 6.8116195 3.6027151 1.0157293 6.9797703.4661645 9.7634883-2.2289859 2.57287-2.4923557 3.30474-6.6369176 1.911574-10.0782822-1.369642-3.3807896-4.696163-5.5070614-8.728416-5.5272531-.245699.0158022-.5741691.0377497-.9026391.0570635zm-44.7686365 11.8788533c1.0228748.217719 1.9202864.4872341 2.8368659.5881925 1.8401292.2045505 3.6889712.3932988 5.5378131.4284148.7013751.0140463 1.4741945-.3019973 2.1049964-.661936 1.3217216-.7549933 1.4271456-2.2166953.1106517-2.9646654-1.4428286-.818202-3.0416152-1.3835691-4.6125209-1.9427908-1.6833001-.5996051-3.3378481-1.2220356-4.5480467-2.6099942-2.8900136-3.3131914-1.7712987-8.5349355 2.2653106-10.7209044 2.2513702-1.2194019 4.6865791-1.3984933 7.166223-1.3001686 2.0701453.0825225 4.1307067.2502012 6.0440229 1.2325704v4.6405749c-1.3713842-.2730267-2.7009472-.5548323-4.0374805-.7988882-1.7826252-.3257006-3.5696068-.4424612-5.3391628.0851562-.3127872.0939352-.6281881.2124516-.9078668.3792524-1.3269493.7944987-1.3905522 2.6143837-.0226531 3.3061682 1.300811.6575465 2.7018185 1.1395131 4.0967271 1.5793406 2.2287171.7031972 4.3119316 1.6302587 5.4742102 3.8021812 2.5022969 4.6765687.2256598 8.8843393-4.2596552 10.2371819-3.6959414 1.1149319-7.4580996.9332068-11.1583973-.2423001-.5846244-.1861147-.7919875-.4775772-.7667205-1.1026414.0522764-1.2650526.0156829-2.532739.0156829-3.934744z" fill="#8e9ba0"/></g></svg>