<svg height="31" viewBox="0 0 270 31" width="270" xmlns="http://www.w3.org/2000/svg"><g fill="#8e9ba0" fill-rule="evenodd" transform="translate(0 -1)"><path d="m132.060318 2.06627143v28.88442857h18.338883v-1.9391429h-16.278436v-26.94528567z"/><g transform="translate(0 .016657)"><path d="m11.1683464 31.3462286c-2.21731847 0-4.2174302-.3865715-6.00033523-1.155-1.78139664-.77-3.50547486-1.9265715-5.16770949-3.4665715l1.34698324-1.6091428c.7647486.7417143 1.52497206 1.3812857 2.27765363 1.9187143.75268156.5358571 1.52346368.9758571 2.31536313 1.32.79340782.3441428 1.62452514.6065714 2.49636871.7841428.8703352.1791429 1.82061451.2687143 2.85083801.2687143 1.0302234 0 1.9805028-.1445714 2.8523463-.4337143.8703352-.2875714 1.6109498-.6882857 2.2173185-1.1958571.6078771-.5091429 1.0815084-1.1157143 1.4269274-1.815.3408938-.7024286.5143575-1.4661429.5143575-2.2911429v-.0832857c0-.77-.1131285-1.4582857-.3378771-2.0617143-.2232402-.6065714-.6320112-1.155-1.2278212-1.65-.5927933-.4965714-1.3922347-.9428571-2.3953073-1.342-1.0030726-.3975714-2.2972626-.7637143-3.8810614-1.0937143-1.66374306-.3567142-3.08916205-.7762857-4.2777654-1.2587142-1.18709497-.4808572-2.16-1.045-2.90966481-1.6924286-.75268156-.6442857-1.30324022-1.3954286-1.64413407-2.2487143-.345419-.8517143-.51586593-1.8275714-.51586593-2.92914286v-.08171428c0-1.07328572.22324023-2.07114286.67273743-2.992.44798883-.92085715 1.06944134-1.727 1.86284917-2.41371429.79039106-.68828571 1.72860335-1.22414286 2.81162011-1.60914286 1.08150838-.385 2.27011173-.57828571 3.5643017-.57828571 2.0061452 0 3.7422905.28914286 5.2069273.86585714 1.4676537.57828572 2.8975978 1.45985715 4.2988827 2.64157143l-1.3077653 1.69242857c-1.3213408-1.18328571-2.6472067-2.02242857-3.9806146-2.519-1.3318994-.49342857-2.7648603-.74171428-4.29586588-.74171428-1.03022346 0-1.96089386.14457143-2.79351955.43371428-.83111732.28914286-1.54458101.682-2.13888269 1.177-.59430167.49342857-1.04832402 1.07171429-1.36508379 1.73171429-.31826816.66-.47664805 1.36242857-.47664805 2.10414286v.08171428c0 .77157143.11312849 1.46614283.3378771 2.08371433.22324022.6207142.63201117 1.1848571 1.22782123 1.6924285.59279329.5091429 1.41787709.9711429 2.47525139 1.3828572 1.05586592.4132857 2.40284916.7982857 4.03944134 1.155 3.2203911.6882857 5.5448045 1.6578571 6.9702235 2.9087143 1.4269273 1.2524285 2.1388826 2.937 2.1388826 5.0552857v.0832857c0 1.155-.2322905 2.2204286-.6923463 3.1962857-.4630726.9774286-1.0965922 1.8102857-1.9020671 2.497-.8054748.6882857-1.7693296 1.2241429-2.8915642 1.6091429-1.1207263.385-2.3560894.5782857-3.7030726.5782857z"/><path d="m38.7715475 3.5024c6.8751955 0 12.4682681 5.82685714 12.4682681 12.9894286 0 7.1625714-5.5930726 12.9894285-12.4682681 12.9894285s-12.4682682-5.8268571-12.4682682-12.9894285c0-7.16257146 5.5930727-12.9894286 12.4682682-12.9894286m0-1.947c-7.9189944 0-14.3371509 6.68642857-14.3371509 14.9364286 0 8.25 6.4181565 14.9364285 14.3371509 14.9364285s14.3371508-6.6864285 14.3371508-14.9364285c0-8.25000003-6.4181564-14.9364286-14.3371508-14.9364286"/><path d="m91.1257542 30.9335714h2.0589385v-28.88285711h-2.0589385z"/><path d="m111.963117 1.8436h1.980503l12.911732 29.0902857h-2.256536l-3.525084-8.0881428h-16.35838l-3.525084 8.0881428h-2.1388825zm8.238771 19.063-7.288491-16.71057143-7.32771 16.71057143z"/><path d="m71.6132011 29.4809429c-6.8721788 0-12.4682681-5.83-12.4682681-12.9894286 0-7.1657143 5.5960893-12.98785716 12.4682681-12.98785716 4.2083799 0 7.9416201 2.18271429 10.1921229 5.52042857h2.223352c-2.4752514-4.466-7.1029609-7.46742857-12.4154749-7.46742857-7.9159776 0-14.3371508 6.68171429-14.3371508 14.93485716 0 8.2484286 6.4211732 14.9364286 14.3371508 14.9364286 5.3049721 0 9.9402235-3.0014286 12.4154749-7.4674286h-2.2308939c-2.2489944 3.3377143-5.9762011 5.5204286-10.184581 5.5204286"/><path d="m218.41748 2.04882857h10.336928c2.164525 0 4.151061.36457143 5.961117 1.09371429 1.808548.72757143 3.366704 1.738 4.674469 3.03128571 1.306257 1.29485714 2.316872 2.81442857 3.028827 4.56028573.711956 1.7474286 1.067933 3.6378571 1.067933 5.6728571v.0832857c0 2.0365715-.355977 3.9348572-1.067933 5.6948572-.711955 1.76-1.72257 3.2874286-3.028827 4.5791428-1.307765 1.2932858-2.865921 2.3115715-4.674469 3.0532858-1.810056.7432857-3.796592 1.1141428-5.961117 1.1141428h-10.336928zm4.872067 4.62v19.64128573h5.464861c1.451061 0 2.770894-.2404286 3.961005-.7228572 1.187095-.4792857 2.19771-1.155 3.030336-2.0208571.831117-.8658571 1.478212-1.8967143 1.939776-3.0941429.463073-1.1974285.692347-2.497.692347-3.8987142v-.0832858c0-1.4032857-.229274-2.7091428-.692347-3.9191428-.461564-1.21-1.108659-2.2502857-1.939776-3.11614287-.832626-.86585714-1.843241-1.54628572-3.030336-2.04128572-1.190111-.49657142-2.509944-.74485714-3.961005-.74485714z"/><path d="m248.318397 2.04882857h20.556201v4.53828572h-15.684134v7.50985711h13.901229v4.5382857h-13.901229v7.7581429h15.881732v4.5382857h-20.753799z"/><path d="m174.30476 23.7714714c-3.856928 4.0181429-10.133296 4.0228572-13.990224.0047143-3.855419-4.0181428-3.850894-10.5568571.004525-14.57499999 1.859833-1.93757142 4.285308-2.94328571 6.733408-3.00614285l3.965531-4.13128572c-4.781564-1.33414285-10.09257-.04714285-13.843911 3.861-5.602123 5.83628576-5.602123 15.29628576-.004525 21.12785716s14.678045 5.8315714 20.280168-.0047143c3.752849-3.9081429 4.986704-9.4411429 3.706089-14.4225714l-3.96553 4.1312857c-.058827 2.5504286-1.025699 5.0772857-2.885531 7.0148571"/><path d="m199.156073 6.18875714c5.452793 0 9.888938 4.62157146 9.888938 10.30228576 0 5.6822857-4.436145 10.3038571-9.888938 10.3038571-5.452794 0-9.888939-4.6215714-9.888939-10.3038571 0-5.6807143 4.436145-10.30228576 9.888939-10.30228576m0-4.63414285c-7.917486 0-14.337151 6.688-14.337151 14.93642861 0 8.25 6.419665 14.938 14.337151 14.938 7.918994 0 14.33715-6.688 14.33715-14.938 0-8.24842861-6.418156-14.93642861-14.33715-14.93642861"/></g></g></svg>