<svg viewBox="0 0 48 13" xmlns="http://www.w3.org/2000/svg" xmlns:xlink="http://www.w3.org/1999/xlink"><defs><path id="a" d="m22.87 12.16c1.33 0 2.37-.74 2.37-2.11 0-1.36-1.25-1.78-2.33-2.13-.67-.2-1.3-.45-1.3-1.21 0-.65.52-1.05 1.29-1.05.78 0 1.26.52 1.27 1.32h.91c-.01-1.29-.93-2.14-2.2-2.14-1.26 0-2.18.76-2.18 1.87 0 1.42 1.04 1.77 2.3 2.17.61.18 1.33.42 1.33 1.27 0 .73-.58 1.19-1.39 1.19-.95 0-1.58-.61-1.58-1.57h-.91c0 1.49 1.07 2.39 2.42 2.39zm5.24-.16 1.27-3.59 1.27 3.59h.6l1.76-4.54h-.93l-1.14 3.2-1.13-3.2h-.86l-1.14 3.2-1.13-3.2h-.93l1.76 4.54zm7.54.11c.66 0 1.3-.35 1.59-.9v.79h.86v-4.54h-.86v.78c-.29-.55-.93-.9-1.59-.9-1.39 0-2.33 1.1-2.33 2.39 0 1.28.94 2.38 2.33 2.38zm.05-.78c-.92 0-1.52-.73-1.52-1.6s.6-1.61 1.52-1.61c.94 0 1.54.74 1.54 1.61s-.6 1.6-1.54 1.6zm5.88.78c1.32 0 2.01-.73 2.15-1.67h-.87c-.14.54-.47.89-1.22.89-1.01 0-1.46-.74-1.46-1.6 0-.85.47-1.61 1.41-1.61.85 0 1.19.43 1.26.99h.87c-.08-.88-.68-1.77-2.15-1.77s-2.26 1.16-2.26 2.39.79 2.38 2.27 2.38zm4.24-.11v-2.34c0-.81.42-1.55 1.29-1.55.85 0 1.15.64 1.15 1.48v2.41h.87v-2.68c0-.64-.1-1.04-.35-1.38-.27-.38-.73-.6-1.36-.6-.77 0-1.33.37-1.6.92v-3.26h-.87v7z"/></defs><g fill="none" fill-rule="evenodd" transform="translate(-2 -2)"><g stroke="#8d9b9f" stroke-width=".65"><rect height="8.34" rx="4.17" transform="matrix(-.70710678 -.70710678 .70710678 -.70710678 8.230389 19.868039)" width="13.24" x="1.61" y="4.05945"/><rect height="8.34" rx="4.17" transform="matrix(.70710678 -.70710678 .70710678 .70710678 -2.395888 10.682637)" width="13.24" x="5.07714" y="4.063411"/><circle cx="9.98" cy="9.98" r="1.04"/></g><g fill-rule="nonzero"><use fill="#000" xlink:href="#a"/><use fill="#8d9b9f" xlink:href="#a"/></g></g></svg>
