<?xml version="1.0" standalone="no"?>
<!DOCTYPE svg PUBLIC "-//W3C//DTD SVG 20010904//EN"
 "http://www.w3.org/TR/2001/REC-SVG-20010904/DTD/svg10.dtd">
<svg version="1.0" xmlns="http://www.w3.org/2000/svg"
 width="512.000000pt" height="512.000000pt" viewBox="0 0 512.000000 512.000000"
 preserveAspectRatio="xMidYMid meet">
<metadata>
Created by potrace 1.11, written by Peter Selinger 2001-2013
</metadata>
<g transform="translate(0.000000,512.000000) scale(0.100000,-0.100000)"
fill="#000000" stroke="none">
<path d="M2379 5116 c-2 -2 -35 -6 -74 -10 -38 -3 -97 -10 -130 -16 -33 -6
-76 -13 -95 -16 -106 -17 -413 -105 -434 -125 -6 -5 -16 -9 -23 -9 -15 0 -131
-52 -228 -101 -322 -165 -620 -410 -854 -705 -69 -87 -166 -236 -230 -353 -34
-62 -61 -114 -61 -116 0 -2 -15 -36 -34 -77 -54 -119 -134 -356 -150 -448 -2
-14 -7 -36 -10 -50 -44 -190 -65 -557 -44 -780 21 -217 83 -475 165 -685 35
-89 122 -270 159 -332 10 -17 36 -60 57 -95 178 -297 499 -616 820 -814 278
-172 645 -310 936 -350 20 -3 79 -11 131 -18 88 -12 497 -14 560 -3 14 3 45 8
70 11 25 4 92 16 150 27 58 12 116 23 130 26 39 7 316 101 369 124 480 216
859 531 1134 945 198 299 343 668 392 1004 3 19 7 44 10 55 29 141 27 537 -4
740 -130 854 -704 1608 -1486 1951 -44 20 -89 39 -100 44 -86 38 -365 119
-465 134 -19 3 -44 8 -56 10 -12 2 -45 7 -74 11 -29 4 -62 9 -74 12 -24 5
-452 14 -457 9z m411 -170 c76 -6 142 -15 235 -31 17 -3 73 -17 125 -32 469
-130 727 -433 786 -923 7 -64 7 -296 0 -355 -3 -22 -8 -65 -11 -95 -29 -277
-166 -728 -327 -1080 l-35 -75 17 -65 c10 -36 32 -103 50 -150 35 -94 37 -101
48 -180 17 -120 -2 -292 -34 -304 -21 -8 -32 19 -60 151 -8 40 -24 101 -35
135 -21 68 -97 225 -112 235 -6 3 -7 2 -4 -3 7 -12 18 -126 21 -214 3 -95 -19
-229 -48 -291 -14 -30 -30 -74 -34 -99 -12 -65 -6 -183 13 -270 9 -41 18 -85
21 -98 11 -56 59 -192 85 -245 53 -104 79 -68 79 111 0 141 8 160 49 116 74
-81 100 -268 52 -368 -27 -56 -96 -106 -145 -106 -90 0 -225 134 -310 308 -34
67 -84 210 -91 254 -2 12 -8 46 -12 73 -13 73 -7 231 11 300 15 60 16 220 1
305 -10 53 -46 228 -61 290 l-13 55 4 -55 c15 -183 19 -259 19 -375 0 -125
-10 -323 -18 -375 -3 -14 -7 -47 -11 -75 -10 -79 -15 -118 -20 -140 -26 -128
-26 -433 -1 -555 30 -147 109 -280 166 -280 68 0 89 64 66 203 -8 47 -8 47 19
47 73 0 183 -107 205 -200 20 -85 -5 -162 -77 -234 -59 -60 -114 -81 -213 -80
-159 1 -303 142 -384 378 -14 39 -27 83 -30 99 -3 15 -8 39 -11 55 -3 15 -8
34 -10 42 -2 8 -7 42 -10 75 -3 33 -8 76 -11 95 -3 19 -4 118 -3 220 3 344 1
440 -11 507 -7 38 -14 75 -15 83 -6 31 -37 147 -51 190 -29 85 -97 250 -104
250 -8 0 -53 -99 -92 -205 -75 -201 -109 -383 -107 -570 5 -492 3 -543 -31
-714 -67 -333 -227 -532 -432 -537 -59 -1 -78 3 -128 28 -203 101 -216 334
-26 462 37 25 89 35 100 18 2 -4 -1 -32 -8 -62 -14 -63 -5 -133 21 -162 53
-59 157 44 198 198 23 85 24 91 32 174 10 117 6 278 -11 390 -2 14 -7 52 -10
85 -4 33 -9 67 -11 75 -5 18 -13 85 -25 205 -9 93 -6 516 4 595 3 25 8 62 11
83 3 20 3 37 1 37 -4 0 -17 -51 -32 -125 -6 -30 -34 -174 -39 -200 -15 -78
-15 -238 1 -298 34 -133 20 -330 -36 -497 -80 -237 -251 -439 -371 -440 -44 0
-116 54 -141 107 -48 100 -19 294 55 368 29 28 31 29 38 10 4 -11 8 -70 8
-132 1 -174 28 -209 79 -106 27 54 68 166 76 209 2 10 9 39 16 64 13 48 14 52
25 120 20 116 8 265 -23 303 -16 19 -48 138 -52 187 -7 109 2 309 16 332 3 4
3 8 1 8 -9 0 -65 -106 -90 -168 -14 -33 -35 -102 -47 -154 -38 -156 -54 -203
-70 -203 -34 0 -55 179 -37 314 4 34 24 106 43 160 20 53 46 135 59 183 23 86
23 88 5 125 -47 99 -162 386 -174 438 -2 6 -6 17 -9 25 -11 26 -55 182 -76
266 -72 285 -99 554 -79 768 12 125 22 178 49 271 105 352 370 588 775 689 54
13 124 27 154 31 30 4 64 9 75 11 11 3 65 7 120 10 55 4 101 7 102 8 5 4 257
-2 333 -8z"/>
<path d="M1750 3058 c-189 -82 -198 -344 -15 -433 116 -57 242 -22 311 86 77
121 28 282 -106 346 -51 24 -136 25 -190 1z"/>
<path d="M3185 3064 c-204 -74 -214 -358 -16 -447 157 -70 336 51 334 225 -3
163 -167 277 -318 222z"/>
</g>
</svg>
