<?xml version="1.0" standalone="no"?>
<!DOCTYPE svg PUBLIC "-//W3C//DTD SVG 20010904//EN"
 "http://www.w3.org/TR/2001/REC-SVG-20010904/DTD/svg10.dtd">
<svg version="1.0" xmlns="http://www.w3.org/2000/svg"
 width="700.000000pt" height="700.000000pt" viewBox="0 0 700.000000 700.000000"
 preserveAspectRatio="xMidYMid meet">
<metadata>
Created by potrace 1.11, written by Peter Selinger 2001-2013
</metadata>
<g transform="translate(0.000000,700.000000) scale(0.100000,-0.100000)"
fill="#000000" stroke="none">
<path d="M3310 6975 c0 -18 5 -23 20 -22 26 2 23 39 -2 43 -13 1 -18 -5 -18
-21z"/>
<path d="M3385 6978 c1 -15 8 -23 21 -23 20 0 27 25 9 37 -19 14 -32 8 -30
-14z"/>
<path d="M3460 6981 c0 -11 6 -21 13 -24 20 -7 37 4 37 24 0 14 -7 19 -25 19
-18 0 -25 -5 -25 -19z"/>
<path d="M3550 6977 c0 -18 5 -25 18 -23 9 2 17 11 17 22 0 10 -8 20 -17 22
-13 3 -18 -3 -18 -21z"/>
<path d="M3626 6991 c-9 -14 4 -41 21 -41 9 0 13 8 11 22 -3 23 -23 35 -32 19z"/>
<path d="M3160 6964 c0 -17 6 -24 19 -24 24 0 23 42 -1 46 -13 2 -18 -5 -18
-22z"/>
<path d="M3233 6970 c-1 -14 4 -20 18 -20 12 0 19 7 19 20 0 13 -7 20 -18 20
-11 0 -18 -8 -19 -20z"/>
<path d="M3700 6970 c0 -13 7 -20 20 -20 13 0 20 7 20 20 0 13 -7 20 -20 20
-13 0 -20 -7 -20 -20z"/>
<path d="M3779 6985 c-5 -19 -3 -31 6 -37 17 -13 22 -9 27 17 4 19 1 25 -13
25 -11 0 -20 -2 -20 -5z"/>
<path d="M3086 6971 c-9 -14 5 -42 18 -38 18 6 20 47 2 47 -8 0 -17 -4 -20 -9z"/>
<path d="M3850 6961 c0 -19 23 -35 34 -24 14 15 5 43 -14 43 -13 0 -20 -7 -20
-19z"/>
<path d="M3010 6945 c0 -27 6 -30 29 -16 17 11 7 41 -14 41 -9 0 -15 -9 -15
-25z"/>
<path d="M3929 6968 c-8 -27 -5 -38 11 -38 15 0 30 18 30 36 0 4 -39 6 -41 2z"/>
<path d="M2937 6953 c-2 -5 -3 -15 -3 -23 1 -24 31 -17 34 8 2 14 -2 22 -12
22 -8 0 -17 -3 -19 -7z"/>
<path d="M4000 6940 c0 -13 7 -20 20 -20 13 0 20 7 20 20 0 13 -7 20 -20 20
-13 0 -20 -7 -20 -20z"/>
<path d="M2869 6942 c-23 -4 -12 -42 12 -42 19 0 25 17 11 35 -4 6 -14 9 -23
7z"/>
<path d="M4077 6931 c-3 -12 1 -22 11 -26 18 -7 19 -6 24 20 4 26 -28 32 -35
6z"/>
<path d="M4150 6915 c0 -18 5 -25 20 -25 24 0 28 35 4 44 -23 9 -24 8 -24 -19z"/>
<path d="M2786 6921 c-4 -5 -3 -16 0 -25 5 -12 10 -13 25 -6 10 6 16 17 13 25
-7 17 -30 20 -38 6z"/>
<path d="M2723 6913 c-22 -8 -15 -43 7 -43 13 0 20 7 20 19 0 22 -9 30 -27 24z"/>
<path d="M4226 6904 c-8 -21 -8 -21 13 -27 20 -5 36 17 25 34 -9 14 -31 10
-38 -7z"/>
<path d="M2645 6892 c-17 -11 -12 -37 8 -37 9 0 17 3 17 8 0 4 0 14 0 22 0 16
-9 19 -25 7z"/>
<path d="M4300 6879 c0 -25 33 -22 38 4 2 12 -3 17 -17 17 -15 0 -21 -6 -21
-21z"/>
<path d="M4374 6875 c-3 -8 -3 -19 1 -25 11 -17 35 -11 35 9 0 23 -29 36 -36
16z"/>
<path d="M2566 6871 c-9 -14 5 -42 18 -38 15 5 14 39 -1 44 -6 2 -14 0 -17 -6z"/>
<path d="M4447 6851 c-5 -22 0 -31 19 -31 18 0 24 38 7 44 -20 8 -20 8 -26
-13z"/>
<path d="M2497 6854 c-15 -15 -7 -45 11 -42 9 2 17 12 17 22 0 20 -16 31 -28
20z"/>
<path d="M4521 6827 c-6 -16 -5 -23 7 -25 8 -2 18 2 23 10 12 19 11 25 -6 32
-10 4 -19 -2 -24 -17z"/>
<path d="M2429 6832 c-11 -2 -15 -10 -12 -23 6 -20 28 -26 38 -9 9 15 -8 36
-26 32z"/>
<path d="M4593 6804 c-7 -18 17 -38 31 -24 11 11 1 40 -14 40 -6 0 -13 -7 -17
-16z"/>
<path d="M2348 6804 c-3 -3 -4 -13 -1 -23 3 -13 11 -17 24 -14 13 4 18 11 15
20 -3 8 -6 17 -6 19 0 6 -26 5 -32 -2z"/>
<path d="M4666 6785 c-10 -27 -7 -35 15 -35 15 0 20 5 17 22 -4 27 -23 35 -32
13z"/>
<path d="M2281 6781 c-17 -11 -7 -41 14 -41 9 0 15 9 15 25 0 27 -6 30 -29 16z"/>
<path d="M3417 6784 c-1 -1 -59 -4 -130 -8 -70 -4 -133 -9 -140 -11 -6 -2 -39
-6 -72 -9 -33 -3 -71 -8 -85 -11 -14 -3 -54 -10 -90 -16 -271 -45 -660 -180
-919 -316 -428 -227 -809 -549 -1097 -928 -355 -466 -572 -1007 -648 -1612
-23 -181 -24 -559 -2 -723 2 -14 6 -50 10 -80 61 -488 250 -987 533 -1407 160
-238 422 -525 643 -704 479 -390 1053 -638 1650 -714 30 -4 64 -9 75 -11 110
-21 598 -20 713 0 9 2 44 7 77 11 32 4 67 8 76 10 9 2 34 6 54 9 32 5 138 27
195 41 580 134 1126 440 1555 869 315 315 534 637 704 1034 116 271 208 604
237 857 3 33 8 68 10 79 6 34 18 270 18 361 -1 95 -11 296 -19 355 -3 19 -7
60 -11 90 -4 44 -53 299 -69 360 -70 274 -199 589 -346 842 -39 68 -196 307
-209 318 -3 3 -21 25 -40 50 -118 156 -358 399 -526 534 -432 346 -908 567
-1459 675 -55 10 -129 22 -165 26 -36 4 -72 9 -81 10 -44 9 -434 25 -442 19z
m383 -88 c19 -3 58 -7 85 -10 410 -47 840 -189 1201 -396 698 -401 1218 -1038
1465 -1794 58 -176 101 -372 134 -596 14 -101 20 -215 20 -400 0 -230 -7 -318
-36 -505 -26 -159 -21 -136 -58 -280 -299 -1179 -1225 -2079 -2416 -2349 -71
-16 -157 -31 -230 -41 -22 -3 -53 -7 -70 -10 -175 -28 -576 -27 -796 1 -90 11
-226 35 -289 50 -36 9 -76 18 -89 21 -29 5 -163 44 -246 71 -371 123 -774 353
-1070 610 -128 112 -329 321 -415 432 -19 25 -40 50 -46 57 -19 20 -199 293
-233 353 -196 348 -345 784 -386 1130 -3 25 -8 54 -10 65 -19 97 -27 517 -12
685 66 738 403 1459 924 1972 144 142 162 158 277 250 216 173 441 308 736
441 127 57 418 151 539 174 14 2 28 6 31 8 7 4 11 5 155 29 117 19 163 25 260
32 44 4 82 8 84 10 5 4 449 -5 491 -10z"/>
<path d="M3387 6484 c-1 -1 -42 -4 -92 -8 -578 -39 -1141 -253 -1610 -611
-465 -356 -825 -860 -1013 -1420 -33 -97 -89 -303 -98 -361 -3 -20 -7 -46 -10
-58 -10 -53 -33 -228 -39 -298 -12 -141 -5 -509 10 -568 2 -8 7 -39 10 -69 4
-30 9 -63 11 -75 2 -11 6 -38 9 -61 4 -22 12 -65 20 -95 8 -30 16 -66 18 -80
10 -54 72 -251 114 -360 108 -281 258 -542 461 -800 78 -99 294 -320 395 -406
482 -406 1094 -656 1712 -699 164 -12 455 -7 565 10 14 2 45 6 70 9 25 3 54 8
65 10 11 2 40 7 65 11 65 10 271 62 365 92 757 241 1396 785 1754 1493 38 74
79 160 91 190 12 30 26 64 31 75 41 88 139 432 154 540 3 22 8 46 10 53 3 7 7
40 11 75 3 34 8 65 10 68 2 3 6 57 10 120 16 247 6 511 -26 699 -5 30 -12 71
-15 90 -25 151 -96 387 -176 587 -290 716 -902 1330 -1614 1618 -49 20 -99 40
-110 45 -29 13 -280 90 -312 96 -16 3 -53 11 -83 19 -30 7 -75 16 -100 20 -25
4 -54 9 -65 11 -149 25 -291 36 -478 38 -65 1 -119 1 -120 0z m428 -89 c543
-68 1001 -246 1420 -554 49 -36 103 -77 119 -91 151 -128 307 -285 412 -415
371 -458 582 -977 644 -1580 9 -83 6 -522 -4 -563 -3 -13 -8 -51 -11 -85 -4
-34 -11 -81 -16 -105 -5 -23 -12 -59 -15 -80 -11 -68 -73 -296 -108 -394 -126
-354 -315 -677 -561 -958 -49 -56 -248 -252 -294 -290 -24 -19 -51 -42 -61
-50 -10 -8 -27 -22 -37 -30 -45 -38 -196 -142 -278 -192 -338 -207 -753 -354
-1136 -402 -214 -27 -627 -28 -753 -1 -11 2 -43 7 -71 10 -222 26 -556 129
-802 245 -718 341 -1252 940 -1519 1705 -23 64 -85 298 -99 370 -16 84 -36
230 -42 310 -14 160 -7 506 11 615 3 14 7 47 11 74 3 27 8 52 9 55 2 3 7 28
10 55 4 27 9 53 11 56 2 4 7 20 9 36 10 54 14 69 41 164 93 330 262 666 476
950 363 479 860 833 1430 1018 131 43 295 83 419 102 41 6 86 13 99 15 13 3
61 7 105 11 45 3 83 8 85 10 6 5 441 -4 496 -11z"/>
<path d="M2054 5134 c-130 -19 -213 -53 -305 -125 -66 -52 -91 -79 -133 -144
-99 -152 -129 -343 -85 -549 23 -108 44 -167 104 -287 26 -50 44 -94 40 -97
-8 -9 -76 -3 -172 14 -120 20 -203 64 -289 149 -106 106 -159 227 -163 377 -2
90 17 164 69 268 22 45 38 85 35 90 -7 12 -104 1 -142 -17 -32 -15 -81 -80
-103 -138 -43 -108 -48 -286 -12 -405 64 -211 168 -341 347 -432 131 -67 236
-89 428 -93 148 -2 121 17 239 -170 204 -327 264 -484 267 -704 3 -203 -52
-357 -168 -471 -38 -37 -91 -77 -124 -93 -182 -88 -437 -70 -587 42 -112 84
-162 182 -165 326 -3 129 32 213 105 254 35 19 49 22 98 16 55 -6 58 -5 89 27
72 74 60 125 -36 154 -109 33 -231 -5 -329 -102 -160 -160 -173 -462 -28 -688
114 -178 314 -283 556 -291 207 -7 401 66 547 204 123 116 224 317 249 491 15
108 0 281 -33 385 -37 118 -143 346 -226 487 -86 147 -98 169 -92 177 2 5 31
19 62 31 343 136 568 462 557 806 -10 346 -261 558 -600 508z m229 -212 c43
-20 77 -45 103 -76 57 -68 69 -117 69 -281 0 -177 -47 -288 -175 -415 -56 -56
-98 -87 -165 -121 -95 -49 -175 -74 -205 -64 -42 13 -126 183 -174 348 -28 98
-35 229 -17 310 59 258 338 405 564 299z"/>
<path d="M5539 5023 c-1 -10 -1 -20 -1 -23 0 -3 3 -171 7 -375 4 -203 8 -381
9 -394 1 -21 6 -25 41 -27 151 -7 290 -16 294 -18 4 -2 50 -7 105 -11 l98 -7
-35 64 c-245 445 -312 556 -424 706 -76 101 -92 116 -94 85z"/>
<path d="M2953 4948 c-20 -25 -49 -136 -68 -258 -3 -19 -8 -48 -12 -65 -3 -16
-7 -39 -9 -50 -2 -11 -6 -33 -9 -50 -5 -28 -11 -65 -21 -125 -16 -89 -56 -312
-64 -350 -5 -25 -12 -61 -15 -80 -3 -19 -19 -104 -36 -189 -36 -181 -38 -206
-21 -205 6 1 27 2 45 3 17 1 38 5 45 10 11 7 39 121 55 226 11 65 48 242 58
270 6 17 13 41 15 55 3 13 25 66 50 117 67 140 160 219 244 207 71 -11 77 -41
46 -244 -9 -63 -19 -128 -22 -145 -3 -16 -11 -68 -18 -115 -31 -189 10 -280
126 -280 64 0 135 45 193 122 26 35 52 73 58 86 14 31 22 28 36 -17 21 -71 95
-112 175 -97 39 7 130 71 145 101 9 19 10 19 10 1 1 -10 -15 -113 -35 -228
-28 -168 -33 -212 -23 -219 12 -7 52 -4 86 6 10 3 23 50 38 136 2 13 13 78 25
144 11 66 22 127 25 135 2 8 7 35 10 60 4 25 13 72 20 105 8 33 16 78 19 100
35 242 145 453 268 516 113 58 161 -9 153 -211 -5 -122 -8 -144 -30 -231 -37
-142 -109 -225 -206 -236 -32 -4 -42 0 -73 32 -35 35 -38 36 -61 21 -35 -23
-40 -51 -15 -91 28 -46 70 -66 145 -73 185 -14 358 69 473 228 75 104 152 270
152 328 0 38 -37 58 -69 36 -11 -8 -21 -20 -21 -25 0 -5 -21 -54 -47 -107 -52
-110 -115 -203 -165 -247 -87 -76 -83 -76 -48 -6 75 147 103 462 52 576 -13
27 -30 58 -40 69 -26 29 -92 56 -138 56 -55 0 -149 -48 -209 -108 -30 -30 -45
-40 -41 -27 3 11 8 39 11 63 5 43 4 45 -40 45 -60 0 -69 -10 -80 -83 -3 -25
-8 -52 -10 -60 -2 -8 -7 -31 -10 -50 -3 -19 -10 -60 -15 -90 -5 -30 -12 -71
-15 -90 -12 -72 -28 -118 -81 -228 -95 -200 -137 -250 -195 -230 -34 12 -47
46 -44 118 2 64 15 172 21 181 2 4 6 24 10 45 3 22 19 102 35 179 42 198 42
197 43 225 1 24 -2 25 -44 22 -25 -2 -49 -7 -53 -12 -9 -8 -42 -145 -82 -343
-19 -89 -37 -145 -78 -231 -54 -112 -118 -216 -153 -248 -31 -27 -69 -32 -89
-12 -15 15 -17 29 -12 94 4 41 9 86 11 99 3 13 8 49 12 80 3 31 8 58 9 61 2 3
6 34 10 70 4 36 9 68 12 73 12 19 4 155 -12 193 -47 118 -255 117 -368 -2 -29
-31 -36 -35 -33 -18 3 12 7 37 10 55 3 19 22 120 41 224 19 105 35 196 35 203
0 8 -15 12 -44 12 -24 0 -48 -6 -53 -12z"/>
<path d="M3780 4922 c-63 -31 -64 -114 0 -147 34 -17 71 -10 98 21 62 70 -14
169 -98 126z"/>
<path d="M5504 4719 c-17 -28 -212 -505 -208 -510 2 -4 32 -6 66 -4 35 2 87 3
115 4 l53 1 -5 257 c-3 141 -7 258 -9 261 -2 2 -7 -2 -12 -9z"/>
<path d="M5246 4380 c-76 -89 -135 -164 -132 -167 3 -3 36 -8 74 -10 49 -3 72
0 79 9 15 19 125 308 121 319 -2 5 -65 -63 -142 -151z"/>
<path d="M5272 4172 c-23 -18 -23 -18 70 -16 70 1 87 -1 68 -8 -14 -6 -104
-10 -202 -9 -98 1 -178 0 -178 -3 0 -2 39 -35 88 -72 48 -38 93 -74 100 -81
16 -15 7 -33 -15 -33 -9 0 -14 -3 -10 -6 3 -4 14 -3 24 1 28 12 44 14 37 4 -7
-12 47 -12 65 0 9 6 21 5 31 -1 10 -7 28 -8 46 -3 16 5 34 7 39 5 24 -8 61 -7
72 2 7 6 19 5 31 -1 14 -7 29 -7 50 0 22 8 37 7 52 -1 17 -9 26 -8 45 4 15 10
26 12 30 6 8 -13 68 -13 82 1 8 8 13 8 17 0 9 -14 63 -15 71 -1 4 6 15 5 30
-2 14 -6 35 -7 52 -3 15 5 33 8 38 7 6 -1 2 4 -7 10 -15 11 -14 17 8 76 13 36
22 67 20 69 -2 2 -19 5 -36 5 -23 1 -34 7 -38 20 -3 14 -14 18 -46 18 -29 0
-37 -3 -26 -10 23 -15 4 -23 -52 -23 -240 2 -398 7 -391 13 17 15 100 31 140
26 24 -2 41 -1 38 3 -2 4 -32 8 -67 9 -35 1 -106 4 -158 7 -82 5 -98 3 -118
-13z"/>
<path d="M5683 4163 c20 -2 54 -2 75 0 20 2 3 4 -38 4 -41 0 -58 -2 -37 -4z"/>
<path d="M5824 4162 c4 -3 14 -7 22 -8 9 -1 13 0 10 4 -4 3 -14 7 -22 8 -9 1
-13 0 -10 -4z"/>
<path d="M5610 3937 c0 -11 -9 -21 -20 -24 -11 -3 -20 -10 -20 -15 0 -6 11 -3
24 6 15 10 27 12 31 6 3 -6 12 -10 18 -10 8 0 9 3 1 8 -6 4 -16 16 -22 27 -11
18 -11 19 -12 2z"/>
<path d="M5695 3924 c-16 -25 -16 -27 -1 -15 13 11 20 11 28 3 17 -17 53 -15
68 3 11 13 14 13 27 0 19 -19 43 -19 71 1 23 16 29 34 12 34 -5 0 -10 -7 -10
-15 0 -8 -12 -18 -27 -21 -20 -5 -30 -2 -43 13 -16 20 -17 20 -28 2 -17 -26
-60 -25 -70 2 -8 20 -9 20 -27 -7z"/>
<path d="M5984 3941 c10 -15 -22 -34 -49 -29 -13 3 -22 1 -19 -3 9 -15 51 -10
64 6 12 14 15 14 30 0 27 -25 31 -17 4 10 -25 25 -40 33 -30 16z"/>
<path d="M5231 3929 c-1 -9 -11 -21 -23 -27 -15 -7 -18 -11 -7 -11 8 -1 20 4
27 11 9 9 15 9 24 0 17 -17 53 -15 68 3 11 13 15 13 21 3 5 -7 9 -8 9 -3 0 6
-4 16 -9 24 -7 11 -11 9 -20 -8 -15 -28 -54 -27 -74 2 -12 17 -16 18 -16 6z"/>
<path d="M5413 3920 c-7 -10 -23 -20 -35 -23 -22 -4 -22 -4 -2 -6 12 0 27 6
34 14 10 12 15 12 37 -2 23 -16 28 -16 53 -1 26 15 29 14 45 -1 15 -13 15 -12
-1 11 -19 26 -19 26 -37 7 -23 -24 -41 -24 -64 1 -18 19 -19 19 -30 0z"/>
<path d="M5500 3581 c-164 -35 -297 -224 -317 -446 -2 -27 -8 -59 -13 -70 -95
-215 -136 -282 -218 -362 -64 -61 -83 -68 -53 -18 24 41 57 145 66 207 3 23 8
51 11 61 11 35 12 194 2 247 -24 132 -95 200 -204 196 -65 -2 -129 -35 -193
-98 l-52 -51 6 43 c3 23 7 45 9 49 3 4 1 13 -4 21 -9 14 -88 16 -101 2 -4 -4
-14 -47 -22 -97 -60 -347 -64 -363 -121 -480 -86 -180 -152 -265 -204 -265
-22 0 -47 25 -57 59 -8 26 -8 131 0 171 4 22 8 44 21 140 3 19 17 87 31 150
35 151 35 172 3 180 -34 9 -56 -4 -70 -42 -11 -31 -13 -32 -23 -14 -29 47 -71
86 -105 97 -109 37 -235 -4 -330 -106 -66 -70 -139 -204 -166 -305 -40 -143
-51 -175 -93 -258 -101 -197 -171 -271 -223 -235 -21 15 -22 21 -17 92 3 42
17 153 31 246 33 216 34 289 7 342 -31 62 -63 78 -151 78 -94 -1 -166 -30
-215 -88 -29 -34 -34 -36 -30 -16 3 13 7 41 11 64 3 22 10 63 15 90 6 28 12
61 15 75 3 14 9 50 15 80 19 97 23 124 23 155 1 31 -4 33 -82 26 -7 -1 -17
-13 -23 -28 -11 -28 -43 -169 -53 -233 -3 -19 -8 -46 -11 -60 -2 -14 -7 -36
-10 -50 -2 -14 -7 -41 -10 -60 -3 -19 -10 -57 -15 -85 -5 -27 -12 -66 -15 -85
-3 -19 -8 -46 -10 -60 -11 -54 -33 -173 -41 -220 -17 -98 -66 -355 -69 -360
-2 -4 -7 -26 -10 -51 -12 -87 -13 -84 25 -85 80 -2 79 -4 125 241 14 77 27
149 29 160 10 52 47 176 68 225 42 99 69 143 123 196 43 43 60 54 99 59 104
16 128 -27 101 -176 -3 -13 -7 -40 -9 -59 -4 -33 -17 -116 -31 -205 -27 -166
-27 -223 -1 -273 35 -68 117 -87 199 -48 51 25 130 115 180 206 30 55 43 70
46 55 8 -43 70 -124 117 -151 39 -23 59 -28 114 -28 92 0 175 41 254 124 l58
60 18 -22 c11 -13 19 -26 20 -30 0 -13 87 -48 119 -48 57 0 122 42 180 116
l22 29 -5 -31 c-3 -18 -19 -119 -37 -226 l-32 -195 -206 1 c-113 0 -253 -3
-311 -7 -117 -9 -130 -11 -308 -32 -81 -10 -252 -43 -402 -76 -310 -69 -562
-154 -784 -265 -120 -60 -304 -178 -313 -200 -6 -17 34 -74 53 -74 8 0 38 17
67 38 204 148 489 270 862 366 150 39 207 53 305 71 14 3 36 7 50 10 39 7 81
14 130 21 25 3 53 8 62 9 9 2 48 7 85 11 37 3 79 8 93 10 181 22 548 21 760
-2 51 -6 419 -6 465 0 17 2 62 7 100 11 62 6 104 12 220 31 54 9 159 35 235
59 387 120 645 310 821 606 149 252 200 485 138 628 -34 80 -84 114 -169 115
-106 1 -143 -42 -250 -287 -71 -165 -106 -223 -169 -280 -124 -112 -297 -121
-393 -20 -46 48 -76 142 -45 144 6 0 23 2 37 5 14 2 36 6 50 8 70 10 183 48
240 79 109 60 160 132 168 236 8 117 -36 204 -124 246 -41 19 -132 28 -184 16z
m129 -100 c74 -31 100 -152 48 -229 -15 -23 -45 -53 -67 -67 -48 -30 -186 -71
-255 -76 l-50 -4 1 62 c1 114 76 258 158 300 58 31 113 35 165 14z m590 -165
c66 -52 51 -249 -33 -432 -130 -281 -326 -480 -601 -610 -80 -38 -272 -107
-330 -118 -11 -3 -51 -11 -90 -20 -168 -36 -302 -48 -548 -51 -136 -2 -257 0
-268 2 -24 7 -25 3 20 246 17 92 34 184 37 204 3 19 7 43 9 52 17 87 55 283
60 308 12 74 79 214 134 284 72 92 159 137 210 109 35 -18 53 -74 53 -164 3
-271 -67 -460 -191 -512 -52 -22 -77 -17 -120 21 l-39 35 -30 -25 c-28 -23
-30 -29 -20 -55 14 -40 70 -88 114 -96 52 -10 179 1 246 20 57 17 152 73 198
117 42 40 88 104 133 182 l43 75 29 -55 c36 -70 76 -108 144 -141 137 -64 333
-13 466 122 64 64 125 170 184 319 49 122 79 175 108 190 27 15 58 12 82 -7z
m-2350 -172 c131 -110 91 -456 -71 -618 -30 -29 -69 -61 -87 -70 -47 -25 -125
-24 -159 0 -132 96 -84 457 83 629 86 88 174 110 234 59z"/>
<path d="M4736 6753 c-6 -15 8 -32 25 -33 15 0 16 39 2 44 -20 8 -20 8 -27
-11z"/>
<path d="M2206 6751 c-10 -16 6 -42 21 -37 8 3 17 6 19 6 3 0 0 9 -6 20 -11
21 -25 26 -34 11z"/>
<path d="M4803 6724 c-9 -23 19 -38 34 -17 7 9 10 20 7 24 -9 15 -34 10 -41
-7z"/>
<path d="M2136 6721 c-9 -14 5 -42 18 -38 18 6 20 47 2 47 -8 0 -17 -4 -20 -9z"/>
<path d="M4873 6694 c-9 -23 19 -38 34 -17 7 9 10 20 7 24 -9 15 -34 10 -41
-7z"/>
<path d="M2066 6691 c-10 -16 6 -42 21 -37 8 3 16 6 18 6 2 0 1 9 -2 20 -5 21
-27 27 -37 11z"/>
<path d="M4943 6664 c-9 -24 19 -37 34 -17 10 13 10 18 0 25 -18 12 -27 10
-34 -8z"/>
<path d="M1996 6661 c-10 -16 6 -42 21 -37 8 3 16 6 18 6 2 0 1 9 -2 20 -5 21
-27 27 -37 11z"/>
<path d="M5013 6634 c-8 -21 13 -42 28 -27 13 13 5 43 -11 43 -6 0 -13 -7 -17
-16z"/>
<path d="M1932 6631 c-15 -9 -5 -41 13 -41 8 0 17 5 21 11 9 15 -18 40 -34 30z"/>
<path d="M5077 6596 c-8 -21 16 -39 31 -24 7 7 12 18 12 25 0 18 -36 17 -43
-1z"/>
<path d="M1863 6592 c-10 -7 -10 -12 0 -25 15 -20 43 -7 34 17 -7 18 -16 20
-34 8z"/>
<path d="M5149 6564 c-18 -22 4 -42 26 -24 19 16 19 26 1 33 -8 3 -20 -1 -27
-9z"/>
<path d="M1803 6563 c-15 -6 -17 -29 -3 -38 5 -3 17 -2 25 2 12 7 13 12 3 25
-7 9 -19 14 -25 11z"/>
<path d="M5213 6524 c-9 -24 19 -37 34 -17 10 13 10 18 0 25 -18 12 -27 10
-34 -8z"/>
<path d="M1732 6522 c-12 -8 -7 -42 7 -42 17 1 31 18 25 33 -7 19 -13 20 -32
9z"/>
<path d="M5281 6491 c-10 -17 -9 -22 4 -27 26 -10 42 13 23 32 -15 15 -17 15
-27 -5z"/>
<path d="M1663 6474 c-9 -23 13 -40 31 -25 13 11 13 15 1 27 -18 18 -24 18
-32 -2z"/>
<path d="M5341 6446 c-10 -12 -8 -17 6 -25 15 -7 22 -5 31 9 9 14 8 19 -4 24
-21 8 -20 8 -33 -8z"/>
<path d="M1600 6440 c-13 -8 -13 -11 2 -27 21 -20 43 -6 32 20 -7 19 -13 21
-34 7z"/>
<path d="M5406 6403 c-4 -9 -1 -20 6 -24 16 -10 43 15 34 30 -11 16 -33 13
-40 -6z"/>
<path d="M1541 6401 c-8 -5 -11 -16 -8 -25 7 -18 16 -20 37 -6 13 8 13 11 0
24 -10 10 -20 12 -29 7z"/>
<path d="M5471 6367 c-9 -11 -8 -17 5 -28 13 -11 17 -10 25 2 17 28 -9 51 -30
26z"/>
<path d="M1472 6353 c-10 -4 -9 -9 4 -24 13 -15 20 -16 31 -8 10 9 10 15 2 25
-12 15 -16 16 -37 7z"/>
<path d="M5530 6321 c-12 -24 10 -47 28 -29 16 16 15 35 -3 42 -8 3 -19 -3
-25 -13z"/>
<path d="M1411 6306 c-9 -10 -8 -16 4 -26 20 -16 38 -1 29 23 -8 21 -18 22
-33 3z"/>
<path d="M5593 6274 c-8 -21 13 -42 28 -27 13 13 5 43 -11 43 -6 0 -13 -7 -17
-16z"/>
<path d="M1353 6262 c-10 -7 -10 -12 0 -25 15 -20 43 -7 34 17 -7 18 -16 20
-34 8z"/>
<path d="M5651 6226 c-8 -10 -8 -16 2 -25 11 -8 18 -7 31 8 15 17 15 19 1 25
-22 8 -21 8 -34 -8z"/>
<path d="M1293 6219 c-16 -16 -5 -39 18 -39 22 0 25 22 6 39 -10 8 -16 8 -24
0z"/>
<path d="M5712 6179 c-10 -16 -10 -21 2 -25 19 -7 36 3 36 21 0 22 -26 24 -38
4z"/>
<path d="M1231 6166 c-8 -10 -8 -16 3 -25 17 -14 47 -4 40 14 -8 20 -31 26
-43 11z"/>
<path d="M5771 6136 c-14 -17 -7 -36 14 -36 22 0 29 20 13 36 -13 13 -16 13
-27 0z"/>
<path d="M1182 6121 c-7 -4 -10 -15 -6 -24 7 -19 13 -21 34 -7 13 8 13 11 0
24 -9 9 -20 12 -28 7z"/>
<path d="M5830 6085 c-11 -13 -11 -19 1 -30 13 -13 16 -12 26 4 17 27 -8 49
-27 26z"/>
<path d="M1122 6067 c-10 -11 -9 -17 3 -27 24 -20 45 4 24 26 -14 13 -17 13
-27 1z"/>
<path d="M5877 6026 c-9 -22 18 -40 33 -22 6 9 9 20 5 26 -9 15 -32 12 -38 -4z"/>
<path d="M1066 6013 c-8 -21 8 -37 28 -30 21 8 20 20 -3 34 -16 10 -20 9 -25
-4z"/>
<path d="M5933 5974 c-8 -20 17 -36 34 -22 10 8 10 14 2 24 -15 18 -28 18 -36
-2z"/>
<path d="M1011 5956 c-9 -10 -8 -16 4 -26 19 -16 41 1 32 24 -8 20 -21 20 -36
2z"/>
<path d="M5990 5926 c-10 -13 -10 -19 0 -31 11 -13 14 -13 27 1 14 14 14 17 1
30 -13 13 -16 13 -28 0z"/>
<path d="M960 5905 c-12 -14 -11 -18 1 -26 19 -12 26 -11 35 2 3 6 0 17 -8 25
-13 13 -16 13 -28 -1z"/>
<path d="M6041 5866 c-8 -10 -8 -16 3 -25 10 -9 16 -8 26 3 12 15 6 36 -9 36
-5 0 -14 -6 -20 -14z"/>
<path d="M905 5850 c-4 -6 -1 -17 5 -26 10 -11 16 -12 26 -3 11 9 11 15 3 25
-14 17 -25 18 -34 4z"/>
<path d="M6098 5816 c-15 -11 -15 -16 -5 -30 12 -16 14 -16 26 -2 8 9 9 21 4
30 -7 12 -11 12 -25 2z"/>
<path d="M854 5789 c-3 -6 0 -17 8 -25 13 -13 16 -13 28 1 12 14 11 18 -1 26
-19 12 -26 11 -35 -2z"/>
<path d="M6141 5756 c-9 -10 -8 -16 4 -26 19 -16 41 1 32 24 -8 20 -21 20 -36
2z"/>
<path d="M806 5734 c-7 -19 1 -34 19 -34 21 0 28 19 15 35 -16 19 -26 19 -34
-1z"/>
<path d="M6192 5697 c-15 -17 0 -39 22 -31 18 7 18 35 0 41 -6 2 -16 -2 -22
-10z"/>
<path d="M762 5677 c-10 -11 -9 -17 3 -27 24 -20 45 4 24 26 -14 13 -17 13
-27 1z"/>
<path d="M6240 5635 c-20 -24 4 -45 26 -24 13 14 13 17 1 27 -11 10 -17 9 -27
-3z"/>
<path d="M711 5616 c-8 -10 -7 -17 4 -26 13 -11 19 -11 32 2 14 15 13 17 -5
27 -15 8 -23 7 -31 -3z"/>
<path d="M6282 5578 c-19 -19 5 -40 30 -27 15 8 17 13 7 25 -14 17 -21 18 -37
2z"/>
<path d="M666 5554 c-7 -19 1 -34 19 -34 21 0 28 19 15 35 -16 19 -26 19 -34
-1z"/>
<path d="M6330 5515 c-10 -12 -10 -19 -2 -27 15 -15 43 8 35 28 -7 18 -17 18
-33 -1z"/>
<path d="M622 5490 c-9 -14 -8 -19 4 -24 23 -9 31 -7 37 7 3 7 -3 18 -12 24
-14 9 -20 7 -29 -7z"/>
<path d="M6378 5459 c-19 -11 -14 -39 7 -39 19 0 28 17 18 34 -6 10 -13 12
-25 5z"/>
<path d="M576 5425 c-6 -18 29 -41 39 -25 10 16 -2 40 -19 40 -7 0 -16 -7 -20
-15z"/>
<path d="M6410 5390 c-13 -8 -13 -11 0 -24 18 -19 46 -5 37 18 -7 18 -16 20
-37 6z"/>
<path d="M541 5366 c-8 -10 -7 -17 3 -26 17 -13 36 -6 36 15 0 19 -27 26 -39
11z"/>
<path d="M6457 5327 c-21 -15 -7 -40 16 -31 18 7 23 29 8 38 -4 3 -15 0 -24
-7z"/>
<path d="M497 5299 c-6 -21 14 -36 33 -24 15 10 12 23 -9 34 -15 9 -20 7 -24
-10z"/>
<path d="M6491 5261 c-12 -8 -13 -12 -1 -26 12 -14 15 -14 28 -1 8 8 11 19 8
25 -9 13 -16 14 -35 2z"/>
<path d="M460 5231 c-7 -15 -6 -20 6 -25 19 -7 34 1 34 19 0 22 -29 26 -40 6z"/>
<path d="M6536 5197 c-20 -15 -14 -37 9 -37 19 0 28 17 18 35 -8 13 -12 13
-27 2z"/>
<path d="M417 5166 c-3 -8 4 -18 18 -24 19 -9 24 -8 28 8 7 27 -36 42 -46 16z"/>
<path d="M6564 5125 c-10 -24 5 -36 27 -24 16 8 18 13 8 25 -15 18 -28 18 -35
-1z"/>
<path d="M385 5100 c-4 -7 -3 -16 3 -22 14 -14 45 -2 40 15 -6 16 -34 21 -43
7z"/>
<path d="M6601 5061 c-12 -8 -13 -12 -1 -26 12 -14 15 -14 28 -1 8 8 11 19 8
25 -9 13 -16 14 -35 2z"/>
<path d="M353 5034 c-5 -14 11 -33 28 -34 18 0 16 31 -2 40 -15 9 -21 7 -26
-6z"/>
<path d="M6633 4992 c-20 -13 2 -35 26 -27 18 5 20 9 10 21 -13 16 -19 17 -36
6z"/>
<path d="M320 4960 c-6 -12 -7 -20 -1 -20 5 0 16 -3 25 -6 11 -4 16 0 16 14 0
28 -27 36 -40 12z"/>
<path d="M6656 4922 c-2 -4 -1 -14 3 -21 12 -18 52 -5 44 15 -5 15 -38 19 -47
6z"/>
<path d="M286 4895 c-3 -9 3 -19 15 -25 15 -9 21 -7 26 6 3 9 0 20 -8 25 -20
12 -26 11 -33 -6z"/>
<path d="M6690 4840 c0 -21 8 -24 34 -14 20 8 9 34 -15 34 -12 0 -19 -7 -19
-20z"/>
<path d="M260 4825 c-9 -11 -7 -16 8 -24 15 -8 23 -7 32 4 9 11 7 16 -8 24
-15 8 -23 7 -32 -4z"/>
<path d="M6716 4782 c-9 -14 12 -35 28 -29 23 9 20 37 -3 37 -11 0 -22 -4 -25
-8z"/>
<path d="M233 4754 c-5 -14 11 -33 28 -34 15 0 16 39 2 44 -21 8 -23 8 -30
-10z"/>
<path d="M6745 4710 c-4 -7 -3 -16 3 -22 14 -14 45 -2 40 15 -6 16 -34 21 -43
7z"/>
<path d="M206 4683 c-8 -20 -8 -20 11 -27 15 -6 32 8 33 25 0 15 -39 16 -44 2z"/>
<path d="M6777 4643 c-14 -13 -6 -33 13 -33 13 0 20 7 20 20 0 19 -20 27 -33
13z"/>
<path d="M181 4611 c-10 -18 2 -31 29 -31 18 0 18 30 0 40 -15 8 -21 6 -29 -9z"/>
<path d="M6802 4572 c-19 -13 -4 -41 19 -35 21 6 21 6 13 27 -7 18 -13 19 -32
8z"/>
<path d="M156 4535 c-3 -9 1 -18 10 -22 19 -7 39 11 30 26 -10 16 -33 13 -40
-4z"/>
<path d="M6828 4503 c-17 -4 -24 -24 -12 -35 9 -10 44 4 44 18 0 16 -10 22
-32 17z"/>
<path d="M133 4464 c-7 -18 -4 -21 22 -26 14 -2 20 3 20 16 0 23 -34 31 -42
10z"/>
<path d="M6836 4422 c-9 -14 12 -35 28 -29 23 9 20 37 -3 37 -11 0 -22 -4 -25
-8z"/>
<path d="M123 4403 c-20 -7 -15 -30 6 -36 22 -5 31 0 31 19 0 14 -20 23 -37
17z"/>
<path d="M6861 4351 c-18 -12 -5 -31 20 -31 14 0 19 6 17 17 -4 20 -18 26 -37
14z"/>
<path d="M97 4316 c-7 -18 1 -26 25 -26 11 0 18 7 18 20 0 23 -35 28 -43 6z"/>
<path d="M6887 4282 c-10 -2 -17 -11 -15 -20 4 -19 19 -24 37 -13 18 12 1 38
-22 33z"/>
<path d="M80 4242 c0 -27 37 -36 43 -11 3 11 1 19 -3 19 -5 0 -15 3 -24 6 -11
4 -16 0 -16 -14z"/>
<path d="M6890 4190 c0 -13 7 -20 20 -20 13 0 20 7 20 20 0 13 -7 20 -20 20
-13 0 -20 -7 -20 -20z"/>
<path d="M64 4169 c-9 -15 12 -33 30 -26 9 4 16 13 16 22 0 17 -35 21 -46 4z"/>
<path d="M6911 4130 c-14 -8 -8 -40 7 -40 5 0 15 6 21 14 15 17 -8 39 -28 26z"/>
<path d="M50 4090 c0 -13 7 -20 19 -20 24 0 35 26 15 34 -26 10 -34 7 -34 -14z"/>
<path d="M6915 4051 c-9 -16 3 -31 26 -31 14 0 19 6 17 17 -4 20 -33 29 -43
14z"/>
<path d="M40 4010 c0 -13 7 -20 20 -20 13 0 20 7 20 20 0 13 -7 20 -20 20 -13
0 -20 -7 -20 -20z"/>
<path d="M6931 3977 c-5 -7 -7 -17 -3 -23 11 -15 36 -11 40 7 4 21 -23 32 -37
16z"/>
<path d="M30 3941 c0 -10 9 -21 20 -24 16 -4 20 0 20 19 0 17 -6 24 -20 24
-13 0 -20 -7 -20 -19z"/>
<path d="M6934 3899 c-9 -15 12 -33 30 -26 9 4 16 13 16 22 0 17 -35 21 -46 4z"/>
<path d="M20 3870 c0 -19 5 -25 23 -27 11 -2 17 4 17 17 0 13 -7 20 -20 20
-11 0 -20 -4 -20 -10z"/>
<path d="M6942 3813 c2 -10 12 -18 22 -18 11 0 20 8 22 18 2 12 -5 17 -23 17
-18 0 -24 -5 -21 -17z"/>
<path d="M16 3802 c-14 -14 -4 -32 18 -32 17 0 23 5 22 17 -3 16 -29 26 -40
15z"/>
<path d="M6950 3740 c0 -13 7 -20 20 -20 13 0 20 7 20 20 0 13 -7 20 -20 20
-13 0 -20 -7 -20 -20z"/>
<path d="M7 3710 c-4 -16 0 -20 19 -20 17 0 24 6 24 20 0 13 -7 20 -19 20 -10
0 -21 -9 -24 -20z"/>
<path d="M6960 3680 c-18 -11 -5 -39 16 -36 20 3 28 32 10 39 -7 3 -19 2 -26
-3z"/>
<path d="M18 3653 c-22 -5 -24 -29 -4 -36 18 -7 43 20 30 32 -5 4 -17 6 -26 4z"/>
<path d="M6965 3602 c-20 -15 -15 -32 11 -32 18 0 25 5 22 17 -3 19 -19 26
-33 15z"/>
<path d="M0 3559 c0 -15 5 -20 22 -17 31 4 33 38 2 38 -18 0 -24 -5 -24 -21z"/>
<path d="M6957 3516 c-7 -18 1 -26 25 -26 11 0 18 7 18 20 0 23 -35 28 -43 6z"/>
<path d="M0 3482 c0 -25 37 -26 43 -1 4 15 0 19 -19 19 -16 0 -24 -6 -24 -18z"/>
<path d="M6957 3440 c-3 -10 1 -21 8 -23 17 -7 38 8 33 23 -7 21 -36 20 -41 0z"/>
<path d="M2 3411 c2 -9 13 -17 26 -19 23 -3 27 4 14 24 -11 17 -43 13 -40 -5z"/>
<path d="M6959 3378 c-9 -30 -5 -39 14 -36 29 4 36 38 8 38 -12 0 -21 -1 -22
-2z"/>
<path d="M4 3333 c4 -25 46 -26 46 -2 0 13 -7 19 -24 19 -17 0 -24 -5 -22 -17z"/>
<path d="M6950 3285 c0 -8 2 -15 4 -15 2 0 11 -3 19 -6 9 -3 16 3 20 15 4 17
0 21 -19 21 -15 0 -24 -6 -24 -15z"/>
<path d="M10 3261 c0 -23 9 -31 26 -24 21 8 17 39 -6 40 -13 1 -20 -4 -20 -16z"/>
<path d="M6946 3215 c-9 -24 -8 -25 20 -25 19 0 25 5 22 17 -4 23 -34 28 -42
8z"/>
<path d="M15 3190 c-9 -15 4 -30 25 -30 13 0 18 7 17 20 -1 21 -31 28 -42 10z"/>
<path d="M6937 3136 c-7 -18 1 -26 25 -26 11 0 18 7 18 20 0 23 -35 28 -43 6z"/>
<path d="M31 3121 c-21 -13 -6 -41 18 -34 24 6 23 5 15 27 -7 18 -13 19 -33 7z"/>
<path d="M6930 3060 c0 -18 23 -34 34 -23 14 14 5 39 -14 40 -13 1 -20 -4 -20
-17z"/>
<path d="M30 3030 c0 -16 5 -21 23 -18 12 2 22 10 22 18 0 8 -10 16 -22 18
-18 3 -23 -2 -23 -18z"/>
<path d="M6922 2983 c5 -26 38 -29 38 -4 0 15 -6 21 -21 21 -14 0 -19 -5 -17
-17z"/>
<path d="M57 2972 c-10 -2 -17 -11 -15 -20 4 -19 19 -24 37 -13 18 12 1 38
-22 33z"/>
<path d="M6906 2915 c-9 -24 -8 -25 20 -25 19 0 25 5 22 17 -4 23 -34 28 -42
8z"/>
<path d="M57 2886 c-7 -18 1 -26 25 -26 11 0 18 7 18 20 0 23 -35 28 -43 6z"/>
<path d="M6890 2835 c0 -21 30 -31 41 -14 14 23 11 29 -16 29 -16 0 -25 -6
-25 -15z"/>
<path d="M83 2823 c-7 -2 -13 -14 -13 -25 0 -14 5 -18 16 -14 9 3 18 6 20 6 2
0 4 9 4 20 0 20 -5 23 -27 13z"/>
<path d="M6877 2766 c-7 -18 1 -26 25 -26 13 0 18 6 16 17 -4 22 -34 29 -41 9z"/>
<path d="M86 2742 c-9 -14 12 -35 28 -29 23 9 20 37 -3 37 -11 0 -22 -4 -25
-8z"/>
<path d="M6863 2693 c-3 -8 0 -19 8 -24 21 -13 26 -11 32 10 6 24 -31 37 -40
14z"/>
<path d="M106 2671 c-11 -17 5 -39 23 -34 13 3 17 11 14 24 -6 20 -28 26 -37
10z"/>
<path d="M6840 2615 c0 -21 30 -31 40 -14 11 17 3 29 -21 29 -10 0 -19 -7 -19
-15z"/>
<path d="M138 2602 c-20 -4 -22 -11 -10 -30 8 -12 42 -7 42 7 -1 15 -16 27
-32 23z"/>
<path d="M6827 2553 c-13 -13 -7 -31 12 -36 23 -6 38 22 19 35 -16 10 -23 10
-31 1z"/>
<path d="M140 2516 c0 -19 14 -28 34 -20 25 10 19 34 -9 34 -15 0 -25 -6 -25
-14z"/>
<path d="M6803 2473 c-3 -8 0 -19 8 -24 21 -13 26 -11 32 10 6 24 -31 37 -40
14z"/>
<path d="M168 2455 c-3 -3 -4 -14 -1 -24 6 -24 45 -16 41 8 -3 16 -29 27 -40
16z"/>
<path d="M6777 2399 c-5 -18 17 -34 34 -23 16 9 10 31 -10 37 -13 3 -21 -1
-24 -14z"/>
<path d="M201 2381 c-8 -5 -11 -16 -8 -25 5 -13 11 -15 26 -6 12 6 18 16 15
25 -7 17 -13 18 -33 6z"/>
<path d="M6756 2334 c-7 -19 1 -34 19 -34 22 0 26 29 6 40 -15 7 -20 6 -25 -6z"/>
<path d="M228 2313 c-20 -5 -22 -12 -10 -31 10 -15 42 -5 42 13 0 17 -10 23
-32 18z"/>
<path d="M6727 2259 c-6 -21 14 -36 33 -24 15 10 12 23 -9 34 -15 9 -20 7 -24
-10z"/>
<path d="M258 2242 c-20 -4 -22 -11 -10 -30 8 -12 42 -7 42 7 -1 15 -16 27
-32 23z"/>
<path d="M6697 2186 c-4 -9 2 -17 14 -21 25 -8 34 -1 26 20 -8 19 -33 20 -40
1z"/>
<path d="M283 2173 c-15 -5 -17 -29 -4 -37 17 -11 39 5 34 25 -5 20 -9 21 -30
12z"/>
<path d="M6667 2116 c-3 -8 1 -17 9 -20 26 -10 34 -7 34 14 0 23 -35 28 -43 6z"/>
<path d="M318 2102 c-20 -4 -24 -27 -7 -38 14 -8 40 18 31 31 -4 6 -15 9 -24
7z"/>
<path d="M6637 2050 c-5 -19 17 -35 34 -24 14 9 10 23 -10 33 -15 9 -20 7 -24
-9z"/>
<path d="M342 2032 c-12 -8 -7 -42 7 -42 17 1 31 18 25 33 -7 19 -13 20 -32 9z"/>
<path d="M6605 1982 c-3 -8 -1 -20 4 -25 13 -13 41 -1 41 17 0 20 -37 27 -45
8z"/>
<path d="M370 1960 c-13 -8 -13 -11 0 -24 18 -19 46 -5 37 18 -7 18 -16 20
-37 6z"/>
<path d="M6571 1911 c-9 -15 -7 -20 9 -24 29 -8 47 19 21 32 -16 9 -22 8 -30
-8z"/>
<path d="M406 1891 c-4 -5 -3 -16 0 -25 5 -12 10 -13 24 -4 10 6 16 18 13 25
-6 15 -29 17 -37 4z"/>
<path d="M6537 1846 c-3 -8 1 -20 9 -27 13 -10 17 -10 25 2 5 8 7 19 6 24 -6
16 -34 17 -40 1z"/>
<path d="M447 1827 c-21 -15 -7 -40 16 -31 18 7 23 29 8 38 -4 3 -15 0 -24 -7z"/>
<path d="M6502 1783 c-8 -15 -7 -22 8 -31 15 -9 19 -8 24 5 4 9 0 23 -8 31
-12 12 -15 12 -24 -5z"/>
<path d="M481 1761 c-9 -6 -10 -14 -4 -25 8 -14 12 -14 27 -3 11 8 16 19 12
25 -9 14 -16 15 -35 3z"/>
<path d="M6463 1714 c-8 -20 17 -36 34 -22 10 8 10 14 2 24 -15 18 -28 18 -36
-2z"/>
<path d="M526 1697 c-11 -8 -16 -19 -12 -25 15 -24 53 -3 39 22 -8 14 -12 14
-27 3z"/>
<path d="M6420 1651 c-9 -18 3 -31 30 -31 17 0 17 27 -1 38 -15 10 -20 8 -29
-7z"/>
<path d="M554 1629 c-3 -6 0 -17 8 -25 13 -13 16 -13 27 0 7 8 10 20 6 26 -8
13 -32 13 -41 -1z"/>
<path d="M6381 1586 c-10 -12 -8 -17 6 -25 15 -7 22 -5 31 9 9 14 8 19 -4 24
-21 8 -20 8 -33 -8z"/>
<path d="M603 1569 c-11 -11 -7 -39 6 -39 17 1 31 18 25 33 -7 20 -16 21 -31
6z"/>
<path d="M6337 1526 c-5 -13 10 -36 24 -36 14 0 19 34 7 42 -18 11 -25 10 -31
-6z"/>
<path d="M648 1509 c-19 -10 -14 -39 7 -39 7 0 18 6 24 14 16 19 -8 38 -31 25z"/>
<path d="M6294 1466 c-7 -19 3 -36 21 -36 22 0 26 29 4 40 -15 8 -21 7 -25 -4z"/>
<path d="M685 1440 c-4 -7 -3 -16 3 -22 14 -14 45 -2 40 15 -6 16 -34 21 -43
7z"/>
<path d="M6250 1405 c-12 -14 -11 -18 1 -26 19 -12 26 -11 35 2 3 6 0 17 -8
25 -13 13 -16 13 -28 -1z"/>
<path d="M738 1386 c-13 -9 -14 -15 -4 -28 10 -13 15 -15 24 -6 26 26 8 55
-20 34z"/>
<path d="M6201 1346 c-8 -10 -6 -17 7 -29 16 -15 19 -15 30 3 10 16 9 21 -7
29 -14 8 -22 7 -30 -3z"/>
<path d="M786 1327 c-20 -15 -14 -37 9 -37 19 0 28 17 18 35 -8 13 -12 13 -27
2z"/>
<path d="M6152 1284 c-10 -11 -9 -15 5 -22 20 -10 43 -5 43 8 0 18 -35 28 -48
14z"/>
<path d="M832 1268 c-8 -8 -8 -17 -1 -30 9 -16 12 -17 24 -4 8 8 15 19 15 24
0 15 -26 22 -38 10z"/>
<path d="M6102 1228 c-9 -9 -7 -14 6 -24 23 -17 48 2 31 22 -14 17 -22 17 -37
2z"/>
<path d="M882 1207 c-7 -7 -7 -18 -2 -27 7 -11 11 -11 24 -1 8 7 12 19 9 27
-6 17 -17 18 -31 1z"/>
<path d="M6054 1169 c-3 -6 0 -17 8 -25 13 -13 16 -13 28 1 12 14 11 18 -1 26
-19 12 -26 11 -35 -2z"/>
<path d="M932 1154 c-11 -12 -11 -18 -1 -30 11 -13 14 -13 28 0 13 14 13 18 1
30 -13 13 -17 12 -28 0z"/>
<path d="M6001 1116 c-10 -12 -8 -17 7 -25 25 -13 47 6 31 26 -15 17 -24 16
-38 -1z"/>
<path d="M981 1096 c-9 -10 -8 -16 4 -26 19 -16 41 1 32 24 -8 20 -21 20 -36
2z"/>
<path d="M5950 1056 c0 -22 23 -36 37 -21 8 9 9 15 0 24 -15 15 -37 14 -37 -3z"/>
<path d="M1032 1037 c-8 -9 -6 -16 7 -24 14 -9 20 -7 29 7 18 29 -14 44 -36
17z"/>
<path d="M5895 1010 c-4 -6 -1 -17 5 -26 15 -18 42 0 33 22 -6 16 -29 19 -38
4z"/>
<path d="M1091 986 c-8 -10 -8 -16 3 -25 10 -9 16 -8 26 3 12 15 6 36 -9 36
-5 0 -14 -6 -20 -14z"/>
<path d="M5841 956 c-17 -20 13 -44 34 -26 12 10 12 14 0 26 -17 17 -20 17
-34 0z"/>
<path d="M1146 937 c-16 -12 -17 -14 -1 -27 14 -11 18 -11 31 2 13 12 13 16 1
26 -10 9 -18 9 -31 -1z"/>
<path d="M5786 904 c-11 -29 6 -42 33 -25 12 8 12 12 2 25 -17 20 -27 20 -35
0z"/>
<path d="M1201 887 c-9 -11 -8 -17 5 -28 13 -11 17 -10 25 2 17 28 -9 51 -30
26z"/>
<path d="M5730 860 c-13 -8 -13 -11 2 -27 14 -13 20 -15 30 -5 17 17 -11 45
-32 32z"/>
<path d="M1259 834 c-10 -13 -10 -17 1 -24 18 -11 41 7 33 26 -7 18 -17 18
-34 -2z"/>
<path d="M5670 810 c-13 -8 -13 -11 2 -27 21 -20 45 -5 35 21 -7 18 -16 20
-37 6z"/>
<path d="M1316 783 c-4 -9 -1 -20 6 -24 16 -10 43 15 34 30 -11 16 -33 13 -40
-6z"/>
<path d="M5606 761 c-3 -4 0 -16 7 -25 12 -16 14 -16 26 -2 7 8 10 20 6 26 -8
12 -32 13 -39 1z"/>
<path d="M1380 746 c-13 -17 -6 -36 15 -36 19 0 26 27 11 39 -10 8 -17 7 -26
-3z"/>
<path d="M5551 716 c-8 -10 -7 -17 3 -26 17 -13 36 -6 36 15 0 19 -27 26 -39
11z"/>
<path d="M1436 693 c-6 -15 8 -32 25 -33 14 0 19 34 7 42 -19 11 -25 10 -32
-9z"/>
<path d="M5484 669 c-3 -6 0 -17 8 -25 13 -13 16 -13 28 1 12 14 11 18 -1 26
-19 12 -26 11 -35 -2z"/>
<path d="M1500 649 c-8 -15 -7 -21 4 -25 19 -7 36 3 36 21 0 22 -29 26 -40 4z"/>
<path d="M5432 631 c-7 -4 -10 -15 -6 -24 7 -19 13 -21 34 -7 13 8 13 11 0 24
-9 9 -20 12 -28 7z"/>
<path d="M1562 607 c-8 -9 -6 -16 7 -24 14 -9 20 -7 29 7 18 29 -14 44 -36 17z"/>
<path d="M5366 587 c-16 -12 -16 -14 -2 -26 17 -14 36 -7 36 14 0 21 -15 26
-34 12z"/>
<path d="M1631 571 c-14 -26 -14 -28 4 -35 21 -8 39 28 20 44 -11 9 -16 7 -24
-9z"/>
<path d="M5302 547 c-14 -17 2 -42 22 -34 20 8 20 21 2 36 -10 8 -16 8 -24 -2z"/>
<path d="M1691 526 c-10 -12 -8 -17 7 -25 16 -8 21 -7 26 5 12 31 -12 45 -33
20z"/>
<path d="M5233 504 c-8 -21 13 -42 28 -27 13 13 5 43 -11 43 -6 0 -13 -7 -17
-16z"/>
<path d="M1760 495 c-11 -13 -11 -19 2 -32 15 -14 17 -13 27 5 15 27 -10 50
-29 27z"/>
<path d="M5166 471 c-7 -10 3 -41 13 -41 3 0 12 4 20 9 12 8 12 12 2 25 -15
18 -27 20 -35 7z"/>
<path d="M1820 451 c-7 -15 -6 -20 6 -25 19 -7 34 1 34 19 0 22 -29 26 -40 6z"/>
<path d="M5108 438 c-14 -11 -15 -16 -4 -30 17 -23 39 -8 29 20 -7 19 -11 21
-25 10z"/>
<path d="M1886 414 c-8 -21 -8 -21 13 -27 20 -5 36 17 25 34 -9 14 -31 10 -38
-7z"/>
<path d="M5033 394 c-8 -21 13 -42 28 -27 13 13 5 43 -11 43 -6 0 -13 -7 -17
-16z"/>
<path d="M1956 384 c-7 -19 1 -34 18 -34 20 0 27 38 9 44 -20 8 -20 8 -27 -10z"/>
<path d="M4971 371 c-17 -11 -7 -41 13 -41 21 0 27 15 13 33 -8 11 -17 14 -26
8z"/>
<path d="M2026 354 c-7 -19 1 -34 19 -34 22 0 26 29 6 40 -15 7 -20 6 -25 -6z"/>
<path d="M4908 342 c-10 -2 -18 -10 -18 -18 0 -18 28 -30 40 -18 13 14 -3 40
-22 36z"/>
<path d="M2097 323 c-14 -13 -6 -33 12 -33 19 0 35 23 24 34 -8 8 -28 8 -36
-1z"/>
<path d="M2166 294 c-8 -22 -8 -22 13 -33 15 -9 20 -7 24 9 7 26 -28 48 -37
24z"/>
<path d="M4820 303 c1 -19 19 -35 34 -30 21 8 9 37 -15 37 -10 0 -19 -3 -19
-7z"/>
<path d="M4763 283 c-15 -5 -17 -29 -4 -37 17 -11 39 5 34 25 -5 20 -9 21 -30
12z"/>
<path d="M2236 263 c-4 -8 -4 -19 0 -24 9 -16 31 -10 37 10 6 24 -29 36 -37
14z"/>
<path d="M4692 252 c-17 -11 -4 -45 15 -38 8 3 16 6 18 6 2 0 1 9 -2 20 -6 22
-11 24 -31 12z"/>
<path d="M2306 233 c-6 -15 8 -32 25 -33 9 0 18 37 11 44 -11 11 -30 6 -36
-11z"/>
<path d="M2377 208 c-7 -23 21 -37 34 -17 13 21 11 26 -10 32 -13 3 -21 -1
-24 -15z"/>
<path d="M4610 221 c0 -22 13 -39 26 -34 22 8 17 43 -6 43 -11 0 -20 -4 -20
-9z"/>
<path d="M4543 194 c-8 -21 13 -42 28 -27 13 13 5 43 -11 43 -6 0 -13 -7 -17
-16z"/>
<path d="M2451 182 c-8 -16 -7 -21 6 -26 17 -7 35 11 30 28 -6 19 -26 17 -36
-2z"/>
<path d="M4474 184 c-16 -7 -5 -44 12 -44 17 0 25 15 18 34 -6 16 -11 18 -30
10z"/>
<path d="M2521 161 c-9 -15 -7 -20 9 -24 23 -6 34 7 26 28 -8 21 -23 19 -35
-4z"/>
<path d="M4407 163 c-11 -3 -16 -10 -13 -20 3 -8 6 -17 6 -19 0 -2 7 -4 15 -4
9 0 15 9 15 25 0 14 -1 24 -2 24 -2 -1 -11 -3 -21 -6z"/>
<path d="M2596 143 c-6 -15 8 -32 25 -33 15 0 16 39 2 44 -20 8 -20 8 -27 -11z"/>
<path d="M4322 124 c2 -16 9 -24 21 -24 24 0 19 42 -5 46 -13 2 -17 -4 -16
-22z"/>
<path d="M2667 121 c-3 -13 1 -21 14 -24 16 -4 29 10 29 34 0 18 -38 9 -43
-10z"/>
<path d="M2746 114 c-10 -26 -7 -34 14 -34 13 0 20 7 20 19 0 24 -26 35 -34
15z"/>
<path d="M4248 124 c-7 -7 2 -44 11 -44 17 1 31 18 25 33 -6 17 -25 22 -36 11z"/>
<path d="M2816 93 c-6 -15 8 -32 25 -33 9 0 18 37 11 44 -11 11 -30 6 -36 -11z"/>
<path d="M4170 90 c0 -13 7 -20 20 -20 13 0 20 7 20 20 0 13 -7 20 -20 20 -13
0 -20 -7 -20 -20z"/>
<path d="M2903 93 c-22 -8 -15 -43 7 -43 13 0 20 7 20 19 0 22 -9 30 -27 24z"/>
<path d="M4100 75 c0 -27 6 -30 29 -16 17 11 7 41 -14 41 -9 0 -15 -9 -15 -25z"/>
<path d="M4031 81 c-17 -11 -7 -45 12 -39 13 5 23 48 10 48 -4 0 -14 -4 -22
-9z"/>
<path d="M2966 64 c-9 -23 -8 -24 17 -24 16 0 23 6 23 20 0 24 -31 27 -40 4z"/>
<path d="M3963 73 c-22 -8 -15 -43 7 -43 13 0 20 7 20 19 0 22 -9 30 -27 24z"/>
<path d="M3040 50 c0 -13 7 -20 20 -20 13 0 20 7 20 20 0 13 -7 20 -20 20 -13
0 -20 -7 -20 -20z"/>
<path d="M3881 61 c-17 -11 -7 -41 14 -41 9 0 15 9 15 25 0 27 -6 30 -29 16z"/>
<path d="M3119 58 c-8 -34 -6 -39 14 -36 26 4 29 31 5 36 -10 2 -18 2 -19 0z"/>
<path d="M3195 52 c-14 -14 -3 -42 15 -42 14 0 20 7 20 23 0 21 -21 33 -35 19z"/>
<path d="M3800 38 c0 -17 6 -24 20 -24 14 0 18 6 16 21 -4 30 -36 33 -36 3z"/>
<path d="M3267 36 c-7 -17 1 -26 23 -26 9 0 16 9 17 20 2 23 -32 28 -40 6z"/>
<path d="M3342 25 c4 -30 38 -33 38 -3 0 17 -6 24 -20 24 -15 0 -20 -6 -18
-21z"/>
<path d="M3420 23 c0 -32 35 -32 38 0 1 17 -4 23 -18 23 -14 0 -20 -7 -20 -23z"/>
<path d="M3511 40 c-22 -13 -22 -40 -1 -40 23 0 29 10 21 32 -4 12 -10 15 -20
8z"/>
<path d="M3581 40 c-17 -10 -7 -40 14 -40 8 0 15 9 15 19 0 24 -12 32 -29 21z"/>
<path d="M3647 31 c-5 -20 13 -34 29 -23 15 11 10 36 -7 40 -10 2 -19 -5 -22
-17z"/>
<path d="M3720 30 c0 -13 7 -20 20 -20 13 0 20 7 20 20 0 13 -7 20 -20 20 -13
0 -20 -7 -20 -20z"/>
</g>
</svg>
