<svg xmlns="http://www.w3.org/2000/svg" viewBox="0 0 195.7 35.99"><defs><style>.cls-1{fill:#31d57c;}.cls-2{fill:none;}</style></defs><title>greenlight-guru-logo</title><g id="Layer_2" data-name="Layer 2"><g id="Layer_5" data-name="Layer 5"><path class="cls-1" d="M25.57,5.82c-.78.76-7.13,6.39-7.13,6.39H9.65l.81-4.38h9.1l-.29,1.75,5.29-5L20.83,0l-.27,1.63H12.13c-3.69,0-8.9,2.89-8.9,10.41a7.57,7.57,0,0,0,.87,3.62,4.51,4.51,0,0,0-2.91,4,6.12,6.12,0,0,0,.86,3.27A9.64,9.64,0,0,0,.7,26.22c-.14.71-.35,1.85-.59,3.05-.5,2.56.64,6.72,6,6.72H17.19c3.17,0,4.31-1.82,4.83-4.33s.78-3.55,1.16-5.42c.48-2.37-.33-6.82-6-6.82H10.47a3,3,0,0,0-.33-1.2H17.3c3.37,0,7.23-1.85,8.53-7.25a18.81,18.81,0,0,0,.31-2.2C26.3,7.45,26.25,6.48,25.57,5.82ZM16.73,25.5l-1,4.41H6.49l1-4.41Z"/><path class="cls-1" d="M44,25.52c-.82,4-3.55,5.18-7.12,5.18a12.31,12.31,0,0,1-5.16-1l1.84-3.18a7.28,7.28,0,0,0,3.11.61c1.39,0,2.07-.41,2.27-1.32l.11-.48a5.12,5.12,0,0,1-1.75.23A4.13,4.13,0,0,1,33,21.25a9.65,9.65,0,0,1,1.91-5.43c1.41-1.75,3.55-2.71,6.5-2.71a11.93,11.93,0,0,1,5,1ZM40.56,16c-.82,0-1.41.5-1.86,1.73A13.28,13.28,0,0,0,38,21.36c0,1,.36,1.41,1.21,1.41a1.51,1.51,0,0,0,.48-.07L41,16.09A1.33,1.33,0,0,0,40.56,16Z"/><path class="cls-1" d="M54.38,16.65a2.38,2.38,0,0,0-1.84-.36l-1.91,9.3H45.54l2.39-11.53a16.41,16.41,0,0,1,6-1,18.46,18.46,0,0,1,2.07.09Z"/><path class="cls-1" d="M66.2,20.2l-7,.93c.16,1,1,1.32,1.93,1.32a9.39,9.39,0,0,0,3.34-.71l.46,3.12a12.42,12.42,0,0,1-5,1c-3.52,0-5.41-2.09-5.41-5a8.39,8.39,0,0,1,1.71-5,6.92,6.92,0,0,1,5.64-2.71,4.36,4.36,0,0,1,4.75,4.71A9.28,9.28,0,0,1,66.2,20.2Zm-5-4.21c-.86,0-1.43.7-1.77,1.64a4.81,4.81,0,0,0-.27,1.16l2.8-.41a4.41,4.41,0,0,0,.14-1C62,16.54,61.77,16,61.15,16Z"/><path class="cls-1" d="M79.06,20.2l-7,.93c.16,1,1,1.32,1.93,1.32a9.39,9.39,0,0,0,3.34-.71l.46,3.12a12.42,12.42,0,0,1-5,1c-3.52,0-5.41-2.09-5.41-5a8.39,8.39,0,0,1,1.71-5,6.92,6.92,0,0,1,5.64-2.71,4.36,4.36,0,0,1,4.75,4.71A9.29,9.29,0,0,1,79.06,20.2ZM74,16c-.86,0-1.43.7-1.77,1.64A4.79,4.79,0,0,0,72,18.79l2.8-.41a4.41,4.41,0,0,0,.14-1C74.9,16.54,74.63,16,74,16Z"/><path class="cls-1" d="M92.79,17.47l-1.71,8.12H86l1.7-8.32a1.59,1.59,0,0,0,0-.3c0-.46-.3-.75-.93-.75a5.69,5.69,0,0,0-.73.07l-1.93,9.3H79.08l2.39-11.53a17.63,17.63,0,0,1,6-1c3.8,0,5.39,1.25,5.39,3.32A5.92,5.92,0,0,1,92.79,17.47Z"/><path class="cls-1" d="M97.79,25.59H92.72l3.7-17.85h5.07Z"/><path class="cls-1" d="M104.59,25.59H99.49L102,13.33h5.09ZM104.86,12a2,2,0,0,1-2.18-1.86,3,3,0,0,1,3.09-2.66A2,2,0,0,1,108,9.36,3,3,0,0,1,104.86,12Z"/><path class="cls-1" d="M117.77,25.52c-.82,4-3.55,5.18-7.12,5.18a12.31,12.31,0,0,1-5.16-1l1.84-3.18a7.28,7.28,0,0,0,3.11.61c1.39,0,2.07-.41,2.27-1.32l.11-.48a5.12,5.12,0,0,1-1.75.23,4.13,4.13,0,0,1-4.37-4.37,9.64,9.64,0,0,1,1.91-5.43c1.41-1.75,3.55-2.71,6.5-2.71a11.93,11.93,0,0,1,5,1ZM114.29,16c-.82,0-1.41.5-1.86,1.73a13.32,13.32,0,0,0-.73,3.61c0,1,.36,1.41,1.21,1.41a1.51,1.51,0,0,0,.48-.07l1.39-6.62A1.33,1.33,0,0,0,114.29,16Z"/><path class="cls-1" d="M132.89,17.24l-1.73,8.34h-5.09l1.73-8.37a1.63,1.63,0,0,0,0-.3c0-.48-.29-.77-1-.77a2,2,0,0,0-.64.09l-1.93,9.34h-5.09l3.71-17.85H128l-1.23,5.82a8,8,0,0,1,2.59-.46c2.55,0,3.66,1.3,3.66,3.09A5.61,5.61,0,0,1,132.89,17.24Z"/><path class="cls-1" d="M142,16.68h-1.66l-1,4.75a4,4,0,0,0-.07.43.53.53,0,0,0,.59.57,2.18,2.18,0,0,0,1-.23l-.64,3.11a6.45,6.45,0,0,1-2.52.5c-2.48,0-3.57-1.32-3.57-3.12a5.59,5.59,0,0,1,.11-1l1-5H134l.68-3.34H136l.48-2.39,5.37-1.23L141,13.33h1.66Z"/><path class="cls-1" d="M158.38,25.52c-.82,4-3.55,5.18-7.12,5.18a12.31,12.31,0,0,1-5.16-1l1.84-3.18a7.28,7.28,0,0,0,3.12.61c1.39,0,2.07-.41,2.27-1.32l.11-.48a5.12,5.12,0,0,1-1.75.23,4.13,4.13,0,0,1-4.37-4.37,9.65,9.65,0,0,1,1.91-5.43c1.41-1.75,3.55-2.71,6.5-2.71a11.93,11.93,0,0,1,5,1ZM154.9,16c-.82,0-1.41.5-1.86,1.73a13.23,13.23,0,0,0-.73,3.61c0,1,.36,1.41,1.21,1.41a1.51,1.51,0,0,0,.48-.07l1.39-6.62A1.33,1.33,0,0,0,154.9,16Z"/><path class="cls-1" d="M171.77,24.86a16.33,16.33,0,0,1-6,1c-3.37,0-5.23-.91-5.23-3.34a7.25,7.25,0,0,1,.14-1.34l1.64-7.8h5.09l-1.71,8.21a2,2,0,0,0,0,.34c0,.34.18.54.75.54a2.33,2.33,0,0,0,.77-.11l1.89-9h5.07Z"/><path class="cls-1" d="M181.82,16.65a2.38,2.38,0,0,0-1.84-.36l-1.91,9.3H173l2.39-11.53a16.42,16.42,0,0,1,6-1,18.46,18.46,0,0,1,2.07.09Z"/><path class="cls-1" d="M193.32,24.86a16.33,16.33,0,0,1-6,1c-3.37,0-5.23-.91-5.23-3.34a7.26,7.26,0,0,1,.14-1.34l1.64-7.8H189l-1.71,8.21a2.06,2.06,0,0,0,0,.34c0,.34.18.54.75.54a2.33,2.33,0,0,0,.77-.11l1.89-9h5.07Z"/><path class="cls-2" d="M71.82,45.62"/></g></g></svg>