<?xml version="1.0" encoding="utf-8"?>
<!-- Generator: Adobe Illustrator 16.0.0, SVG Export Plug-In . SVG Version: 6.00 Build 0)  -->
<!DOCTYPE svg PUBLIC "-//W3C//DTD SVG 1.1//EN" "http://www.w3.org/Graphics/SVG/1.1/DTD/svg11.dtd">
<svg version="1.1" id="Layer_1" xmlns="http://www.w3.org/2000/svg" xmlns:xlink="http://www.w3.org/1999/xlink" x="0px" y="0px"
	 width="64px" height="64px" viewBox="0 0 64 64" enable-background="new 0 0 64 64" xml:space="preserve">
<g>
	<g>
		<polygon fill="#FFC252" points="32,13 32,44 45,44 45,47 60,47 60,13 		"/>
		<g>
			<polyline fill="none" stroke="#34303D" stroke-width="2" stroke-miterlimit="10" points="29,29 29,10 63,10 63,50 48,50 			"/>
			<rect x="29" y="4" fill="none" stroke="#34303D" stroke-width="2" stroke-miterlimit="10" width="34" height="6"/>
			<line fill="none" stroke="#34303D" stroke-width="2" stroke-miterlimit="10" x1="32" y1="7" x2="34" y2="7"/>
			<line fill="none" stroke="#34303D" stroke-width="2" stroke-miterlimit="10" x1="36" y1="7" x2="38" y2="7"/>
			<line fill="none" stroke="#34303D" stroke-width="2" stroke-miterlimit="10" x1="40" y1="7" x2="42" y2="7"/>
		</g>
		<g>
			<g>
				<line fill="none" stroke="#34303D" stroke-width="2" stroke-miterlimit="10" x1="34" y1="16" x2="39" y2="16"/>
				<line fill="none" stroke="#34303D" stroke-width="2" stroke-miterlimit="10" x1="39" y1="24" x2="46" y2="24"/>
				<line fill="none" stroke="#34303D" stroke-width="2" stroke-miterlimit="10" x1="39" y1="28" x2="46" y2="28"/>
				<line fill="none" stroke="#34303D" stroke-width="2" stroke-miterlimit="10" x1="48" y1="24" x2="53" y2="24"/>
				<line fill="none" stroke="#34303D" stroke-width="2" stroke-miterlimit="10" x1="34" y1="20" x2="46" y2="20"/>
				<line fill="none" stroke="#34303D" stroke-width="2" stroke-miterlimit="10" x1="48" y1="28" x2="58" y2="28"/>
				<line fill="none" stroke="#34303D" stroke-width="2" stroke-miterlimit="10" x1="48.01" y1="20" x2="53.01" y2="20"/>
			</g>
			<g>
				<line fill="none" stroke="#34303D" stroke-width="2" stroke-miterlimit="10" x1="34" y1="32" x2="39" y2="32"/>
				<line fill="none" stroke="#34303D" stroke-width="2" stroke-miterlimit="10" x1="39" y1="40" x2="46" y2="40"/>
				<line fill="none" stroke="#34303D" stroke-width="2" stroke-miterlimit="10" x1="48" y1="40" x2="53" y2="40"/>
				<line fill="none" stroke="#34303D" stroke-width="2" stroke-miterlimit="10" x1="34" y1="36" x2="46" y2="36"/>
				<line fill="none" stroke="#34303D" stroke-width="2" stroke-miterlimit="10" x1="48" y1="44" x2="58" y2="44"/>
				<line fill="none" stroke="#34303D" stroke-width="2" stroke-miterlimit="10" x1="48.01" y1="36" x2="53.01" y2="36"/>
			</g>
		</g>
	</g>
	<g>
		<circle fill="none" stroke="#34303D" stroke-width="2" stroke-miterlimit="10" cx="5" cy="6" r="2"/>
		<line fill="none" stroke="#34303D" stroke-width="2" stroke-miterlimit="10" x1="11" y1="3" x2="11" y2="9"/>
		<line fill="none" stroke="#34303D" stroke-width="2" stroke-miterlimit="10" x1="15" y1="3" x2="15" y2="9"/>
	</g>
	<g>
		<line fill="none" stroke="#34303D" stroke-width="2" stroke-miterlimit="10" x1="5" y1="32" x2="5" y2="38"/>
		<line fill="none" stroke="#34303D" stroke-width="2" stroke-miterlimit="10" x1="1" y1="32" x2="1" y2="38"/>
	</g>
	<g>
		<circle fill="none" stroke="#34303D" stroke-width="2" stroke-miterlimit="10" cx="61" cy="58" r="2"/>
		<line fill="none" stroke="#34303D" stroke-width="2" stroke-miterlimit="10" x1="55" y1="55" x2="55" y2="61"/>
		<line fill="none" stroke="#34303D" stroke-width="2" stroke-miterlimit="10" x1="51" y1="55" x2="51" y2="61"/>
	</g>
	<g>
		<rect x="1" y="44" fill="none" stroke="#34303D" stroke-width="2" stroke-miterlimit="10" width="44" height="16"/>
		<g>
			<g>
				<line fill="none" stroke="#DA4843" stroke-width="2" stroke-miterlimit="10" x1="4" y1="48" x2="6" y2="48"/>
				<line fill="none" stroke="#34303D" stroke-width="2" stroke-miterlimit="10" x1="8" y1="48" x2="10" y2="48"/>
				<line fill="none" stroke="#34303D" stroke-width="2" stroke-miterlimit="10" x1="12" y1="48" x2="14" y2="48"/>
				<line fill="none" stroke="#34303D" stroke-width="2" stroke-miterlimit="10" x1="16" y1="48" x2="18" y2="48"/>
				<line fill="none" stroke="#34303D" stroke-width="2" stroke-miterlimit="10" x1="20" y1="48" x2="22" y2="48"/>
				<line fill="none" stroke="#34303D" stroke-width="2" stroke-miterlimit="10" x1="24" y1="48" x2="26" y2="48"/>
				<line fill="none" stroke="#34303D" stroke-width="2" stroke-miterlimit="10" x1="28" y1="48" x2="30" y2="48"/>
				<line fill="none" stroke="#34303D" stroke-width="2" stroke-miterlimit="10" x1="32" y1="48" x2="34" y2="48"/>
				<line fill="none" stroke="#34303D" stroke-width="2" stroke-miterlimit="10" x1="36" y1="48" x2="38" y2="48"/>
				<line fill="none" stroke="#34303D" stroke-width="2" stroke-miterlimit="10" x1="40" y1="48" x2="42" y2="48"/>
			</g>
			<g>
				<line fill="none" stroke="#34303D" stroke-width="2" stroke-miterlimit="10" x1="6" y1="52" x2="8" y2="52"/>
				<line fill="none" stroke="#34303D" stroke-width="2" stroke-miterlimit="10" x1="10" y1="52" x2="12" y2="52"/>
				<line fill="none" stroke="#34303D" stroke-width="2" stroke-miterlimit="10" x1="14" y1="52" x2="16" y2="52"/>
				<line fill="none" stroke="#34303D" stroke-width="2" stroke-miterlimit="10" x1="18" y1="52" x2="20" y2="52"/>
				<line fill="none" stroke="#34303D" stroke-width="2" stroke-miterlimit="10" x1="22" y1="52" x2="24" y2="52"/>
				<line fill="none" stroke="#34303D" stroke-width="2" stroke-miterlimit="10" x1="26" y1="52" x2="28" y2="52"/>
				<line fill="none" stroke="#34303D" stroke-width="2" stroke-miterlimit="10" x1="30" y1="52" x2="32" y2="52"/>
				<line fill="none" stroke="#34303D" stroke-width="2" stroke-miterlimit="10" x1="34" y1="52" x2="36" y2="52"/>
				<line fill="none" stroke="#34303D" stroke-width="2" stroke-miterlimit="10" x1="38" y1="52" x2="40" y2="52"/>
			</g>
			<g>
				<line fill="none" stroke="#34303D" stroke-width="2" stroke-miterlimit="10" x1="4" y1="56" x2="6" y2="56"/>
				<line fill="none" stroke="#34303D" stroke-width="2" stroke-miterlimit="10" x1="8" y1="56" x2="10" y2="56"/>
				<line fill="none" stroke="#DA4843" stroke-width="2" stroke-miterlimit="10" x1="12" y1="56" x2="34" y2="56"/>
				<line fill="none" stroke="#34303D" stroke-width="2" stroke-miterlimit="10" x1="36" y1="56" x2="38" y2="56"/>
				<line fill="none" stroke="#34303D" stroke-width="2" stroke-miterlimit="10" x1="40" y1="56" x2="42" y2="56"/>
			</g>
		</g>
		<path fill="none" stroke="#34303D" stroke-width="2" stroke-miterlimit="10" d="M29,31v3c0,0.512-0.195,1.023-0.586,1.414
			S27.512,36,27,36H11c-0.512,0-1.023,0.195-1.414,0.586S9,37.488,9,38s0.195,1.023,0.586,1.414S10.488,40,11,40h10
			c0.512,0,1.023,0.195,1.414,0.586S23,41.488,23,42v2"/>
	</g>
	<g>
		<line fill="none" stroke="#34303D" stroke-width="2" stroke-miterlimit="10" x1="12" y1="20" x2="14" y2="20"/>
		<line fill="none" stroke="#34303D" stroke-width="2" stroke-miterlimit="10" x1="16" y1="20" x2="18" y2="20"/>
		<line fill="none" stroke="#34303D" stroke-width="2" stroke-miterlimit="10" x1="20" y1="20" x2="22" y2="20"/>
		<path fill="none" stroke="#34303D" stroke-width="2" stroke-miterlimit="10" d="M12,26h-1c-0.512,0-1.023-0.195-1.414-0.586
			S9,24.512,9,24v-8c0-0.512,0.195-1.023,0.586-1.414S10.488,14,11,14h1"/>
		<path fill="none" stroke="#34303D" stroke-width="2" stroke-miterlimit="10" d="M22,26h1c0.512,0,1.023-0.195,1.414-0.586
			S25,24.512,25,24v-8c0-0.512-0.195-1.023-0.586-1.414S23.512,14,23,14h-1"/>
	</g>
</g>
</svg>
