<svg version="1.1" xmlns="http://www.w3.org/2000/svg" xmlns:xlink="http://www.w3.org/1999/xlink" width="12" height="14" viewBox="0 0 12 14">
<path d="M8.984 8.391v0.852q0 0.391-0.285 0.695t-0.734 0.473-0.922 0.254-0.918 0.086q-1.602 0-2.676-1.086t-1.074-2.703q0-1.586 1.062-2.648t2.648-1.062q0.266 0 0.59 0.035t0.727 0.141 0.723 0.266 0.539 0.441 0.219 0.633v0.852q0 0.125-0.125 0.125h-0.922q-0.125 0-0.125-0.125v-0.547q0-0.336-0.512-0.527t-1.074-0.191q-1.094 0-1.785 0.715t-0.691 1.855q0 1.18 0.715 1.949t1.824 0.77q0.531 0 1.078-0.187t0.547-0.516v-0.547q0-0.055 0.035-0.090t0.082-0.035h0.93q0.047 0 0.086 0.035t0.039 0.090zM6 2q-1.016 0-1.941 0.398t-1.594 1.066-1.066 1.594-0.398 1.941 0.398 1.941 1.066 1.594 1.594 1.066 1.941 0.398 1.941-0.398 1.594-1.066 1.066-1.594 0.398-1.941-0.398-1.941-1.066-1.594-1.594-1.066-1.941-0.398zM12 7q0 1.633-0.805 3.012t-2.184 2.184-3.012 0.805-3.012-0.805-2.184-2.184-0.805-3.012 0.805-3.012 2.184-2.184 3.012-0.805 3.012 0.805 2.184 2.184 0.805 3.012z"></path>
</svg>
