<?xml version="1.0" encoding="utf-8"?>
<!-- Generator: Adobe Illustrator 16.0.0, SVG Export Plug-In . SVG Version: 6.00 Build 0)  -->
<!DOCTYPE svg PUBLIC "-//W3C//DTD SVG 1.1//EN" "http://www.w3.org/Graphics/SVG/1.1/DTD/svg11.dtd">
<svg version="1.1" id="Layer_1" xmlns="http://www.w3.org/2000/svg" xmlns:xlink="http://www.w3.org/1999/xlink" x="0px" y="0px"
	 width="64px" height="64px" viewBox="0 0 64 64" enable-background="new 0 0 64 64" xml:space="preserve">
<g>
	<g>
		<rect x="1" y="52" fill="#FFDE8A" width="52" height="4"/>
		<rect x="1" y="56" fill="#FFC252" width="52" height="4"/>
		<g>
			<rect x="1" y="52" fill="none" stroke="#34303D" stroke-width="2" stroke-miterlimit="10" width="52" height="8"/>
		</g>
		<g>
			<line fill="none" stroke="#34303D" stroke-width="2" stroke-miterlimit="10" x1="1" y1="52" x2="1" y2="54"/>
			<line fill="none" stroke="#34303D" stroke-width="2" stroke-miterlimit="10" x1="5" y1="52" x2="5" y2="55"/>
			<line fill="none" stroke="#34303D" stroke-width="2" stroke-miterlimit="10" x1="9" y1="52" x2="9" y2="55"/>
			<line fill="none" stroke="#34303D" stroke-width="2" stroke-miterlimit="10" x1="13" y1="52" x2="13" y2="55"/>
			<line fill="none" stroke="#34303D" stroke-width="2" stroke-miterlimit="10" x1="17" y1="52" x2="17" y2="55"/>
			<line fill="none" stroke="#34303D" stroke-width="2" stroke-miterlimit="10" x1="21" y1="52" x2="21" y2="55"/>
			<line fill="none" stroke="#34303D" stroke-width="2" stroke-miterlimit="10" x1="25" y1="52" x2="25" y2="55"/>
			<line fill="none" stroke="#34303D" stroke-width="2" stroke-miterlimit="10" x1="29" y1="52" x2="29" y2="55"/>
			<line fill="none" stroke="#34303D" stroke-width="2" stroke-miterlimit="10" x1="33" y1="52" x2="33" y2="55"/>
			<line fill="none" stroke="#34303D" stroke-width="2" stroke-miterlimit="10" x1="37" y1="52" x2="37" y2="55"/>
			<line fill="none" stroke="#34303D" stroke-width="2" stroke-miterlimit="10" x1="41" y1="52" x2="41" y2="55"/>
			<line fill="none" stroke="#34303D" stroke-width="2" stroke-miterlimit="10" x1="45" y1="52" x2="45" y2="55"/>
			<line fill="none" stroke="#34303D" stroke-width="2" stroke-miterlimit="10" x1="49" y1="55" x2="49" y2="57"/>
		</g>
	</g>
	<g>
		<rect x="57" y="11" fill="#FF5F5C" width="6" height="45"/>
		<path fill="none" stroke="#34303D" stroke-width="2" stroke-linejoin="round" stroke-miterlimit="10" d="M63,11l-3-6l-3,6v47
			c0,0.512,0.195,1.023,0.586,1.414S58.488,60,59,60h2c0.512,0,1.023-0.195,1.414-0.586S63,58.512,63,58V11z"/>
		
			<line fill="none" stroke="#34303D" stroke-width="2" stroke-linejoin="round" stroke-miterlimit="10" x1="57" y1="56" x2="63" y2="56"/>
		
			<line fill="none" stroke="#34303D" stroke-width="2" stroke-linejoin="round" stroke-miterlimit="10" x1="57" y1="11" x2="63" y2="11"/>
	</g>
	<g>
		<polygon fill="#57DCF2" points="47,11 47,8 4,8 4,44 50,44 50,11 		"/>
		<g>
			<polygon fill="none" stroke="#34303D" stroke-width="2" stroke-miterlimit="10" points="53,11 53,47 1,47 1,5 47,5 			"/>
			<polyline fill="none" stroke="#34303D" stroke-width="2" stroke-miterlimit="10" points="53,11 47,11 47,5 			"/>
		</g>
		<g>
			<rect x="7" y="15" fill="none" stroke="#34303D" stroke-width="2" stroke-miterlimit="10" width="38" height="26"/>
			<line fill="none" stroke="#34303D" stroke-width="2" stroke-miterlimit="10" x1="45" y1="15" x2="48" y2="15"/>
			<line fill="none" stroke="#34303D" stroke-width="2" stroke-miterlimit="10" x1="45" y1="22" x2="48" y2="22"/>
			<line fill="none" stroke="#34303D" stroke-width="2" stroke-miterlimit="10" x1="45" y1="32" x2="48" y2="32"/>
			<g>
				<rect x="12" y="20" fill="none" stroke="#34303D" stroke-width="2" stroke-miterlimit="10" width="4" height="4"/>
				<rect x="20" y="20" fill="none" stroke="#34303D" stroke-width="2" stroke-miterlimit="10" width="4" height="4"/>
				<rect x="28" y="20" fill="none" stroke="#34303D" stroke-width="2" stroke-miterlimit="10" width="4" height="4"/>
				<rect x="36" y="20" fill="none" stroke="#34303D" stroke-width="2" stroke-miterlimit="10" width="4" height="4"/>
			</g>
			<rect x="12" y="28" fill="none" stroke="#34303D" stroke-width="2" stroke-miterlimit="10" width="20" height="8"/>
			<g>
				<line fill="none" stroke="#34303D" stroke-width="2" stroke-miterlimit="10" x1="11" y1="11" x2="17" y2="11"/>
				<line fill="none" stroke="#34303D" stroke-width="2" stroke-miterlimit="10" x1="19" y1="11" x2="25" y2="11"/>
				<line fill="none" stroke="#34303D" stroke-width="2" stroke-miterlimit="10" x1="27" y1="11" x2="33" y2="11"/>
				<line fill="none" stroke="#34303D" stroke-width="2" stroke-miterlimit="10" x1="35" y1="11" x2="41" y2="11"/>
			</g>
			<g>
				<line fill="none" stroke="#34303D" stroke-width="2" stroke-miterlimit="10" x1="35" y1="28" x2="41" y2="28"/>
				<line fill="none" stroke="#34303D" stroke-width="2" stroke-miterlimit="10" x1="35" y1="32" x2="41" y2="32"/>
				<line fill="none" stroke="#34303D" stroke-width="2" stroke-miterlimit="10" x1="35" y1="36" x2="38" y2="36"/>
			</g>
			<g>
				<line fill="none" stroke="#34303D" stroke-width="2" stroke-miterlimit="10" x1="17" y1="32" x2="19" y2="32"/>
				<line fill="none" stroke="#34303D" stroke-width="2" stroke-miterlimit="10" x1="21" y1="32" x2="23" y2="32"/>
				<line fill="none" stroke="#34303D" stroke-width="2" stroke-miterlimit="10" x1="25" y1="32" x2="27" y2="32"/>
			</g>
		</g>
	</g>
</g>
</svg>
