<svg viewBox="0 0 479 389" xmlns="http://www.w3.org/2000/svg"><g fill="none" fill-rule="evenodd"><circle cx="135.18" cy="107.54" fill="#f1f6f8" r="107.54"/><rect fill="#ecf3f6" height="185.56" rx="3.56" width="187.92" x="158.3" y="112.2"/><path d="m284.2 112.12h62.13v62.13h-62.13z" fill="#baccd3" opacity=".2"/><path d="m158.48 112.12h62.13v62.13h-62.13z" fill="#baccd3" opacity=".2"/><path d="m221.24 173.88h62.13v62.13h-62.13z" fill="#baccd3" opacity=".2"/><path d="m158.19 236.92h62.13v62.13h-62.13z" fill="#baccd3" opacity=".2"/><path d="m343.85 234h56.8c15.53577 0 28.13 12.59423 28.13 28.13v8.1h-84.93z" fill="#f1f6f8"/><path d="m380 253.51h68.23c9.223155 0 16.7 7.476845 16.7 16.7h-84.93z" fill="#f1f6f8"/><path d="m332.86 92.08h-135.41" stroke="#ff8288"/><path d="m336.35 92.08-4.63-2.67v5.34z" fill="#ff8288"/><path d="m194.29 92.08 4.63 2.67v-5.34z" fill="#ff8288"/><path d="m342.67 112.2h-180.81c-1.966134 0-3.56 1.593866-3.56 3.56v14.12c0-1.966134 1.593866-3.56 3.56-3.56h180.81c1.963854.005493 3.554507 1.596146 3.56 3.56v-14.12c0-1.966134-1.593866-3.56-3.56-3.56z" fill="#baccd3" opacity=".3"/><rect height="185.56" rx="3.56" stroke="#aac6ca" stroke-width="1.26" width="187.92" x="158.3" y="112.2"/><path d="m283.41 112.61v185.22" fill="#ecf3f6" stroke="#aac6ca" stroke-width="1.26"/><path d="m220.98 112.61v185.22" fill="#ecf3f6" stroke="#aac6ca" stroke-width="1.26"/><path d="m158.04 174.46h188.29" fill="#ecf3f6" stroke="#aac6ca" stroke-width="1.26"/><path d="m159.2 236.89h186.13" fill="#ecf3f6" stroke="#aac6ca" stroke-width="1.26"/><path d="m218.62 172.1h4.72v4.72h-4.72z" fill="#baccd3"/><path d="m281.05 172.1h4.72v4.72h-4.72z" fill="#baccd3"/><path d="m218.62 234.84h4.72v4.72h-4.72z" fill="#baccd3"/><path d="m281.05 234.84h4.72v4.72h-4.72z" fill="#baccd3"/><path d="m464.6 165.22c3.874067.027476 7.000097 3.175835 7 7.05" stroke="#ff8288" stroke-width="1.26"/><path d="m479 165.22c-3.893607 0-7.05 3.156393-7.05 7.05" stroke="#ff8288" stroke-width="1.26"/><path d="m443.46 186.37c1.856515 0 3.636993.737498 4.949747 2.050253 1.312755 1.312754 2.050253 3.093232 2.050253 4.949747" stroke="#ff8288" stroke-width="1.26"/><path d="m457.85 186.37c-1.865163-.013323-3.658513.718289-4.982101 2.032491-1.323589 1.314201-2.067947 3.102298-2.067899 4.967509" stroke="#ff8288" stroke-width="1.26"/><path d="m274.83 331.63h103.48" fill="#fff" stroke="#aac6ca"/><path d="m314.23 225.62-36.23 71.53h10.34l25.99-55.49z" fill="#baccd3" opacity=".3"/><path d="m378 316.29-63.67-90.67v90.67z" fill="#fff" stroke="#aac6ca" stroke-width="1.26"/><path d="m274.83 316.29h107.72" fill="#ecf3f6" stroke="#aac6ca" stroke-width="1.26"/><path d="m274.83 326.15h106.34l-8.31 15c-4.810367 6.368033-12.329307 10.110843-20.31 10.11h-65.55c-3.23207.000001-6.331617-1.284618-8.616098-3.570974-2.284481-2.286357-3.566556-5.386957-3.563902-8.619026z" fill="#ecf3f6" stroke="#aac6ca" stroke-width="1.26"/><path d="m279.31 316.29 35.02-74.63v74.63z" fill="#fff" stroke="#aac6ca" stroke-width="1.26"/><path d="m209.52 339c20.83 0 20.83 7.53 41.66 7.53s20.82-7.53 41.66-7.53 20.83 7.53 41.66 7.53 20.84-7.53 41.67-7.53 20.83 7.53 41.66 7.53 20.84-7.53 41.67-7.53v49.43h-249.5z" fill="#fff"/><path d="m459.5 339c-20.83 0-20.83 7.53-41.67 7.53s-20.83-7.53-41.66-7.53-20.83 7.53-41.67 7.53-20.83-7.53-41.66-7.53-20.83 7.53-41.66 7.53" stroke="#ff8288"/><g stroke="#aac6ca" stroke-width="1.26"><path d="m204.11 344.6 16.35 2.25-2.26-16.34-89.71-89.72-14.09 14.09z" fill="#ecf3f6"/><path d="m217.64 330.72 2.13 15.45-15.45-2.13 7.33-6z" fill="#ecf3f6"/><path d="m204.11 344.6 16.35 2.25-2.26-16.34-89.71-89.72-14.09 14.09z" fill="#ecf3f6"/><path d="m109 249.43 8.51 8.52c1.34 1.34 5.58-.73 9.47-4.62s6-8.13 4.62-9.47l-8.6-8.52z" fill="#fff"/><g fill="#ecf3f6"><ellipse cx="115.133776" cy="241.531226" rx="9.96" ry="3.43" transform="matrix(.70710678 -.70710678 .70710678 .70710678 -137.066466 152.154732)"/><path d="m203.05 343.53c1.34 1.34 5.58-.73 9.47-4.62s6-8.13 4.62-9.47"/><path d="m373.03 309.22h-90.4l-3.32 7.07h98.69z"/><path d="m314.33 326.83v-110.57"/></g></g><path d="m244.71 346.85h-24.26" stroke="#ff8288"/><circle cx="326.57" cy="296.05" r="6.67" stroke="#ff8288"/><path d="m370.56 382.11c.219889.221206.472929.406769.75.55-.274519.143237-.527088.325087-.75.54-.916911.918847-1.138859 2.323172-.55 3.48l3.9-3.9 2.22 1.65c4.20118 3.118575 9.94882 3.118575 14.15 0l2.38-1.77-2.38-1.77c-4.20118-3.118575-9.94882-3.118575-14.15 0l-2.22 1.65-3.9-3.91c-.588859 1.156828-.366911 2.561153.55 3.48z" fill="#baccd3" opacity=".3"/><path d="m148.93 378c.217568.216822.467143.398944.74.54-1.451923.755477-2.03036 2.535281-1.3 4l3.91-3.9 2.22 1.65c4.20118 3.118575 9.94882 3.118575 14.15 0l2.38-1.77-2.38-1.77c-4.20118-3.118575-9.94882-3.118575-14.15 0l-2.22 1.65-3.91-3.91c-.601136 1.166548-.374285 2.58842.56 3.51z" fill="#baccd3" opacity=".3"/><path d="m344.73 367.27c.21458.222965.464636.408818.74.55-.277128.134043-.527808.316971-.74.54-.920287.916481-1.146314 2.321077-.56 3.48l3.91-3.9 2.22 1.65c4.204409 3.108793 9.945591 3.108793 14.15 0l2.38-1.77-2.38-1.77c-4.20118-3.118575-9.94882-3.118575-14.15 0l-2.22 1.64-3.91-3.9c-.586314 1.158923-.360287 2.563519.56 3.48z" fill="#baccd3" opacity=".3"/><path d="m113.2 253.69c1.34 1.34 5.58-.73 9.47-4.62s6-8.13 4.62-9.47" stroke="#ff8288"/><path d="m158.3 154.03h32.24v-27.62h-32.41z" fill="#baccd3" opacity=".3"/><path d="m134.2 70.94-25.25 25.24v45.85h71.09v-71.09z" fill="#fff" stroke="#aac6ca" stroke-width="1.26"/><path d="m.14 65.41c2.36960536-15.6617544 14.3629593-28.1241506 29.9223349-31.092553 15.5593756-2.9684023 31.2984885 4.2032212 39.2676651 17.892553 5.6322113-2.8671772 12.2562019-3.0453158 18.0343746-.4849976 5.7781726 2.5603182 10.095991 7.5867911 11.7556254 13.6849976z" fill="#fff"/><path d="m145.49 127.44c11.294223 0 20.45-9.155777 20.45-20.45 0-11.2942231-9.155777-20.45-20.45-20.45s-20.45 9.1557769-20.45 20.45c0 11.294223 9.155777 20.45 20.45 20.45z" stroke="#ff8288" stroke-dasharray="3.06" stroke-linecap="round"/><path d="m109.37 96.68h25.52v3.11h-25.52z" fill="#baccd3" opacity=".3"/><path d="m108.95 96.87h25.51v-25.25" fill="#ecf3f6"/><g stroke="#fff"><path d="m119.08 86.52v9.66"/><path d="m124.69 80.9v15.28"/><path d="m130.3 75.08v21.1"/><path d="m134.46 80.9h-9.77"/><path d="m134.46 86.52h-15.38"/><path d="m134.89 92.13h-21.89"/></g><path d="m108.95 96.18h25.51v-25.24" stroke="#aac6ca" stroke-width="1.26"/><path d="m134.2 70.94-25.25 25.24v45.85h71.09v-71.09z" stroke="#aac6ca"/><path d="m356.93 270.21h44.52l-10.05-85.56h-25.57z" fill="#f1f6f8"/><path d="m395.23 172.3-16.89-18.57-16.89 18.57z" fill="#f1f6f8"/><path d="m365.83 172.3h25.52v12.34h-25.52z" fill="#f1f6f8"/><circle cx="378.34" cy="179.25" fill="#fff" r="4.79"/></g></svg>