<?xml version="1.0" encoding="UTF-8"?>
<svg width="58px" height="50px" viewBox="0 0 58 50" version="1.1" xmlns="http://www.w3.org/2000/svg" xmlns:xlink="http://www.w3.org/1999/xlink">
    <!-- Generator: Sketch 47.1 (45422) - http://www.bohemiancoding.com/sketch -->
    <title>Education - Flat017 - Mathmatics</title>
    <desc>Created with Sketch.</desc>
    <defs></defs>
    <g id="Page-1" stroke="none" stroke-width="1" fill="none" fill-rule="evenodd">
        <g id="Education---Flat017---Mathmatics" fill-rule="nonzero">
            <path d="M4,0 L54,0 C55.1045695,0 56,0.8954305 56,2 L56,48 L2,48 L2,2 C2,0.8954305 2.8954305,0 4,0 Z" id="Shape" fill="#35495E"></path>
            <rect id="Rectangle-path" fill="#AF8066" x="0" y="46" width="58" height="4" rx="2"></rect>
            <path d="M6,5 C5.73528015,4.99608525 5.48176204,4.89253559 5.29,4.71 C5.20172189,4.61272878 5.1307013,4.50109794 5.08,4.37992 C5.0287576,4.2597262 5.00157828,4.13065161 5,4 C4.99084221,3.5928049 5.23929651,3.22403785 5.62012,3.07959 C5.98987379,2.92787795 6.41443367,3.0105863 6.7002,3.29 C6.88928164,3.47825669 6.99693172,3.73319852 7,4 C6.99468254,4.26632764 6.88737353,4.52046172 6.7002,4.71 C6.51315868,4.89369018 6.26214694,4.99765105 6,5 L6,5 Z" id="Shape" fill="#2C3E50"></path>
            <path d="M9,7 C8.59565302,6.99840493 8.23171874,6.75441526 8.07666479,6.38097544 C7.92161083,6.00753562 8.00569729,5.57752565 8.29,5.29 C8.52852594,5.05989293 8.86358729,4.95930859 9.18941,5.02 C9.25573948,5.02920996 9.32008634,5.04933883 9.37984,5.07957 C9.44349093,5.10154619 9.50392179,5.13192473 9.55953,5.1699 C9.60933,5.2099 9.66012,5.24998 9.70992,5.29002 C10.0966401,5.68433326 10.0966401,6.31562674 9.70992,6.70994 C9.66233859,6.75291952 9.61211013,6.79287451 9.55953,6.82957 C9.50392179,6.86754527 9.44349093,6.89792381 9.37984,6.9199 C9.32002357,6.95007317 9.25571375,6.97035594 9.18941,6.97996 C9.12687628,6.99145707 9.0635551,6.99815659 9,7 Z" id="Shape" fill="#2C3E50"></path>
            <path d="M6,9 C5.73528015,8.99608525 5.48176204,8.89253559 5.29,8.71 C5.20172189,8.61272878 5.1307013,8.50109794 5.08,8.37992 C5.0287576,8.2597262 5.00157828,8.13065161 5,8 C4.99084221,7.5928049 5.23929651,7.22403785 5.62012,7.07959 C5.98987379,6.92787795 6.41443367,7.0105863 6.7002,7.29 C6.88928164,7.47825669 6.99693172,7.73319852 7,8 C6.99468254,8.26632764 6.88737353,8.52046172 6.7002,8.71 C6.51315868,8.89369018 6.26214694,8.99765105 6,9 L6,9 Z" id="Shape" fill="#2C3E50"></path>
            <path d="M9,11 C8.73399928,11.0025856 8.47814031,10.8980593 8.29004051,10.7099595 C8.10194072,10.5218597 7.99741438,10.2660007 8,10 C8.0016439,9.93628044 8.00817305,9.87278085 8.01953,9.81006 C8.02922733,9.74371387 8.04967906,9.67939311 8.08008,9.61963 C8.1017732,9.55595048 8.13199478,9.49550396 8.16992,9.43994 C8.2068132,9.3875292 8.24691661,9.33745336 8.29,9.29 C8.52852594,9.05989293 8.86358729,8.95930859 9.18941,9.02 C9.25573948,9.02920996 9.32008634,9.04933883 9.37984,9.07957 C9.44349093,9.10154619 9.50392179,9.13192473 9.55953,9.1699 C9.60933,9.2099 9.66012,9.24998 9.70992,9.29002 C9.74992,9.33982 9.79,9.38963 9.83004,9.43992 C9.86758616,9.49570587 9.89778182,9.55610056 9.91988,9.61961 C9.95039565,9.67924775 9.97053987,9.74364365 9.97945,9.81004 C9.99162429,9.87267026 9.99849861,9.93621513 10,10 C9.99599307,10.264701 9.89245661,10.5181869 9.71,10.71 C9.6602,10.75 9.60941,10.79008 9.55961,10.82963 C9.50400179,10.8676053 9.44357093,10.8979838 9.37992,10.91996 C9.32010357,10.9501332 9.25579375,10.9704159 9.18949,10.98002 C9.12692839,10.991501 9.06358033,10.9981805 9,11 L9,11 Z" id="Shape" fill="#2C3E50"></path>
            <path d="M6,13 C5.73528015,12.9960852 5.48176204,12.8925356 5.29,12.71 C5.20172189,12.6127288 5.1307013,12.5010979 5.08,12.37992 C5.0287576,12.2597262 5.00157828,12.1306516 5,12 C4.99084221,11.5928049 5.23929651,11.2240378 5.62012,11.07959 C5.98987379,10.9278779 6.41443367,11.0105863 6.7002,11.29 C6.88928164,11.4782567 6.99693172,11.7331985 7,12 C6.99468254,12.2663276 6.88737353,12.5204617 6.7002,12.71 C6.51315868,12.8936902 6.26214694,12.9976511 6,13 Z" id="Shape" fill="#2C3E50"></path>
            <path d="M9,15 C8.73486986,14.998116 8.48063329,14.8942729 8.29,14.71 C7.90327992,14.3156867 7.90327992,13.6843933 8.29,13.29008 C8.52595546,13.0556182 8.86333436,12.9543381 9.18941,13.02008 C9.25573948,13.02929 9.32008634,13.0494188 9.37984,13.07965 C9.44349093,13.1016262 9.50392179,13.1320047 9.55953,13.16998 C9.61213732,13.2068138 9.66239189,13.2468986 9.71,13.29 C10.0967201,13.6843133 10.0967201,14.3156067 9.71,14.70992 C9.6602,14.74992 9.60941,14.79 9.55961,14.82955 C9.50400179,14.8675253 9.44357093,14.8979038 9.37992,14.91988 C9.32010357,14.9500532 9.25579375,14.9703359 9.18949,14.97994 C9.12693046,14.9914478 9.06358238,14.9981541 9,15 L9,15 Z" id="Shape" fill="#2C3E50"></path>
            <path d="M6,17 C5.73528015,16.9960852 5.48176204,16.8925356 5.29,16.71 C5.20172189,16.6127288 5.1307013,16.5010979 5.08,16.37992 C5.0287576,16.2597262 5.00157828,16.1306516 5,16 C4.99084221,15.5928049 5.23929651,15.2240378 5.62012,15.07959 C5.98987379,14.9278779 6.41443367,15.0105863 6.7002,15.29 C6.88928164,15.4782567 6.99693172,15.7331985 7,16 C6.99468254,16.2663276 6.88737353,16.5204617 6.7002,16.71 C6.51315868,16.8936902 6.26214694,16.9976511 6,17 Z" id="Shape" fill="#2C3E50"></path>
            <path d="M9,19 C8.59565302,18.9984049 8.23171874,18.7544153 8.07666479,18.3809754 C7.92161083,18.0075356 8.00569729,17.5775256 8.29,17.29 C8.52852594,17.0598929 8.86358729,16.9593086 9.18941,17.02 C9.25573948,17.02921 9.32008634,17.0493388 9.37984,17.07957 C9.44349093,17.1015462 9.50392179,17.1319247 9.55953,17.1699 C9.60933,17.2099 9.66012,17.24998 9.70992,17.29002 C10.0966401,17.6843333 10.0966401,18.3156267 9.70992,18.70994 C9.66233859,18.7529195 9.61211013,18.7928745 9.55953,18.82957 C9.50392179,18.8675453 9.44349093,18.8979238 9.37984,18.9199 C9.32002357,18.9500732 9.25571375,18.9703559 9.18941,18.97996 C9.12687628,18.9914571 9.0635551,18.9981566 9,19 Z" id="Shape" fill="#2C3E50"></path>
            <path d="M6,21 C5.73528015,20.9960852 5.48176204,20.8925356 5.29,20.71 C5.20172189,20.6127288 5.1307013,20.5010979 5.08,20.37992 C5.0287576,20.2597262 5.00157828,20.1306516 5,20 C4.99084221,19.5928049 5.23929651,19.2240378 5.62012,19.07959 C5.98987379,18.9278779 6.41443367,19.0105863 6.7002,19.29 C6.88928164,19.4782567 6.99693172,19.7331985 7,20 C6.99468254,20.2663276 6.88737353,20.5204617 6.7002,20.71 C6.51315868,20.8936902 6.26214694,20.9976511 6,21 L6,21 Z" id="Shape" fill="#2C3E50"></path>
            <path d="M9,23 C8.73399928,23.0025856 8.47814031,22.8980593 8.29004051,22.7099595 C8.10194072,22.5218597 7.99741438,22.2660007 8,22 C8.0016439,21.9362804 8.00817305,21.8727808 8.01953,21.81006 C8.02922733,21.7437139 8.04967906,21.6793931 8.08008,21.61963 C8.1017732,21.5559505 8.13199478,21.495504 8.16992,21.43994 C8.2068132,21.3875292 8.24691661,21.3374534 8.29,21.29 C8.52852594,21.0598929 8.86358729,20.9593086 9.18941,21.02 C9.25573948,21.02921 9.32008634,21.0493388 9.37984,21.07957 C9.44349093,21.1015462 9.50392179,21.1319247 9.55953,21.1699 C9.60933,21.2099 9.66012,21.24998 9.70992,21.29002 C9.74992,21.33982 9.79,21.38963 9.83004,21.43992 C9.86758616,21.4957059 9.89778182,21.5561006 9.91988,21.61961 C9.95039565,21.6792477 9.97053987,21.7436436 9.97945,21.81004 C9.99162429,21.8726703 9.99849861,21.9362151 10,22 C9.99599307,22.264701 9.89245661,22.5181869 9.71,22.71 C9.6602,22.75 9.60941,22.79008 9.55961,22.82963 C9.50400179,22.8676053 9.44357093,22.8979838 9.37992,22.91996 C9.32010357,22.9501332 9.25579375,22.9704159 9.18949,22.98002 C9.12692839,22.991501 9.06358033,22.9981805 9,23 L9,23 Z" id="Shape" fill="#2C3E50"></path>
            <path d="M6,25 C5.73528015,24.9960852 5.48176204,24.8925356 5.29,24.71 C5.20172189,24.6127288 5.1307013,24.5010979 5.08,24.37992 C5.0287576,24.2597262 5.00157828,24.1306516 5,24 C4.99084221,23.5928049 5.23929651,23.2240378 5.62012,23.07959 C5.98987379,22.9278779 6.41443367,23.0105863 6.7002,23.29 C6.88928164,23.4782567 6.99693172,23.7331985 7,24 C6.99468254,24.2663276 6.88737353,24.5204617 6.7002,24.71 C6.51315868,24.8936902 6.26214694,24.9976511 6,25 Z" id="Shape" fill="#2C3E50"></path>
            <path d="M9,27 C8.73486986,26.998116 8.48063329,26.8942729 8.29,26.71 C7.90327992,26.3156867 7.90327992,25.6843933 8.29,25.29008 C8.52595546,25.0556182 8.86333436,24.9543381 9.18941,25.02008 C9.25573948,25.02929 9.32008634,25.0494188 9.37984,25.07965 C9.44349093,25.1016262 9.50392179,25.1320047 9.55953,25.16998 C9.61213732,25.2068138 9.66239189,25.2468986 9.71,25.29 C9.79826759,25.3870958 9.86929018,25.4985641 9.92,25.61959 C9.97129341,25.7399396 9.99847352,25.8691845 10,26 C9.99599307,26.264701 9.89245661,26.5181869 9.71,26.71 C9.6602,26.75 9.60941,26.79008 9.55961,26.82963 C9.50400179,26.8676053 9.44357093,26.8979838 9.37992,26.91996 C9.32010357,26.9501332 9.25579375,26.9704159 9.18949,26.98002 C9.12692839,26.991501 9.06358033,26.9981805 9,27 Z" id="Shape" fill="#2C3E50"></path>
            <path d="M6,29 C5.73528015,28.9960852 5.48176204,28.8925356 5.29,28.71 C5.04748101,28.4760829 4.94114251,28.134555 5.00800313,27.8043092 C5.07486375,27.4740634 5.30567246,27.2007933 5.62008,27.07963 C5.98983717,26.92789 6.41441721,27.0105835 6.7002,27.29 C6.88928164,27.4782567 6.99693172,27.7331985 7,28 C6.99799918,28.0669782 6.99114454,28.1337232 6.97949,28.19971 C6.96900086,28.262472 6.94890871,28.3232442 6.91992,28.37989 C6.89792998,28.4435987 6.86772886,28.504169 6.83008,28.56007 C6.7894874,28.6123143 6.74613227,28.6623523 6.7002,28.70997 C6.51316347,28.8936712 6.26215115,28.997643 6,29 Z" id="Shape" fill="#2C3E50"></path>
            <path d="M9,31 C8.59565302,30.9984049 8.23171874,30.7544153 8.07666479,30.3809754 C7.92161083,30.0075356 8.00569729,29.5775256 8.29,29.29 C8.52852594,29.0598929 8.86358729,28.9593086 9.18941,29.02 C9.25573948,29.02921 9.32008634,29.0493388 9.37984,29.07957 C9.44349093,29.1015462 9.50392179,29.1319247 9.55953,29.1699 C9.60933,29.2099 9.66012,29.24998 9.70992,29.29002 C10.0966401,29.6843333 10.0966401,30.3156267 9.70992,30.70994 C9.66233859,30.7529195 9.61211013,30.7928745 9.55953,30.82957 C9.50392179,30.8675453 9.44349093,30.8979238 9.37984,30.9199 C9.32002357,30.9500732 9.25571375,30.9703559 9.18941,30.97996 C9.12687628,30.9914571 9.0635551,30.9981566 9,31 Z" id="Shape" fill="#2C3E50"></path>
            <path d="M6,33 C5.73528015,32.9960852 5.48176204,32.8925356 5.29,32.71 C5.04748101,32.4760829 4.94114251,32.134555 5.00800313,31.8043092 C5.07486375,31.4740634 5.30567246,31.2007933 5.62008,31.07963 C5.98983717,30.92789 6.41441721,31.0105835 6.7002,31.29 C6.88928164,31.4782567 6.99693172,31.7331985 7,32 C6.99799918,32.0669782 6.99114454,32.1337232 6.97949,32.19971 C6.96900086,32.262472 6.94890871,32.3232442 6.91992,32.37989 C6.89792998,32.4435987 6.86772886,32.504169 6.83008,32.56007 C6.7894874,32.6123143 6.74613227,32.6623523 6.7002,32.70997 C6.51316347,32.8936712 6.26215115,32.997643 6,33 Z" id="Shape" fill="#2C3E50"></path>
            <path d="M9,35 C8.73399928,35.0025856 8.47814031,34.8980593 8.29004051,34.7099595 C8.10194072,34.5218597 7.99741438,34.2660007 8,34 C8.0016439,33.9362804 8.00817305,33.8727808 8.01953,33.81006 C8.02922733,33.7437139 8.04967906,33.6793931 8.08008,33.61963 C8.1017732,33.5559505 8.13199478,33.495504 8.16992,33.43994 C8.2068132,33.3875292 8.24691661,33.3374534 8.29,33.29 C8.52852594,33.0598929 8.86358729,32.9593086 9.18941,33.02 C9.25573948,33.02921 9.32008634,33.0493388 9.37984,33.07957 C9.44349093,33.1015462 9.50392179,33.1319247 9.55953,33.1699 C9.60933,33.2099 9.66012,33.24998 9.70992,33.29002 C9.74992,33.33982 9.79,33.38963 9.83004,33.43992 C9.86758616,33.4957059 9.89778182,33.5561006 9.91988,33.61961 C9.95039565,33.6792477 9.97053987,33.7436436 9.97945,33.81004 C9.99162429,33.8726703 9.99849861,33.9362151 10,34 C9.99599307,34.264701 9.89245661,34.5181869 9.71,34.71 C9.6602,34.75 9.60941,34.79008 9.55961,34.82963 C9.50400179,34.8676053 9.44357093,34.8979838 9.37992,34.91996 C9.32010357,34.9501332 9.25579375,34.9704159 9.18949,34.98002 C9.12692839,34.991501 9.06358033,34.9981805 9,35 Z" id="Shape" fill="#2C3E50"></path>
            <path d="M6,37 C5.73528015,36.9960852 5.48176204,36.8925356 5.29,36.71 C5.04748101,36.4760829 4.94114251,36.134555 5.00800313,35.8043092 C5.07486375,35.4740634 5.30567246,35.2007933 5.62008,35.07963 C5.98983717,34.92789 6.41441721,35.0105835 6.7002,35.29 C6.88928164,35.4782567 6.99693172,35.7331985 7,36 C6.99799918,36.0669782 6.99114454,36.1337232 6.97949,36.19971 C6.96900086,36.262472 6.94890871,36.3232442 6.91992,36.37989 C6.89792998,36.4435987 6.86772886,36.504169 6.83008,36.56007 C6.7894874,36.6123143 6.74613227,36.6623523 6.7002,36.70997 C6.51316347,36.8936712 6.26215115,36.997643 6,37 Z" id="Shape" fill="#2C3E50"></path>
            <path d="M9,39 C8.73486986,38.998116 8.48063329,38.8942729 8.29,38.71 C7.90327992,38.3156867 7.90327992,37.6843933 8.29,37.29008 C8.52595546,37.0556182 8.86333436,36.9543381 9.18941,37.02008 C9.25573948,37.02929 9.32008634,37.0494188 9.37984,37.07965 C9.44349093,37.1016262 9.50392179,37.1320047 9.55953,37.16998 C9.61213732,37.2068138 9.66239189,37.2468986 9.71,37.29 C9.79826759,37.3870958 9.86929018,37.4985641 9.92,37.61959 C9.97129341,37.7399396 9.99847352,37.8691845 10,38 C9.99599307,38.264701 9.89245661,38.5181869 9.71,38.71 C9.6602,38.75 9.60941,38.79008 9.55961,38.82963 C9.50400179,38.8676053 9.44357093,38.8979838 9.37992,38.91996 C9.32010357,38.9501332 9.25579375,38.9704159 9.18949,38.98002 C9.12692839,38.991501 9.06358033,38.9981805 9,39 Z" id="Shape" fill="#2C3E50"></path>
            <path d="M6,41 C5.73528015,40.9960852 5.48176204,40.8925356 5.29,40.71 C5.04748101,40.4760829 4.94114251,40.134555 5.00800313,39.8043092 C5.07486375,39.4740634 5.30567246,39.2007933 5.62008,39.07963 C5.98983717,38.92789 6.41441721,39.0105835 6.7002,39.29 C6.88928164,39.4782567 6.99693172,39.7331985 7,40 C6.99799918,40.0669782 6.99114454,40.1337232 6.97949,40.19971 C6.96900086,40.262472 6.94890871,40.3232442 6.91992,40.37989 C6.89792998,40.4435987 6.86772886,40.504169 6.83008,40.56007 C6.7894874,40.6123143 6.74613227,40.6623523 6.7002,40.70997 C6.51316347,40.8936712 6.26215115,40.997643 6,41 Z" id="Shape" fill="#2C3E50"></path>
            <path d="M9,43 C8.59565302,42.9984049 8.23171874,42.7544153 8.07666479,42.3809754 C7.92161083,42.0075356 8.00569729,41.5775256 8.29,41.29 C8.3839218,41.1973166 8.49642008,41.1255907 8.62008,41.07955 C8.9926195,40.9238381 9.42221143,41.006787 9.71,41.29 C9.89253559,41.481762 9.99608525,41.7352802 10,42 C9.99839119,42.1306435 9.97118475,42.2597042 9.91992,42.37988 C9.8692187,42.5010579 9.79819811,42.6126888 9.70992,42.70996 C9.66233859,42.7529395 9.61211013,42.7928945 9.55953,42.82959 C9.50392179,42.8675653 9.44349093,42.8979438 9.37984,42.91992 C9.32002357,42.9500932 9.25571375,42.9703759 9.18941,42.97998 C9.12687576,42.9914704 9.06355459,42.9981632 9,43 L9,43 Z" id="Shape" fill="#2C3E50"></path>
            <path d="M52,5 C51.9329024,4.99769855 51.8660268,4.99101766 51.7998,4.98 C51.7372879,4.96887763 51.6767463,4.94864206 51.62011,4.91994 C51.5561485,4.89798004 51.4953949,4.86760325 51.43945,4.82961 C51.3871796,4.79290645 51.3372648,4.7529579 51.29,4.71 C51.1071571,4.51843693 51.003556,4.26479291 51,4 C51.001557,3.86919259 51.0287642,3.73996161 51.08008,3.61963 C51.1749167,3.37086409 51.3679226,3.17207236 51.6137796,3.06993141 C51.8596367,2.96779045 52.1366875,2.97129783 52.37988,3.07963 C52.5010224,3.13058485 52.6126452,3.20171685 52.71,3.29 C52.8004564,3.38540479 52.8717476,3.4972947 52.92,3.61959 C52.9712934,3.73993959 52.9984735,3.86918445 53,4 C53.0025856,4.26600072 52.8980593,4.52185969 52.7099595,4.70995949 C52.5218597,4.89805928 52.2660007,5.00258562 52,5 L52,5 Z" id="Shape" fill="#2C3E50"></path>
            <path d="M49,7 C48.9329024,6.99769855 48.8660268,6.99101766 48.7998,6.98 C48.7372879,6.96887763 48.6767463,6.94864206 48.62011,6.91994 C48.5561485,6.89798004 48.4953949,6.86760325 48.43945,6.82961 C48.38965,6.79 48.33984,6.75 48.29,6.71 C48.2017219,6.61272878 48.1307013,6.50109794 48.08,6.37992 C48.0237304,6.26136607 47.9963167,6.13117826 48,6 C48.0016408,5.93288101 48.008168,5.86597066 48.01953,5.7998 C48.030825,5.73711021 48.051224,5.67640838 48.08008,5.61962 C48.1017732,5.55594048 48.1319948,5.49549396 48.16992,5.43993 C48.2068135,5.38752263 48.2469169,5.33745014 48.29,5.29 L48.43941,5.16988 C48.4953549,5.13188675 48.5561085,5.10150996 48.62007,5.07955 C48.6766487,5.05078478 48.7372389,5.0307094 48.7998,5.02 C48.9315466,4.98972652 49.0684434,4.98972652 49.20019,5.02 C49.2627015,5.03086731 49.3232564,5.05094221 49.37988,5.07957 C49.4435309,5.10154619 49.5039618,5.13192473 49.55957,5.1699 C49.60937,5.2099 49.66016,5.24998 49.70996,5.29002 C49.74996,5.33982 49.79004,5.38963 49.83008,5.43992 C49.8676262,5.49570587 49.8978218,5.55610056 49.91992,5.61961 C49.9489087,5.67625576 49.9690009,5.73702803 49.97949,5.79979 C49.9916566,5.86587268 49.9985151,5.93282306 50,6 C49.9983912,6.13064347 49.9711848,6.25970417 49.91992,6.37988 C49.8692187,6.50105794 49.7981981,6.61268878 49.70992,6.70996 C49.66012,6.74996 49.60933,6.79004 49.55953,6.82959 C49.5039218,6.86756527 49.4434909,6.89794381 49.37984,6.91992 C49.3231446,6.94848033 49.2626241,6.96870883 49.20015,6.97998 C49.1339976,6.99142897 49.0671094,6.99811946 49,7 L49,7 Z" id="Shape" fill="#2C3E50"></path>
            <path d="M52,9 C51.9329024,8.99769855 51.8660268,8.99101766 51.7998,8.98 C51.7372879,8.96887763 51.6767463,8.94864206 51.62011,8.91994 C51.5561485,8.89798004 51.4953949,8.86760325 51.43945,8.82961 C51.38965,8.79 51.33984,8.75 51.29,8.71 C51.2017219,8.61272878 51.1307013,8.50109794 51.08,8.37992 C50.9732302,8.13774943 50.9732302,7.86184057 51.08,7.61967 C51.1307098,7.49864407 51.2017324,7.3871758 51.29,7.29008 C51.581959,7.01496674 52.0064413,6.93299846 52.37984,7.07963 C52.6307491,7.17105825 52.8284117,7.36872086 52.91984,7.61963 C53.0266098,7.86180057 53.0266098,8.13770943 52.91984,8.37988 C52.8691387,8.50105794 52.7981181,8.61268878 52.70984,8.70996 C52.5180224,8.89231523 52.2646322,8.99585028 52,9 L52,9 Z" id="Shape" fill="#2C3E50"></path>
            <path d="M49,11 C48.9329024,10.9976985 48.8660268,10.9910177 48.7998,10.98 C48.7372879,10.9688776 48.6767463,10.9486421 48.62011,10.91994 C48.5561485,10.89798 48.4953949,10.8676032 48.43945,10.82961 C48.3871796,10.7929065 48.3372648,10.7529579 48.29,10.71 C48.1071571,10.5184369 48.003556,10.2647929 48,10 C47.9962965,9.86866654 48.0237382,9.73832199 48.08008,9.61963 C48.1307898,9.49860407 48.2018124,9.3871358 48.29008,9.29004 L48.43949,9.16992 C48.4954349,9.13192675 48.5561885,9.10154996 48.62015,9.07959 C48.6767014,9.05081852 48.7372642,9.03072981 48.7998,9.02 C49.1289815,8.95784337 49.4679244,9.05839115 49.70996,9.29 C49.7982276,9.3870958 49.8692502,9.49856407 49.91996,9.61959 C49.9712671,9.73993681 49.9984609,9.86918177 50,10 C49.9959931,10.264701 49.8924566,10.5181869 49.71,10.71 C49.6624186,10.7529795 49.6121901,10.7929345 49.55961,10.82963 C49.5040018,10.8676053 49.4435709,10.8979838 49.37992,10.91996 C49.3232246,10.9485203 49.2627041,10.9687488 49.20023,10.98002 C49.1340503,10.9914594 49.0671352,10.9981365 49,11 L49,11 Z" id="Shape" fill="#2C3E50"></path>
            <path d="M52,13 C51.7348699,12.998116 51.4806333,12.8942729 51.29,12.71 C51.25,12.65971 51.20992,12.6099 51.16988,12.5601 C51.1318518,12.5044209 51.1016246,12.4437981 51.08004,12.37992 C51.0497104,12.3203008 51.0292611,12.256153 51.01949,12.18998 C51.0081692,12.1272415 51.0016536,12.0637303 51,12 C51.0034639,11.7351884 51.1070782,11.481512 51.29,11.29 C51.3372494,11.2468831 51.3871502,11.2067647 51.43941,11.16988 C51.4953549,11.1318868 51.5561085,11.10151 51.62007,11.07955 C51.6766487,11.0507848 51.7372389,11.0307094 51.7998,11.02 C52.0944332,10.957253 52.4016226,11.0315989 52.6349588,11.222125 C52.8682949,11.4126511 53.0025649,11.6987703 53,12 C52.9984846,12.0637753 52.9916239,12.1273113 52.97949,12.18994 C52.9705072,12.2561642 52.9503653,12.320387 52.91992,12.37988 C52.89793,12.4435887 52.8677289,12.504159 52.83008,12.56006 C52.79008,12.60986 52.75,12.65967 52.70996,12.70996 C52.6124837,12.797969 52.5009011,12.868959 52.37988,12.91996 C52.2597014,12.971211 52.1306408,12.9984038 52,13 L52,13 Z" id="Shape" fill="#2C3E50"></path>
            <path d="M49,15 C48.7348699,14.998116 48.4806333,14.8942729 48.29,14.71 C47.901799,14.3186471 47.9035017,13.6869533 48.2938069,13.2976989 C48.684112,12.9084444 49.315808,12.9084444 49.7061131,13.2976989 C50.0964183,13.6869533 50.098121,14.3186471 49.70992,14.71 C49.5191,14.8939368 49.265028,14.9977244 49,15 Z" id="Shape" fill="#2C3E50"></path>
            <path d="M52,17 C51.9329024,16.9976985 51.8660268,16.9910177 51.7998,16.98 C51.7372879,16.9688776 51.6767463,16.9486421 51.62011,16.91994 C51.5561485,16.89798 51.4953949,16.8676032 51.43945,16.82961 C51.38965,16.79 51.33984,16.75 51.29,16.71 C51.25,16.65971 51.20992,16.6099 51.16988,16.5601 C51.1318518,16.5044209 51.1016246,16.4437981 51.08004,16.37992 C51.051184,16.3231316 51.030785,16.2624298 51.01949,16.19974 C51.0081638,16.13372 51.00165,16.0669642 51,16 C51.001557,15.8691926 51.0287642,15.7399616 51.08008,15.61963 C51.1283324,15.4973347 51.1996236,15.3854448 51.29008,15.29004 L51.43949,15.16992 C51.4954349,15.1319268 51.5561885,15.10155 51.62015,15.07959 C51.6767014,15.0508185 51.7372642,15.0307298 51.7998,15.02 C51.9946544,14.979136 52.1973978,14.9999562 52.37988,15.07957 C52.5010266,15.1305431 52.6126497,15.2016955 52.71,15.29 C52.8004564,15.3854048 52.8717476,15.4972947 52.92,15.61959 C52.9712934,15.7399396 52.9984735,15.8691845 53,16 C52.9984895,16.0670098 52.9916311,16.133792 52.97949,16.19971 C52.9690009,16.262472 52.9489087,16.3232442 52.91992,16.37989 C52.89793,16.4435987 52.8677289,16.504169 52.83008,16.56007 C52.79008,16.60987 52.75,16.65968 52.70996,16.70997 C52.6124837,16.797979 52.5009011,16.868969 52.37988,16.91997 C52.2597007,16.9712176 52.1306401,16.998407 52,17 L52,17 Z" id="Shape" fill="#2C3E50"></path>
            <path d="M49,19 C48.9329024,18.9976985 48.8660268,18.9910177 48.7998,18.98 C48.7372879,18.9688776 48.6767463,18.9486421 48.62011,18.91994 C48.5561485,18.89798 48.4953949,18.8676032 48.43945,18.82961 C48.38965,18.79 48.33984,18.75 48.29,18.71 C48.2017219,18.6127288 48.1307013,18.5010979 48.08,18.37992 C48.0237304,18.2613661 47.9963167,18.1311783 48,18 C48.0034639,17.7351884 48.1070782,17.481512 48.29,17.29 C48.3372494,17.2468831 48.3871502,17.2067647 48.43941,17.16988 C48.4953549,17.1318868 48.5561085,17.10151 48.62007,17.07955 C48.6766487,17.0507848 48.7372389,17.0307094 48.7998,17.02 C48.9315466,16.9897265 49.0684434,16.9897265 49.20019,17.02 C49.2627015,17.0308673 49.3232564,17.0509422 49.37988,17.07957 C49.4435309,17.1015462 49.5039618,17.1319247 49.55957,17.1699 C49.6121659,17.206761 49.6624071,17.2468725 49.71,17.29 C49.8925356,17.481762 49.9960852,17.7352802 50,18 C49.9983912,18.1306435 49.9711848,18.2597042 49.91992,18.37988 C49.8692187,18.5010579 49.7981981,18.6126888 49.70992,18.70996 C49.66012,18.74996 49.60933,18.79004 49.55953,18.82959 C49.5039218,18.8675653 49.4434909,18.8979438 49.37984,18.91992 C49.3231446,18.9484803 49.2626241,18.9687088 49.20015,18.97998 C49.1339976,18.991429 49.0671094,18.9981195 49,19 L49,19 Z" id="Shape" fill="#2C3E50"></path>
            <path d="M52,21 C51.7348699,20.998116 51.4806333,20.8942729 51.29,20.71 C51.1071571,20.5184369 51.003556,20.2647929 51,20 C51.001557,19.8691926 51.0287642,19.7399616 51.08008,19.61963 C51.1307898,19.4986041 51.2018124,19.3871358 51.29008,19.29004 C51.5797497,19.0104884 52.0069936,18.9279868 52.37992,19.07959 C52.6308291,19.1710183 52.8284917,19.3686809 52.91992,19.61959 C52.9712409,19.739934 52.9984482,19.8691791 53,20 C52.9959931,20.264701 52.8924566,20.5181869 52.71,20.71 C52.6125237,20.798009 52.5009411,20.868999 52.37992,20.92 C52.2597262,20.9712424 52.1306516,20.9984217 52,21 L52,21 Z" id="Shape" fill="#2C3E50"></path>
            <path d="M49,23 C48.9329024,22.9976985 48.8660268,22.9910177 48.7998,22.98 C48.7372879,22.9688776 48.6767463,22.9486421 48.62011,22.91994 C48.5561485,22.89798 48.4953949,22.8676032 48.43945,22.82961 C48.38965,22.79 48.33984,22.75 48.29,22.71 C48.2471365,22.6623629 48.2070311,22.6123146 48.16988,22.5601 C48.1318518,22.5044209 48.1016246,22.4437981 48.08004,22.37992 C48.051184,22.3231316 48.030785,22.2624298 48.01949,22.19974 C48.0081638,22.13372 48.00165,22.0669642 48,22 C47.9962965,21.8686665 48.0237382,21.738322 48.08008,21.61963 C48.1307898,21.4986041 48.2018124,21.3871358 48.29008,21.29004 L48.43949,21.16992 C48.4954349,21.1319268 48.5561885,21.10155 48.62015,21.07959 C48.6767014,21.0508185 48.7372642,21.0307298 48.7998,21.02 C49.1289815,20.9578434 49.4679244,21.0583912 49.70996,21.29 C49.7982276,21.3870958 49.8692502,21.4985641 49.91996,21.61959 C49.9712671,21.7399368 49.9984609,21.8691818 50,22 C49.9984895,22.0670098 49.9916311,22.133792 49.97949,22.19971 C49.9690009,22.262472 49.9489087,22.3232442 49.91992,22.37989 C49.89793,22.4435987 49.8677289,22.504169 49.83008,22.56007 C49.79008,22.60987 49.75,22.65968 49.70996,22.70997 C49.66016,22.74997 49.60937,22.79005 49.55957,22.8296 C49.5039618,22.8675753 49.4435309,22.8979538 49.37988,22.91993 C49.3231846,22.9484903 49.2626641,22.9687188 49.20019,22.97999 C49.1340242,22.9914375 49.0671226,22.9981247 49,23 L49,23 Z" id="Shape" fill="#2C3E50"></path>
            <path d="M52,25 C51.7348699,24.998116 51.4806333,24.8942729 51.29,24.71 C50.9032799,24.3156867 50.9032799,23.6843933 51.29,23.29008 L51.43941,23.16996 C51.4953549,23.1319668 51.5561085,23.10159 51.62007,23.07963 C51.6766442,23.0508371 51.7372346,23.0307347 51.7998,23.02 C52.2324859,22.933517 52.6709038,23.1397785 52.8801332,23.528262 C53.0893626,23.9167455 53.0203196,24.3963152 52.71,24.71 C52.6125237,24.798009 52.5009411,24.868999 52.37992,24.92 C52.2597262,24.9712424 52.1306516,24.9984217 52,25 L52,25 Z" id="Shape" fill="#2C3E50"></path>
            <path d="M49,27 C48.7348699,26.998116 48.4806333,26.8942729 48.29,26.71 C47.901799,26.3186471 47.9035017,25.6869533 48.2938069,25.2976989 C48.684112,24.9084444 49.315808,24.9084444 49.7061131,25.2976989 C50.0964183,25.6869533 50.098121,26.3186471 49.70992,26.71 C49.5191,26.8939368 49.265028,26.9977244 49,27 Z" id="Shape" fill="#2C3E50"></path>
            <path d="M52,29 C51.9329024,28.9976985 51.8660268,28.9910177 51.7998,28.98 C51.7372879,28.9688776 51.6767463,28.9486421 51.62011,28.91994 C51.5561485,28.89798 51.4953949,28.8676032 51.43945,28.82961 C51.38965,28.79 51.33984,28.75 51.29,28.71 C51.25,28.65971 51.20992,28.6099 51.16988,28.5601 C51.1318518,28.5044209 51.1016246,28.4437981 51.08004,28.37992 C51.051184,28.3231316 51.030785,28.2624298 51.01949,28.19974 C51.0081638,28.13372 51.00165,28.0669642 51,28 C51.001557,27.8691926 51.0287642,27.7399616 51.08008,27.61963 C51.1283324,27.4973347 51.1996236,27.3854448 51.29008,27.29004 L51.43949,27.16992 C51.4954349,27.1319268 51.5561885,27.10155 51.62015,27.07959 C51.6767014,27.0508185 51.7372642,27.0307298 51.7998,27.02 C51.9946544,26.979136 52.1973978,26.9999562 52.37988,27.07957 C52.5010266,27.1305431 52.6126497,27.2016955 52.71,27.29 C52.8004564,27.3854048 52.8717476,27.4972947 52.92,27.61959 C52.9712934,27.7399396 52.9984735,27.8691845 53,28 C52.9984895,28.0670098 52.9916311,28.133792 52.97949,28.19971 C52.9690009,28.262472 52.9489087,28.3232442 52.91992,28.37989 C52.89793,28.4435987 52.8677289,28.504169 52.83008,28.56007 C52.79008,28.60987 52.75,28.65968 52.70996,28.70997 C52.5181106,28.8923494 52.2646724,28.995883 52,29 L52,29 Z" id="Shape" fill="#2C3E50"></path>
            <path d="M49,31 C48.9329024,30.9976985 48.8660268,30.9910177 48.7998,30.98 C48.7372879,30.9688776 48.6767463,30.9486421 48.62011,30.91994 C48.5561485,30.89798 48.4953949,30.8676032 48.43945,30.82961 C48.38965,30.79 48.33984,30.75 48.29,30.71 C48.2017219,30.6127288 48.1307013,30.5010979 48.08,30.37992 C48.0237304,30.2613661 47.9963167,30.1311783 48,30 C48.0034639,29.7351884 48.1070782,29.481512 48.29,29.29 C48.3372494,29.2468831 48.3871502,29.2067647 48.43941,29.16988 C48.4953549,29.1318868 48.5561085,29.10151 48.62007,29.07955 C48.6766487,29.0507848 48.7372389,29.0307094 48.7998,29.02 C48.9315466,28.9897265 49.0684434,28.9897265 49.20019,29.02 C49.2627015,29.0308673 49.3232564,29.0509422 49.37988,29.07957 C49.4435309,29.1015462 49.5039618,29.1319247 49.55957,29.1699 C49.6121659,29.206761 49.6624071,29.2468725 49.71,29.29 C49.8925356,29.481762 49.9960852,29.7352802 50,30 C49.9983912,30.1306435 49.9711848,30.2597042 49.91992,30.37988 C49.8692187,30.5010579 49.7981981,30.6126888 49.70992,30.70996 C49.66012,30.74996 49.60933,30.79004 49.55953,30.82959 C49.5039218,30.8675653 49.4434909,30.8979438 49.37984,30.91992 C49.3231446,30.9484803 49.2626241,30.9687088 49.20015,30.97998 C49.1339976,30.991429 49.0671094,30.9981195 49,31 Z" id="Shape" fill="#2C3E50"></path>
            <path d="M52,33 C51.7348699,32.998116 51.4806333,32.8942729 51.29,32.71 C51.2017219,32.6127288 51.1307013,32.5010979 51.08,32.37992 C51.0287576,32.2597262 51.0015783,32.1306516 51,32 C51.0034639,31.7351884 51.1070782,31.481512 51.29,31.29 C51.581959,31.0148867 52.0064413,30.9329185 52.37984,31.07955 C52.5010022,31.1305251 52.6126392,31.2016846 52.71,31.29 C52.8925356,31.481762 52.9960852,31.7352802 53,32 C52.9983912,32.1306435 52.9711848,32.2597042 52.91992,32.37988 C52.8692187,32.5010579 52.7981981,32.6126888 52.70992,32.70996 C52.6124437,32.797969 52.5008611,32.868959 52.37984,32.91996 C52.2596738,32.9712059 52.1306273,32.9983986 52,33 L52,33 Z" id="Shape" fill="#2C3E50"></path>
            <path d="M49,35 C48.9329024,34.9976985 48.8660268,34.9910177 48.7998,34.98 C48.7372879,34.9688776 48.6767463,34.9486421 48.62011,34.91994 C48.5561485,34.89798 48.4953949,34.8676032 48.43945,34.82961 C48.38965,34.79 48.33984,34.75 48.29,34.71 C48.2471365,34.6623629 48.2070311,34.6123146 48.16988,34.5601 C48.1318518,34.5044209 48.1016246,34.4437981 48.08004,34.37992 C48.051184,34.3231316 48.030785,34.2624298 48.01949,34.19974 C48.0081638,34.13372 48.00165,34.0669642 48,34 C47.9962965,33.8686665 48.0237382,33.738322 48.08008,33.61963 C48.1307898,33.4986041 48.2018124,33.3871358 48.29008,33.29004 L48.43949,33.16992 C48.4954349,33.1319268 48.5561885,33.10155 48.62015,33.07959 C48.6767014,33.0508185 48.7372642,33.0307298 48.7998,33.02 C49.1289815,32.9578434 49.4679244,33.0583912 49.70996,33.29 C49.7982276,33.3870958 49.8692502,33.4985641 49.91996,33.61959 C49.9712671,33.7399368 49.9984609,33.8691818 50,34 C49.9984895,34.0670098 49.9916311,34.133792 49.97949,34.19971 C49.9690009,34.262472 49.9489087,34.3232442 49.91992,34.37989 C49.89793,34.4435987 49.8677289,34.504169 49.83008,34.56007 C49.79008,34.60987 49.75,34.65968 49.70996,34.70997 C49.66016,34.74997 49.60937,34.79005 49.55957,34.8296 C49.5039618,34.8675753 49.4435309,34.8979538 49.37988,34.91993 C49.3231846,34.9484903 49.2626641,34.9687188 49.20019,34.97999 C49.1340242,34.9914375 49.0671226,34.9981247 49,35 Z" id="Shape" fill="#2C3E50"></path>
            <path d="M52,37 C51.9329024,36.9976985 51.8660268,36.9910177 51.7998,36.98 C51.7372879,36.9688776 51.6767463,36.9486421 51.62011,36.91994 C51.5561485,36.89798 51.4953949,36.8676032 51.43945,36.82961 C51.3871796,36.7929065 51.3372648,36.7529579 51.29,36.71 C50.9032799,36.3156867 50.9032799,35.6843933 51.29,35.29008 C51.5796697,35.0105284 52.0069136,34.9280268 52.37984,35.07963 C52.5009965,35.1305809 52.6126331,35.201713 52.71,35.29 C53.0967201,35.6843133 53.0967201,36.3156067 52.71,36.70992 C52.6125237,36.797929 52.5009411,36.868919 52.37992,36.91992 C52.2597318,36.9711899 52.130657,36.9983964 52,37 L52,37 Z" id="Shape" fill="#2C3E50"></path>
            <path d="M49,39 C48.7348699,38.998116 48.4806333,38.8942729 48.29,38.71 C47.901799,38.3186471 47.9035017,37.6869533 48.2938069,37.2976989 C48.684112,36.9084444 49.315808,36.9084444 49.7061131,37.2976989 C50.0964183,37.6869533 50.098121,38.3186471 49.70992,38.71 C49.5191,38.8939368 49.265028,38.9977244 49,39 Z" id="Shape" fill="#2C3E50"></path>
            <path d="M52,41 C51.9329024,40.9976985 51.8660268,40.9910177 51.7998,40.98 C51.7372879,40.9688776 51.6767463,40.9486421 51.62011,40.91994 C51.5561485,40.89798 51.4953949,40.8676032 51.43945,40.82961 C51.38965,40.79 51.33984,40.75 51.29,40.71 C51.25,40.65971 51.20992,40.6099 51.16988,40.5601 C51.1318518,40.5044209 51.1016246,40.4437981 51.08004,40.37992 C51.051184,40.3231316 51.030785,40.2624298 51.01949,40.19974 C51.0081638,40.13372 51.00165,40.0669642 51,40 C51.001557,39.8691926 51.0287642,39.7399616 51.08008,39.61963 C51.1749167,39.3708641 51.3679226,39.1720724 51.6137796,39.0699314 C51.8596367,38.9677905 52.1366875,38.9712978 52.37988,39.07963 C52.5010224,39.1305848 52.6126452,39.2017168 52.71,39.29 C52.8004564,39.3854048 52.8717476,39.4972947 52.92,39.61959 C52.9712934,39.7399396 52.9984735,39.8691845 53,40 C52.9984895,40.0670098 52.9916311,40.133792 52.97949,40.19971 C52.9690009,40.262472 52.9489087,40.3232442 52.91992,40.37989 C52.89793,40.4435987 52.8677289,40.504169 52.83008,40.56007 C52.79008,40.60987 52.75,40.65968 52.70996,40.70997 C52.5181106,40.8923494 52.2646724,40.995883 52,41 L52,41 Z" id="Shape" fill="#2C3E50"></path>
            <path d="M49,43 C48.7348699,42.998116 48.4806333,42.8942729 48.29,42.71 C48.2017219,42.6127288 48.1307013,42.5010979 48.08,42.37992 C48.0237304,42.2613661 47.9963167,42.1311783 48,42 C48.0034639,41.7351884 48.1070782,41.481512 48.29,41.29 C48.3372494,41.2468831 48.3871502,41.2067647 48.43941,41.16988 C48.4953549,41.1318868 48.5561085,41.10151 48.62007,41.07955 C48.6766487,41.0507848 48.7372389,41.0307094 48.7998,41.02 C48.9315466,40.9897265 49.0684434,40.9897265 49.20019,41.02 C49.2627015,41.0308673 49.3232564,41.0509422 49.37988,41.07957 C49.4435309,41.1015462 49.5039618,41.1319247 49.55957,41.1699 C49.6121659,41.206761 49.6624071,41.2468725 49.71,41.29 C49.8925356,41.481762 49.9960852,41.7352802 50,42 C49.9983912,42.1306435 49.9711848,42.2597042 49.91992,42.37988 C49.8692187,42.5010579 49.7981981,42.6126888 49.70992,42.70996 C49.5191063,42.8939115 49.2650336,42.9977136 49,43 L49,43 Z" id="Shape" fill="#2C3E50"></path>
            <path d="M18,40 L27,40 C28.1045695,40 29,40.8954305 29,42 L29,46 L16,46 L16,42 C16,40.8954305 16.8954305,40 18,40 Z" id="Shape" fill="#2C2F38"></path>
            <path d="M20.27734,14 C17.6386174,14 15.49951,16.1391074 15.49951,18.77783 C15.49951,21.4165526 17.6386174,23.55566 20.27734,23.55566 C20.30883,23.55566 20.33795,23.54699 20.36934,23.54638 L17.56248,27.6582 C17.4130034,27.8773066 17.3567066,28.1468258 17.4059782,28.4074467 C17.4552498,28.6680676 17.6060524,28.8984336 17.8252,29.04785 C17.9906587,29.1617068 18.1868522,29.2225076 18.3877,29.22217 C18.7185619,29.222602 19.0282252,29.0593751 19.21485,28.78617 L23.99317,21.78617 C24.0066151,21.7582875 24.0186536,21.7297483 24.02924,21.70066 C24.6897775,20.8692399 25.0513218,19.8397317 25.05567,18.77787 C25.0524902,16.140264 22.9149463,14.0029259 20.27734,14 Z M17.5,18.77783 C17.5,17.6542581 18.1768496,16.6413295 19.2149137,16.2114029 C20.2529778,15.7814763 21.4478104,16.0192255 22.2422257,16.8137809 C23.0366409,17.6083363 23.2741793,18.8032109 22.8440696,19.8411991 C22.4139599,20.8791873 21.4009119,21.5558582 20.27734,21.55566 C18.7440636,21.5537366 17.5016529,20.3111067 17.5,18.77783 L17.5,18.77783 Z" id="Shape" fill="#F9EAB0"></path>
            <path d="M40.38281,14.07617 C40.0091475,13.9210582 39.5788217,14.0066622 39.29297,14.29297 L37.4043,16.18164 C37.0138181,16.5721219 37.0138181,17.2052181 37.4043,17.5957 C37.7947819,17.9861819 38.4278781,17.9861819 38.81836,17.5957 L39,17.41406 L39,28.22217 C39,28.7744547 39.4477153,29.22217 40,29.22217 C40.5522847,29.22217 41,28.7744547 41,28.22217 L41,15 C41.0001499,14.5955415 40.7565167,14.2308634 40.38281,14.07617 Z" id="Shape" fill="#F9EAB0"></path>
            <path d="M34.5,20.5 L32,20.5 L32,18 C32,17.4477153 31.5522847,17 31,17 C30.4477153,17 30,17.4477153 30,18 L30,20.5 L27.5,20.5 C26.9477153,20.5 26.5,20.9477153 26.5,21.5 C26.5,22.0522847 26.9477153,22.5 27.5,22.5 L30,22.5 L30,25 C30,25.5522847 30.4477153,26 31,26 C31.5522847,26 32,25.5522847 32,25 L32,22.5 L34.5,22.5 C35.0522847,22.5 35.5,22.0522847 35.5,21.5 C35.5,20.9477153 35.0522847,20.5 34.5,20.5 Z" id="Shape" fill="#F9EAB0"></path>
        </g>
    </g>
</svg>