<?xml version="1.0" encoding="UTF-8"?>
<svg width="54px" height="58px" viewBox="0 0 54 58" version="1.1" xmlns="http://www.w3.org/2000/svg" xmlns:xlink="http://www.w3.org/1999/xlink">
    <!-- Generator: Sketch 43.2 (39069) - http://www.bohemiancoding.com/sketch -->
    <title>31 -Birthday Date- (celebration, birthday, party)</title>
    <desc>Created with Sketch.</desc>
    <defs></defs>
    <g id="Page-1" stroke="none" stroke-width="1" fill="none" fill-rule="evenodd">
        <g id="Icons" transform="translate(-123.000000, -731.000000)">
            <g id="31--Birthday-Date--(celebration,-birthday,-party)" transform="translate(123.000000, 731.000000)">
                <path d="M46,4 L46,8 L39,8 L39,4 L15,4 L15,8 L8,8 L8,4 L3.401,4 C1.523,4 0,5.523 0,7.401 L0,58 L54,58 L54,7.401 C54,5.523 52.477,4 50.599,4 L46,4 Z" id="Fill-124" fill="#ECF0F1"></path>
                <polygon id="Fill-398" fill="#F0C419" points="8 8 15 8 15 0 8 0"></polygon>
                <polygon id="Fill-399" fill="#F0C419" points="39 8 46 8 46 0 39 0"></polygon>
                <path d="M46,4 L46,8 L39,8 L39,4 L15,4 L15,8 L8,8 L8,4 L3.401,4 C1.523,4 0,5.523 0,7.401 L0,14 L54,14 L54,7.401 C54,5.523 52.477,4 50.599,4 L46,4 Z" id="Fill-400" fill="#E64C3C"></path>
                <polygon id="Fill-401" fill="#BDC3C7" points="4 30 16 30 16 18 4 18"></polygon>
                <polygon id="Fill-402" fill="#95A5A5" points="16 30 27 30 27 18 16 18"></polygon>
                <polygon id="Fill-403" fill="#BDC3C7" points="27 30 38 30 38 18 27 18"></polygon>
                <polygon id="Fill-404" fill="#95A5A5" points="38 30 50 30 50 18 38 18"></polygon>
                <polygon id="Fill-405" fill="#95A5A5" points="4 42 16 42 16 30 4 30"></polygon>
                <polygon id="Fill-406" fill="#BDC3C7" points="16 42 27 42 27 30 16 30"></polygon>
                <polygon id="Fill-407" fill="#95A5A5" points="27 42 38 42 38 30 27 30"></polygon>
                <polygon id="Fill-408" fill="#BDC3C7" points="38 42 50 42 50 30 38 30"></polygon>
                <polygon id="Fill-409" fill="#BDC3C7" points="4 54 16 54 16 42 4 42"></polygon>
                <polygon id="Fill-410" fill="#95A5A5" points="16 54 27 54 27 42 16 42"></polygon>
                <polygon id="Fill-411" fill="#BDC3C7" points="27 54 38 54 38 42 27 42"></polygon>
                <polygon id="Fill-412" fill="#95A5A5" points="38 54 50 54 50 42 38 42"></polygon>
                <path d="M42,39 C41.744,39 41.488,38.902 41.293,38.707 C40.902,38.316 40.902,37.684 41.293,37.293 L45.293,33.293 C45.684,32.902 46.316,32.902 46.707,33.293 C47.098,33.684 47.098,34.316 46.707,34.707 L42.707,38.707 C42.512,38.902 42.256,39 42,39" id="Fill-413" fill="#E64C3C"></path>
                <path d="M46,39 C45.744,39 45.488,38.902 45.293,38.707 L41.293,34.707 C40.902,34.316 40.902,33.684 41.293,33.293 C41.684,32.902 42.316,32.902 42.707,33.293 L46.707,37.293 C47.098,37.684 47.098,38.316 46.707,38.707 C46.512,38.902 46.256,39 46,39" id="Fill-414" fill="#E64C3C"></path>
                <path d="M8,27 C7.744,27 7.488,26.902 7.293,26.707 C6.902,26.316 6.902,25.684 7.293,25.293 L11.293,21.293 C11.684,20.902 12.316,20.902 12.707,21.293 C13.098,21.684 13.098,22.316 12.707,22.707 L8.707,26.707 C8.512,26.902 8.256,27 8,27" id="Fill-415" fill="#E64C3C"></path>
                <path d="M12,27 C11.744,27 11.488,26.902 11.293,26.707 L7.293,22.707 C6.902,22.316 6.902,21.684 7.293,21.293 C7.684,20.902 8.316,20.902 8.707,21.293 L12.707,25.293 C13.098,25.684 13.098,26.316 12.707,26.707 C12.512,26.902 12.256,27 12,27" id="Fill-416" fill="#E64C3C"></path>
                <path d="M50.5986,4 L47.5986,4 C49.4776,4 50.9996,5.523 50.9996,7.401 L50.9996,14 L53.9996,14 L53.9996,7.401 C53.9996,5.523 52.4776,4 50.5986,4" id="Fill-687" fill="#AD392D"></path>
                <path d="M3.4014,4 L6.4014,4 C4.5234,4 3.0004,5.523 3.0004,7.401 L3.0004,14 L0.0004,14 L0.0004,7.401 C0.0004,5.523 1.5234,4 3.4014,4" id="Fill-688" fill="#EC7063"></path>
                <polygon id="Fill-689" fill="#B1B4B5" points="51 58 54 58 54 14 51 14"></polygon>
                <polygon id="Fill-690" fill="#F4F7F7" points="0 58 3 58 3 14 0 14"></polygon>
            </g>
        </g>
    </g>
</svg>