<svg viewBox="0 0 623 555" xmlns="http://www.w3.org/2000/svg"><g fill="none" fill-rule="evenodd"><path d="m45.38 400.17s10.37 14.65-5.06 29.3l35.95 1.24v-44.59z" fill="#ecf3f6"/><path d="m45.38 400.17s10.37 14.65-5.06 29.3l35.95 1.24v-44.59z" fill="#baccd3" opacity=".3"/><path d="m45.38 400.17s10.37 14.65-5.06 29.3l35.95 1.24v-44.59z" stroke="#aac6ca" stroke-width="1.5"/><path d="m56.34 398.73s9.66 13.47-3.34 33.76l21.86 7.24s14.37-24.08 5.57-45" fill="#ecf3f6"/><path d="m124.07 338.42c-.28-32.5-26.72-57.68-59.28-57.68-32.75 0-59.28 25.46-59.28 58.2-.00022971 31.20854 24.2001406 57.070664 55.34 59.14l22.78 19.06 16.53 5.49 23.93-36.34v-47.87z" fill="#ecf3f6"/><circle cx="69.45" cy="359.39" fill="#aac6ca" r="6.06"/><circle cx="70.32" cy="357.84" fill="#fff" r="1.73"/><circle cx="115.33" cy="359.39" fill="#aac6ca" r="6.06"/><circle cx="116.2" cy="357.84" fill="#fff" r="1.73"/><ellipse cx="24.771446" cy="309.864541" fill="#baccd3" opacity=".3" rx="6.38" ry="4.26" transform="matrix(.67687597 -.73609709 .73609709 .67687597 -220.086137 118.358869)"/><ellipse cx="40.481234" cy="303.135081" fill="#baccd3" opacity=".3" rx="6.38" ry="4.26" transform="matrix(.67687597 -.73609709 .73609709 .67687597 -210.056391 127.748348)"/><path d="m26.28 294.49c-2.94 1.94-3.19 3.11-1.46 4.7s5.07.78 7.46-1.82 2.91-6 1.18-7.57-3.77 2.44-7.18 4.69z" fill="#baccd3" opacity=".3"/><path d="m5.5 340.52c-1.81-21.08 12.26-36.63 12.26-36.63-5.45 9.87-5.48 21.25-5.48 21.25-.1 2.74-.1 5.34 0 7.79.67 20.95 16.88 37.59 37.62 40.63 0 0 7.37 1.8 5.24 10 0 0-2.47 9-13.87 7.33l-8.79.2-2.4-2.55-9.4-7.81-5.49-7.26-6.8-14.37z" fill="#baccd3" opacity=".3"/><ellipse cx="66.55" cy="372.03" fill="#fff" rx="7.3" ry="3"/><path d="m27.19 292.08s51.63-26.54 91.29 22c0 0-12.61-27.75-39.19-31.71 0 0-30.02-7.51-52.1 9.71z" fill="#fff"/><path d="m124.09 386.72v-47.2c-.27768-32.169297-26.1545636-58.25002-58.3206921-58.7801-32.1661284-.53008-58.8883192 24.683838-60.22582582 56.826518s23.19755092 59.489492 55.29651792 61.633582" stroke="#aac6ca" stroke-width="1.5"/><path d="m123.67 363.31c3.286514 2.505757 4.946275 6.603413 4.33 10.69-1.07 7-9 25.17 9.07 37.56v16.32s-28.07 7.12-36.47-26.7" fill="#ecf3f6" stroke="#aac6ca" stroke-width="1.5"/><circle cx="84.74" cy="371.06" fill="#baccd3" opacity=".3" r="1.14"/><circle cx="90.09" cy="366.24" fill="#baccd3" opacity=".3" r="1.14"/><circle cx="94.83" cy="371.06" fill="#baccd3" opacity=".3" r="1.14"/><circle cx="99.59" cy="366.24" fill="#baccd3" opacity=".3" r="1.14"/><circle cx="104.33" cy="371.06" fill="#baccd3" opacity=".3" r="1.14"/><path d="m57 398.22c1.7787729 2.571949 3.0295873 5.471255 3.68 8.53.6514601 3.017723.8168758 6.120113.49 9.19-.3390246 3.052531-1.0856723 6.045848-2.22 8.9-1.1184819 2.852248-2.5187504 5.585787-4.18 8.16l-.39-1.2 18.48 7.2-1 .28c1.8487855-2.858863 3.4512202-5.869701 4.79-9 1.4027478-3.154887 2.52378-6.427632 3.35-9.78.8385403-3.316836 1.3311703-6.711627 1.47-10.13.0634311-1.710682.0267017-3.42361-.11-5.13-.2255484-1.737153-.2791413-3.492322-.16-5.24.8694872 1.562232 1.3849817 3.296479 1.51 5.08.1965648 1.75956.2833994 3.52965.26 5.3-.0426213 3.543792-.4582457 7.073248-1.24 10.53-.822646 3.423479-1.9401522 6.769306-3.34 10-.7 1.63-1.5 3.2-2.35 4.75-.8395761 1.567043-1.7816218 3.076988-2.82 4.52l-.37.52-.59-.23-18.48-7.24-.93-.37.54-.84c1.5902635-2.470565 2.930225-5.09354 4-7.83 1.0779533-2.720051 1.7875674-5.57196 2.11-8.48.3128825-2.892634.1575579-5.816789-.46-8.66-.317164-1.38457-.7520799-2.7395-1.3-4.05-.5182553-1.317384-1.1895252-2.569302-2-3.73z" fill="#aac6ca"/><path d="m110.16 379.42c10.612176 16.233818 12.745576 36.588606 5.73 54.67l-18.42 4.28c9.41-31.86-1.64-52.61-1.64-52.61" fill="#ecf3f6"/><path d="m29.3 388.51s1.7 1.81-.93 3l4.52-.24-.46-1.27z" fill="#aac6ca"/><path d="m110.16 379.42s7.29 23.87 3 43.21h5.95s4-24.76-7.22-40.57" fill="#fff"/><path d="m93.63 420.11s6.46-21.33.91-35.33c0 0 4.67 6.67 6.72 33z" fill="#fff"/><ellipse cx="118.19" cy="372.03" fill="#fff" rx="7.3" ry="3"/><path d="m136.38 412.08s-13.83-7.59-11.9-24.53c0 0-5.33 16.91 11.9 28z" fill="#fff"/><path d="m48 417.6s23.82.41 29.16-20.67c0 0-19.38 11.91-28.25 7.89z" fill="#baccd3" opacity=".3"/><path d="m55.91 381.29s2 11-16.21 10.08c-13.29-.64-20.67 4-24.1 8-.559009.678339-.6095972 1.642153-.1246728 2.375285s1.3916827 1.063717 2.2346728.814715c7.1510634-2.239011 14.8036891-2.319016 22-.23 8.09 2.47 29.31 8.45 37.92-6.19" fill="#ecf3f6"/><path d="m16.62 401.13s13.94-5.07 19.84-4 24.3 6.94 34-.15 4.63 2.53 4.63 2.53c-4.9663128 4.128394-11.2640879 6.31058-17.72 6.14h-6.56l-6.7-2.09-4.41-1.24-4.44-.91-5-.6-5.86.31-5.31 1.05z" fill="#fff"/><path d="m56 381.25c.6519345 2.628242-.1575431 5.404139-2.12 7.27-2.0137154 1.741881-4.4981746 2.848404-7.14 3.18-2.5373608.384888-5.1081308.502198-7.67.35-2.4764183-.099267-4.9567273.027928-7.41.38-4.9095537.552184-9.5623818 2.48335-13.42 5.57-.4614622.386345-.9020826.796924-1.32 1.23l-.6.66c-.1273494.139779-.2198635.307675-.27.49-.0940226.352474-.0037542.728592.24 1 .2244939.280274.5716606.433326.93.41.0915325-.006937.1820532-.0237.27-.05l.47-.14.92-.26c.62-.17 1.25-.32 1.88-.47 1.25-.28 2.52-.5 3.8-.66 5.138855-.643834 10.3553927-.214797 15.32 1.26 4.7347019 1.546766 9.6291311 2.55316 14.59 3 4.9335191.458956 9.9063499-.228958 14.53-2.01 2.2534482-.936453 4.3508961-2.211108 6.22-3.78 1.9080574-1.597619 3.6807621-3.350255 5.3-5.24-.9617969 2.400767-2.4520106 4.554058-4.36 6.3-1.934093 1.747192-4.152739 3.150756-6.56 4.15-4.8323156 1.883193-10.0331835 2.629107-15.2 2.18-5.0987951-.388684-10.1337482-1.378892-15-2.95-4.7427679-1.384059-9.721754-1.765486-14.62-1.12-1.22.16-2.44.34-3.64.61-.6.13-1.21.26-1.8.43-.3.07-.6.15-.89.24l-.45.13c-.2125784.057697-.4302742.094538-.65.11-1.1816164.114383-2.3103825-.515663-2.8332624-1.581447-.5228798-1.065785-.3303491-2.344066.4832624-3.208553l.67-.72c.48-.47.95-.92 1.46-1.34 4.1123049-3.217887 9.0469612-5.213928 14.24-5.76 2.5418967-.336467 5.1089103-.443566 7.67-.32 2.4656838.169877 4.9423515.082741 7.39-.26 2.3877622-.301004 4.6521478-1.232992 6.56-2.7 1.88227-1.588613 2.9808289-3.91712 3.01-6.38z" fill="#aac6ca"/><path d="m117.27 393.47s4.65 26.64 19.84 26.64l.81 10.6-18.85-8.08s1.21-20.63-1.8-29.16z" fill="#baccd3" opacity=".3"/><path d="m109.87 379.42c3.115626 3.688876 5.492181 7.942908 7 12.53 1.644495 4.521924 2.755351 9.220406 3.31 14 .533622 4.802196.476529 9.651698-.17 14.44-.680605 4.777164-1.915602 9.45874-3.68 13.95l-.18.46h-.35l-18.46 4.3-1.23.29.34-1.23c1.1579561-4.273371 2.0463716-8.615251 2.66-13 .6409953-4.379801.92859-8.804073.86-13.23-.0503884-4.437875-.4752294-8.863581-1.27-13.23-.4032991-2.171498-.9173027-4.320967-1.54-6.44-.753967-2.107659-1.296633-4.285023-1.62-6.5 1.5644023 1.694844 2.6724149 3.759464 3.22 6 .687924 2.16177 1.262045 4.358117 1.72 6.58.926436 4.449523 1.435313 8.975842 1.52 13.52.027292 4.532746-.307103 9.060444-1 13.54-.697677 4.466482-1.7374017 8.872775-3.11 13.18l-.89-.94 18.42-4.28-.53.46c1.61232-4.41436 2.75529-8.986238 3.41-13.64.628995-4.64123.706199-9.340614.23-14-.457148-4.685149-1.464073-9.300221-3-13.75-1.596758-4.457112-3.48758-8.80333-5.66-13.01z" fill="#aac6ca"/><circle cx="215.08" cy="140.3" fill="#f1f6f8" r="139.78"/><path d="m55.51 109.14c2.3828526-15.6542356 14.3825821-28.1019554 29.9390076-31.0567318 15.5564254-2.9547764 31.2844444 4.2263545 39.2409924 17.9167318 5.630843-2.867387 12.253515-3.0468437 18.031378-.4886022s10.09664 7.5822002 11.758622 13.6786022z" fill="#fff"/><path d="m409.39 179.33c-2.910604-19.241301-17.645522-34.551852-36.761216-38.197327-19.115695-3.645476-38.451141 5.167657-48.238784 21.987327-6.920114-3.522916-15.058598-3.742947-22.158953-.599086-7.100356 3.143861-12.4079 9.31746-14.451047 16.809086z" fill="#fff"/><path d="m156.66 179.91h366.69c10.797167 0 19.55 8.752833 19.55 19.55v228.45h-405.79v-228.45c0-10.797167 8.752833-19.55 19.55-19.55z" fill="#fff" stroke="#aac6ca" stroke-width="1.5"/><path d="m153.91 197.1h370.04v230.81h-370.04z" fill="#fff" stroke="#aac6ca" stroke-width="1.5"/><path d="m153.91 210.91h370.04" stroke="#aac6ca" stroke-width="1.5"/><path d="m514.88 204.34h-44.23" fill="#fff" stroke="#aac6ca" stroke-width="1.5"/><rect fill="#f1f6f8" height="200.69" rx="6.77" width="152.8" x="360.42" y="228.78"/><path d="m524.86 179.94h-168.12l187.670003 149.16-.000003-129.6c.002653-5.186715-2.055902-10.161903-5.722526-13.830402-3.666623-3.6685-8.640759-5.729599-13.827474-5.729598z" fill="#baccd3" opacity=".1"/><path d="m153.91 210.91h189.15v217h-189.15z" fill="#ecf3f6"/><path d="m343.06 210.91v217" stroke="#aac6ca" stroke-width="1.5"/><path d="m153.91 210.91h189.15v217h-189.15z" stroke="#aac6ca" stroke-width="1.5"/><g fill="#baccd3" opacity=".6" transform="translate(93 273)"><path d="m234.31 140.89c-23.41 0-23.41-8.46-46.81-8.46s-23.41 8.46-46.81 8.46-23.41-8.46-46.81-8.46-23.41 8.46-46.81 8.46c-1 0-2 0-3-.05v54.85h-43.44l.18 31.76h280.32v-95c-23.41-.02-23.41 8.44-46.82 8.44z" opacity=".4"/><path d="m468.36 132.43c-5.930065-.127873-11.845799.633925-17.55 2.26v-115.57c.002655-4.8967098-1.94138-9.59362563-5.403877-13.05612282-3.462497-3.4624972-8.159413-5.40653194-13.056123-5.40387718h-117.82c-10.195176 0-18.46 8.26482352-18.46 18.46v114.88c-4.898557-1.123347-9.914934-1.650503-14.94-1.57l.55 47.51h14.39v42.86h154.74v-42.86h17.55z" opacity=".4"/></g><path d="m374.68 512-.55-95c23.4 0 23.4 8.46 46.8 8.46s23.41-8.46 46.81-8.46 23.41 8.46 46.81 8.46 23.45-8.46 46.81-8.46 23.41 8.46 46.81 8.46" fill="#fff"/><path d="m374.13 417c23.4 0 23.4 8.46 46.8 8.46s23.41-8.46 46.81-8.46 23.41 8.46 46.81 8.46 23.45-8.46 46.81-8.46" stroke="#aac6ca" stroke-width="1.26"/><path d="m423.49 257.7h117.82c10.195176 0 18.46 8.264824 18.46 18.46v203.68h-154.77v-203.68c-.000006-4.901099 1.948998-9.601024 5.417411-13.063809s8.171497-5.404156 13.072589-5.396191z" fill="#ecf3f6" stroke="#aac6ca" stroke-width="1.5"/><path d="m540.17 267h-22.45c0 5.136248-4.163752 9.3-9.3 9.3h-53.57c-5.136248 0-9.3-4.163752-9.3-9.3h-22.45c-2.462943-.000001-4.824864.979083-6.565489 2.721584s-2.717165 4.105475-2.714511 6.568416l-.000005 199h135.640005v-199c0-2.463861-.978765-4.826809-2.720978-6.569022s-4.105161-2.720978-6.569022-2.720978z" fill="#fff"/><path d="m540.17 267h-22.45c0 5.136248-4.163752 9.3-9.3 9.3h-53.57c-5.136248 0-9.3-4.163752-9.3-9.3h-22.45c-2.462943-.000001-4.824864.979083-6.565489 2.721584s-2.717165 4.105475-2.714511 6.568416l-.000005 199h135.640005v-199c0-2.463861-.978765-4.826809-2.720978-6.569022s-4.105161-2.720978-6.569022-2.720978z" stroke="#aac6ca" stroke-width="1.5"/><path d="m560.1 455.58c-9.35-2.49-14.32-6.56-30.57-6.56-23.4 0-23.4 8.46-46.81 8.46s-23.4-8.46-46.8-8.46c-16.24 0-21.22 4.07-30.56 6.56v28h154.74z" fill="#baccd3" opacity=".2"/><path d="m342 459.8c23.4 0 23.4 8.46 46.81 8.46s23.4-8.46 46.8-8.46 23.41 8.46 46.81 8.46 23.41-8.46 46.81-8.46 23.41 8.46 46.82 8.46 23.41-8.46 46.81-8.46v95h-280.34z" fill="#fff"/><path d="m342 459.8c23.4 0 23.4 8.46 46.81 8.46s23.4-8.46 46.8-8.46 23.41 8.46 46.81 8.46 23.41-8.46 46.81-8.46 23.41 8.46 46.82 8.46 23.41-8.46 46.81-8.46" stroke="#aac6ca" stroke-width="1.26"/><path d="m427.01 345.19h108.81v88.29h-108.81z" fill="#f1f6f8"/><path d="m535.82 345.37h-104.26-4.56v4.55 83.57h4.56v-83.57h104.26z" fill="#baccd3" opacity=".1"/><path d="m427.01 296.16h108.81v33.86h-108.81z" fill="#f1f6f8"/><path d="m535.82 296.15h-104.26-4.56v4.55 29.31h4.56v-29.31h104.26z" fill="#baccd3" opacity=".1"/><rect fill="#baccd3" height="88.29" opacity=".4" rx="2.98" width="108.81" x="450.57" y="321.63"/><rect fill="#f1f6f8" height="88.29" rx="2.98" width="108.81" x="461.92" y="310.27"/><circle cx="162.45" cy="204.29" fill="#ff8288" r="1.43"/><circle cx="168.27" cy="204.29" fill="#ff8288" r="1.43"/><circle cx="174.08" cy="204.29" fill="#ff8288" r="1.43"/><path d="m186.85 257.03v51.36" opacity=".3" stroke="#aac6ca" stroke-width="1.5"/><path d="m186.85 325.02v51.37" opacity=".3" stroke="#aac6ca" stroke-width="1.5"/><g stroke-width="2"><g stroke="#ff8288"><path d="m186.85 315.83h122.29"/><path d="m185.22 250.34h123.92"/><path d="m201.91 266.08h116.84"/></g><path d="m220.39 282.77h89.12" stroke="#aac6ca"/><path d="m220.39 298.68h89.12" stroke="#aac6ca"/><path d="m201.91 333.52h116.84" stroke="#ff8288"/><path d="m220.39 350.21h89.12" stroke="#aac6ca"/><path d="m220.39 366.88h89.12" stroke="#aac6ca"/><path d="m283.59 385.06h25.92" stroke="#aac6ca"/></g><path d="m459.16 268.48h41.71" stroke="#fff" stroke-width="1.5"/><path d="m507.94 310.27 62.79 62.8v24.73l-7.6.77-88.95-87.78z" fill="#fff"/><path d="m521.95 310.27 49.46 49.47v-46.48l-3.66-2.99z" fill="#fff"/><path d="m503.62 343.6-10.58 10.57 10.58 10.57" stroke="#ff8288" stroke-width="2"/><path d="m531.43 364.74 10.58-10.57-10.58-10.57" stroke="#ff8288" stroke-width="2"/><path d="m524.79 339.46-14.83 29.93" stroke="#ff8288" stroke-width="2"/><rect height="88.29" rx="2.98" stroke="#aac6ca" stroke-width="1.5" width="108.81" x="461.92" y="310.27"/><path d="m264.55 95.57c-4.782786 0-8.66 3.8772141-8.66 8.66" stroke="#ff8288" stroke-width="1.26"/><path d="m246.86 95.57c4.782786 0 8.66 3.8772141 8.66 8.66" stroke="#ff8288" stroke-width="1.26"/><path d="m580.26 141.22c-4.782786 0-8.66 3.877214-8.66 8.66" stroke="#ff8288" stroke-width="1.26"/><path d="m562.57 141.22c4.782786 0 8.66 3.877214 8.66 8.66" stroke="#ff8288" stroke-width="1.26"/><path d="m229 61.14c-4.782786 0-8.66 3.8772141-8.66 8.66" stroke="#ff8288" stroke-width="1.26"/><path d="m211.27 61.14c4.782786 0 8.66 3.8772141 8.66 8.66" stroke="#ff8288" stroke-width="1.26"/><path d="m93.26 417c23.41 0 23.41 8.46 46.81 8.46s23.4-8.46 46.81-8.46 23.4 8.46 46.81 8.46 23.4-8.46 46.81-8.46 23.4 8.46 46.81 8.46 23.41-8.46 46.82-8.46v95h-280.32z" fill="#fff"/><path d="m93.26 417c23.41 0 23.41 8.46 46.81 8.46s23.4-8.46 46.81-8.46 23.4 8.46 46.81 8.46 23.4-8.46 46.81-8.46 23.4 8.46 46.81 8.46 23.41-8.46 46.82-8.46" stroke="#aac6ca" stroke-width="1.26"/><path d="m0 417c23.41 0 23.41 8.46 46.81 8.46s23.41-8.46 46.82-8.46v95h-93.63" fill="#fff"/><path d="m0 417c23.41 0 23.41 8.46 46.81 8.46s23.41-8.46 46.82-8.46" stroke="#aac6ca" stroke-width="1.26"/><path d="m398.13 503.54c.316355.318328.680808.584918 1.08.79-.399192.205082-.763645.471672-1.08.79-1.334838 1.342701-1.661079 3.388758-.81 5.08l5.69-5.69 3.24 2.4c6.124477 4.54865 14.505523 4.54865 20.63 0l3.47-2.58-3.47-2.58c-6.124477-4.54865-14.505523-4.54865-20.63 0l-3.24 2.4-5.69-5.69c-.854308 1.69074-.52775 3.738782.81 5.08z" fill="#baccd3" opacity=".3"/><path d="m441.35 520.91c.322533.315472.689815.581668 1.09.79-.402296.204898-.770073.471452-1.09.79-1.33775 1.341218-1.664308 3.38926-.81 5.08l5.69-5.69 3.24 2.4c6.124477 4.54865 14.505523 4.54865 20.63 0l3.48-2.58-3.48-2.58c-6.124477-4.54865-14.505523-4.54865-20.63 0l-3.24 2.4-5.69-5.69c-.851079 1.691242-.524838 3.737299.81 5.08z" fill="#baccd3" opacity=".3"/><path d="m343.06 227v-16.09h-189.15v213.27l16.09-6.94v-5.82l35.08-74.42s-18.34 2.3-35.08 18v-128z" fill="#baccd3" opacity=".3"/><path d="m201.24 360.3s-15.59 23.76-3.09 56.83c13.31 35.2 65.1 56 68.53 104.57l-48.74-.22c3-36.34-37.61-61.2-45.69-96.64s11.75-67.08 11.75-67.08 11.68-20.73 28.34-21.18 16.49 25.15 11.11 34.56-21 3.77-18.38-9.37" fill="#ecf3f6"/><path d="m198.92 353.93s-20.19 25.18-10.56 65.57c8.43 35.36 57.69 61.62 54.66 98l23.66 4.24c-2.9-45.05-55.61-70.86-68.35-104.57-12.51-33.07 3.08-56.83 3.08-56.83z" fill="#fff" opacity=".8"/><path d="m182.85 360.49 15.83 4.87 3.86-6.8-15.48-5.3z" fill="#baccd3" opacity=".3"/><path d="m201.86 360.71c-1.922379 3.297911-3.471909 6.799445-4.62 10.44-.63 1.81-1.07 3.68-1.54 5.54s-.8 3.75-1 5.66c-1.046761 7.622014-.782962 15.366876.78 22.9l1.37 5.6 1.82 5.47c1.341721 3.588171 3.015658 7.043177 5 10.32 4.157015 6.50521 8.957848 12.575768 14.33 18.12 10.55 11.3 22.22 21.7 31.78 34.09 4.862188 6.124863 8.921735 12.845968 12.08 20 .82 1.78 1.42 3.65 2.12 5.48l.85 2.82.42 1.41.34 1.43c.92731 3.813669 1.542675 7.696488 1.84 11.61l.08.8h-.83l-48.75-.22h-.78v-.81c.419736-5.91008-.258358-11.846794-2-17.51-1.737465-5.65305-4.13747-11.080754-7.15-16.17-6-10.3-13.51-19.71-20.36-29.61-3.488504-4.931684-6.667935-10.074881-9.52-15.4-2.896236-5.371149-5.11325-11.081639-6.6-17-1.369113-5.926414-2.070149-11.987528-2.09-18.07-.049908-6.070267.52986-12.129344 1.73-18.08 1.172641-5.947006 2.845247-11.784401 5-17.45 2.133046-5.6921 4.812213-11.164298 8-16.34 3.280728-5.168588 7.377125-9.771547 12.13-13.63 2.415985-1.935086 5.092216-3.520626 7.95-4.71 2.893263-1.220403 6.010453-1.819994 9.15-1.76 1.608708.035422 3.199028.350103 4.7.93 1.501272.596942 2.87812 1.468494 4.06 2.57 2.265435 2.227785 3.900819 5.015527 4.74 8.08.868789 2.974205 1.286767 6.061855 1.24 9.16-.00555 3.085605-.425984 6.156453-1.25 9.13-.426166 1.496788-.985049 2.952561-1.67 4.35-.688269 1.450699-1.637378 2.762502-2.8 3.87-1.204525 1.114064-2.658441 1.923319-4.24 2.36-1.576744.417346-3.226566.47883-4.83.18-3.223789-.604509-6.022166-2.588214-7.66-5.43-1.541434-2.827683-1.989861-6.123264-1.26-9.26l1.47.29c-.649737 2.786727-.254796 5.714978 1.11 8.23 1.425531 2.427165 3.839768 4.110921 6.61 4.61 2.745364.529672 5.578858-.279897 7.63-2.18 1.001498-.976766 1.815003-2.129233 2.4-3.4.633364-1.302458 1.142291-2.661829 1.52-4.06.771018-2.822042 1.161143-5.734527 1.16-8.66.042376-2.916323-.355433-5.822353-1.18-8.62-.749706-2.756166-2.216102-5.264565-4.25-7.27-2.066349-1.913126-4.77405-2.983363-7.59-3-2.879921-.038691-5.736625.519711-8.39 1.64-2.689677 1.13371-5.207434 2.638305-7.48 4.47-4.576898 3.737473-8.517968 8.191861-11.67 13.19-3.094179 5.070429-5.689645 10.428812-7.75 16-2.115036 5.579838-3.760746 11.326445-4.92 17.18-1.187487 5.821036-1.770581 11.749154-1.74 17.69.009075 5.932751.679889 11.845977 2 17.63 1.432887 5.756464 3.575995 11.31242 6.38 16.54 2.812649 5.234584 5.945254 10.290836 9.38 15.14 6.78 9.86 14.29 19.31 20.36 29.78 3.089278 5.232935 5.543282 10.815711 7.31 16.63 1.742127 5.86155 2.389598 11.993873 1.91 18.09l-.75-.82 48.74.22-.75.8c-.28884-3.82946-.890853-7.628828-1.8-11.36l-.33-1.4-.41-1.38-.83-2.75c-.69-1.79-1.27-3.63-2.08-5.37-3.10959-7.052656-7.101467-13.682263-11.88-19.73-9.45-12.24-21.07-22.61-31.7-34-5.429929-5.619126-10.281003-11.770073-14.48-18.36-2.04852-3.355247-3.772966-6.897895-5.15-10.58l-1.86-5.58-1.4-5.71c-1.599918-7.697212-1.870491-15.611492-.8-23.4.21-2 .65-3.87 1-5.8s.94-3.81 1.59-5.67l.45-1.4.52-1.38.52-1.37.59-1.36c.775104-1.822918 1.680791-3.587504 2.71-5.28z" fill="#aac6ca"/><path d="m274.02 388.07 9.57-2.73-5.22-8.48-104.6-39.91-4.35 11.21z" fill="#ecf3f6" stroke="#aac6ca" stroke-width="1.5"/><path d="m274.02 388.16 9.57-2.73-5.22-8.48-104.6-39.91-4.35 11.2z" fill="#fff"/><path d="m278.12 377.12 4.93 8.01-9.05 2.58" fill="#fff"/><path d="m274.02 388.07 9.57-2.73-5.22-8.48-104.6-39.91-4.35 11.21z" stroke="#aac6ca" stroke-width="1.5"/><path d="m165.08 346.47 6.78 2.63c1.06.42 2.9-1.75 4.1-4.85s1.32-5.94.25-6.35l-6.77-2.63z" fill="#fff" stroke="#aac6ca" stroke-width="1.5"/><ellipse cx="166.582079" cy="340.621167" fill="#fff" rx="6.01" ry="2.07" stroke="#aac6ca" stroke-width="1.5" transform="matrix(.36211268 -.93213433 .93213433 .36211268 -211.244087 372.554796)"/><path d="m273.17 387.74c1.07.41 2.91-1.76 4.11-4.85s1.31-5.94.25-6.36" stroke="#aac6ca" stroke-width="1.5"/><path d="m226.51 355.5s.38 10-3 14.18-11.75-3.25-11.75-3.25c1.268529-4.998483 1.62758-10.184392 1.06-15.31" fill="#ecf3f6"/><path d="m226.86 351.62s2.08 13.91-4.75 21.21" stroke="#aac6ca" stroke-width="1.5"/><path d="m208.28 350.12c.229272 4.128065-.894215 8.21826-3.2 11.65l7 2.69 1.71-5.15-1-8.19z" fill="#baccd3" opacity=".3"/><path d="m210.9 348.88c1.334275 1.030406 2.350012 2.417079 2.93 4 .595618 1.597554.874144 3.295885.82 5-.031726 1.699793-.318248 3.385212-.85 5-.286582.787632-.637778 1.550228-1.05 2.28-.44739.725637-.977615 1.396808-1.58 2 .126003-.811515.32002-1.610998.58-2.39.09-.4.19-.78.31-1.15.126486-.369929.230017-.747313.31-1.13.43289-1.488349.691291-3.021975.77-4.57-.007264-1.541219-.202028-3.075829-.58-4.57-.384447-1.547384-.941262-3.04676-1.66-4.47z" fill="#aac6ca"/><g fill="#ecf3f6"><path d="m502.66 100.49 8.21-8.21h3.22v15.24z" stroke="#aac6ca" stroke-width="1.5"/><path d="m502.66 118.35 8.21 8.21h3.22v-15.24z" stroke="#aac6ca" stroke-width="1.5"/><path d="m450.06 124.64 2.11 7.54h18.3l2.12-7.54" stroke="#aac6ca" stroke-width="1.5"/><path d="m460.9 124.64c-13.15 0-24-1.44-31.38-4.17-9.14-3.39-11.06-7.88-11.06-11 0-7.85 10.94-16.23 41.63-16.23 2.13 0 4.36 0 6.61.13 20.66.76 50 9.21 50 16.1 0 6.27-27.15 14.48-50.08 15.14-2 .06-3.89.08-5.73.08"/><path d="m446.52 166.94h30.48v30.48h-30.48z" stroke="#aac6ca" stroke-width="1.5"/><path d="m461.32 132.18v26.74" stroke="#aac6ca" stroke-width="1.5"/></g><path d="m469.33 166.93-8.01-8.01-8 8.01" stroke="#aac6ca" stroke-width="1.5"/><path d="m459.06 188.07v1.11c-1.65 0-2.92-.61-2.92-2.68 0-1.7.23-2.47-.16-3.13-.250022-.537428-.809468-.861108-1.4-.81v-1.11c.595358.047776 1.156228-.28474 1.4-.83.39-.66.16-1.43.16-3.13 0-2.07 1.27-2.72 2.92-2.68v1.11c-1.32 0-1.58.63-1.58 1.64 0 1.33.11 3.94-1.4 4.44 1.51.5 1.4 3.1 1.4 4.43 0 1.01.26 1.64 1.58 1.64z" fill="#aac6ca"/><path d="m466.41 182c-1.52-.5-1.4-3.11-1.4-4.44 0-1-.26-1.64-1.59-1.64v-1.11c1.66 0 2.93.61 2.93 2.68 0 1.7-.23 2.47.16 3.13.240173.543675.797455.876441 1.39.83v1.11c-.587698-.049748-1.143543.274162-1.39.81-.39.66-.16 1.43-.16 3.13 0 2.07-1.27 2.72-2.93 2.68v-1.11c1.33 0 1.59-.63 1.59-1.64-.01-1.33-.12-3.93 1.4-4.43z" fill="#aac6ca"/><path d="m460.41 96.83c2.12 0 4.35 0 6.61.13 18.81.69 44.81 7.76 49.32 14.22.416819-.514495.658548-1.148597.69-1.81 0-6.88-29.35-15.34-50-16.1-2.26-.08-4.49-.13-6.61-.13-30.7 0-41.63 8.38-41.63 16.23.000074.612707.070536 1.223377.21 1.82 1.64-7.25 13.14-14.36 41.41-14.36z" fill="#fff"/><path d="m461.22 124.64c-13.16 0-24-1.44-31.39-4.17-9.14-3.39-11.05-7.88-11.05-11 0-7.85 10.93-16.23 41.63-16.23 2.12 0 4.35 0 6.61.13 20.66.76 50 9.21 50 16.1 0 6.27-27.14 14.48-50.07 15.14-2 .06-3.89.08-5.74.08" stroke="#aac6ca" stroke-width="1.5"/><path d="m516.71 109.42h-98.26" stroke="#aac6ca" stroke-width="1.5"/><path d="m447.36 167.74h28.88v1.5h-28.88z" fill="#fff"/><path d="m207.62 363.52s-2-.24-2.1 1.37-.62-.24-.62-.24v-1.74l.58-.31z" fill="#aac6ca"/><path d="m182.85 353.93c1.016859.807947 1.28154 2.242348.62 3.36l2.29-2.29-1-.69z" fill="#aac6ca"/><path d="m192.19 343.16c1.466479.396954 3.034161.020108 4.16-1l-1 1.87h-1.08z" fill="#aac6ca"/><path d="m185.19 357.29s1.17-1.66 4.74-.5l-4.17-1.79z" fill="#aac6ca"/><path d="m176.26 438.5s1 2.82-.7 3.14l3.68 2.15v-1.17z" fill="#aac6ca"/><path d="m244.93 521.7v-48.22c-10.54-12.23-22.88-23-32.57-34.45-4.682289 1.000737-9.46248 1.47037-14.25 1.4-10.26 0-16-1.62-21.23-3.45 13 29.37 44.31 52.51 41.63 84.6z" fill="#baccd3" opacity=".3"/><path d="m308.71 471.33v51.59h-154.65v-75.21h154.65z" fill="#fff"/><path d="m150.72 437.81c23.41 0 23.41 8.46 46.82 8.46s23.4-8.46 46.81-8.46v95h-93.63" fill="#fff"/><path d="m150.72 437.81c23.41 0 23.41 8.46 46.82 8.46s23.4-8.46 46.81-8.46" stroke="#aac6ca" stroke-width="1.26"/><path d="m251.21 465.49c.318701.318325.682619.587894 1.08.8-.399192.205082-.763645.471672-1.08.79-1.336053 1.338-1.662661 3.382324-.81 5.07l5.69-5.69 3.24 2.41c6.127716 4.538849 14.502284 4.538849 20.63 0l3.47-2.58-3.43-2.59c-6.127716-4.538849-14.502284-4.538849-20.63 0l-3.24 2.41-5.69-5.69c-.862897 1.67932-.552577 3.722596.77 5.07z" fill="#baccd3" opacity=".3"/><path d="m137.92 412.2h15.19v10.43h-15.19z" fill="#fff"/></g></svg>