
<svg viewBox="0 0 623 555" version="1.1" xmlns="http://www.w3.org/2000/svg" xmlns:xlink="http://www.w3.org/1999/xlink">
  <g id="SVGS" stroke="none" stroke-width="1" fill="none" fill-rule="evenodd">
    <g id="Artboard" transform="translate(-147.000000, -1259.000000)">
      <g id="Hero-2" transform="translate(147.000000, 1259.000000)">
        <path d="M45.38,400.17 C45.38,400.17 55.75,414.82 40.32,429.47 L76.27,430.71 L76.27,386.12 L45.38,400.17" id="Path" fill="#ECF3F6"></path>
        <path d="M45.38,400.17 C45.38,400.17 55.75,414.82 40.32,429.47 L76.27,430.71 L76.27,386.12 L45.38,400.17" id="Path" fill="#BACCD3" opacity="0.3" style="mix-blend-mode: multiply;"></path>
        <path d="M45.38,400.17 C45.38,400.17 55.75,414.82 40.32,429.47 L76.27,430.71 L76.27,386.12 L45.38,400.17" id="Path" stroke="#AAC6CA" stroke-width="1.5"></path>
        <path d="M56.34,398.73 C56.34,398.73 66,412.2 53,432.49 L74.86,439.73 C74.86,439.73 89.23,415.65 80.43,394.73" id="Path" fill="#ECF3F6"></path>
        <path d="M124.07,338.42 C123.79,305.92 97.35,280.74 64.79,280.74 C32.04,280.74 5.51,306.2 5.51,338.94 C5.50977029,370.14854 29.7101406,396.010664 60.85,398.08 L83.63,417.14 L100.16,422.63 L124.09,386.29 L124.09,338.42 L124.07,338.42 Z" id="Path" fill="#ECF3F6"></path>
        <circle id="Oval" fill="#AAC6CA" cx="69.45" cy="359.39" r="6.06"></circle>
        <circle id="Oval" fill="#FFFFFF" cx="70.32" cy="357.84" r="1.73"></circle>
        <circle id="Oval" fill="#AAC6CA" cx="115.33" cy="359.39" r="6.06"></circle>
        <circle id="Oval" fill="#FFFFFF" cx="116.2" cy="357.84" r="1.73"></circle>
        <ellipse id="Oval" fill="#BACCD3" opacity="0.3" style="mix-blend-mode: multiply;" transform="translate(24.771446, 309.864541) rotate(-47.400000) translate(-24.771446, -309.864541) " cx="24.7714457" cy="309.864541" rx="6.38" ry="4.26"></ellipse>
        <ellipse id="Oval" fill="#BACCD3" opacity="0.3" style="mix-blend-mode: multiply;" transform="translate(40.481234, 303.135081) rotate(-47.400000) translate(-40.481234, -303.135081) " cx="40.4812338" cy="303.135081" rx="6.38" ry="4.26"></ellipse>
        <path d="M26.28,294.49 C23.34,296.43 23.09,297.6 24.82,299.19 C26.55,300.78 29.89,299.97 32.28,297.37 C34.67,294.77 35.19,291.37 33.46,289.8 C31.73,288.23 29.69,292.24 26.28,294.49 Z" id="Path" fill="#BACCD3" opacity="0.3" style="mix-blend-mode: multiply;"></path>
        <path d="M5.5,340.52 C3.69,319.44 17.76,303.89 17.76,303.89 C12.31,313.76 12.28,325.14 12.28,325.14 C12.18,327.88 12.18,330.48 12.28,332.93 C12.95,353.88 29.16,370.52 49.9,373.56 C49.9,373.56 57.27,375.36 55.14,383.56 C55.14,383.56 52.67,392.56 41.27,390.89 L32.48,391.09 L30.08,388.54 L20.68,380.73 L15.19,373.47 L8.39,359.1 L5.5,340.52 Z" id="Path" fill="#BACCD3" opacity="0.3" style="mix-blend-mode: multiply;"></path>
        <ellipse id="Oval" fill="#FFFFFF" cx="66.55" cy="372.03" rx="7.3" ry="3"></ellipse>
        <path d="M27.19,292.08 C27.19,292.08 78.82,265.54 118.48,314.08 C118.48,314.08 105.87,286.33 79.29,282.37 C79.29,282.37 49.27,274.86 27.19,292.08 Z" id="Path" fill="#FFFFFF"></path>
        <path d="M124.09,386.72 L124.09,339.52 C123.81232,307.350703 97.9354364,281.26998 65.7693079,280.7399 C33.6031795,280.20982 6.8809887,305.423738 5.54348208,337.566418 C4.20597546,369.709098 28.741033,397.05591 60.84,399.2" id="Path" stroke="#AAC6CA" stroke-width="1.5"></path>
        <path d="M123.67,363.31 C126.956514,365.815757 128.616275,369.913413 128,374 C126.93,381 119,399.17 137.07,411.56 L137.07,427.88 C137.07,427.88 109,435 100.6,401.18" id="Path" stroke="#AAC6CA" stroke-width="1.5" fill="#ECF3F6"></path>
        <circle id="Oval" fill="#BACCD3" opacity="0.3" style="mix-blend-mode: multiply;" cx="84.74" cy="371.06" r="1.14"></circle>
        <circle id="Oval" fill="#BACCD3" opacity="0.3" style="mix-blend-mode: multiply;" cx="90.09" cy="366.24" r="1.14"></circle>
        <circle id="Oval" fill="#BACCD3" opacity="0.3" style="mix-blend-mode: multiply;" cx="94.83" cy="371.06" r="1.14"></circle>
        <circle id="Oval" fill="#BACCD3" opacity="0.3" style="mix-blend-mode: multiply;" cx="99.59" cy="366.24" r="1.14"></circle>
        <circle id="Oval" fill="#BACCD3" opacity="0.3" style="mix-blend-mode: multiply;" cx="104.33" cy="371.06" r="1.14"></circle>
        <path d="M57,398.22 C58.7787729,400.791949 60.0295873,403.691255 60.68,406.75 C61.3314601,409.767723 61.4968758,412.870113 61.17,415.94 C60.8309754,418.992531 60.0843277,421.985848 58.95,424.84 C57.8315181,427.692248 56.4312496,430.425787 54.77,433 L54.38,431.8 L72.86,439 L71.86,439.28 C73.7087855,436.421137 75.3112202,433.410299 76.65,430.28 C78.0527478,427.125113 79.17378,423.852368 80,420.5 C80.8385403,417.183164 81.3311703,413.788373 81.47,410.37 C81.5334311,408.659318 81.4967017,406.94639 81.36,405.24 C81.1344516,403.502847 81.0808587,401.747678 81.2,400 C82.0694872,401.562232 82.5849817,403.296479 82.71,405.08 C82.9065648,406.83956 82.9933994,408.60965 82.97,410.38 C82.9273787,413.923792 82.5117543,417.453248 81.73,420.91 C80.907354,424.333479 79.7898478,427.679306 78.39,430.91 C77.69,432.54 76.89,434.11 76.04,435.66 C75.2004239,437.227043 74.2583782,438.736988 73.22,440.18 L72.85,440.7 L72.26,440.47 L53.78,433.23 L52.85,432.86 L53.39,432.02 C54.9802635,429.549435 56.320225,426.92646 57.39,424.19 C58.4679533,421.469949 59.1775674,418.61804 59.5,415.71 C59.8128825,412.817366 59.6575579,409.893211 59.04,407.05 C58.722836,405.66543 58.2879201,404.3105 57.74,403 C57.2217447,401.682616 56.5504748,400.430698 55.74,399.27 L57,398.22 Z" id="Path" fill="#AAC6CA"></path>
        <path d="M110.16,379.42 C120.772176,395.653818 122.905576,416.008606 115.89,434.09 L97.47,438.37 C106.88,406.51 95.83,385.76 95.83,385.76" id="Path" fill="#ECF3F6"></path>
        <path d="M29.3,388.51 C29.3,388.51 31,390.32 28.37,391.51 L32.89,391.27 L32.43,390 L29.3,388.51 Z" id="Path" fill="#AAC6CA"></path>
        <path d="M110.16,379.42 C110.16,379.42 117.45,403.29 113.16,422.63 L119.11,422.63 C119.11,422.63 123.11,397.87 111.89,382.06" id="Path" fill="#FFFFFF"></path>
        <path d="M93.63,420.11 C93.63,420.11 100.09,398.78 94.54,384.78 C94.54,384.78 99.21,391.45 101.26,417.78 L93.63,420.11 Z" id="Path" fill="#FFFFFF"></path>
        <ellipse id="Oval" fill="#FFFFFF" cx="118.19" cy="372.03" rx="7.3" ry="3"></ellipse>
        <path d="M136.38,412.08 C136.38,412.08 122.55,404.49 124.48,387.55 C124.48,387.55 119.15,404.46 136.38,415.55 L136.38,412.08 Z" id="Path" fill="#FFFFFF"></path>
        <path d="M48,417.6 C48,417.6 71.82,418.01 77.16,396.93 C77.16,396.93 57.78,408.84 48.91,404.82 L48,417.6 Z" id="Path" fill="#BACCD3" opacity="0.3" style="mix-blend-mode: multiply;"></path>
        <path d="M55.91,381.29 C55.91,381.29 57.91,392.29 39.7,391.37 C26.41,390.73 19.03,395.37 15.6,399.37 C15.040991,400.048339 14.9904028,401.012153 15.4753272,401.745285 C15.9602516,402.478417 16.8670099,402.809002 17.71,402.56 C24.8610634,400.320989 32.5136891,400.240984 39.71,402.33 C47.8,404.8 69.02,410.78 77.63,396.14" id="Path" fill="#ECF3F6"></path>
        <path d="M16.62,401.13 C16.62,401.13 30.56,396.06 36.46,397.13 C42.36,398.2 60.76,404.07 70.46,396.98 C80.16,389.89 75.09,399.51 75.09,399.51 C70.1236872,403.638394 63.8259121,405.82058 57.37,405.65 L50.81,405.65 L44.11,403.56 L39.7,402.32 L35.26,401.41 L30.26,400.81 L24.4,401.12 L19.09,402.17 L16.62,401.13 Z" id="Path" fill="#FFFFFF"></path>
        <path d="M56,381.25 C56.6519345,383.878242 55.8424569,386.654139 53.88,388.52 C51.8662846,390.261881 49.3818254,391.368404 46.74,391.7 C44.2026392,392.084888 41.6318692,392.202198 39.07,392.05 C36.5935817,391.950733 34.1132727,392.077928 31.66,392.43 C26.7504463,392.982184 22.0976182,394.91335 18.24,398 C17.7785378,398.386345 17.3379174,398.796924 16.92,399.23 L16.32,399.89 C16.1926506,400.029779 16.1001365,400.197675 16.05,400.38 C15.9559774,400.732474 16.0462458,401.108592 16.29,401.38 C16.5144939,401.660274 16.8616606,401.813326 17.22,401.79 C17.3115325,401.783063 17.4020532,401.7663 17.49,401.74 L17.96,401.6 L18.88,401.34 C19.5,401.17 20.13,401.02 20.76,400.87 C22.01,400.59 23.28,400.37 24.56,400.21 C29.698855,399.566166 34.9153927,399.995203 39.88,401.47 C44.6147019,403.016766 49.5091311,404.02316 54.47,404.47 C59.4035191,404.928956 64.3763499,404.241042 69,402.46 C71.2534482,401.523547 73.3508961,400.248892 75.22,398.68 C77.1280574,397.082381 78.9007621,395.329745 80.52,393.44 C79.5582031,395.840767 78.0679894,397.994058 76.16,399.74 C74.225907,401.487192 72.007261,402.890756 69.6,403.89 C64.7676844,405.773193 59.5668165,406.519107 54.4,406.07 C49.3012049,405.681316 44.2662518,404.691108 39.4,403.12 C34.6572321,401.735941 29.678246,401.354514 24.78,402 C23.56,402.16 22.34,402.34 21.14,402.61 C20.54,402.74 19.93,402.87 19.34,403.04 C19.04,403.11 18.74,403.19 18.45,403.28 L18,403.41 C17.7874216,403.467697 17.5697258,403.504538 17.35,403.52 C16.1683836,403.634383 15.0396175,403.004337 14.5167376,401.938553 C13.9938578,400.872768 14.1863885,399.594487 15,398.73 L15.67,398.01 C16.15,397.54 16.62,397.09 17.13,396.67 C21.2423049,393.452113 26.1769612,391.456072 31.37,390.91 C33.9118967,390.573533 36.4789103,390.466434 39.04,390.59 C41.5056838,390.759877 43.9823515,390.672741 46.43,390.33 C48.8177622,390.028996 51.0821478,389.097008 52.99,387.63 C54.87227,386.041387 55.9708289,383.71288 56,381.25 Z" id="Path" fill="#AAC6CA"></path>
        <path d="M117.27,393.47 C117.27,393.47 121.92,420.11 137.11,420.11 L137.92,430.71 L119.07,422.63 C119.07,422.63 120.28,402 117.27,393.47 Z" id="Path" fill="#BACCD3" opacity="0.3" style="mix-blend-mode: multiply;"></path>
        <path d="M109.87,379.42 C112.985626,383.108876 115.362181,387.362908 116.87,391.95 C118.514495,396.471924 119.625351,401.170406 120.18,405.95 C120.713622,410.752196 120.656529,415.601698 120.01,420.39 C119.329395,425.167164 118.094398,429.84874 116.33,434.34 L116.15,434.8 L115.8,434.8 L97.34,439.1 L96.11,439.39 L96.45,438.16 C97.6079561,433.886629 98.4963716,429.544749 99.11,425.16 C99.7509953,420.780199 100.03859,416.355927 99.97,411.93 C99.9196116,407.492125 99.4947706,403.066419 98.7,398.7 C98.2967009,396.528502 97.7826973,394.379033 97.16,392.26 C96.406033,390.152341 95.863367,387.974977 95.54,385.76 C97.1044023,387.454844 98.2124149,389.519464 98.76,391.76 C99.447924,393.92177 100.022045,396.118117 100.48,398.34 C101.406436,402.789523 101.915313,407.315842 102,411.86 C102.027292,416.392746 101.692897,420.920444 101,425.4 C100.302323,429.866482 99.2625983,434.272775 97.89,438.58 L97,437.64 L115.42,433.36 L114.89,433.82 C116.50232,429.40564 117.64529,424.833762 118.3,420.18 C118.928995,415.53877 119.006199,410.839386 118.53,406.18 C118.072852,401.494851 117.065927,396.879779 115.53,392.43 C113.933242,387.972888 112.04242,383.62667 109.87,379.42 Z" id="Path" fill="#AAC6CA"></path>
        <circle id="Oval" fill="#F1F6F8" cx="215.08" cy="140.3" r="139.78"></circle>
        <path d="M55.51,109.14 C57.8928526,93.4857644 69.8925821,81.0380446 85.4490076,78.0832682 C101.005433,75.1284918 116.733452,82.3096227 124.69,96 C130.320843,93.132613 136.943515,92.9531563 142.721378,95.5113978 C148.499241,98.0696393 152.818018,103.093598 154.48,109.19 L55.51,109.14 Z" id="Path" fill="#FFFFFF"></path>
        <path d="M409.39,179.33 C406.479396,160.088699 391.744478,144.778148 372.628784,141.132673 C353.513089,137.487197 334.177643,146.30033 324.39,163.12 C317.469886,159.597084 309.331402,159.377053 302.231047,162.520914 C295.130691,165.664775 289.823147,171.838374 287.78,179.33 L409.39,179.33 Z" id="Path" fill="#FFFFFF"></path>
        <path d="M156.66,179.91 L523.35,179.91 C534.147167,179.91 542.9,188.662833 542.9,199.46 L542.9,427.91 L137.11,427.91 L137.11,199.46 C137.11,188.662833 145.862833,179.91 156.66,179.91 Z" id="Path" stroke="#AAC6CA" stroke-width="1.5" fill="#FFFFFF"></path>
        <rect id="Rectangle" stroke="#AAC6CA" stroke-width="1.5" fill="#FFFFFF" x="153.91" y="197.1" width="370.04" height="230.81"></rect>
        <path d="M153.91,210.91 L523.95,210.91" id="Path" stroke="#AAC6CA" stroke-width="1.5"></path>
        <path d="M514.88,204.34 L470.65,204.34" id="Path" stroke="#AAC6CA" stroke-width="1.5" fill="#FFFFFF"></path>
        <rect id="Rectangle" fill="#F1F6F8" x="360.42" y="228.78" width="152.8" height="200.69" rx="6.77"></rect>
        <path d="M524.86,179.94 L356.74,179.94 L544.410003,329.1 L544.41,199.5 C544.412653,194.313285 542.354098,189.338097 538.687474,185.669598 C535.020851,182.001098 530.046715,179.939999 524.86,179.94 Z" id="Path" fill="#BACCD3" opacity="0.1" style="mix-blend-mode: multiply;"></path>
        <rect id="Rectangle" fill="#ECF3F6" x="153.91" y="210.91" width="189.15" height="217"></rect>
        <path d="M343.06,210.91 L343.06,427.91" id="Path" stroke="#AAC6CA" stroke-width="1.5"></path>
        <rect id="Rectangle" stroke="#AAC6CA" stroke-width="1.5" x="153.91" y="210.91" width="189.15" height="217"></rect>
        <g id="Group" opacity="0.6" transform="translate(93.000000, 273.000000)" fill="#BACCD3">
          <path d="M234.31,140.89 C210.9,140.89 210.9,132.43 187.5,132.43 C164.1,132.43 164.09,140.89 140.69,140.89 C117.29,140.89 117.28,132.43 93.88,132.43 C70.48,132.43 70.47,140.89 47.07,140.89 C46.07,140.89 45.07,140.89 44.07,140.84 L44.07,195.69 L0.63,195.69 L0.81,227.45 L281.13,227.45 L281.13,132.45 C257.72,132.43 257.72,140.89 234.31,140.89 Z" id="Path" opacity="0.4" style="mix-blend-mode: multiply;"></path>
          <path d="M468.36,132.43 C462.429935,132.302127 456.514201,133.063925 450.81,134.69 L450.81,19.12 C450.812655,14.2232902 448.86862,9.52637437 445.406123,6.06387718 C441.943626,2.60137998 437.24671,0.657345237 432.35,0.66 L314.53,0.66 C304.334824,0.66 296.07,8.92482352 296.07,19.12 L296.07,134 C291.171443,132.876653 286.155066,132.349497 281.13,132.43 L281.68,179.94 L296.07,179.94 L296.07,222.8 L450.81,222.8 L450.81,179.94 L468.36,179.94 L468.36,132.43 Z" id="Path" opacity="0.4" style="mix-blend-mode: multiply;"></path>
        </g>
        <path d="M374.68,512 L374.13,417 C397.53,417 397.53,425.46 420.93,425.46 C444.33,425.46 444.34,417 467.74,417 C491.14,417 491.15,425.46 514.55,425.46 C537.95,425.46 538,417 561.36,417 C584.72,417 584.77,425.46 608.17,425.46" id="Path" fill="#FFFFFF"></path>
        <path d="M374.13,417 C397.53,417 397.53,425.46 420.93,425.46 C444.33,425.46 444.34,417 467.74,417 C491.14,417 491.15,425.46 514.55,425.46 C537.95,425.46 538,417 561.36,417" id="Path" stroke="#AAC6CA" stroke-width="1.26"></path>
        <path d="M423.49,257.7 L541.31,257.7 C551.505176,257.7 559.77,265.964824 559.77,276.16 L559.77,479.84 L405,479.84 L405,276.16 C404.999994,271.258901 406.948998,266.558976 410.417411,263.096191 C413.885824,259.633406 418.588908,257.692035 423.49,257.7 Z" id="Path" stroke="#AAC6CA" stroke-width="1.5" fill="#ECF3F6"></path>
        <path d="M540.17,267 L517.72,267 C517.72,272.136248 513.556248,276.3 508.42,276.3 L454.85,276.3 C449.713752,276.3 445.55,272.136248 445.55,267 L423.1,267 C420.637057,266.999999 418.275136,267.979083 416.534511,269.721584 C414.793886,271.464085 413.817346,273.827059 413.82,276.29 L413.819995,475.29 L549.46,475.29 L549.46,276.29 C549.46,273.826139 548.481235,271.463191 546.739022,269.720978 C544.996809,267.978765 542.633861,267 540.17,267 Z" id="Path" fill="#FFFFFF"></path>
        <path d="M540.17,267 L517.72,267 C517.72,272.136248 513.556248,276.3 508.42,276.3 L454.85,276.3 C449.713752,276.3 445.55,272.136248 445.55,267 L423.1,267 C420.637057,266.999999 418.275136,267.979083 416.534511,269.721584 C414.793886,271.464085 413.817346,273.827059 413.82,276.29 L413.819995,475.29 L549.46,475.29 L549.46,276.29 C549.46,273.826139 548.481235,271.463191 546.739022,269.720978 C544.996809,267.978765 542.633861,267 540.17,267 Z" id="Path" stroke="#AAC6CA" stroke-width="1.5"></path>
        <path d="M560.1,455.58 C550.75,453.09 545.78,449.02 529.53,449.02 C506.13,449.02 506.13,457.48 482.72,457.48 C459.31,457.48 459.32,449.02 435.92,449.02 C419.68,449.02 414.7,453.09 405.36,455.58 L405.36,483.58 L560.1,483.58 L560.1,455.58 Z" id="Path" fill="#BACCD3" opacity="0.2" style="mix-blend-mode: multiply;"></path>
        <path d="M342,459.8 C365.4,459.8 365.4,468.26 388.81,468.26 C412.22,468.26 412.21,459.8 435.61,459.8 C459.01,459.8 459.02,468.26 482.42,468.26 C505.82,468.26 505.83,459.8 529.23,459.8 C552.63,459.8 552.64,468.26 576.05,468.26 C599.46,468.26 599.46,459.8 622.86,459.8 L622.86,554.8 L342.52,554.8 L342,459.8 Z" id="Path" fill="#FFFFFF"></path>
        <path d="M342,459.8 C365.4,459.8 365.4,468.26 388.81,468.26 C412.22,468.26 412.21,459.8 435.61,459.8 C459.01,459.8 459.02,468.26 482.42,468.26 C505.82,468.26 505.83,459.8 529.23,459.8 C552.63,459.8 552.64,468.26 576.05,468.26 C599.46,468.26 599.46,459.8 622.86,459.8" id="Path" stroke="#AAC6CA" stroke-width="1.26"></path>
        <rect id="Rectangle" fill="#F1F6F8" x="427.01" y="345.19" width="108.81" height="88.29"></rect>
        <polygon id="Path" fill="#BACCD3" opacity="0.1" style="mix-blend-mode: multiply;" points="535.82 345.37 431.56 345.37 427 345.37 427 349.92 427 433.49 431.56 433.49 431.56 349.92 535.82 349.92"></polygon>
        <rect id="Rectangle" fill="#F1F6F8" x="427.01" y="296.16" width="108.81" height="33.86"></rect>
        <polygon id="Path" fill="#BACCD3" opacity="0.1" style="mix-blend-mode: multiply;" points="535.82 296.15 431.56 296.15 427 296.15 427 300.7 427 330.01 431.56 330.01 431.56 300.7 535.82 300.7"></polygon>
        <rect id="Rectangle" fill="#BACCD3" opacity="0.4" style="mix-blend-mode: multiply;" x="450.57" y="321.63" width="108.81" height="88.29" rx="2.98"></rect>
        <rect id="Rectangle" fill="#F1F6F8" x="461.92" y="310.27" width="108.81" height="88.29" rx="2.98"></rect>
        <circle id="Oval" fill="#FF8288" cx="162.45" cy="204.29" r="1.43"></circle>
        <circle id="Oval" fill="#FF8288" cx="168.27" cy="204.29" r="1.43"></circle>
        <circle id="Oval" fill="#FF8288" cx="174.08" cy="204.29" r="1.43"></circle>
        <path d="M186.85,257.03 L186.85,308.39" id="Path" stroke="#AAC6CA" stroke-width="1.5" opacity="0.3"></path>
        <path d="M186.85,325.02 L186.85,376.39" id="Path" stroke="#AAC6CA" stroke-width="1.5" opacity="0.3"></path>
        <path d="M186.85,315.83 L309.14,315.83" id="Path" stroke="#FF8288" stroke-width="2"></path>
        <path d="M185.22,250.34 L309.14,250.34" id="Path" stroke="#FF8288" stroke-width="2"></path>
        <path d="M201.91,266.08 L318.75,266.08" id="Path" stroke="#FF8288" stroke-width="2"></path>
        <path d="M220.39,282.77 L309.51,282.77" id="Path" stroke="#AAC6CA" stroke-width="2"></path>
        <path d="M220.39,298.68 L309.51,298.68" id="Path" stroke="#AAC6CA" stroke-width="2"></path>
        <path d="M201.91,333.52 L318.75,333.52" id="Path" stroke="#FF8288" stroke-width="2"></path>
        <path d="M220.39,350.21 L309.51,350.21" id="Path" stroke="#AAC6CA" stroke-width="2"></path>
        <path d="M220.39,366.88 L309.51,366.88" id="Path" stroke="#AAC6CA" stroke-width="2"></path>
        <path d="M283.59,385.06 L309.51,385.06" id="Path" stroke="#AAC6CA" stroke-width="2"></path>
        <path d="M459.16,268.48 L500.87,268.48" id="Path" stroke="#FFFFFF" stroke-width="1.5"></path>
        <polygon id="Path" fill="#FFFFFF" points="507.94 310.27 570.73 373.07 570.73 397.8 563.13 398.57 474.18 310.79"></polygon>
        <polygon id="Path" fill="#FFFFFF" points="521.95 310.27 571.41 359.74 571.41 313.26 567.75 310.27"></polygon>
        <polyline id="Path" stroke="#FF8288" stroke-width="2" points="503.62 343.6 493.04 354.17 503.62 364.74"></polyline>
        <polyline id="Path" stroke="#FF8288" stroke-width="2" points="531.43 364.74 542.01 354.17 531.43 343.6"></polyline>
        <path d="M524.79,339.46 L509.96,369.39" id="Path" stroke="#FF8288" stroke-width="2"></path>
        <rect id="Rectangle" stroke="#AAC6CA" stroke-width="1.5" x="461.92" y="310.27" width="108.81" height="88.29" rx="2.98"></rect>
        <path d="M264.55,95.57 C259.767214,95.57 255.89,99.4472141 255.89,104.23" id="Path" stroke="#FF8288" stroke-width="1.26"></path>
        <path d="M246.86,95.57 C251.642786,95.57 255.52,99.4472141 255.52,104.23" id="Path" stroke="#FF8288" stroke-width="1.26"></path>
        <path d="M580.26,141.22 C575.477214,141.22 571.6,145.097214 571.6,149.88" id="Path" stroke="#FF8288" stroke-width="1.26"></path>
        <path d="M562.57,141.22 C567.352786,141.22 571.23,145.097214 571.23,149.88" id="Path" stroke="#FF8288" stroke-width="1.26"></path>
        <path d="M229,61.14 C224.217214,61.14 220.34,65.0172141 220.34,69.8" id="Path" stroke="#FF8288" stroke-width="1.26"></path>
        <path d="M211.27,61.14 C216.052786,61.14 219.93,65.0172141 219.93,69.8" id="Path" stroke="#FF8288" stroke-width="1.26"></path>
        <path d="M93.26,417 C116.67,417 116.67,425.46 140.07,425.46 C163.47,425.46 163.47,417 186.88,417 C210.29,417 210.28,425.46 233.69,425.46 C257.1,425.46 257.09,417 280.5,417 C303.91,417 303.9,425.46 327.31,425.46 C350.72,425.46 350.72,417 374.13,417 L374.13,512 L93.81,512 L93.26,417 Z" id="Path" fill="#FFFFFF"></path>
        <path d="M93.26,417 C116.67,417 116.67,425.46 140.07,425.46 C163.47,425.46 163.47,417 186.88,417 C210.29,417 210.28,425.46 233.69,425.46 C257.1,425.46 257.09,417 280.5,417 C303.91,417 303.9,425.46 327.31,425.46 C350.72,425.46 350.72,417 374.13,417" id="Path" stroke="#AAC6CA" stroke-width="1.26"></path>
        <path d="M0,417 C23.41,417 23.41,425.46 46.81,425.46 C70.21,425.46 70.22,417 93.63,417 L93.63,512 L0,512" id="Path" fill="#FFFFFF"></path>
        <path d="M0,417 C23.41,417 23.41,425.46 46.81,425.46 C70.21,425.46 70.22,417 93.63,417" id="Path" stroke="#AAC6CA" stroke-width="1.26"></path>
        <path d="M398.13,503.54 C398.446355,503.858328 398.810808,504.124918 399.21,504.33 C398.810808,504.535082 398.446355,504.801672 398.13,505.12 C396.795162,506.462701 396.468921,508.508758 397.32,510.2 L403.01,504.51 L406.25,506.91 C412.374477,511.45865 420.755523,511.45865 426.88,506.91 L430.35,504.33 L426.88,501.75 C420.755523,497.20135 412.374477,497.20135 406.25,501.75 L403.01,504.15 L397.32,498.46 C396.465692,500.15074 396.79225,502.198782 398.13,503.54 Z" id="Path" fill="#BACCD3" opacity="0.3" style="mix-blend-mode: multiply;"></path>
        <path d="M441.35,520.91 C441.672533,521.225472 442.039815,521.491668 442.44,521.7 C442.037704,521.904898 441.669927,522.171452 441.35,522.49 C440.01225,523.831218 439.685692,525.87926 440.54,527.57 L446.23,521.88 L449.47,524.28 C455.594477,528.82865 463.975523,528.82865 470.1,524.28 L473.58,521.7 L470.1,519.12 C463.975523,514.57135 455.594477,514.57135 449.47,519.12 L446.23,521.52 L440.54,515.83 C439.688921,517.521242 440.015162,519.567299 441.35,520.91 Z" id="Path" fill="#BACCD3" opacity="0.3" style="mix-blend-mode: multiply;"></path>
        <path d="M343.06,227 L343.06,210.91 L153.91,210.91 L153.91,424.18 L170,417.24 L170,411.42 L205.08,337 C205.08,337 186.74,339.3 170,355 L170,227 L343.06,227 Z" id="Path" fill="#BACCD3" opacity="0.3" style="mix-blend-mode: multiply;"></path>
        <path d="M201.24,360.3 C201.24,360.3 185.65,384.06 198.15,417.13 C211.46,452.33 263.25,473.13 266.68,521.7 L217.94,521.48 C220.94,485.14 180.33,460.28 172.25,424.84 C164.17,389.4 184,357.76 184,357.76 C184,357.76 195.68,337.03 212.34,336.58 C229,336.13 228.83,361.73 223.45,371.14 C218.07,380.55 202.45,374.91 205.07,361.77" id="Path" fill="#ECF3F6"></path>
        <path d="M198.92,353.93 C198.92,353.93 178.73,379.11 188.36,419.5 C196.79,454.86 246.05,481.12 243.02,517.5 L266.68,521.74 C263.78,476.69 211.07,450.88 198.33,417.17 C185.82,384.1 201.41,360.34 201.41,360.34 L198.92,353.93 Z" id="Path" fill="#FFFFFF" opacity="0.8"></path>
        <polygon id="Path" fill="#BACCD3" opacity="0.3" style="mix-blend-mode: multiply;" points="182.85 360.49 198.68 365.36 202.54 358.56 187.06 353.26"></polygon>
        <path d="M201.86,360.71 C199.937621,364.007911 198.388091,367.509445 197.24,371.15 C196.61,372.96 196.17,374.83 195.7,376.69 C195.23,378.55 194.9,380.44 194.7,382.35 C193.653239,389.972014 193.917038,397.716876 195.48,405.25 L196.85,410.85 L198.67,416.32 C200.011721,419.908171 201.685658,423.363177 203.67,426.64 C207.827015,433.14521 212.627848,439.215768 218,444.76 C228.55,456.06 240.22,466.46 249.78,478.85 C254.642188,484.974863 258.701735,491.695968 261.86,498.85 C262.68,500.63 263.28,502.5 263.98,504.33 L264.83,507.15 L265.25,508.56 L265.59,509.99 C266.51731,513.803669 267.132675,517.686488 267.43,521.6 L267.51,522.4 L266.68,522.4 L217.93,522.18 L217.15,522.18 L217.15,521.37 C217.569736,515.45992 216.891642,509.523206 215.15,503.86 C213.412535,498.20695 211.01253,492.779246 208,487.69 C202,477.39 194.49,467.98 187.64,458.08 C184.151496,453.148316 180.972065,448.005119 178.12,442.68 C175.223764,437.308851 173.00675,431.598361 171.52,425.68 C170.150887,419.753586 169.449851,413.692472 169.43,407.61 C169.380092,401.539733 169.95986,395.480656 171.16,389.53 C172.332641,383.582994 174.005247,377.745599 176.16,372.08 C178.293046,366.3879 180.972213,360.915702 184.16,355.74 C187.440728,350.571412 191.537125,345.968453 196.29,342.11 C198.705985,340.174914 201.382216,338.589374 204.24,337.4 C207.133263,336.179597 210.250453,335.580006 213.39,335.64 C214.998708,335.675422 216.589028,335.990103 218.09,336.57 C219.591272,337.166942 220.96812,338.038494 222.15,339.14 C224.415435,341.367785 226.050819,344.155527 226.89,347.22 C227.758789,350.194205 228.176767,353.281855 228.13,356.38 C228.12445,359.465605 227.704016,362.536453 226.88,365.51 C226.453834,367.006788 225.894951,368.462561 225.21,369.86 C224.521731,371.310699 223.572622,372.622502 222.41,373.73 C221.205475,374.844064 219.751559,375.653319 218.17,376.09 C216.593256,376.507346 214.943434,376.56883 213.34,376.27 C210.116211,375.665491 207.317834,373.681786 205.68,370.84 C204.138566,368.012317 203.690139,364.716736 204.42,361.58 L205.89,361.87 C205.240263,364.656727 205.635204,367.584978 207,370.1 C208.425531,372.527165 210.839768,374.210921 213.61,374.71 C216.355364,375.239672 219.188858,374.430103 221.24,372.53 C222.241498,371.553234 223.055003,370.400767 223.64,369.13 C224.273364,367.827542 224.782291,366.468171 225.16,365.07 C225.931018,362.247958 226.321143,359.335473 226.32,356.41 C226.362376,353.493677 225.964567,350.587647 225.14,347.79 C224.390294,345.033834 222.923898,342.525435 220.89,340.52 C218.823651,338.606874 216.11595,337.536637 213.3,337.52 C210.420079,337.481309 207.563375,338.039711 204.91,339.16 C202.220323,340.29371 199.702566,341.798305 197.43,343.63 C192.853102,347.367473 188.912032,351.821861 185.76,356.82 C182.665821,361.890429 180.070355,367.248812 178.01,372.82 C175.894964,378.399838 174.249254,384.146445 173.09,390 C171.902513,395.821036 171.319419,401.749154 171.35,407.69 C171.359075,413.622751 172.029889,419.535977 173.35,425.32 C174.782887,431.076464 176.925995,436.63242 179.73,441.86 C182.542649,447.094584 185.675254,452.150836 189.11,457 C195.89,466.86 203.4,476.31 209.47,486.78 C212.559278,492.012935 215.013282,497.595711 216.78,503.41 C218.522127,509.27155 219.169598,515.403873 218.69,521.5 L217.94,520.68 L266.68,520.9 L265.93,521.7 C265.64116,517.87054 265.039147,514.071172 264.13,510.34 L263.8,508.94 L263.39,507.56 L262.56,504.81 C261.87,503.02 261.29,501.18 260.48,499.44 C257.37041,492.387344 253.378533,485.757737 248.6,479.71 C239.15,467.47 227.53,457.1 216.9,445.71 C211.470071,440.090874 206.618997,433.939927 202.42,427.35 C200.37148,423.994753 198.647034,420.452105 197.27,416.77 L195.41,411.19 L194.01,405.48 C192.410082,397.782788 192.139509,389.868508 193.21,382.08 C193.42,380.08 193.86,378.21 194.21,376.28 C194.56,374.35 195.15,372.47 195.8,370.61 L196.25,369.21 L196.77,367.83 L197.29,366.46 L197.88,365.1 C198.655104,363.277082 199.560791,361.512496 200.59,359.82 L201.86,360.71 Z" id="Path" fill="#AAC6CA"></path>
        <polygon id="Path" stroke="#AAC6CA" stroke-width="1.5" fill="#ECF3F6" points="274.02 388.07 283.59 385.34 278.37 376.86 173.77 336.95 169.42 348.16"></polygon>
        <polygon id="Path" fill="#FFFFFF" points="274.02 388.16 283.59 385.43 278.37 376.95 173.77 337.04 169.42 348.24"></polygon>
        <polyline id="Path" fill="#FFFFFF" points="278.12 377.12 283.05 385.13 274 387.71"></polyline>
        <polygon id="Path" stroke="#AAC6CA" stroke-width="1.5" points="274.02 388.07 283.59 385.34 278.37 376.86 173.77 336.95 169.42 348.16"></polygon>
        <path d="M165.08,346.47 L171.86,349.1 C172.92,349.52 174.76,347.35 175.96,344.25 C177.16,341.15 177.28,338.31 176.21,337.9 L169.44,335.27 L165.08,346.47 Z" id="Path" stroke="#AAC6CA" stroke-width="1.5" fill="#FFFFFF"></path>
        <ellipse id="Oval" stroke="#AAC6CA" stroke-width="1.5" fill="#FFFFFF" transform="translate(166.582079, 340.621167) rotate(-68.770000) translate(-166.582079, -340.621167) " cx="166.582079" cy="340.621167" rx="6.01" ry="2.07"></ellipse>
        <path d="M273.17,387.74 C274.24,388.15 276.08,385.98 277.28,382.89 C278.48,379.8 278.59,376.95 277.53,376.53" id="Path" stroke="#AAC6CA" stroke-width="1.5"></path>
        <path d="M226.51,355.5 C226.51,355.5 226.89,365.5 223.51,369.68 C220.13,373.86 211.76,366.43 211.76,366.43 C213.028529,361.431517 213.38758,356.245608 212.82,351.12" id="Path" fill="#ECF3F6"></path>
        <path d="M226.86,351.62 C226.86,351.62 228.94,365.53 222.11,372.83" id="Path" stroke="#AAC6CA" stroke-width="1.5"></path>
        <path d="M208.28,350.12 C208.509272,354.248065 207.385785,358.33826 205.08,361.77 L212.08,364.46 L213.79,359.31 L212.79,351.12 L208.28,350.12 Z" id="Path" fill="#BACCD3" opacity="0.3" style="mix-blend-mode: multiply;"></path>
        <path d="M210.9,348.88 C212.234275,349.910406 213.250012,351.297079 213.83,352.88 C214.425618,354.477554 214.704144,356.175885 214.65,357.88 C214.618274,359.579793 214.331752,361.265212 213.8,362.88 C213.513418,363.667632 213.162222,364.430228 212.75,365.16 C212.30261,365.885637 211.772385,366.556808 211.17,367.16 C211.296003,366.348485 211.49002,365.549002 211.75,364.77 C211.84,364.37 211.94,363.99 212.06,363.62 C212.186486,363.250071 212.290017,362.872687 212.37,362.49 C212.80289,361.001651 213.061291,359.468025 213.14,357.92 C213.132736,356.378781 212.937972,354.844171 212.56,353.35 C212.175553,351.802616 211.618738,350.30324 210.9,348.88 Z" id="Path" fill="#AAC6CA"></path>
        <polygon id="Path" stroke="#AAC6CA" stroke-width="1.5" fill="#ECF3F6" points="502.66 100.49 510.87 92.28 514.09 92.28 514.09 107.52"></polygon>
        <polygon id="Path" stroke="#AAC6CA" stroke-width="1.5" fill="#ECF3F6" points="502.66 118.35 510.87 126.56 514.09 126.56 514.09 111.32"></polygon>
        <polyline id="Path" stroke="#AAC6CA" stroke-width="1.5" fill="#ECF3F6" points="450.06 124.64 452.17 132.18 470.47 132.18 472.59 124.64"></polyline>
        <path d="M460.9,124.64 C447.75,124.64 436.9,123.2 429.52,120.47 C420.38,117.08 418.46,112.59 418.46,109.47 C418.46,101.62 429.4,93.24 460.09,93.24 C462.22,93.24 464.45,93.24 466.7,93.37 C487.36,94.13 516.7,102.58 516.7,109.47 C516.7,115.74 489.55,123.95 466.62,124.61 C464.62,124.67 462.73,124.69 460.89,124.69" id="Path" fill="#ECF3F6"></path>
        <rect id="Rectangle" stroke="#AAC6CA" stroke-width="1.5" fill="#ECF3F6" x="446.52" y="166.94" width="30.48" height="30.48"></rect>
        <path d="M461.32,132.18 L461.32,158.92" id="Path" stroke="#AAC6CA" stroke-width="1.5" fill="#ECF3F6"></path>
        <polyline id="Path" stroke="#AAC6CA" stroke-width="1.5" points="469.33 166.93 461.32 158.92 453.32 166.93"></polyline>
        <path d="M459.06,188.07 L459.06,189.18 C457.41,189.18 456.14,188.57 456.14,186.5 C456.14,184.8 456.37,184.03 455.98,183.37 C455.729978,182.832572 455.170532,182.508892 454.58,182.56 L454.58,181.45 C455.175358,181.497776 455.736228,181.16526 455.98,180.62 C456.37,179.96 456.14,179.19 456.14,177.49 C456.14,175.42 457.41,174.77 459.06,174.81 L459.06,175.92 C457.74,175.92 457.48,176.55 457.48,177.56 C457.48,178.89 457.59,181.5 456.08,182 C457.59,182.5 457.48,185.1 457.48,186.43 C457.48,187.44 457.74,188.07 459.06,188.07 Z" id="Path" fill="#AAC6CA"></path>
        <path d="M466.41,182 C464.89,181.5 465.01,178.89 465.01,177.56 C465.01,176.56 464.75,175.92 463.42,175.92 L463.42,174.81 C465.08,174.81 466.35,175.42 466.35,177.49 C466.35,179.19 466.12,179.96 466.51,180.62 C466.750173,181.163675 467.307455,181.496441 467.9,181.45 L467.9,182.56 C467.312302,182.510252 466.756457,182.834162 466.51,183.37 C466.12,184.03 466.35,184.8 466.35,186.5 C466.35,188.57 465.08,189.22 463.42,189.18 L463.42,188.07 C464.75,188.07 465.01,187.44 465.01,186.43 C465,185.1 464.89,182.5 466.41,182 Z" id="Path" fill="#AAC6CA"></path>
        <path d="M460.41,96.83 C462.53,96.83 464.76,96.83 467.02,96.96 C485.83,97.65 511.83,104.72 516.34,111.18 C516.756819,110.665505 516.998548,110.031403 517.03,109.37 C517.03,102.49 487.68,94.03 467.03,93.27 C464.77,93.19 462.54,93.14 460.42,93.14 C429.72,93.14 418.79,101.52 418.79,109.37 C418.790074,109.982707 418.860536,110.593377 419,111.19 C420.64,103.94 432.14,96.83 460.41,96.83 Z" id="Path" fill="#FFFFFF"></path>
        <path d="M461.22,124.64 C448.06,124.64 437.22,123.2 429.83,120.47 C420.69,117.08 418.78,112.59 418.78,109.47 C418.78,101.62 429.71,93.24 460.41,93.24 C462.53,93.24 464.76,93.24 467.02,93.37 C487.68,94.13 517.02,102.58 517.02,109.47 C517.02,115.74 489.88,123.95 466.95,124.61 C464.95,124.67 463.06,124.69 461.21,124.69" id="Path" stroke="#AAC6CA" stroke-width="1.5"></path>
        <path d="M516.71,109.42 L418.45,109.42" id="Path" stroke="#AAC6CA" stroke-width="1.5"></path>
        <rect id="Rectangle" fill="#FFFFFF" x="447.36" y="167.74" width="28.88" height="1.5"></rect>
        <path d="M207.62,363.52 C207.62,363.52 205.62,363.28 205.52,364.89 C205.42,366.5 204.9,364.65 204.9,364.65 L204.9,362.91 L205.48,362.6 L207.62,363.52 Z" id="Path" fill="#AAC6CA"></path>
        <path d="M182.85,353.93 C183.866859,354.737947 184.13154,356.172348 183.47,357.29 L185.76,355 L184.76,354.31 L182.85,353.93 Z" id="Path" fill="#AAC6CA"></path>
        <path d="M192.19,343.16 C193.656479,343.556954 195.224161,343.180108 196.35,342.16 L195.35,344.03 L194.27,344.03 L192.19,343.16 Z" id="Path" fill="#AAC6CA"></path>
        <path d="M185.19,357.29 C185.19,357.29 186.36,355.63 189.93,356.79 L185.76,355 L185.19,357.29 Z" id="Path" fill="#AAC6CA"></path>
        <path d="M176.26,438.5 C176.26,438.5 177.26,441.32 175.56,441.64 L179.24,443.79 L179.24,442.62 L176.26,438.5 Z" id="Path" fill="#AAC6CA"></path>
        <path d="M244.93,521.7 L244.93,473.48 C234.39,461.25 222.05,450.48 212.36,439.03 C207.677711,440.030737 202.89752,440.50037 198.11,440.43 C187.85,440.43 182.11,438.81 176.88,436.98 C189.88,466.35 221.19,489.49 218.51,521.58 L244.93,521.7 Z" id="Path" fill="#BACCD3" opacity="0.3" style="mix-blend-mode: multiply;"></path>
        <polygon id="Path" fill="#FFFFFF" points="308.71 471.33 308.71 522.92 154.06 522.92 154.06 447.71 308.71 447.71"></polygon>
        <path d="M150.72,437.81 C174.13,437.81 174.13,446.27 197.54,446.27 C220.95,446.27 220.94,437.81 244.35,437.81 L244.35,532.81 L150.72,532.81" id="Path" fill="#FFFFFF"></path>
        <path d="M150.72,437.81 C174.13,437.81 174.13,446.27 197.54,446.27 C220.95,446.27 220.94,437.81 244.35,437.81" id="Path" stroke="#AAC6CA" stroke-width="1.26"></path>
        <path d="M251.21,465.49 C251.528701,465.808325 251.892619,466.077894 252.29,466.29 C251.890808,466.495082 251.526355,466.761672 251.21,467.08 C249.873947,468.418 249.547339,470.462324 250.4,472.15 L256.09,466.46 L259.33,468.87 C265.457716,473.408849 273.832284,473.408849 279.96,468.87 L283.43,466.29 L280,463.7 C273.872284,459.161151 265.497716,459.161151 259.37,463.7 L256.13,466.11 L250.44,460.42 C249.577103,462.09932 249.887423,464.142596 251.21,465.49 Z" id="Path" fill="#BACCD3" opacity="0.3" style="mix-blend-mode: multiply;"></path>
        <rect id="Rectangle" fill="#FFFFFF" x="137.92" y="412.2" width="15.19" height="10.43"></rect>
      </g>
    </g>
  </g>
</svg>
