<svg xmlns="http://www.w3.org/2000/svg" viewBox="0 0 508.59 409.08"><defs><style>.cls-1{isolation:isolate;}.cls-2{fill:#f1f6f8;}.cls-10,.cls-23,.cls-3,.cls-7{fill:#ecf3f6;}.cls-10,.cls-11,.cls-12,.cls-15,.cls-16,.cls-17,.cls-18,.cls-23,.cls-24,.cls-3,.cls-6{stroke:#aac6ca;}.cls-10,.cls-11,.cls-12,.cls-15,.cls-16,.cls-17,.cls-18,.cls-19,.cls-23,.cls-24,.cls-3,.cls-5,.cls-6{stroke-miterlimit:10;}.cls-15,.cls-16,.cls-3{stroke-width:1.65px;}.cls-20,.cls-22,.cls-4{fill:#baccd3;mix-blend-mode:multiply;}.cls-4{opacity:0.3;}.cls-11,.cls-15,.cls-17,.cls-18,.cls-19,.cls-5,.cls-6{fill:none;}.cls-5{stroke:#ff8288;}.cls-19,.cls-5,.cls-6{stroke-width:1.26px;}.cls-12,.cls-14,.cls-16,.cls-24,.cls-8{fill:#fff;}.cls-21,.cls-9{fill:#aac6ca;}.cls-10,.cls-11,.cls-12{stroke-width:1.5px;}.cls-13{fill:#ff8288;}.cls-14,.cls-18,.cls-20,.cls-21{fill-rule:evenodd;}.cls-17,.cls-23,.cls-24{stroke-width:2.01px;}.cls-18{stroke-width:2.5px;}.cls-19{stroke:#baccd3;}.cls-20,.cls-22{opacity:0.4;}</style></defs><title>source page illo</title><g class="cls-1"><g id="Layer_1" data-name="Layer 1"><path class="cls-2" d="M260.67,268.39a41.93,41.93,0,0,0-59.31,0l-6.72,6.72L167,247.44a63.57,63.57,0,0,0-89.91,0L15.48,309H301.29Z"/><rect class="cls-2" x="76.53" y="206.79" width="3.35" height="69.31"/><path class="cls-2" d="M73.22,187.43h9.71a0,0,0,0,1,0,0v16a4.86,4.86,0,0,1-4.86,4.86h0a4.86,4.86,0,0,1-4.86-4.86v-16A0,0,0,0,1,73.22,187.43Z"/><path class="cls-2" d="M78.2,190.77H46a41.07,41.07,0,0,1,22.45-6.68H78.2Z"/><path class="cls-2" d="M79.42,189.71,54.73,210.43h0a41.07,41.07,0,0,1,12.9-19.53l7.51-6.3Z"/><path class="cls-2" d="M79,190.17,54.08,169.68h0a41.08,41.08,0,0,1,21.56,9.11L83.21,185Z"/><path class="cls-2" d="M78.08,190.77h32.24a41,41,0,0,0-22.44-6.68h-9.8Z"/><path class="cls-2" d="M76.86,189.71l24.7,20.72h0A41.09,41.09,0,0,0,88.65,190.9l-7.5-6.3Z"/><path class="cls-2" d="M77.32,190.17l24.88-20.49h0a41.08,41.08,0,0,0-21.56,9.11L73.08,185Z"/><rect class="cls-3" x="141.75" y="176.8" width="64.58" height="64.58" rx="3.09"/><rect class="cls-4" x="141.75" y="176.82" width="64.58" height="64.58" rx="3.09"/><rect class="cls-3" x="131.26" y="176.8" width="64.58" height="64.58" rx="3.09"/><line class="cls-5" x1="143.6" y1="201.91" x2="187.68" y2="201.91"/><line class="cls-5" x1="145.6" y1="193.02" x2="189.68" y2="193.02"/><line class="cls-6" x1="159.48" y1="210.22" x2="180.25" y2="210.22"/><line class="cls-6" x1="149.4" y1="219.5" x2="180.25" y2="219.5"/><path class="cls-7" d="M151.21,227.77s-10.62,18.82.55,43.28c11.88,26,52.23,39.17,57.29,75.87l-37,2.31c.45-27.73-29.41-44.86-37.34-71.34S138,226.72,138,226.72s7.82-16.32,20.44-17.51,13.78,18.25,10.18,25.66-15.72,3.92-14.42-6.18"/><path class="cls-8" d="M149.55,223.05s-12.23,20.12-2.88,50.28c8.19,26.4,45.08,43.84,44.62,71.58l24.14,2c-4.48-34-47.18-50.94-58.56-75.87-11.16-24.46-5.12-43.24-5.12-43.24Z"/><path class="cls-9" d="M151.93,228a45.81,45.81,0,0,0-1.15,8.57,68.45,68.45,0,0,0,.15,8.71,72.72,72.72,0,0,0,3.52,17.05,81.86,81.86,0,0,0,3.19,8.12,45,45,0,0,0,4.33,7.48,87.27,87.27,0,0,0,11.71,12.93c8.55,8,17.9,15.33,25.77,24.25a69.71,69.71,0,0,1,10.16,14.65,53.48,53.48,0,0,1,5.3,17h0l.12.74-.76.11-46,6.26-.85.12v-.87h0c.11-9-2.78-17.8-6.89-25.83s-9.2-15.63-14.05-23.39-9.5-15.77-12.34-24.61a71.74,71.74,0,0,1-3.06-27.42,87.69,87.69,0,0,1,2.17-13.66c.54-2.24,1.16-4.47,1.88-6.66.36-1.1.75-2.19,1.16-3.27q.31-.81.66-1.62a16.1,16.1,0,0,1,.81-1.61,43.72,43.72,0,0,1,8.57-11,25.46,25.46,0,0,1,5.85-4,17.63,17.63,0,0,1,6.94-1.81,10.28,10.28,0,0,1,7,2.28,14,14,0,0,1,4.06,6,23.88,23.88,0,0,1,1.41,6.95,26.87,26.87,0,0,1-.5,7,19,19,0,0,1-1.06,3.42,10.08,10.08,0,0,1-2,3.14,8.12,8.12,0,0,1-6.92,2.43,8.76,8.76,0,0,1-6.22-3.82,10.24,10.24,0,0,1-1.45-7.09l1.49.19a8.67,8.67,0,0,0,1.26,6,7.16,7.16,0,0,0,5.11,3.08,6.51,6.51,0,0,0,5.51-2,12.27,12.27,0,0,0,2.55-5.76,24.4,24.4,0,0,0-.88-13,12.16,12.16,0,0,0-3.53-5.22,8.41,8.41,0,0,0-5.76-1.85c-4.29.18-8.34,2.42-11.59,5.37A41.52,41.52,0,0,0,139.48,226a15,15,0,0,0-.73,1.44c-.21.5-.42,1-.62,1.55-.39,1-.77,2.11-1.11,3.18-.7,2.15-1.3,4.32-1.82,6.52A86.21,86.21,0,0,0,133.11,252,69.75,69.75,0,0,0,136,278.72c2.72,8.59,7.3,16.51,12.07,24.23s9.93,15.34,14.05,23.58a71.23,71.23,0,0,1,5,12.88,48.73,48.73,0,0,1,1.8,13.75h0l-.85-.75,46-6.27-.64.85h0a51.83,51.83,0,0,0-5.28-16.49,69.91,69.91,0,0,0-10-14.26c-7.76-8.75-17.07-16-25.73-24.07a89.39,89.39,0,0,1-12-13.18,45.66,45.66,0,0,1-4.53-7.78,84.61,84.61,0,0,1-3.22-8.32,75.06,75.06,0,0,1-3.5-17.49,63.5,63.5,0,0,1-.07-8.94,46.86,46.86,0,0,1,1.35-8.89Z"/><polygon class="cls-10" points="179.25 236.61 186.38 234.06 181.99 227.89 121.4 209.16 118.67 217.88 179.25 236.61"/><polygon class="cls-8" points="179.25 236.68 186.38 234.12 181.99 227.95 121.41 209.22 118.67 217.95 179.25 236.68"/><polyline class="cls-8" points="181.8 228.09 185.95 233.92 179.22 236.34"/><polygon class="cls-11" points="179.25 236.61 186.38 234.06 181.99 227.89 121.4 209.16 118.67 217.88 179.25 236.61"/><path class="cls-12" d="M115.29,216.82l5.28,1.66c.83.26,2.11-1.48,2.86-3.89s.7-4.58-.13-4.84L118,208.1Z"/><ellipse class="cls-12" cx="116.13" cy="212.3" rx="4.57" ry="1.57" transform="translate(-121.18 259.6) rotate(-72.59)"/><path class="cls-11" d="M178.59,236.41c.83.26,2.12-1.49,2.87-3.9s.7-4.57-.13-4.83"/><path class="cls-7" d="M170.14,222.85s.8,7.55-1.58,10.91-9.08-1.87-9.08-1.87a32.9,32.9,0,0,0,0-11.67"/><path class="cls-11" d="M170.22,219.89s2.28,10.45-2.53,16.33"/><path class="cls-4" d="M156,219.69a14.42,14.42,0,0,1-1.83,9l5.45,1.69,1-4-1.19-6.16Z"/><path class="cls-9" d="M158,218.62a6.29,6.29,0,0,1,2.57,2.85,9.51,9.51,0,0,1,.91,3.81,12.84,12.84,0,0,1-.4,3.87,9.61,9.61,0,0,1-.73,1.79,7.08,7.08,0,0,1-1.22,1.52,9.38,9.38,0,0,1,.19-1.89c.07-.61.23-1.18.31-1.76a11.94,11.94,0,0,0-.3-6.84A19.6,19.6,0,0,0,158,218.62Z"/><polygon class="cls-4" points="135.51 230.24 150.68 235.59 151.81 228.94 137.9 224.4 135.51 230.24"/><rect class="cls-3" x="143.25" y="71.03" width="64.58" height="64.58" rx="3.09"/><rect class="cls-4" x="143.25" y="71.06" width="64.58" height="64.58" rx="3.09"/><rect class="cls-3" x="132.76" y="71.03" width="64.58" height="64.58" rx="3.09"/><path class="cls-3" d="M203.85,83.26c-1.71,0-3.1,2.42-3.1,5.39s1.39,5.39,3.1,5.39h7.93V83.26Z"/><ellipse class="cls-3" cx="212.57" cy="88.65" rx="3.11" ry="5.39"/><path class="cls-3" d="M203.85,113.73c-1.71,0-3.1,2.42-3.1,5.39s1.39,5.39,3.1,5.39h7.93V113.73Z"/><ellipse class="cls-3" cx="212.57" cy="119.12" rx="3.11" ry="5.39"/><rect class="cls-3" x="266.77" y="71.03" width="64.58" height="64.58" rx="3.09"/><rect class="cls-4" x="266.77" y="71.06" width="64.58" height="64.58" rx="3.09"/><rect class="cls-3" x="256.28" y="71.03" width="64.58" height="64.58" rx="3.09"/><line class="cls-5" x1="244.81" y1="87.82" x2="223.75" y2="87.82"/><polygon class="cls-13" points="248.22 87.82 242.95 84.78 242.95 90.86 248.22 87.82"/><line class="cls-5" x1="244.81" y1="118.29" x2="223.75" y2="118.29"/><polygon class="cls-13" points="248.22 118.29 242.95 115.25 242.95 121.33 248.22 118.29"/><line class="cls-5" x1="151.4" y1="147.39" x2="151.4" y2="168.46"/><polygon class="cls-13" points="151.4 143.99 148.36 149.25 154.44 149.25 151.4 143.99"/><line class="cls-5" x1="181.87" y1="147.39" x2="181.87" y2="168.46"/><polygon class="cls-13" points="181.87 143.99 178.83 149.25 184.91 149.25 181.87 143.99"/><path class="cls-14" d="M291.52,86.17A17.59,17.59,0,0,0,286,120.45c.88.16,1.2-.38,1.2-.85s0-1.52,0-3c-4.89,1.06-5.92-2.36-5.92-2.36a4.66,4.66,0,0,0-1.95-2.57c-1.6-1.09.12-1.07.12-1.07a3.71,3.71,0,0,1,2.69,1.81,3.74,3.74,0,0,0,5.12,1.46,3.79,3.79,0,0,1,1.12-2.35c-3.91-.44-8-2-8-8.69a6.78,6.78,0,0,1,1.81-4.72,6.29,6.29,0,0,1,.17-4.65s1.48-.48,4.84,1.8a16.7,16.7,0,0,1,8.8,0c3.36-2.28,4.83-1.8,4.83-1.8a6.32,6.32,0,0,1,.18,4.65,6.78,6.78,0,0,1,1.81,4.72c0,6.76-4.12,8.24-8,8.68a4.21,4.21,0,0,1,1.19,3.26c0,2.35,0,4.25,0,4.82s.32,1,1.21.85a17.59,17.59,0,0,0-5.57-34.28Z"/><path class="cls-8" d="M166.2,86.17a17.36,17.36,0,0,0-6.38,33.5l3.68-7.89a8.51,8.51,0,1,1,4.6,0l3.79,8.15a17.36,17.36,0,0,0-5.69-33.76Z"/><path class="cls-3" d="M435.85,178.88H375.56a10.34,10.34,0,0,0-10.34,10.34h0a10.34,10.34,0,0,0,10.34,10.34h12.75l9.81,9.82v-9.82h37.73a10.34,10.34,0,0,0,10.34-10.34h0A10.34,10.34,0,0,0,435.85,178.88Z"/><path class="cls-7" d="M386.53,305.88s27.47-5.94,26-36.54l14.55-13.88s1.4-2.59,4.05.73c0,0,18.09,38.92-11.07,63.6Z"/><path class="cls-8" d="M419,263.6s13.77,28.72-16.6,48.88l-15.91-6.6s28.35-10.16,25.07-34.72Z"/><path class="cls-15" d="M420,319.79c31-31.45,9.65-66.49,9.65-66.49"/><path class="cls-9" d="M413.32,269.19a29.35,29.35,0,0,1,.2,6.27,32.62,32.62,0,0,1-1.11,6.12,33.59,33.59,0,0,1-5.52,11.12,35.83,35.83,0,0,1-4.23,4.56l-1.15,1.05a8.68,8.68,0,0,1-1.19,1l-2.51,1.82a20.79,20.79,0,0,1-2.63,1.61l-2.7,1.51c-1.86.86-3.77,1.61-5.65,2.41l-.6-1.53c1.79-.87,3.59-1.71,5.36-2.6l2.55-1.52a20.23,20.23,0,0,0,2.48-1.61l2.37-1.75a9.32,9.32,0,0,0,1.13-.95l1.07-1a40.46,40.46,0,0,0,4-4.29A33.32,33.32,0,0,0,410.47,281a33.91,33.91,0,0,0,1.19-5.73,28.23,28.23,0,0,0,0-5.81Z"/><path class="cls-3" d="M446.5,237.48l-42,42.7a3.79,3.79,0,0,1-5.34.05l-18.68-18.44a3.79,3.79,0,0,1-.05-5.38l42-42.7a3.79,3.79,0,0,1,5.33-.05l18.68,18.44A3.79,3.79,0,0,1,446.5,237.48Z"/><path class="cls-16" d="M442.89,233.76l-42,42.7a3.78,3.78,0,0,1-5.33.05l-18.69-18.44a3.8,3.8,0,0,1-.05-5.38l42-42.69a3.77,3.77,0,0,1,5.33-.05l18.69,18.44A3.78,3.78,0,0,1,442.89,233.76Z"/><path class="cls-7" d="M436.29,235.5l-29.75,30.61a3,3,0,0,1-4.24,0l-14.86-14.67a3,3,0,0,1,0-4.27l29.75-30.61a3,3,0,0,1,4.25,0l14.85,14.67A3,3,0,0,1,436.29,235.5Z"/><path class="cls-7" d="M392,235.67s-2.74,13.34,8.28,26a1.46,1.46,0,0,1-1.72,2.28c-5.78-2.6-13.94-7.42-18.42-15.18,0,0-6.54-14.33,8.23-18.22"/><path class="cls-8" d="M400.07,262.61s-20.49-16.05-11.69-30.86l1.72,1.38,3.91.77-2.57,3.73.45,7.22,4.55,11.2S402.65,263.37,400.07,262.61Z"/><path class="cls-9" d="M393.15,235.16a27,27,0,0,0-.11,5.62,31.4,31.4,0,0,0,.93,5.62,32.9,32.9,0,0,0,4.58,10.35c.56.77,1,1.59,1.66,2.31l.89,1.1.45.56a2.49,2.49,0,0,1,.56,1,2.46,2.46,0,0,1-2.79,3,2.33,2.33,0,0,1-.57-.17l-.34-.16-.68-.31-1.34-.65a48.33,48.33,0,0,1-9.94-6.56,34.25,34.25,0,0,1-4.17-4.34,27.38,27.38,0,0,1-1.78-2.45c-.27-.47-.54-.82-.82-1.37s-.4-1-.58-1.44a19.32,19.32,0,0,1-1.15-6.05,12.43,12.43,0,0,1,1.39-6.15,12,12,0,0,1,4.39-4.55,20.66,20.66,0,0,1,5.69-2.34,39.16,39.16,0,0,1,5.95-.94c1-.09,2-.1,3-.15a7.89,7.89,0,0,1,3,.27l-.05,1.65a8,8,0,0,1-2.87.27c-1,.05-1.91.05-2.86.14a35.74,35.74,0,0,0-5.59.86,18.35,18.35,0,0,0-5.09,2.05,9.8,9.8,0,0,0-3.66,3.74c-1.69,3.09-1.37,7-.15,10.5.15.44.32.87.5,1.28s.46.76.69,1.13a25.62,25.62,0,0,0,1.63,2.28,33.56,33.56,0,0,0,3.91,4.09,46.06,46.06,0,0,0,9.5,6.32l1.29.64.65.3.32.14s.09,0,.13,0a.44.44,0,0,0,.43-.15.47.47,0,0,0,.13-.44c0-.08,0-.1-.14-.24l-.47-.59-.94-1.17c-.66-.76-1.16-1.63-1.74-2.44a35,35,0,0,1-4.71-11,33.73,33.73,0,0,1-.9-5.92,27.8,27.8,0,0,1,.2-6Z"/><rect class="cls-3" x="396.45" y="150.83" width="80.97" height="20.69" rx="10.34" transform="translate(873.87 322.35) rotate(-180)"/><line class="cls-16" x1="426.77" y1="217.7" x2="434.22" y2="225.63"/><circle class="cls-4" cx="397.17" cy="189.22" r="2.34"/><circle class="cls-4" cx="405.71" cy="189.22" r="2.34"/><circle class="cls-4" cx="414.25" cy="189.22" r="2.34"/><path class="cls-5" d="M385.19,109.93a7,7,0,0,0-7.05,7"/><path class="cls-5" d="M370.79,109.93a7.05,7.05,0,0,1,7,7"/><path class="cls-5" d="M410.58,83.54a7,7,0,0,0-7,7"/><path class="cls-5" d="M396.19,83.54a7,7,0,0,1,7,7"/><path class="cls-7" d="M252.52,283.17l-8.3-2.18-7.3.9-5.18,2.95,1.65-7.21,6.47-3.46,9-2.89,8.31-1.45,5.18-.26-23-12.32C208.4,229.82,219.18,192,219.18,192c15.1-55.21,73-45.61,73-45.61,77.28,9.55,59,89,59,89,11.29,8.93,1.94,21.82,1.94,21.82l-.47,4.57L354,287.57l9,17.17,1.8,2.45,15.94,3.29H338.17l-38.24-5.74-22.88,2.45-11.65-.49,2.25-16.09L252.56,284"/><path class="cls-8" d="M346.08,233.71s10.71,5.16,5.58,27.2C351.66,260.91,364.67,238,346.08,233.71Z"/><path class="cls-4" d="M269.27,289.5c3.07,0,6.32-.34,6.32-.34l8-3,10.6-14.43s-4.19,30.57-26.52,27c0,0-1-9.27,1.62-9.22"/><path class="cls-8" d="M332.33,298.07s7.18-17.56,8-48.16c0,0,3.59,24.43.2,37.33l-2.32,11.48Z"/><path class="cls-8" d="M310.64,299.92s10.69-23.21,10.23-48.77c1.19.8,1.68,38.5-4.07,47.88Z"/><path class="cls-4" d="M341.65,277.39s-7,9.85-21,1.76c0,0-9.75,8.09-20.77.86l-5.72,24.73,18.39-6h5.35l20.26,1.2,2.32-12.68Z"/><path class="cls-8" d="M288.41,306.35s9.15-23.26,14-37.57c0,0-3.37,24-7.13,36Z"/><path class="cls-8" d="M272.16,146.22s84.21,0,78.24,85.07c0,0,14.06-45.78-23.73-72.74C326.67,158.55,300.54,142.31,272.16,146.22Z"/><path class="cls-4" d="M225.05,177.06s-21,60,44.3,80.19l.12,2.32L267.4,266l-4.06,3.15-6.17-.37L252.76,266l-12.08-7.68-10.61-9.43L219,226.49l-1.66-11.67,1-18Z"/><path class="cls-9" d="M336.22,299.46l1.57-6.06c.45-2,.93-4.06,1.35-6.11.78-4.09,1.51-8.21,1.92-12.37a106.87,106.87,0,0,0,.64-12.53l-.11-3.14c-.09-1-.12-2.09-.25-3.13a39.49,39.49,0,0,0-1-6.21,39.12,39.12,0,0,1,1.54,6.14c.22,1,.33,2.08.5,3.13l.37,3.16a105.69,105.69,0,0,1,.35,12.71c-.08,4.25-.49,8.49-.95,12.72-.25,2.11-.58,4.21-.87,6.32l-1.12,6.29Z"/><path class="cls-9" d="M262.1,270.35a75.82,75.82,0,0,1-18-8.56c-.71-.43-1.38-.93-2-1.42s-1.36-1-2-1.48c-1.29-1.06-2.61-2.09-3.81-3.24s-2.38-2.33-3.55-3.52-2.22-2.49-3.22-3.83A60.74,60.74,0,0,1,220,230.77a64.09,64.09,0,0,1-2.56-9.65,56,56,0,0,1-1-10,92.1,92.1,0,0,1,2-19.77,61.17,61.17,0,0,1,7.36-18.5,51.41,51.41,0,0,1,13.4-14.73c1.3-1.06,2.74-1.91,4.11-2.86l2.16-1.26,1.08-.63,1.12-.56a65.07,65.07,0,0,1,9.18-3.91,80.7,80.7,0,0,1,19.49-4c1.66-.13,3.32-.23,5-.24a48.43,48.43,0,0,1,5,.31c1.65.16,3.3.28,4.95.46l4.91.76c.82.13,1.64.23,2.46.39l2.42.56c1.61.39,3.25.68,4.84,1.16l4.76,1.48a21.87,21.87,0,0,1,2.34.86l2.32.93a63.83,63.83,0,0,1,17,10.34A57,57,0,0,1,345,177.4a69,69,0,0,1,7,18.64,93.34,93.34,0,0,1,2,19.78,99.93,99.93,0,0,1-2,19.79l-.39-.9a12.77,12.77,0,0,1,4.35,4.93,14.77,14.77,0,0,1,1.57,6.3v1.62l-.18,1.6a9.35,9.35,0,0,1-.29,1.58l-.36,1.56c-.33,1-.67,2-1,3l-1.31,2.88.08-.23h0a85,85,0,0,0-.4,19.52,52.44,52.44,0,0,0,1.82,9.5,31.51,31.51,0,0,0,3.9,8.66,20.55,20.55,0,0,0,6.69,6.4,23.79,23.79,0,0,0,8.83,3c6.31.75,12.84-.23,19.15-1.9l.48,1.58c-1.59.51-3.19,1-4.8,1.46s-3.28.78-4.95,1a42.69,42.69,0,0,1-5.06.49c-.85,0-1.71.08-2.56,0l-2.57-.22a25.4,25.4,0,0,1-9.85-3.21,23,23,0,0,1-7.47-7.23c-3.82-5.85-5.31-12.69-5.87-19.35a77.61,77.61,0,0,1,1-20h0v-.1l.06-.13,1.25-2.75c.35-.94.67-1.89,1-2.83l.34-1.46a8.94,8.94,0,0,0,.27-1.46l.17-1.47V246a13.26,13.26,0,0,0-1.39-5.59l-.34-.64c-.13-.21-.27-.41-.4-.61a12,12,0,0,0-.87-1.15,10.75,10.75,0,0,0-2.11-1.86l-.5-.32.11-.58a97,97,0,0,0-.07-38.84,67.54,67.54,0,0,0-6.81-18.19,55.15,55.15,0,0,0-12.21-15,62,62,0,0,0-16.56-10.07l-2.27-.91a23.12,23.12,0,0,0-2.28-.85l-4.67-1.44c-1.56-.47-3.17-.76-4.75-1.14l-2.39-.55c-.8-.16-1.61-.26-2.41-.39l-4.84-.75c-1.63-.18-3.26-.29-4.88-.44a47,47,0,0,0-4.85-.31c-1.62,0-3.25.11-4.87.23a79.13,79.13,0,0,0-19.08,3.92,63.76,63.76,0,0,0-9,3.81l-1.09.55-1,.61-2.1,1.23c-1.34.92-2.74,1.75-4,2.77a50,50,0,0,0-13,14.28,59.42,59.42,0,0,0-7.15,18,90.8,90.8,0,0,0-2,19.42,60.7,60.7,0,0,0,3.47,19,59.19,59.19,0,0,0,9.2,17.06c1,1.3,2.07,2.5,3.13,3.72s2.23,2.36,3.46,3.42,2.45,2.13,3.7,3.16c.63.51,1.31,1,2,1.44s1.31,1,2,1.39a74.81,74.81,0,0,0,17.57,8.37Z"/><path class="cls-9" d="M320.57,250.38a89.23,89.23,0,0,1,1.11,12.22c.12,4.1,0,8.21-.21,12.31s-.66,8.19-1.23,12.27c-.25,2-.64,4.06-.95,6.1s-.77,4-1.15,6.06l-2.68-.63c.49-2,1-3.93,1.48-5.91s.91-4,1.26-6c.8-4,1.4-8,1.9-12s.78-8.11.89-12.19A86,86,0,0,0,320.57,250.38Z"/><circle class="cls-9" cx="338.36" cy="228.02" r="6.24"/><circle class="cls-8" cx="339.91" cy="226.49" r="1.74"/><circle class="cls-9" cx="280.28" cy="234.56" r="6.24"/><circle class="cls-8" cx="281.83" cy="233.03" r="1.74"/><ellipse class="cls-4" cx="238.42" cy="204.84" rx="7.8" ry="12.77"/><ellipse class="cls-4" cx="253.01" cy="185.43" rx="3.13" ry="5.13"/><ellipse class="cls-4" cx="241.52" cy="178.61" rx="4.17" ry="6.82"/><circle class="cls-4" cx="323.43" cy="239.96" r="1.36"/><circle class="cls-4" cx="317.02" cy="234.17" r="1.36"/><circle class="cls-4" cx="311.33" cy="239.96" r="1.36"/><circle class="cls-4" cx="305.62" cy="234.17" r="1.36"/><circle class="cls-4" cx="299.93" cy="239.96" r="1.36"/><path class="cls-9" d="M255.2,267.75s1.06,2.07-1.95,2.32l5.89-.24.83-.47Z"/><path class="cls-9" d="M302.06,271.77q-.68,8.42-1.94,16.78a122.86,122.86,0,0,1-3.55,16.65l-2.59-.92a122.45,122.45,0,0,0,4.8-16Q300.7,280.1,302.06,271.77Z"/><ellipse class="cls-8" cx="344.21" cy="242.46" rx="8.75" ry="3.6"/><path class="cls-8" d="M232.19,283.22s7.63-10.73,23.86-4.91c0,0,13.45,5.13,24.95,1.52,15.82-5,15.12-17.5,15.12-17.5L293.32,274s-2.45,9.77-14.27,14.47c0,0-11.59,4.15-27.19-4.12,0,0-9.3-6-17.93-1.18C233.93,283.19,231,285.21,232.19,283.22Z"/><path class="cls-9" d="M296.24,259.36a30.74,30.74,0,0,1,0,4.5,35.61,35.61,0,0,1-.6,4.49,32.53,32.53,0,0,1-2.93,8.62,25.23,25.23,0,0,1-5.56,7.32,24.13,24.13,0,0,1-7.94,4.71,22.35,22.35,0,0,1-2.2.69l-1.11.3c-.4.1-.8.16-1.18.22a26.77,26.77,0,0,1-4.64.22,34.25,34.25,0,0,1-9.05-1.59,39.73,39.73,0,0,1-8.36-3.75,21.76,21.76,0,0,0-3.87-1.86,19.06,19.06,0,0,0-4.16-.9,20.19,20.19,0,0,0-8.42,1,15.15,15.15,0,0,0-1.93.83,5.93,5.93,0,0,0-1.53,1.06c-.15.13.06,0-.44.53a1,1,0,0,1-.47.26,1.07,1.07,0,0,1-.51,0,1,1,0,0,1-.47-.25.94.94,0,0,1-.23-.29.89.89,0,0,1-.08-.17,1.35,1.35,0,0,1-.06-.24,1.86,1.86,0,0,1,0-.51,6.71,6.71,0,0,1,.26-1.32,12.81,12.81,0,0,1,.93-2.25,18.56,18.56,0,0,1,6.4-6.85,25.12,25.12,0,0,1,8.63-3.42,37.16,37.16,0,0,1,4.57-.62c1.53-.11,3.07-.09,4.5-.15a19,19,0,0,0,8.25-2.05,9.07,9.07,0,0,0,3-2.73,9.91,9.91,0,0,0,1.53-3.82,24.16,24.16,0,0,0-.33-8.69,14.11,14.11,0,0,1,1.64,4.27,13.05,13.05,0,0,1,.19,4.67,10.54,10.54,0,0,1-1.7,4.48,10.68,10.68,0,0,1-3.53,3.26,15.7,15.7,0,0,1-4.4,1.71,26.77,26.77,0,0,1-4.59.68c-1.56.08-3,.08-4.46.21a32.82,32.82,0,0,0-4.32.63,23.32,23.32,0,0,0-8,3.2,16.61,16.61,0,0,0-5.7,6.14,11,11,0,0,0-.78,1.9,5,5,0,0,0-.18.87v.05a1,1,0,0,0,0-.11l0-.1a.76.76,0,0,0-.19-.24,1.12,1.12,0,0,0-.42-.22,1,1,0,0,0-.44,0,.74.74,0,0,0-.35.18c-.24.28.12-.23.25-.35a7.32,7.32,0,0,1,2.11-1.52,15.58,15.58,0,0,1,2.2-.93,22.14,22.14,0,0,1,9.28-1,20,20,0,0,1,4.58,1,23.33,23.33,0,0,1,4.2,2,37.63,37.63,0,0,0,8,3.63,32.54,32.54,0,0,0,8.57,1.56,24.87,24.87,0,0,0,4.32-.17c.35-.06.7-.11,1-.19l1.06-.27a20.08,20.08,0,0,0,2.08-.64,23.19,23.19,0,0,0,7.45-4.32,25.94,25.94,0,0,0,5.42-6.76,35.28,35.28,0,0,0,1.9-4,44,44,0,0,0,2.88-13Z"/><path class="cls-8" d="M290.06,155.6s29.56,12.67,23.54,41.19C313.6,196.79,309.63,167,290.06,155.6Z"/><path class="cls-9" d="M292.18,156.19a38.28,38.28,0,0,1,9.73,6.49,40.44,40.44,0,0,1,7.53,9,35.7,35.7,0,0,1,4.89,22.64,48.84,48.84,0,0,0-.33-5.81,40.64,40.64,0,0,0-1-5.69,48,48,0,0,0-1.84-5.46,41.08,41.08,0,0,0-2.63-5.11,47,47,0,0,0-7.17-9,46.57,46.57,0,0,0-4.37-3.81A41.41,41.41,0,0,0,292.18,156.19Z"/><path class="cls-9" d="M352.24,235a12.44,12.44,0,0,0-6.16-1.26s4.65,1.7,7.27,5Z"/><path class="cls-7" d="M346.08,232.76s-11.18-3.26-16.69.75l5.13,4.76,6.47-1.39Z"/><path class="cls-9" d="M331.15,233.11a8.12,8.12,0,0,1,3.36-2.25,11.58,11.58,0,0,1,4-.77,12,12,0,0,1,4,.67,11.32,11.32,0,0,1,1.85.82,12.06,12.06,0,0,1,1.65,1.18c-.7,0-1.33-.17-2-.24s-1.26-.19-1.88-.23a32.62,32.62,0,0,0-3.67-.2A30,30,0,0,0,331.15,233.11Z"/><path class="cls-7" d="M289.32,239.12s-12.14-2.52-17.65,2.19l5.85,4.63,6.74-2Z"/><path class="cls-9" d="M273.5,240.75a9,9,0,0,1,3.4-2.63,12.53,12.53,0,0,1,4.2-1.13,12.85,12.85,0,0,1,4.33.35,10.88,10.88,0,0,1,3.89,1.78c-.73,0-1.41-.09-2.1-.12s-1.35-.11-2-.11c-.33,0-.66,0-1,0l-1,0c-.33,0-.65,0-1,0s-.65,0-1,.06A29.46,29.46,0,0,0,273.5,240.75Z"/><ellipse class="cls-8" cx="282.8" cy="248.9" rx="8.75" ry="3.6"/><path class="cls-8" d="M417.61,298.72c-23.43,0-23.43,8.47-46.85,8.47s-23.43-8.47-46.86-8.47-23.42,8.47-46.85,8.47-23.42-8.47-46.85-8.47-23.43,8.47-46.86,8.47-23.43-8.47-46.86-8.47v95.11H417.06Z"/><path class="cls-8" d="M229.71,393.83l.55-95.11c-23.42,0-23.42,8.47-46.85,8.47s-23.42-8.47-46.85-8.47-23.42,8.47-46.85,8.47-23.43-8.47-46.85-8.47S19.43,307.19-4,307.19"/><path class="cls-17" d="M417.61,298.72c-23.43,0-23.43,8.47-46.85,8.47s-23.43-8.47-46.86-8.47-23.42,8.47-46.85,8.47-23.42-8.47-46.85-8.47-23.43,8.47-46.86,8.47-23.43-8.47-46.86-8.47"/><path class="cls-8" d="M463.67,307.19c-23.43,0-23.43-8.47-46.86-8.47v95.11h46.86V313.51"/><path class="cls-17" d="M463.67,307.19c-23.43,0-23.43-8.47-46.86-8.47"/><path class="cls-8" d="M90.43,307.19c23.42,0,23.42-8.47,46.85-8.47l-.55,95.11"/><path class="cls-17" d="M90.43,307.19c23.42,0,23.42-8.47,46.85-8.47"/><path class="cls-18" d="M267.62,289.24s.57,11.23-4,17.11"/><path class="cls-9" d="M264.43,289.74s2.49.59,2,4.68l1-2.07S270.13,287.25,264.43,289.74Z"/><path class="cls-4" d="M367.58,343.84a3.8,3.8,0,0,0,1,.72,4.32,4.32,0,0,0-1,.72,4,4,0,0,0-.74,4.62l5.18-5.17,3,2.18a15.75,15.75,0,0,0,18.78,0l3.16-2.35-3.16-2.35a15.78,15.78,0,0,0-18.78,0l-3,2.19-5.18-5.18A4,4,0,0,0,367.58,343.84Z"/><polyline class="cls-19" points="432.34 158.45 428.84 161.94 432.34 165.44"/><polyline class="cls-19" points="441.53 165.44 445.03 161.94 441.53 158.45"/><line class="cls-19" x1="439.34" y1="157.08" x2="434.43" y2="166.97"/><path class="cls-20" d="M408.78,239.84c-2.1-2.61-3.69-6,.33-10.07A5.8,5.8,0,0,1,413,228a5.41,5.41,0,0,1,2.89-2.73s1.18.6,1.86,4a14.31,14.31,0,0,1,3,2.27,14.13,14.13,0,0,1,2.32,3c3.4.62,4,1.79,4,1.79a5.35,5.35,0,0,1-2.67,2.93,5.83,5.83,0,0,1-1.72,4c-4,4.1-7.42,2.55-10.06.47Z"/><path class="cls-7" d="M412.17,239.88a14,14,0,0,1-2.05-2.52,3.22,3.22,0,0,1,5.44-3.45,9.75,9.75,0,0,0,2.66,2.61,3.23,3.23,0,0,1-3.37,5.5A16.32,16.32,0,0,1,412.17,239.88Z"/><path class="cls-21" d="M257.17,266.8s6.09,2.26,9.73-1.51v1.54l-4.55,2.74Z"/><rect class="cls-22" x="394.12" y="245.86" width="20.44" height="5.94" rx="2.97" transform="translate(294.38 -213.03) rotate(45)"/><circle class="cls-7" cx="399.15" cy="243.77" r="1.55"/><path class="cls-4" d="M140.36,330.16a4.24,4.24,0,0,0,1,.73,3.92,3.92,0,0,0-1,.72,4,4,0,0,0-.74,4.62l5.18-5.18,2.95,2.18a15.74,15.74,0,0,0,18.77,0l3.17-2.34-3.17-2.35a15.74,15.74,0,0,0-18.77,0l-2.95,2.18-5.18-5.17A4,4,0,0,0,140.36,330.16Z"/><path class="cls-4" d="M324.53,321.2a4.32,4.32,0,0,0,1,.72,3.8,3.8,0,0,0-1,.72,4,4,0,0,0-.74,4.62l5.18-5.18,2.95,2.19a15.78,15.78,0,0,0,18.78,0l3.16-2.35-3.16-2.35a15.75,15.75,0,0,0-18.78,0L329,321.76l-5.18-5.18A4,4,0,0,0,324.53,321.2Z"/><rect class="cls-23" x="205.43" y="334.76" width="17.85" height="36.72"/><path class="cls-8" d="M129.57,358.15c23.43,0,23.43,8.46,46.85,8.46s23.43-8.46,46.85-8.46,23.43,8.46,46.86,8.46,23.43-8.46,46.86-8.46v50.93l-163.6-6.76"/><path class="cls-17" d="M129.57,358.15c23.43,0,23.43,8.46,46.85,8.46s23.43-8.46,46.85-8.46,23.43,8.46,46.86,8.46,23.43-8.46,46.86-8.46"/><path class="cls-23" d="M223,316.92H221.3a15.87,15.87,0,0,0-15.87,15.86v2h17.85Z"/><rect class="cls-23" x="224.65" y="315.26" width="17.85" height="21.15" transform="translate(-92.27 559.41) rotate(-90)"/><ellipse class="cls-24" cx="244.69" cy="325.84" rx="3.93" ry="8.92"/><circle class="cls-9" cx="226.58" cy="321.56" r="0.65"/><circle class="cls-9" cx="226.58" cy="329.82" r="0.65"/><circle class="cls-9" cx="218.49" cy="338.63" r="0.65"/><circle class="cls-9" cx="210.22" cy="338.63" r="0.65"/></g></g></svg>