<svg height="50" viewBox="0 0 50 50" width="50" xmlns="http://www.w3.org/2000/svg" xmlns:xlink="http://www.w3.org/1999/xlink"><mask id="a" fill="#fff"><path d="m49.834 49.814h-49.834v-49.814h49.834z" fill="#fff" fill-rule="evenodd"/></mask><path d="m1.18712644 30.0958046c.48764367-.316954.99712643-.5741379 1.52327586-.7747126.1908046.0376436.35948276.1387931.47212644.3025862.04454023.7235632.19195402 1.4396551.44425287 2.121839.15143678.4083334.54741379.6859196.9933908.5635058.39310345-.1077586.71695403-.5818966.56465518-.9933908-.27068966-.7321839-.40086207-1.4663793-.39683908-2.2324713.15804597-.0867816.43936781-.1732758.46436781-.1801724.21293104-.0557471.425-.079023.6454023-.0810345.03390805 0 .06465517-.0066092.08965517-.0183908.70258621.0347701 1.40603449.1591954 2.09568966.3729885.00689655.0020115.01264368.0089081.01465517.0163793.12701149.6284483-.11867816 1.2362069-.42212644 1.7988506-.34396551.6350575-.74770115 1.2614943-1.20632184 1.8212644-.92126436 1.1244253-2.07442528 1.9965517-3.54109195 2.2063218-.43247126.0617816-.66954023.6112069-.56465517.9936782.12816092.4643678.55977011.6252873.99454023.5643678.1454023-.0218391.28908046-.05.43160919-.0836207.2908046-.0057471.60028736-.0163793.84683908.133908.10517242.3091955.14856322.6752874.19568966.9057472.1137931.554023.20517241 1.2054597-.02701149 1.741954-.17442529.4008621-.11954023.8672414.28908045 1.1063218.34195403.1994253.93074713.1117816 1.10603449-.2899425.4229885-.9801724.40086207-1.9551724.18994253-2.9882184-.04827587-.233046-.10114943-.4643678-.16666667-.6887931-.01350575-.3083333-.00862069-.6206896.08074713-.8635057.06666666-.1798851.16091954-.3477012.2525862-.5183908.24856322-.2137931.48477012-.4439656.70718391-.6839081.20344828-.0086207.4.0229885.57729885.0982759.36810345.5511494.2841954 1.3922414.24856322 2.0252873-.05890805 1.0387931 1.55689655 1.0347702 1.61494253 0 .05775862-1.0347701-.00488506-2.1977011-.59281609-3.0350574-.14252874-.4385058-.20114943-.8836207-.17902299-1.345115.5954023-1.0146552 1.00287356-2.1448276.74482758-3.2577586.00488506-.0114943.00775863-.0183908.01235633-.0278736.19367816-.1109195.39712644-.2014367.60718394-.271839.000862-.0008621.0020115-.0008621.0020115-.0008621.2591954-.0695402.5229885-.1097701.7899425-.1261494h.0020115c.3775862-.003161.7534483.0413793 1.1224138.1201149.4942528.1281609.9724138.3172414 1.4241379.5531609.5908046.3353449 1.1321839.7537357 1.6275862 1.216954.183046.1801725.3574713.3681035.5241379.5600575.2060345.4692529.3738506 1.0482759.2977012 1.5442529-.0994253.2566092-.212069.5068965-.3393678.7505747-.1936782.3402299-.4140805.6603448-.6589081.9617816-.000862.0008621-.0020115.0020115-.0028735.0028736-.0548851.0405172-.103161.0905172-.1445403.1474138-.0097701.0037356-.0212643.0097701-.0336207.0175287-.0281609.0123563-.0568965.0218391-.0859195.0287356-.0856322.0270115-.1732759.049138-.2591954.0732759-.1117816.0316092-.2224138.0675287-.3362069.0945402-.0163793.0037357-.0367816.0045977-.0577586.0054598-.2255747-.8206897-.6494253-1.5867816-1.2583333-2.187069-.0908046-.1117816-.2025863-.1936781-.3364943-.2456896-.0008621-.0008621-.0028736-.0008621-.0028736-.0008621-.0692528-.0175287-.1387931-.033046-.2071839-.0494253-.2071839-.0295977-.4143678.0522989-.579023.1727012-.162931.1192528-.2755747.3488505-.2948275.5462643-.0172414.1772989.0385057.4459771.1715517.578161.2235632.2198275.4189655.4614942.5887931.7235632l.0008621.0020115c.1511494.262931.2747126.5393678.3689655.8275862.0810345.2997126.1310345.6060345.1474138.9163793-.0017242.0086207-.0028736.0155172-.0048851.0241379-.1474138.3247127-.3198276.6347701-.5212644.9307471-.000862.0020115-.0028735.0037357-.0045977.0048851-.1494253.1077586-.3005747.212931-.4557471.3112069-.425.2485632-.8741379.4488506-1.3422414.5991379-.2698276.0761495-.54339077.1350575-.82097698.1772989-.44224138.0666667-.7112069.4933908-.66005747.9192529.0229885.1945402.16005747.400862.31494253.5146551.16867816.124138.39712643.1764368.60431034.1454023.08678161-.0135057.17241378-.029023.25919538-.0454023.1761494.2939655.2206897.7304598.2166667.9982759-.0057471.3054598-.0508621.608046-.1261494.904023-.0183908.050862-.0376437.1020115-.0577587.1520115-.26982754.6727011-.68994248 1.4068965-1.18706892 1.9715517-.00201149.0028736-.00488506.0048851-.00689655.0057471-.21752874.0954023-.3862069.2928161-.48448276.5339081-.00574713.0114942-.01063218.0229885-.01465517.0356322-.1020115.2485632.01637931.6109195.2071839.7850574.01178161.0106322.02212644.0212644.03390805.0318966.20603448.187931.50775862.3005747.7862069.2071839.52902295-.1772989.86810345-.7764368 1.17729885-1.2103448.3913793-.549138.7255747-1.1379311.9761494-1.7632184.1945403-.4824713.3362069-.9721265.4074713-1.4925288.083046-.6117816.0261494-1.2235632.0752873-1.8353448 0-.0077586.0048851-.0135057.0114943-.0175287.0270115-.0143678.0560345-.0278736.083046-.0422414.6867816-.3738506 1.3094827-.8422414 1.8971264-1.3537356.187931-.1640805.3758621-.3295977.5626437-.4974138.0057471-.0028736.0106322-.0057472.0163793-.0086207.1494253-.0405173.2997126-.0732759.4520115-.0864943.0307471.0143678.0557471.0258621.0867816.0413793.0132184.0181035.0278736.0373564.0413793.0577587.1761494.3112068.3100575.6445402.4189655.9856321.2382184.8295977.3692529 1.6902299.4066092 2.5525862.0097701.4112069-.0028735.8235633-.0364942 1.2333334-.0008621.0086207-.0077586.0172414-.0172414.0189655-.2698276.0626437-.5465517.1002874-.8152299.1735632-.2109195.0577586-.4278736.1166667-.6178161.2264368-.2522988.1445402-.4681034.3083333-.6387931.5482759-.2600575.3652298-.1724138.8431034.1698276 1.1186781.1568966.1272989.4083333.1772989.604023.1454023.1956896-.0327586.3988506-.1522988.5143678-.3140804.008908-.0123564.0175287-.025.0261494-.0364943.0172414-.0143678.0356322-.0281609.0528736-.0413793.0609195-.0298851.1235632-.0560345.187931-.0781609l.0020115-.0008621c.0086207-.0020115.0172414-.004023.0270115-.0060345.0597701.0436782.1126437.0965517.1600575.1534483.0037356.0057471.0066092.0103448.0103448.0163793-.1781609.6445402-.4123563 1.2775862-.7224138 1.8672414-.1813218.3160919-.3893678.6158046-.6341954.8873563l-.0008621.0011494c-.0867816.0836207-.1764367.1637931-.2689655.2408046-.346839.2833334-.3816092.7718391-.1232758 1.1252874.1195402.162931.3488505.2755747.5462643.2948276.1985633.0195402.4229885-.045115.578161-.1724138.8287356-.6781609 1.375-1.6264368 1.7632183-2.6112069.6612069-1.6772989.9135058-3.4859196.8-5.2810345-.0560344-.8864943-.2206896-1.7557471-.4790229-2.6045977-.1658046-.5491379-.4028736-1.0724138-.7333334-1.5310345-.0017241-.0017241-.0037356-.0057471-.0037356-.0086207-.0068966-.0511494-.0155172-.1002873-.0261494-.1502873v-.0048851c.0097701-.1899425.0232758-.3795977.0367816-.5695402 0-.0037356.0017241-.0077586.004885-.0114943.0393679-.05.079023-.0991379.1163793-.1502873.2543104-.3488506.4712644-.7227012.6698276-1.1071839.0307472-.0606322.0606322-.1212644.0905173-.183046.0077586-.0163793.0307471-.0163793.0376437.0008621.2166666.5020115.4112068 1.0149425.6020114 1.5272988.3479886.9327586.6919541 1.8732759 1.1563219 2.7566092.0163793.0318966.0347701.0617816.0520115.0936782 0 .000862.0011494.0017241.0011494.0037356.1376437.4229885.6646552 1.9252874.8198276 2.1508621.4402299.6367816.8942529 1.262931 1.3422414 1.8942528.4094827.5761495.8781609 1.1494253 1.4333333 1.5836207-.1396552.3770115-.2893678.7505747-.462069 1.1172414-.5712643 1.2140805-1.2931034 2.3577586-2.1612069 3.3810345-.1290229.1520115-.5540229.7744253-.7149425.8988506-.1514368.1166666-.1813218.1531609-.2477011.316954 1.0204023.2158046 2.0744253.4557471 3.1181034.4827586.8054598.0204023 1.5474138.0655173 2.3520115.112931-.0413793-.2255747-.2235632-.5002873-.4278736-.637931-.1600574-.108908-.4692528-.6543103-.558908-.8017241-.1772989-.2899426-.2853448-.5979885-.341954-.9109196.1893678.0571839.3801724.1094828.5724138.1505747.9152299.1977012 1.8287356.2341954 2.7574712.1195403.4586207-.0568966.9106322-.1617816 1.3508621-.3071839.0204023.0028735.6640805-.2439655.6813218-.2652299.9683908-.4316092 1.85-1.0683908 2.5534483-1.8528736.1387931-.154023.2706897-.312931.3979885-.4767241.0074713-.0106322.0238506-.0137931.0356322-.0060345.6212644.4143678 1.3324713.7140805 2.0543103.8798851.9344828.2137931 1.8979886.2399425 2.8405173.0568965.5201149-.1014368 1.029885-.2767241 1.5077586-.5051724.3778736-.1810345.5474138-.7166667.3353448-1.0810345-.2244252-.3862069-.6764367-.5278736-1.0801724-.3362069-.1175287.0568966-.2387931.1089081-.3603448.1571839-.3844828.1327586-.7813218.2235632-1.1841954.2715517-.4385058.0356322-.8795977.0212644-1.3152299-.0393678-.1867816-.033908-.370977-.0772988-.5531609-.129023-.312069-.1485632-.6106322-.3221264-.8988506-.5137931-.0097701-.0106321-.0201149-.020977-.0318965-.0318965-.0433908-.0373563-.0933908-.0798851-.1482759-.1241379l-.0008621-.0008621c-.0715517-.1043104-.1301724-.2149425-.1784482-.3333333.0609195-.1436782.1175287-.2882184.1695402-.4367817.2014368-.5692528-.2784483-1.1744252-.8738506-1.0741379-.2899425.0491379-.5327586.2505747-.637931.5548851-.0577586.1678161-.1212644.3324712-.1916667.4942528-.2313218.4867817-.5192529.9442529-.8566092 1.3655173-.2436781.2862069-.5114942.5511494-.7977011.7956896-.237069.0568966-.4798851.1695403-.7169541.2477012-.1810344-.0028736-.3612069-.0376437-.529885-.1060345-.0859196-.0971264-.1649425-.1965517-.237931-.3034483-.079023-.3017241-.1379311-.608908-.1744253-.9192528-.0589081-.6916667-.0232759-1.3893679.0778735-2.0755748.1879311-1.1117816.5359196-2.1985632.9905173-3.2287356.4770115-.3979885 1.1350574-.0422414 1.6612069.1514368.370977.1359195.7545977.233046 1.1359195.3321839.1948276.0520115.3991379.1195402.6043104.1658046.6887931.1764368 1.400862.2764368 2.1112068.2948276.0017242.0028736.0028736.004885.0045977.008908.9028736 1.6089081 2.6603449 2.3054598 4.4140805 2.4982759 1.7594828.1928161 3.8060345.1456897 5.3591954-.7977012.8864943-.5396551.0761494-1.9376436-.8152299-1.3951149-.5586207.3390805-1.1956896.5163793-1.8545977.6002874-.1281609-.0994253-.2477011-.2071839-.3594827-.3247127-.0278736-.0502873-.054023-.1031609-.0770115-.1563218-.133046-1.6554598.500862-3.3744253 1.6678161-4.5468391 1.2689655-1.2767241 3.071839-1.8482759 4.8474138-1.666092.4347701.0442529.8074712-.4037356.8074712-.8074712 0-.475-.3718391-.7629311-.8074712-.8083334-2.2169541-.2272988-4.5419541.6178161-6.0816092 2.2336207-1.4686782 1.5396552-2.1554598 3.6198276-2.0215518 5.7106322-.1522988.162069-.3431034.2816092-.5646551.3520115-.9008621-.0956896-1.8221265-.3683908-2.4977012-.954023.0089081-.0433908.029023-.083908.054023-.1244253.1367816-.0267241.2735632-.0557471.4094828-.0893678.2014367-.0502873.3873563-.1793103.4982758-.3566092.104023-.1658046.154023-.4106322.1011494-.6031609-.0876436-.3181034-.3525862-.5655172-.6686781-.612931-.133046-.0385058-.2775862-.0454023-.4086207-.0155173-.0692529.0163793-.1405172.0454023-.2071839.0818966-.1646552-.0508621-.2985632-.1327586-.4258621-.2224138-.0229885-.345115-.0106322-.6908046.0367816-1.0327586.070115-.3818966.1818966-.7525862.3333334-1.1091954.1626436-.341092.3620689-.662069.5954023-.9586207.2235632-.2574713.4721264-.4905173.7456896-.6948276.1560345-.1166667.2525862-.3787356.2574713-.5655173.0057471-.1916666-.0715517-.4270114-.2100575-.5646551-.1494253-.1482759-.35-.2612069-.5658046-.2583334-.0672414.0068966-.133908.0135058-.2014368.020115 0 0-.0028735 0-.0045977.0011494-.1359195.0316092-.2563218.0954023-.3586207.1896552-.6695402.4994253-1.2244252 1.1853448-1.5916666 1.933046-.3979885.8140804-.6387931 1.6948275-.6494253 2.6054597-.0020115.1433908.0037356.287069.0126437.4324713-.1224138.1543103-.2669541.2747126-.4347701.3488506-.1135058-.0114943-.2272989-.0261495-.341092-.0425288-.6887931-.1192528-1.3614943-.3198276-2.0022989-.5991379-.0982758-.0454023-.1954023-.0945402-.292816-.1436782-.2505748-.2252873-.553161-.5287356-.5712644-.816954-.0086207-.1494253.0626437-.3112069.0741379-.4594827.0020115-.029023.0028736-.058046.0020115-.0850575.0913793-.1183908.1839081-.2359196.2784483-.3514368.5617816-.6658046 1.1801724-1.2816092 1.8517241-1.8367816.1551724-.129023.2525862-.3689655.2583334-.5655172.0057471-.1925288-.0721265-.4278736-.2109196-.5655173-.320977-.3189655-.7844827-.3324712-1.1304598-.0474138-.4362068.3603448-.8477011.7497127-1.237931 1.1583334-.1715517-.0114943-.3410919-.0597702-.504885-.128161-.1339081-.1543103-.262069-.3140804-.3816092-.479023-.1589081-.2330459-.3025862-.4738505-.4336207-.7224137.0106322-.0195403.0212643-.0387931.0347701-.0577587.1405172-.2206896.3112069-.4183908.5028735-.5936781.2255748-.025.449138-.0704023.6637932-.1359196.796839-.2445402 1.4896551-.6887931 2.1353448-1.2083333.7428161-.5962644 1.3922414-1.3091954 1.9077586-2.108046.237069-.2071839.5106322-.3663793.8103448-.4732758.3554598.0290229.7112069.0413793 1.0666667.0405172.2215517.1310345.3988506.3140805.5192529.5356322-.0405173.7402299-.0655173 1.4735632.3410919 2.1477011.5318966.8839081 1.5485632 1.4379311 2.4956897 1.7597701.9864942.3362069 1.4094827-1.2238505.4295977-1.5571839-.554023-.1890804-1.345115-.5540229-1.5936782-1.1313218-.2215517-.5135057-.0856322-1.1698276-.0405172-1.7477011.112931-.0965518.2353448-.1813219.3672414-.2534483.3255747-.0646552.6502873-.1416667.9712643-.2333334 1.2563219 1.0543104 2.8945403 1.4204023 4.516092 1.4704023 1.7198276.0528736 3.6594827.0442529 5.1896552-.8393678.900862-.5192528.0876436-1.9163793-.8152299-1.3951149-.3939656.2284483-.8284483.375-1.2824713.4701149-.0327586-.0086207-.0663793-.0172414-.1002874-.025-.1106321-.0913793-.2175287-.187931-.3206896-.287931-.5204023-2.0428161.3295977-4.1635058 2.2295977-5.2206897.9094827-.504885.0954023-1.900862-.8152299-1.3951149-2.4192529 1.3451149-3.6586207 4.1778736-3.033046 6.8287356-.2574712.1281609-.554023.2100575-.795977.2554598-.0318965-.0011494-.0655172-.0011494-.0974138-.0020115-.9528735-.0204023-1.9413793-.1445402-2.7979885-.5551724.2744253-.1270115.5462644-.262931.8132184-.4114943.9094828-.5037356.0954023-1.8991379-.8152299-1.3942528-.4402299.2439655-.895977.4568965-1.3643678.6390804-.2658046.0135058-.5376437-.0011494-.7468391-.1166666.3528736-1.2893679.0502874-2.7344828-.9856322-3.804023-.7235632-.7497127-1.8655172.3939655-1.1416666 1.1416666.9037356.9356322.8816092 2.4089081-.0163793 3.2885058l-.7063219.212931c-.0183908.0048851-.0356322.0146552-.0520115.0252874-.3025862.0094827-.6051724.0066092-.9077586-.0077586-.0683908-.0606322-.1445402-.1166667-.1945402-.1887932-.0367816-.0551724-.0683908-.1117816-.0965517-.1724137.0925287-.4221265.1428161-.8537357.1416666-1.2824713 0-.2054598-.0712643-.4126437-.2109195-.5658046-.1347701-.1454023-.3632184-.2609195-.5666667-.2571839-.4218391.0057471-.8227011.3284483-.8227011.7755747.000862.2485632-.0163793.4954023-.05.741092-.0252874.1385057-.0560345.2755747-.0908046.4123563-.0028736.0086207-.0094828.0163793-.0192529.0192528-.3304598.1089081-.6706897.183046-1.0163793.2244253-.3795977.029023-.7603448.0172414-1.137069-.0347701-.370977-.0672414-.7321839-.1761494-1.0801724-.3235632-.3525862-.1686782-.6859195-.3778736-.9933908-.6204023-.2956897-.2566092-.5617816-.5436782-.7948276-.8577586-.0781609-.1175288-.1522988-.237069-.2215517-.3591954-.1031609-.1850575-.2755747-.3344828-.4798851-.395115-.1850574-.0551724-.4318965-.0396551-.6002873.0586207-.3663793.212069-.5560345.6908046-.3364943 1.0801724.5735632 1.0183908 1.4502874 1.8885058 2.4985632 2.4126437.7862069.3922414 1.6468391.6255747 2.5235633.6514368.0442528.0163793.0885057.0356322.1330459.0577586.2522989.1318966.0836207.4298851-.0175287.6416667-.0307471.0655172-.0528736.1341954-.0643678.2034483-.3586207.370977-.7505747.7112069-1.1698276 1.0146551-.3017241.2060345-.6204023.3873564-.9597701.524138-.0008621.000862-.0017242.000862-.0017242.000862-.1985632.0663793-.4.1155173-.6071839.1445403h-.0037356c-.162931.0106321-.3267241.0066092-.4905172-.0106322-.0008621-.0008621-.0020115-.0008621-.0020115-.0008621-.1589081-.0327586-.312069-.0810345-.4606322-.1456896-.020977-.0094828-.0431035-.0163794-.0672414-.0218391-.029023-.0318966-.0482759-.0551724-.0772988-.0867816-.045115-.5318966-.0344828-1.0678161.0367816-1.5968391.0241379-.1867816-.0896552-.4324713-.212069-.5655173-.133908-.1454023-.3632184-.2600574-.5646552-.2571839-.2043103.0028736-.4181034.0626437-.5655172.2109196-.0454023.054023-.0896552.108908-.1347701.162931-.0011495.0020115-.0020115.0028736-.0031609.0048851-.075.1212643-.1155173.2543103-.1204023.396839-.1298851.9732759-.0597702 1.983046.1744252 2.9359196.2313219.9442529.6244253 1.8635057 1.1718391 2.6672414.1597701.2330459.3255747.4606322.5028736.6772988.0422414.1270115.0721264.2600575.0827586.4025862.0232759.2873563.0433908.6554598-.0327586.9761495-.1232759.1870689-.2416667.3778735-.3574713.5704023-.0086207.0057471-.7100574 1.3094827-.8939655 1.7201149-.4442529.9856322-.7922414 2.0215517-.9974138 3.0862069-.1002873.5152299-.1772988 1.0385057-.2060345 1.5637931-.0310345.5241379-.0077586 1.0433908.05 1.5646552.0520115.4635057.1560345.9097701.3014368 1.3491379-.029885.133908-.0778736.262931-.1454023.3816092-.1232758.0836207-.2793103.1146552-.4451149.1172414-.4356322-.1261495-.8603449-.2810345-1.2747127-.4652299-.0155172-.0114943-.029023-.0232759-.0433908-.0347701-.083908-.2445403-.1686781-.4893678-.2525862-.7333334-.0163793-.3784482.0520115-.8014367.0609196-1.0876436 0-.0057472-.0022989-.0097702-.0022989-.0155173.2353448-.6942529.4393678-1.3994253.5784483-2.1227011.6155172-3.2123564.1761494-6.5135058-.2534483-9.7221265-.0712644-.5376436-.1195402-1.1031609-.1985632-1.6571839 0-1.0609195-2.0252874-3.9313218-3.0747127-4.9939655.2824713-.1859195.5522989-.3864942.8123564-.5965517.0683908.0454023.1445402.0818965.2264367.104023.0827587.0232758.1666667.0310345.2494253.0261494.0772989.0893678.1735633.1761494.2399426.2531609.221839.2574713.4442528.5146552.6658046.7721265.2853448.3293103.85.291954 1.1428161 0 .3267241-.3278736.2853448-.8123564 0-1.1419541-.1974138-.2304597-.395115-.4586207-.5925288-.6870689-.1511494-.1752874-.2956896-.366092-.4643678-.5278736-.0028736-.0396552-.0048851-.079023-.0057471-.1186782.0094827-.05.0201149-.1011494.0316092-.1531609.8344827-.9885057 1.5080459-2.1178161 2.0109195-3.325.1551724-.3729885.3017241-.7594827.4336207-1.1534483.1551724-.0954023.3189655-.1649425.4896552-.2100574 1.1080459.2060345 2.2583333.2272988 3.404023.133908.0887931.05.1666666.1097701.2362069.179023.054885.0609195.1068965.1272989.1580459.1968391.0577587.0922414.1020115.1925287.1310345.2994253-.1031609 1.2451149.1954023 2.5227011.8566092 3.5902299.2117816.341954.5511494.4287356.8554598.3557471.7583333-.0793104.8844827-1.0793104.3758621-1.4617816-.4508621-.8672414-.5839081-1.825-.4135058-2.7655173.1678161-.3428161.3807471-.6204023.6968391-.841954.3304598-.0704023.658908-.1445402.979885-.2235632.6850575-.1678161 1.3902299-.3554598 2.0850575-.5839081h.0008621c.4646552-.0057471 1.4077586.337069 1.5031609.3333334 1.4270115.6850575 3.0362069.8353448 4.6482759.845977 2.0330459.0135057 4.1393678-.0471264 5.8005747-1.3635058.3428161-.2706896.283046-.8594827 0-1.1416666-.3373563-.3393678-.7988506-.2727012-1.141954 0-1.2591954.9971264-3.1468391.8988506-4.6586207.8893678-1.1227012-.0068966-2.3683908-.0474138-3.4612069-.4385058-.025-.0454022-.0508621-.0916666-.0712644-.1445402-.0183908-.0454023-.0307471-.0896552-.0393678-.1359195.7399425-.4537357 1.4066092-1.0106322 1.9433908-1.712069.2649425-.3468391.054023-.9037356-.2899425-1.1051724-.4163794-.2428161-.8393679-.0577586-1.1051725.2899425-.5974137.7804598-1.5166666 1.2902299-2.4031609 1.670977-.1772988.075-.3554597.1462644-.5356322.2155173-.1580459.004023-.3152298-.0017242-.4712643-.025-.0675288-.0094828-.2841954-.0594828-.4836207-.1359196-.5531609-1.3554597-.7014368-2.850862-.4336207-4.2856321.0143678-.0298851.0201149-.0617817.0181034-.0916667.0135058-.0672414.0270115-.1347701.0425288-.2022989.1301724-.1241379.3304597-.2117816.4626437-.2649425.0491379-.0201149.0991379-.0364942.1491379-.0520115.8864942.3594828 1.9821839.4074713 2.8433908.3775862 1.7439655-.0623563 3.4198276-.6367816 4.4689655-2.09454021.2543104-.3545977.0606322-.9-.2899425-1.10517241-.4077586-.23821839-.8508621-.06551724-1.1051724.28908046-.6543104.90948276-1.8557472 1.23132184-2.9175288 1.28821839-.5928161.0316092-1.221839.04022989-1.8057471-.08017241-.1744253-.03563219-.3853448-.08362069-.579023-.16178161-.0859195-.08764368-.1543103-.19166667-.2132184-.3045977-.0152299-.08764368-.0172414-.17729885-.0037356-.2658046.7304598-1.10804598 1.7554598-2.01752874 2.9359195-2.62844828.924138-.47816092.108046-1.87212643-.8152299-1.3954023-1.617816.83850575-2.9425287 2.1566092-3.8175287 3.73850575-.1195402.11293104-.5037356 1.03965517-.6155172 1.35287356-.7189655 1.99568966-.6522989 4.21091956.0683908 6.18994256-.0126437.3034482-.0974138.5905172-.3488506.7293103-.3344828.079023-.6744253.1551724-1.0183908.2244253-.2014368-.0451149-.3738506-.1695402-.4827586-.3517241-.0568966-1.262069-.6313219-2.4974138-1.6390805-3.2885058-.341954-.2686781-.8074712-.3341954-1.1416667 0-.2795977.2804598-.345977.870977 0 1.1428161.7477012.5876437 1.182184 1.454023 1.1706897 2.3712644-.1206897.1531609-.2517241.2956896-.3942529.429885-.0511494.0229885-.1020115.045115-.1560345.0643679-1.0068965.0626436-2.012931.0192528-2.9793103-.1954023.2755747-1.4675288.266954-2.9718391-.2640805-4.3505748 1.6419541-1.0040229 3.0284483-2.433908 3.9525863-4.12499996 1.1666666-2.1341954 1.5502873-4.56321839 1.2264367-6.96063218-.0586207-.43333333-.6137931-.66867816-.9933908-.56436782-.4672414.12902299-.6232758.55977012-.5646551.99339081.0761494.55775862.0965517 1.1137931.0683908 1.66293103-.1221265.11867816-.2649426.21494253-.420115.28247127-2.3344827.11465517-4.4870689-1.06867816-5.5893678-3.18362069-.4807471-.92212644-1.875-.10603449-1.3942529.81522988 1.2014368 2.3066092 3.5652299 3.81925287 6.1183908 3.98304598.0117816.01178161.3479885.12442529.4827587.1908046.1396551.10229885.2439655.25143678.3238505.41522988-.6600574 1.96005747-1.9580459 3.68965517-3.6951149 4.8775862-.1350575.0011494-.266954-.0077586-.3991379-.029023-.1192529-.179885-.2396552-.3600575-.3632184-.5373563-.4132184-.59166667-.8149426-1.21810345-1.4655173-1.57183908-.9135057-.49798851-1.7295977.89626437-.8149425 1.39425287.5336207.29109191.8844828.97614941 1.212069 1.46954021.0635057.0974138.1281609.1965517.1908046.2956897-.0462644.2083333-.1841954.4077586-.341092.583908-.3439655.0867816-.6977011.1436782-.9982759.1956897-.7227011.1244253-1.4704023.133908-2.1988505.079023-1.2235633-.0925288-2.4310345-.4364943-3.5324713-.9778736-.0373563-.1043103-.0712644-.2091954-.0971264-.316092.7997126-1.0514367 1.296839-2.24712639 1.5956896-3.51034478.1905173-.15517241.3804598-.2862069.6135058-.37758621.1206896-.04827586.2795977-.06752873.4364942-.09626436.0416667 0 .0810345-.0020115.1186782-.00402299 1.1310345-.05775862 2.1706896-.49511495 3.0137931-1.24770115.7767241-.69281609-.3689655-1.8316092-1.1425288-1.14281609-.4106321.36724138-.8991379.59827586-1.4347701.71580459-.0175287.00402299-.0347701.00689656-.0520115.00977012-.4896551-.0270115-.925-.28706897-1.1775862-.72643678.0442529-.97327586.0221265-1.95316092-.0287356-2.90517242-.0548851-1.03390804-1.670977-1.04051724-1.6149425 0 .1462643 2.74310345.1560345 5.84856322-1.4936782 8.14770117-.125.0347701-.2502873.0770115-.3841954.1097701-.1224138.0298851-.2456896.0445402-.3672414.0454023-1.6448276-1.33563219-2.8994253-3.11609196-3.75-5.06522989-.1744253-.4-.7603448-.49252873-1.1051724-.29022988-.4126437.24195402-.46551723.70344827-.2902299 1.10517241.8074713 1.84827586 2.0100575 3.54683908 3.4919541 4.91120686-.0008621.1252874.0037356.2497127.0020114.3778736-.0028735.1818966-.0511494.3178161-.133908.4364943-2.783908 1.8152298-6.36235632 2.3152298-9.54597701 1.3479885-.99712644-.3025862-1.42298851 1.2563218-.4295977 1.5580459 3.9341954 1.1945403 8.27959771.3727012 11.55775861-2.062931.179023-.0117816.3678161-.0155172.4362069-.0183908.0954023-.0048851.1899425-.0086207.2844828-.0097701 1.3189655.7890804 2.775 1.329885 4.3126436 1.537931.0057472.0037356.0106322.0077586.0175288.0114943.2359195.1301724.4316092.3066092.5704023.5405172.0066092.0135058.0143678.0261494.020977.0396552.2853448 1.2534483.4761494 2.6902299-.3054598 3.7451149-.2600575.3508621-.0577586.9020115.2902299 1.1051724.4103448.2399426.8448276.0626437 1.1051724-.2899425.895977-1.2103448.8672414-2.8.6089081-4.2741379.0163793-.0387931-.1494253-.5971265.1126436-.8295977.0362069-.0321839.0974138-.0089081.1465518-.0146552.6080459-.0663793 1.2103448-.1732759 1.795977-.3431034.2264368.0195402.4356322 0 .6514368.1071839.0626436.0327586.1195402.0701149.1724138.1126436.1396551 1.1399426-.1212644 2.3318966-.4189656 3.4272989-.5928161 2.1824713-1.7353448 4.2252874-3.4660919 5.6655172-.149138.0879311-.2997127.1747127-.4517242.2525862-.2304597.1183908-.5793103.1908046-.8770115.1367817-.029885-.0094828-.0597701-.020115-.0885057-.0327587-.3902299-.5086207-.6994253-1.0617816-.9597701-1.6985632-.4287356-1.0514368-.9163793-2.1439655-.8333333-3.304023.0307471-.4364942-.3931035-.8074712-.8074713-.8074712-.4635058 0-.7775862.370977-.8083333.8074712-.0135058.1936782-.0126437.3853449-.0020115.575-.0396552.054023-.0818966.1051724-.1293104.1522989-.1086207.0241379-.2367816.0212643-.3468391.0117816-1.0606321-.6252874-1.8902298-1.7103448-2.5735632-2.6758621-.2514368-.3566092-.7051724-.5232758-1.1051724-.2899425-.3517241.2051724-.5425287.7465517-.2899425 1.1051724 1.266954 1.791954 2.7614942 3.4744253 4.9681034 3.908046.0836207.2264368.1712644.450862.2609196.6735632.4451149 1.1186782.929023 2.1784483 1.7701149 3.0612069.7514368.7890805 1.5117816 1.5502873 2.2856322 2.3241379.8910919.891092 1.5224138 2.8712644 1.5396552 2.9810345.054023.3497126.1060344.7014368.1560344 1.0522989.0962644.6859195.182184 1.371839.2612069 2.058908.158046 1.3778736.3071839 2.7643678.3439656 4.1520115.0198275.7577586-.0143679 1.5132184-.0942529 2.2617816-.0390805.0123563-.0744253.0327586-.1137931.0439655-.0048851.0008621-.0089081.0008621-.0126437 0-.2043103-.0704023-.4017241-.154023-.5925287-.2534483-.3767242-.2166666-.7218391-.4807471-1.0408046-.7747126-.4066092-.4037356-.762069-.8557471-1.0683908-1.3402299-.0560345-.0954023-.1117816-.1916666-.1637931-.2890804-.1879311-.3497127-.3566092-.7091954-.5126437-1.0732759.0172414-.0936782.0422414-.1850575.0732758-.2767241.470115-.2350575.8853449-.579023 1.2293104-.975.4586207-.528161.741954-1.1899426.8577586-1.8770115.0344828-.2043104-.0531609-.416092-.1727011-.578161-.1270115-.1744252-.3382184-.2658046-.5462644-.2956896-.1936782-.0270115-.4278736.0520115-.5781609.1724138-.1724138.1387931-.2591954.3324712-.2956897.5454023-.0068965.0344827-.0183908.0896552-.0261494.1241379-.05.1706897-.1155172.3364943-.1945402.4971264 0 0-.0008621.0011495-.0008621.0020115-.1071839.1793104-.2304598.3471265-.3692529.5020115l-.000862.0011495c-.1089081.104885-.2235633.2002873-.3439656.2887931-.0827586.0031609-.1436781.0060344-.2264367.008908-.0548851-.0347701-.1097702-.0704023-.1658046-.1060345-.0028736-.0020115-.0057472-.0057471-.0077587-.0106322-.0364942-.0974137-.0729885-.1956896-.1097701-.2939655-.3632184-.950862-.7689655-1.8836207-1.3037356-2.7479885-.0008621-.000862-.0008621-.0017241-.0017241-.0037356-.0318966-.0974138-.083046-.1899425-.1416667-.2689655-.0307471-.0413793-.0655173-.079023-.104023-.1106322-.0020115-.0020115-.0028736-.0031609-.004023-.004023-.0508621-.075-.1031609-.1494253-.1568965-.2224138-.3913794-.5408046-.8422414-1.0264368-1.3258621-1.483908-.420115-.395977-.875-.7603449-1.3635058-1.0678161-.0135057-.0074713-.0270115-.0152299-.0405172-.0238506-.1020115-.1454023-.2014368-.2928161-.2956897-.4433908-.2833333-.4517241-.3795977-.8025862-.3632183-1.3316092.0028735-.0954023-.025-.3477012-.0192529-.3922414.1531609-1.1433908.0045977-2.3057471-.3652299-3.3945402-.1859195-.5433908-.4471264-1.0471265-.7534483-1.5318966-.3083333-.4885057-.6850575-.9094827-1.1043103-1.3045977-.1522989-.1445402-.4057472-.1695402-.604023-.1454023-.2083333.025-.3873563.1560345-.5146552.3140805-.1261494.158046-.1772988.4094828-.1454023.6051724.0327586.1962644.129023.3304598.2609196.4614943-.0181035-.0175288-.0364943-.0347702-.0537357-.0522989.341092.3287356.6387931.6977012.8939655 1.0956897-.0114942.1715517-.0471264.346839-.0913793.5163793-1.87126434.929885-3.98620687 1.3152299-6.05603446 1.1436781-.12040229-.1020115-.2387931-.204023-.3545977-.312931-.03074712-.0281609-.06264367-.058046-.09626436-.0887931-.0770115-.6985632-.19166667-1.3931034-.34482759-2.0784483.00287356-.1028735.00862069-.2060345.02298851-.3063218.02212643-.1617816.0867816-.3054598.14080459-.4528736.89885058-.4856322 1.88362069-.7784483 2.9224138-.8324712 1.03390804-.0548851 1.03965517-1.6706897 0-1.6158046-1.11982759.0586206-2.21522989.3227011-3.22413793.7890804-.10114943.0097701-.20316092.0221265-.30545977.0367816-.01235633.0017242-.02586207.0045977-.03850575.0066092-.09827586-.0336207-.19166667-.0752873-.28333334-.1204023-.025-.0356322-.04913793-.0712643-.07126436-.1068965-.36695403-.762069-.86321839-1.4212644-1.60919541-1.9609196-.35344827-.2554597-.89971264-.0606322-1.10517241.2899426-.23793103.4077586-.06436782.8488505.28908046 1.1054597.75373563.5442529 1.0887931 1.3778736 1.34712644 2.2333334.00086207.0028735.00086207.004885.00086207.0066092-.00574713.1399425.57528735 1.5770115.58103448 2.5747126.00057471.0982759-.02873563.1936782-.05.2882184-.00488506.0045977-.00977012.0103448-.01436782.0132184-.05804597.0416667-.12155172.0655172-.18994253.0772988-.64655172-.1974138-1.27672413-.454885-1.87988505-.771839-.92011495-.4827587-1.73735633.9114942-.81522989 1.3951149 3.5816092 1.8818965 7.95603448 1.9675287 11.60316092.2563218.0422414.0048851.0836207.0117816.1261494.0212644.0675288.0163793.133046.0405172.1936782.0695402.0356322.0336207.0683908.070977.0982758.1114943.024138.1813218.0425288.3643678.0511495.5494253.0086207.4873563-.0376437.975-.1396552 1.4520115-.0327586.1261494-.0686782.2505747-.108908.3747126-.0097702.0086207-.0163794.0163793-.0204023.0192529-.0528736.0433908-.1068966.0859195-.1626437.1261494-.1146552.083046-.237069.1514368-.3652299.2112069-.0048851.0017241-.0106322.0037356-.0155172.0057471-.0135058-.000862-.0270115-.004023-.0413794-.004885-1.0272988-.1020115-2.0543103.0945402-2.93103444.6321839-.2612069.0327586-.52816092.029885-.79511494.0114942-2.58994253-.6695402-5.39971265-.2525862-7.66206897 1.2189656-.86810345.5655172-.05862069 1.9646551.81522989 1.3951149" fill="#ff5271" mask="url(#a)"/></svg>