<svg xmlns="http://www.w3.org/2000/svg" xmlns:xlink="http://www.w3.org/1999/xlink" width="50" height="50" viewBox="0 0 50 50">
  <defs>
    <polygon id="mariana-tek-a" points="49.834 49.814 0 49.814 0 0 49.834 0"/>
  </defs>
  <g fill="none" fill-rule="evenodd">
    <mask id="mariana-tek-b" fill="#fff">
      <use xlink:href="#mariana-tek-a"/>
    </mask>
    <path fill="#FF5271" fill-rule="nonzero" d="M1.18712644,30.0958046 C1.67477011,29.7788506 2.18425287,29.5216667 2.7104023,29.321092 C2.9012069,29.3587356 3.06988506,29.4598851 3.18252874,29.6236782 C3.22706897,30.3472414 3.37448276,31.0633333 3.62678161,31.7455172 C3.77821839,32.1538506 4.1741954,32.4314368 4.62017241,32.309023 C5.01327586,32.2012644 5.33712644,31.7271264 5.18482759,31.3156322 C4.91413793,30.5834483 4.78396552,29.8492529 4.78798851,29.0831609 C4.94603448,28.9963793 5.22735632,28.9098851 5.25235632,28.9029885 C5.46528736,28.8472414 5.67735632,28.8239655 5.89775862,28.821954 C5.93166667,28.821954 5.96241379,28.8153448 5.98741379,28.8035632 C6.69,28.8383333 7.39344828,28.9627586 8.08310345,29.1765517 C8.09,29.1785632 8.09574713,29.1854598 8.09775862,29.192931 C8.22477011,29.8213793 7.97908046,30.4291379 7.67563218,30.9917816 C7.33166667,31.6268391 6.92793103,32.2532759 6.46931034,32.813046 C5.54804598,33.9374713 4.39488506,34.8095977 2.92821839,35.0193678 C2.49574713,35.0811494 2.25867816,35.6305747 2.36356322,36.013046 C2.49172414,36.4774138 2.92333333,36.6383333 3.35810345,36.5774138 C3.50350575,36.5555747 3.64718391,36.5274138 3.78971264,36.4937931 C4.08051724,36.488046 4.39,36.4774138 4.63655172,36.6277011 C4.74172414,36.9368966 4.78511494,37.3029885 4.83224138,37.5334483 C4.94603448,38.0874713 5.03741379,38.738908 4.80522989,39.2754023 C4.6308046,39.6762644 4.68568966,40.1426437 5.09431034,40.3817241 C5.43626437,40.5811494 6.02505747,40.4935057 6.20034483,40.0917816 C6.62333333,39.1116092 6.6012069,38.1366092 6.39028736,37.1035632 C6.34201149,36.8705172 6.28913793,36.6391954 6.22362069,36.4147701 C6.21011494,36.1064368 6.215,35.7940805 6.30436782,35.5512644 C6.37103448,35.3713793 6.46528736,35.2035632 6.55695402,35.0328736 C6.80551724,34.8190805 7.04172414,34.588908 7.26413793,34.3489655 C7.46758621,34.3403448 7.66413793,34.371954 7.84143678,34.4472414 C8.20954023,34.9983908 8.12563218,35.8394828 8.09,36.4725287 C8.03109195,37.5113218 9.64689655,37.5072989 9.70494253,36.4725287 C9.76270115,35.4377586 9.70005747,34.2748276 9.11212644,33.4374713 C8.9695977,32.9989655 8.91097701,32.5538506 8.93310345,32.0923563 C9.52850575,31.0777011 9.93597701,29.9475287 9.67793103,28.8345977 C9.68281609,28.8231034 9.68568966,28.8162069 9.69028736,28.8067241 C9.88396552,28.6958046 10.0874138,28.6052874 10.2974713,28.5348851 C10.2983333,28.534023 10.2994828,28.534023 10.2994828,28.534023 C10.5586782,28.4644828 10.8224713,28.4242529 11.0894253,28.4078736 L11.0914368,28.4078736 C11.469023,28.4047126 11.8448851,28.4492529 12.2138506,28.5279885 C12.7081034,28.6561494 13.1862644,28.8452299 13.6379885,29.0811494 C14.2287931,29.4164943 14.7701724,29.8348851 15.2655747,30.2981034 C15.4486207,30.4782759 15.623046,30.6662069 15.7897126,30.8581609 C15.9957471,31.3274138 16.1635632,31.9064368 16.0874138,32.4024138 C15.9879885,32.659023 15.8753448,32.9093103 15.748046,33.1529885 C15.5543678,33.4932184 15.3339655,33.8133333 15.0891379,34.1147701 C15.0882759,34.1156322 15.0871264,34.1167816 15.0862644,34.1176437 C15.0313793,34.1581609 14.9831034,34.2081609 14.9417241,34.2650575 C14.931954,34.2687931 14.9204598,34.2748276 14.9081034,34.2825862 C14.8799425,34.2949425 14.8512069,34.3044253 14.8221839,34.3113218 C14.7365517,34.3383333 14.648908,34.3604598 14.5629885,34.3845977 C14.4512069,34.4162069 14.3405747,34.4521264 14.2267816,34.4791379 C14.2104023,34.4828736 14.19,34.4837356 14.169023,34.4845977 C13.9434483,33.663908 13.5195977,32.8978161 12.9106897,32.2975287 C12.8198851,32.1857471 12.7081034,32.1038506 12.5741954,32.0518391 C12.5733333,32.050977 12.5713218,32.050977 12.5713218,32.050977 C12.502069,32.0334483 12.4325287,32.017931 12.3641379,32.0015517 C12.156954,31.971954 11.9497701,32.0538506 11.7851149,32.1742529 C11.6221839,32.2935057 11.5095402,32.5231034 11.4902874,32.7205172 C11.473046,32.8978161 11.5287931,33.1664943 11.6618391,33.2986782 C11.8854023,33.5185057 12.0808046,33.7601724 12.2506322,34.0222414 L12.2514943,34.0242529 C12.4026437,34.2871839 12.5262069,34.5636207 12.6204598,34.8518391 C12.7014943,35.1515517 12.7514943,35.4578736 12.7678736,35.7682184 C12.7661494,35.7768391 12.765,35.7837356 12.7629885,35.7923563 C12.6155747,36.117069 12.4431609,36.4271264 12.2417241,36.7231034 C12.2408621,36.7251149 12.2388506,36.7268391 12.2371264,36.7279885 C12.0877011,36.8357471 11.9365517,36.9409195 11.7813793,37.0391954 C11.3563793,37.2877586 10.9072414,37.488046 10.4391379,37.6383333 C10.1693103,37.7144828 9.89574713,37.7733908 9.61816092,37.8156322 C9.17591954,37.8822989 8.90695402,38.309023 8.95810345,38.7348851 C8.98109195,38.9294253 9.11816092,39.1357471 9.27304598,39.2495402 C9.44172414,39.3736782 9.67017241,39.425977 9.87735632,39.3949425 C9.96413793,39.3814368 10.0497701,39.3659195 10.1365517,39.3495402 C10.3127011,39.6435057 10.3572414,40.08 10.3532184,40.3478161 C10.3474713,40.6532759 10.3023563,40.9558621 10.227069,41.2518391 C10.2086782,41.3027011 10.1894253,41.3538506 10.1693103,41.4038506 C9.89948276,42.0765517 9.47936782,42.8107471 8.98224138,43.3754023 C8.98022989,43.3782759 8.97735632,43.3802874 8.97534483,43.3811494 C8.75781609,43.4765517 8.58913793,43.6739655 8.49086207,43.9150575 C8.48511494,43.9265517 8.48022989,43.938046 8.4762069,43.9506897 C8.3741954,44.1992529 8.49258621,44.5616092 8.6833908,44.7357471 C8.69517241,44.7463793 8.70551724,44.7570115 8.71729885,44.7676437 C8.92333333,44.9555747 9.22505747,45.0682184 9.50350575,44.9748276 C10.0325287,44.7975287 10.3716092,44.1983908 10.6808046,43.7644828 C11.0721839,43.2153448 11.4063793,42.6265517 11.656954,42.0012644 C11.8514943,41.5187931 11.9931609,41.0291379 12.0644253,40.5087356 C12.1474713,39.896954 12.0905747,39.2851724 12.1397126,38.6733908 C12.1397126,38.6656322 12.1445977,38.6598851 12.1512069,38.6558621 C12.1782184,38.6414943 12.2072414,38.6279885 12.2342529,38.6136207 C12.9210345,38.2397701 13.5437356,37.7713793 14.1313793,37.2598851 C14.3193103,37.0958046 14.5072414,36.9302874 14.694023,36.7624713 C14.6997701,36.7595977 14.7046552,36.7567241 14.7104023,36.7538506 C14.8598276,36.7133333 15.0101149,36.6805747 15.1624138,36.6673563 C15.1931609,36.6817241 15.2181609,36.6932184 15.2491954,36.7087356 C15.2624138,36.7268391 15.277069,36.746092 15.2905747,36.7664943 C15.4667241,37.0777011 15.6006322,37.4110345 15.7095402,37.7521264 C15.9477586,38.5817241 16.0787931,39.4423563 16.1161494,40.3047126 C16.1259195,40.7159195 16.1132759,41.1282759 16.0796552,41.538046 C16.0787931,41.5466667 16.0718966,41.5552874 16.0624138,41.5570115 C15.7925862,41.6196552 15.5158621,41.6572989 15.2471839,41.7305747 C15.0362644,41.7883333 14.8193103,41.8472414 14.6293678,41.9570115 C14.377069,42.1015517 14.1612644,42.2653448 13.9905747,42.5052874 C13.7305172,42.8705172 13.8181609,43.3483908 14.1604023,43.6239655 C14.3172989,43.7512644 14.5687356,43.8012644 14.7644253,43.7693678 C14.9601149,43.7366092 15.1632759,43.617069 15.2787931,43.4552874 C15.2877011,43.442931 15.2963218,43.4302874 15.3049425,43.4187931 C15.3221839,43.4044253 15.3405747,43.3906322 15.3578161,43.3774138 C15.4187356,43.3475287 15.4813793,43.3213793 15.5457471,43.2992529 L15.5477586,43.2983908 C15.5563793,43.2963793 15.565,43.2943678 15.5747701,43.2923563 C15.6345402,43.3360345 15.6874138,43.388908 15.7348276,43.4458046 C15.7385632,43.4515517 15.7414368,43.4561494 15.7451724,43.4621839 C15.5670115,44.1067241 15.3328161,44.7397701 15.0227586,45.3294253 C14.8414368,45.6455172 14.6333908,45.9452299 14.3885632,46.2167816 L14.3877011,46.217931 C14.3009195,46.3015517 14.2112644,46.3817241 14.1187356,46.4587356 C13.7718966,46.742069 13.7371264,47.2305747 13.9954598,47.584023 C14.115,47.746954 14.3443103,47.8595977 14.5417241,47.8788506 C14.7402874,47.8983908 14.9647126,47.8337356 15.1198851,47.7064368 C15.9486207,47.0282759 16.4948851,46.08 16.8831034,45.0952299 C17.5443103,43.417931 17.7966092,41.6093103 17.6831034,39.8141954 C17.627069,38.9277011 17.4624138,38.0584483 17.2040805,37.2095977 C17.0382759,36.6604598 16.8012069,36.1371839 16.4707471,35.6785632 C16.469023,35.6768391 16.4670115,35.6728161 16.4670115,35.6699425 C16.4601149,35.6187931 16.4514943,35.5696552 16.4408621,35.5196552 L16.4408621,35.5147701 C16.4506322,35.3248276 16.4641379,35.1351724 16.4776437,34.9452299 C16.4776437,34.9414943 16.4793678,34.9374713 16.4825287,34.9337356 C16.5218966,34.8837356 16.5615517,34.8345977 16.598908,34.7834483 C16.8532184,34.4345977 17.0701724,34.0607471 17.2687356,33.6762644 C17.2994828,33.6156322 17.3293678,33.555 17.3592529,33.4932184 C17.3670115,33.4768391 17.39,33.4768391 17.3968966,33.4940805 C17.6135632,33.996092 17.8081034,34.509023 17.998908,35.0213793 C18.3468966,35.9541379 18.6908621,36.8946552 19.1552299,37.7779885 C19.1716092,37.8098851 19.19,37.8397701 19.2072414,37.8716667 C19.2072414,37.8725287 19.2083908,37.8733908 19.2083908,37.8754023 C19.3460345,38.2983908 19.873046,39.8006897 20.0282184,40.0262644 C20.4684483,40.663046 20.9224713,41.2891954 21.3704598,41.9205172 C21.7799425,42.4966667 22.2486207,43.0699425 22.8037931,43.5041379 C22.6641379,43.8811494 22.5144253,44.2547126 22.3417241,44.6213793 C21.7704598,45.8354598 21.0486207,46.9791379 20.1805172,48.0024138 C20.0514943,48.1544253 19.6264943,48.7768391 19.4655747,48.9012644 C19.3141379,49.017931 19.2842529,49.0544253 19.2178736,49.2182184 C20.2382759,49.434023 21.2922989,49.6739655 22.335977,49.700977 C23.1414368,49.7213793 23.8833908,49.7664943 24.6879885,49.813908 C24.6466092,49.5883333 24.4644253,49.3136207 24.2601149,49.175977 C24.1000575,49.067069 23.7908621,48.5216667 23.7012069,48.3742529 C23.523908,48.0843103 23.4158621,47.7762644 23.3592529,47.4633333 C23.5486207,47.5205172 23.7394253,47.5728161 23.9316667,47.613908 C24.8468966,47.8116092 25.7604023,47.8481034 26.6891379,47.7334483 C27.1477586,47.6765517 27.5997701,47.5716667 28.04,47.4262644 C28.0604023,47.4291379 28.7040805,47.1822989 28.7213218,47.1610345 C29.6897126,46.7294253 30.5713218,46.0926437 31.2747701,45.3081609 C31.4135632,45.1541379 31.5454598,44.9952299 31.6727586,44.8314368 C31.6802299,44.8208046 31.6966092,44.8176437 31.7083908,44.8254023 C32.3296552,45.2397701 33.0408621,45.5394828 33.7627011,45.7052874 C34.6971839,45.9190805 35.6606897,45.9452299 36.6032184,45.7621839 C37.1233333,45.6607471 37.6331034,45.4854598 38.110977,45.2570115 C38.4888506,45.075977 38.6583908,44.5403448 38.4463218,44.175977 C38.2218966,43.7897701 37.7698851,43.6481034 37.3661494,43.8397701 C37.2486207,43.8966667 37.1273563,43.9486782 37.0058046,43.996954 C36.6213218,44.1297126 36.2244828,44.2205172 35.8216092,44.2685057 C35.3831034,44.3041379 34.9420115,44.2897701 34.5063793,44.2291379 C34.3195977,44.1952299 34.1354023,44.1518391 33.9532184,44.1001149 C33.6411494,43.9515517 33.3425862,43.7779885 33.0543678,43.5863218 C33.0445977,43.5756897 33.0342529,43.5653448 33.0224713,43.5544253 C32.9790805,43.517069 32.9290805,43.4745402 32.8741954,43.4302874 L32.8733333,43.4294253 C32.8017816,43.3251149 32.7431609,43.2144828 32.6948851,43.096092 C32.7558046,42.9524138 32.8124138,42.8078736 32.8644253,42.6593103 C33.0658621,42.0900575 32.585977,41.4848851 31.9905747,41.5851724 C31.7006322,41.6343103 31.4578161,41.8357471 31.3526437,42.1400575 C31.2948851,42.3078736 31.2313793,42.4725287 31.160977,42.6343103 C30.9296552,43.121092 30.6417241,43.5785632 30.3043678,43.9998276 C30.0606897,44.2860345 29.7928736,44.550977 29.5066667,44.7955172 C29.2695977,44.8524138 29.0267816,44.9650575 28.7897126,45.0432184 C28.6086782,45.0403448 28.4285057,45.0055747 28.2598276,44.9371839 C28.173908,44.8400575 28.0948851,44.7406322 28.0218966,44.6337356 C27.9428736,44.3320115 27.8839655,44.0248276 27.8474713,43.7144828 C27.7885632,43.0228161 27.8241954,42.3251149 27.9253448,41.638908 C28.1132759,40.5271264 28.4612644,39.4403448 28.9158621,38.4101724 C29.3928736,38.0121839 30.0509195,38.367931 30.577069,38.5616092 C30.948046,38.6975287 31.3316667,38.7946552 31.7129885,38.8937931 C31.9078161,38.9458046 32.1121264,39.0133333 32.3172989,39.0595977 C33.006092,39.2360345 33.7181609,39.3360345 34.4285057,39.3544253 C34.4302299,39.3572989 34.4313793,39.3593103 34.4331034,39.3633333 C35.335977,40.9722414 37.0934483,41.6687931 38.8471839,41.8616092 C40.6066667,42.0544253 42.6532184,42.0072989 44.2063793,41.063908 C45.0928736,40.5242529 44.2825287,39.1262644 43.3911494,39.6687931 C42.8325287,40.0078736 42.1954598,40.1851724 41.5365517,40.2690805 C41.4083908,40.1696552 41.2888506,40.0618966 41.177069,39.9443678 C41.1491954,39.8940805 41.123046,39.8412069 41.1000575,39.788046 C40.9670115,38.1325862 41.6009195,36.4136207 42.7678736,35.2412069 C44.0368391,33.9644828 45.8397126,33.392931 47.6152874,33.5751149 C48.0500575,33.6193678 48.4227586,33.1713793 48.4227586,32.7676437 C48.4227586,32.2926437 48.0509195,32.0047126 47.6152874,31.9593103 C45.3983333,31.7320115 43.0733333,32.5771264 41.5336782,34.192931 C40.065,35.7325862 39.3782184,37.8127586 39.5121264,39.9035632 C39.3598276,40.0656322 39.169023,40.1851724 38.9474713,40.2555747 C38.0466092,40.1598851 37.1253448,39.8871839 36.4497701,39.3015517 C36.4586782,39.2581609 36.4787931,39.2176437 36.5037931,39.1771264 C36.6405747,39.1504023 36.7773563,39.1213793 36.9132759,39.0877586 C37.1147126,39.0374713 37.3006322,38.9084483 37.4115517,38.7311494 C37.5155747,38.5653448 37.5655747,38.3205172 37.5127011,38.1279885 C37.4250575,37.8098851 37.1601149,37.5624713 36.844023,37.5150575 C36.710977,37.4765517 36.5664368,37.4696552 36.4354023,37.4995402 C36.3661494,37.5159195 36.2948851,37.5449425 36.2282184,37.5814368 C36.0635632,37.5305747 35.9296552,37.4486782 35.8023563,37.359023 C35.7793678,37.013908 35.7917241,36.6682184 35.8391379,36.3262644 C35.9092529,35.9443678 36.0210345,35.5736782 36.1724713,35.217069 C36.3351149,34.875977 36.5345402,34.555 36.7678736,34.2584483 C36.9914368,34.000977 37.24,33.767931 37.5135632,33.5636207 C37.6695977,33.446954 37.7661494,33.1848851 37.7710345,32.9981034 C37.7767816,32.8064368 37.6994828,32.571092 37.560977,32.4334483 C37.4115517,32.2851724 37.210977,32.1722414 36.9951724,32.1751149 C36.927931,32.1820115 36.8612644,32.1886207 36.7937356,32.1952299 C36.7937356,32.1952299 36.7908621,32.1952299 36.7891379,32.1963793 C36.6532184,32.2279885 36.5328161,32.2917816 36.4305172,32.3860345 C35.760977,32.8854598 35.206092,33.5713793 34.8388506,34.3190805 C34.4408621,35.1331609 34.2000575,36.013908 34.1894253,36.9245402 C34.1874138,37.067931 34.1931609,37.2116092 34.202069,37.3570115 C34.0796552,37.5113218 33.9351149,37.6317241 33.7672989,37.7058621 C33.6537931,37.6943678 33.54,37.6797126 33.4262069,37.6633333 C32.7374138,37.5440805 32.0647126,37.3435057 31.423908,37.0641954 C31.3256322,37.0187931 31.2285057,36.9696552 31.131092,36.9205172 C30.8805172,36.6952299 30.577931,36.3917816 30.5598276,36.1035632 C30.5512069,35.9541379 30.6224713,35.7923563 30.6339655,35.6440805 C30.635977,35.6150575 30.6368391,35.5860345 30.635977,35.559023 C30.7273563,35.4406322 30.8198851,35.3231034 30.9144253,35.2075862 C31.4762069,34.5417816 32.0945977,33.925977 32.7661494,33.3708046 C32.9213218,33.2417816 33.0187356,33.0018391 33.0244828,32.8052874 C33.0302299,32.6127586 32.9523563,32.3774138 32.8135632,32.2397701 C32.4925862,31.9208046 32.0290805,31.9072989 31.6831034,32.1923563 C31.2468966,32.5527011 30.8354023,32.942069 30.4451724,33.3506897 C30.2736207,33.3391954 30.1040805,33.2909195 29.9402874,33.2225287 C29.8063793,33.0682184 29.6782184,32.9084483 29.5586782,32.7435057 C29.3997701,32.5104598 29.256092,32.2696552 29.1250575,32.021092 C29.1356897,32.0015517 29.1463218,31.9822989 29.1598276,31.9633333 C29.3003448,31.7426437 29.4710345,31.5449425 29.6627011,31.3696552 C29.8882759,31.3446552 30.1118391,31.2992529 30.3264943,31.2337356 C31.1233333,30.9891954 31.8161494,30.5449425 32.4618391,30.0254023 C33.2046552,29.4291379 33.8540805,28.7162069 34.3695977,27.9173563 C34.6066667,27.7101724 34.8802299,27.550977 35.1799425,27.4440805 C35.5354023,27.4731034 35.8911494,27.4854598 36.2466092,27.4845977 C36.4681609,27.6156322 36.6454598,27.7986782 36.7658621,28.0202299 C36.7253448,28.7604598 36.7003448,29.4937931 37.106954,30.167931 C37.6388506,31.0518391 38.6555172,31.6058621 39.6026437,31.9277011 C40.5891379,32.263908 41.0121264,30.7038506 40.0322414,30.3705172 C39.4782184,30.1814368 38.6871264,29.8164943 38.4385632,29.2391954 C38.2170115,28.7256897 38.352931,28.0693678 38.398046,27.4914943 C38.510977,27.3949425 38.6333908,27.3101724 38.7652874,27.238046 C39.0908621,27.1733908 39.4155747,27.0963793 39.7365517,27.0047126 C40.9928736,28.059023 42.631092,28.4251149 44.2526437,28.4751149 C45.9724713,28.5279885 47.9121264,28.5193678 49.4422989,27.6357471 C50.3431609,27.1164943 49.5299425,25.7193678 48.627069,26.2406322 C48.2331034,26.4690805 47.7986207,26.6156322 47.3445977,26.7107471 C47.3118391,26.7021264 47.2782184,26.6935057 47.2443103,26.6857471 C47.1336782,26.5943678 47.0267816,26.4978161 46.9236207,26.3978161 C46.4032184,24.355 47.2532184,22.2343103 49.1532184,21.1771264 C50.0627011,20.6722414 49.2486207,19.2762644 48.3379885,19.7820115 C45.9187356,21.1271264 44.6793678,23.9598851 45.3049425,26.6107471 C45.0474713,26.738908 44.7509195,26.8208046 44.5089655,26.8662069 C44.477069,26.8650575 44.4434483,26.8650575 44.4115517,26.8641954 C43.4586782,26.8437931 42.4701724,26.7196552 41.6135632,26.309023 C41.8879885,26.1820115 42.1598276,26.046092 42.4267816,25.8975287 C43.3362644,25.3937931 42.5221839,23.9983908 41.6115517,24.5032759 C41.1713218,24.7472414 40.7155747,24.9601724 40.2471839,25.1423563 C39.9813793,25.1558621 39.7095402,25.1412069 39.5003448,25.0256897 C39.8532184,23.7363218 39.5506322,22.2912069 38.5147126,21.2216667 C37.7911494,20.471954 36.6491954,21.6156322 37.373046,22.3633333 C38.2767816,23.2989655 38.2546552,24.7722414 37.3566667,25.6518391 L36.6503448,25.8647701 C36.631954,25.8696552 36.6147126,25.8794253 36.5983333,25.8900575 C36.2957471,25.8995402 35.9931609,25.8966667 35.6905747,25.8822989 C35.6221839,25.8216667 35.5460345,25.7656322 35.4960345,25.6935057 C35.4592529,25.6383333 35.4276437,25.5817241 35.3994828,25.521092 C35.4920115,25.0989655 35.5422989,24.6673563 35.5411494,24.2386207 C35.5411494,24.0331609 35.4698851,23.825977 35.3302299,23.6728161 C35.1954598,23.5274138 34.9670115,23.4118966 34.7635632,23.4156322 C34.3417241,23.4213793 33.9408621,23.7440805 33.9408621,24.1912069 C33.9417241,24.4397701 33.9244828,24.6866092 33.8908621,24.9322989 C33.8655747,25.0708046 33.8348276,25.2078736 33.8000575,25.3446552 C33.7971839,25.3532759 33.7905747,25.3610345 33.7808046,25.363908 C33.4503448,25.4728161 33.1101149,25.546954 32.7644253,25.5883333 C32.3848276,25.6173563 32.0040805,25.6055747 31.6273563,25.5535632 C31.2563793,25.4863218 30.8951724,25.3774138 30.5471839,25.23 C30.1945977,25.0613218 29.8612644,24.8521264 29.5537931,24.6095977 C29.2581034,24.3529885 28.9920115,24.0659195 28.7589655,23.7518391 C28.6808046,23.6343103 28.6066667,23.5147701 28.5374138,23.3926437 C28.4342529,23.2075862 28.2618391,23.0581609 28.0575287,22.9975287 C27.8724713,22.9423563 27.6256322,22.9578736 27.4572414,23.0561494 C27.0908621,23.2682184 26.9012069,23.746954 27.1207471,24.1363218 C27.6943103,25.1547126 28.5710345,26.0248276 29.6193103,26.5489655 C30.4055172,26.9412069 31.2661494,27.1745402 32.1428736,27.2004023 C32.1871264,27.2167816 32.2313793,27.2360345 32.2759195,27.2581609 C32.5282184,27.3900575 32.3595402,27.688046 32.2583908,27.8998276 C32.2276437,27.9653448 32.2055172,28.034023 32.194023,28.1032759 C31.8354023,28.4742529 31.4434483,28.8144828 31.0241954,29.117931 C30.7224713,29.3239655 30.4037931,29.5052874 30.0644253,29.642069 C30.0635632,29.642931 30.0627011,29.642931 30.0627011,29.642931 C29.8641379,29.7093103 29.6627011,29.7584483 29.4555172,29.7874713 L29.4517816,29.7874713 C29.2888506,29.7981034 29.1250575,29.7940805 28.9612644,29.7768391 C28.9604023,29.775977 28.9592529,29.775977 28.9592529,29.775977 C28.8003448,29.7432184 28.6471839,29.6949425 28.4986207,29.6302874 C28.4776437,29.6208046 28.4555172,29.613908 28.4313793,29.6084483 C28.4023563,29.5765517 28.3831034,29.5532759 28.3540805,29.5216667 C28.3089655,28.9897701 28.3195977,28.4538506 28.3908621,27.9248276 C28.415,27.738046 28.3012069,27.4923563 28.1787931,27.3593103 C28.0448851,27.213908 27.8155747,27.0992529 27.6141379,27.1021264 C27.4098276,27.105 27.1960345,27.1647701 27.0486207,27.313046 C27.0032184,27.367069 26.9589655,27.421954 26.9138506,27.475977 C26.9127011,27.4779885 26.9118391,27.4788506 26.9106897,27.4808621 C26.8356897,27.6021264 26.7951724,27.7351724 26.7902874,27.8777011 C26.6604023,28.850977 26.7305172,29.8607471 26.9647126,30.8136207 C27.1960345,31.7578736 27.5891379,32.6771264 28.1365517,33.4808621 C28.2963218,33.713908 28.4621264,33.9414943 28.6394253,34.1581609 C28.6816667,34.2851724 28.7115517,34.4182184 28.7221839,34.5607471 C28.7454598,34.8481034 28.7655747,35.2162069 28.6894253,35.5368966 C28.5661494,35.7239655 28.4477586,35.9147701 28.331954,36.1072989 C28.3233333,36.113046 27.6218966,37.4167816 27.4379885,37.8274138 C26.9937356,38.813046 26.6457471,39.8489655 26.4405747,40.9136207 C26.3402874,41.4288506 26.2632759,41.9521264 26.2345402,42.4774138 C26.2035057,43.0015517 26.2267816,43.5208046 26.2845402,44.042069 C26.3365517,44.5055747 26.4405747,44.9518391 26.585977,45.3912069 C26.556092,45.5251149 26.5081034,45.6541379 26.4405747,45.7728161 C26.3172989,45.8564368 26.1612644,45.8874713 25.9954598,45.8900575 C25.5598276,45.763908 25.1351149,45.609023 24.7207471,45.4248276 C24.7052299,45.4133333 24.6917241,45.4015517 24.6773563,45.3900575 C24.5934483,45.1455172 24.5086782,44.9006897 24.4247701,44.6567241 C24.4083908,44.2782759 24.4767816,43.8552874 24.4856897,43.5690805 C24.4856897,43.5633333 24.4833908,43.5593103 24.4833908,43.5535632 C24.7187356,42.8593103 24.9227586,42.1541379 25.0618391,41.4308621 C25.6773563,38.2185057 25.2379885,34.9173563 24.8083908,31.7087356 C24.7371264,31.171092 24.6888506,30.6055747 24.6098276,30.0515517 C24.6098276,28.9906322 22.5845402,26.1202299 21.5351149,25.0575862 C21.8175862,24.8716667 22.0874138,24.671092 22.3474713,24.4610345 C22.4158621,24.5064368 22.4920115,24.542931 22.573908,24.5650575 C22.6566667,24.5883333 22.7405747,24.596092 22.8233333,24.5912069 C22.9006322,24.6805747 22.9968966,24.7673563 23.0632759,24.8443678 C23.2851149,25.1018391 23.5075287,25.359023 23.7290805,25.6164943 C24.0144253,25.9458046 24.5790805,25.9084483 24.8718966,25.6164943 C25.1986207,25.2886207 25.1572414,24.8041379 24.8718966,24.4745402 C24.6744828,24.2440805 24.4767816,24.0159195 24.2793678,23.7874713 C24.1282184,23.6121839 23.9836782,23.4213793 23.815,23.2595977 C23.8121264,23.2199425 23.8101149,23.1805747 23.8092529,23.1409195 C23.8187356,23.0909195 23.8293678,23.0397701 23.8408621,22.9877586 C24.6753448,21.9992529 25.348908,20.8699425 25.8517816,19.6627586 C26.006954,19.2897701 26.1535057,18.9032759 26.2854023,18.5093103 C26.4405747,18.413908 26.6043678,18.3443678 26.7750575,18.2992529 C27.8831034,18.5052874 29.0333908,18.5265517 30.1790805,18.4331609 C30.2678736,18.4831609 30.3457471,18.542931 30.4152874,18.6121839 C30.4701724,18.6731034 30.5221839,18.7394828 30.5733333,18.809023 C30.631092,18.9012644 30.6753448,19.0015517 30.7043678,19.1084483 C30.6012069,20.3535632 30.8997701,21.6311494 31.560977,22.6986782 C31.7727586,23.0406322 32.1121264,23.1274138 32.4164368,23.0544253 C33.1747701,22.9751149 33.3009195,21.9751149 32.7922989,21.5926437 C32.3414368,20.7254023 32.2083908,19.7676437 32.3787931,18.8271264 C32.5466092,18.4843103 32.7595402,18.2067241 33.0756322,17.9851724 C33.406092,17.9147701 33.7345402,17.8406322 34.0555172,17.7616092 C34.7405747,17.5937931 35.4457471,17.4061494 36.1405747,17.1777011 L36.1414368,17.1777011 C36.606092,17.171954 37.5491954,17.5147701 37.6445977,17.5110345 C39.0716092,18.196092 40.6808046,18.3463793 42.2928736,18.3570115 C44.3259195,18.3705172 46.4322414,18.3098851 48.0934483,16.9935057 C48.4362644,16.7228161 48.3764943,16.134023 48.0934483,15.8518391 C47.756092,15.5124713 47.2945977,15.5791379 46.9514943,15.8518391 C45.6922989,16.8489655 43.8046552,16.7506897 42.2928736,16.7412069 C41.1701724,16.7343103 39.9244828,16.6937931 38.8316667,16.3027011 C38.8066667,16.2572989 38.7808046,16.2110345 38.7604023,16.1581609 C38.7420115,16.1127586 38.7296552,16.0685057 38.7210345,16.0222414 C39.460977,15.5685057 40.1276437,15.0116092 40.6644253,14.3101724 C40.9293678,13.9633333 40.7184483,13.4064368 40.3744828,13.205 C39.9581034,12.9621839 39.5351149,13.1472414 39.2693103,13.4949425 C38.6718966,14.2754023 37.7526437,14.7851724 36.8661494,15.1659195 C36.6888506,15.2409195 36.5106897,15.3121839 36.3305172,15.3814368 C36.1724713,15.3854598 36.0152874,15.3797126 35.8592529,15.3564368 C35.7917241,15.346954 35.5750575,15.296954 35.3756322,15.2205172 C34.8224713,13.8650575 34.6741954,12.3696552 34.9420115,10.9348851 C34.9563793,10.905 34.9621264,10.8731034 34.9601149,10.8432184 C34.9736207,10.775977 34.9871264,10.7084483 35.0026437,10.6409195 C35.1328161,10.5167816 35.3331034,10.4291379 35.4652874,10.375977 C35.5144253,10.3558621 35.5644253,10.3394828 35.6144253,10.3239655 C36.5009195,10.6834483 37.5966092,10.7314368 38.4578161,10.7015517 C40.2017816,10.6391954 41.8776437,10.0647701 42.9267816,8.60701149 C43.181092,8.25241379 42.9874138,7.70701149 42.6368391,7.50183908 C42.2290805,7.26362069 41.785977,7.43632184 41.5316667,7.79091954 C40.8773563,8.7004023 39.6759195,9.02224138 38.6141379,9.07913793 C38.0213218,9.11074713 37.3922989,9.11936782 36.8083908,8.99896552 C36.6339655,8.96333333 36.423046,8.91534483 36.2293678,8.83718391 C36.1434483,8.74954023 36.0750575,8.64551724 36.0161494,8.53258621 C36.0009195,8.44494253 35.998908,8.35528736 36.0124138,8.26678161 C36.7428736,7.15873563 37.7678736,6.24925287 38.9483333,5.63833333 C39.8724713,5.16017241 39.0563793,3.7662069 38.1331034,4.24293103 C36.5152874,5.08143678 35.1905747,6.39954023 34.3155747,7.98143678 C34.1960345,8.09436782 33.8118391,9.02109195 33.7000575,9.33431034 C32.981092,11.33 33.0477586,13.5452299 33.7684483,15.5242529 C33.7558046,15.8277011 33.6710345,16.1147701 33.4195977,16.2535632 C33.0851149,16.3325862 32.7451724,16.4087356 32.4012069,16.4779885 C32.1997701,16.4328736 32.0273563,16.3084483 31.9184483,16.1262644 C31.8615517,14.8641954 31.2871264,13.6288506 30.2793678,12.8377586 C29.9374138,12.5690805 29.4718966,12.5035632 29.1377011,12.8377586 C28.8581034,13.1182184 28.7917241,13.7087356 29.1377011,13.9805747 C29.8854023,14.5682184 30.3198851,15.4345977 30.3083908,16.3518391 C30.1877011,16.505 30.0566667,16.6475287 29.9141379,16.7817241 C29.8629885,16.8047126 29.8121264,16.8268391 29.7581034,16.846092 C28.7512069,16.9087356 27.7451724,16.8653448 26.7787931,16.6506897 C27.0543678,15.1831609 27.0457471,13.6788506 26.5147126,12.3001149 C28.1566667,11.296092 29.5431609,9.8662069 30.4672989,8.17511494 C31.6339655,6.04091954 32.0175862,3.61189655 31.6937356,1.21448276 C31.6351149,0.781149425 31.0799425,0.545804598 30.7003448,0.650114943 C30.2331034,0.779137931 30.077069,1.20988506 30.1356897,1.64350575 C30.2118391,2.20126437 30.2322414,2.75729885 30.2040805,3.30643678 C30.081954,3.42511494 29.9391379,3.52137931 29.7839655,3.58890805 C27.4494828,3.70356322 25.2968966,2.52022989 24.1945977,0.405287356 C23.7138506,-0.51683908 22.3195977,0.299252874 22.8003448,1.22051724 C24.0017816,3.52712644 26.3655747,5.03977011 28.9187356,5.20356322 C28.9305172,5.21534483 29.2667241,5.32798851 29.4014943,5.39436782 C29.5411494,5.49666667 29.6454598,5.6458046 29.7253448,5.8095977 C29.0652874,7.76965517 27.7672989,9.49925287 26.0302299,10.6871839 C25.8951724,10.6883333 25.7632759,10.6794253 25.631092,10.6581609 C25.5118391,10.4782759 25.3914368,10.2981034 25.2678736,10.1208046 C24.8546552,9.52913793 24.452931,8.90270115 23.8023563,8.54896552 C22.8888506,8.05097701 22.0727586,9.44522989 22.9874138,9.94321839 C23.5210345,10.2343103 23.8718966,10.9193678 24.1994828,11.4127586 C24.2629885,11.5101724 24.3276437,11.6093103 24.3902874,11.7084483 C24.344023,11.9167816 24.206092,12.1162069 24.0491954,12.2923563 C23.7052299,12.3791379 23.3514943,12.4360345 23.0509195,12.488046 C22.3282184,12.6124713 21.5805172,12.621954 20.852069,12.567069 C19.6285057,12.4745402 18.4210345,12.1305747 17.3195977,11.5891954 C17.2822414,11.4848851 17.2483333,11.38 17.2224713,11.2731034 C18.0221839,10.2216667 18.5193103,9.02597701 18.8181609,7.76275862 C19.0086782,7.60758621 19.1986207,7.47655172 19.4316667,7.38517241 C19.5523563,7.33689655 19.7112644,7.31764368 19.8681609,7.28890805 C19.9098276,7.28890805 19.9491954,7.28689655 19.9868391,7.28488506 C21.1178736,7.22712644 22.1575287,6.78977011 23.0006322,6.03718391 C23.7773563,5.34436782 22.6316667,4.20557471 21.8581034,4.89436782 C21.4474713,5.2616092 20.9589655,5.49264368 20.4233333,5.61017241 C20.4058046,5.6141954 20.3885632,5.61706897 20.3713218,5.61994253 C19.8816667,5.59293103 19.4463218,5.33287356 19.1937356,4.89350575 C19.2379885,3.92022989 19.2158621,2.94034483 19.165,1.98833333 C19.1101149,0.954425287 17.494023,0.947816092 17.5500575,1.98833333 C17.6963218,4.73143678 17.706092,7.83689655 16.0563793,10.1360345 C15.9313793,10.1708046 15.806092,10.213046 15.6721839,10.2458046 C15.5497701,10.2756897 15.4264943,10.2903448 15.3049425,10.2912069 C13.6601149,8.95557471 12.4055172,7.17511494 11.5549425,5.22597701 C11.3805172,4.82597701 10.7945977,4.73344828 10.4497701,4.93574713 C10.0371264,5.17770115 9.98425287,5.6391954 10.1595402,6.04091954 C10.9670115,7.8891954 12.1695977,9.58775862 13.6514943,10.9521264 C13.6506322,11.0774138 13.6552299,11.2018391 13.6535057,11.33 C13.6506322,11.5118966 13.6023563,11.6478161 13.5195977,11.7664943 C10.7356897,13.5817241 7.15724138,14.0817241 3.97362069,13.1144828 C2.97649425,12.8118966 2.55063218,14.3708046 3.54402299,14.6725287 C7.47821839,15.867069 11.8236207,15.0452299 15.1017816,12.6095977 C15.2808046,12.5978161 15.4695977,12.5940805 15.5379885,12.5912069 C15.6333908,12.5863218 15.727931,12.5825862 15.8224713,12.5814368 C17.1414368,13.3705172 18.5974713,13.9113218 20.1351149,14.1193678 C20.1408621,14.1231034 20.1457471,14.1271264 20.1526437,14.1308621 C20.3885632,14.2610345 20.5842529,14.4374713 20.723046,14.6713793 C20.7296552,14.6848851 20.7374138,14.6975287 20.744023,14.7110345 C21.0293678,15.9644828 21.2201724,17.4012644 20.4385632,18.4561494 C20.1785057,18.8070115 20.3808046,19.3581609 20.7287931,19.5613218 C21.1391379,19.8012644 21.5736207,19.6239655 21.8339655,19.2713793 C22.7299425,18.0610345 22.7012069,16.4713793 22.4428736,14.9972414 C22.4592529,14.9584483 22.2934483,14.4001149 22.5555172,14.1676437 C22.5917241,14.1354598 22.652931,14.1587356 22.702069,14.1529885 C23.3101149,14.0866092 23.9124138,13.9797126 24.498046,13.8098851 C24.7244828,13.8294253 24.9336782,13.8098851 25.1494828,13.917069 C25.2121264,13.9498276 25.269023,13.9871839 25.3218966,14.0297126 C25.4615517,15.1696552 25.2006322,16.3616092 24.902931,17.4570115 C24.3101149,19.6394828 23.1675862,21.6822989 21.4368391,23.1225287 C21.2877011,23.2104598 21.1371264,23.2972414 20.9851149,23.3751149 C20.7546552,23.4935057 20.4058046,23.5659195 20.1081034,23.5118966 C20.0782184,23.5024138 20.0483333,23.4917816 20.0195977,23.4791379 C19.6293678,22.9705172 19.3201724,22.4173563 19.0598276,21.7805747 C18.631092,20.7291379 18.1434483,19.6366092 18.2264943,18.4765517 C18.2572414,18.0400575 17.8333908,17.6690805 17.419023,17.6690805 C16.9555172,17.6690805 16.6414368,18.0400575 16.6106897,18.4765517 C16.5971839,18.6702299 16.598046,18.8618966 16.6086782,19.0515517 C16.569023,19.1055747 16.5267816,19.1567241 16.4793678,19.2038506 C16.3707471,19.2279885 16.2425862,19.2251149 16.1325287,19.2156322 C15.0718966,18.5903448 14.2422989,17.5052874 13.5589655,16.5397701 C13.3075287,16.1831609 12.8537931,16.0164943 12.4537931,16.2498276 C12.102069,16.455 11.9112644,16.9963793 12.1638506,17.355 C13.4308046,19.146954 14.9253448,20.8294253 17.131954,21.263046 C17.2155747,21.4894828 17.3032184,21.713908 17.3928736,21.9366092 C17.8379885,23.0552874 18.3218966,24.1150575 19.1629885,24.9978161 C19.9144253,25.7868966 20.6747701,26.5481034 21.4486207,27.321954 C22.3397126,28.213046 22.9710345,30.1932184 22.9882759,30.3029885 C23.0422989,30.6527011 23.0943103,31.0044253 23.1443103,31.3552874 C23.2405747,32.0412069 23.3264943,32.7271264 23.4055172,33.4141954 C23.5635632,34.792069 23.7127011,36.1785632 23.7494828,37.5662069 C23.7693103,38.3239655 23.7351149,39.0794253 23.6552299,39.8279885 C23.6161494,39.8403448 23.5808046,39.8607471 23.5414368,39.871954 C23.5365517,39.8728161 23.5325287,39.8728161 23.5287931,39.871954 C23.3244828,39.8015517 23.127069,39.717931 22.9362644,39.6185057 C22.5595402,39.4018391 22.2144253,39.1377586 21.8954598,38.8437931 C21.4888506,38.4400575 21.1333908,37.988046 20.827069,37.5035632 C20.7710345,37.4081609 20.7152874,37.3118966 20.6632759,37.2144828 C20.4753448,36.8647701 20.3066667,36.5052874 20.1506322,36.1412069 C20.1678736,36.0475287 20.1928736,35.9561494 20.223908,35.8644828 C20.694023,35.6294253 21.1092529,35.2854598 21.4532184,34.8894828 C21.9118391,34.3613218 22.1951724,33.6995402 22.310977,33.0124713 C22.3454598,32.8081609 22.2578161,32.5963793 22.1382759,32.4343103 C22.0112644,32.2598851 21.8000575,32.1685057 21.5920115,32.1386207 C21.3983333,32.1116092 21.1641379,32.1906322 21.0138506,32.3110345 C20.8414368,32.4498276 20.7546552,32.6435057 20.7181609,32.8564368 C20.7112644,32.8909195 20.6997701,32.946092 20.6920115,32.9805747 C20.6420115,33.1512644 20.5764943,33.317069 20.4974713,33.4777011 C20.4974713,33.4777011 20.4966092,33.4788506 20.4966092,33.4797126 C20.3894253,33.659023 20.2661494,33.8268391 20.1273563,33.9817241 L20.1264943,33.9828736 C20.0175862,34.0877586 19.902931,34.1831609 19.7825287,34.2716667 C19.6997701,34.2748276 19.6388506,34.2777011 19.556092,34.2805747 C19.5012069,34.2458046 19.4463218,34.2101724 19.3902874,34.1745402 C19.3874138,34.1725287 19.3845402,34.1687931 19.3825287,34.163908 C19.3460345,34.0664943 19.3095402,33.9682184 19.2727586,33.8699425 C18.9095402,32.9190805 18.5037931,31.9863218 17.969023,31.121954 C17.9681609,31.121092 17.9681609,31.1202299 17.9672989,31.1182184 C17.9354023,31.0208046 17.8842529,30.9282759 17.8256322,30.8492529 C17.7948851,30.8078736 17.7601149,30.7702299 17.7216092,30.7386207 C17.7195977,30.7366092 17.7187356,30.7354598 17.7175862,30.7345977 C17.6667241,30.6595977 17.6144253,30.5851724 17.5606897,30.5121839 C17.1693103,29.9713793 16.7184483,29.4857471 16.2348276,29.0282759 C15.8147126,28.6322989 15.3598276,28.267931 14.8713218,27.9604598 C14.8578161,27.9529885 14.8443103,27.9452299 14.8308046,27.9366092 C14.7287931,27.7912069 14.6293678,27.6437931 14.5351149,27.4932184 C14.2517816,27.0414943 14.1555172,26.6906322 14.1718966,26.1616092 C14.1747701,26.0662069 14.1468966,25.813908 14.1526437,25.7693678 C14.3058046,24.625977 14.1572414,23.4636207 13.7874138,22.3748276 C13.6014943,21.8314368 13.3402874,21.3277011 13.0339655,20.842931 C12.7256322,20.3544253 12.348908,19.9334483 11.9296552,19.5383333 C11.7773563,19.3937931 11.523908,19.3687931 11.3256322,19.392931 C11.1172989,19.417931 10.9382759,19.5489655 10.810977,19.7070115 C10.6848276,19.8650575 10.6336782,20.1164943 10.6655747,20.3121839 C10.6983333,20.5084483 10.7945977,20.6426437 10.9264943,20.7736782 C10.9083908,20.7561494 10.89,20.738908 10.8727586,20.7213793 C11.2138506,21.0501149 11.5115517,21.4190805 11.7667241,21.817069 C11.7552299,21.9886207 11.7195977,22.163908 11.6753448,22.3334483 C9.80408046,23.2633333 7.68913793,23.6486782 5.61931034,23.4771264 C5.49890805,23.3751149 5.38051724,23.2731034 5.26471264,23.1641954 C5.23396552,23.1360345 5.20206897,23.1061494 5.16844828,23.0754023 C5.09143678,22.3768391 4.97678161,21.6822989 4.82362069,20.996954 C4.82649425,20.8940805 4.83224138,20.7909195 4.8466092,20.6906322 C4.86873563,20.5288506 4.9333908,20.3851724 4.98741379,20.2377586 C5.88626437,19.7521264 6.87103448,19.4593103 7.90982759,19.4052874 C8.94373563,19.3504023 8.94948276,17.7345977 7.90982759,17.7894828 C6.79,17.8481034 5.6945977,18.1121839 4.68568966,18.5785632 C4.58454023,18.5883333 4.48252874,18.6006897 4.38022989,18.6153448 C4.36787356,18.617069 4.35436782,18.6199425 4.34172414,18.621954 C4.24344828,18.5883333 4.15005747,18.5466667 4.0583908,18.5015517 C4.0333908,18.4659195 4.00925287,18.4302874 3.98712644,18.3946552 C3.62017241,17.6325862 3.12390805,16.9733908 2.37793103,16.4337356 C2.02448276,16.1782759 1.47821839,16.3731034 1.27275862,16.7236782 C1.03482759,17.1314368 1.2083908,17.5725287 1.56183908,17.8291379 C2.31557471,18.3733908 2.65063218,19.2070115 2.90896552,20.0624713 C2.90982759,20.0653448 2.90982759,20.0673563 2.90982759,20.0690805 C2.90408046,20.209023 3.48511494,21.646092 3.49086207,22.6437931 C3.49143678,22.742069 3.46212644,22.8374713 3.44086207,22.9320115 C3.43597701,22.9366092 3.43109195,22.9423563 3.42649425,22.9452299 C3.36844828,22.9868966 3.30494253,23.0107471 3.23655172,23.0225287 C2.59,22.8251149 1.95982759,22.5676437 1.35666667,22.2506897 C0.436551724,21.767931 -0.380689655,23.1621839 0.541436782,23.6458046 C4.12304598,25.5277011 8.49747126,25.6133333 12.1445977,23.9021264 C12.1868391,23.9070115 12.2282184,23.913908 12.2707471,23.9233908 C12.3382759,23.9397701 12.4037931,23.963908 12.4644253,23.992931 C12.5000575,24.0265517 12.5328161,24.063908 12.5627011,24.1044253 C12.5868391,24.2857471 12.6052299,24.4687931 12.6138506,24.6538506 C12.6224713,25.1412069 12.5762069,25.6288506 12.4741954,26.1058621 C12.4414368,26.2320115 12.4055172,26.3564368 12.3652874,26.4805747 C12.3555172,26.4891954 12.348908,26.496954 12.3448851,26.4998276 C12.2920115,26.5432184 12.2379885,26.5857471 12.1822414,26.625977 C12.0675862,26.709023 11.9451724,26.7774138 11.8170115,26.8371839 C11.8121264,26.838908 11.8063793,26.8409195 11.8014943,26.842931 C11.7879885,26.842069 11.7744828,26.838908 11.7601149,26.838046 C10.7328161,26.7360345 9.7058046,26.9325862 8.82908046,27.4702299 C8.56787356,27.5029885 8.30091954,27.5001149 8.03396552,27.4817241 C5.44402299,26.8121839 2.63425287,27.2291379 0.371896552,28.7006897 C-0.496206897,29.2662069 0.313275862,30.6653448 1.18712644,30.0958046" mask="url(#mariana-tek-b)"/>
  </g>
</svg>
