<?xml version="1.0" encoding="UTF-8"?>
<svg id="build-svg" width="237px" height="169px" viewBox="0 0 237 169" version="1.1" xmlns="http://www.w3.org/2000/svg" xmlns:xlink="http://www.w3.org/1999/xlink">
    <defs></defs>
    <g id="Page-1" stroke="none" stroke-width="1" fill="none" fill-rule="evenodd">
        <g id="Development">
            <path d="M155.818,6.053 C146.237,6.053 138.443,13.847 138.443,23.427 C138.443,33.008 146.237,40.802 155.818,40.802 C165.399,40.802 173.194,33.008 173.194,23.427 C173.194,13.847 165.399,6.053 155.818,6.053 Z M155.818,42.802 C145.135,42.802 136.443,34.11 136.443,23.427 C136.443,12.744 145.135,4.053 155.818,4.053 C166.502,4.053 175.194,12.744 175.194,23.427 C175.194,34.11 166.502,42.802 155.818,42.802 L155.818,42.802 Z" id="Fill-15" fill="#2C5871"></path>
            <path d="M155.818,6.053 C150.599,6.053 146.188,14.009 146.188,23.427 C146.188,32.845 150.599,40.802 155.818,40.802 C161.036,40.802 165.444,32.845 165.444,23.427 C165.444,14.009 161.036,6.053 155.818,6.053 Z M155.818,42.802 C149.297,42.802 144.188,34.291 144.188,23.427 C144.188,12.563 149.297,4.053 155.818,4.053 C162.338,4.053 167.444,12.563 167.444,23.427 C167.444,34.291 162.338,42.802 155.818,42.802 L155.818,42.802 Z" id="Fill-16" fill="#2C5871"></path>
            <path d="M156.818,6.081 L156.818,40.773 C165.936,40.254 173.194,32.672 173.194,23.427 C173.194,14.183 165.936,6.601 156.818,6.081 Z M155.818,42.802 C155.266,42.802 154.818,42.354 154.818,41.802 L154.818,5.053 C154.818,4.5 155.266,4.053 155.818,4.053 C166.502,4.053 175.194,12.744 175.194,23.427 C175.194,34.11 166.502,42.802 155.818,42.802 L155.818,42.802 Z" id="Fill-17" fill="#2C5871"></path>
            <path d="M139.345,28.905 L172.291,28.905 C172.891,27.118 173.194,25.278 173.194,23.427 C173.194,21.578 172.891,19.739 172.291,17.949 L139.347,17.949 C138.747,19.739 138.443,21.578 138.443,23.427 C138.443,25.275 138.746,27.115 139.345,28.905 Z M172.996,30.905 L138.639,30.905 C138.223,30.905 137.85,30.647 137.703,30.258 C136.867,28.039 136.443,25.741 136.443,23.427 C136.443,21.113 136.868,18.814 137.706,16.596 C137.854,16.207 138.226,15.949 138.642,15.949 L172.996,15.949 C173.412,15.949 173.784,16.207 173.932,16.596 C174.77,18.814 175.194,21.112 175.194,23.427 C175.194,25.744 174.77,28.043 173.932,30.259 C173.784,30.648 173.412,30.905 172.996,30.905 L172.996,30.905 Z" id="Fill-18" fill="#2C5871"></path>
            <path d="M104.845,24.991 L124.616,24.991 L124.616,5.221 L104.845,5.221 L104.845,24.991 Z M102.845,26.991 L126.616,26.991 L126.616,3.221 L102.845,3.221 L102.845,26.991 Z" id="Fill-19" fill="#2C5871"></path>
            <polygon id="Fill-20" fill="#2C5871" points="104.202 11.05 125.259 11.05 125.259 9.05 104.202 9.05"></polygon>
            <path d="M107.075,6.114 C106.553,6.114 106.13,6.538 106.13,7.06 C106.13,7.582 106.553,8.005 107.075,8.005 C107.598,8.005 108.021,7.582 108.021,7.06 C108.021,6.538 107.598,6.114 107.075,6.114" id="Fill-21" fill="#2C5871"></path>
            <path d="M109.635,6.114 C109.113,6.114 108.689,6.538 108.689,7.06 C108.689,7.582 109.113,8.005 109.635,8.005 C110.157,8.005 110.58,7.582 110.58,7.06 C110.58,6.538 110.157,6.114 109.635,6.114" id="Fill-22" fill="#2C5871"></path>
            <path d="M112.195,6.114 C111.674,6.114 111.25,6.538 111.25,7.06 C111.25,7.582 111.674,8.005 112.195,8.005 C112.719,8.005 113.143,7.582 113.143,7.06 C113.143,6.538 112.719,6.114 112.195,6.114" id="Fill-23" fill="#2C5871"></path>
            <polyline id="Fill-24" fill="#2C5871" points="113.84 21.425 110.554 18.749 111.817 17.198 113.547 18.606 117.498 13.72 119.053 14.978 113.84 21.425"></polyline>
            <polygon id="Fill-25" fill="#2C5871" points="232.698 94.333 236.569 94.333 236.569 92.333 232.698 92.333"></polygon>
            <polygon id="Fill-26" fill="#2C5871" points="222.852 94.333 226.069 94.333 226.069 92.333 222.852 92.333"></polygon>
            <polygon id="Fill-27" fill="#2C5871" points="222.852 101.667 226.069 101.667 226.069 99.667 222.852 99.667"></polygon>
            <path d="M227.352,93.999 L228.685,93.999 L228.685,92.667 L227.352,92.667 L227.352,93.999 Z M225.352,95.999 L230.685,95.999 L230.685,90.667 L225.352,90.667 L225.352,95.999 Z" id="Fill-28" fill="#2C5871"></path>
            <polygon id="Fill-29" fill="#2C5871" points="232.698 101.667 236.569 101.667 236.569 99.667 232.698 99.667"></polygon>
            <path d="M227.352,101.333 L228.685,101.333 L228.685,100 L227.352,100 L227.352,101.333 Z M225.352,103.333 L230.685,103.333 L230.685,98 L225.352,98 L225.352,103.333 Z" id="Fill-30" fill="#2C5871"></path>
            <polygon id="Fill-31" fill="#2C5871" points="221.352 100.667 223.352 100.667 223.352 89.113 221.352 89.113"></polygon>
            <path d="M188.368,8.204 L188.368,9.204 C187.326,9.204 186.471,10.053 186.459,11.096 C186.454,11.604 186.647,12.086 187.004,12.45 C187.36,12.814 187.838,13.018 188.348,13.022 C189.41,13.022 190.267,12.175 190.277,11.133 C190.288,10.081 189.44,9.215 188.388,9.204 L188.368,8.204 Z M188.368,15.022 C187.284,15.013 186.306,14.596 185.575,13.85 C184.846,13.104 184.449,12.119 184.459,11.075 C184.482,8.94 186.235,7.204 188.368,7.204 L188.409,7.204 C190.563,7.227 192.298,8.998 192.277,11.153 C192.255,13.287 190.502,15.022 188.368,15.022 Z M187.579,19.337 L188.99,19.352 L189,18.321 C189.009,17.557 189.542,16.832 190.269,16.595 L190.853,16.356 C191.028,16.271 191.296,16.212 191.568,16.212 C192.076,16.212 192.561,16.407 192.898,16.748 L193.624,17.49 L194.631,16.5 L193.91,15.764 C193.375,15.216 193.241,14.324 193.589,13.644 L193.834,13.063 C194.051,12.415 194.782,11.893 195.547,11.893 L196.592,11.903 L196.606,10.492 L195.575,10.481 C194.797,10.473 194.07,9.931 193.845,9.193 L193.612,8.632 C193.306,8.003 193.459,7.114 194.004,6.579 L194.739,5.858 L193.754,4.848 L193.016,5.57 C192.479,6.088 191.555,6.229 190.895,5.89 L190.32,5.649 C189.662,5.427 189.142,4.688 189.148,3.92 L189.159,2.89 L187.747,2.875 L187.736,3.904 C187.731,4.669 187.196,5.398 186.462,5.634 L185.883,5.869 C185.708,5.955 185.439,6.015 185.165,6.015 C184.656,6.015 184.171,5.819 183.833,5.479 L183.11,4.739 L182.103,5.728 L182.823,6.462 C183.357,7.014 183.491,7.902 183.147,8.581 L182.905,9.16 C182.681,9.813 181.951,10.333 181.193,10.333 L180.145,10.322 L180.129,11.734 L181.159,11.745 C181.922,11.752 182.65,12.285 182.888,13.013 L183.125,13.603 C183.426,14.225 183.273,15.109 182.737,15.645 L181.992,16.371 L182.98,17.38 L183.716,16.658 C184.242,16.141 185.172,15.997 185.832,16.331 L186.418,16.579 C187.076,16.805 187.597,17.541 187.59,18.305 L187.579,19.337 Z M189.384,21.355 L187.158,21.333 C186.732,21.329 186.332,21.159 186.033,20.854 C185.732,20.547 185.57,20.142 185.575,19.713 L185.589,18.397 L185.037,18.164 L184.097,19.087 C183.492,19.683 182.434,19.674 181.833,19.067 L180.285,17.485 C179.985,17.18 179.823,16.774 179.828,16.345 C179.833,15.917 180.004,15.517 180.31,15.219 L181.252,14.299 L181.029,13.744 L179.71,13.73 C178.825,13.72 178.114,12.993 178.125,12.109 L178.148,9.905 C178.159,9.029 178.878,8.318 179.751,8.318 L181.086,8.332 L181.316,7.782 L180.396,6.843 C180.096,6.54 179.933,6.134 179.938,5.702 C179.942,5.272 180.114,4.871 180.422,4.574 L181.995,3.032 C182.611,2.433 183.663,2.448 184.26,3.054 L185.189,4.005 L185.737,3.773 L185.752,2.457 C185.763,1.582 186.479,0.871 187.351,0.871 L189.576,0.894 C190.003,0.897 190.403,1.068 190.704,1.376 C191.005,1.683 191.168,2.087 191.163,2.515 L191.149,3.83 L191.698,4.062 L192.639,3.141 C193.25,2.543 194.307,2.554 194.903,3.163 L196.448,4.745 C196.742,5.04 196.907,5.443 196.904,5.873 C196.901,6.304 196.731,6.707 196.424,7.008 L195.483,7.929 L195.71,8.482 L197.024,8.496 C197.451,8.5 197.852,8.671 198.152,8.978 C198.451,9.283 198.614,9.687 198.61,10.113 L198.588,12.32 C198.577,13.196 197.858,13.907 196.985,13.907 L195.651,13.894 L195.419,14.445 L196.339,15.386 C196.637,15.688 196.8,16.093 196.796,16.522 C196.791,16.953 196.619,17.354 196.312,17.653 L194.742,19.195 C194.13,19.792 193.067,19.777 192.475,19.175 L191.542,18.223 L190.999,18.453 L190.986,19.769 C190.976,20.645 190.257,21.355 189.384,21.355 L189.384,21.355 Z" id="Fill-201" fill="#2C5871"></path>
            <path d="M23.549,156.744 L207.209,156.744 L207.209,42.998 C207.209,40.429 205.131,38.313 202.537,38.313 L23.549,38.313 C20.949,38.313 18.859,40.429 18.859,42.998 L18.859,156.744 L23.549,156.744" id="Fill-451" fill="#F1FAFC"></path>
            <path d="M19.859,155.744 L206.209,155.744 L206.209,42.998 C206.209,40.967 204.562,39.313 202.537,39.313 L23.549,39.313 C21.515,39.313 19.859,40.967 19.859,42.998 L19.859,155.744 Z M207.209,157.744 L18.859,157.744 C18.307,157.744 17.859,157.297 17.859,156.744 L17.859,42.998 C17.859,39.863 20.412,37.313 23.549,37.313 L202.537,37.313 C205.665,37.313 208.209,39.863 208.209,42.998 L208.209,156.744 C208.209,157.297 207.762,157.744 207.209,157.744 L207.209,157.744 Z" id="Fill-452" fill="#2C5871"></path>
            <polygon id="Fill-453" fill="#CCEEF6" points="30.537 145.214 195.549 145.214 195.549 49.584 30.537 49.584"></polygon>
            <path d="M31.537,144.214 L194.549,144.214 L194.549,50.584 L31.537,50.584 L31.537,144.214 Z M195.549,146.214 L30.537,146.214 C29.984,146.214 29.537,145.767 29.537,145.214 L29.537,49.584 C29.537,49.031 29.984,48.584 30.537,48.584 L195.549,48.584 C196.102,48.584 196.549,49.031 196.549,49.584 L196.549,145.214 C196.549,145.767 196.102,146.214 195.549,146.214 L195.549,146.214 Z" id="Fill-454" fill="#2C5871"></path>
            <polygon id="Fill-455" fill="#FFFFFF" points="30.537 145.214 112.019 145.214 112.019 49.584 30.537 49.584"></polygon>
            <path d="M31.537,144.214 L111.019,144.214 L111.019,50.584 L31.537,50.584 L31.537,144.214 Z M112.019,146.214 L30.537,146.214 C29.984,146.214 29.537,145.767 29.537,145.214 L29.537,49.584 C29.537,49.031 29.984,48.584 30.537,48.584 L112.019,48.584 C112.571,48.584 113.019,49.031 113.019,49.584 L113.019,145.214 C113.019,145.767 112.571,146.214 112.019,146.214 L112.019,146.214 Z" id="Fill-456" fill="#2C5871"></path>
            <polygon id="Fill-457" fill="#FCBE0F" points="112.067 60.832 195.549 60.832 195.549 49.584 112.067 49.584"></polygon>
            <path d="M113.067,59.832 L194.549,59.832 L194.549,50.584 L113.067,50.584 L113.067,59.832 Z M195.549,61.832 L112.067,61.832 C111.515,61.832 111.067,61.385 111.067,60.832 L111.067,49.584 C111.067,49.031 111.515,48.584 112.067,48.584 L195.549,48.584 C196.102,48.584 196.549,49.031 196.549,49.584 L196.549,60.832 C196.549,61.385 196.102,61.832 195.549,61.832 L195.549,61.832 Z" id="Fill-458" fill="#2C5871"></path>
            <polygon id="Fill-459" fill="#34CA9D" points="118.734 91.499 188.882 91.499 188.882 67.584 118.734 67.584"></polygon>
            <path d="M119.734,90.499 L187.882,90.499 L187.882,68.584 L119.734,68.584 L119.734,90.499 Z M188.882,92.499 L118.734,92.499 C118.182,92.499 117.734,92.052 117.734,91.499 L117.734,67.584 C117.734,67.031 118.182,66.584 118.734,66.584 L188.882,66.584 C189.435,66.584 189.882,67.031 189.882,67.584 L189.882,91.499 C189.882,92.052 189.435,92.499 188.882,92.499 L188.882,92.499 Z" id="Fill-460" fill="#2C5871"></path>
            <path d="M224.584,157.306 L147.385,157.306 C147.215,158.896 145.938,160.159 144.314,160.159 L81.766,160.159 C80.148,160.159 78.866,158.896 78.7,157.306 L1.496,157.306 C1.469,157.684 1.379,158.044 1.379,158.434 L1.379,161.831 C1.379,167.437 5.915,167.767 11.545,167.767 L214.541,167.767 C220.129,167.767 224.707,167.437 224.707,161.831 L224.707,158.434 C224.707,158.044 224.617,157.684 224.584,157.306" id="Fill-461" fill="#F1FAFC"></path>
            <path d="M2.383,158.306 C2.381,158.348 2.379,158.391 2.379,158.434 L2.379,161.831 C2.379,166.081 5.081,166.767 11.545,166.767 L214.541,166.767 C221.005,166.767 223.707,166.081 223.707,161.831 L223.707,158.434 C223.707,158.391 223.705,158.348 223.703,158.306 L148.188,158.306 C147.637,159.982 146.101,161.159 144.314,161.159 L81.766,161.159 C79.979,161.159 78.444,159.982 77.896,158.306 L2.383,158.306 Z M214.541,168.767 L11.545,168.767 C6.833,168.767 0.379,168.767 0.379,161.831 L0.379,158.434 C0.379,158.155 0.414,157.888 0.451,157.622 C0.47,157.493 0.489,157.365 0.499,157.233 C0.536,156.711 0.972,156.306 1.496,156.306 L78.7,156.306 C79.212,156.306 79.642,156.692 79.694,157.202 C79.812,158.317 80.701,159.159 81.766,159.159 L144.314,159.159 C145.379,159.159 146.271,158.316 146.391,157.199 C146.444,156.691 146.874,156.306 147.385,156.306 L224.584,156.306 C225.103,156.306 225.535,156.702 225.58,157.218 C225.591,157.344 225.61,157.468 225.629,157.592 C225.67,157.867 225.707,158.145 225.707,158.434 L225.707,161.831 C225.707,168.767 219.253,168.767 214.541,168.767 L214.541,168.767 Z" id="Fill-462" fill="#2C5871"></path>
            <polygon id="Fill-463" fill="#2C5871" points="37.158 63.376 60.824 63.376 60.824 61.376 37.158 61.376"></polygon>
            <polygon id="Fill-464" fill="#2C5871" points="48.658 67.709 81.58 67.709 81.58 65.709 48.658 65.709"></polygon>
            <polygon id="Fill-465" fill="#2C5871" points="48.658 72.042 78.324 72.042 78.324 70.042 48.658 70.042"></polygon>
            <polygon id="Fill-466" fill="#2C5871" points="48.658 76.375 72.324 76.375 72.324 74.375 48.658 74.375"></polygon>
            <polygon id="Fill-467" fill="#2C5871" points="37.158 112.376 60.824 112.376 60.824 110.376 37.158 110.376"></polygon>
            <polygon id="Fill-468" fill="#2C5871" points="48.658 116.709 109.08 116.709 109.08 114.709 48.658 114.709"></polygon>
            <polygon id="Fill-469" fill="#2C5871" points="48.658 121.042 102.154 121.042 102.154 119.042 48.658 119.042"></polygon>
            <polygon id="Fill-470" fill="#2C5871" points="54.658 125.375 78.324 125.375 78.324 123.375 54.658 123.375"></polygon>
            <polygon id="Fill-471" fill="#2C5871" points="37.158 88.876 60.824 88.876 60.824 86.876 37.158 86.876"></polygon>
            <polygon id="Fill-472" fill="#2C5871" points="48.658 93.209 100.273 93.209 100.273 91.209 48.658 91.209"></polygon>
            <polygon id="Fill-473" fill="#2C5871" points="48.658 97.542 97.019 97.542 97.019 95.542 48.658 95.542"></polygon>
            <polygon id="Fill-474" fill="#2C5871" points="48.658 101.875 72.324 101.875 72.324 99.875 48.658 99.875"></polygon>
            <polygon id="Fill-475" fill="#2C5871" points="118.734 113.953 140.727 113.953 140.727 111.953 118.734 111.953"></polygon>
            <polygon id="Fill-476" fill="#2C5871" points="118.734 119.022 140.727 119.022 140.727 117.022 118.734 117.022"></polygon>
            <polygon id="Fill-477" fill="#2C5871" points="118.734 124.092 140.727 124.092 140.727 122.092 118.734 122.092"></polygon>
            <polygon id="Fill-478" fill="#2C5871" points="118.734 129.161 140.727 129.161 140.727 127.161 118.734 127.161"></polygon>
            <path d="M134.396,102.833 C134.396,105.411 132.308,107.5 129.73,107.5 C127.153,107.5 125.064,105.411 125.064,102.833 C125.064,100.256 127.153,98.167 129.73,98.167 C132.308,98.167 134.396,100.256 134.396,102.833" id="Fill-479" fill="#CCEEF6"></path>
            <path d="M129.73,99.167 C127.709,99.167 126.064,100.812 126.064,102.833 C126.064,104.855 127.709,106.5 129.73,106.5 C131.752,106.5 133.396,104.855 133.396,102.833 C133.396,100.812 131.752,99.167 129.73,99.167 Z M129.73,108.5 C126.606,108.5 124.064,105.958 124.064,102.833 C124.064,99.709 126.606,97.167 129.73,97.167 C132.854,97.167 135.396,99.709 135.396,102.833 C135.396,105.958 132.854,108.5 129.73,108.5 L129.73,108.5 Z" id="Fill-480" fill="#2C5871"></path>
            <polygon id="Fill-481" fill="#FCBE0F" points="123.23 137.5 136.23 137.5 136.23 132.833 123.23 132.833"></polygon>
            <path d="M124.23,136.5 L135.23,136.5 L135.23,133.833 L124.23,133.833 L124.23,136.5 Z M136.23,138.5 L123.23,138.5 C122.678,138.5 122.23,138.053 122.23,137.5 L122.23,132.833 C122.23,132.28 122.678,131.833 123.23,131.833 L136.23,131.833 C136.783,131.833 137.23,132.28 137.23,132.833 L137.23,137.5 C137.23,138.053 136.783,138.5 136.23,138.5 L136.23,138.5 Z" id="Fill-482" fill="#2C5871"></path>
            <polygon id="Fill-483" fill="#2C5871" points="142.811 113.953 164.805 113.953 164.805 111.953 142.811 111.953"></polygon>
            <polygon id="Fill-484" fill="#2C5871" points="142.811 119.022 164.805 119.022 164.805 117.022 142.811 117.022"></polygon>
            <polygon id="Fill-485" fill="#2C5871" points="142.811 124.092 164.805 124.092 164.805 122.092 142.811 122.092"></polygon>
            <polygon id="Fill-486" fill="#2C5871" points="142.811 129.161 164.805 129.161 164.805 127.161 142.811 127.161"></polygon>
            <path d="M158.475,102.833 C158.475,105.411 156.385,107.5 153.809,107.5 C151.23,107.5 149.141,105.411 149.141,102.833 C149.141,100.256 151.23,98.167 153.809,98.167 C156.385,98.167 158.475,100.256 158.475,102.833" id="Fill-487" fill="#CCEEF6"></path>
            <path d="M153.809,99.167 C151.786,99.167 150.141,100.812 150.141,102.833 C150.141,104.855 151.786,106.5 153.809,106.5 C155.83,106.5 157.475,104.855 157.475,102.833 C157.475,100.812 155.83,99.167 153.809,99.167 Z M153.809,108.5 C150.684,108.5 148.141,105.958 148.141,102.833 C148.141,99.709 150.684,97.167 153.809,97.167 C156.933,97.167 159.475,99.709 159.475,102.833 C159.475,105.958 156.933,108.5 153.809,108.5 L153.809,108.5 Z" id="Fill-488" fill="#2C5871"></path>
            <polygon id="Fill-489" fill="#FCBE0F" points="147.309 137.5 160.309 137.5 160.309 132.833 147.309 132.833"></polygon>
            <path d="M148.309,136.5 L159.309,136.5 L159.309,133.833 L148.309,133.833 L148.309,136.5 Z M160.309,138.5 L147.309,138.5 C146.756,138.5 146.309,138.053 146.309,137.5 L146.309,132.833 C146.309,132.28 146.756,131.833 147.309,131.833 L160.309,131.833 C160.861,131.833 161.309,132.28 161.309,132.833 L161.309,137.5 C161.309,138.053 160.861,138.5 160.309,138.5 L160.309,138.5 Z" id="Fill-490" fill="#2C5871"></path>
            <polygon id="Fill-491" fill="#2C5871" points="166.889 113.953 188.882 113.953 188.882 111.953 166.889 111.953"></polygon>
            <polygon id="Fill-492" fill="#2C5871" points="166.889 119.022 188.882 119.022 188.882 117.022 166.889 117.022"></polygon>
            <polygon id="Fill-493" fill="#2C5871" points="166.889 124.092 188.882 124.092 188.882 122.092 166.889 122.092"></polygon>
            <polygon id="Fill-494" fill="#2C5871" points="166.889 129.161 188.882 129.161 188.882 127.161 166.889 127.161"></polygon>
            <path d="M182.552,102.833 C182.552,105.411 180.463,107.5 177.885,107.5 C175.309,107.5 173.219,105.411 173.219,102.833 C173.219,100.256 175.309,98.167 177.885,98.167 C180.463,98.167 182.552,100.256 182.552,102.833" id="Fill-495" fill="#CCEEF6"></path>
            <path d="M177.885,99.167 C175.863,99.167 174.219,100.812 174.219,102.833 C174.219,104.855 175.863,106.5 177.885,106.5 C179.907,106.5 181.552,104.855 181.552,102.833 C181.552,100.812 179.907,99.167 177.885,99.167 Z M177.885,108.5 C174.761,108.5 172.219,105.958 172.219,102.833 C172.219,99.709 174.761,97.167 177.885,97.167 C181.01,97.167 183.552,99.709 183.552,102.833 C183.552,105.958 181.01,108.5 177.885,108.5 L177.885,108.5 Z" id="Fill-496" fill="#2C5871"></path>
            <polygon id="Fill-497" fill="#FCBE0F" points="171.385 137.5 184.385 137.5 184.385 132.833 171.385 132.833"></polygon>
            <path d="M172.385,136.5 L183.385,136.5 L183.385,133.833 L172.385,133.833 L172.385,136.5 Z M184.385,138.5 L171.385,138.5 C170.832,138.5 170.385,138.053 170.385,137.5 L170.385,132.833 C170.385,132.28 170.832,131.833 171.385,131.833 L184.385,131.833 C184.938,131.833 185.385,132.28 185.385,132.833 L185.385,137.5 C185.385,138.053 184.938,138.5 184.385,138.5 L184.385,138.5 Z" id="Fill-498" fill="#2C5871"></path>
            <polygon id="Fill-499" fill="#2C5871" points="117.852 56.5 132.852 56.5 132.852 54.5 117.852 54.5"></polygon>
            <polygon id="Fill-500" fill="#2C5871" points="136.528 56.5 151.528 56.5 151.528 54.5 136.528 54.5"></polygon>
            <polygon id="Fill-501" fill="#2C5871" points="155.205 56.5 170.205 56.5 170.205 54.5 155.205 54.5"></polygon>
            <polygon id="Fill-502" fill="#2C5871" points="173.882 56.5 188.882 56.5 188.882 54.5 173.882 54.5"></polygon>
            <polygon id="Fill-503" fill="#2C5871" points="215.352 48.383 233.53 48.383 233.53 46.383 215.352 46.383"></polygon>
            <polygon id="Fill-504" fill="#2C5871" points="215.352 53.001 229.498 53.001 229.498 51.001 215.352 51.001"></polygon>
            <polygon id="Fill-505" fill="#2C5871" points="215.352 57.619 233.53 57.619 233.53 55.619 215.352 55.619"></polygon>
            <polygon id="Fill-506" fill="#2C5871" points="215.352 62.237 230.817 62.237 230.817 60.237 215.352 60.237"></polygon>
            <polygon id="Fill-507" fill="#2C5871" points="215.352 66.856 222.9 66.856 222.9 64.856 215.352 64.856"></polygon>
            <path d="M63.816,24.536 L72.887,24.536 L72.887,15.464 L63.816,15.464 L63.816,24.536 Z M61.816,26.536 L74.887,26.536 L74.887,13.464 L61.816,13.464 L61.816,26.536 Z" id="Fill-508" fill="#2C5871"></path>
            <polygon id="Fill-509" fill="#2C5871" points="55.383 27.222 57.383 27.222 57.383 12.779 55.383 12.779"></polygon>
            <polygon id="Fill-510" fill="#2C5871" points="58.361 26.256 60.361 26.256 60.361 13.744 58.361 13.744"></polygon>
            <polygon id="Fill-511" fill="#2C5871" points="79.32 27.222 81.32 27.222 81.32 12.779 79.32 12.779"></polygon>
            <polygon id="Fill-512" fill="#2C5871" points="76.342 26.256 78.342 26.256 78.342 13.744 76.342 13.744"></polygon>
        </g>
    </g>
</svg>
