<?xml version="1.0" encoding="utf-8"?>
<!-- Generator: Adobe Illustrator 16.0.0, SVG Export Plug-In . SVG Version: 6.00 Build 0)  -->
<!DOCTYPE svg PUBLIC "-//W3C//DTD SVG 1.1//EN" "http://www.w3.org/Graphics/SVG/1.1/DTD/svg11.dtd">
<svg version="1.1" id="Layer_1" xmlns="http://www.w3.org/2000/svg" xmlns:xlink="http://www.w3.org/1999/xlink" x="0px" y="0px"
	 width="595.563px" height="160.13px" viewBox="0 0 595.563 160.13" enable-background="new 0 0 595.563 160.13"
	 xml:space="preserve">
<path fill-rule="evenodd" clip-rule="evenodd" fill="#3C5658" d="M421.541,116.413c-0.709-7.078-7.08-4.444-7.08-4.444
	s-10.27,7.956-19.289,7.071c-9.029-0.885-6.199-21.066-6.199-21.066s1.949-18.497-3.361-20.047c-5.309-1.55-11.859,4.82-11.859,4.82
	s-8.141,9.025-12.029,20.529l-1.061,0.354c0,0,1.24-20.174-0.18-24.775c-1.061-2.301-10.791-2.123-12.391,1.946
	c-1.59,4.069-9.369,32.385-9.91,44.241c0,0-15.209,12.919-28.49,15.043c-13.27,2.123-16.459-6.194-16.459-6.194
	s36.11-10.087,34.87-38.933s-29.119-18.178-32.27-15.807c-3.051,2.293-19.34,12.119-24.09,39.33
	c-0.17,0.926-0.451,4.969-0.451,4.969s-13.979,9.379-21.77,11.856c0,0,21.77-36.632-4.77-53.267
	c-12.041-7.256-21.59,7.963-21.59,7.963s35.92-39.994,27.959-73.795c-3.799-16.097-11.84-17.824-19.229-15.219
	c-11.211,4.424-15.461,10.972-15.461,10.972s-14.51,21.06-17.869,52.382c-3.371,31.322-8.32,69.193-8.32,69.193
	s-6.9,6.726-13.271,7.08c-6.369,0.354-3.539-18.936-3.539-18.936s4.949-29.377,4.6-34.332s-0.711-7.609-6.551-9.379
	s-12.209,5.663-12.209,5.663s-16.811,25.483-18.23,29.376l-0.879,1.593l-0.891-1.062c0,0,11.859-34.686,0.529-35.217
	c-11.32-0.53-18.75,12.388-18.75,12.388s-12.92,21.59-13.449,24.067l-0.891-1.062c0,0,5.311-25.129,4.25-31.323
	c-1.061-6.193-6.9-4.955-6.9-4.955s-7.439-0.885-9.379,3.893c-1.951,4.779-9.031,36.455-9.91,46.543c0,0-18.58,13.273-30.791,13.449
	c-12.219,0.178-10.979-7.744-10.979-7.744s44.779-15.325,32.568-45.586c-5.488-7.787-11.859-10.236-20.889-10.06
	c-9.02,0.177-20.221,5.685-27.48,21.966c-3.461,7.766-4.721,15.135-5.43,20.713c0,0-7.84,1.599-12.09-1.94
	c-4.24-3.539-6.43,0-6.43,0s-7.291,9.294-0.041,12.126c7.26,2.831,18.59,4.154,18.59,4.154h-0.01
	c1.041,4.955,4.07,13.373,12.9,20.082c13.279,10.088,38.75-0.926,38.75-0.926l10.439-5.861c0,0,0.359,9.576,7.971,10.979
	c7.609,1.395,10.789-0.021,24.061-32.229c7.789-16.459,8.318-15.582,8.318-15.582l0.891-0.176c0,0-6.02,31.5-3.721,39.994
	c2.301,8.494,12.391,7.61,12.391,7.61s5.48,1.062,9.91-14.513c4.42-15.572,12.92-32.738,12.92-32.738h1.061
	c0,0-3.721,32.208,1.939,42.473c5.67,10.264,20.359,3.454,20.359,3.454s10.261-5.182,11.851-6.774c0,0,12.18,10.371,29.369,8.488
	c38.41-7.561,52.07-17.769,52.07-17.769s6.6,16.72,27.042,18.271c23.359,1.77,36.1-12.926,36.1-12.926s-0.17,9.557,7.971,12.918
	c8.139,3.363,13.619-15.529,13.619-15.529l13.631-37.561h1.238c0,0,0.711,24.422,14.16,28.314
	c13.451,3.894,30.971-9.116,30.971-9.116S422.242,123.493,421.541,116.413L421.541,116.413z M40.881,119.911
	c0.531-21.06,14.33-30.262,19.109-25.66c4.781,4.601,3.012,14.511-6.01,20.705C44.952,121.149,40.881,119.911,40.881,119.911
	L40.881,119.911z M220.501,38.329c0,0,12.57-32.739,15.57-16.812c3.01,15.928-26.361,63.354-26.361,63.354
	C210.062,74.253,220.501,38.329,220.501,38.329L220.501,38.329z M235.541,129.467c-8.309,21.767-28.488,12.919-28.488,12.919
	s-2.301-7.787,4.25-29.555c6.549-21.766,21.939-13.271,21.939-13.271S243.861,107.7,235.541,129.467L235.541,129.467z
	 M291.291,119.911c0,0-1.949-6.902,5.311-20.174c7.25-13.273,12.92-6.018,12.92-6.018s6.189,6.725-0.889,16.812
	C301.553,120.618,291.291,119.911,291.291,119.911L291.291,119.911z"/>
<path fill="#5F888B" d="M434.611,160.13c-5.129,0-9.629-0.941-13.51-2.824c-3.869-1.881-7.119-4.4-9.74-7.557
	c-2.619-3.156-4.59-6.811-5.93-10.963s-2.01-8.471-2.01-12.955c0-3.209,0.561-7.059,1.67-11.543c1.109-4.485,2.32-8.401,3.631-11.75
	c1.309-3.352,2.92-6.547,4.85-9.594c1.92-3.043,4.139-5.717,6.67-8.013c2.539-2.298,5.359-4.125,8.48-5.481
	c3.119-1.357,6.539-2.035,10.27-2.035c3.35,0,6.459,0.484,9.32,1.451c2.859,0.971,5.299,2.315,7.33,4.029
	c2.029,1.719,3.629,3.752,4.77,6.104c1.15,2.354,1.73,4.889,1.73,7.6c0,1.883-0.271,3.737-0.811,5.564
	c-0.541,1.826-1.59,3.973-3.15,6.435c-1.561,2.466-3.07,4.142-4.539,5.026c-1.461,0.886-3.131,1.328-4.98,1.328
	c-2.801,0-4.609-0.691-5.43-2.076c-1.34-2.159-1.76-4.069-1.271-5.73c0.172-0.884,0.66-2.933,1.49-6.145
	c0.111-0.442,0.141-1.439,0.08-2.99c0-1.329-0.129-2.436-0.41-3.322c-0.27-0.884-0.879-1.328-1.818-1.328
	c-2.262,0-4.191,0.541-5.791,1.617c-1.6,1.083-2.959,2.492-4.09,4.238c-1.131,1.742-2.24,4.206-3.35,7.389
	c-1.1,3.186-1.891,5.856-2.35,8.016c-0.471,2.158-0.762,4.222-0.871,6.188c-0.109,1.965-0.17,3.612-0.17,4.939
	c0,1.994,0.18,4.07,0.541,6.229c0.359,2.159,1.08,4.14,2.148,5.938c1.07,1.799,2.461,3.293,4.17,4.484
	c1.711,1.19,3.92,1.785,6.621,1.785c2.66,0,5.59-0.816,8.799-2.449c3.211-1.634,6.441-3.697,9.682-6.188
	c3.24-2.492,6.318-5.232,9.26-8.223c2.93-2.988,5.449-5.812,7.559-8.469l5.73,9.633c-4.16,5.926-8.639,11.211-13.459,15.861
	c-2.051,1.993-4.281,3.932-6.68,5.812c-2.41,1.884-4.932,3.559-7.561,5.027c-2.631,1.465-5.371,2.656-8.221,3.567
	C440.422,159.674,437.531,160.13,434.611,160.13L434.611,160.13z"/>
<path fill="#5F888B" d="M494.412,94.298c2.5-4.467,5.15-9.492,7.959-15.074c2.801-5.583,5.451-11.332,7.951-17.253
	c2.5-5.917,4.67-11.821,6.5-17.713c1.83-5.888,3-11.374,3.5-16.456c0-1.618-0.041-3-0.121-4.145s-0.33-1.717-0.74-1.717
	c-1.529,0-3.17,1.053-4.92,3.155c-1.76,2.103-3.52,4.948-5.279,8.538c-1.75,3.59-3.85,9.427-6.289,17.516
	c-2.441,8.084-3.66,12.129-3.66,12.131c0,0-0.75,3.754-2.24,11.258C495.582,82.038,494.701,88.626,494.412,94.298L494.412,94.298z
	 M494.332,160.13c-2.98,0-5.75-1.294-8.311-3.883c-2.57-2.59-4.799-6.062-6.709-10.424c-1.9-4.357-3.391-9.414-4.461-15.162
	c-1.08-5.748-1.619-11.784-1.619-18.106c0-5.433,0.799-12.685,2.4-21.756c1.6-9.071,2.389-13.606,2.389-13.606
	s1.211-4.527,3.631-13.59c2.42-9.06,4.84-16.328,7.279-21.801c2.43-5.471,5.07-10.584,7.92-15.34
	c2.859-4.755,5.85-8.899,8.98-12.433c3.129-3.53,6.4-6.31,9.811-8.326c3.41-2.021,6.879-3.03,10.41-3.03
	c2.559,0,4.68,0.49,6.34,1.469c1.67,0.978,2.979,2.27,3.939,3.877c0.949,1.604,1.619,3.423,2.01,5.453
	c0.391,2.033,0.58,4.104,0.58,6.21c0,5.235-0.619,10.565-1.85,15.993c-1.24,5.428-2.91,10.885-5.01,16.367
	c-2.102,5.484-4.541,10.982-7.301,16.492c-2.76,5.514-5.641,10.983-8.629,16.412c-2.99,5.426-6,10.773-9.021,16.033
	c-3.029,5.26-5.809,10.404-8.369,15.428c-0.281,0.56-0.57,1.285-0.881,2.178c-0.299,0.895-0.59,1.855-0.869,2.89
	c-0.281,1.035-0.551,2.136-0.83,3.31c-0.281,1.172-0.5,2.316-0.67,3.432v1.173c0,1.452,0.15,2.86,0.459,4.229
	c0.301,1.367,0.68,2.597,1.121,3.685c0.449,1.09,0.92,1.955,1.42,2.599c0.5,0.639,0.969,0.961,1.41,0.961
	c1.08,0,2.32-0.223,3.699-0.67c1.391-0.447,2.871-1.047,4.43-1.8c1.551-0.753,3.16-1.618,4.801-2.596s3.23-1.97,4.76-2.974
	c3.57-2.345,16.58-11.873,20.5-14.943l4.801,19.889c-5.08,3.37-16.83,10.807-21.791,13.438c-2.17,1.105-4.41,2.197-6.719,3.275
	c-2.301,1.08-4.631,2.043-6.971,2.883c-2.33,0.844-4.609,1.517-6.84,2.015C498.352,159.88,496.271,160.13,494.332,160.13
	L494.332,160.13z"/>
<path fill="#5F888B" d="M595.092,127.983c-0.33-0.688-0.77-1.291-1.32-1.818c-0.549-0.524-1.18-0.953-1.869-1.283
	c-0.691-0.329-1.381-0.551-2.08-0.66c-0.689-0.111-1.35-0.095-1.961,0.047c-0.619,0.145-1.08,0.467-1.52,0.848
	c-0.881,0.77-1.76,1.608-2.65,2.432c-1.48,1.242-2.039,1.822-3.83,3.41c-2.379,2.105-4.82,4.139-7.309,6.104
	c-2.49,1.964-4.961,3.642-7.391,5.023c-2.439,1.385-4.65,2.075-6.65,2.075c-1.709,0-2.85-0.733-3.4-2.198
	c-0.559-1.466-0.83-3.445-0.83-5.937c0-2.545,0.4-5.373,1.191-8.486c0.799-3.113,1.459-6.248,1.979-9.403
	c0.531-3.155,1.5-6.968,2.932-11.438c1.42-4.473,2.5-8.129,3.229-10.974c0.721-2.845,1.371-5.379,1.941-7.606
	c0.568-2.223,0.85-3.942,0.85-5.162c0-1.438-0.41-2.588-1.221-3.447c-0.82-0.857-2.369-1.286-4.65-1.286
	c-1.25,0-2.648,0.156-4.199,0.461c-1.551,0.312-3.051,0.785-4.49,1.429c-1.439,0.646-2.73,1.471-3.881,2.478
	c-1.25,1.12-2.01,2.379-2.279,3.776c-0.49,1.996-1.789,6.301-3.891,12.914c-2.27,8.113-3.779,13.351-4.529,15.717
	c-0.459,1.187-1.48,6.59-3.08,16.209c-0.779,4.652-1.16,8.721-1.16,12.209c0,2.49,0.26,4.775,0.791,6.85
	c0.52,2.079,1.389,3.836,2.609,5.275c1.221,1.441,2.811,2.561,4.779,3.361c1.961,0.803,4.391,1.205,7.271,1.205
	c3.199,0,6.6-0.58,10.17-1.744c3.568-1.162,7.068-2.617,10.5-4.357c3.439-1.747,6.629-3.655,9.6-5.732
	c2.59-1.816,4.74-3.521,6.59-5.148c2.24-1.59,4.449-3.746,7.4-7.064c0.969-1.086,1.719-2.061,2.15-3.021
	c0.439-0.963,0.658-1.873,0.68-2.734C595.582,129.442,595.422,128.669,595.092,127.983L595.092,127.983z"/>
<path fill="#5F888B" d="M563.332,68.009c2.82,0,5.25-0.432,7.27-1.299c2.02-0.866,3.689-1.999,5.02-3.395
	c1.33-1.398,2.301-2.99,2.91-4.779c0.611-1.787,0.91-3.633,0.91-5.532c0-2.068-0.369-3.854-1.119-5.366
	c-0.75-1.508-1.76-2.725-3.031-3.646c-1.279-0.92-2.77-1.604-4.488-2.055c-1.711-0.443-3.541-0.669-5.48-0.669
	c-3.1,0-5.68,0.49-7.76,1.468c-2.08,0.979-3.74,2.182-4.99,3.604c-1.24,1.425-2.141,2.949-2.689,4.57
	c-0.561,1.621-0.83,3.072-0.83,4.358c0,3.854,1.158,6.944,3.479,9.261C554.861,66.849,558.461,68.009,563.332,68.009L563.332,68.009
	z"/>
</svg>
