<?xml version="1.0" encoding="utf-8"?>
<!-- Generator: Adobe Illustrator 16.0.0, SVG Export Plug-In . SVG Version: 6.00 Build 0)  -->
<!DOCTYPE svg PUBLIC "-//W3C//DTD SVG 1.1//EN" "http://www.w3.org/Graphics/SVG/1.1/DTD/svg11.dtd">
<svg version="1.1" id="Layer_1" xmlns="http://www.w3.org/2000/svg" xmlns:xlink="http://www.w3.org/1999/xlink" x="0px" y="0px"
	 width="595.496px" height="248.643px" viewBox="0 0 595.496 248.643" enable-background="new 0 0 595.496 248.643"
	 xml:space="preserve">
<path fill="#E35746" d="M411.383,169.398c0,0-2.75-9.75,7.5-28.5s18.25-8.5,18.25-8.5s8.75,9.5-1.25,23.75
	S411.383,169.398,411.383,169.398L411.383,169.398z M332.633,182.898c-11.75,30.75-40.25,18.25-40.25,18.25s-3.25-11,6-41.75
	c9.25-30.75,31-18.75,31-18.75S344.383,152.148,332.633,182.898L332.633,182.898z M311.383,54.148c0,0,17.75-46.25,22-23.75
	s-37.25,89.5-37.25,89.5C296.633,104.898,311.383,54.148,311.383,54.148L311.383,54.148z M57.632,169.398
	c0.75-29.75,20.25-42.75,27-36.25s4.25,20.5-8.5,29.25S57.632,169.398,57.632,169.398L57.632,169.398z M595.383,164.461
	c-1-10-10-6.282-10-6.282s-14.5,11.237-27.25,9.985c-12.75-1.25-8.75-29.758-8.75-29.758s2.75-26.125-4.75-28.314
	c-7.5-2.19-16.75,6.808-16.75,6.808s-11.5,12.749-17,28.999l-1.5,0.5c0,0,1.75-28.501-0.25-35.001c-1.5-3.25-15.25-3-17.5,2.75
	s-13.25,45.75-14,62.5c0,0-21.5,18.25-40.25,21.25s-23.25-8.75-23.25-8.75s51-14.25,49.25-55s-41.125-25.683-45.584-22.333
	c-4.311,3.239-27.325,17.123-34.038,55.561c-0.229,1.312-0.628,7.022-0.628,7.022s-19.75,13.25-30.75,16.75
	c0,0,30.75-51.75-6.75-75.25c-17-10.25-30.5,11.25-30.5,11.25s50.75-56.5,39.5-104.25C349.275,0.16,337.909-2.283,327.471,1.396
	c-15.838,6.252-21.838,15.502-21.838,15.502s-20.5,29.75-25.25,74c-4.75,44.25-11.75,97.75-11.75,97.75s-9.75,9.5-18.75,10
	s-5-26.75-5-26.75s7-41.5,6.5-48.5c-0.5-7-1-10.75-9.25-13.25s-17.25,8-17.25,8s-23.75,36-25.75,41.5l-1.25,2.25l-1.25-1.5
	c0,0,16.75-49,0.75-49.75c-16-0.75-26.5,17.5-26.5,17.5s-18.25,30.5-19,34l-1.25-1.5c0,0,7.5-35.5,6-44.25s-9.75-7-9.75-7
	s-10.5-1.25-13.25,5.5c-2.75,6.75-12.75,51.5-14,65.75c0,0-26.25,18.75-43.5,19s-15.5-10.938-15.5-10.938
	s63.251-21.655,46.001-64.405c-7.751-11-16.751-14.453-29.501-14.203s-28.199,8.024-38.449,31.024
	c-4.893,10.977-6.301,21.381-7.301,29.265v-0.003c0,0-11.449,2.261-17.449-2.739s-9.275,0-9.275,0S-5.73,180.584,4.52,184.584
	s26.155,5.684,26.155,5.684h-0.012c1.47,7,5.745,19.077,18.225,28.561c18.75,14.25,54.747-1.215,54.747-1.215l14.749-8.232
	c0,0,0.499,13.557,11.249,15.531c10.75,1.977,15.25-0.019,34-45.519c11-23.25,11.75-21.998,11.75-21.998l1.25-0.249
	c0,0-8.5,44.501-5.25,56.501c3.25,12,17.5,10.749,17.5,10.749s7.75,1.311,14-20.689c6.25-22,18.25-46.439,18.25-46.439h1.5
	c0,0-5.25,45.689,2.75,60.189c8,14.5,28.75,4.971,28.75,4.971s14.5-7.266,16.75-9.516c0,0,17.214,14.666,41.484,12.017
	c54.266-10.681,73.565-25.091,73.565-25.091s9.325,23.623,38.2,25.812c33,2.5,51-18.251,51-18.251s-0.25,13.5,11.25,18.25
	s19.25-22.129,19.25-22.129l19.25-53.252h1.75c0,0,1,34.689,20,40.189s43.75-12.779,43.75-12.779S596.383,174.461,595.383,164.461
	L595.383,164.461z"/>
<text transform="matrix(1 0 0 1 505.4868 238.6431)" fill="#E35746" font-family="'MyriadPro-Regular'" font-size="40">®</text>
</svg>
