<?xml version="1.0" encoding="utf-8"?>
<!-- Generator: Adobe Illustrator 16.0.0, SVG Export Plug-In . SVG Version: 6.00 Build 0)  -->
<!DOCTYPE svg PUBLIC "-//W3C//DTD SVG 1.1//EN" "http://www.w3.org/Graphics/SVG/1.1/DTD/svg11.dtd">
<svg version="1.1" id="Layer_1" xmlns:sketch="http://www.bohemiancoding.com/sketch/ns"
	 xmlns="http://www.w3.org/2000/svg" xmlns:xlink="http://www.w3.org/1999/xlink" x="0px" y="0px" width="32px" height="64px"
	 viewBox="0 0 32 64" enable-background="new 0 0 32 64" xml:space="preserve">
<title>icon-1</title>
<desc>Created with Sketch.</desc>
<title>icon-1</title>
<desc>Created with Sketch.</desc>
<g transform="translate(0, 0)">
	<path fill="none" stroke="#35858B" stroke-width="2" stroke-linecap="square" stroke-miterlimit="10" d="M4.858,19.551
		C4.858,12.727,16,1.446,16,1.446s11.142,11.281,11.142,18.105c0,7.102-5.71,11.141-11.142,11.141S4.858,26.652,4.858,19.551z"/>
	<path fill="none" stroke="#35858B" stroke-width="2" stroke-linecap="square" stroke-miterlimit="10" d="M16,23.729
		c-1.114,0-4.178-0.834-4.178-4.178c0-1.393,1.81-4.317,4.178-7.52c2.368,3.203,4.179,6.127,4.179,7.52
		C20.179,22.894,17.113,23.729,16,23.729z"/>
</g>
<g transform="translate(0, 0)">
	<path fill="none" stroke="#35BCE0" stroke-width="2" stroke-linecap="square" stroke-miterlimit="10" d="M4.858,51.355
		C4.858,44.531,16,33.25,16,33.25s11.142,11.281,11.142,18.105c0,7.102-5.71,11.141-11.142,11.141S4.858,58.457,4.858,51.355z"/>
	<path fill="none" stroke="#35BCE0" stroke-width="2" stroke-linecap="square" stroke-miterlimit="10" d="M16,55.533
		c-1.113,0-4.178-0.834-4.178-4.178c0-1.393,1.81-4.317,4.178-7.52c2.368,3.202,4.179,6.127,4.179,7.52
		C20.179,54.699,17.113,55.533,16,55.533z"/>
</g>
</svg>
