<?xml version="1.0" encoding="utf-8"?>
<!-- Generator: Adobe Illustrator 16.0.0, SVG Export Plug-In . SVG Version: 6.00 Build 0)  -->
<!DOCTYPE svg PUBLIC "-//W3C//DTD SVG 1.1//EN" "http://www.w3.org/Graphics/SVG/1.1/DTD/svg11.dtd">
<svg version="1.1" id="Layer_1" xmlns="http://www.w3.org/2000/svg" xmlns:xlink="http://www.w3.org/1999/xlink" x="0px" y="0px"
	 width="461px" height="289px" viewBox="69.5 151.5 461 289" enable-background="new 69.5 151.5 461 289" xml:space="preserve">
<g>
	<g>
		<defs>
			<rect id="SVGID_1_" y="-4" width="600" height="600"/>
		</defs>
		<clipPath id="SVGID_2_">
			<use xlink:href="#SVGID_1_"  overflow="visible"/>
		</clipPath>
		<g clip-path="url(#SVGID_2_)">
			<g>
				<defs>
					<rect id="SVGID_3_" y="-4" width="600" height="600"/>
				</defs>
				<defs>
					<rect id="SVGID_4_" y="-4" width="600" height="600"/>
				</defs>
				<defs>
					<rect id="SVGID_5_" y="-4" width="600" height="600"/>
				</defs>
				<defs>
					<rect id="SVGID_6_" y="-4" width="600" height="600"/>
				</defs>
				<defs>
					<rect id="SVGID_7_" y="-4" width="600" height="600"/>
				</defs>
				<defs>
					<rect id="SVGID_8_" y="-4" width="600" height="600"/>
				</defs>
				<defs>
					<rect id="SVGID_10_" y="-4" width="600" height="600"/>
				</defs>
				<clipPath id="SVGID_11_">
					<use xlink:href="#SVGID_3_"  overflow="visible"/>
				</clipPath>
				<clipPath id="SVGID_12_" clip-path="url(#SVGID_11_)">
					<use xlink:href="#SVGID_4_"  overflow="visible"/>
				</clipPath>
				<clipPath id="SVGID_13_" clip-path="url(#SVGID_12_)">
					<use xlink:href="#SVGID_5_"  overflow="visible"/>
				</clipPath>
				<clipPath id="SVGID_14_" clip-path="url(#SVGID_13_)">
					<use xlink:href="#SVGID_6_"  overflow="visible"/>
				</clipPath>
				<clipPath id="SVGID_15_" clip-path="url(#SVGID_14_)">
					<use xlink:href="#SVGID_7_"  overflow="visible"/>
				</clipPath>
				<clipPath id="SVGID_16_" clip-path="url(#SVGID_15_)">
					<use xlink:href="#SVGID_8_"  overflow="visible"/>
				</clipPath>
				<clipPath id="SVGID_17_" clip-path="url(#SVGID_16_)">
					<use xlink:href="#SVGID_10_"  overflow="visible"/>
				</clipPath>
				<path clip-path="url(#SVGID_17_)" fill="#5F888B" d="M296.953,430.944c-1.46,0-2.912-0.382-4.189-1.121l-13.338-7.893
					c-1.992-1.113-1.02-1.509-0.363-1.737c2.658-0.922,3.195-1.136,6.031-2.743c0.295-0.167,0.688-0.104,0.992,0.076l10.247,6.083
					c0.371,0.206,0.896,0.206,1.237,0l39.95-23.059c0.372-0.212,0.609-0.641,0.609-1.081v-46.104c0-0.451-0.237-0.872-0.62-1.101
					l-39.933-23.039c-0.369-0.216-0.858-0.216-1.231,0l-39.922,23.045c-0.389,0.223-0.635,0.658-0.635,1.095v46.104
					c0,0.44,0.246,0.858,0.63,1.067l10.944,6.323c5.938,2.969,9.574-0.528,9.574-4.041V357.3c0-0.646,0.517-1.151,1.16-1.151h5.065
					c0.634,0,1.158,0.508,1.158,1.151v45.52c0,7.925-4.315,12.47-11.829,12.47c-2.309,0-4.127,0-9.202-2.501l-10.476-6.03
					c-2.588-1.496-4.19-4.293-4.19-7.288v-46.104c0-2.995,1.603-5.792,4.19-7.281L292.764,323c2.527-1.43,5.888-1.43,8.396,0
					l39.947,23.085c2.587,1.496,4.194,4.286,4.194,7.281v46.104c0,2.995-1.607,5.781-4.194,7.288l-39.947,23.064
					C299.883,430.562,298.434,430.944,296.953,430.944"/>
				<path clip-path="url(#SVGID_17_)" fill="#5F888B" d="M309.293,399.182c-17.481,0-21.144-8.023-21.144-14.755
					c0-0.641,0.515-1.151,1.153-1.151h5.166c0.576,0,1.058,0.416,1.147,0.979c0.78,5.259,3.104,7.912,13.677,7.912
					c8.416,0,11.999-1.903,11.999-6.369c0-2.573-1.016-4.485-14.095-5.767c-10.931-1.081-17.691-3.496-17.691-12.239
					c0-8.062,6.793-12.868,18.187-12.868c12.798,0,19.131,4.441,19.933,13.973c0.03,0.328-0.086,0.645-0.305,0.889
					c-0.22,0.229-0.524,0.369-0.847,0.369h-5.186c-0.537,0-1.012-0.383-1.121-0.902c-1.243-5.533-4.27-7.302-12.476-7.302
					c-9.189,0-10.257,3.2-10.257,5.601c0,2.906,1.26,3.751,13.667,5.393c12.276,1.623,18.108,3.922,18.108,12.551
					C329.21,394.195,321.952,399.182,309.293,399.182"/>
				<path clip-path="url(#SVGID_17_)" fill="#5F888B" d="M366.898,350.831c0,4.235-3.465,7.698-7.698,7.698
					c-4.197,0-7.7-3.422-7.7-7.698c0-4.358,3.586-7.701,7.7-7.701C363.355,343.13,366.898,346.473,366.898,350.831 M352.744,350.811
					c0,3.586,2.893,6.479,6.436,6.479c3.586,0,6.479-2.954,6.479-6.479c0-3.586-2.934-6.438-6.479-6.438
					C355.677,344.373,352.744,347.184,352.744,350.811 M356.307,346.511h2.977c1.019,0,3.016,0,3.016,2.283
					c0,1.589-1.019,1.914-1.632,2.118c1.184,0.081,1.264,0.855,1.426,1.955c0.083,0.691,0.206,1.875,0.448,2.281h-1.831
					c-0.043-0.406-0.329-2.607-0.329-2.729c-0.119-0.489-0.285-0.731-0.896-0.731h-1.507v3.461h-1.672V346.511z M357.938,350.3
					h1.345c1.098,0,1.304-0.772,1.304-1.221c0-1.183-0.816-1.183-1.264-1.183h-1.385V350.3L357.938,350.3z"/>
				<path clip-path="url(#SVGID_17_)" fill="#5F888B" d="M173.242,250.566c0-1.84-0.969-3.532-2.558-4.444l-42.354-24.375
					c-0.717-0.422-1.52-0.642-2.331-0.674h-0.438c-0.81,0.032-1.611,0.252-2.339,0.674l-42.354,24.375
					c-1.58,0.912-2.562,2.604-2.562,4.444l0.093,65.636c0,0.913,0.475,1.762,1.277,2.21c0.786,0.471,1.758,0.471,2.541,0
					l25.172-14.414c1.592-0.945,2.561-2.614,2.561-4.438v-30.665c0-1.828,0.969-3.52,2.555-4.428l10.718-6.174
					c0.8-0.461,1.672-0.688,2.563-0.688c0.873,0,1.769,0.227,2.545,0.688l10.715,6.174c1.586,0.908,2.559,2.6,2.559,4.428v30.665
					c0,1.824,0.981,3.504,2.563,4.438l25.165,14.414c0.789,0.471,1.775,0.471,2.557,0c0.78-0.448,1.271-1.297,1.271-2.21
					L173.242,250.566z"/>
				<path clip-path="url(#SVGID_17_)" fill="#5F888B" d="M377.04,160.34c-0.793-0.439-1.76-0.431-2.543,0.029
					c-0.78,0.459-1.262,1.299-1.262,2.206v65c0,0.639-0.343,1.231-0.895,1.551c-0.555,0.32-1.237,0.32-1.791,0l-10.608-6.112
					c-1.582-0.912-3.529-0.91-5.112,0.002l-42.371,24.453c-1.584,0.914-2.559,2.604-2.559,4.43v48.917
					c0,1.828,0.975,3.516,2.557,4.432l42.37,24.471c1.584,0.914,3.534,0.914,5.118,0l42.377-24.471
					c1.582-0.916,2.558-2.604,2.558-4.432V178.879c0-1.854-1.004-3.564-2.624-4.468L377.04,160.34z M373.109,284.743
					c0,0.456-0.244,0.879-0.641,1.106l-14.549,8.386c-0.395,0.227-0.882,0.227-1.276,0l-14.548-8.386
					c-0.396-0.228-0.641-0.65-0.641-1.106v-16.799c0-0.456,0.243-0.88,0.64-1.108l14.547-8.402c0.396-0.229,0.885-0.229,1.28,0
					l14.548,8.402c0.396,0.229,0.64,0.652,0.64,1.108V284.743z"/>
				<path clip-path="url(#SVGID_17_)" fill="#5F888B" d="M518.131,267.505c1.576-0.915,2.546-2.601,2.546-4.424v-11.854
					c0-1.822-0.97-3.51-2.548-4.424L476.03,222.36c-1.584-0.922-3.539-0.922-5.127-0.008l-42.356,24.453
					c-1.583,0.914-2.558,2.603-2.558,4.43v48.903c0,1.84,0.985,3.537,2.584,4.446l42.093,23.984
					c1.552,0.887,3.455,0.896,5.017,0.027l25.46-14.149c0.81-0.45,1.312-1.298,1.316-2.22c0.006-0.924-0.485-1.776-1.284-2.235
					l-42.625-24.466c-0.796-0.455-1.286-1.303-1.286-2.219V267.98c0-0.914,0.488-1.76,1.281-2.215l13.266-7.648
					c0.789-0.456,1.766-0.456,2.556,0l13.271,7.648c0.793,0.455,1.28,1.301,1.28,2.215v12.059c0,0.916,0.49,1.762,1.283,2.218
					c0.793,0.458,1.77,0.454,2.561-0.005L518.131,267.505z"/>
				<path clip-path="url(#SVGID_17_)" fill="#5F888B" d="M472.842,265.215c0.305-0.176,0.68-0.176,0.982,0l8.13,4.689
					c0.304,0.176,0.491,0.5,0.491,0.852v9.388c0,0.353-0.188,0.675-0.491,0.851l-8.13,4.691c-0.305,0.176-0.678,0.176-0.982,0
					l-8.124-4.691c-0.304-0.176-0.489-0.498-0.489-0.851v-9.388c0-0.352,0.187-0.676,0.489-0.852L472.842,265.215z"/>
			</g>
			<g>
				<defs>
					<rect id="SVGID_18_" y="-4" width="600" height="600"/>
				</defs>
				<clipPath id="SVGID_19_">
					<use xlink:href="#SVGID_18_"  overflow="visible"/>
				</clipPath>
				<g clip-path="url(#SVGID_19_)">
					<g>
						<defs>
							<path id="SVGID_20_" d="M238.756,222.869l-42.02,24.254c-1.572,0.906-2.539,2.582-2.539,4.395v48.549
								c0,1.813,0.967,3.488,2.537,4.396l42.02,24.273c1.571,0.906,3.508,0.906,5.079,0l42.028-24.273
								c1.572-0.908,2.539-2.583,2.539-4.396V251.52c0-1.814-0.967-3.49-2.539-4.396l-42.03-24.254
								c-0.785-0.454-1.661-0.68-2.538-0.68C240.417,222.189,239.54,222.415,238.756,222.869"/>
						</defs>
						<clipPath id="SVGID_21_">
							<use xlink:href="#SVGID_20_"  overflow="visible"/>
						</clipPath>
						<rect x="194.197" y="222.189" clip-path="url(#SVGID_21_)" fill="#3C5658" width="94.203" height="107.456"/>
					</g>
					<g>
						<defs>
							<rect id="SVGID_22_" y="-4" width="600" height="600"/>
						</defs>
						<clipPath id="SVGID_23_">
							<use xlink:href="#SVGID_22_"  overflow="visible"/>
						</clipPath>
						<g clip-path="url(#SVGID_23_)">
							<g>
								<defs>
									<path id="SVGID_24_" d="M238.766,222.869l-42.029,24.254c-1.572,0.906-2.539,2.582-2.539,4.396v48.547
										c0,1.813,0.967,3.489,2.537,4.396l42.031,24.274c1.57,0.906,3.506,0.906,5.076,0l42.02-24.274
										c1.572-0.907,2.539-2.583,2.539-4.396v-48.549c0-1.812-0.967-3.488-2.539-4.395l-42.021-24.254
										c-0.784-0.454-1.661-0.68-2.538-0.68C240.427,222.189,239.551,222.415,238.766,222.869"/>
								</defs>
								<clipPath id="SVGID_25_">
									<use xlink:href="#SVGID_24_"  overflow="visible"/>
								</clipPath>
								<g clip-path="url(#SVGID_25_)">
									<g opacity="0.66">
										<g display="none">
											<rect id="SVGID_9_" x="195.182" y="222.341" display="inline" fill="#3C5658" width="91.752" height="107.069"/>
										</g>
										<g>
											<defs>
												<rect id="SVGID_26_" x="195.182" y="222.341" width="91.752" height="107.069"/>
											</defs>
											<clipPath id="SVGID_27_">
												<use xlink:href="#SVGID_26_"  overflow="visible"/>
											</clipPath>
											<path clip-path="url(#SVGID_27_)" fill="#3C5658" d="M285.648,247.123l-41.843-24.255
												c-0.419-0.242-0.867-0.414-1.327-0.527l-47.296,80.908c0.397,0.479,0.878,0.896,1.428,1.214l42.093,24.273
												c1.256,0.725,2.707,0.859,4.043,0.429l44.188-80.914C286.588,247.809,286.166,247.421,285.648,247.123"/>
										</g>
									</g>
								</g>
							</g>
						</g>
					</g>
				</g>
			</g>
		</g>
	</g>
</g>
</svg>
