<?xml version="1.0" encoding="utf-8"?>
<!-- Generator: Adobe Illustrator 16.0.0, SVG Export Plug-In . SVG Version: 6.00 Build 0)  -->
<!DOCTYPE svg PUBLIC "-//W3C//DTD SVG 1.1//EN" "http://www.w3.org/Graphics/SVG/1.1/DTD/svg11.dtd">
<svg version="1.1" id="Layer_1" xmlns="http://www.w3.org/2000/svg" xmlns:xlink="http://www.w3.org/1999/xlink" x="0px" y="0px"
	 width="799.536px" height="599.604px" viewBox="-0.039 100.146 799.536 599.604"
	 enable-background="new -0.039 100.146 799.536 599.604" xml:space="preserve">
<path fill="#7B7486" d="M688.427,444.834c-27.894,0.146-52.136,6.863-72.436,16.794c-7.448-14.749-14.896-27.893-16.21-37.531
	c-1.461-11.245-3.213-18.108-1.461-31.543c1.753-13.436,9.639-32.567,9.492-34.027c-0.146-1.46-1.753-8.324-17.816-8.47
	c-16.064-0.146-29.938,3.067-31.544,7.302c-1.606,4.235-4.674,13.874-6.718,23.805c-2.775,14.604-32.13,66.739-48.924,94.049
	c-5.402-10.661-10.076-20.008-11.1-27.455c-1.46-11.245-3.213-18.108-1.46-31.545c1.752-13.436,9.639-32.566,9.492-34.027
	c-0.146-1.46-1.752-8.324-17.816-8.47c-16.063-0.146-29.938,3.067-31.545,7.302c-1.604,4.235-3.358,14.166-6.718,23.804
	c-3.358,9.639-42.352,96.678-52.573,119.168c-5.258,11.536-9.785,20.736-12.998,27.017l0,0c0,0-0.146,0.438-0.584,1.168
	c-2.773,5.404-4.381,8.324-4.381,8.324s0,0,0,0.146c-2.19,3.942-4.527,7.594-5.695,7.594c-0.877,0-2.482-10.516,0.292-24.826
	c5.842-30.23,19.715-77.255,19.569-78.861c0-0.876,2.628-9.054-9.055-13.289c-11.392-4.234-15.48,2.774-16.503,2.774
	c-1.021,0-1.752,2.481-1.752,2.481s12.704-52.864-24.242-52.864c-23.074,0-54.911,25.265-70.683,48.046
	c-9.931,5.404-31.106,16.94-53.742,29.354c-8.616,4.819-17.524,9.64-25.849,14.165c-0.584-0.584-1.168-1.312-1.752-1.897
	c-44.688-47.754-127.346-81.489-123.841-145.6c1.314-23.366,9.346-84.703,158.744-159.182
	c122.965-60.606,220.811-43.812,237.751-6.572c24.242,53.158-52.429,151.88-179.482,166.192
	c-48.485,5.403-73.896-13.29-80.321-20.299c-6.718-7.302-7.74-7.74-10.223-6.28c-4.089,2.19-1.46,8.762,0,12.56
	c3.797,9.931,19.423,27.455,45.856,36.071c23.366,7.594,80.175,11.829,148.959-14.75c76.962-29.792,137.13-112.596,119.46-181.964
	c-17.671-70.391-134.502-93.611-245.053-54.327c-65.718,23.366-136.984,60.168-188.244,108.069
	C6.426,284.191-3.213,333.698,0.73,354.436c14.166,73.603,115.663,121.504,156.262,156.992c-2.044,1.168-3.943,2.19-5.55,3.066
	c-20.299,10.077-97.7,50.529-116.977,93.318c-21.906,48.484,3.505,83.241,20.299,87.915
	c52.136,14.458,105.732-11.536,134.501-54.473c28.769-42.936,25.265-98.722,11.975-124.279c-0.146-0.292-0.292-0.584-0.584-0.876
	c5.257-3.065,10.661-6.278,15.918-9.347c10.369-6.133,20.592-11.829,29.354-16.502c-4.965,13.582-8.616,29.792-10.369,53.158
	c-2.191,27.455,9.054,63.089,23.804,77.107c6.572,6.135,14.312,6.279,19.277,6.279c17.233,0,24.973-14.312,33.588-31.252
	c10.516-20.737,20.009-44.834,20.009-44.834s-11.829,65.134,20.299,65.134c11.684,0,23.513-15.188,28.77-22.929
	c0,0.146,0,0.146,0,0.146s0.293-0.438,0.877-1.461c1.168-1.897,1.898-3.065,1.898-3.065s0-0.146,0-0.292
	c4.673-8.18,15.188-26.727,30.812-57.539c20.153-39.723,39.577-89.376,39.577-89.376s1.752,12.121,7.74,32.273
	c3.505,11.829,10.807,24.826,16.648,37.387c-4.675,6.571-7.596,10.223-7.596,10.223s0,0,0.146,0.146
	c-3.797,4.965-7.886,10.367-12.413,15.626c-15.919,18.984-34.903,40.744-37.532,47.023c-3.066,7.448-2.337,12.853,3.505,17.232
	c4.235,3.213,11.829,3.65,19.569,3.213c14.312-1.022,24.389-4.527,29.354-6.718c7.74-2.774,16.795-7.011,25.266-13.289
	c15.626-11.537,25.119-28.04,24.242-49.801c-0.438-11.975-4.381-23.949-9.2-35.194c1.46-2.044,2.773-4.089,4.234-6.134
	c24.682-36.071,43.812-75.647,43.812-75.647s1.752,12.121,7.74,32.274c2.921,10.223,8.907,21.32,14.165,32.129
	c-23.221,18.839-37.531,40.743-42.644,55.057c-9.201,26.578-2.045,38.554,11.537,41.328c6.133,1.313,14.896-1.606,21.321-4.381
	c8.179-2.629,17.815-7.156,27.018-13.874c15.626-11.537,30.668-27.602,29.792-49.36c-0.438-9.931-3.066-19.716-6.719-29.208
	c19.716-8.179,45.126-12.705,77.547-8.908c69.515,8.179,83.242,51.553,80.613,69.808s-17.232,28.185-22.052,31.252
	c-4.819,3.065-6.427,4.089-5.987,6.278c0.584,3.214,2.921,3.067,7.01,2.483c5.695-1.022,36.51-14.75,37.824-48.339
	C801.606,491.274,760.716,444.396,688.427,444.834z M152.172,625.63c-23.074,25.118-55.203,34.611-69.076,26.579
	c-14.896-8.616-9.055-45.71,19.277-72.289c17.232-16.211,39.431-31.253,54.181-40.453c3.359-2.044,8.324-4.965,14.312-8.616
	c1.022-0.584,1.606-0.876,1.606-0.876l0,0c1.168-0.729,2.336-1.461,3.505-2.189C186.345,565.754,176.415,599.197,152.172,625.63z
	 M320.117,511.428c-8.032,19.569-24.827,69.66-35.05,66.887c-8.762-2.338-14.166-40.308-1.752-77.84
	c6.28-18.839,19.569-41.328,27.309-50.091c12.56-14.021,26.434-18.692,29.792-12.998
	C344.651,444.834,325.082,499.16,320.117,511.428z M458.707,577.729c-3.358,1.753-6.571,2.921-8.031,2.045
	c-1.021-0.584,1.46-2.922,1.46-2.922s17.379-18.691,24.242-27.162c3.943-4.966,8.616-10.808,13.582-17.379c0,0.584,0,1.313,0,1.898
	C489.96,556.554,468.346,571.596,458.707,577.729z M565.607,553.341c-2.482-1.753-2.045-7.595,6.279-25.849
	c3.213-7.156,10.808-19.132,23.805-30.669c1.461,4.674,2.482,9.201,2.337,13.436C597.883,538.444,577.729,548.959,565.607,553.341z"
	/>
</svg>
