<?xml version="1.0" encoding="utf-8"?>
<!-- Generator: Adobe Illustrator 16.0.0, SVG Export Plug-In . SVG Version: 6.00 Build 0)  -->
<!DOCTYPE svg PUBLIC "-//W3C//DTD SVG 1.1//EN" "http://www.w3.org/Graphics/SVG/1.1/DTD/svg11.dtd">
<svg version="1.1" xmlns="http://www.w3.org/2000/svg" xmlns:xlink="http://www.w3.org/1999/xlink" x="0px" y="0px" width="727px"
	 height="487px" viewBox="0 0 727 487" enable-background="new 0 0 727 487" xml:space="preserve">
<g id="Dot">
	<circle fill="#F5F0E1" cx="390.999" cy="44.002" r="11.665"/>
</g>
<g id="Clipping">
	<defs>
		<clipPath id="SVGID_2_">
		<path id="SVGID_1_" d="M345.246,317.013c0.16,3.611-1.711,8.07-3.045,11.463c-0.58,0.83-0.882,1.855-1.032,2.367
			c-1.141,3.117-2.753,6.316-4.129,9.473c-0.343,0.787-0.923,1.619-1.268,2.41c-3.373,6.91-6.982,13.863-11.464,20.002
			c-4.44,6.373-9.973,13.428-17.78,17.25c-6.054,2.779-13.811,4.168-19.908-0.08c-4.392-2.854-6.366-7.111-7.484-12.006
			c-2.168-10.771,1.632-24.793,2.982-33.525c2.85-17.979,6.162-40.162,6.253-42.361c0.269-3.93-0.749-6.9-2.772-8.723
			c-2.343-2.25-6.356-2.988-11.059-2.148c-0.235,0.043-0.706,0.129-0.941,0.17c-4.19,0.992-7.547,2.562-9.881,4.432
			c-5.675,4.898-9.234,9.416-12.39,14.834c-6.463,11.344-11.289,25.066-14.861,41.713c-2.164,9.609-4.051,19.406-5.702,29.164
			c-0.562,2.285-0.89,4.525-1.217,6.768c0.017,1.453-0.243,2.713-0.461,4.209c-0.671,3.031-1.342,6.059-2.399,9.646
			c-0.496,1.301-1.31,2.176-2.72,2.426c-3.526,0.631-6.859,0.984-10.939,1.23c-0.471,0.084-0.984-0.068-1.261-0.26
			c-0.041-0.236-0.361-0.666-0.21-1.178c0.025-1.215,0.135-1.965,0.243-2.711c1.041-5.037,3.38-16.375,6.785-33.965
			c3.02-17.037,6.449-35.846,8.444-46.393c2.736-14.557,4.756-26.322,5.451-30.57c0.395-3.227,2.893-17.742,5.452-30.574
			c1.174-7.001,2.407-12.316,3.078-15.347c1.125-4.569,2.248-9.138,3.221-13.192c0.562-2.285,2.232-3.795,4.583-4.216l0.235-0.042
			c2.116-0.378,4.509-0.563,6.75-0.238l0.235-0.043c0.513,0.152,1.26,0.261,1.771,0.412c1.345,0.73,1.664,1.159,1.168,2.461
			c-1.954,10.78-5.795,31.361-8.789,47.181l-0.695,4.248c-1.41,7.045-1.132,7.236-1.61,9.99c-0.411,1.771-0.562,2.285-0.521,2.521
			l-0.109,0.746l0.58-0.832l0.386-0.557c0.344-0.785,1.653-2.963,2.316-3.324c5.919-7.605,14.75-11.129,24.154-12.809
			c5.172-0.924,10.084-0.588,14.266,1.09c13.208,4.672,13.615,19.156,12.559,29.535c-0.77,7.9-3.144,23.123-4.82,34.098l-1.46,9.48
			c-0.544,3.736-1.693,9.523-1.944,14.904c-0.226,4.164,0.446,7.926,2.94,9.662c1.706,1.395,4.375,1.402,8.355-0.766
			c2.183-1.361,3.811-3.107,5.632-5.131c1.586-1.98,2.896-4.158,4.633-6.652c2.317-3.324,4.314-7.076,6.312-10.83
			c0.538-1.066,0.881-1.857,1.418-2.924l1.117-1.896c1.225-2.646,2.878-5.609,3.952-7.744c0.496-1.299,0.948-2.836,1.679-4.182
			c0.881-1.854,1.762-3.711,2.409-5.525l0.345-0.789c1.141-3.115,2.173-5.48,3.65-6.717c1.669-1.512,3.594-1.613,6.238-0.389
			C343.825,313.144,345.06,314.618,345.246,317.013z M472.188,294.317c0.16,3.609-1.711,8.068-3.046,11.459
			c-0.302,1.025-0.881,1.857-1.032,2.369c-1.099,3.35-2.517,6.273-4.129,9.471c-0.344,0.789-0.688,1.58-1.032,2.369
			c-3.718,7.699-7.411,14.182-11.658,20.279c-3.281,4.713-5.514,8.506-9.987,11.975c-2.528,2.15-5.609,3.916-8.815,4.975
			c-1.135,0.445-2.309,0.654-3.485,0.865c-8.697,1.557-16.398-2.162-21.286-10.508c-0.64-0.855-1.042-1.756-1.444-2.652
			c0,0-0.043-0.234-0.277-0.193c-0.58,0.83-1.201,1.426-1.587,1.98c-0.58,0.832-1.201,1.428-1.588,1.982
			c-7.864,8.926-15.058,14.824-22.992,17.941c-2.694,1.209-5.239,1.906-7.826,2.369c-16.455,2.941-30.697-6.156-35.84-22.705
			c-2.454-8.293-3.345-17.354-2.826-26.666c0.846-11.553,4.277-23.568,9.606-34.471c4.708-10.303,13.017-24.889,27.139-32.75
			c4.643-2.527,9.177-4.311,13.643-5.107c4.231-0.758,8.354-0.767,12.368-0.028c7.75,1.282,13.569,5.337,16.903,11.774
			c0.639,0.857,0.807,1.797,1.251,2.932c0.043,0.234,0.404,0.896,1.152,1.008c0.469-0.086,0.621-0.598,0.814-0.875
			c0,0,0,0,0.233-0.043l-0.04-0.234c0.301-1.023,0.646-1.811,1.183-2.879c0.302-1.025,0.838-2.092,1.142-3.115
			c0.302-1.025,1.351-1.941,2.761-2.191c2.779-0.74,5.021-0.412,7.431,0.854c1.386,0.965,1.747,1.629,1.379,3.637
			c-1.41,7.045-3.205,14.643-5.319,21.814c-1.577,6.104-2.405,12.318-3.236,18.533c-0.31,3.691-0.855,7.43-1.677,10.969
			c-0.544,3.738-1.092,7.475-1.635,11.213c-0.395,3.225-0.729,8.137,0.111,12.838l0.506,2.82c0.797,4.467,4.224,8.707,8.926,7.865
			c0.94-0.168,2.075-0.613,3.166-1.293c1.947-1.32,4.087-2.914,5.867-5.174c4.331-5.627,8.109-11.639,11.331-18.035
			c0.303-1.025,0.882-1.857,1.418-2.924l1.117-1.898c1.226-2.646,2.644-5.568,3.718-7.699c0.495-1.303,1.225-2.646,1.913-4.227
			c0.646-1.812,1.527-3.668,2.216-5.246l0.535-1.066c1.185-2.879,2.218-5.248,3.417-6.676c1.671-1.514,3.593-1.613,6.28-0.152
			C471.002,290.403,472.044,292.157,472.188,294.317z M402.584,268.673c-4.124-6.785-10.246-9.814-17.533-8.512
			c-0.94,0.17-2.074,0.613-3.014,0.781c-5.709,1.992-11.316,5.906-15.54,10.785c-13.716,15.553-21.695,41.484-19.087,62.852
			c0.833,7.371,4.209,14.043,8.962,17.564c3.645,2.742,8.17,3.633,13.342,2.707c3.762-0.672,7.01-1.496,10.243-3.771
			c8.646-5.914,15.12-13.137,19.524-22.414c3.18-6.637,5.766-13.891,7.653-23.689c1.299-6.297,2.045-12.98,1.104-19.605
			C407.104,279.024,405.348,273.272,402.584,268.673z M576.801,275.612c0.161,3.609-1.71,8.068-3.044,11.459
			c-0.581,0.832-0.881,1.857-1.034,2.367c-1.098,3.352-2.517,6.275-4.129,9.473c-0.343,0.789-0.687,1.58-1.266,2.41
			c-4.364,9.516-10.35,18.104-16.393,25.01c-10.074,11.504-23.935,18.105-34.278,19.957c-8.698,1.555-19.554,3.254-28.262,0.686
			c-6.617-1.73-11.386-6.697-13.504-13.113c-0.445-1.131-0.655-2.309,0.821-3.541c0.429-0.32,0.815-0.875,1.243-1.195
			c0.193-0.277,0.386-0.553,0.579-0.83l0.385-0.553c0.43-0.318,0.815-0.875,1.478-1.236c0.814-0.873,1.478-1.232,2.184-1.359
			c1.176-0.211,2.049,0.604,3.241,1.844c0.32,0.43,0.681,1.092,0.999,1.521l0.597,0.621c2.595,3.66,6.265,5.188,10.303,4.707
			c24.534-3.9,29.547-38.275,30.524-58.586c0.418-11.236,1.622-35.711-15.095-31.508c-9.276,2.384-19.393,13.655-23.967,21.995
			c-5.069,9.641-7.276,12.217-11.85,27.35c-1.207,4.098-3.556,18.104-4.21,22.588c-0.779,3.777-1.561,7.555-2.339,11.336
			c-0.546,3.734-1.325,7.514-2.105,11.291l-1.216,6.768c-1.996,10.549-3.949,21.328-5.669,32.068
			c-0.889,4.527-1.904,8.346-2.517,13.064c-0.133,1.965-0.569,4.955-1.133,7.236c-0.603,2.053-1.183,2.883-2.635,2.9
			c-0.235,0.041-0.469,0.084-0.705,0.125c-2.116,0.379-8.186,1.705-10.706,1.186l-0.276-0.191l-0.277-0.195
			c-0.681-1.09,2.465-17.422,2.423-17.658c1.779-9.049,3.473-18.572,4.779-27.541c1.022-6.488,2.24-13.256,3.263-19.746
			c1.325-7.516,2.65-15.031,3.975-22.547c1.132-7.236,2.457-14.75,3.782-22.268c3.689-20.068,5.232-29.078,7.841-44.341
			c0.218-1.496,1.434-8.263,1.996-10.548c0.15-0.511,0.536-1.066,1.2-1.427c0.427-0.32,1.134-0.445,2.074-0.615
			c1.879-0.336,9.764-1.017,10.722,0.268c0.319,0.429,0.402,0.899,0.294,1.646c-0.091,2.201-0.764,5.231-1.198,8.221
			c-0.714,2.794-0.956,5.508-1.132,7.238l-0.193,0.277c0.234-0.043,0.234-0.043,0.193-0.277c2.124-3.049,4.826-6.93,7.354-9.079
			c7.302-6.644,14.363-10.574,21.887-11.92c3.097-0.311,5.809-0.068,8.563,0.41c11.488,1.827,17.207,10.752,19.803,21.206
			c3.019,12.803,1.712,28.564-0.176,38.363c-2.349,14.004-4.562,26.045-13.099,38.002c1.133-0.445,2.268-0.891,3.082-1.762
			c5.522-4.385,9.678-8.281,13.708-12.885c3.173-3.961,6.303-8.162,9.031-13.258c0.536-1.066,1.116-1.898,1.419-2.926l1.115-1.896
			c1.461-2.688,2.88-5.609,3.953-7.74c0.495-1.303,1.185-2.883,1.679-4.184c0.882-1.855,1.763-3.711,2.451-5.291l0.302-1.021
			c1.417-2.924,2.216-5.248,3.65-6.721c1.67-1.512,3.594-1.611,6.238-0.387C575.383,271.739,576.658,273.452,576.801,275.612z
			 M677.18,257.663c0.396,3.568-1.475,8.027-2.81,11.42c-0.537,1.066-0.881,1.855-1.032,2.367c-1.101,3.352-2.752,6.314-4.129,9.473
			c-0.344,0.787-0.923,1.619-1.267,2.41c-3.332,7.145-5.782,12.436-10.584,18.145c-10.61,12.574-23.002,20.611-39.458,23.555
			c0,0,0,0-0.94,0.166c-20.024,3.338-37.213-5.961-44.892-24.48c-0.766-1.564-1.529-3.123-2.059-4.727
			c-0.169-0.943-0.529-1.604-0.656-2.309c-5.756-18.623-2.654-41.98,7.443-61.497c4.035-7.272,7.016-10.959,15.066-17.494
			c3.191-2.511,10.058-6.166,13.584-6.796l3.762-0.672c19.981-3.573,29.438,5.896,32.589,9.942
			c8.618,11.561,8.604,30.486-0.251,42.017c-2.358,3.09-5.466,6.07-8.932,8.389c-2.805,1.957-5.608,3.914-9.201,5.527l-0.899,0.402
			c-8.32,3.672-17.083,6.209-24.8,7.832l-0.471,0.084c-2.819,0.504-5.642,1.008-8.74,1.318c-0.47,0.084-1.411,0.254-2.157,0.146
			c-0.706,0.125-1.411,0.25-2.352,0.42l-0.705,0.125c-1.646,0.293-1.52,0.998-1.461,2.688c1.429,7.992,4.722,14.197,10.113,18.568
			c5.434,4.609,12.37,6.766,20.338,6.555c1.923-0.102,3.846-0.203,5.726-0.537c7.758-1.389,15.457-4.463,21.049-9.83
			c7.304-6.645,10.71-10.648,14.277-17.836c0.537-1.066,1.116-1.9,1.419-2.924c0.387-0.555,0.772-1.107,1.116-1.896
			c1.46-2.688,2.878-5.609,3.953-7.744c0.494-1.299,1.226-2.645,1.678-4.182c0.881-1.854,1.762-3.711,2.451-5.289l0.301-1.023
			c1.183-2.881,2.216-5.25,3.652-6.719c1.67-1.512,3.593-1.613,6.28-0.152C675.996,253.751,677.037,255.503,677.18,257.663z
			 M586.697,242.789c-3.097,7.103-5.025,16.667-4.704,23.888c0.126,0.705,0.21,1.176,0.765,1.562
			c0.276,0.191,0.79,0.344,1.812,0.645c3.569-0.395,6.945-0.514,10.707-1.188l0.704-0.125c6.818-1.219,13.661-3.654,18.235-5.201
			c7.506-2.797,13.348-6.754,17.126-12.766c2.509-3.603,3.416-6.675,3.49-10.329c0.092-2.201-0.052-4.358-0.706-6.667
			c-1.16-5.131-4.544-9.136-7.081-11.107c-3.091-2.358-6.91-3.374-11.226-3.086c-1.219-0.025-2.864,0.268-4.038,0.479
			c-6.818,1.219-12.274,4.621-17.546,10.417c-3.41,4.005-5.667,9.019-7.579,13.242L586.697,242.789z M717.604,276.151
			c-4.286,19.445-14.718,43.873-36.475,70.084c-42.357,50.756-129.194,75.26-232.295,65.793
			c-101.372-9.287-240.14,23.287-296.604,69.773c-0.855,0.639-2.653,1.445-4.845-1.316l-3.192-4.281
			c-2.747-3.148-1.227-4.148-0.605-4.744c29.827-24.498,79.68-45.541,140.34-59.059c57.328-13.16,117.855-17.918,166.203-13.463
			c98.616,8.812,181.156-13.953,220.726-61.299c7.975-9.676,15.31-20.205,21.304-31.465c4.767-8.615,8.66-18.047,11.336-27.502
			c0.218-1.492,0.672-3.031,1.125-4.568c1.561-7.559,2.607-15.264,1.028-22.744c-0.825-3.25-1.841-6.222-3.16-8.17
			c-2.275-3.233-6.415-4.676-10.37-3.726c-4.936,0.883-7.899,6.022-11.835,15.216c-0.453,1.537-0.948,2.84-1.485,3.904
			c-1.804,3.479-5.204,11.607-5.891,13.186c-0.646,1.812-4.474,10.26-5.674,11.688c-1.116,1.898-5.811,0.068-7.347-0.385
			c-2.604-0.99-4.434-3.088-3.443-5.689c1.208-4.1,2.365-5.762,3.55-8.643c0.536-1.066,1.761-3.711,2.257-5.012
			c0.344-0.791,2.366-5.762,4.046-9.941c0.301-1.025,3.289-7.382,3.936-9.197c4.791-9.833,13.865-22.857,31.792-17.572
			c8.196,2.417,14.218,10.317,16.706,21.517C720.311,256.015,719.834,265.562,717.604,276.151z M378.778,129.503
			c0.159,3.61-1.712,8.069-3.046,11.461c-0.579,0.832-0.881,1.856-1.033,2.368c-1.14,3.115-2.751,6.315-4.128,9.473
			c-0.344,0.789-0.924,1.621-1.269,2.409c-3.373,6.912-6.981,13.865-11.464,20.002c-4.44,6.374-9.971,13.429-17.779,17.251
			c-6.053,2.78-13.81,4.167-19.907-0.081c-4.393-2.853-6.367-7.11-7.484-12.005c-2.168-10.771,1.632-24.793,2.981-33.527
			c2.851-17.977,6.162-40.161,6.255-42.361c0.268-3.929-0.749-6.9-2.773-8.723c-2.344-2.249-6.356-2.987-11.058-2.146
			c-0.235,0.042-0.706,0.126-0.941,0.168c-4.189,0.992-7.548,2.563-9.881,4.436c-5.675,4.897-9.234,9.415-12.39,14.831
			c-6.463,11.344-11.289,25.065-14.861,41.716c-2.164,9.607-4.051,19.404-5.703,29.162c-0.561,2.285-0.889,4.526-1.215,6.769
			c0.016,1.451-0.243,2.711-0.461,4.207c-0.672,3.03-1.342,6.062-2.399,9.648c-0.495,1.301-1.31,2.174-2.72,2.427
			c-3.526,0.63-6.86,0.983-10.94,1.228c-0.47,0.084-0.982-0.067-1.259-0.261c-0.042-0.234-0.362-0.661-0.21-1.175
			c0.025-1.216,0.134-1.964,0.244-2.711c1.04-5.038,3.379-16.374,6.785-33.964c3.018-17.037,6.448-35.846,8.444-46.393
			c2.734-14.56,4.755-26.322,5.451-30.571c0.394-3.223,2.893-17.743,5.451-30.573c1.174-7.003,2.407-12.317,3.079-15.349
			c1.124-4.568,2.248-9.135,3.221-13.191c0.562-2.283,2.231-3.796,4.583-4.216l0.235-0.042c2.116-0.378,4.509-0.563,6.75-0.236
			l0.236-0.042c0.512,0.151,1.259,0.261,1.771,0.411c1.343,0.729,1.663,1.158,1.168,2.459c-1.955,10.782-5.795,31.361-8.789,47.181
			l-0.697,4.249c-1.409,7.045-1.132,7.238-1.61,9.991c-0.411,1.773-0.562,2.285-0.521,2.52l-0.109,0.747l0.58-0.831l0.385-0.555
			c0.345-0.789,1.654-2.964,2.317-3.326c5.917-7.607,14.75-11.129,24.153-12.81c5.172-0.925,10.084-0.589,14.266,1.09
			c13.208,4.673,13.614,19.158,12.559,29.534c-0.771,7.901-3.144,23.124-4.821,34.1l-1.458,9.479
			c-0.545,3.738-1.693,9.522-1.944,14.904c-0.227,4.165,0.446,7.926,2.941,9.664c1.705,1.393,4.374,1.401,8.354-0.765
			c2.182-1.361,3.811-3.109,5.633-5.132c1.586-1.984,2.896-4.159,4.633-6.652c2.316-3.325,4.314-7.08,6.311-10.832
			c0.538-1.067,0.881-1.856,1.419-2.922l1.117-1.898c1.224-2.645,2.878-5.609,3.951-7.741c0.497-1.302,0.95-2.839,1.679-4.182
			c0.881-1.856,1.764-3.711,2.408-5.526l0.346-0.789c1.141-3.115,2.172-5.483,3.65-6.718c1.67-1.511,3.594-1.611,6.238-0.388
			C377.356,125.633,378.592,127.11,378.778,129.503z M427.173,131.525c-0.537,1.066-0.882,1.855-0.991,2.602
			c-3.078,8.558-6.604,15.98-10.749,24c-3.911,7.978-9.896,16.569-18.048,21.181c-7.488,4.25-16.338,6.316-24.543-0.221
			c-8.204-6.539-9.299-19.443-8.16-29.353c1.384-12.619,3.514-25.129,5.988-38.43l1.08-4.803c1.889-9.799,4.422-21.413,7.014-31.336
			c0.15-0.513,0.301-1.025,0.452-1.538c0.067-0.982,0.327-2.243,0.823-3.543c0.15-0.512,0.772-1.109,3.122-1.529
			c1.177-0.21,2.865-0.269,4.551-0.328c0.982,0.066,1.688-0.06,2.393-0.186c0.705-0.127,1.412-0.253,2.628-0.227
			c0.748,0.109,1.261,0.26,1.304,0.495c0.274,0.192,0.401,0.898,0.294,1.646c-0.891,4.526-2.686,12.125-3.549,15.434
			c-1.838,7.364-8.254,39.321-9.562,48.29c-0.106,0.747-0.175,1.729-0.477,2.753l0.043,0.235c-0.438,2.99-0.873,5.978-1.351,8.733
			c-0.896,7.196-0.5,22.931,10.565,22.408c6.751-0.237,8.103-7.55,11.535-12.775c4.356-6.843,7.84-14.501,10.853-22.075
			c0.729-1.344,1.226-2.646,1.954-3.989c0.882-1.856,1.528-3.669,2.408-5.525l0.346-0.789c1.14-3.116,2.172-5.484,3.649-6.719
			c1.437-1.469,3.359-1.569,6.24-0.387c1.854,0.881,2.854,2.401,3.04,4.794C430.42,123.909,428.549,128.368,427.173,131.525z
			 M401.72,40.733c1.757,5.75-1.467,12.149-7.218,13.906c-5.986,1.797-12.192-1.703-13.948-7.454
			c-1.798-5.988,1.468-12.149,7.452-13.949C393.758,31.481,399.922,34.746,401.72,40.733z M534.87,101.593
			c0.161,3.611-1.711,8.069-3.045,11.462c-0.579,0.831-0.881,1.855-1.032,2.367c-1.099,3.351-2.518,6.274-4.129,9.473
			c-0.344,0.789-0.688,1.579-1.267,2.409c-4.364,9.513-10.35,18.105-16.394,25.008c-10.073,11.505-23.935,18.107-34.278,19.957
			c-8.699,1.555-19.554,3.253-28.261,0.686c-6.616-1.728-11.387-6.697-13.505-13.112c-0.445-1.133-0.654-2.309,0.823-3.542
			c0.428-0.32,0.813-0.875,1.241-1.193c0.192-0.277,0.387-0.555,0.579-0.832l0.387-0.554c0.429-0.319,0.813-0.875,1.478-1.235
			c0.813-0.874,1.478-1.233,2.183-1.359c1.176-0.21,2.05,0.603,3.241,1.845c0.318,0.428,0.681,1.092,0.999,1.521l0.598,0.62
			c2.595,3.66,6.264,5.188,10.303,4.709c24.533-3.902,29.548-38.278,30.524-58.589c0.417-11.233,1.621-35.711-15.096-31.509
			c-9.277,2.387-19.393,13.657-23.966,21.996c-5.07,9.64-7.277,12.217-11.849,27.349c-1.21,4.099-3.557,18.104-4.212,22.588
			c-0.779,3.779-1.559,7.556-2.34,11.337c-0.545,3.735-1.325,7.515-2.104,11.292l-1.216,6.769
			c-1.995,10.545-3.95,21.328-5.669,32.066c-0.89,4.526-1.904,8.347-2.516,13.065c-0.134,1.966-0.569,4.954-1.132,7.24
			c-0.604,2.046-1.184,2.878-2.636,2.896c-0.234,0.042-0.471,0.084-0.705,0.125c-2.116,0.379-8.187,1.705-10.706,1.186l-0.276-0.191
			l-0.277-0.194c-0.681-1.091,2.464-17.423,2.422-17.658c1.778-9.052,3.473-18.573,4.78-27.542
			c1.021-6.491,2.239-13.257,3.262-19.749c1.324-7.515,2.649-15.03,3.975-22.545c1.133-7.237,2.456-14.753,3.782-22.268
			c3.69-20.069,5.233-29.078,7.841-44.344c0.219-1.494,1.434-8.261,1.995-10.546c0.152-0.512,0.538-1.065,1.201-1.427
			c0.428-0.32,1.133-0.446,2.073-0.614c1.881-0.336,9.765-1.017,10.722,0.266c0.319,0.429,0.404,0.899,0.294,1.647
			c-0.091,2.2-0.762,5.231-1.197,8.22c-0.713,2.795-0.957,5.509-1.132,7.237l-0.192,0.277c0.233-0.042,0.233-0.042,0.192-0.277
			c2.122-3.047,4.825-6.927,7.353-9.077c7.304-6.645,14.363-10.576,21.888-11.92c3.098-0.311,5.81-0.068,8.562,0.411
			c11.487,1.828,17.207,10.751,19.805,21.205c3.017,12.804,1.71,28.563-0.177,38.363c-2.348,14.005-4.561,26.045-13.099,38.004
			c1.134-0.445,2.269-0.89,3.082-1.764c5.524-4.383,9.679-8.28,13.708-12.884c3.173-3.963,6.305-8.162,9.032-13.259
			c0.537-1.066,1.115-1.898,1.417-2.922l1.117-1.898c1.46-2.687,2.879-5.609,3.953-7.741c0.494-1.302,1.184-2.882,1.678-4.183
			c0.882-1.855,1.763-3.711,2.45-5.29l0.303-1.024c1.418-2.921,2.216-5.249,3.65-6.719c1.671-1.511,3.593-1.612,6.239-0.387
			C533.451,97.723,534.728,99.436,534.87,101.593z M171.353,254.72c-9.151-21.208-21.787-41.121-34.423-61.037
			c-1.145-2.14-3.184-4.182-4.776-6.272c-1.095-1.692-2.886-1.494-4.678-1.295c-14.833,1.188-29.467,0.088-43.851-2.854
			c-13.042-3.089-22.099-7.076-33.793-14.397c-30.207-18.875-45.671-64.325-34.908-98.168c1.993-6.571,5.429-12.393,9.363-17.816
			c3.935-5.425,10.157-6.567,16.03-6.765c2.24-0.248,4.479-0.496,6.77-0.296c2.289,0.201,2.787,0.599,1.641,2.54
			c-1.893,3.385-3.835,6.321-5.279,9.655c-5.678,10.152-8.967,21.401-9.021,33.196c0.188,34.445,23.969,64.916,59.408,69.608
			c5.524,0.748,16.624,2.694,22.448,2.048c0,0-0.697-2.19-1.343-3.933c-2.836-5.128-9.152-17.126-11.589-22.752
			c-8.206-20.86-12.081-43.558-7.742-65.806c4.188-19.511,13.352-35.038,29.235-47.226c17.923-14.23,44.057-19.845,66.753-15.556
			c31.008,5.634,49.713,35.308,50.3,65.173c0.197,5.874-0.502,11.846-1.201,17.819c-6.684,42.008-37.109,74.402-76.834,88.325
			c-1.345,0.149-3.485,1.292-2.938,2.14c0.647,1.742,4.03,7.715,4.08,8.163c10.447,16.531,18.953,31.915,26.861,50.084
			c5.471,12.546,11.389,25.042,13.774,38.384c5.316,27.527,0.479,53.457-12.322,77.098c-23.211,44.291-75.332,60.947-121.12,44.703
			c-31.653-11.457-51.653-40.533-52.636-73.982c-0.743-10.803,1.75-21.055,5.686-30.562c8.967-21.4,34.856-37.42,56.753-28.053
			c2.838,1.047,4.829,2.639,6.419,4.73c4.678,5.379-3.937,13.586-7.621,17.17c-0.797,0.996-5.278,1.492-6.67,1.193
			c-9.655-5.279-21.804,3.775-25.34,12.783c-2.89,6.668-3.49,13.537-3.592,20.805c0.099,4.979,0.645,9.904,1.588,14.336
			c7.158,27.779,35.874,41.377,62.603,41.137c51.668-0.281,74.23-42.234,71.209-85.887
			C179.706,281.005,176.227,265.972,171.353,254.72z M129.187,131.958c2.438,5.625,12.186,28.128,18.855,26.937
			c8.463-1.391,16.278-4.525,23.547-8.504c35.198-17.957,51.784-52.445,42.939-91.373c-4.82-23.048-30.75-31.968-48.969-28.589
			c-11.996,2.236-21.456,6.912-29.622,15.071c-14.689,14.78-18.08,33.294-16.494,51.711
			C120.733,108.859,124.213,119.812,129.187,131.958z"/>
			</clipPath>
	</defs>
	<g id="Strokes" clip-path="url(#SVGID_2_)">
		<path fill="none" stroke="#F5F0E1" stroke-width="19" stroke-miterlimit="10" d="M252.33,210.999L286.33,26 M531.596,96.842
			C484.524,212.683,434,153.333,434,153.333c35.667,34.667,54.926-16.845,59.179-52.511S468.5,62.5,468.5,62.5
			s-41.003,31.167-42.901,53.5 M437.998,57.105l-31.333,171.896 M269.33,129c0,0,26.122-57.564,54.197-38.992
			c0,0,10.628,5.718-4.586,88.325c0,0,16.062,36.668,51.059-37.999C382.438,113.794,387.333,65,387.333,65
			s-34.456,142.615,7.708,105.273c34.558-30.605,37.188-112.271,37.188-112.271"/>
		<path fill="none" stroke="#F5F0E1" stroke-width="28" stroke-miterlimit="10" d="M45.33,34.333c0,0-38,56.333-13.334,96
			s51.667,47.333,82.667,44"/>
		<path fill="none" stroke="#F5F0E1" stroke-width="25" stroke-miterlimit="10" d="M160.25,167.375c-4.5,5.125-46.5,7.5-46.5,7.5"/>
		<path fill="none" stroke="#F5F0E1" stroke-width="34" stroke-miterlimit="10" d="M158.25,169.25c0,0,90.525-37.917,67.75-103.583
			c0,0-19.419-101.332-115.09-16.665"/>
		<path fill="none" stroke="#F5F0E1" stroke-width="40" stroke-miterlimit="10" d="M119.002,49.001c0,0-33.667,43,10.333,109
			c0,0,73,108.333,64,134.333s-2,122-112.333,96S62.943,238.442,81.333,283.5l13.667,7.666"/>
		<path fill="none" stroke="#F5F0E1" stroke-width="19" stroke-miterlimit="10" d="M220,397.333l33.666-182.292 M295,290.354
			c0,0-19.5,84.146,0,85.646s47-63.671,47-63.671s8.63-57.165,49.963-59.829l12.537,6l8.5,10l-4.761,16.87 M479.333,232.333
			c0,0-15.334,125.333-58.667,120.667c0,0-20.665-4.336,4.335-106.67 M143.668,479.328c82-59,180.331-66.995,180.331-66.995
			c14.667-12.667,191.334-4.666,191.334-4.666c3.333-0.667,109.004,2.994,171.004-81.006s-0.337-110.327-8.104-80.355
			s-33.879,82.688-80.229,69.355c0,0-36.007-4.386-21.674-58.053c14.333-53.667,47.673-61.288,63.007-28.28
			c6.087,13.103,0.912,23.239-12.667,31.667c-20.628,12.804-55.097,20.616-55.097,20.616
			c-52.761,103.61-96.239,46.056-96.239,46.056c42.334,40.334,53.999-25.999,53.999-25.999
			c24.002-82.667-22.704-58.757-27.665-59.67c0,0-31.251,33.753-31.918,38.753 M450.75,396.875
			c0.75-18.25,30.249-160.541,30.249-160.541 M337.575,324.313c0,0,7.925,57.687,48.425,30.187s32.496-97.033,37.998-104.017
			 M295,293.5c-13-57-58.697,15.556-58.697,15.556"/>
	</g>
</g>
<g id="Boat">
	<g>
		<g>
			<path fill="#E35746" d="M568.011,167.002c2.98-0.053,5.35-2.518,5.29-5.492c-0.006-0.318,0.244-0.575,0.561-0.58
				c0.049-0.002,0.086,0.005,0.129,0.014c0.31-0.088,0.701,0.179,0.706,0.542c0.061,2.979,2.526,5.355,5.509,5.304
				c2.978-0.052,5.35-2.517,5.291-5.493c-0.006-0.318,0.244-0.575,0.561-0.58c0.045-0.001,0.085,0.005,0.123,0.015
				c0.043-0.011,0.081-0.018,0.135-0.02c0.309-0.005,0.571,0.243,0.578,0.56c0.06,2.966,2.525,5.348,5.487,5.305
				c2.964-0.06,5.332-2.528,5.272-5.492c-0.005-0.318,0.248-0.575,0.563-0.58c0.045,0,0.086,0.005,0.125,0.016
				c0.312-0.09,0.706,0.178,0.713,0.539c0.06,2.98,2.525,5.357,5.504,5.305c2.98-0.052,5.347-2.518,5.288-5.492
				c-0.006-0.319,0.25-0.574,0.559-0.58c0.052-0.001,0.092,0.006,0.132,0.015c0.037-0.01,0.082-0.018,0.13-0.019
				c0.312-0.006,0.576,0.242,0.583,0.56c0.058,2.979,2.525,5.357,5.509,5.305c2.969-0.051,5.346-2.518,5.289-5.493
				c-0.007-0.317,0.244-0.574,0.559-0.58c0.048,0,0.091,0.006,0.127,0.015c0.308-0.09,0.703,0.179,0.71,0.542
				c0.06,2.966,2.521,5.347,5.486,5.304c2.965-0.06,5.331-2.528,5.272-5.491c-0.006-0.318,0.244-0.575,0.559-0.581
				c0.044-0.001,0.093,0.006,0.129,0.015c0.311-0.089,0.706,0.179,0.708,0.54c0.06,2.98,2.526,5.357,5.506,5.306
				c2.978-0.052,5.352-2.517,5.293-5.493c-0.006-0.317,0.247-0.575,0.558-0.58c0.049-0.001,0.091,0.005,0.129,0.014
				c0.038-0.01,0.082-0.018,0.127-0.02c0.316-0.005,0.583,0.242,0.59,0.56c0.057,2.98,2.521,5.357,5.502,5.305
				c2.976-0.052,5.353-2.518,5.292-5.492c-0.003-0.317,0.248-0.574,0.563-0.58c0.045,0,0.088,0.005,0.123,0.014
				c0.036-0.01,0.08-0.018,0.13-0.019c0.313-0.006,0.58,0.242,0.585,0.56c0.06,2.966,2.518,5.348,5.481,5.304
				c2.968-0.059,5.332-2.528,5.273-5.491c-0.006-0.317,0.244-0.575,0.557-0.581c0.048,0,0.092,0.006,0.128,0.016
				c0.314-0.091,0.706,0.179,0.712,0.541c0.058,2.978,2.527,5.355,5.506,5.303c0.312-0.004,0.575,0.244,0.582,0.563
				c0.005,0.319-0.247,0.574-0.558,0.58c-2.724,0.048-5.17-1.61-6.181-4.063c-0.893,2.428-3.194,4.151-5.841,4.268l-0.008,0.005
				l-0.342,0.006l-0.013-0.005c-2.626-0.042-4.977-1.682-5.962-4.067c-0.916,2.493-3.295,4.233-6.016,4.281
				c-2.717,0.047-5.166-1.61-6.174-4.067c-0.92,2.491-3.3,4.233-6.021,4.279c-2.719,0.048-5.162-1.611-6.18-4.067
				c-0.899,2.45-3.23,4.178-5.902,4.274l-0.282,0.01l-0.003-0.007c-2.63-0.041-4.979-1.681-5.963-4.065
				c-0.919,2.491-3.288,4.231-6.012,4.279c-2.724,0.047-5.175-1.61-6.184-4.067c-0.921,2.491-3.297,4.231-6.013,4.279
				c-2.724,0.047-5.178-1.609-6.185-4.067c-0.903,2.438-3.211,4.169-5.866,4.273l-0.012,0.004l-0.315,0.005v-0.005
				c-2.626-0.042-4.979-1.682-5.959-4.066c-0.916,2.492-3.293,4.233-6.016,4.28c-2.719,0.048-5.172-1.609-6.187-4.067
				c-0.911,2.491-3.289,4.231-6.013,4.28c-0.315,0.005-0.575-0.241-0.579-0.561C567.443,167.266,567.691,167.008,568.011,167.002z"
				/>
		</g>
		<g>
			<path fill="#E35746" d="M547.216,135.624c0.147-0.237,0.474-0.394,0.889-0.401l0.007,0l41.967,0.828
				c0.331-0.076,0.746-0.168,0.85-0.179l18.71-5.383l0.058-0.017l56.562,2.578c0.499,0.019-6.695-0.618,0,0l0.093,4.638l9.165,0.053
				c0.292,0.002,0.562,0.103,0.731,0.267c0.173,0.167,0.227,0.381,0.152,0.584l-7.241,19.354c0.968-0.734,1.514-1.71,1.494-2.727
				c-0.005-0.227,0.244-0.415,0.559-0.42c0.05,0,0.092,0.004,0.129,0.012c0.315-0.074,0.705,0.124,0.708,0.384
				c0.041,2.131,2.501,3.822,5.477,3.771c0.312-0.005,0.572,0.173,0.576,0.401c0.007,0.228-0.245,0.416-0.561,0.421
				c-2.724,0.047-5.159-1.131-6.157-2.884c-0.502,0.976-1.465,1.815-2.729,2.378l-0.272,0.726l-0.385-0.389
				c-0.025-0.024-0.046-0.043-0.066-0.066c-0.779,0.258-1.59,0.406-2.41,0.435l-0.004,0.009l-0.342,0.006l-0.006-0.009
				c-2.63-0.018-4.966-1.18-5.938-2.881c-0.931,1.789-3.32,3.051-6.042,3.099c-2.714,0.047-5.154-1.131-6.152-2.886
				c-0.932,1.788-3.318,3.051-6.041,3.099c-2.72,0.046-5.151-1.131-6.156-2.887c-0.914,1.761-3.254,3.01-5.925,3.089l-0.286,0.013
				v-0.009c-2.629-0.019-4.969-1.179-5.942-2.881c-0.93,1.789-3.314,3.05-6.035,3.099c-2.719,0.047-5.163-1.131-6.161-2.887
				c-0.931,1.789-3.314,3.051-6.037,3.098c-2.72,0.048-5.16-1.13-6.156-2.885c-0.917,1.751-3.238,3.001-5.896,3.087l-0.004,0.009
				l-0.318,0.001v-0.004c-2.627-0.018-4.97-1.179-5.937-2.882c-0.88,1.686-3.054,2.903-5.61,3.064
				c-0.141,0.056-0.295,0.057-0.351,0.059c-0.272,0.005-0.608-0.051-0.608-0.051c-2.507-0.099-4.691-1.239-5.625-2.86
				c-0.927,1.79-3.314,3.052-6.04,3.099c-0.316,0.004-0.572-0.175-0.576-0.401c-0.005-0.229,0.242-0.417,0.562-0.422
				c2.979-0.051,5.363-1.829,5.321-3.958c-0.001-0.096,0.037-0.184,0.116-0.255l-25.95-20.294
				C547.116,136.165,547.052,135.875,547.216,135.624z M657.754,137.312l-0.076-3.853l-47.806-1.629l-13.5,4.236L657.754,137.312z
				 M574.799,157.812c0.45,1.222,1.695,2.201,3.354,2.62L574.799,157.812z"/>
		</g>
		<g>
			<path fill="#E35746" d="M647.698,128.535l-31.729-1.649c-0.636-0.05-1.115-0.618-1.13-1.324l-2.082-105.428
				c-0.011-0.482,0.208-0.939,0.582-1.184c0.365-0.241,0.846-0.256,1.214-0.016c0.363,0.228,16.139,19.814,26.371,36.265
				c9.735,15.654,17.934,29.64,43.083,76.394C683.964,132.297,648.327,128.524,647.698,128.535z"/>
		</g>
		<g>
			<path fill="#E35746" d="M610.799,126.339l-28.881,1.149l-0.016,0c-0.528,0.009-0.968-0.413-0.978-0.939
				c-0.003-0.209,0.066-0.419,0.19-0.587l27.475-66.085c0.169-0.413,0.621-0.654,1.057-0.564c0.438,0.082,0.76,0.466,0.769,0.916
				l1.29,65.143C611.715,125.885,611.307,126.322,610.799,126.339z"/>
		</g>
		<g>
			<path fill="#E35746" d="M577.22,127.567l-19.841-0.765l-0.012-0.001c-0.354-0.018-0.723-0.618-0.617-0.413
				c1.348,2.647,0.066-0.162,0.159-0.227l35.319-41.322c0.359-0.425,0.976-0.659,1.434-0.544c0.464,0.107,0.666,0.527,0.487,0.99
				l-16.145,41.938C577.927,127.425,577.572,127.583,577.22,127.567z"/>
		</g>
		<g display="none" opacity="0.8">
			<g display="inline">
				<g>
					<path fill="#E35746" d="M583.274,167.852c2.01-0.035,2.755,0.624,1.663,1.47c-0.117,0.09-0.036,0.158,0.179,0.155
						c0.03,0,0.059-0.002,0.089-0.005c0.182,0.021,0.542-0.063,0.676-0.166c1.091-0.847,3.611-1.562,5.625-1.596
						c2.008-0.036,2.753,0.624,1.663,1.469c-0.116,0.091-0.036,0.16,0.179,0.155c0.029,0,0.057-0.002,0.087-0.005
						c0.023,0.002,0.049,0.003,0.083,0.003c0.211-0.004,0.478-0.079,0.594-0.168c1.088-0.844,3.609-1.561,5.608-1.598
						c2.001-0.034,2.738,0.63,1.653,1.471c-0.116,0.091-0.035,0.159,0.179,0.156c0.031-0.001,0.061-0.002,0.093-0.007
						c0.18,0.022,0.542-0.062,0.676-0.165c1.09-0.848,3.611-1.562,5.621-1.597c2.012-0.035,2.753,0.623,1.661,1.469
						c-0.117,0.091-0.032,0.159,0.175,0.155c0.035,0,0.065-0.002,0.095-0.005c0.021,0.002,0.051,0.003,0.083,0.002
						c0.211-0.003,0.479-0.079,0.595-0.169c1.092-0.846,3.615-1.561,5.623-1.595c2.007-0.036,2.756,0.624,1.666,1.469
						c-0.117,0.09-0.037,0.159,0.177,0.155c0.03,0,0.062-0.001,0.09-0.006c0.18,0.022,0.542-0.062,0.676-0.166
						c1.087-0.842,3.603-1.56,5.61-1.597c1.997-0.033,2.735,0.631,1.65,1.47c-0.118,0.09-0.039,0.159,0.174,0.156
						c0.032-0.001,0.064-0.003,0.093-0.007c0.184,0.022,0.54-0.061,0.676-0.165c1.092-0.845,3.614-1.562,5.621-1.597
						c2.012-0.035,2.759,0.625,1.665,1.471c-0.115,0.089-0.035,0.159,0.175,0.154c0.035,0,0.062-0.003,0.093-0.005
						c0.022,0.002,0.05,0.002,0.082,0.002c0.212-0.003,0.479-0.078,0.598-0.168c1.092-0.846,3.609-1.562,5.621-1.597
						c2.009-0.035,2.757,0.624,1.666,1.469c-0.115,0.092-0.036,0.159,0.177,0.156c0.033,0,0.062-0.002,0.09-0.006
						c0.019,0.003,0.05,0.003,0.082,0.003c0.211-0.004,0.48-0.079,0.598-0.168c1.086-0.843,3.604-1.558,5.605-1.596
						c2-0.033,2.738,0.629,1.654,1.47c-0.119,0.09-0.04,0.159,0.172,0.155c0.033,0,0.062-0.003,0.093-0.006
						c0.179,0.02,0.544-0.063,0.676-0.167c1.091-0.845,3.612-1.561,5.622-1.596c0.213-0.003,0.48-0.079,0.596-0.169
						c0.117-0.091,0.036-0.159-0.176-0.156c-1.839,0.033-4.089,0.542-5.643,1.257c0.248-0.674-0.71-1.124-2.473-1.114l-0.002-0.001
						l-0.23,0.004l-0.011,0.002c-1.804,0.056-3.981,0.561-5.497,1.253c0.258-0.693-0.748-1.146-2.587-1.113
						c-1.831,0.032-4.084,0.541-5.644,1.258c0.259-0.693-0.748-1.147-2.587-1.115c-1.834,0.032-4.082,0.542-5.647,1.258
						c0.256-0.68-0.72-1.133-2.508-1.114l-0.188,0l-0.006,0.002c-1.806,0.056-3.982,0.561-5.496,1.253
						c0.255-0.693-0.745-1.146-2.582-1.115c-1.839,0.033-4.094,0.542-5.648,1.258c0.253-0.692-0.75-1.146-2.585-1.113
						c-1.838,0.031-4.095,0.54-5.649,1.257c0.247-0.677-0.712-1.129-2.485-1.115l-0.007,0l-0.212,0.003l-0.004,0.002
						c-1.8,0.054-3.981,0.56-5.492,1.252c0.255-0.693-0.748-1.146-2.586-1.114c-1.834,0.032-4.093,0.542-5.651,1.258
						c0.263-0.693-0.745-1.146-2.584-1.114c-0.211,0.003-0.477,0.078-0.593,0.167C582.981,167.785,583.057,167.855,583.274,167.852z
						"/>
				</g>
				<g>
					<path fill="#E35746" d="M558.026,177.106c0.015,0.062,0.183,0.104,0.464,0.099h0.004l28.872-0.936
						c0.2,0.015,0.45,0.034,0.519,0.035l10.838,1.216l0.036,0.004l39.436-1.677c0.344-0.012-4.782,0.288,0,0l1.699-1.318
						l6.264-0.167c0.198-0.005,0.415-0.039,0.59-0.089c0.18-0.051,0.29-0.11,0.31-0.168l1.908-5.371
						c0.399,0.193,0.426,0.46,0.055,0.747c-0.085,0.066,0.02,0.115,0.23,0.112c0.034-0.001,0.064-0.004,0.092-0.006
						c0.191,0.015,0.524-0.047,0.617-0.122c0.783-0.604,3.054-1.125,5.061-1.16c0.214-0.004,0.453-0.06,0.539-0.125
						c0.084-0.064-0.023-0.113-0.236-0.109c-1.838,0.032-3.912,0.409-5.212,0.921c0.004-0.267-0.354-0.491-1.018-0.629l0.07-0.204
						l-0.397,0.119c-0.026,0.006-0.049,0.014-0.069,0.02c-0.438-0.062-0.938-0.089-1.489-0.085l0.002-0.002l-0.232,0.005
						l-0.006,0.001c-1.796,0.05-3.798,0.419-5.061,0.918c-0.006-0.49-1.187-0.81-3.022-0.779c-1.831,0.032-3.91,0.409-5.21,0.922
						c-0.002-0.49-1.183-0.81-3.021-0.778c-1.833,0.032-3.908,0.408-5.211,0.923c-0.001-0.483-1.151-0.8-2.943-0.78l-0.192,0.003
						l-0.002,0.001c-1.796,0.05-3.8,0.419-5.064,0.917c-0.002-0.49-1.181-0.81-3.016-0.777c-1.837,0.031-3.918,0.409-5.215,0.922
						c-0.001-0.49-1.183-0.812-3.018-0.778c-1.837,0.032-3.917,0.408-5.214,0.924c-0.003-0.484-1.144-0.799-2.924-0.782
						l-0.001-0.001l-0.216,0.005l-0.002,0c-1.795,0.05-3.8,0.418-5.059,0.918c-0.006-0.462-1.058-0.77-2.737-0.775
						c-0.079-0.013-0.184-0.01-0.222-0.01c-0.182,0.003-0.432,0.022-0.432,0.022c-1.74,0.073-3.632,0.431-4.845,0.908
						c0.003-0.493-1.176-0.812-3.016-0.78c-0.214,0.004-0.45,0.059-0.535,0.123c-0.083,0.066,0.021,0.116,0.234,0.111
						c2.012-0.035,3.008,0.429,2.228,1.034c-0.036,0.029-0.04,0.054-0.014,0.071l-24.847,6.194
						C558.149,176.952,558.004,177.038,558.026,177.106z M633.905,174.781l-1.411,1.095l-33.134,1.259l-7.7-0.975L633.905,174.781z
						 M584.653,170.347c0.734-0.354,1.929-0.653,3.205-0.8L584.653,170.347z"/>
				</g>
				<g>
					<path fill="#E35746" d="M623.957,177.439l-22.191,1.001c-0.451,0.021-0.981,0.194-1.239,0.392l-38.671,29.962
						c-0.174,0.137-0.184,0.262-0.022,0.325c0.167,0.062,0.487,0.058,0.824-0.014c0.331-0.073,17.992-5.895,30.772-10.738
						c12.161-4.604,22.688-8.711,56.336-22.4C649.987,175.768,624.383,177.433,623.957,177.439z"/>
				</g>
				<g>
					<path fill="#E35746" d="M598.049,178.681l-19.263,0.153l-0.013,0.001c-0.355,0.006-0.804,0.132-0.995,0.282
						c-0.077,0.061-0.102,0.117-0.078,0.165l-4.638,18.301c-0.029,0.113,0.192,0.174,0.521,0.143
						c0.327-0.032,0.682-0.147,0.846-0.274l23.896-18.512C598.514,178.794,598.388,178.677,598.049,178.681z"/>
				</g>
				<g>
					<path fill="#E35746" d="M575.613,178.89l-13.785,0.55h-0.008c-0.248,0.011-0.706,0.187-0.562,0.127
						c1.85-0.775-0.016,0.046,0.025,0.061l9.453,11.142c0.093,0.116,0.435,0.168,0.788,0.131c0.353-0.04,0.638-0.162,0.682-0.291
						l3.822-11.634C576.045,178.919,575.858,178.88,575.613,178.89z"/>
				</g>
			</g>
		</g>
		<polygon fill="#E35746" points="574.3,133.579 582.954,128.89 610.284,130.461 599.152,133.146 		"/>
	</g>
</g>
</svg>
