<svg class="shipshape_logo" version="1.1" xmlns="http://www.w3.org/2000/svg" xmlns:xlink="http://www.w3.org/1999/xlink" x="0px" y="0px"
	 width="656.423px" height="656.423px" viewBox="0 0 656.423 656.423" enable-background="new 0 0 656.423 656.423"
	 xml:space="preserve">
<g class="shipshape_logo-rings" id="Layer_5">
	<path fill="none" stroke="#000" stroke-width="7" stroke-miterlimit="10" d="M328.21,23.694
		c-168.185,0-304.524,136.331-304.524,304.514c0,168.185,136.339,304.522,304.524,304.522
		c168.191,0,304.523-136.338,304.523-304.522C632.733,160.024,496.401,23.694,328.21,23.694z"/>
	<path fill="none" stroke="#000" stroke-width="4" stroke-miterlimit="10" stroke-dasharray="3.5569" d="M328.21,2
		C148.049,2,2,148.049,2,328.208c0,180.171,146.049,326.215,326.21,326.215c180.164,0,326.212-146.044,326.212-326.215
		C654.423,148.049,508.374,2,328.21,2z"/>
	<path fill="none" stroke="#000" stroke-width="7" stroke-miterlimit="10" d="M328.824,51.785
		c-152.91,0-276.867,123.949-276.867,276.858c0,152.91,123.957,276.865,276.867,276.865c152.916,0,276.866-123.955,276.866-276.865
		C605.689,175.734,481.739,51.785,328.824,51.785z"/>
</g>
<g class="shipshape_logo-inside" id="Layer_6">
	<g class="shipshape_logo-text--hape">
		<path d="M324.517,400.396c0.117,2.629-1.246,5.874-2.216,8.343c-0.421,0.605-0.641,1.352-0.751,1.724
			c-0.831,2.269-2.004,4.598-3.005,6.896c-0.25,0.574-0.672,1.18-0.923,1.754c-2.456,5.031-5.083,10.093-8.346,14.562
			c-3.232,4.64-7.259,9.774-12.942,12.557c-4.406,2.023-10.054,3.033-14.492-0.058c-3.197-2.077-4.634-5.176-5.448-8.739
			c-1.578-7.842,1.188-18.049,2.17-24.405c2.075-13.087,4.486-29.236,4.553-30.837c0.194-2.86-0.546-5.023-2.02-6.35
			c-1.705-1.638-4.626-2.176-8.049-1.563c-0.171,0.03-0.513,0.092-0.685,0.122c-3.05,0.722-5.494,1.865-7.192,3.23
			c-4.131,3.563-6.722,6.853-9.02,10.795c-4.704,8.258-8.216,18.246-10.817,30.367c-1.576,6.991-2.949,14.126-4.152,21.228
			c-0.409,1.662-0.647,3.295-0.885,4.926c0.013,1.059-0.176,1.975-0.335,3.062c-0.488,2.208-0.977,4.413-1.746,7.024
			c-0.361,0.947-0.954,1.582-1.98,1.766c-2.567,0.459-4.994,0.717-7.964,0.895c-0.342,0.062-0.715-0.049-0.917-0.189
			c-0.031-0.171-0.263-0.481-0.153-0.855c0.018-0.886,0.097-1.431,0.177-1.974c0.757-3.669,2.46-11.92,4.939-24.725
			c2.197-12.401,4.694-26.094,6.147-33.77c1.99-10.6,3.461-19.162,3.967-22.256c0.287-2.347,2.105-12.915,3.968-22.254
			c0.855-5.098,1.752-8.968,2.241-11.174c0.818-3.325,1.637-6.651,2.345-9.603c0.409-1.663,1.625-2.763,3.336-3.069l0.171-0.03
			c1.541-0.276,3.282-0.411,4.914-0.172l0.171-0.031c0.373,0.11,0.917,0.189,1.29,0.299c0.979,0.531,1.211,0.843,0.85,1.791
			c-1.422,7.848-4.218,22.829-6.397,34.344l-0.507,3.093c-1.025,5.129-0.824,5.27-1.172,7.274c-0.299,1.289-0.409,1.662-0.378,1.833
			l-0.08,0.544l0.422-0.605l0.281-0.402c0.25-0.575,1.203-2.158,1.687-2.421c4.308-5.538,10.737-8.101,17.582-9.325
			c3.765-0.673,7.34-0.43,10.384,0.793c9.615,3.401,9.911,13.944,9.143,21.5c-0.561,5.751-2.289,16.832-3.509,24.821l-1.062,6.9
			c-0.396,2.721-1.233,6.932-1.415,10.85c-0.165,3.031,0.325,5.77,2.141,7.034c1.241,1.015,3.184,1.02,6.081-0.558
			c1.589-0.99,2.774-2.263,4.101-3.735c1.155-1.442,2.108-3.025,3.373-4.841c1.686-2.421,3.14-5.153,4.594-7.886
			c0.391-0.776,0.642-1.352,1.033-2.127l0.812-1.381c0.892-1.927,2.096-4.085,2.878-5.638c0.36-0.947,0.69-2.065,1.221-3.043
			c0.642-1.352,1.283-2.702,1.753-4.022l0.25-0.574c0.831-2.269,1.582-3.992,2.658-4.891c1.216-1.101,2.616-1.174,4.541-0.282
			C323.484,397.578,324.383,398.653,324.517,400.396z"/>
		<path d="M416.922,383.873c0.116,2.629-1.246,5.875-2.218,8.343c-0.22,0.746-0.641,1.352-0.751,1.724
			c-0.8,2.44-1.832,4.567-3.005,6.896c-0.251,0.575-0.502,1.15-0.752,1.724c-2.706,5.606-5.395,10.325-8.486,14.763
			c-2.389,3.431-4.015,6.193-7.271,8.718c-1.839,1.565-4.082,2.85-6.417,3.619c-0.825,0.325-1.681,0.479-2.536,0.631
			c-6.332,1.133-11.938-1.574-15.495-7.648c-0.466-0.623-0.759-1.277-1.052-1.932c0,0-0.031-0.171-0.202-0.141
			c-0.421,0.605-0.874,1.039-1.154,1.442c-0.422,0.605-0.874,1.039-1.155,1.443c-5.725,6.499-10.962,10.79-16.738,13.059
			c-1.961,0.881-3.813,1.388-5.696,1.725c-11.979,2.142-22.346-4.48-26.089-16.526c-1.786-6.038-2.435-12.634-2.057-19.411
			c0.615-8.41,3.113-17.158,6.992-25.093c3.427-7.5,9.476-18.118,19.755-23.84c3.38-1.841,6.68-3.139,9.931-3.72
			c3.08-0.551,6.082-0.556,9.003-0.02c5.643,0.935,9.879,3.885,12.306,8.573c0.465,0.623,0.587,1.307,0.911,2.133
			c0.03,0.171,0.294,0.653,0.838,0.733c0.342-0.062,0.452-0.435,0.593-0.637c0,0,0,0,0.171-0.03l-0.03-0.171
			c0.22-0.746,0.471-1.321,0.861-2.097c0.22-0.746,0.61-1.522,0.83-2.269c0.22-0.745,0.983-1.412,2.011-1.596
			c2.023-0.538,3.654-0.3,5.409,0.622c1.01,0.703,1.272,1.187,1.003,2.647c-1.025,5.128-2.332,10.659-3.871,15.88
			c-1.148,4.442-1.752,8.967-2.356,13.489c-0.226,2.688-0.622,5.41-1.221,7.989c-0.396,2.719-0.793,5.438-1.189,8.16
			c-0.287,2.347-0.53,5.922,0.081,9.344l0.367,2.055c0.582,3.251,3.076,6.337,6.498,5.725c0.685-0.122,1.51-0.446,2.305-0.941
			c1.418-0.96,2.976-2.122,4.271-3.767c3.152-4.095,5.902-8.473,8.248-13.13c0.22-0.745,0.642-1.351,1.032-2.127l0.813-1.381
			c0.892-1.927,1.924-4.054,2.705-5.606c0.361-0.947,0.893-1.926,1.394-3.074c0.471-1.32,1.112-2.671,1.612-3.82l0.392-0.776
			c0.861-2.098,1.612-3.821,2.486-4.86c1.216-1.1,2.615-1.174,4.572-0.11C416.059,381.025,416.817,382.302,416.922,383.873z
			 M366.255,365.207c-3.002-4.938-7.458-7.145-12.764-6.195c-0.685,0.122-1.51,0.445-2.193,0.568
			c-4.156,1.449-8.238,4.3-11.312,7.852c-9.984,11.321-15.793,30.196-13.895,45.751c0.606,5.366,3.064,10.225,6.524,12.784
			c2.652,1.998,5.947,2.646,9.712,1.973c2.738-0.49,5.104-1.089,7.456-2.746c6.294-4.305,11.005-9.562,14.213-16.316
			c2.315-4.828,4.196-10.11,5.57-17.243c0.946-4.584,1.489-9.449,0.804-14.271C369.545,372.742,368.267,368.555,366.255,365.207z"/>
		<path d="M493.072,370.258c0.116,2.629-1.246,5.874-2.217,8.343c-0.421,0.605-0.642,1.351-0.751,1.724
			c-0.801,2.439-1.833,4.567-3.006,6.896c-0.25,0.575-0.501,1.149-0.923,1.754c-3.177,6.926-7.533,13.18-11.933,18.204
			c-7.333,8.375-17.423,13.182-24.952,14.528c-6.332,1.132-14.234,2.368-20.573,0.499c-4.816-1.258-8.289-4.875-9.83-9.544
			c-0.324-0.825-0.477-1.681,0.599-2.579c0.312-0.232,0.593-0.637,0.904-0.868c0.141-0.202,0.281-0.403,0.421-0.605l0.281-0.403
			c0.312-0.232,0.594-0.636,1.076-0.898c0.593-0.637,1.075-0.898,1.589-0.99c0.855-0.153,1.491,0.439,2.359,1.344
			c0.232,0.312,0.495,0.794,0.728,1.105l0.435,0.453c1.889,2.663,4.56,3.775,7.5,3.426c17.858-2.84,21.507-27.863,22.22-42.647
			c0.304-8.179,1.18-25.994-10.988-22.936c-6.753,1.737-14.117,9.94-17.446,16.011c-3.69,7.017-5.297,8.895-8.626,19.909
			c-0.879,2.983-2.589,13.178-3.064,16.441c-0.567,2.75-1.136,5.501-1.704,8.252c-0.396,2.72-0.964,5.471-1.531,8.221l-0.886,4.927
			c-1.453,7.676-2.875,15.525-4.126,23.343c-0.647,3.294-1.387,6.074-1.832,9.511c-0.098,1.43-0.415,3.605-0.824,5.269
			c-0.439,1.491-0.861,2.096-1.919,2.108c-0.17,0.03-0.342,0.062-0.513,0.092c-1.54,0.275-5.959,1.242-7.793,0.864l-0.201-0.142
			l-0.202-0.14c-0.495-0.795,1.795-12.683,1.764-12.854c1.294-6.59,2.527-13.52,3.479-20.048c0.744-4.725,1.63-9.652,2.374-14.376
			c0.965-5.47,1.93-10.941,2.894-16.411c0.824-5.27,1.789-10.739,2.753-16.21c2.687-14.608,3.809-21.168,5.707-32.279
			c0.159-1.088,1.044-6.014,1.454-7.676c0.11-0.373,0.391-0.776,0.874-1.04c0.312-0.232,0.824-0.324,1.509-0.446
			c1.369-0.245,7.108-0.741,7.805,0.193c0.232,0.312,0.294,0.654,0.214,1.198c-0.066,1.602-0.555,3.808-0.872,5.983
			c-0.519,2.037-0.695,4.01-0.823,5.27l-0.141,0.201c0.171-0.03,0.171-0.03,0.141-0.201c1.545-2.219,3.513-5.043,5.352-6.609
			c5.317-4.835,10.457-7.696,15.933-8.676c2.255-0.227,4.229-0.05,6.234,0.298c8.361,1.33,12.525,7.827,14.416,15.436
			c2.195,9.32,1.245,20.793-0.129,27.926c-1.709,10.196-3.32,18.961-9.534,27.665c0.824-0.323,1.649-0.648,2.242-1.283
			c4.021-3.191,7.046-6.028,9.979-9.378c2.311-2.887,4.589-5.942,6.575-9.652c0.391-0.776,0.812-1.382,1.032-2.128l0.812-1.381
			c1.063-1.956,2.096-4.084,2.878-5.637c0.36-0.947,0.861-2.096,1.222-3.043c0.641-1.352,1.283-2.701,1.783-3.852l0.221-0.746
			c1.032-2.127,1.612-3.82,2.657-4.89c1.217-1.101,2.615-1.175,4.541-0.282C492.038,367.44,492.968,368.686,493.072,370.258z"/>
		<path d="M566.141,357.193c0.288,2.598-1.075,5.844-2.046,8.312c-0.392,0.776-0.642,1.352-0.752,1.724
			c-0.799,2.44-2.003,4.598-3.006,6.896c-0.25,0.575-0.672,1.181-0.922,1.755c-2.425,5.202-4.209,9.053-7.704,13.21
			c-7.724,9.151-16.744,15.002-28.723,17.144c0,0,0,0-0.685,0.123c-14.576,2.43-27.09-4.34-32.68-17.821
			c-0.556-1.137-1.112-2.273-1.498-3.44c-0.122-0.685-0.385-1.168-0.477-1.681c-4.189-13.556-1.932-30.56,5.417-44.766
			c2.938-5.294,5.108-7.978,10.969-12.734c2.322-1.827,7.321-4.487,9.889-4.946l2.737-0.49c14.546-2.601,21.43,4.292,23.723,7.238
			c6.272,8.414,6.264,22.191-0.183,30.584c-1.718,2.249-3.978,4.421-6.502,6.107c-2.041,1.426-4.082,2.85-6.697,4.023l-0.655,0.293
			c-6.056,2.673-12.437,4.52-18.053,5.7l-0.342,0.062c-2.055,0.367-4.107,0.734-6.363,0.961c-0.342,0.062-1.026,0.184-1.57,0.104
			c-0.514,0.092-1.027,0.184-1.712,0.307l-0.513,0.092c-1.198,0.214-1.106,0.727-1.063,1.955c1.041,5.818,3.438,10.335,7.362,13.519
			c3.955,3.355,9.004,4.925,14.804,4.771c1.4-0.074,2.8-0.148,4.169-0.393c5.647-1.01,11.251-3.247,15.321-7.153
			c5.316-4.836,7.798-7.753,10.394-12.984c0.391-0.776,0.812-1.382,1.032-2.128c0.281-0.403,0.562-0.808,0.813-1.381
			c1.062-1.957,2.095-4.084,2.876-5.637c0.361-0.947,0.893-1.926,1.223-3.044c0.642-1.352,1.282-2.701,1.784-3.851l0.22-0.746
			c0.86-2.097,1.612-3.821,2.657-4.891c1.216-1.1,2.615-1.174,4.572-0.11C565.277,354.345,566.036,355.621,566.141,357.193z
			 M500.275,346.365c-2.255,5.171-3.659,12.134-3.426,17.389c0.092,0.514,0.153,0.855,0.557,1.138c0.201,0.14,0.575,0.25,1.32,0.47
			c2.598-0.288,5.055-0.374,7.793-0.864l0.513-0.092c4.963-0.887,9.944-2.66,13.275-3.786c5.463-2.036,9.716-4.915,12.466-9.293
			c1.827-2.622,2.487-4.859,2.541-7.518c0.067-1.602-0.037-3.172-0.515-4.854c-0.845-3.733-3.308-6.648-5.154-8.084
			c-2.249-1.717-5.031-2.457-8.172-2.248c-0.887-0.019-2.085,0.195-2.94,0.349c-4.963,0.887-8.935,3.364-12.772,7.582
			c-2.48,2.916-4.124,6.564-5.517,9.641L500.275,346.365z"/>
		<path d="M595.563,370.651c-3.12,14.156-10.713,31.938-26.551,51.017c-30.833,36.948-94.046,54.785-169.097,47.896
			c-73.792-6.763-174.806,16.951-215.908,50.79c-0.623,0.465-1.931,1.052-3.526-0.959l-2.324-3.117
			c-1.999-2.292-0.893-3.019-0.44-3.453c21.711-17.833,58.001-33.152,102.159-42.99c41.731-9.58,85.791-13.044,120.985-9.8
			c71.786,6.414,131.87-10.157,160.675-44.623c5.805-7.042,11.145-14.708,15.507-22.905c3.47-6.271,6.305-13.136,8.253-20.019
			c0.158-1.087,0.489-2.206,0.818-3.325c1.136-5.502,1.898-11.112,0.748-16.559c-0.6-2.364-1.34-4.527-2.299-5.945
			c-1.657-2.353-4.671-3.402-7.55-2.712c-3.594,0.643-5.75,4.384-8.615,11.076c-0.329,1.119-0.69,2.067-1.081,2.844
			c-1.313,2.53-3.787,8.446-4.288,9.596c-0.471,1.32-3.257,7.47-4.13,8.509c-0.813,1.382-4.229,0.05-5.349-0.279
			c-1.895-0.722-3.228-2.249-2.507-4.144c0.88-2.982,1.723-4.193,2.584-6.29c0.392-0.776,1.283-2.701,1.644-3.648
			c0.25-0.575,1.723-4.194,2.944-7.238c0.22-0.746,2.395-5.372,2.865-6.693c3.488-7.158,10.094-16.639,23.144-12.79
			c5.966,1.758,10.349,7.509,12.16,15.661C597.534,355.995,597.188,362.945,595.563,370.651z"/>
	</g>
	<g class="shipshape_logo-text--hip">
		<path d="M348.925,263.905c0.117,2.628-1.245,5.875-2.216,8.343c-0.422,0.605-0.642,1.351-0.752,1.724
			c-0.831,2.269-2.004,4.598-3.006,6.896c-0.25,0.575-0.672,1.18-0.922,1.754c-2.456,5.03-5.084,10.093-8.346,14.561
			c-3.232,4.64-7.26,9.774-12.943,12.557c-4.407,2.023-10.054,3.033-14.492-0.058c-3.197-2.077-4.634-5.176-5.447-8.739
			c-1.579-7.841,1.187-18.049,2.17-24.405c2.075-13.086,4.486-29.236,4.553-30.837c0.195-2.86-0.545-5.023-2.019-6.349
			c-1.705-1.637-4.627-2.176-8.05-1.563c-0.171,0.03-0.514,0.092-0.685,0.122c-3.05,0.722-5.494,1.865-7.192,3.23
			c-4.131,3.563-6.722,6.853-9.02,10.794c-4.704,8.259-8.217,18.247-10.817,30.368c-1.576,6.992-2.949,14.125-4.151,21.228
			c-0.409,1.662-0.647,3.294-0.886,4.926c0.013,1.058-0.176,1.975-0.335,3.062c-0.488,2.208-0.977,4.413-1.747,7.024
			c-0.36,0.947-0.953,1.583-1.979,1.766c-2.567,0.459-4.993,0.716-7.964,0.895c-0.342,0.062-0.714-0.049-0.917-0.189
			c-0.031-0.171-0.263-0.482-0.153-0.855c0.018-0.886,0.097-1.431,0.176-1.974c0.758-3.669,2.461-11.92,4.94-24.725
			c2.198-12.401,4.694-26.094,6.147-33.771c1.99-10.599,3.461-19.162,3.968-22.255c0.287-2.347,2.105-12.915,3.968-22.255
			c0.855-5.097,1.753-8.967,2.241-11.174c0.818-3.325,1.636-6.649,2.345-9.602c0.409-1.663,1.625-2.763,3.336-3.068l0.171-0.031
			c1.541-0.275,3.283-0.411,4.915-0.172l0.171-0.031c0.373,0.11,0.917,0.189,1.289,0.298c0.979,0.532,1.211,0.844,0.85,1.791
			c-1.422,7.848-4.218,22.83-6.397,34.344l-0.507,3.093c-1.025,5.128-0.824,5.27-1.171,7.274c-0.299,1.29-0.409,1.663-0.379,1.833
			l-0.08,0.544l0.422-0.605l0.281-0.403c0.25-0.575,1.204-2.158,1.686-2.421c4.308-5.538,10.737-8.101,17.583-9.325
			c3.765-0.673,7.34-0.428,10.384,0.794c9.615,3.401,9.911,13.944,9.143,21.5c-0.561,5.751-2.289,16.832-3.509,24.821l-1.062,6.9
			c-0.396,2.721-1.232,6.932-1.415,10.849c-0.164,3.032,0.325,5.77,2.141,7.035c1.241,1.015,3.184,1.02,6.081-0.558
			c1.589-0.99,2.774-2.263,4.101-3.735c1.155-1.443,2.108-3.025,3.373-4.841c1.686-2.422,3.14-5.154,4.595-7.886
			c0.391-0.776,0.641-1.352,1.032-2.128l0.812-1.381c0.892-1.926,2.096-4.084,2.877-5.637c0.36-0.947,0.69-2.065,1.222-3.043
			c0.642-1.351,1.283-2.702,1.754-4.022l0.25-0.575c0.831-2.268,1.582-3.991,2.657-4.89c1.217-1.1,2.616-1.174,4.542-0.282
			C347.892,261.087,348.79,262.162,348.925,263.905z"/>
		<path d="M384.152,265.376c-0.392,0.776-0.642,1.351-0.722,1.895c-2.241,6.229-4.808,11.633-7.824,17.471
			c-2.848,5.806-7.204,12.06-13.139,15.417c-5.451,3.094-11.893,4.599-17.865-0.161c-5.973-4.761-6.769-14.155-5.939-21.366
			c1.006-9.188,2.557-18.295,4.357-27.976l0.788-3.497c1.373-7.133,3.218-15.585,5.104-22.811c0.109-0.374,0.22-0.746,0.33-1.118
			c0.049-0.715,0.237-1.632,0.599-2.579c0.109-0.374,0.562-0.807,2.272-1.113c0.856-0.153,2.085-0.196,3.312-0.239
			c0.716,0.048,1.229-0.043,1.742-0.135c0.514-0.092,1.027-0.184,1.914-0.165c0.543,0.079,0.916,0.188,0.947,0.359
			c0.201,0.141,0.293,0.654,0.214,1.198c-0.647,3.294-1.954,8.826-2.583,11.234c-1.337,5.36-6.008,28.624-6.96,35.152
			c-0.079,0.543-0.128,1.258-0.348,2.004l0.03,0.171c-0.317,2.176-0.635,4.353-0.982,6.357c-0.653,5.237-1.916,16.943,6.14,16.562
			c4.914-0.172,7.449-5.746,9.948-9.55c3.172-4.981,5.706-10.555,7.899-16.069c0.532-0.978,0.892-1.925,1.424-2.903
			c0.641-1.352,1.111-2.671,1.753-4.022l0.251-0.575c0.83-2.268,1.582-3.992,2.657-4.89c1.045-1.07,2.445-1.144,4.541-0.282
			c1.352,0.641,2.078,1.747,2.214,3.489C386.516,259.833,385.153,263.079,384.152,265.376z M365.624,199.285
			c1.278,4.187-1.068,8.845-5.254,10.124c-4.357,1.308-8.875-1.239-10.153-5.426c-1.309-4.357,1.067-8.845,5.425-10.154
			C359.828,192.551,364.315,194.929,365.624,199.285z"/>
		<path d="M462.549,243.589c0.116,2.629-1.246,5.875-2.217,8.343c-0.422,0.605-0.642,1.351-0.751,1.724
			c-0.801,2.44-1.833,4.567-3.006,6.896c-0.25,0.575-0.501,1.149-0.923,1.754c-3.177,6.926-7.533,13.18-11.933,18.205
			c-7.333,8.375-17.423,13.181-24.952,14.527c-6.332,1.132-14.234,2.369-20.573,0.5c-4.816-1.259-8.289-4.875-9.83-9.545
			c-0.324-0.825-0.477-1.681,0.599-2.579c0.312-0.232,0.593-0.636,0.904-0.868c0.141-0.202,0.28-0.403,0.422-0.605l0.28-0.403
			c0.312-0.232,0.594-0.636,1.076-0.899c0.593-0.636,1.075-0.899,1.589-0.991c0.855-0.153,1.491,0.44,2.359,1.344
			c0.232,0.312,0.495,0.794,0.728,1.106l0.435,0.452c1.889,2.664,4.56,3.775,7.5,3.427c17.858-2.84,21.508-27.864,22.22-42.648
			c0.304-8.178,1.18-25.994-10.988-22.936c-6.753,1.737-14.116,9.94-17.446,16.011c-3.69,7.017-5.298,8.895-8.626,19.908
			c-0.879,2.984-2.588,13.179-3.064,16.442c-0.568,2.75-1.136,5.501-1.703,8.252c-0.396,2.719-0.965,5.47-1.532,8.22l-0.886,4.927
			c-1.453,7.676-2.875,15.525-4.127,23.343c-0.646,3.294-1.386,6.075-1.831,9.511c-0.097,1.429-0.415,3.605-0.824,5.268
			c-0.439,1.491-0.86,2.096-1.918,2.108c-0.171,0.03-0.343,0.062-0.514,0.092c-1.54,0.275-5.959,1.242-7.793,0.864l-0.201-0.141
			l-0.202-0.141c-0.495-0.795,1.794-12.683,1.764-12.854c1.294-6.589,2.527-13.52,3.479-20.048c0.744-4.725,1.63-9.652,2.374-14.375
			c0.965-5.47,1.93-10.942,2.894-16.411c0.823-5.27,1.789-10.739,2.753-16.21c2.686-14.608,3.809-21.167,5.708-32.279
			c0.158-1.088,1.043-6.014,1.453-7.676c0.109-0.374,0.391-0.776,0.874-1.039c0.312-0.233,0.824-0.325,1.509-0.447
			c1.369-0.245,7.108-0.741,7.805,0.194c0.232,0.312,0.294,0.654,0.214,1.198c-0.066,1.601-0.555,3.807-0.872,5.983
			c-0.519,2.037-0.695,4.011-0.823,5.27l-0.141,0.201c0.171-0.03,0.171-0.03,0.141-0.201c1.545-2.219,3.514-5.043,5.352-6.61
			c5.317-4.834,10.457-7.696,15.933-8.676c2.255-0.227,4.229-0.05,6.234,0.298c8.362,1.33,12.525,7.827,14.416,15.436
			c2.195,9.32,1.245,20.792-0.129,27.925c-1.709,10.196-3.32,18.961-9.534,27.666c0.825-0.324,1.649-0.648,2.242-1.284
			c4.021-3.191,7.046-6.028,9.979-9.378c2.31-2.886,4.588-5.942,6.574-9.652c0.391-0.776,0.812-1.382,1.032-2.127l0.812-1.381
			c1.062-1.957,2.096-4.084,2.878-5.637c0.36-0.947,0.861-2.096,1.222-3.043c0.641-1.352,1.283-2.702,1.784-3.852l0.22-0.746
			c1.032-2.127,1.612-3.821,2.657-4.89c1.217-1.101,2.616-1.174,4.541-0.282C461.515,240.771,462.444,242.018,462.549,243.589z"/>
	</g>
	<g class="shipshape_logo-text--S">
		<path d="M197.938,355.05c-6.662-15.438-15.86-29.935-25.058-44.431c-0.833-1.559-2.318-3.045-3.477-4.567
			c-0.797-1.232-2.101-1.088-3.405-0.944c-10.798,0.867-21.451,0.065-31.921-2.077c-9.492-2.248-16.086-5.15-24.599-10.479
			c-21.989-13.74-33.246-46.826-25.411-71.46c1.451-4.783,3.953-9.021,6.816-12.971c2.863-3.948,7.394-4.78,11.669-4.923
			c1.631-0.181,3.261-0.361,4.928-0.216c1.667,0.146,2.029,0.435,1.195,1.848c-1.378,2.464-2.792,4.602-3.843,7.028
			c-4.134,7.391-6.528,15.579-6.567,24.166c0.137,25.074,17.448,47.254,43.245,50.669c4.021,0.545,12.101,1.961,16.34,1.492
			c0,0-0.506-1.595-0.977-2.863c-2.063-3.732-6.662-12.466-8.437-16.562c-5.973-15.184-8.794-31.706-5.636-47.902
			c3.049-14.202,9.72-25.505,21.282-34.378c13.047-10.358,32.071-14.447,48.593-11.324c22.572,4.103,36.188,25.703,36.615,47.443
			c0.144,4.274-0.365,8.623-0.875,12.97c-4.866,30.58-27.013,54.161-55.931,64.295c-0.979,0.108-2.537,0.941-2.139,1.558
			c0.471,1.268,2.933,5.617,2.969,5.943c7.605,12.031,13.797,23.231,19.554,36.458c3.982,9.133,8.291,18.228,10.026,27.939
			c3.87,20.038,0.349,38.915-8.97,56.123c-16.896,32.242-54.837,44.366-88.168,32.543c-23.042-8.342-37.6-29.508-38.315-53.857
			c-0.541-7.863,1.273-15.327,4.138-22.246c6.528-15.577,25.374-27.238,41.313-20.421c2.065,0.763,3.514,1.921,4.673,3.444
			c3.405,3.914-2.866,9.891-5.548,12.498c-0.58,0.725-3.841,1.086-4.856,0.868c-7.027-3.843-15.871,2.748-18.446,9.305
			c-2.104,4.855-2.54,9.855-2.615,15.146c0.071,3.624,0.469,7.21,1.156,10.436c5.21,20.22,26.114,30.12,45.571,29.945
			c37.611-0.204,54.036-30.743,51.836-62.521C204.018,374.184,201.485,363.238,197.938,355.05z M167.243,265.687
			c1.774,4.095,8.87,20.475,13.726,19.607c6.16-1.013,11.85-3.293,17.141-6.19c25.622-13.07,37.696-38.176,31.257-66.513
			c-3.509-16.777-22.384-23.271-35.646-20.811c-8.733,1.627-15.619,5.03-21.563,10.972c-10.693,10.757-13.161,24.235-12.006,37.642
			C161.089,248.872,163.623,256.844,167.243,265.687z"/>
	</g>
	<g class="shipshape_logo-ship">
		<g>
			<path d="M486.675,291.194c2.169-0.037,3.897-1.83,3.852-3.996c-0.002-0.233,0.18-0.417,0.409-0.422
				c0.034-0.001,0.062,0.005,0.096,0.01c0.224-0.062,0.504,0.132,0.51,0.395c0.045,2.171,1.838,3.898,4.012,3.861
				c2.17-0.037,3.894-1.832,3.851-3.996c-0.002-0.233,0.179-0.417,0.407-0.424c0.034,0,0.065,0.006,0.092,0.01
				c0.03-0.007,0.056-0.013,0.098-0.013c0.223-0.003,0.415,0.177,0.419,0.408c0.043,2.158,1.838,3.891,3.997,3.859
				c2.157-0.042,3.882-1.838,3.836-3.998c-0.001-0.231,0.183-0.417,0.411-0.421c0.034,0,0.062,0.003,0.092,0.01
				c0.229-0.064,0.513,0.131,0.52,0.392c0.045,2.17,1.84,3.901,4.006,3.866c2.168-0.04,3.891-1.833,3.848-3.999
				c-0.004-0.233,0.18-0.418,0.407-0.424c0.038,0,0.066,0.005,0.097,0.013c0.024-0.008,0.059-0.013,0.093-0.015
				c0.23-0.005,0.422,0.173,0.427,0.406c0.042,2.169,1.838,3.899,4.009,3.861c2.161-0.035,3.889-1.83,3.85-3.997
				c-0.003-0.23,0.179-0.417,0.405-0.421c0.035,0,0.068,0.003,0.094,0.009c0.227-0.065,0.511,0.13,0.517,0.396
				c0.042,2.161,1.837,3.892,3.991,3.859c2.161-0.041,3.882-1.84,3.843-3.998c-0.007-0.228,0.176-0.417,0.404-0.424
				c0.032-0.001,0.065,0.007,0.094,0.012c0.23-0.062,0.516,0.133,0.516,0.393c0.042,2.172,1.838,3.901,4.008,3.864
				c2.169-0.04,3.894-1.835,3.853-3.999c-0.005-0.233,0.18-0.417,0.407-0.422c0.031,0,0.068,0.005,0.092,0.012
				c0.028-0.01,0.062-0.013,0.094-0.013c0.23-0.004,0.425,0.177,0.426,0.406c0.046,2.167,1.838,3.899,4.009,3.861
				c2.166-0.038,3.897-1.833,3.852-3.998c-0.001-0.231,0.181-0.417,0.412-0.424c0.031,0,0.059,0.007,0.09,0.013
				c0.025-0.01,0.057-0.016,0.091-0.016c0.23-0.003,0.423,0.178,0.427,0.408c0.043,2.158,1.833,3.895,3.99,3.862
				c2.161-0.044,3.886-1.839,3.842-3.997c-0.008-0.231,0.174-0.419,0.402-0.42c0.034,0,0.068,0.001,0.093,0.01
				c0.227-0.068,0.516,0.127,0.519,0.392c0.043,2.167,1.842,3.9,4.008,3.862c0.229-0.003,0.421,0.179,0.422,0.411
				c0.006,0.229-0.175,0.417-0.404,0.418c-1.979,0.037-3.764-1.17-4.495-2.955c-0.653,1.766-2.324,3.02-4.256,3.105l-0.003,0.006
				l-0.25,0.003l-0.01-0.003c-1.912-0.029-3.625-1.225-4.338-2.96c-0.669,1.813-2.402,3.083-4.382,3.116
				c-1.978,0.034-3.758-1.172-4.493-2.962c-0.67,1.814-2.402,3.081-4.382,3.114c-1.981,0.036-3.759-1.171-4.501-2.958
				c-0.653,1.784-2.348,3.041-4.293,3.11l-0.208,0.006l-0.003-0.003c-1.913-0.029-3.624-1.223-4.336-2.96
				c-0.67,1.814-2.397,3.079-4.378,3.114c-1.984,0.039-3.765-1.17-4.501-2.957c-0.674,1.812-2.4,3.078-4.379,3.115
				c-1.982,0.034-3.768-1.171-4.503-2.962c-0.655,1.774-2.337,3.035-4.272,3.109l-0.007,0.006l-0.228,0.003v-0.003
				c-1.912-0.031-3.625-1.227-4.338-2.96c-0.668,1.811-2.397,3.081-4.379,3.114c-1.979,0.036-3.766-1.173-4.504-2.96
				c-0.659,1.812-2.395,3.078-4.376,3.114c-0.229,0.003-0.419-0.175-0.419-0.409C486.264,291.387,486.441,291.201,486.675,291.194z"
				/>
		</g>
		<g>
			<path d="M471.541,268.355c0.108-0.173,0.344-0.286,0.644-0.292h0.008l30.546,0.604
				c0.244-0.055,0.545-0.125,0.619-0.132l13.618-3.92l0.044-0.01l41.17,1.875c0.367,0.013-4.869-0.45,0,0l0.071,3.375l6.672,0.042
				c0.209,0,0.408,0.075,0.53,0.192c0.129,0.123,0.164,0.28,0.108,0.427l-5.271,14.086c0.707-0.533,1.104-1.242,1.092-1.984
				c-0.004-0.164,0.177-0.302,0.404-0.305c0.039,0,0.07,0.002,0.098,0.006c0.229-0.051,0.51,0.093,0.514,0.281
				c0.031,1.551,1.818,2.782,3.986,2.743c0.224-0.002,0.417,0.125,0.421,0.292c0.003,0.167-0.182,0.302-0.409,0.309
				c-1.983,0.035-3.755-0.824-4.484-2.097c-0.363,0.709-1.063,1.319-1.984,1.729l-0.196,0.526l-0.283-0.281
				c-0.018-0.02-0.032-0.036-0.047-0.05c-0.57,0.188-1.159,0.297-1.756,0.316l-0.004,0.008l-0.25,0.005v-0.007
				c-1.915-0.012-3.617-0.86-4.323-2.096c-0.678,1.3-2.418,2.219-4.399,2.255c-1.977,0.033-3.751-0.827-4.479-2.103
				c-0.677,1.302-2.411,2.224-4.395,2.255c-1.98,0.032-3.75-0.824-4.482-2.101c-0.665,1.282-2.367,2.191-4.312,2.249l-0.21,0.01
				v-0.01c-1.912-0.01-3.618-0.854-4.323-2.093c-0.677,1.3-2.414,2.218-4.396,2.253c-1.976,0.034-3.758-0.82-4.484-2.1
				c-0.677,1.3-2.411,2.219-4.393,2.254c-1.979,0.036-3.758-0.823-4.482-2.1c-0.665,1.276-2.357,2.186-4.289,2.246l-0.005,0.008
				h-0.231v-0.001c-1.912-0.013-3.615-0.862-4.319-2.098c-0.642,1.226-2.223,2.116-4.086,2.229c-0.1,0.041-0.217,0.041-0.255,0.043
				c-0.201,0.003-0.443-0.037-0.443-0.037c-1.824-0.072-3.413-0.904-4.095-2.083c-0.679,1.305-2.412,2.224-4.398,2.255
				c-0.229,0.006-0.417-0.125-0.417-0.289c-0.004-0.167,0.175-0.305,0.405-0.307c2.173-0.039,3.907-1.334,3.875-2.882
				c0-0.07,0.029-0.135,0.088-0.186l-18.892-14.772C471.464,268.747,471.416,268.54,471.541,268.355z M552.001,269.585l-0.058-2.805
				l-34.798-1.186l-9.823,3.08L552.001,269.585z M491.617,284.508c0.329,0.888,1.234,1.603,2.439,1.906L491.617,284.508z"/>
		</g>
		<g>
			<path d="M544.681,263.196l-23.097-1.201c-0.462-0.035-0.81-0.449-0.821-0.965l-1.514-76.741
				c-0.007-0.352,0.149-0.684,0.424-0.86c0.265-0.179,0.617-0.188,0.885-0.013c0.265,0.164,11.743,14.424,19.193,26.398
				c7.089,11.394,13.057,21.572,31.36,55.61C571.078,265.933,545.142,263.189,544.681,263.196z"/>
		</g>
		<g>
			<path d="M517.82,261.593l-21.021,0.842h-0.013c-0.384,0.006-0.7-0.302-0.71-0.685
				c-0.001-0.154,0.048-0.305,0.139-0.426l19.999-48.105c0.127-0.299,0.452-0.478,0.769-0.411c0.318,0.059,0.554,0.34,0.563,0.666
				l0.938,47.419C518.489,261.266,518.193,261.584,517.82,261.593z"/>
		</g>
		<g>
			<path d="M493.377,262.492l-14.438-0.558l-0.008-0.003c-0.261-0.013-0.53-0.446-0.448-0.298
				c0.979,1.926,0.046-0.116,0.111-0.166l25.71-30.078c0.262-0.312,0.709-0.48,1.045-0.397c0.335,0.075,0.481,0.384,0.352,0.721
				l-11.748,30.529C493.895,262.386,493.638,262.5,493.377,262.492z"/>
		</g>
		<g display="none" opacity="0.8">
			<g display="inline">
				<g>
					<path d="M497.785,291.815c1.463-0.026,2.007,0.452,1.212,1.069c-0.084,0.066-0.026,0.114,0.129,0.114
						c0.025,0,0.045-0.003,0.065-0.005c0.131,0.015,0.395-0.046,0.491-0.122c0.794-0.615,2.631-1.138,4.097-1.161
						c1.459-0.025,2.004,0.453,1.207,1.069c-0.082,0.064-0.023,0.116,0.133,0.111c0.021,0,0.043,0,0.063-0.001
						c0.016,0.001,0.036,0.001,0.057,0.001c0.155-0.001,0.351-0.056,0.437-0.12c0.792-0.613,2.625-1.139,4.084-1.166
						c1.456-0.023,1.992,0.458,1.202,1.07c-0.085,0.067-0.025,0.118,0.132,0.115c0.021-0.003,0.042-0.003,0.064-0.005
						c0.129,0.018,0.393-0.046,0.49-0.121c0.793-0.617,2.63-1.136,4.093-1.162c1.467-0.025,2.007,0.451,1.209,1.072
						c-0.082,0.064-0.021,0.112,0.128,0.112c0.024-0.003,0.05-0.004,0.067-0.006c0.018,0.001,0.043,0.001,0.062,0.001
						c0.151-0.001,0.348-0.057,0.435-0.124c0.792-0.617,2.632-1.135,4.091-1.161c1.46-0.026,2.006,0.454,1.213,1.069
						c-0.086,0.064-0.026,0.114,0.13,0.114c0.021,0,0.045-0.003,0.065-0.006c0.131,0.016,0.396-0.045,0.494-0.119
						c0.788-0.613,2.619-1.134,4.078-1.162c1.456-0.026,1.998,0.459,1.203,1.069c-0.083,0.065-0.025,0.117,0.128,0.116
						c0.023-0.003,0.05-0.005,0.067-0.007c0.134,0.015,0.395-0.044,0.491-0.122c0.798-0.613,2.631-1.133,4.091-1.161
						c1.464-0.024,2.009,0.455,1.216,1.069c-0.088,0.066-0.03,0.114,0.125,0.114c0.026,0,0.046,0,0.066-0.004
						c0.017,0,0.038,0.004,0.062,0.004c0.155-0.007,0.351-0.061,0.435-0.125c0.791-0.616,2.627-1.137,4.091-1.163
						c1.46-0.025,2.003,0.453,1.212,1.073c-0.084,0.063-0.025,0.114,0.127,0.109c0.025,0,0.047-0.001,0.069-0.001
						c0.014,0,0.036,0,0.058,0c0.155,0,0.352-0.058,0.435-0.121c0.791-0.615,2.625-1.133,4.08-1.162
						c1.459-0.025,1.993,0.456,1.205,1.069c-0.087,0.067-0.028,0.115,0.128,0.112c0.021,0,0.042,0,0.065-0.006
						c0.13,0.019,0.393-0.045,0.491-0.119c0.793-0.615,2.629-1.135,4.094-1.161c0.154-0.004,0.348-0.057,0.432-0.123
						c0.088-0.066,0.03-0.118-0.131-0.115c-1.336,0.024-2.97,0.396-4.105,0.915c0.181-0.492-0.518-0.819-1.799-0.809v-0.003
						l-0.166,0.003l-0.008,0.003c-1.314,0.039-2.9,0.41-4.003,0.912c0.188-0.503-0.543-0.834-1.884-0.812
						c-1.332,0.024-2.973,0.395-4.105,0.917c0.187-0.506-0.549-0.837-1.886-0.811c-1.333,0.022-2.97,0.395-4.11,0.915
						c0.183-0.495-0.526-0.827-1.827-0.812h-0.136l-0.003,0.003c-1.315,0.041-2.9,0.407-4.001,0.912
						c0.185-0.504-0.544-0.833-1.88-0.812c-1.337,0.026-2.978,0.396-4.112,0.917c0.186-0.502-0.548-0.833-1.884-0.811
						c-1.336,0.024-2.979,0.395-4.111,0.916c0.184-0.491-0.521-0.82-1.807-0.81l-0.005-0.002l-0.156,0.004l-0.004,0.001
						c-1.306,0.037-2.896,0.408-3.997,0.911c0.185-0.502-0.544-0.833-1.881-0.811c-1.336,0.022-2.981,0.395-4.115,0.915
						c0.191-0.504-0.543-0.834-1.881-0.809c-0.152,0.001-0.345,0.057-0.433,0.122C497.572,291.766,497.627,291.817,497.785,291.815z
						"/>
				</g>
				<g>
					<path d="M479.408,298.55c0.012,0.048,0.136,0.077,0.337,0.072h0.003l21.018-0.679
						c0.146,0.008,0.326,0.023,0.378,0.023l7.89,0.886l0.023,0.003l28.708-1.22c0.247-0.01-3.481,0.208,0,0l1.235-0.96l4.562-0.122
						c0.141-0.001,0.302-0.025,0.429-0.064c0.131-0.036,0.208-0.081,0.225-0.122l1.39-3.911c0.291,0.142,0.308,0.337,0.039,0.544
						c-0.063,0.046,0.015,0.082,0.167,0.082c0.024,0,0.048,0,0.07-0.003c0.136,0.01,0.379-0.036,0.446-0.09
						c0.569-0.438,2.227-0.819,3.686-0.845c0.155,0,0.327-0.043,0.393-0.089c0.058-0.048-0.019-0.084-0.175-0.081
						c-1.335,0.024-2.844,0.297-3.794,0.67c0.004-0.194-0.254-0.355-0.74-0.458l0.054-0.147l-0.289,0.086
						c-0.023,0.007-0.038,0.01-0.051,0.013c-0.319-0.043-0.685-0.063-1.088-0.061l0.004-0.002l-0.166,0.005l-0.008,0.002
						c-1.306,0.037-2.766,0.303-3.687,0.666c0-0.356-0.86-0.59-2.196-0.566c-1.335,0.024-2.847,0.299-3.79,0.672
						c-0.005-0.359-0.863-0.588-2.203-0.568c-1.332,0.024-2.845,0.299-3.79,0.671c-0.004-0.35-0.839-0.582-2.147-0.565h-0.137l0,0
						c-1.309,0.037-2.767,0.305-3.687,0.668c-0.004-0.357-0.864-0.588-2.2-0.567c-1.335,0.024-2.852,0.3-3.791,0.673
						c-0.004-0.356-0.864-0.591-2.2-0.565c-1.338,0.022-2.853,0.295-3.793,0.671c-0.005-0.354-0.833-0.583-2.129-0.57l0,0
						l-0.16,0.005l0,0c-1.305,0.035-2.765,0.306-3.681,0.667c-0.006-0.336-0.771-0.557-1.994-0.563
						c-0.057-0.007-0.132-0.007-0.161-0.007c-0.134,0-0.314,0.016-0.314,0.016c-1.269,0.051-2.644,0.313-3.527,0.662
						c0.006-0.361-0.854-0.591-2.192-0.57c-0.157,0.005-0.328,0.043-0.394,0.09c-0.06,0.046,0.016,0.085,0.17,0.082
						c1.468-0.025,2.191,0.312,1.625,0.753c-0.026,0.021-0.03,0.039-0.011,0.051l-18.088,4.508
						C479.498,298.44,479.39,298.502,479.408,298.55z M534.642,296.858l-1.025,0.8l-24.121,0.915l-5.604-0.71L534.642,296.858z
						 M498.793,293.631c0.533-0.258,1.402-0.475,2.331-0.584L498.793,293.631z"/>
				</g>
				<g>
					<path d="M527.399,298.794l-16.155,0.729c-0.325,0.016-0.713,0.139-0.899,0.284l-28.148,21.811
						c-0.126,0.101-0.135,0.19-0.018,0.234c0.122,0.046,0.354,0.045,0.601-0.011c0.242-0.051,13.095-4.288,22.399-7.812
						c8.853-3.352,16.516-6.341,41.008-16.308C546.347,297.578,527.71,298.791,527.399,298.794z"/>
				</g>
				<g>
					<path d="M508.544,299.697l-14.021,0.112l-0.012,0.003c-0.258,0.001-0.588,0.093-0.723,0.204
						c-0.058,0.043-0.073,0.084-0.059,0.117l-3.375,13.323c-0.021,0.083,0.137,0.127,0.379,0.105
						c0.236-0.025,0.496-0.106,0.614-0.201l17.396-13.474C508.879,299.78,508.786,299.693,508.544,299.697z"/>
				</g>
				<g>
					<path d="M492.213,299.851l-10.039,0.398h-0.004c-0.182,0.008-0.515,0.135-0.411,0.093
						c1.348-0.565-0.008,0.035,0.021,0.044l6.878,8.109c0.07,0.085,0.315,0.124,0.578,0.096c0.253-0.027,0.462-0.117,0.493-0.21
						l2.783-8.471C492.524,299.872,492.39,299.841,492.213,299.851z"/>
				</g>
			</g>
		</g>
		<polygon points="491.255,266.869 497.554,263.456 517.447,264.596 509.344,266.553 		"/>
	</g>
</g>
</svg>
