<?xml version="1.0" encoding="utf-8"?>
<!-- Generator: Adobe Illustrator 16.0.0, SVG Export Plug-In . SVG Version: 6.00 Build 0)  -->
<!DOCTYPE svg PUBLIC "-//W3C//DTD SVG 1.1//EN" "http://www.w3.org/Graphics/SVG/1.1/DTD/svg11.dtd">
<svg version="1.1" xmlns="http://www.w3.org/2000/svg" xmlns:xlink="http://www.w3.org/1999/xlink" x="0px" y="0px" width="720px"
	 height="232px" viewBox="0 0 720 232" enable-background="new 0 0 720 232" xml:space="preserve">
<g id="Layer_1">
	<g>
		<path fill="#5F888B" d="M284.634,98.086h-26.543V84.324h69.249v13.763h-26.409v78.095h-16.297V98.086z"/>
		<path fill="#5F888B" d="M325.878,107.218h13.344l1.119,12.216h0.567c4.916-8.988,12.221-13.902,19.524-13.902
			c3.507,0,5.755,0.42,7.864,1.408l-2.81,14.043c-2.387-0.703-4.215-1.125-7.164-1.125c-5.476,0-12.079,3.793-16.295,14.185v42.14
			h-16.151L325.878,107.218L325.878,107.218z"/>
		<path fill="#5F888B" d="M412.4,132.078c-0.143-7.305-3.231-13.482-12.501-13.482c-6.884,0-13.348,3.088-19.382,6.739
			l-5.901-10.817c7.584-4.771,17.276-8.987,28.231-8.987c17.275,0,25.703,10.536,25.703,29.779v40.871h-13.204l-1.259-7.586h-0.426
			c-6.18,5.198-13.204,9.27-21.348,9.27c-12.08,0-20.513-8.143-20.513-20.227C371.805,142.895,384.17,135.167,412.4,132.078z
			 M397.373,165.225c5.616,0,9.972-2.808,15.027-7.586v-15.449c-18.68,2.39-24.859,7.306-24.859,14.188
			C387.541,162.557,391.607,165.225,397.373,165.225z"/>
		<path fill="#5F888B" d="M433.177,107.218h16.435l10.954,35.816c1.826,6.739,3.935,13.763,5.758,20.786h0.564
			c1.96-7.023,3.933-14.047,5.896-20.786l10.958-35.816h15.59l-23.454,68.964h-18.682L433.177,107.218z"/>
		<path fill="#5F888B" d="M505.384,86.007c0-5.477,4.216-9.272,9.972-9.272c5.765,0,9.973,3.796,9.973,9.272
			c0,5.335-4.208,9.132-9.973,9.132C509.6,95.14,505.384,91.343,505.384,86.007z M507.211,107.218h16.156v68.964h-16.156V107.218z"
			/>
		<path fill="#5F888B" d="M540.206,157.922c6.176,4.775,12.08,7.729,19.104,7.729c7.443,0,10.951-3.512,10.951-8.287
			c0-5.76-7.442-8.288-14.747-11.098c-9.133-3.371-19.384-8.566-19.384-20.082c0-12.083,9.691-20.651,25.14-20.651
			c9.552,0,17.279,3.928,22.898,8.288l-7.442,9.833c-4.775-3.512-9.69-5.899-15.169-5.899c-6.884,0-10.119,3.231-10.119,7.584
			c0,5.335,6.885,7.587,14.328,10.255c9.411,3.508,19.804,8.004,19.804,20.928c0,11.797-9.407,21.348-26.822,21.348
			c-9.412,0-19.385-4.07-26.124-9.551L540.206,157.922z"/>
		<path fill="#5F888B" d="M664.793,82.639c11.235,0,20.363,5.477,26.124,11.656l-8.988,10.108
			c-4.774-4.628-9.972-7.579-16.995-7.579c-15.027,0-25.844,12.635-25.844,33.287c0,20.928,9.969,33.572,25.279,33.572
			c8.146,0,14.188-3.375,19.383-9.133l8.987,9.971c-7.442,8.572-16.994,13.344-28.65,13.344c-23.313,0-41.715-16.855-41.715-47.33
			C622.374,100.474,641.193,82.639,664.793,82.639z"/>
		<path fill="#5F888B" d="M702.704,84.324H719v91.857h-16.296V84.324z"/>
	</g>
	<g>
		<path fill="#FFFFFF" d="M163.518,131.626c0.024,1.401-1.089,2.556-2.49,2.584c-1.401,0.024-2.562-1.095-2.581-2.492
			c-0.029-1.401,1.086-2.56,2.486-2.584C162.34,129.104,163.498,130.225,163.518,131.626z"/>
		<path fill="#FFFFFF" d="M92.362,133.492c0.035,1.396-1.07,2.564-2.467,2.601c-1.407,0.04-2.575-1.063-2.614-2.471
			c-0.035-1.397,1.068-2.571,2.476-2.601C91.152,130.982,92.323,132.086,92.362,133.492z"/>
		<path fill="#FFFFFF" d="M64.104,173.65c-0.118,0.02-0.236,0.035-0.354,0.035c0.001,0,0.002,0,0.003,0
			C63.865,173.686,63.984,173.67,64.104,173.65z"/>
		<path fill="#FFFFFF" d="M53.321,166.736c0.043,0.129,0.089,0.252,0.131,0.379c-0.041-0.124-0.086-0.248-0.124-0.373
			L53.321,166.736z"/>
		<polygon fill="#FFFFFF" points="61.003,172.122 62.826,173.395 61.003,172.116 55.535,168.288 55.535,168.292 		"/>
		<path fill="#FFFFFF" d="M198.125,168.553c0.205-0.589,0.409-1.178,0.607-1.775C198.532,167.373,198.33,167.964,198.125,168.553z"
			/>
		<path fill="#FFFFFF" d="M188.788,168.953c-0.098,0.007-0.194,0.005-0.289-0.008C188.595,168.958,188.69,168.96,188.788,168.953z"
			/>
		<path fill="#DFC78B" d="M205.661,93.444C205.721,93.472,205.716,93.47,205.661,93.444L205.661,93.444z"/>
		<path fill="#DFC78B" d="M205.266,93.25c0.187,0.092,0.328,0.162,0.396,0.194C205.602,93.416,205.474,93.353,205.266,93.25z"/>
		<path fill="#DFC78B" d="M204.406,92.83c0.372,0.183,0.655,0.32,0.859,0.42C205.029,93.134,204.723,92.985,204.406,92.83z"/>
		<path fill="#DFC78B" d="M204.406,92.83c-0.019-0.009-0.035-0.018-0.054-0.026l0,0C204.371,92.812,204.389,92.821,204.406,92.83z"
			/>
		<path fill="#DFC78B" d="M162.795,51.025l-0.191-0.708c0.024,0.357,0.048,0.71,0.068,1.058L162.795,51.025z"/>
		<path fill="#DFC78B" d="M45.415,93.444C45.361,93.47,45.356,93.472,45.415,93.444L45.415,93.444z"/>
		<path fill="#DFC78B" d="M46.671,92.83c0.043-0.021,0.086-0.042,0.13-0.063l0,0C46.754,92.79,46.716,92.808,46.671,92.83z"/>
		<path fill="#DFC78B" d="M46.671,92.83c-0.318,0.155-0.623,0.304-0.859,0.42C46.015,93.15,46.297,93.013,46.671,92.83z"/>
		<path fill="#DFC78B" d="M45.812,93.25c-0.211,0.103-0.336,0.166-0.396,0.194C45.483,93.412,45.623,93.342,45.812,93.25z"/>
		<path fill="#DFE6E9" d="M149.597,100.985c-0.37,0.481-0.777,1.005-1.213,1.555c-2.239,2.828-5.34,6.438-9.013,9.979
			c-4.279-0.134-8.672-0.208-13.194-0.208c-7.474,0-14.64,0.197-21.444,0.524c9.618-3.986,21.167-7.884,33.677-10.222
			C142.06,101.921,145.798,101.366,149.597,100.985z"/>
		<path fill="#DFE6E9" d="M93.332,105.289c-3.437,2.412-7.309,5.487-11.068,9.221c-9.622,0.966-18.021,2.129-24.944,3.248
			C67.966,112.866,80.119,108.359,93.332,105.289z"/>
		<path fill="#DFE6E9" d="M210.924,125.158l-3.919,27.385l-18.754,13.141l-48.91-5.562l-7.359-24.248
			c-0.175-0.588-0.674-1.021-1.282-1.123c-1.812-0.293-3.412-0.437-4.75-0.437c-1.341,0-2.942,0.144-4.764,0.437
			c-0.601,0.104-1.096,0.535-1.279,1.123l-7.179,23.657l-48.634,10.822L44.82,156.852l-3.804-30.733
			c0.832-0.464,1.675-0.931,2.52-1.396c1.195-0.258,2.537-0.529,4.022-0.812l3.58,29.001c0.049,0.45,0.303,0.853,0.675,1.112
			l13.263,9.291c0.267,0.185,0.594,0.289,0.914,0.289c0.119,0,0.233-0.017,0.358-0.041l39.985-8.896
			c0.139-0.034,0.271-0.083,0.4-0.146c0.367-0.201,0.663-0.537,0.783-0.957l7.206-23.707c1.931-0.496,6.879-1.655,11.227-1.655
			c4.339,0,9.287,1.159,11.223,1.655l7.201,23.707c0.183,0.613,0.722,1.06,1.356,1.133l39.991,4.543
			c0.386,0.045,0.78-0.061,1.099-0.283l13.267-9.275c0.358-0.258,0.604-0.658,0.664-1.095l3.542-24.78
			C206.951,124.314,209.174,124.781,210.924,125.158z"/>
		<path fill="#DFE6E9" d="M215.861,107.983l-3.443,13.06c-7.041-1.555-22.503-4.601-43.551-6.652
			c6.874-2.932,13.877-6.606,20.275-11.207C201.667,104.952,210.863,106.854,215.861,107.983z"/>
		<path fill="#DFE6E9" d="M36.503,107.983l0.957,3.615c2.679-2.134,5.131-3.902,7.2-5.313
			C41.288,106.933,38.538,107.522,36.503,107.983z"/>
		<path fill="#A51E28" d="M182.942,101.466c-0.01-0.01-0.024-0.016-0.034-0.016c-2.309-0.172-4.615-0.328-6.923-0.478
			c2.308,0.15,4.614,0.307,6.923,0.483C182.923,101.456,182.933,101.461,182.942,101.466z"/>
		<path fill="#A51E28" d="M166.035,111.08c5.273-2.334,10.642-5.218,15.747-8.782C176.676,105.861,171.308,108.745,166.035,111.08z"
			/>
		<path fill="#3C5658" d="M171.542,100.698c-5.271-0.297-10.539-0.55-15.814-0.768c-0.302,0.451-0.925,1.356-1.816,2.576
			c-2.826,3.822-8.397,10.792-15.536,16.771c5.372-1.703,26.682-8.852,37.477-18.312
			C174.416,100.873,172.98,100.781,171.542,100.698z"/>
		<path fill="#A51E28" d="M111.588,105.537c-0.383,0.139-0.768,0.278-1.146,0.418C110.82,105.815,111.205,105.676,111.588,105.537z"
			/>
		<path fill="#A51E28" d="M114.025,104.676c-0.438,0.151-0.875,0.303-1.307,0.456C113.15,104.979,113.587,104.827,114.025,104.676z"
			/>
		<path fill="#A51E28" d="M109.23,106.407c-0.331,0.124-0.658,0.248-0.985,0.372C108.572,106.655,108.899,106.53,109.23,106.407z"/>
		<path fill="#A51E28" d="M106.944,107.282c-0.268,0.104-0.531,0.208-0.797,0.313C106.413,107.491,106.677,107.387,106.944,107.282z
			"/>
		<path fill="#A51E28" d="M116.612,103.803c-0.519,0.17-1.036,0.341-1.549,0.515C115.576,104.145,116.094,103.974,116.612,103.803z"
			/>
		<path fill="#A51E28" d="M125.445,101.154c-1.872,0.508-3.717,1.037-5.519,1.59C121.73,102.19,123.574,101.662,125.445,101.154z"/>
		<path fill="#A51E28" d="M119.927,102.744c-0.826,0.254-1.646,0.515-2.459,0.777C118.281,103.258,119.101,102.998,119.927,102.744z
			"/>
		<path fill="#A51E28" d="M102.573,109.048c-0.026,0.011-0.054,0.022-0.079,0.033C102.52,109.07,102.547,109.059,102.573,109.048z"
			/>
		<path fill="#A51E28" d="M104.724,108.165c-0.18,0.071-0.354,0.144-0.532,0.217C104.369,108.309,104.544,108.236,104.724,108.165z"
			/>
		<path fill="#3C5658" d="M132.919,99.307c0.008-0.002,0.016-0.003,0.023-0.005c-2.675-0.035-5.35-0.064-8.019-0.074h-0.005
			c-3.932,0.01-7.855,0.06-11.787,0.129l-7.25,3.437c-0.011,0-0.055,0.025-0.107,0.06c-1.091,0.53-10.608,5.333-19.569,13.901
			c0.784-0.413,1.615-0.841,2.471-1.275c4.901-3.293,17.972-11.091,38.296-16.231C128.955,99.261,130.938,99.273,132.919,99.307z"/>
		<path fill="#3C5658" d="M88.367,100.183c-3.357,0.155-6.715,0.327-10.069,0.516c-3.889,0.218-7.766,0.48-11.64,0.772
			c-1.932,0.148-3.867,0.313-5.783,0.515c-0.556,0.054-1.1,0.114-1.645,0.184c-5.062,3.025-24.436,15.188-37.747,31.105
			c0.229-0.275,0.466-0.549,0.701-0.822C46.827,111.43,73.845,103.246,88.367,100.183z"/>
		<path fill="#A51E28" d="M82.163,103.747c-26.62,7.875-48.152,20.821-60.68,29.528C34.015,124.566,55.543,111.621,82.163,103.747z"
			/>
		<path fill="#A51E28" d="M84.756,103c4.427-1.238,8.988-2.327,13.668-3.229c-0.011,0.001-0.021,0.001-0.031,0.001
			C93.729,100.678,89.173,101.761,84.756,103z"/>
		<path fill="#A51E28" d="M197.729,191.473c0,0-0.004,0.006-0.008,0.012c-0.001,0.002-0.002,0.002-0.003,0.004
			C197.721,191.48,197.725,191.479,197.729,191.473z"/>
		<path fill="#A51E28" d="M203.481,184.869c0.138-0.062,0.272-0.127,0.41-0.189C203.754,184.744,203.619,184.805,203.481,184.869z"
			/>
		<path fill="#A51E28" d="M204.403,184.439c0.084-0.039,0.167-0.078,0.251-0.117C204.57,184.361,204.487,184.4,204.403,184.439z"/>
		<path fill="#A51E28" d="M201.868,185.643c0.185-0.092,0.373-0.18,0.564-0.271C202.241,185.463,202.053,185.551,201.868,185.643z"
			/>
		<path fill="#A51E28" d="M201.146,185.996c0.194-0.096,0.396-0.193,0.598-0.293C201.539,185.803,201.341,185.9,201.146,185.996z"/>
		<path fill="#A51E28" d="M202.646,185.268c0.167-0.08,0.336-0.16,0.504-0.24C202.981,185.107,202.814,185.188,202.646,185.268z"/>
		<path fill="#A51E28" d="M199.858,186.645L199.858,186.645c0.043-0.021,0.085-0.045,0.129-0.065
			C199.945,186.6,199.9,186.623,199.858,186.645z"/>
		<path fill="#A51E28" d="M199.987,186.578c0.128-0.066,0.257-0.131,0.391-0.199C200.243,186.447,200.115,186.512,199.987,186.578z"
			/>
		<path fill="#A51E28" d="M200.378,186.379c0.229-0.115,0.462-0.23,0.706-0.352C200.84,186.148,200.604,186.264,200.378,186.379z"/>
		<polygon fill="#3C5658" points="140.782,37.728 146.354,37.728 146.354,26.407 140.271,26.407 129.257,26.407 105.61,26.407
			105.61,37.728 111.182,37.728 111.182,31.978 122.704,31.978 122.704,66.937 117.961,66.937 117.961,73.425 134.001,73.425
			134.001,66.937 129.257,66.937 129.257,31.978 140.782,31.978 		"/>
		<path fill="#88162B" d="M166.035,111.08c-10.724,4.748-21.054,7.218-27.972,8.462C144.981,118.3,155.311,115.829,166.035,111.08z"
			/>
		<path fill="#88162B" d="M138.375,119.277c-0.105,0.088-0.207,0.177-0.312,0.265C138.168,119.454,138.27,119.365,138.375,119.277
			L138.375,119.277z"/>
		<path fill="#88162B" d="M175.853,100.964C175.853,100.964,175.852,100.964,175.853,100.964c0.044,0.004,0.089,0.006,0.133,0.009
			C175.941,100.97,175.897,100.967,175.853,100.964z"/>
		<path fill="#88162B" d="M182.942,101.466c-0.387,0.272-0.768,0.559-1.16,0.831C182.18,102.025,182.556,101.733,182.942,101.466z"
			/>
		<path fill="#3C5658" d="M182.942,101.466c-0.01-0.005-0.02-0.01-0.034-0.01c-2.309-0.176-4.615-0.333-6.923-0.483
			c-0.044-0.003-0.089-0.005-0.134-0.008c-10.795,9.461-32.104,16.609-37.477,18.312c-0.105,0.088-0.207,0.177-0.312,0.265
			c6.918-1.245,17.248-3.715,27.972-8.462c5.272-2.335,10.641-5.218,15.747-8.782C182.175,102.025,182.556,101.738,182.942,101.466z
			"/>
		<path fill="#88162B" d="M88.667,115.484c3.931-2,8.593-4.21,13.827-6.403c-5.233,2.192-9.89,4.397-13.818,6.397
			C88.673,115.48,88.669,115.482,88.667,115.484z"/>
		<path fill="#88162B" d="M115.063,104.318c-0.348,0.119-0.692,0.239-1.038,0.358C114.37,104.557,114.716,104.437,115.063,104.318z"
			/>
		<path fill="#88162B" d="M132.919,99.307c-2.543,0.56-5.032,1.184-7.474,1.847c2.448-0.665,4.945-1.289,7.497-1.847
			C132.935,99.307,132.927,99.307,132.919,99.307z"/>
		<path fill="#88162B" d="M117.468,103.521c-0.288,0.093-0.569,0.188-0.855,0.282C116.898,103.709,117.181,103.614,117.468,103.521z
			"/>
		<path fill="#88162B" d="M110.441,105.955c-0.407,0.149-0.811,0.3-1.211,0.452C109.631,106.255,110.034,106.104,110.441,105.955z"
			/>
		<path fill="#88162B" d="M108.245,106.779c-0.437,0.167-0.871,0.335-1.301,0.503C107.373,107.114,107.809,106.946,108.245,106.779z
			"/>
		<path fill="#88162B" d="M106.147,107.595c-0.478,0.19-0.954,0.378-1.424,0.569C105.193,107.974,105.67,107.785,106.147,107.595z"
			/>
		<path fill="#88162B" d="M104.191,108.381c-0.544,0.222-1.086,0.444-1.618,0.667C103.105,108.826,103.648,108.603,104.191,108.381z
			"/>
		<path fill="#88162B" d="M112.719,105.131c-0.38,0.135-0.754,0.27-1.131,0.406C111.965,105.401,112.339,105.266,112.719,105.131z"
			/>
		<path fill="#3C5658" d="M126.972,99.248c-20.324,5.14-33.395,12.938-38.296,16.231c3.929-2,8.585-4.206,13.818-6.397
			c0.025-0.011,0.053-0.022,0.079-0.033c0.532-0.222,1.074-0.445,1.618-0.667c0.178-0.073,0.353-0.146,0.532-0.217
			c0.47-0.191,0.946-0.379,1.424-0.569c0.266-0.104,0.529-0.208,0.797-0.313c0.43-0.168,0.864-0.336,1.301-0.503
			c0.327-0.124,0.654-0.249,0.985-0.372c0.4-0.152,0.804-0.303,1.211-0.452c0.379-0.14,0.764-0.279,1.146-0.418
			c0.377-0.136,0.751-0.271,1.131-0.406c0.432-0.152,0.868-0.304,1.307-0.456c0.346-0.119,0.69-0.239,1.038-0.358
			c0.513-0.173,1.03-0.344,1.549-0.515c0.286-0.094,0.567-0.189,0.855-0.282c0.813-0.263,1.633-0.523,2.459-0.777
			c1.802-0.553,3.646-1.082,5.519-1.59c2.441-0.664,4.931-1.287,7.474-1.847C130.938,99.273,128.955,99.261,126.972,99.248z"/>
		<path fill="#88162B" d="M98.424,99.767c-3.35,0.121-6.701,0.26-10.055,0.415c-0.001,0-0.002,0.001-0.002,0.001
			c3.343-0.154,6.686-0.291,10.025-0.41C98.403,99.771,98.413,99.768,98.424,99.767z"/>
		<path fill="#3C5658" d="M88.367,100.183c-14.522,3.063-41.54,11.247-66.183,32.27c-0.235,0.273-0.472,0.546-0.701,0.822
			c12.527-8.707,34.06-21.653,60.68-29.528c0.858-0.254,1.724-0.502,2.593-0.746c4.417-1.24,8.974-2.322,13.637-3.228
			C95.053,99.892,91.71,100.029,88.367,100.183z"/>
		<path fill="#88162B" d="M201.084,186.027c0.021-0.01,0.041-0.021,0.062-0.031C201.125,186.008,201.104,186.018,201.084,186.027z"
			/>
		<path fill="#88162B" d="M204.467,185.807c0.22-0.416,0.43-0.82,0.639-1.217c0,0-0.001,0-0.001,0.002
			C204.896,184.984,204.683,185.395,204.467,185.807z"/>
		<path fill="#88162B" d="M201.743,185.703c0.042-0.02,0.084-0.041,0.125-0.061C201.827,185.662,201.785,185.684,201.743,185.703z"
			/>
		<polygon fill="#88162B" points="131.385,198.79 133.121,200.855 131.396,198.798 		"/>
		<path fill="#88162B" d="M204.467,185.807c-1.361,2.598-2.891,5.541-4.362,8.403C201.577,191.348,203.105,188.408,204.467,185.807z
			"/>
		<path fill="#88162B" d="M183.01,209.234c-0.795,0.182-1.543,0.354-2.221,0.549C181.467,209.59,182.22,209.416,183.01,209.234z"/>
		<path fill="#88162B" d="M183.01,209.234c4.559-1.051,10.797-2.502,14.095-9.121C193.803,206.732,187.568,208.182,183.01,209.234z"
			/>
		<polygon fill="#88162B" points="197.721,191.482 197.725,191.477 197.719,191.484 		"/>
		<path fill="#88162B" d="M200.104,194.21c-1.058,2.062-2.087,4.08-3,5.904C198.018,198.292,199.047,196.271,200.104,194.21z"/>
		<path fill="#88162B" d="M203.892,184.68c0.168-0.08,0.34-0.16,0.512-0.24C204.231,184.52,204.06,184.6,203.892,184.68z"/>
		<path fill="#88162B" d="M133.319,201.091c0.88,1.035,4.566,5.313,8.944,9.657c3.332,3.301,7.349,4.969,11.963,4.969
			c-4.61,0-8.631-1.668-11.963-4.973C137.886,206.402,134.199,202.126,133.319,201.091z"/>
		<path fill="#88162B" d="M202.433,185.371c0.072-0.035,0.145-0.068,0.214-0.104C202.577,185.303,202.505,185.336,202.433,185.371z"
			/>
		<path fill="#88162B" d="M204.654,184.322c0.26-0.121,0.521-0.242,0.78-0.359C205.176,184.08,204.914,184.201,204.654,184.322z"/>
		<path fill="#88162B" d="M203.15,185.027c0.111-0.053,0.221-0.105,0.331-0.158C203.371,184.922,203.262,184.975,203.15,185.027z"/>
		<path fill="#88162B" d="M159.129,215.111c1.551-0.375,3.23-0.783,4.953-1.193c5.112-1.221,10.774-2.576,14.535-3.553
			c-3.761,0.977-9.423,2.33-14.535,3.549C162.359,214.328,160.675,214.73,159.129,215.111z"/>
		<path fill="#88162B" d="M50.302,195.098c0.892,1.315,1.869,2.743,2.884,4.2c-1.011-1.455-1.984-2.881-2.873-4.196
			C50.31,195.1,50.306,195.1,50.302,195.098z"/>
		<polygon fill="#88162B" points="130.001,198.6 129.998,198.602 129.999,198.602 		"/>
		<polygon fill="#88162B" points="130.001,198.604 129.999,198.602 128.887,201.589 		"/>
		<path fill="#88162B" d="M57.716,205.634c-1.515-2.045-3.062-4.221-4.53-6.336C54.652,201.413,56.199,203.591,57.716,205.634z"/>
		<path fill="#88162B" d="M85.23,221.805c1.649,0,3.402-0.096,5.204-0.305c-1.801,0.203-3.557,0.305-5.206,0.305
			C85.229,221.805,85.229,221.805,85.23,221.805z"/>
		<path fill="#88162B" d="M59.739,208.305c-0.658-0.847-1.339-1.748-2.023-2.671c0.685,0.925,1.362,1.824,2.02,2.671
			c5.452,7.016,12.322,13.5,25.49,13.5c0.002,0,0.002,0,0.002,0C72.057,221.805,65.192,215.32,59.739,208.305z"/>
		<path fill="#88162B" d="M118.616,216.426c2.609-1.266,5.176-3.168,6.432-5.982c3.17-7.096,3.814-8.785,3.839-8.854
			c-0.024,0.062-0.669,1.758-3.839,8.85C123.792,213.254,121.226,215.158,118.616,216.426z"/>
		<path fill="#88162B" d="M110.39,218.844c0.164-0.021,0.331-0.045,0.509-0.066c0.059-0.006,3.932-0.506,7.718-2.352
			c-3.786,1.842-7.658,2.34-7.723,2.346C110.718,218.795,110.552,218.82,110.39,218.844z"/>
		<path fill="#88162B" d="M92.797,221.23c11.454-1.318,14.596-1.873,16.34-2.176c0.452-0.082,0.837-0.148,1.253-0.212
			c-0.417,0.062-0.802,0.13-1.253,0.207C107.393,219.352,104.251,219.912,92.797,221.23z"/>
		<polygon fill="#88162B" points="66.996,209.16 67.005,209.17 66.997,209.162 		"/>
		<path fill="#07090A" d="M133.319,201.091c0.88,1.035,4.566,5.313,8.944,9.657c3.332,3.301,7.349,4.969,11.963,4.969
			c-4.61,0-8.631-1.668-11.963-4.973C137.886,206.402,134.199,202.126,133.319,201.091z"/>
		<path fill="#07090A" d="M57.716,205.634c-1.515-2.045-3.062-4.221-4.53-6.336C54.652,201.413,56.199,203.591,57.716,205.634z"/>
		<path fill="#07090A" d="M118.616,216.426c2.609-1.266,5.176-3.168,6.432-5.982c3.17-7.096,3.814-8.785,3.839-8.854
			c-0.024,0.062-0.669,1.758-3.839,8.85C123.792,213.254,121.226,215.158,118.616,216.426z"/>
		<path fill="#07090A" d="M85.23,221.805c1.649,0,3.402-0.096,5.204-0.305c-1.801,0.203-3.557,0.305-5.206,0.305
			C85.229,221.805,85.229,221.805,85.23,221.805z"/>
		<path fill="#07090A" d="M159.129,215.111c1.551-0.375,3.23-0.783,4.953-1.193c5.453-1.303,11.533-2.76,15.262-3.744
			c-3.729,0.984-9.809,2.441-15.262,3.74C162.359,214.328,160.675,214.73,159.129,215.111z"/>
		<path fill="#07090A" d="M91.663,221.359c12.383-1.412,15.673-1.994,17.474-2.305c0.452-0.082,0.837-0.148,1.253-0.212
			c-0.417,0.062-0.802,0.13-1.253,0.207C107.336,219.361,104.046,219.947,91.663,221.359z"/>
		<path fill="#07090A" d="M204.467,185.807c-1.361,2.598-2.891,5.541-4.362,8.403C201.577,191.348,203.105,188.408,204.467,185.807z
			"/>
		<polygon fill="#07090A" points="130.001,198.6 129.998,198.602 129.999,198.602 		"/>
		<path fill="#5F888B" d="M176.634,145.641c-3.351-1.619-7.014,0.43-13.686,0.555c-4.967,0.179-9.132,0.232-9.405-7.561
			c-0.276-7.811,2.902-14.264,7.87-14.437c4.963-0.175,9.495,6.013,10.104,13.797c0.169,2.149-0.069,3.714-0.6,4.873
			C175.532,142.318,176.584,145.451,176.634,145.641z M161.027,134.211c1.401-0.029,2.515-1.184,2.49-2.584
			c-0.02-1.402-1.178-2.521-2.585-2.491c-1.4,0.024-2.516,1.183-2.486,2.585C158.466,133.116,159.626,134.236,161.027,134.211z"/>
		<path fill="#5F888B" d="M97.566,140.178c0.074,7.799-4.056,7.33-9.027,7.379c-0.505,0.016-0.98,0.023-1.457,0.023
			c-0.554,0.015-1.089,0.021-1.603,0.011c-4.825-0.011-7.905-0.228-10.634,1.247c0.064-0.168,1.263-2.847,5.592-3.938
			c-0.478-1.053-0.778-2.521-0.857-4.549c-0.298-7.795,4.511-14.189,9.478-14.234C94.025,126.068,97.492,132.378,97.566,140.178z
			 M89.896,136.093c1.396-0.034,2.502-1.204,2.467-2.601c-0.039-1.406-1.21-2.51-2.605-2.471c-1.407,0.029-2.511,1.203-2.476,2.601
			C87.32,135.027,88.488,136.133,89.896,136.093z"/>
		<path fill="#5F888B" d="M204.353,92.804c-0.2-0.097-0.4-0.196-0.592-0.29c-0.293-0.142-0.619-0.303-0.992-0.485
			c-0.022-0.01-0.037-0.018-0.037-0.018c-0.211-0.104-0.419-0.223-0.622-0.354c-2.197-1.014-4.498-1.8-6.797-2.554
			c-0.272-0.089-0.539-0.169-0.812-0.248c0.021-0.069,0.04-0.139,0.051-0.208c0.034-0.26,0.624-4.625,0.269-11.504
			c-0.152-2.939-0.477-6.334-1.092-10.068c-0.099-0.595-0.534-1.079-1.108-1.244l-3.382-0.956
			c-0.729-26.179-11.506-38.48-11.844-38.861c9.629,15.497,9.545,33.875,9.377,38.158l-20.975-5.962c-0.015,0-0.029,0-0.049-0.01
			c-0.085-0.02-0.18-0.03-0.269-0.04c-0.02,0-0.044-0.004-0.077-0.004c-0.109-0.005-0.229,0.004-0.343,0.03
			c-0.016,0-0.034,0.015-0.056,0.015c-0.093,0.02-0.178,0.05-0.271,0.094c-0.033,0.015-0.063,0.035-0.094,0.045
			c-0.069,0.048-0.139,0.088-0.208,0.138c-0.015,0.01-0.035,0.02-0.05,0.034c-0.02,0.015-0.029,0.03-0.04,0.04
			c-0.02,0.02-0.044,0.035-0.06,0.05c-0.02,0.021-0.584,0.574-1.461,1.402c0.061-1.962,0.076-4.964-0.147-8.63
			c-0.021-0.348-0.044-0.701-0.068-1.058c-0.659-9.21-2.836-22.147-9.342-33.472c0.057,0.163,0.699,2.042,1.531,5.207
			c2.094,7.963,5.39,24.078,3.593,41.565c-0.008,0.08-0.014,0.16-0.022,0.241c-0.027,0.022-0.057,0.043-0.085,0.065
			c-0.82,0.65-1.657,1.286-2.486,1.846c-0.415,0.288-0.674,0.757-0.683,1.262c0,0.08-0.185,7.898-3.636,14.555
			c-0.061,0.109-0.093,0.219-0.128,0.332c-8.588-0.589-17.2-0.841-25.803-0.847c-8.597,0.005-17.215,0.243-25.808,0.827
			c-0.034-0.104-0.069-0.213-0.119-0.312c-3.456-6.657-3.634-14.475-3.639-14.555c-0.009-0.505-0.263-0.975-0.678-1.262
			c-0.857-0.58-1.739-1.238-2.582-1.912c-1.745-16.636,1.135-32.052,3.231-40.44c0.995-3.982,1.816-6.389,1.881-6.573
			c-9.44,16.427-9.767,36.247-9.558,43.16c-0.893-0.828-1.446-1.381-1.461-1.402c-0.016-0.015-0.045-0.03-0.065-0.05
			c-0.01-0.01-0.02-0.025-0.034-0.04c-0.016-0.015-0.035-0.024-0.055-0.034c-0.069-0.05-0.14-0.09-0.209-0.128
			c-0.034-0.02-0.059-0.04-0.099-0.055c-0.09-0.044-0.167-0.074-0.257-0.084c-0.025-0.01-0.044-0.025-0.06-0.025
			c-0.119-0.025-0.238-0.035-0.348-0.03c-0.029,0-0.06,0.004-0.089,0.004c-0.085,0.01-0.168,0.02-0.257,0.04
			c-0.02,0.01-0.03,0.01-0.05,0.01l-20.968,5.962c-0.169-4.284-0.259-22.662,9.369-38.158c-0.337,0.381-11.113,12.683-11.847,38.861
			l-3.367,0.956c-0.589,0.165-1.021,0.648-1.118,1.244c-0.615,3.729-0.938,7.12-1.092,10.056
			c-0.356,6.887,0.235,11.256,0.273,11.516c0.016,0.069,0.035,0.134,0.046,0.204c-0.269,0.083-0.545,0.163-0.813,0.247
			c-2.302,0.754-4.612,1.544-6.81,2.562c-0.202,0.13-0.409,0.248-0.62,0.351c0,0-0.014,0.007-0.034,0.018
			c-0.374,0.182-0.7,0.343-0.993,0.485c-0.167,0.082-0.343,0.167-0.516,0.252c-0.109,0.062-0.221,0.118-0.328,0.181
			c1.556-0.61,3.165-1.056,4.773-1.452c1.615-0.401,3.24-0.758,4.863-1.065c3.265-0.608,6.538-1.134,9.831-1.535
			c3.284-0.431,6.582-0.787,9.885-1.064c3.305-0.282,6.603-0.56,9.915-0.752c13.243-0.783,26.52-1.03,39.803-1.035
			c13.286,0.01,26.563,0.217,39.803,1.03c3.313,0.193,6.611,0.469,9.919,0.748c3.31,0.282,6.597,0.643,9.88,1.074
			c3.295,0.396,6.573,0.921,9.831,1.531c1.63,0.312,3.25,0.658,4.858,1.069c1.62,0.396,3.22,0.842,4.78,1.452
			C204.528,92.898,204.439,92.853,204.353,92.804z M85.395,83.221c-3.329,0.406-6.662,0.826-9.979,1.376
			c-3.308,0.565-6.617,1.168-9.896,1.896c-1.99,0.462-3.961,0.952-5.934,1.486c-0.018-0.157-0.042-0.396-0.07-0.705
			c-0.229-2.447-0.662-9.495,0.759-18.725L84.004,61.8c-0.179,3.532-0.276,10.688,1.249,18.008c0.212,1.015,0.453,2.033,0.731,3.045
			c0.03,0.098,0.07,0.198,0.114,0.288C85.859,83.171,85.631,83.191,85.395,83.221z M88.98,82.829c0.067-0.252,0.072-0.53,0-0.802
			c-1.948-7.102-2.052-14.704-1.918-18.903c1.57,1.421,3.695,3.249,5.844,4.769c0.13,2.193,0.739,8.403,3.526,14.249
			C93.946,82.338,91.461,82.567,88.98,82.829z M162.111,82.027c-0.079,0.272-0.069,0.555,0,0.818
			c-2.485-0.263-4.972-0.486-7.457-0.689c2.787-5.845,3.396-12.069,3.531-14.263c2.144-1.521,4.273-3.348,5.839-4.769
			C164.166,67.313,164.062,74.915,162.111,82.027z M191.633,86.547c-0.053,0.686-0.104,1.174-0.135,1.438
			c-1.96-0.534-3.94-1.02-5.932-1.486c-6.562-1.441-13.202-2.511-19.879-3.273c-0.229-0.03-0.465-0.045-0.698-0.074
			c0.044-0.099,0.085-0.199,0.114-0.297c0.2-0.728,0.374-1.458,0.539-2.188c1.721-7.613,1.631-15.195,1.437-18.864l23.736,6.749
			C192.108,76.986,191.858,83.604,191.633,86.547z"/>
		<path fill="#5F888B" d="M150.549,41.912V22.217h-49.123v19.695h13.95v-5.749h3.134v26.579h-4.733v14.863h24.415V62.742h-4.749
			V36.163h3.146v5.749H150.549z M129.257,31.978v34.959h4.744v6.488h-16.04v-6.488h4.743V31.978h-11.522v5.75h-5.571V26.407h23.646
			h11.015h6.082v11.321h-5.571v-5.75H129.257z"/>
		<path fill="#07090A" d="M131.29,198.673v-0.002c-0.006-0.004-0.011-0.008-0.018-0.014
			C131.279,198.663,131.284,198.667,131.29,198.673z"/>
		<path fill="#5F888B" d="M232.258,85.895c-0.08-1.684-0.247-3.367-0.485-5.032c-0.108-0.842-0.238-1.684-0.412-2.51
			c-0.162-0.853-0.33-1.646-0.599-2.571l-0.177-0.654l-0.467-0.367c-2.654-2.084-5.518-3.66-8.424-5.052
			c-2.401-1.134-4.839-2.12-7.305-3.03c-6.875-19.078-18.691-35.994-34.228-47.781C164.102,6.716,145.214,0.267,125.543,0.267
			c-19.672,0-38.56,6.449-54.62,18.632C55.387,30.686,43.569,47.602,36.696,66.685c-2.46,0.906-4.902,1.896-7.299,3.025
			c-2.912,1.392-5.774,2.967-8.429,5.052l-0.467,0.367l-0.179,0.654c-0.257,0.925-0.425,1.718-0.599,2.571
			c-0.167,0.826-0.292,1.668-0.411,2.51c-0.238,1.665-0.396,3.348-0.484,5.032c-0.169,3.372-0.074,6.75,0.296,10.103
			c0.357,3.348,0.981,6.666,1.871,9.955c0.467,1.634,0.997,3.249,1.626,4.853c0.312,0.803,0.653,1.599,1.031,2.396
			c0.186,0.397,0.39,0.784,0.598,1.189l0.332,0.589c0.129,0.218,0.213,0.377,0.407,0.664l0.335,0.53l0.537,0.272
			c0.568,0.292,1.039,0.515,1.553,0.759l1.501,0.673c0.278,0.113,0.539,0.227,0.823,0.342c-6.819,6.305-14.225,14.494-20.639,24.617
			L1,155.613l11.371-9.979c0.193-0.169,9.727-8.423,25.628-17.773l0.223,1.828c-1.04,0.541-6.04,3.164-7.526,4.408
			c-2.463,2.045-2.582,5.219-1.923,11.142c0.338,3.036,1.476,8.929,3.011,14.331c2.645,9.297,4.583,10.941,6.285,11.326
			c0.768,0.185,1.759,0.27,2.873,0.27c3.046,0,6.947-0.594,9.493-1.361c2.986,9.285,7.216,17.668,12.372,25.024
			c-0.249,0.067-0.495,0.147-0.744,0.219c-3.101-1.438-13.945-6.462-17.591-8.101l-7.616-3.428l4.505,7.033
			c0.328,0.508,8.104,12.633,14.453,20.807c5.938,7.621,14.069,15.422,29.412,15.422c1.847,0,3.779-0.119,5.77-0.338
			c4.575-0.525,8.013-0.938,10.627-1.273c16.106,5.918,33.865,6.281,50.719-0.104c4.612-1.752,8.815-3.877,12.673-6.26
			c0.08-0.011,0.154-0.029,0.229-0.05c6.27-1.512,13.377-3.205,16.888-4.19c0.564-0.152,1.268-0.32,2.001-0.494
			c4.893-1.125,13.068-3.021,17.428-11.743c4.393-8.8,11.557-22.28,11.632-22.419l3.35-6.289l-6.528,2.838
			c-0.348,0.158-8.618,3.76-12.916,6.012c-0.153,0.086-0.326,0.16-0.501,0.242c3.487-7.115,5.246-12.805,5.859-14.988
			c2.406,0.578,5.972,0.504,8.596,0.504c1.29,0,2.617-0.224,3.478-0.444c1.705-0.433,3.022-1.565,5.499-11.158
			c1.441-5.576,2.475-11.647,2.758-14.769c0.549-6.075,0.371-9.33-2.109-11.385c-1.234-1.021-4.858-2.972-6.702-3.933l0.09-0.664
			c0.941,0.224,1.446,0.353,1.486,0.362l1.674-6.346c0.589-0.252,1.213-0.504,1.921-0.777c1.01-0.401,2.021-0.801,3.032-1.237
			l1.493-0.673c0.521-0.244,0.987-0.467,1.557-0.759l0.533-0.272l0.338-0.53c0.189-0.287,0.289-0.446,0.406-0.664l0.327-0.589
			c0.224-0.405,0.42-0.792,0.604-1.189c0.378-0.797,0.714-1.594,1.031-2.396c0.628-1.604,1.158-3.219,1.624-4.853
			c0.887-3.289,1.521-6.606,1.873-9.955C232.342,92.645,232.426,89.267,232.258,85.895z M21.483,133.275
			c0.229-0.276,0.466-0.549,0.701-0.823c13.283-15.507,32.082-27.311,37.046-30.283c0.549-0.07,1.089-0.13,1.64-0.184
			c1.921-0.208,3.853-0.367,5.788-0.509c3.879-0.298,7.751-0.566,11.645-0.778c3.354-0.189,6.709-0.361,10.066-0.517
			c3.354-0.155,6.705-0.294,10.055-0.415c-4.675,0.907-9.241,1.991-13.668,3.234C56.941,110.781,34.413,124.287,21.483,133.275z
			 M36.503,107.983c2.035-0.461,4.785-1.05,8.157-1.698c-2.069,1.411-4.521,3.179-7.2,5.313L36.503,107.983z M77.801,119.354
			c-1.183,1.406-2.331,2.892-3.417,4.463l-6.565,9.424l9.562-6.379c0.144-0.1,6.235-4.105,16.189-8.973
			c9.93-0.748,20.884-1.234,32.606-1.234c2.861,0,5.655,0.041,8.419,0.084c-1.927,1.561-3.957,3.021-6.071,4.3l-7.042,4.259
			c-4.429,0.535-8.271,1.635-8.489,1.694c-0.135,0.028-0.251,0.083-0.365,0.157c-0.343,0.199-0.604,0.531-0.724,0.922l-7.191,23.668
			l-38.381,8.531l-12.094-8.468l-3.512-28.491C57.586,122.048,66.777,120.586,77.801,119.354z M57.319,117.758
			c10.646-4.897,22.8-9.399,36.003-12.469c-3.422,2.412-7.299,5.487-11.063,9.221C72.637,115.472,64.247,116.639,57.319,117.758z
			 M129.802,125.062c0.797-0.054,14.015-1.674,29.805-7.115c17.486,1.341,31.764,3.486,41.521,5.269l-3.457,24.228l-12.193,8.537
			l-38.332-4.356l-7.156-23.554c-0.163-0.525-0.569-0.928-1.096-1.08c-0.235-0.075-4.981-1.428-10.012-1.862L129.802,125.062z
			 M138.063,119.542c0.104-0.088,0.206-0.177,0.312-0.265c7.139-5.985,12.709-12.95,15.536-16.771
			c0.892-1.224,1.515-2.125,1.821-2.581c5.271,0.223,10.539,0.476,15.81,0.773c1.439,0.081,2.875,0.173,4.311,0.266
			c2.351,0.152,4.702,0.313,7.056,0.492c0.015,0,0.024,0.005,0.034,0.01c-0.387,0.267-0.763,0.559-1.16,0.831
			C166.291,113.108,148.384,117.689,138.063,119.542z M148.384,102.536c-2.233,2.827-5.34,6.442-9.013,9.979
			c-4.279-0.124-8.672-0.203-13.194-0.203c-7.474,0-14.635,0.197-21.444,0.524c9.613-3.991,21.167-7.878,33.677-10.222
			c3.65-0.693,7.389-1.248,11.183-1.629C149.227,101.466,148.819,101.991,148.384,102.536z M119.927,102.744
			c-12.534,3.857-23.363,8.725-31.26,12.74c-0.853,0.433-1.681,0.858-2.462,1.27c8.961-8.568,18.479-13.371,19.574-13.901
			c0.052-0.035,0.092-0.054,0.097-0.06l7.256-3.437c3.932-0.074,7.86-0.119,11.781-0.129h0.006c0.684,0.003,1.368,0.016,2.053,0.021
			c1.99,0.013,3.98,0.026,5.971,0.059C128.445,100.292,124.086,101.466,119.927,102.744z M39.281,166.718
			c-0.739-0.747-1.727-3.208-2.704-6.339l0,0c-1.521-4.877-3.009-11.386-3.481-15.621c-0.623-5.634-0.184-6.848,0.393-7.322
			c0.663-0.556,3.153-1.977,5.309-3.125l2.912,23.647c0.06,0.455,0.298,0.856,0.673,1.123l5.972,4.18
			c0.097,0.341,0.202,0.677,0.302,1.017c0.138,0.472,0.271,0.943,0.416,1.412C46.602,166.417,41.56,167.115,39.281,166.718z
			 M136.091,211.557c-1.236,0.178-2.465,0.336-3.683,0.433c-0.793,0.038-1.625,0.125-2.383,0.125h-0.283
			c0.951-2.121,1.675-3.769,2.219-5.017C133.082,208.346,134.493,209.889,136.091,211.557z M129.173,225.973
			c-6.334,0.426-12.763-0.322-19.057-2.045c0.531-0.1,0.911-0.164,1.376-0.219c0.521-0.064,11.812-1.539,16.893-9.102l0.482,0.01
			l1.252-0.01c0.843,0,1.61-0.07,2.416-0.105c1.923-0.162,3.799-0.439,5.646-0.811c0.199,0.197,0.388,0.393,0.586,0.594
			c3.822,3.783,8.557,5.953,13.768,6.334C143.776,224.17,135.527,225.547,129.173,225.973z M199.413,186.873
			c0.143-0.072,0.296-0.152,0.445-0.229c1.563-0.806,3.607-1.781,5.576-2.683c-0.106,0.203-0.218,0.416-0.329,0.627
			c-0.209,0.396-0.419,0.802-0.639,1.218c-1.361,2.602-2.89,5.539-4.362,8.402c-1.058,2.061-2.087,4.082-3,5.904
			c-3.298,6.619-9.536,8.07-14.095,9.119c-0.79,0.183-1.543,0.355-2.221,0.55c-0.431,0.12-0.913,0.25-1.445,0.391
			c-3.729,0.984-9.809,2.44-15.262,3.744c-1.723,0.41-3.402,0.817-4.953,1.192c-1.672,0.398-3.327,0.605-4.902,0.605
			c-4.614,0-8.631-1.668-11.963-4.969c-4.378-4.344-8.064-8.622-8.944-9.657c-0.127-0.147-0.193-0.229-0.198-0.233l-1.736-2.066
			c-0.685-0.52-1.097-0.83-1.097-0.83s-0.148,0.189-0.406,0.529l-0.18-0.17l0.296,0.281c0.001-0.002,0.002-0.002,0.003-0.002
			l-0.002,0.002l0.002,0.002l-1.114,2.985c-0.024,0.067-0.669,1.759-3.839,8.854c-1.256,2.813-3.822,4.717-6.432,5.981
			c-3.786,1.847-7.659,2.347-7.718,2.353c-0.178,0.021-0.345,0.045-0.509,0.065c-0.416,0.062-0.801,0.13-1.253,0.211
			c-1.801,0.312-5.091,0.894-17.474,2.306c-0.4,0.047-0.809,0.094-1.229,0.141c-1.802,0.209-3.555,0.305-5.204,0.305
			c0,0-0.001,0-0.002,0c0,0-0.001,0-0.003,0c-13.168,0-20.038-6.484-25.49-13.501c-0.657-0.846-1.335-1.747-2.02-2.67
			c-1.517-2.043-3.063-4.221-4.53-6.336c-1.015-1.457-1.992-2.885-2.884-4.2c0.004,0.002,0.008,0.002,0.011,0.004
			c0.374,0.174,0.751,0.344,1.126,0.518c4.714,2.166,9.295,4.295,9.377,4.322l0.842,0.389l0.881-0.25
			c13.655-3.904,26.53-8.059,26.654-8.1l0.862-0.275l0.479-0.764c7.484-11.832,13.332-14.609,14.373-14.664
			c0.827-0.041,1.677-0.061,2.529-0.061c10.404,0,19.087,3.219,19.177,3.242l0.803,0.305l0.812-0.26
			c13.231-4.1,19.273-5.977,21.354-5.977c0.407,0,0.407,0,1.091,0.584c0.216,0.173,0.455,0.377,0.718,0.591
			c6.481,5.095,14.495,11.487,14.579,11.542l0.555,0.447l0.698,0.074c0.095,0.016,9.247,1.094,14.654,1.588
			c2.708,0.244,5.15,0.453,7.642,0.453C193.703,188.809,196.942,188.172,199.413,186.873z M199.474,164.498
			c-0.454,1.451-0.93,2.859-1.414,4.243c-1.931,5.509-4.104,10.507-6.466,15.022c-0.649,0.038-1.343,0.069-2.075,0.069
			c-2.283,0-4.615-0.199-7.191-0.435c-4.477-0.407-11.578-1.221-13.817-1.479c-1.936-1.545-8.548-6.795-14.044-11.129
			c-0.214-0.167-0.396-0.331-0.585-0.48c-0.967-0.822-2.065-1.75-4.299-1.75c-2.024,0-4.982,0.736-12.134,2.898
			c3.714-2.777,3.744-6.366,3.744-6.366s-5.298,4.923-13.837,6.021c-8.533,1.095-15.232-4.146-15.232-4.146
			c0.281,0.912,0.679,2.974,2.614,4.724c-2.278-0.266-4.733-0.453-7.301-0.453c-0.935,0-1.876,0.029-2.782,0.074
			c-5.249,0.271-12.64,8.209-17.828,16.209c-2.547,0.805-10.52,3.338-19.73,6.052c-5.441-7.534-9.132-15.169-11.22-20.089
			c-1.217-2.863-1.89-4.812-2.044-5.273v-0.01c-0.168-0.479-0.352-0.969-0.506-1.467l2.209,1.541v0.015l5.468,3.83l1.823,1.272
			c0.276,0.191,0.604,0.291,0.927,0.291c0.112,0,0.231-0.017,0.351-0.035l46.812-10.428l3.43-0.766
			c0.565-0.124,1.016-0.544,1.185-1.094l7.165-23.588c1.234-0.162,2.323-0.248,3.26-0.248c0.914,0,2.016,0.086,3.248,0.248
			l7.375,24.287c0.187,0.625,0.723,1.063,1.356,1.139l2.735,0.309l0.696,0.078l47.133,5.357c0.386,0.046,0.781-0.061,1.098-0.282
			l4.739-3.317l4.374-3.063l1.625-1.14C200.067,162.271,199.775,163.391,199.474,164.498z M188.251,165.684l-48.904-5.562
			l-7.365-24.242c-0.175-0.594-0.674-1.03-1.282-1.129c-1.812-0.293-3.412-0.437-4.744-0.437c-1.353,0-2.942,0.144-4.764,0.437
			c-0.606,0.099-1.102,0.535-1.285,1.129l-7.175,23.655l-48.638,10.818l-19.279-13.502l-3.799-30.733
			c0.832-0.464,1.669-0.931,2.515-1.401c1.2-0.252,2.542-0.525,4.033-0.812l3.569,29c0.059,0.449,0.302,0.861,0.68,1.117
			l13.263,9.287c0.267,0.193,0.594,0.293,0.914,0.293c0.119,0,0.229-0.016,0.353-0.039l39.991-8.896
			c0.144-0.034,0.276-0.077,0.396-0.146c0.378-0.199,0.663-0.541,0.788-0.951l7.211-23.711c1.921-0.496,6.874-1.66,11.228-1.66
			c4.333,0,9.286,1.164,11.212,1.66l7.206,23.711c0.183,0.607,0.717,1.055,1.356,1.123l39.996,4.548
			c0.381,0.045,0.781-0.06,1.089-0.283l13.271-9.274c0.358-0.259,0.6-0.66,0.664-1.096l3.536-24.775
			c2.665,0.504,4.888,0.976,6.633,1.352L207,152.543L188.251,165.684z M217.861,133.874c0.59,0.479,1.054,1.737,0.524,7.583
			c-0.638,7.16-3.65,19.725-5.512,21.745c-2.055,0.401-6.368-0.074-8.993-0.683c0.445-1.804,0.579-2.676,0.94-4.517l4.602-3.221
			c0.365-0.257,0.608-0.653,0.674-1.089l3.213-22.514C215.261,132.24,217.268,133.375,217.861,133.874z M212.418,121.043
			c-7.041-1.551-22.503-4.601-43.551-6.652c6.874-2.932,13.877-6.606,20.275-11.207c12.524,1.773,21.727,3.669,26.719,4.798
			L212.418,121.043z M227.146,95.414c-0.425,3.119-0.999,6.21-1.841,9.202c-0.416,1.495-0.887,2.976-1.432,4.397
			c-0.276,0.723-0.574,1.426-0.888,2.105c-0.156,0.342-0.315,0.679-0.484,1l-0.188,0.376c-0.236,0.119-0.475,0.242-0.703,0.347
			l-1.396,0.669c-0.49,0.228-0.989,0.441-1.491,0.663l2.472-9.379c-0.573-0.153-5.973-1.555-15.252-3.273
			c0.291-0.059,0.579-0.128,0.86-0.193c1.928-0.477,3.823-1.065,5.665-1.808c0.912-0.392,1.824-0.807,2.677-1.297
			c0.85-0.491,1.697-1.045,2.346-1.789c-9.291,3.041-28.496,1.664-45.577-0.099c-15.604-1.614-31.264-2.654-46.999-2.694
			c-15.731,0.04-31.373,1.08-46.993,2.694c-17.074,1.763-36.28,3.139-45.572,0.099c0.654,0.743,1.496,1.298,2.354,1.789
			c0.856,0.49,1.757,0.905,2.669,1.297c1.839,0.743,3.745,1.332,5.666,1.808c0.679,0.164,1.371,0.312,2.055,0.436
			c-8.464,1.614-13.372,2.883-13.921,3.031l2.585,9.846c-0.04,0.04-0.09,0.089-0.145,0.134c-0.885-0.397-1.956-0.908-2.738-1.264
			l-1.396-0.669c-0.222-0.104-0.465-0.228-0.698-0.347l-0.196-0.376c-0.165-0.321-0.323-0.658-0.477-1
			c-0.312-0.679-0.614-1.382-0.881-2.105c-0.552-1.421-1.017-2.902-1.44-4.397c-0.843-2.992-1.413-6.083-1.845-9.202
			c-0.396-3.105-0.608-6.245-0.579-9.38c0.016-1.57,0.069-3.135,0.214-4.695c0.06-0.783,0.149-1.55,0.236-2.323
			c0.069-0.545,0.154-1.12,0.244-1.649c2.079-1.749,4.433-3.298,6.888-4.714c2.656-1.551,5.439-2.938,8.276-4.229
			c2.826-1.332,5.72-2.541,8.627-3.714c1.461-0.584,2.927-1.159,4.393-1.709c1.476-0.563,2.957-1.104,4.448-1.644
			c-3.121,0.516-6.212,1.229-9.276,2.016c-1.985,0.51-3.973,1.089-5.938,1.708c14.001-36.62,47.491-60.466,84.068-60.466
			c36.573,0,70.066,23.846,84.076,60.463c-1.965-0.619-3.956-1.198-5.947-1.708c-3.061-0.787-6.149-1.5-9.271-2.016
			c1.485,0.54,2.972,1.081,4.438,1.644c1.476,0.55,2.941,1.125,4.397,1.709c2.91,1.174,5.809,2.383,8.626,3.714
			c2.842,1.292,5.626,2.679,8.284,4.229c2.453,1.417,4.812,2.965,6.886,4.714c0.091,0.53,0.182,1.104,0.247,1.649
			c0.094,0.772,0.179,1.54,0.242,2.323c0.135,1.561,0.194,3.125,0.21,4.695C227.763,89.169,227.549,92.309,227.146,95.414z"/>
	</g>
</g>
<g id="Layer_2">
	<path fill="#3C5658" d="M199.413,186.873c0.143-0.072,0.296-0.152,0.445-0.229c1.563-0.806,3.607-1.781,5.576-2.683
		c-0.106,0.203-0.218,0.416-0.329,0.627c-0.209,0.396-0.419,0.802-0.639,1.218c-1.361,2.602-2.89,5.539-4.362,8.402
		c-1.058,2.061-2.087,4.082-3,5.904c-3.298,6.619-9.536,8.07-14.095,9.119c-0.79,0.183-1.543,0.355-2.221,0.55
		c-0.431,0.12-0.913,0.25-1.445,0.391c-3.729,0.984-9.809,2.44-15.262,3.744c-1.723,0.41-3.402,0.817-4.953,1.192
		c-1.672,0.398-3.327,0.605-4.902,0.605c-4.614,0-8.631-1.668-11.963-4.969c-4.378-4.344-8.064-8.622-8.944-9.657
		c-0.127-0.147-0.193-0.229-0.198-0.233l-1.736-2.066c-0.685-0.52-1.097-0.83-1.097-0.83s-0.148,0.189-0.406,0.529l-0.18-0.17
		l0.296,0.281c0.001-0.002,0.002-0.002,0.003-0.002l-0.002,0.002l0.002,0.002l-1.114,2.985c-0.024,0.067-0.669,1.759-3.839,8.854
		c-1.256,2.813-3.822,4.717-6.432,5.981c-3.786,1.847-7.659,2.347-7.718,2.353c-0.178,0.021-0.345,0.045-0.509,0.065
		c-0.416,0.062-0.801,0.13-1.253,0.211c-1.801,0.312-5.091,0.894-17.474,2.306c-0.4,0.047-0.809,0.094-1.229,0.141
		c-1.802,0.209-3.555,0.305-5.204,0.305c0,0-0.001,0-0.002,0c0,0-0.001,0-0.003,0c-13.168,0-20.038-6.484-25.49-13.501
		c-0.657-0.846-1.335-1.747-2.02-2.67c-1.517-2.043-3.063-4.221-4.53-6.336c-1.015-1.457-1.992-2.885-2.884-4.2
		c0.004,0.002,0.008,0.002,0.011,0.004c0.374,0.174,0.751,0.344,1.126,0.518c4.714,2.166,9.295,4.295,9.377,4.322l0.842,0.389
		l0.881-0.25c13.655-3.904,26.53-8.059,26.654-8.1l0.862-0.275l0.479-0.764c7.484-11.832,13.332-14.609,14.373-14.664
		c0.827-0.041,1.677-0.061,2.529-0.061c10.404,0,19.087,3.219,19.177,3.242l0.803,0.305l0.812-0.26
		c13.231-4.1,19.273-5.977,21.354-5.977c0.407,0,0.407,0,1.091,0.584c0.216,0.173,0.455,0.377,0.718,0.591
		c6.481,5.095,14.495,11.487,14.579,11.542l0.555,0.447l0.698,0.074c0.095,0.016,9.247,1.094,14.654,1.588
		c2.708,0.244,5.15,0.453,7.642,0.453C193.703,188.809,196.942,188.172,199.413,186.873z"/>
</g>
</svg>
