<svg height="57" viewBox="0 0 58 57" width="58" xmlns="http://www.w3.org/2000/svg"><g fill="none" fill-rule="evenodd"><path d="m53 7h-48c-2.722 0-5 2.277-5 5v31.495c0 2.722 2.278 5 5 5h13.578l-3.323-3.289c-.393-.389-.396-1.022-.007-1.415.389-.392 1.021-.396 1.414-.007l4.042 4c.007.007.009.017.017.025.006.007.016.009.022.017l8.257 9.174 8.257-9.174c.031-.035.072-.05.106-.08l4.005-3.962c.393-.389 1.026-.384 1.414.007.388.393.386 1.026-.007 1.415l-3.324 3.289h13.549c2.722 0 5-2.278 5-5v-31.495c0-2.723-2.278-5-5-5" fill="#7383bf"/><path d="m51 7v-3.207c0-2.066-1.728-3.793-3.793-3.793h-36.414c-2.065 0-3.793 1.727-3.793 3.793v3.207z" fill="#536396"/><g fill="#fff"><path d="m15 28h28c.552 0 1-.447 1-1s-.448-1-1-1h-28c-.552 0-1 .447-1 1s.448 1 1 1"/><path d="m43 34h-28c-.552 0-1 .447-1 1s.448 1 1 1h28c.552 0 1-.447 1-1s-.448-1-1-1"/><path d="m15 20h15c.552 0 1-.447 1-1s-.448-1-1-1h-15c-.552 0-1 .447-1 1s.448 1 1 1"/></g></g></svg>