<svg height="58" viewBox="0 0 54 58" width="54" xmlns="http://www.w3.org/2000/svg"><g fill="none" fill-rule="evenodd"><path d="m46 4v4h-7v-4h-24v4h-7v-4h-4.599c-1.878 0-3.401 1.523-3.401 3.401v50.599h54v-50.599c0-1.878-1.523-3.401-3.401-3.401z" fill="#ecf0f1"/><path d="m8 8h7v-8h-7z" fill="#f0c419"/><path d="m39 8h7v-8h-7z" fill="#f0c419"/><path d="m46 4v4h-7v-4h-24v4h-7v-4h-4.599c-1.878 0-3.401 1.523-3.401 3.401v6.599h54v-6.599c0-1.878-1.523-3.401-3.401-3.401z" fill="#e64c3c"/><path d="m4 30h12v-12h-12z" fill="#bdc3c7"/><path d="m16 30h11v-12h-11z" fill="#95a5a5"/><path d="m27 30h11v-12h-11z" fill="#bdc3c7"/><path d="m38 30h12v-12h-12z" fill="#95a5a5"/><path d="m4 42h12v-12h-12z" fill="#95a5a5"/><path d="m16 42h11v-12h-11z" fill="#bdc3c7"/><path d="m27 42h11v-12h-11z" fill="#95a5a5"/><path d="m38 42h12v-12h-12z" fill="#bdc3c7"/><path d="m4 54h12v-12h-12z" fill="#bdc3c7"/><path d="m16 54h11v-12h-11z" fill="#95a5a5"/><path d="m27 54h11v-12h-11z" fill="#bdc3c7"/><path d="m38 54h12v-12h-12z" fill="#95a5a5"/><g fill="#e64c3c"><path d="m42 39c-.256 0-.512-.098-.707-.293-.391-.391-.391-1.023 0-1.414l4-4c.391-.391 1.023-.391 1.414 0s.391 1.023 0 1.414l-4 4c-.195.195-.451.293-.707.293"/><path d="m46 39c-.256 0-.512-.098-.707-.293l-4-4c-.391-.391-.391-1.023 0-1.414s1.023-.391 1.414 0l4 4c.391.391.391 1.023 0 1.414-.195.195-.451.293-.707.293"/><path d="m8 27c-.256 0-.512-.098-.707-.293-.391-.391-.391-1.023 0-1.414l4-4c.391-.391 1.023-.391 1.414 0s.391 1.023 0 1.414l-4 4c-.195.195-.451.293-.707.293"/><path d="m12 27c-.256 0-.512-.098-.707-.293l-4-4c-.391-.391-.391-1.023 0-1.414s1.023-.391 1.414 0l4 4c.391.391.391 1.023 0 1.414-.195.195-.451.293-.707.293"/></g><path d="m50.5986 4h-3c1.879 0 3.401 1.523 3.401 3.401v6.599h3v-6.599c0-1.878-1.522-3.401-3.401-3.401" fill="#ad392d"/><path d="m3.4014 4h3c-1.878 0-3.401 1.523-3.401 3.401v6.599h-3v-6.599c0-1.878 1.523-3.401 3.401-3.401" fill="#ec7063"/><path d="m51 58h3v-44h-3z" fill="#b1b4b5"/><path d="m0 58h3v-44h-3z" fill="#f4f7f7"/></g></svg>