<svg height="58" viewBox="0 0 58 58" width="58" xmlns="http://www.w3.org/2000/svg"><g fill="none"><path d="m50 5h6c1.1032291.00322927 1.9967707.89677088 2 2v42c-.0032293 1.1032291-.8967709 1.9967707-2 2h-54c-1.10322912-.0032293-1.99677073-.8967709-2-2v-42c.00322927-1.10322912.89677088-1.99677073 2-2z" fill="#af8066"/><path d="m8 9h-3c-.55161456.00161464-.99838536.44838544-1 1v36c.00161464.5516146.44838544.9983854 1 1h48c.5516146-.0016146.9983854-.4483854 1-1v-36c-.0016146-.55161456-.4483854-.99838536-1-1z" fill="#7f5b53"/><path d="m32 45.71 16.79-7.19c.7326127-.3190145 1.2073622-1.0409477 1.21-1.84v-35.16c.0028835-.33648026-.1646857-.65156838-.4452841-.83728816s-.6361137-.21684588-.9447159-.08271184l-10.27 4.4-6.34 2.71" fill="#e4c05c"/><g fill="#2c2f38"><path d="m32.00049 16.00049c-.474793-.0000187-.8841543-.3338091-.9797473-.7988794-.0955931-.4650702.1489244-.9332624.5852173-1.1205506l14-6c.507103-.21568369 1.0931185.01959012 1.3102922.52605683s-.0163762 1.09317137-.5222022 1.31183317l-14 6c-.1242807.0536478-.2581947.0813929-.39356.08154z"/><path d="m32.00049 22.00049c-.474793-.0000187-.8841543-.3338091-.9797473-.7988794-.0955931-.4650702.1489244-.9332624.5852173-1.1205506l14-6c.3285363-.1420218.7079279-.0976014.9947716.1164711.2868436.2140725.4373824.5651412.3947154.9205084-.0426671.3553671-.2720313.660823-.601397.8009105l-14 6c-.1242807.0536478-.2581947.0813929-.39356.08154z"/><path d="m32.00049 28.00049c-.474793-.0000187-.8841543-.3338091-.9797473-.7988794-.0955931-.4650702.1489244-.9332624.5852173-1.1205506l14-6c.3285363-.1420218.7079279-.0976014.9947716.1164711.2868436.2140725.4373824.5651412.3947154.9205084-.0426671.3553671-.2720313.660823-.601397.8009105l-14 6c-.1242807.0536478-.2581947.0813929-.39356.08154z"/><path d="m32.00049 34.00049c-.474793-.0000187-.8841543-.3338091-.9797473-.7988794-.0955931-.4650702.1489244-.9332624.5852173-1.1205506l14-6c.3285363-.1420218.7079279-.0976014.9947716.1164711.2868436.2140725.4373824.5651412.3947154.9205084-.0426671.3553671-.2720313.660823-.601397.8009105l-14 6c-.1242807.0536478-.2581947.0813929-.39356.08154z"/><path d="m32.00049 40.00049c-.474793-.0000187-.8841543-.3338091-.9797473-.7988794-.0955931-.4650702.1489244-.9332624.5852173-1.1205506l14-6c.507103-.2156837 1.0931185.0195901 1.3102922.5260568s-.0163762 1.0931714-.5222022 1.3118332l-14 6c-.1242807.0536478-.2581947.0813929-.39356.08154z"/></g><path d="m26 7.71-6.34-2.71-10.27-4.4c-.30860223-.13413404-.66411754-.10300794-.94471591.08271184-.28059836.18571978-.44816759.5008079-.44528409.83728816v35.16c.0026378.7990523.47738734 1.5209855 1.21 1.84l16.79 7.19" fill="#f3d55b"/><g fill="#2c2f38"><path d="m25.99951 16.00049c-.1353619-.0001485-.2692724-.0278935-.39355-.08154l-14-6c-.5050024-.21915264-.7378565-.80529229-.5209164-1.31124909.2169401-.50595681.8020549-.7413743 1.3089564-.52665091l14 6c.4362929.1872882.6808104.6554804.5852173 1.1205506-.095593.4650703-.5049543.7988607-.9797473.7988794z"/><path d="m25.99951 22.00049c-.1353619-.0001485-.2692724-.0278935-.39355-.08154l-14-6c-.3293657-.1400875-.5587299-.4455434-.601397-.8009105-.042667-.3553672.1078718-.7064359.3947154-.9205084.2868437-.2140725.6662353-.2584929.9947716-.1164711l14 6c.4362929.1872882.6808104.6554804.5852173 1.1205506-.095593.4650703-.5049543.7988607-.9797473.7988794z"/><path d="m25.99951 28.00049c-.1353619-.0001485-.2692724-.0278935-.39355-.08154l-14-6c-.505826-.2186618-.7393759-.8053665-.5222022-1.3118332s.8031892-.7417405 1.3102922-.5260568l14 6c.4362929.1872882.6808104.6554804.5852173 1.1205506-.095593.4650703-.5049543.7988607-.9797473.7988794z"/><path d="m25.99951 34.00049c-.1353619-.0001485-.2692724-.0278935-.39355-.08154l-14-6c-.505826-.2186618-.7393759-.8053665-.5222022-1.3118332s.8031892-.7417405 1.3102922-.5260568l14 6c.4362929.1872882.6808104.6554804.5852173 1.1205506-.095593.4650703-.5049543.7988607-.9797473.7988794z"/><path d="m25.99951 40.00049c-.1353619-.0001485-.2692724-.0278935-.39355-.08154l-14-6c-.505826-.2186618-.7393759-.8053665-.5222022-1.3118332s.8031892-.7417405 1.3102922-.5260568l14 6c.4362929.1872882.6808104.6554804.5852173 1.1205506-.095593.4650703-.5049543.7988607-.9797473.7988794z"/></g><path d="m32 7.71v50.29l-3-3-3 3v-50.29l3 1.29z" fill="#e64c3c"/></g></svg>