<svg height="60" viewBox="0 0 58 60" width="58" xmlns="http://www.w3.org/2000/svg"><g style="stroke:#000;stroke-width:2;fill:none;fill-rule:evenodd;stroke-linecap:round;stroke-linejoin:round" transform="translate(1 1)"><path d="m0 18h56v37c0 1.6568542-1.3431458 3-3 3h-50c-1.65685425 0-3-1.3431458-3-3z"/><path d="m26 6h-16"/><path d="m6 6h-3c-1.65685425 0-3 1.34314575-3 3v9h56v-9c0-1.65685425-1.3431458-3-3-3h-3"/><path d="m46 6h-16"/><path d="m8 18v39"/><path d="m16 18v39"/><path d="m24 18v39"/><path d="m32 18v39"/><path d="m40 18v39"/><path d="m48 18v39"/><path d="m0 50h56"/><path d="m0 42h56"/><path d="m56 34h-56"/><path d="m0 26h56"/><path d="m10.0000277 8.77-.0000277-6.77c.0028231-.53059053-.2101411-1.0395388-.59-1.41-.3704612-.3798589-.87940947-.59282307-1.41-.59-1.10320187.0032948-1.9967052.89679813-2 2v6.77"/><circle cx="8" cy="11" r="3"/><path d="m30.0000277 8.77-.0000277-6.77c.0028231-.53059053-.2101411-1.0395388-.59-1.41-.3704612-.3798589-.8794095-.59282307-1.41-.59-1.1032019.0032948-1.9967052.89679813-2 2v6.77"/><circle cx="28" cy="11" r="3"/><path d="m50.0000277 8.77-.0000277-6.77c.0028231-.53059053-.2101411-1.0395388-.59-1.41-.3704612-.3798589-.8794095-.59282307-1.41-.59-1.1032019.0032948-1.9967052.89679813-2 2v6.77"/><circle cx="48" cy="11" r="3"/><path d="m24 34 8-8"/></g></svg>