<svg height="58" viewBox="0 0 59 58" width="59" xmlns="http://www.w3.org/2000/svg"><g fill="none" fill-rule="evenodd"><path d="m12 0h35v26h-35z" fill="#e6e6e6"/><g fill="#6c797a"><path d="m35 15h-18c-.552 0-1-.447-1-1s.448-1 1-1h18c.552 0 1 .447 1 1s-.448 1-1 1"/><path d="m23 19h-6c-.552 0-1-.447-1-1s.448-1 1-1h6c.552 0 1 .447 1 1s-.448 1-1 1"/><path d="m39 19h-6c-.552 0-1-.447-1-1s.448-1 1-1h6c.552 0 1 .447 1 1s-.448 1-1 1"/><path d="m28 19c-.26 0-.52-.11-.71-.29-.18-.19-.29-.45-.29-.71s.11-.52.29-.71c.38-.37 1.04-.37 1.42 0 .18.19.29.45.29.71s-.11.52-.29.71c-.19.18-.45.29-.71.29"/><path d="m33 23h-11c-.552 0-1-.447-1-1s.448-1 1-1h11c.552 0 1 .447 1 1s-.448 1-1 1"/><path d="m17 23c-.26 0-.52-.101-.71-.29-.18-.19-.29-.45-.29-.71s.11-.52.29-.71c.38-.37 1.06-.37 1.42.01.18.18.29.44.29.7s-.11.52-.29.71c-.19.18-.45.29-.71.29"/></g><path d="m6 51h48v4h-48z" fill="#47a083"/><path d="m8 55h6v3h-6z" fill="#38454f"/><path d="m46 55h6v3h-6z" fill="#38454f"/><path d="m52 31h-44v11c0 3.55-.775 6.729-2 8.927v.073h48v-.074c-1.225-2.197-2-5.376-2-8.926z" fill="#71c3aa"/><path d="m5 26v8h3v-3h44v3-8z" fill="#434c6d"/><path d="m57.678 34h-5.678v-10.678c0-.73.592-1.322 1.322-1.322h4.356c.73 0 1.322.592 1.322 1.322v9.356c0 .73-.592 1.322-1.322 1.322" fill="#38454f"/><path d="m52 25h7v2h-7z" fill="#546a79"/><path d="m52 29h7v2h-7z" fill="#546a79"/><g fill="#e8edee"><path d="m16 43h-4c-.552 0-1 .447-1 1s.448 1 1 1h1v2c0 .553.448 1 1 1s1-.447 1-1v-2h1c.552 0 1-.447 1-1s-.448-1-1-1"/><path d="m24 43h-4c-.552 0-1 .447-1 1s.448 1 1 1h1v2c0 .553.448 1 1 1s1-.447 1-1v-2h1c.552 0 1-.447 1-1s-.448-1-1-1"/><path d="m32 43h-4c-.552 0-1 .447-1 1s.448 1 1 1h1v2c0 .553.448 1 1 1s1-.447 1-1v-2h1c.552 0 1-.447 1-1s-.448-1-1-1"/><path d="m40 43h-4c-.552 0-1 .447-1 1s.448 1 1 1h1v2c0 .553.448 1 1 1s1-.447 1-1v-2h1c.552 0 1-.447 1-1s-.448-1-1-1"/><path d="m48 43h-4c-.552 0-1 .447-1 1s.448 1 1 1h1v2c0 .553.448 1 1 1s1-.447 1-1v-2h1c.552 0 1-.447 1-1s-.448-1-1-1"/><path d="m19 38h1c.552 0 1-.447 1-1s-.448-1-1-1h-4c-.552 0-1 .447-1 1s.448 1 1 1h1v2c0 .553.448 1 1 1s1-.447 1-1z"/><path d="m27 38h1c.552 0 1-.447 1-1s-.448-1-1-1h-4c-.552 0-1 .447-1 1s.448 1 1 1h1v2c0 .553.448 1 1 1s1-.447 1-1z"/><path d="m35 38h1c.552 0 1-.447 1-1s-.448-1-1-1h-4c-.552 0-1 .447-1 1s.448 1 1 1h1v2c0 .553.448 1 1 1s1-.447 1-1z"/><path d="m43 38h1c.552 0 1-.447 1-1s-.448-1-1-1h-4c-.552 0-1 .447-1 1s.448 1 1 1h1v2c0 .553.448 1 1 1s1-.447 1-1z"/></g><path d="m22 28c-.552 0-1 .447-1 1v4c0 .553.448 1 1 1s1-.447 1-1v-4c0-.553-.448-1-1-1" fill="#283238"/><path d="m26 28c-.552 0-1 .447-1 1v4c0 .553.448 1 1 1s1-.447 1-1v-4c0-.553-.448-1-1-1" fill="#283238"/><path d="m30 28c-.552 0-1 .447-1 1v4c0 .553.448 1 1 1s1-.447 1-1v-4c0-.553-.448-1-1-1" fill="#283238"/><path d="m34 28c-.552 0-1 .447-1 1v4c0 .553.448 1 1 1s1-.447 1-1v-4c0-.553-.448-1-1-1" fill="#283238"/><path d="m38 28c-.552 0-1 .447-1 1v4c0 .553.448 1 1 1s1-.447 1-1v-4c0-.553-.448-1-1-1" fill="#283238"/><path d="m5 29h-3v-7h3c.552 0 1-.447 1-1s-.448-1-1-1h-5v11h5z" fill="#cbd4d8"/></g></svg>