<svg height="52" viewBox="0 0 60 52" width="60" xmlns="http://www.w3.org/2000/svg"><g fill="none"><path d="m59 49.9999997h-8v-4h1c.5516009-.0016474.9983526-.448399 1-1v-34.99999976h4l2-9.99999994h-7c-2.1219125-.00058908-4.157086.84207647-5.6575048 2.34249521-1.5004187 1.50041873-2.3430843 3.5355923-2.3424952 5.65750474v5.99999995h-12v-3c-.0026194-3.31262285-2.6873771-5.99738055-6-5.99999993h-2v-.99999999h-12v.99999999h-11v3.99999998h3v4.99999995h-2c-.55160093.0016474-.9983526.4483991-1 1v29.9999998c.0016474.551601.44839907.9983526 1 1h1v4h-2c-.55228475 0-1 .4477153-1 1s.44771525 1 1 1h58c.5522847 0 1-.4477153 1-1s-.4477153-1-1-1zm-53-40.9999997h6v1h12v4h-18z" fill="#547580"/><path d="m3 46h48v5h-48z" fill="#bdc3c7"/><rect fill="#bdc3c7" height="20" rx="1" width="20" x="8" y="20"/><g fill="#7f8c8d"><path d="m8 22v4h-2c-.55160093-.0016474-.9983526-.4483991-1-1v-2c.0016474-.5516009.44839907-.9983526 1-1z"/><path d="m8 34v4h-2c-.55160093-.0016474-.9983526-.4483991-1-1v-2c.0016474-.5516009.44839907-.9983526 1-1z"/><path d="m16 34h-4c-.5522847 0-1-.4477153-1-1s.4477153-1 1-1h4c.5522847 0 1 .4477153 1 1s-.4477153 1-1 1z"/><path d="m16 37h-4c-.5522847 0-1-.4477153-1-1s.4477153-1 1-1h4c.5522847 0 1 .4477153 1 1s-.4477153 1-1 1z"/><path d="m24 32c-.5522847 0-1-.4477153-1-1v-2c0-.5522847.4477153-1 1-1s1 .4477153 1 1v2c0 .5522847-.4477153 1-1 1z"/></g><rect fill="#bdc3c7" height="10" rx="1" width="17" x="32" y="18"/><rect fill="#bdc3c7" height="10" rx="1" width="17" x="32" y="32"/><path d="m42 37h-3c-.5522847 0-1-.4477153-1-1s.4477153-1 1-1h3c.5522847 0 1 .4477153 1 1s-.4477153 1-1 1z" fill="#7f8c8d"/><path d="m12 4h12v6h-12z" fill="#547580"/><path d="m32 11v3h-8v-9h2c3.3126229.00261938 5.9973806 2.68737709 6 6z" fill="#bdc3c7"/><path d="m5 15c-.55228475 0-1-.4477153-1-1v-5c0-.55228475.44771525-1 1-1s1 .44771525 1 1v5c0 .5522847-.44771525 1-1 1z" fill="#7f8c8d"/><path d="m52.9999997-.00000031v10h-9l.0000003-1.99999994c-.0005891-2.12191238.8420764-4.15708591 2.3424951-5.6575046 1.5004187-1.5004187 3.5355922-2.34308423 5.6575046-2.34249515z" fill="#547580"/><path d="m59 0-2 10h-4v-10z" fill="#bdc3c7"/><path d="m44 10h9v4h-9z" fill="#bdc3c7"/><path d="m59 52h-58c-.55228475 0-1-.4477153-1-1s.44771525-1 1-1h58c.5522847 0 1 .4477153 1 1s-.4477153 1-1 1z" fill="#7f8c8d"/><path d="m1 5h11v4h-11z" fill="#bdc3c7"/></g></svg>