<?xml version="1.0" encoding="UTF-8"?>
<svg width="58px" height="60px" viewBox="0 0 58 60" version="1.1" xmlns="http://www.w3.org/2000/svg" xmlns:xlink="http://www.w3.org/1999/xlink">
    <!-- Generator: Sketch 51.1 (57501) - http://www.bohemiancoding.com/sketch -->
    <title>056 - Calendar</title>
    <desc>Created with Sketch.</desc>
    <defs></defs>
    <g id="Page-1" stroke="none" stroke-width="1" fill="none" fill-rule="evenodd" stroke-linecap="round" stroke-linejoin="round">
        <g id="056---Calendar" transform="translate(1.000000, 1.000000)" stroke="#000000" stroke-width="2">
            <path d="M0,18 L56,18 L56,55 C56,56.6568542 54.6568542,58 53,58 L3,58 C1.34314575,58 4.4408921e-16,56.6568542 0,55 L0,18 Z" id="Shape"></path>
            <path d="M26,6 L10,6" id="Shape"></path>
            <path d="M6,6 L3,6 C1.34314575,6 4.4408921e-16,7.34314575 0,9 L0,18 L56,18 L56,9 C56,7.34314575 54.6568542,6 53,6 L50,6" id="Shape"></path>
            <path d="M46,6 L30,6" id="Shape"></path>
            <path d="M8,18 L8,57" id="Shape"></path>
            <path d="M16,18 L16,57" id="Shape"></path>
            <path d="M24,18 L24,57" id="Shape"></path>
            <path d="M32,18 L32,57" id="Shape"></path>
            <path d="M40,18 L40,57" id="Shape"></path>
            <path d="M48,18 L48,57" id="Shape"></path>
            <path d="M0,50 L56,50" id="Shape"></path>
            <path d="M0,42 L56,42" id="Shape"></path>
            <path d="M56,34 L0,34" id="Shape"></path>
            <path d="M0,26 L56,26" id="Shape"></path>
            <path d="M10.0000277,8.77 L10,2 C10.0028231,1.46940947 9.7898589,0.9604612 9.41,0.59 C9.0395388,0.210141102 8.53059053,-0.00282306649 8,1.11022302e-16 C6.89679813,0.00329480111 6.0032948,0.896798134 6,2 L6,8.77" id="Shape"></path>
            <circle id="Oval" cx="8" cy="11" r="3"></circle>
            <path d="M30.0000277,8.77 L30,2 C30.0028231,1.46940947 29.7898589,0.9604612 29.41,0.59 C29.0395388,0.210141102 28.5305905,-0.00282306649 28,1.11022302e-16 C26.8967981,0.00329480111 26.0032948,0.896798134 26,2 L26,8.77" id="Shape"></path>
            <circle id="Oval" cx="28" cy="11" r="3"></circle>
            <path d="M50.0000277,8.77 L50,2 C50.0028231,1.46940947 49.7898589,0.9604612 49.41,0.59 C49.0395388,0.210141102 48.5305905,-0.00282306649 48,2.22044605e-16 C46.8967981,0.00329480111 46.0032948,0.896798134 46,2 L46,8.77" id="Shape"></path>
            <circle id="Oval" cx="48" cy="11" r="3"></circle>
            <path d="M24,34 L32,26" id="Shape"></path>
        </g>
    </g>
</svg>