<svg height="50" viewBox="0 0 58 50" width="58" xmlns="http://www.w3.org/2000/svg"><g fill="none"><path d="m4 0h50c1.1045695 0 2 .8954305 2 2v46h-54v-46c0-1.1045695.8954305-2 2-2z" fill="#35495e"/><rect fill="#af8066" height="4" rx="2" width="58" y="46"/><g fill="#2c3e50"><path d="m6 5c-.26471985-.00391475-.51823796-.10746441-.71-.29-.08827811-.09727122-.1592987-.20890206-.21-.33008-.0512424-.1201938-.07842172-.24926839-.08-.37992-.00915779-.4071951.23929651-.77596215.62012-.92041.36975379-.15171205.79431367-.0690037 1.08008.21041.18908164.18825669.29673172.44319852.2998.71-.00531746.26632764-.11262647.52046172-.2998.71-.18704132.18369018-.43805306.28765105-.7002.29z"/><path d="m9 7c-.40434698-.00159507-.76828126-.24558474-.92333521-.61902456-.15505396-.37343982-.0709675-.80344979.21333521-1.09097544.23852594-.23010707.57358729-.33069141.89941-.27.06632948.00920996.13067634.02933883.19043.05957.06365093.02197619.12408179.05235473.17969.09033.0498.04.10059.08008.15039.12012.3867201.39431326.3867201 1.02560674 0 1.41992-.04758141.04297952-.09780987.08293451-.15039.11963-.05560821.03797527-.11603907.06835381-.17969.09033-.05981643.03017317-.12412625.05045594-.19043.06006-.06253372.01149707-.1258549.01819659-.18941.02004z"/><path d="m6 9c-.26471985-.00391475-.51823796-.10746441-.71-.29-.08827811-.09727122-.1592987-.20890206-.21-.33008-.0512424-.1201938-.07842172-.24926839-.08-.37992-.00915779-.4071951.23929651-.77596215.62012-.92041.36975379-.15171205.79431367-.0690037 1.08008.21041.18908164.18825669.29673172.44319852.2998.71-.00531746.26632764-.11262647.52046172-.2998.71-.18704132.18369018-.43805306.28765105-.7002.29z"/><path d="m9 11c-.26600072.0025856-.52185969-.1019407-.70995949-.2900405-.18809979-.1880998-.29262613-.4439588-.29004051-.7099595.0016439-.06371956.00817305-.12721915.01953-.18994.00969733-.06634613.03014906-.13066689.06055-.19043.0216932-.06367952.05191478-.12412604.08984-.17969.0368932-.0524108.07699661-.10248664.12008-.14994.23852594-.23010707.57358729-.33069141.89941-.27.06632948.00920996.13067634.02933883.19043.05957.06365093.02197619.12408179.05235473.17969.09033.0498.04.10059.08008.15039.12012.04.0498.08008.09961.12012.1499.03754616.05578587.06774182.11618056.08984.17969.03051565.05963775.05065987.12403365.05957.19043.01217429.06263026.01904861.12617513.02055.18996-.00400693.264701-.10754339.5181869-.29.71-.0498.04-.10059.08008-.15039.11963-.05560821.0379753-.11603907.0683538-.17969.09033-.05981643.0301732-.12412625.0504559-.19043.06006-.06256161.011481-.12590967.0181605-.18949.01998z"/><path d="m6 13c-.26471985-.0039148-.51823796-.1074644-.71-.29-.08827811-.0972712-.1592987-.2089021-.21-.33008-.0512424-.1201938-.07842172-.2492684-.08-.37992-.00915779-.4071951.23929651-.7759622.62012-.92041.36975379-.1517121.79431367-.0690037 1.08008.21041.18908164.1882567.29673172.4431985.2998.71-.00531746.2663276-.11262647.5204617-.2998.71-.18704132.1836902-.43805306.2876511-.7002.29z"/><path d="m9 15c-.26513014-.001884-.51936671-.1057271-.71-.29-.38672008-.3943133-.38672008-1.0256067 0-1.41992.23595546-.2344618.57333436-.3357419.89941-.27.06632948.00921.13067634.0293388.19043.05957.06365093.0219762.12408179.0523547.17969.09033.05260732.0368338.10286189.0769186.15047.12002.3867201.3943133.3867201 1.0256067 0 1.41992-.0498.04-.10059.08008-.15039.11963-.05560821.0379753-.11603907.0683538-.17969.09033-.05981643.0301732-.12412625.0504559-.19043.06006-.06255954.0115078-.12590762.0182141-.18949.02006z"/><path d="m6 17c-.26471985-.0039148-.51823796-.1074644-.71-.29-.08827811-.0972712-.1592987-.2089021-.21-.33008-.0512424-.1201938-.07842172-.2492684-.08-.37992-.00915779-.4071951.23929651-.7759622.62012-.92041.36975379-.1517121.79431367-.0690037 1.08008.21041.18908164.1882567.29673172.4431985.2998.71-.00531746.2663276-.11262647.5204617-.2998.71-.18704132.1836902-.43805306.2876511-.7002.29z"/><path d="m9 19c-.40434698-.0015951-.76828126-.2455847-.92333521-.6190246-.15505396-.3734398-.0709675-.8034498.21333521-1.0909754.23852594-.2301071.57358729-.3306914.89941-.27.06632948.00921.13067634.0293388.19043.05957.06365093.0219762.12408179.0523547.17969.09033.0498.04.10059.08008.15039.12012.3867201.3943133.3867201 1.0256067 0 1.41992-.04758141.0429795-.09780987.0829345-.15039.11963-.05560821.0379753-.11603907.0683538-.17969.09033-.05981643.0301732-.12412625.0504559-.19043.06006-.06253372.0114971-.1258549.0181966-.18941.02004z"/><path d="m6 21c-.26471985-.0039148-.51823796-.1074644-.71-.29-.08827811-.0972712-.1592987-.2089021-.21-.33008-.0512424-.1201938-.07842172-.2492684-.08-.37992-.00915779-.4071951.23929651-.7759622.62012-.92041.36975379-.1517121.79431367-.0690037 1.08008.21041.18908164.1882567.29673172.4431985.2998.71-.00531746.2663276-.11262647.5204617-.2998.71-.18704132.1836902-.43805306.2876511-.7002.29z"/><path d="m9 23c-.26600072.0025856-.52185969-.1019407-.70995949-.2900405-.18809979-.1880998-.29262613-.4439588-.29004051-.7099595.0016439-.0637196.00817305-.1272192.01953-.18994.00969733-.0663461.03014906-.1306669.06055-.19043.0216932-.0636795.05191478-.124126.08984-.17969.0368932-.0524108.07699661-.1024866.12008-.14994.23852594-.2301071.57358729-.3306914.89941-.27.06632948.00921.13067634.0293388.19043.05957.06365093.0219762.12408179.0523547.17969.09033.0498.04.10059.08008.15039.12012.04.0498.08008.09961.12012.1499.03754616.0557859.06774182.1161806.08984.17969.03051565.0596377.05065987.1240336.05957.19043.01217429.0626303.01904861.1261751.02055.18996-.00400693.264701-.10754339.5181869-.29.71-.0498.04-.10059.08008-.15039.11963-.05560821.0379753-.11603907.0683538-.17969.09033-.05981643.0301732-.12412625.0504559-.19043.06006-.06256161.011481-.12590967.0181605-.18949.01998z"/><path d="m6 25c-.26471985-.0039148-.51823796-.1074644-.71-.29-.08827811-.0972712-.1592987-.2089021-.21-.33008-.0512424-.1201938-.07842172-.2492684-.08-.37992-.00915779-.4071951.23929651-.7759622.62012-.92041.36975379-.1517121.79431367-.0690037 1.08008.21041.18908164.1882567.29673172.4431985.2998.71-.00531746.2663276-.11262647.5204617-.2998.71-.18704132.1836902-.43805306.2876511-.7002.29z"/><path d="m9 27c-.26513014-.001884-.51936671-.1057271-.71-.29-.38672008-.3943133-.38672008-1.0256067 0-1.41992.23595546-.2344618.57333436-.3357419.89941-.27.06632948.00921.13067634.0293388.19043.05957.06365093.0219762.12408179.0523547.17969.09033.05260732.0368338.10286189.0769186.15047.12002.08826759.0970958.15929018.2085641.21.32959.05129341.1203496.07847352.2495945.08.38041-.00400693.264701-.10754339.5181869-.29.71-.0498.04-.10059.08008-.15039.11963-.05560821.0379753-.11603907.0683538-.17969.09033-.05981643.0301732-.12412625.0504559-.19043.06006-.06256161.011481-.12590967.0181605-.18949.01998z"/><path d="m6 29c-.26471985-.0039148-.51823796-.1074644-.71-.29-.24251899-.2339171-.34885749-.575445-.28199687-.9056908s.29766933-.6035159.61207687-.7246792c.36975717-.15174.79433721-.0690465 1.08012.21037.18908164.1882567.29673172.4431985.2998.71-.00200082.0669782-.00885546.1337232-.02051.19971-.01048914.062762-.03058129.1235342-.05957.18018-.02199002.0637087-.05219114.124279-.08984.18018-.0405926.0522443-.08394773.1022823-.12988.1499-.18703653.1837012-.43804885.287673-.7002.29003z"/><path d="m9 31c-.40434698-.0015951-.76828126-.2455847-.92333521-.6190246-.15505396-.3734398-.0709675-.8034498.21333521-1.0909754.23852594-.2301071.57358729-.3306914.89941-.27.06632948.00921.13067634.0293388.19043.05957.06365093.0219762.12408179.0523547.17969.09033.0498.04.10059.08008.15039.12012.3867201.3943133.3867201 1.0256067 0 1.41992-.04758141.0429795-.09780987.0829345-.15039.11963-.05560821.0379753-.11603907.0683538-.17969.09033-.05981643.0301732-.12412625.0504559-.19043.06006-.06253372.0114971-.1258549.0181966-.18941.02004z"/><path d="m6 33c-.26471985-.0039148-.51823796-.1074644-.71-.29-.24251899-.2339171-.34885749-.575445-.28199687-.9056908s.29766933-.6035159.61207687-.7246792c.36975717-.15174.79433721-.0690465 1.08012.21037.18908164.1882567.29673172.4431985.2998.71-.00200082.0669782-.00885546.1337232-.02051.19971-.01048914.062762-.03058129.1235342-.05957.18018-.02199002.0637087-.05219114.124279-.08984.18018-.0405926.0522443-.08394773.1022823-.12988.1499-.18703653.1837012-.43804885.287673-.7002.29003z"/><path d="m9 35c-.26600072.0025856-.52185969-.1019407-.70995949-.2900405-.18809979-.1880998-.29262613-.4439588-.29004051-.7099595.0016439-.0637196.00817305-.1272192.01953-.18994.00969733-.0663461.03014906-.1306669.06055-.19043.0216932-.0636795.05191478-.124126.08984-.17969.0368932-.0524108.07699661-.1024866.12008-.14994.23852594-.2301071.57358729-.3306914.89941-.27.06632948.00921.13067634.0293388.19043.05957.06365093.0219762.12408179.0523547.17969.09033.0498.04.10059.08008.15039.12012.04.0498.08008.09961.12012.1499.03754616.0557859.06774182.1161806.08984.17969.03051565.0596377.05065987.1240336.05957.19043.01217429.0626303.01904861.1261751.02055.18996-.00400693.264701-.10754339.5181869-.29.71-.0498.04-.10059.08008-.15039.11963-.05560821.0379753-.11603907.0683538-.17969.09033-.05981643.0301732-.12412625.0504559-.19043.06006-.06256161.011481-.12590967.0181605-.18949.01998z"/><path d="m6 37c-.26471985-.0039148-.51823796-.1074644-.71-.29-.24251899-.2339171-.34885749-.575445-.28199687-.9056908s.29766933-.6035159.61207687-.7246792c.36975717-.15174.79433721-.0690465 1.08012.21037.18908164.1882567.29673172.4431985.2998.71-.00200082.0669782-.00885546.1337232-.02051.19971-.01048914.062762-.03058129.1235342-.05957.18018-.02199002.0637087-.05219114.124279-.08984.18018-.0405926.0522443-.08394773.1022823-.12988.1499-.18703653.1837012-.43804885.287673-.7002.29003z"/><path d="m9 39c-.26513014-.001884-.51936671-.1057271-.71-.29-.38672008-.3943133-.38672008-1.0256067 0-1.41992.23595546-.2344618.57333436-.3357419.89941-.27.06632948.00921.13067634.0293388.19043.05957.06365093.0219762.12408179.0523547.17969.09033.05260732.0368338.10286189.0769186.15047.12002.08826759.0970958.15929018.2085641.21.32959.05129341.1203496.07847352.2495945.08.38041-.00400693.264701-.10754339.5181869-.29.71-.0498.04-.10059.08008-.15039.11963-.05560821.0379753-.11603907.0683538-.17969.09033-.05981643.0301732-.12412625.0504559-.19043.06006-.06256161.011481-.12590967.0181605-.18949.01998z"/><path d="m6 41c-.26471985-.0039148-.51823796-.1074644-.71-.29-.24251899-.2339171-.34885749-.575445-.28199687-.9056908s.29766933-.6035159.61207687-.7246792c.36975717-.15174.79433721-.0690465 1.08012.21037.18908164.1882567.29673172.4431985.2998.71-.00200082.0669782-.00885546.1337232-.02051.19971-.01048914.062762-.03058129.1235342-.05957.18018-.02199002.0637087-.05219114.124279-.08984.18018-.0405926.0522443-.08394773.1022823-.12988.1499-.18703653.1837012-.43804885.287673-.7002.29003z"/><path d="m9 43c-.40434698-.0015951-.76828126-.2455847-.92333521-.6190246-.15505396-.3734398-.0709675-.8034498.21333521-1.0909754.0939218-.0926834.20642008-.1644093.33008-.21045.3725395-.1557119.80213143-.072763 1.08992.21045.18253559.191762.28608525.4452802.29.71-.00160881.1306435-.02881525.2597042-.08008.37988-.0507013.1211779-.12172189.2328088-.21.33008-.04758141.0429795-.09780987.0829345-.15039.11963-.05560821.0379753-.11603907.0683538-.17969.09033-.05981643.0301732-.12412625.0504559-.19043.06006-.06253424.0114904-.12585541.0181832-.18941.02002z"/><path d="m52 5c-.0670976-.00230145-.1339732-.00898234-.2002-.02-.0625121-.01112237-.1230537-.03135794-.17969-.06006-.0639615-.02195996-.1247151-.05233675-.18066-.09033-.0522704-.03670355-.1021852-.0766521-.14945-.11961-.1828429-.19156307-.286444-.44520709-.29-.71.001557-.13080741.0287642-.26003839.08008-.38037.0948367-.24876591.2878426-.44755764.5336996-.54969859.2458571-.10214096.5229079-.09863358.7661004.00969859.1211424.05095485.2327652.12208685.33012.21037.0904564.09540479.1617476.2072947.21.32959.0512934.12034959.0784735.24959445.08.38041.0025856.26600072-.1019407.52185969-.2900405.70995949-.1880998.18809979-.4439588.29262613-.7099595.29004051z"/><path d="m49 7c-.0670976-.00230145-.1339732-.00898234-.2002-.02-.0625121-.01112237-.1230537-.03135794-.17969-.06006-.0639615-.02195996-.1247151-.05233675-.18066-.09033-.0498-.03961-.09961-.07961-.14945-.11961-.0882781-.09727122-.1592987-.20890206-.21-.33008-.0562696-.11855393-.0836833-.24874174-.08-.37992.0016408-.06711899.008168-.13402934.01953-.2002.011295-.06268979.031694-.12339162.06055-.18018.0216932-.06367952.0519148-.12412604.08984-.17969.0368935-.05240737.0769969-.10247986.12008-.14993l.14941-.12012c.0559449-.03799325.1166985-.06837004.18066-.09033.0565787-.02876522.1171689-.0488406.17973-.05955.1317466-.03027348.2686434-.03027348.40039 0 .0625115.01086731.1230664.03094221.17969.05957.0636509.02197619.1240818.05235473.17969.09033.0498.04.10059.08008.15039.12012.04.0498.08008.09961.12012.1499.0375462.05578587.0677418.11618056.08984.17969.0289887.05664576.0490809.11741803.05957.18018.0121666.06608268.0190251.13303306.02051.20021-.0016088.13064347-.0288152.25970417-.08008.37988-.0507013.12117794-.1217219.23280878-.21.33008-.0498.04-.10059.08008-.15039.11963-.0556082.03797527-.1160391.06835381-.17969.09033-.0566954.02856033-.1172159.04878883-.17969.06006-.0661524.01144897-.1330406.01813946-.20015.02002z"/><path d="m52 9c-.0670976-.00230145-.1339732-.00898234-.2002-.02-.0625121-.01112237-.1230537-.03135794-.17969-.06006-.0639615-.02195996-.1247151-.05233675-.18066-.09033-.0498-.03961-.09961-.07961-.14945-.11961-.0882781-.09727122-.1592987-.20890206-.21-.33008-.1067698-.24217057-.1067698-.51807943 0-.76025.0507098-.12102593.1217324-.2324942.21-.32959.291959-.27511326.7164413-.35708154 1.08984-.21045.2509091.09142825.4485717.28909086.54.54.1067698.24217057.1067698.51807943 0 .76025-.0507013.12117794-.1217219.23280878-.21.33008-.1918176.18235523-.4452078.28589028-.70984.29004z"/><path d="m49 11c-.0670976-.0023015-.1339732-.0089823-.2002-.02-.0625121-.0111224-.1230537-.0313579-.17969-.06006-.0639615-.02196-.1247151-.0523368-.18066-.09033-.0522704-.0367035-.1021852-.0766521-.14945-.11961-.1828429-.1915631-.286444-.4452071-.29-.71-.0037035-.13133346.0237382-.26167801.08008-.38037.0507098-.12102593.1217324-.2324942.21-.32959l.14941-.12012c.0559449-.03799325.1166985-.06837004.18066-.09033.0565514-.02877148.1171142-.04886019.17965-.05959.3291815-.06215663.6681244.03839115.91016.27.0882676.0970958.1592902.20856407.21.32959.0513071.12034681.0785009.24959177.08004.38041-.0040069.264701-.1075434.5181869-.29.71-.0475814.0429795-.0978099.0829345-.15039.11963-.0556082.0379753-.1160391.0683538-.17969.09033-.0566954.0285603-.1172159.0487888-.17969.06006-.0661797.0114394-.1330948.0181165-.20023.01998z"/><path d="m52 13c-.2651301-.001884-.5193667-.1057271-.71-.29-.04-.05029-.08008-.1001-.12012-.1499-.0380282-.0556791-.0682554-.1163019-.08984-.18018-.0303296-.0596192-.0507789-.123767-.06055-.18994-.0113208-.0627385-.0178364-.1262497-.01949-.18998.0034639-.2648116.1070782-.518488.29-.71.0472494-.0431169.0971502-.0832353.14941-.12012.0559449-.0379932.1166985-.06837.18066-.09033.0565787-.0287652.1171689-.0488406.17973-.05955.2946332-.062747.6018226.0115989.8351588.202125.2333361.1905261.3676061.4766453.3650412.777875-.0015154.0637753-.0083761.1273113-.02051.18994-.0089828.0662242-.0291247.130447-.05957.18994-.02199.0637087-.0521911.124279-.08984.18018-.04.0498-.08008.09961-.12012.1499-.0974763.088009-.2090589.158999-.33008.21-.1201786.051251-.2492392.0784438-.37988.08004z"/><path d="m49 15c-.2651301-.001884-.5193667-.1057271-.71-.29-.388201-.3913529-.3864983-1.0230467.0038069-1.4123011.3903051-.3892545 1.0220011-.3892545 1.4123062 0 .3903052.3892544.3920079 1.0209482.0038069 1.4123011-.19082.1839368-.444892.2877244-.70992.29z"/><path d="m52 17c-.0670976-.0023015-.1339732-.0089823-.2002-.02-.0625121-.0111224-.1230537-.0313579-.17969-.06006-.0639615-.02196-.1247151-.0523368-.18066-.09033-.0498-.03961-.09961-.07961-.14945-.11961-.04-.05029-.08008-.1001-.12012-.1499-.0380282-.0556791-.0682554-.1163019-.08984-.18018-.028856-.0567884-.049255-.1174902-.06055-.18018-.0113262-.06602-.01784-.1327758-.01949-.19974.001557-.1308074.0287642-.2600384.08008-.38037.0482524-.1222953.1195436-.2341852.21-.32959l.14941-.12012c.0559449-.0379932.1166985-.06837.18066-.09033.0565514-.0287715.1171142-.0488602.17965-.05959.1948544-.040864.3975978-.0200438.58008.05957.1211466.0509731.2327697.1221255.33012.21043.0904564.0954048.1617476.2072947.21.32959.0512934.1203496.0784735.2495945.08.38041-.0015105.0670098-.0083689.133792-.02051.19971-.0104891.062762-.0305813.1235342-.05957.18018-.02199.0637087-.0521911.124279-.08984.18018-.04.0498-.08008.09961-.12012.1499-.0974763.088009-.2090589.158999-.33008.21-.1201793.0512476-.2492399.078437-.37988.08003z"/><path d="m49 19c-.0670976-.0023015-.1339732-.0089823-.2002-.02-.0625121-.0111224-.1230537-.0313579-.17969-.06006-.0639615-.02196-.1247151-.0523368-.18066-.09033-.0498-.03961-.09961-.07961-.14945-.11961-.0882781-.0972712-.1592987-.2089021-.21-.33008-.0562696-.1185539-.0836833-.2487417-.08-.37992.0034639-.2648116.1070782-.518488.29-.71.0472494-.0431169.0971502-.0832353.14941-.12012.0559449-.0379932.1166985-.06837.18066-.09033.0565787-.0287652.1171689-.0488406.17973-.05955.1317466-.0302735.2686434-.0302735.40039 0 .0625115.0108673.1230664.0309422.17969.05957.0636509.0219762.1240818.0523547.17969.09033.0525959.036861.1028371.0769725.15043.1201.1825356.191762.2860852.4452802.29.71-.0016088.1306435-.0288152.2597042-.08008.37988-.0507013.1211779-.1217219.2328088-.21.33008-.0498.04-.10059.08008-.15039.11963-.0556082.0379753-.1160391.0683538-.17969.09033-.0566954.0285603-.1172159.0487888-.17969.06006-.0661524.011449-.1330406.0181395-.20015.02002z"/><path d="m52 21c-.2651301-.001884-.5193667-.1057271-.71-.29-.1828429-.1915631-.286444-.4452071-.29-.71.001557-.1308074.0287642-.2600384.08008-.38037.0507098-.1210259.1217324-.2324942.21-.32959.2896697-.2795516.7169136-.3620532 1.08984-.21045.2509091.0914283.4485717.2890909.54.54.0513209.120344.0785282.2495891.08008.38041-.0040069.264701-.1075434.5181869-.29.71-.0974763.088009-.2090589.158999-.33008.21-.1201938.0512424-.2492684.0784217-.37992.08z"/><path d="m49 23c-.0670976-.0023015-.1339732-.0089823-.2002-.02-.0625121-.0111224-.1230537-.0313579-.17969-.06006-.0639615-.02196-.1247151-.0523368-.18066-.09033-.0498-.03961-.09961-.07961-.14945-.11961-.0428635-.0476371-.0829689-.0976854-.12012-.1499-.0380282-.0556791-.0682554-.1163019-.08984-.18018-.028856-.0567884-.049255-.1174902-.06055-.18018-.0113262-.06602-.01784-.1327758-.01949-.19974-.0037035-.1313335.0237382-.261678.08008-.38037.0507098-.1210259.1217324-.2324942.21-.32959l.14941-.12012c.0559449-.0379932.1166985-.06837.18066-.09033.0565514-.0287715.1171142-.0488602.17965-.05959.3291815-.0621566.6681244.0383912.91016.27.0882676.0970958.1592902.2085641.21.32959.0513071.1203468.0785009.2495918.08004.38041-.0015105.0670098-.0083689.133792-.02051.19971-.0104891.062762-.0305813.1235342-.05957.18018-.02199.0637087-.0521911.124279-.08984.18018-.04.0498-.08008.09961-.12012.1499-.0498.04-.10059.08008-.15039.11963-.0556082.0379753-.1160391.0683538-.17969.09033-.0566954.0285603-.1172159.0487888-.17969.06006-.0661658.0114475-.1330674.0181347-.20019.02001z"/><path d="m52 25c-.2651301-.001884-.5193667-.1057271-.71-.29-.3867201-.3943133-.3867201-1.0256067 0-1.41992l.14941-.12012c.0559449-.0379932.1166985-.06837.18066-.09033.0565742-.0287929.1171646-.0488953.17973-.05963.4326859-.086483.8711038.1197785 1.0803332.508262s.1401864.8680532-.1701332 1.181738c-.0974763.088009-.2090589.158999-.33008.21-.1201938.0512424-.2492684.0784217-.37992.08z"/><path d="m49 27c-.2651301-.001884-.5193667-.1057271-.71-.29-.388201-.3913529-.3864983-1.0230467.0038069-1.4123011.3903051-.3892545 1.0220011-.3892545 1.4123062 0 .3903052.3892544.3920079 1.0209482.0038069 1.4123011-.19082.1839368-.444892.2877244-.70992.29z"/><path d="m52 29c-.0670976-.0023015-.1339732-.0089823-.2002-.02-.0625121-.0111224-.1230537-.0313579-.17969-.06006-.0639615-.02196-.1247151-.0523368-.18066-.09033-.0498-.03961-.09961-.07961-.14945-.11961-.04-.05029-.08008-.1001-.12012-.1499-.0380282-.0556791-.0682554-.1163019-.08984-.18018-.028856-.0567884-.049255-.1174902-.06055-.18018-.0113262-.06602-.01784-.1327758-.01949-.19974.001557-.1308074.0287642-.2600384.08008-.38037.0482524-.1222953.1195436-.2341852.21-.32959l.14941-.12012c.0559449-.0379932.1166985-.06837.18066-.09033.0565514-.0287715.1171142-.0488602.17965-.05959.1948544-.040864.3975978-.0200438.58008.05957.1211466.0509731.2327697.1221255.33012.21043.0904564.0954048.1617476.2072947.21.32959.0512934.1203496.0784735.2495945.08.38041-.0015105.0670098-.0083689.133792-.02051.19971-.0104891.062762-.0305813.1235342-.05957.18018-.02199.0637087-.0521911.124279-.08984.18018-.04.0498-.08008.09961-.12012.1499-.1918494.1823794-.4452876.285913-.70996.29003z"/><path d="m49 31c-.0670976-.0023015-.1339732-.0089823-.2002-.02-.0625121-.0111224-.1230537-.0313579-.17969-.06006-.0639615-.02196-.1247151-.0523368-.18066-.09033-.0498-.03961-.09961-.07961-.14945-.11961-.0882781-.0972712-.1592987-.2089021-.21-.33008-.0562696-.1185539-.0836833-.2487417-.08-.37992.0034639-.2648116.1070782-.518488.29-.71.0472494-.0431169.0971502-.0832353.14941-.12012.0559449-.0379932.1166985-.06837.18066-.09033.0565787-.0287652.1171689-.0488406.17973-.05955.1317466-.0302735.2686434-.0302735.40039 0 .0625115.0108673.1230664.0309422.17969.05957.0636509.0219762.1240818.0523547.17969.09033.0525959.036861.1028371.0769725.15043.1201.1825356.191762.2860852.4452802.29.71-.0016088.1306435-.0288152.2597042-.08008.37988-.0507013.1211779-.1217219.2328088-.21.33008-.0498.04-.10059.08008-.15039.11963-.0556082.0379753-.1160391.0683538-.17969.09033-.0566954.0285603-.1172159.0487888-.17969.06006-.0661524.011449-.1330406.0181395-.20015.02002z"/><path d="m52 33c-.2651301-.001884-.5193667-.1057271-.71-.29-.0882781-.0972712-.1592987-.2089021-.21-.33008-.0512424-.1201938-.0784217-.2492684-.08-.37992.0034639-.2648116.1070782-.518488.29-.71.291959-.2751133.7164413-.3570815 1.08984-.21045.1211622.0509751.2327992.1221346.33016.21045.1825356.191762.2860852.4452802.29.71-.0016088.1306435-.0288152.2597042-.08008.37988-.0507013.1211779-.1217219.2328088-.21.33008-.0974763.088009-.2090589.158999-.33008.21-.1201662.0512459-.2492127.0784386-.37984.08004z"/><path d="m49 35c-.0670976-.0023015-.1339732-.0089823-.2002-.02-.0625121-.0111224-.1230537-.0313579-.17969-.06006-.0639615-.02196-.1247151-.0523368-.18066-.09033-.0498-.03961-.09961-.07961-.14945-.11961-.0428635-.0476371-.0829689-.0976854-.12012-.1499-.0380282-.0556791-.0682554-.1163019-.08984-.18018-.028856-.0567884-.049255-.1174902-.06055-.18018-.0113262-.06602-.01784-.1327758-.01949-.19974-.0037035-.1313335.0237382-.261678.08008-.38037.0507098-.1210259.1217324-.2324942.21-.32959l.14941-.12012c.0559449-.0379932.1166985-.06837.18066-.09033.0565514-.0287715.1171142-.0488602.17965-.05959.3291815-.0621566.6681244.0383912.91016.27.0882676.0970958.1592902.2085641.21.32959.0513071.1203468.0785009.2495918.08004.38041-.0015105.0670098-.0083689.133792-.02051.19971-.0104891.062762-.0305813.1235342-.05957.18018-.02199.0637087-.0521911.124279-.08984.18018-.04.0498-.08008.09961-.12012.1499-.0498.04-.10059.08008-.15039.11963-.0556082.0379753-.1160391.0683538-.17969.09033-.0566954.0285603-.1172159.0487888-.17969.06006-.0661658.0114475-.1330674.0181347-.20019.02001z"/><path d="m52 37c-.0670976-.0023015-.1339732-.0089823-.2002-.02-.0625121-.0111224-.1230537-.0313579-.17969-.06006-.0639615-.02196-.1247151-.0523368-.18066-.09033-.0522704-.0367035-.1021852-.0766521-.14945-.11961-.3867201-.3943133-.3867201-1.0256067 0-1.41992.2896697-.2795516.7169136-.3620532 1.08984-.21045.1211565.0509509.2327931.122083.33016.21037.3867201.3943133.3867201 1.0256067 0 1.41992-.0974763.088009-.2090589.158999-.33008.21-.1201882.0512699-.249263.0784764-.37992.08008z"/><path d="m49 39c-.2651301-.001884-.5193667-.1057271-.71-.29-.388201-.3913529-.3864983-1.0230467.0038069-1.4123011.3903051-.3892545 1.0220011-.3892545 1.4123062 0 .3903052.3892544.3920079 1.0209482.0038069 1.4123011-.19082.1839368-.444892.2877244-.70992.29z"/><path d="m52 41c-.0670976-.0023015-.1339732-.0089823-.2002-.02-.0625121-.0111224-.1230537-.0313579-.17969-.06006-.0639615-.02196-.1247151-.0523368-.18066-.09033-.0498-.03961-.09961-.07961-.14945-.11961-.04-.05029-.08008-.1001-.12012-.1499-.0380282-.0556791-.0682554-.1163019-.08984-.18018-.028856-.0567884-.049255-.1174902-.06055-.18018-.0113262-.06602-.01784-.1327758-.01949-.19974.001557-.1308074.0287642-.2600384.08008-.38037.0948367-.2487659.2878426-.4475576.5336996-.5496986.2458571-.1021409.5229079-.0986336.7661004.0096986.1211424.0509548.2327652.1220868.33012.21037.0904564.0954048.1617476.2072947.21.32959.0512934.1203496.0784735.2495945.08.38041-.0015105.0670098-.0083689.133792-.02051.19971-.0104891.062762-.0305813.1235342-.05957.18018-.02199.0637087-.0521911.124279-.08984.18018-.04.0498-.08008.09961-.12012.1499-.1918494.1823794-.4452876.285913-.70996.29003z"/><path d="m49 43c-.2651301-.001884-.5193667-.1057271-.71-.29-.0882781-.0972712-.1592987-.2089021-.21-.33008-.0562696-.1185539-.0836833-.2487417-.08-.37992.0034639-.2648116.1070782-.518488.29-.71.0472494-.0431169.0971502-.0832353.14941-.12012.0559449-.0379932.1166985-.06837.18066-.09033.0565787-.0287652.1171689-.0488406.17973-.05955.1317466-.0302735.2686434-.0302735.40039 0 .0625115.0108673.1230664.0309422.17969.05957.0636509.0219762.1240818.0523547.17969.09033.0525959.036861.1028371.0769725.15043.1201.1825356.191762.2860852.4452802.29.71-.0016088.1306435-.0288152.2597042-.08008.37988-.0507013.1211779-.1217219.2328088-.21.33008-.1908137.1839515-.4448864.2877536-.70992.29004z"/></g><path d="m18 40h9c1.1045695 0 2 .8954305 2 2v4h-13v-4c0-1.1045695.8954305-2 2-2z" fill="#2c2f38"/><g fill="#f9eab0"><path d="m20.27734 14c-2.6387226 0-4.77783 2.1391074-4.77783 4.77783s2.1391074 4.77783 4.77783 4.77783c.03149 0 .06061-.00867.092-.00928l-2.80686 4.11182c-.1494766.2191066-.2057734.4886258-.1565018.7492467s.2000742.4909869.4192218.6404033c.1654587.1138568.3616522.1746576.5625.17432.3308619.000432.6405252-.1627949.82715-.436l4.77832-7c.0134451-.0278825.0254836-.0564217.03607-.08551.6605375-.8314201 1.0220818-1.8609283 1.02643-2.92279-.0031798-2.637606-2.1407237-4.7749441-4.77833-4.77787zm-2.77734 4.77783c0-1.1235719.6768496-2.1365005 1.7149137-2.5664271s2.2328967-.1921774 3.027312.602378c.7944152.7945554 1.0319536 1.98943.6018439 3.0274182s-1.4431577 1.7146591-2.5667296 1.7144609c-1.5332764-.0019234-2.7756871-1.2445533-2.77734-2.77783z"/><path d="m40.38281 14.07617c-.3736625-.1551118-.8039883-.0695078-1.08984.2168l-1.88867 1.88867c-.3904819.3904819-.3904819 1.0235781 0 1.41406s1.0235781.3904819 1.41406 0l.18164-.18164v10.80811c0 .5522847.4477153 1 1 1s1-.4477153 1-1v-13.22217c.0001499-.4044585-.2434833-.7691366-.61719-.92383z"/><path d="m34.5 20.5h-2.5v-2.5c0-.5522847-.4477153-1-1-1s-1 .4477153-1 1v2.5h-2.5c-.5522847 0-1 .4477153-1 1s.4477153 1 1 1h2.5v2.5c0 .5522847.4477153 1 1 1s1-.4477153 1-1v-2.5h2.5c.5522847 0 1-.4477153 1-1s-.4477153-1-1-1z"/></g></g></svg>