<?xml version="1.0" encoding="UTF-8" standalone="no"?>
<svg width="58px" height="58px" viewBox="0 0 58 58" version="1.1" xmlns="http://www.w3.org/2000/svg" xmlns:xlink="http://www.w3.org/1999/xlink">
    <!-- Generator: Sketch 40.1 (33804) - http://www.bohemiancoding.com/sketch -->
    <title>83 - Grid (user, interface, communication, flat)</title>
    <desc>Created with Sketch.</desc>
    <defs></defs>
    <g id="Page-1" stroke="none" stroke-width="1" fill="none" fill-rule="evenodd">
        <g id="Icons" transform="translate(-961.000000, -478.000000)">
            <g id="Grid" transform="translate(961.000000, 478.000000)">
                <polygon id="Fill-781" fill="#ECF0F1" points="0 0 58 0 58 58 0 58"></polygon>
                <polygon id="Fill-782" fill="#546A79" points="0 0 58 0 58 12 0 12"></polygon>
                <path d="M9,6 C9,7.657 7.657,9 6,9 C4.343,9 3,7.657 3,6 C3,4.343 4.343,3 6,3 C7.657,3 9,4.343 9,6" id="Fill-783" fill="#ED7161"></path>
                <path d="M18,6 C18,7.657 16.657,9 15,9 C13.343,9 12,7.657 12,6 C12,4.343 13.343,3 15,3 C16.657,3 18,4.343 18,6" id="Fill-784" fill="#F0C419"></path>
                <path d="M27,6 C27,7.657 25.657,9 24,9 C22.343,9 21,7.657 21,6 C21,4.343 22.343,3 24,3 C25.657,3 27,4.343 27,6" id="Fill-785" fill="#4FBA6F"></path>
                <polygon id="Fill-820" fill="#67B9CC" points="6 18 26 18 26 32 6 32"></polygon>
                <polygon id="Fill-821" fill="#F0C419" points="6 38 26 38 26 52 6 52"></polygon>
                <polygon id="Fill-822" fill="#9777A8" points="32 18 52 18 52 32 32 32"></polygon>
                <polygon id="Fill-823" fill="#ED7161" points="32 38 52 38 52 52 32 52"></polygon>
            </g>
        </g>
    </g>
</svg>