<svg height="58" viewBox="0 0 58 58" width="58" xmlns="http://www.w3.org/2000/svg"><g fill="none" fill-rule="evenodd"><path d="m54 0h-50c-2.209 0-4 1.791-4 4v16c0 1.105.895 2 2 2h1 52 1c1.105 0 2-.895 2-2v-16c0-2.209-1.791-4-4-4" fill="#525464"/><path d="m54 0h-2c2.209 0 4 1.791 4 4v16c0 1.105-.895 2-2 2h1 1c1.105 0 2-.895 2-2v-16c0-2.209-1.791-4-4-4" fill="#3e3f4b"/><path d="m56 42h-1-52-1c-1.105 0-2 .895-2 2v8c0 3.314 2.686 6 6 6h46c3.314 0 6-2.686 6-6v-8c0-1.105-.895-2-2-2" fill="#525464"/><path d="m56 42h-1-1c1.105 0 2 .895 2 2v8c0 3.314-2.686 6-6 6h2c3.314 0 6-2.686 6-6v-8c0-1.105-.895-2-2-2" fill="#3e3f4b"/><g fill="#707384"><path d="m6 53c0 .552-.448 1-1 1s-1-.448-1-1 .448-1 1-1 1 .448 1 1"/><path d="m10 53c0 .552-.448 1-1 1s-1-.448-1-1 .448-1 1-1 1 .448 1 1"/><path d="m14 53c0 .552-.448 1-1 1s-1-.448-1-1 .448-1 1-1 1 .448 1 1"/><path d="m53 48h-48c-1.105 0-2-.895-2-2v-32c0-1.105.895-2 2-2h48c1.105 0 2 .895 2 2v32c0 1.105-.895 2-2 2"/></g><path d="m53 12h-2c1.105 0 2 .895 2 2v32c0 1.105-.895 2-2 2h2c1.105 0 2-.895 2-2v-32c0-1.105-.895-2-2-2" fill="#383a42"/><path d="m4 0h2c-2.209 0-4 1.791-4 4v16c0 1.105.895 2 2 2h-1-1c-1.105 0-2-.895-2-2v-16c0-2.209 1.791-4 4-4" fill="#9798a2"/><path d="m2 42h1 1c-1.105 0-2 .895-2 2v8c0 3.314 2.686 6 6 6h-2c-3.314 0-6-2.686-6-6v-8c0-1.105.895-2 2-2" fill="#9798a2"/><path d="m5 12h2c-1.105 0-2 .895-2 2v32c0 1.105.895 2 2 2h-2c-1.105 0-2-.895-2-2v-32c0-1.105.895-2 2-2" fill="#a9abb5"/><path d="m50 8h-7.382c-.743 0-1.227-.782-.894-1.447l1-2c.169-.339.515-.553.894-.553h6.382c.552 0 1 .448 1 1v2c0 .552-.448 1-1 1" fill="#f0c419"/><path d="m36 39h-14c-1.105 0-2-.895-2-2v-14c0-1.105.895-2 2-2h14c1.105 0 2 .895 2 2v14c0 1.105-.895 2-2 2" fill="#556080"/><path d="m22 22c-.551 0-1 .449-1 1v14c0 .551.449 1 1 1h14c.551 0 1-.449 1-1v-14c0-.551-.449-1-1-1zm14 18h-14c-1.654 0-3-1.346-3-3v-14c0-1.654 1.346-3 3-3h14c1.654 0 3 1.346 3 3v14c0 1.654-1.346 3-3 3z" fill="#8697cb"/><path d="m34 30c0 2.761-2.239 5-5 5s-5-2.239-5-5 2.239-5 5-5 5 2.239 5 5" fill="#fff"/><path d="m11 20h-2c-.552 0-1-.448-1-1v-2c0-.552.448-1 1-1h2c.552 0 1 .448 1 1v2c0 .552-.448 1-1 1" fill="#464656"/><path d="m49 22h-6c-.552 0-1-.448-1-1v-4c0-.552.448-1 1-1h6c.552 0 1 .448 1 1v4c0 .552-.448 1-1 1" fill="#464656"/><path d="m49 16h-.667l-6.333 4.75v.25c0 .552.448 1 1 1h.667l6.333-4.75v-.25c0-.552-.448-1-1-1" fill="#525464"/></g></svg>