<?xml version="1.0" encoding="UTF-8"?>
<svg width="58px" height="52px" viewBox="0 0 58 52" version="1.1" xmlns="http://www.w3.org/2000/svg" xmlns:xlink="http://www.w3.org/1999/xlink">
    <!-- Generator: Sketch 47.1 (45422) - http://www.bohemiancoding.com/sketch -->
    <title>Tools - Flat - 025 - Workbench</title>
    <desc>Created with Sketch.</desc>
    <defs></defs>
    <g id="Page-1" stroke="none" stroke-width="1" fill="none" fill-rule="evenodd">
        <g id="Tools---Flat---025---Workbench" fill-rule="nonzero">
            <rect id="Rectangle-path" fill="#95A5A5" x="49.99994" y="5.99991" width="4" height="6.77"></rect>
            <path d="M51,0 L53,0 C54.1045695,0 55,0.8954305 55,2 L55,5 L49,5 L49,2 C49,0.8954305 49.8954305,0 51,0 Z" id="Shape" fill="#95A5A5"></path>
            <path d="M7,0 L5,0 C3.8954305,0 3,0.8954305 3,2 L3,5 L9,5 L9,2 C9,0.8954305 8.1045695,0 7,0 Z" id="Shape" fill="#95A5A5"></path>
            <rect id="Rectangle-path" fill="#95A5A5" x="4" y="7.375" width="4" height="5.395"></rect>
            <path d="M1,21 C0.595604102,20.9999137 0.23106595,20.7562725 0.0763220219,20.3826546 C-0.078421906,20.0090366 0.00709208442,19.5789943 0.293,19.293 L3.17288,16.41312 C3.42547749,16.1605225 3.79364635,16.061872 4.13870094,16.1543291 C4.48375553,16.2467862 4.75327384,16.5163045 4.84573094,16.8613591 C4.93818804,17.2064136 4.83953749,17.5745825 4.58694,17.82718 L1.707,20.707 C1.51970976,20.8948521 1.26526582,21.0003006 1,21 Z" id="Shape" fill="#7F8C8D"></path>
            <path d="M57,21 C56.7347342,21.0003006 56.4802902,20.8948521 56.293,20.707 L53.41312,17.82712 C53.1605225,17.5745225 53.061872,17.2063536 53.1543291,16.8612991 C53.2467862,16.5162445 53.5163045,16.2467262 53.8613591,16.1542691 C54.2064136,16.061812 54.5745825,16.1604625 54.82718,16.41306 L57.707,19.293 C57.9929079,19.5789943 58.0784219,20.0090366 57.923678,20.3826546 C57.7689341,20.7562725 57.4043959,20.9999137 57,21 Z" id="Shape" fill="#7F8C8D"></path>
            <rect id="Rectangle-path" fill="#CB9080" x="15.0719" y="15" width="27.9281" height="4"></rect>
            <path d="M47.68458,38 L10.3149,38 C9.94130591,38.0255727 9.58461201,37.8407634 9.39003913,37.5208136 C9.19546625,37.2008638 9.19546625,36.7991362 9.39003913,36.4791864 C9.58461201,36.1592366 9.94130591,35.9744273 10.3149,36 L47.68458,36 C48.0581741,35.9744273 48.414868,36.1592366 48.6094409,36.4791864 C48.8040138,36.7991362 48.8040138,37.2008638 48.6094409,37.5208136 C48.414868,37.8407634 48.0581741,38.0255727 47.68458,38 L47.68458,38 Z" id="Shape" fill="#CB9080"></path>
            <path d="M50.92925,48 L7.07075,48 C6.69715591,48.0255727 6.34046201,47.8407634 6.14588913,47.5208136 C5.95131625,47.2008638 5.95131625,46.7991362 6.14588913,46.4791864 C6.34046201,46.1592366 6.69715591,45.9744273 7.07075,46 L50.92925,46 C51.3028441,45.9744273 51.659538,46.1592366 51.8541109,46.4791864 C52.0486838,46.7991362 52.0486838,47.2008638 51.8541109,47.5208136 C51.659538,47.8407634 51.3028441,48.0255727 50.92925,48 Z" id="Shape" fill="#CB9080"></path>
            <rect id="Rectangle-path" fill="#AF8066" x="0" y="4" width="58" height="4" rx="1"></rect>
            <circle id="Oval" fill="#BDC3C7" cx="6" cy="15" r="3"></circle>
            <circle id="Oval" fill="#BDC3C7" cx="52" cy="15" r="3"></circle>
            <path d="M17,6 L17,19 L7.41,50.64 C7.16771653,51.4480312 6.42357255,52.0010563 5.58,52 L5.57,52 C4.96626514,52.0007913 4.39803292,51.714817 4.03895615,51.2294715 C3.67987938,50.7441259 3.57263608,50.1170948 3.75,49.54 L13,19 L13,6 L17,6 Z" id="Shape" fill="#AF8066"></path>
            <path d="M52.43,52 L52.42,52 C51.5764274,52.0010563 50.8322835,51.4480312 50.59,50.64 L41,19 L41,6 L45,6 L45,19 L54.25,49.54 C54.4273639,50.1170948 54.3201206,50.7441259 53.9610438,51.2294715 C53.6019671,51.714817 53.0337349,52.0007913 52.43,52 Z" id="Shape" fill="#AF8066"></path>
        </g>
    </g>
</svg>