<svg height="60" viewBox="0 0 60 60" width="60" xmlns="http://www.w3.org/2000/svg"><g style="stroke:#000;stroke-width:2;fill:none;fill-rule:evenodd;stroke-linecap:round;stroke-linejoin:round" transform="translate(1)"><path d="m45 19.65v23.35c0 8.836556-7.163444 16-16 16s-16-7.163444-16-16v-23.35"/><path d="m49 14c-.0006156 2.5432383-1.6041682 4.809944-4.0021248 5.6572134-2.3979567.8472694-5.0695775.0911096-6.6677952-1.8872134-1.0660078 1.3205276-2.6416185 2.1275475-4.3361511 2.220955s-3.3492982-.5355449-4.5539889-1.730905c-.15994-.16005-.29994-.32005-.43994-.49005-1.1379973 1.4102711-2.8528859 2.2300452-4.66504 2.2300452s-3.5270427-.8197741-4.66504-2.2300452c-1.6581642 2.053056-4.462953 2.781932-6.9108754 1.7959182-2.4479224-.9860139-3.96442692-3.4554904-3.73659996-6.0846809.22782695-2.6291904 2.14651216-4.80099785 4.72755536-5.3512373-.8624786-2.77062884.5775748-5.73439581 3.2887796-6.76862124 2.7112048-1.03422542 5.7593049.21747516 6.9612204 2.85862124.8910537-1.96093045 2.846114-3.21998239 5-3.21998239s4.1089463 1.25905194 5 3.21998239c1.2000857-2.64409508 4.2500447-3.89833129 6.9630505-2.86341882 2.7130058 1.03491246 4.1527572 4.00180891 3.2869495 6.77341882 2.7673401.59518159 4.7451867 3.0393836 4.75 5.87z"/><path d="m33 42c0 2.209139-1.790861 4-4 4s-4-1.790861-4-4"/><path d="m29 46v13"/><circle cx="22" cy="28" r="3"/><circle cx="36" cy="28" r="3"/><path d="m57.88164 31.25252c-.0517516.4585059-.4135941.8203484-.8721.8721-1.8696.21107-6.71425.44918-9.42586-2.26243-3.40944-3.40944-2.15558-10.19111-2.15558-10.19111s6.78167-1.25387 10.19111 2.15558c2.71161 2.7116 2.4735 7.55626 2.26243 9.42586z"/><path d="m.11836 31.25252c.05175163.4585059.41359413.8203484.8721.8721 1.8696.21107 6.71425.44918 9.42586-2.26243 3.40944-3.40944 2.15558-10.19111 2.15558-10.19111s-6.78167-1.25387-10.19111 2.15558c-2.71161 2.7116-2.4735 7.55626-2.26243 9.42586z"/></g></svg>