<svg height="52" viewBox="0 0 60 52" width="60" xmlns="http://www.w3.org/2000/svg"><path d="m58 46.18427v-43.18427c-.0018077-1.65610489-1.3438951-2.99819229-3-3h-50c-1.65610489.00180771-2.99819229 1.34389511-3 3v43.18427c-1.37724728.4842116-2.20411397 1.891519-1.95672063 3.3302919.24739335 1.4387729 1.49683784 2.4890638 2.95672063 2.4854381h54c1.4598828.0036257 2.7093273-1.0466652 2.9567206-2.4854381.2473934-1.4387729-.5794733-2.8460803-1.9567206-3.3302919zm-54-43.18427c.00055123-.55205626.44794374-.99944877 1-1h50c.5520563.00055123.9994488.44794374 1 1v43h-25v-3c-.0018077-1.6561049-1.3438951-2.9981923-3-3h-9c-1.6561049.0018077-2.9981923 1.3438951-3 3v3h-12zm25 43h-11v-3c.0005512-.5520563.4479437-.9994488 1-1h9c.5520563.0005512.9994488.4479437 1 1zm28 4h-54c-.55228475 0-1-.4477153-1-1s.44771525-1 1-1h54c.5522847 0 1 .4477153 1 1s-.4477153 1-1 1z"/><path d="m6.62012 4.07959c-.38082349.14444785-.62927779.5132149-.62012.92041.00160881.13064347.02881525.25970417.08008.37988.05067302.12118638.12166651.23283067.20992.33012.19176204.18253559.44528015.28608525.71.29.4040437-.00095649.76746662-.24594064.91992-.62012.05126475-.12017583.07847119-.24923653.08008-.37988-.00306828-.26680148-.11071836-.52174331-.2998-.71-.28576633-.2794137-.71032621-.36212205-1.08008-.21041z"/><path d="m10 8c.0635675-.00182817.1269021-.00851433.18945-.02.0663037-.00960406.1306136-.02988683.19043-.06006.0636509-.02197619.1240818-.05235473.17969-.09033.0525933-.03668768.1028351-.07663601.15043-.11961.3867201-.39431326.3867201-1.02560674 0-1.41992-.0498-.04-.10059-.08008-.15039-.12012-.0556082-.03797527-.1160391-.06835381-.17969-.09033-.0597537-.03023117-.1241005-.05036004-.19043-.05957-.32582271-.06069141-.66088406.03989293-.89941.27-.2884058.28608616-.37508487.71821461-.21932018 1.09339532.1557647.3751807.52301624.61884966.92924018.61654468z"/><path d="m6.62012 8.07959c-.38082349.14444785-.62927779.5132149-.62012.92041.00160881.13064347.02881525.25970417.08008.37988.0507013.12117794.12172189.23280878.21.33008.19173569.18253159.44522246.28609439.70992.29004.4040437-.00095649.76746662-.24594064.91992-.62012.05126475-.12017583.07847119-.24923653.08008-.37988-.00306828-.26680148-.11071836-.52174331-.2998-.71-.28576633-.2794137-.71032621-.36212205-1.08008-.21041z"/><path d="m10.91992 10.61963c-.0220982-.0635094-.0522938-.1239041-.08984-.17969-.04-.05029-.08008-.1001-.12012-.1499-.0498-.04-.10059-.08008-.15039-.12012-.0556082-.0379753-.1160391-.0683538-.17969-.09033-.0597537-.0302312-.1241005-.05036-.19043-.05957-.32582271-.06069141-.66088406.0398929-.89941.27-.04309578.0474393-.08321255.0975018-.12012.1499-.03792522.055564-.0681468.1160105-.08984.17969-.03040094.0597631-.05085267.1240839-.06055.19043-.01135796.0627274-.01788712.1262338-.01953.18996-.00258562.2660007.10194072.5218597.29004051.7099595.1880998.1880998.44395877.2926261.70995949.2900405.0635675-.0018282.1269021-.0085143.18945-.02.0663037-.0096041.1306136-.0298868.19043-.06006.0636509-.0219762.1240818-.0523547.17969-.09033.0498-.03955.10059-.07959.15039-.11963.1824666-.1918019.2860172-.4452805.29004-.70998-.0014893-.063777-.0083503-.1273152-.02051-.18994-.0089101-.0663964-.0290543-.1307923-.05957-.19043z"/><path d="m6.62012 12.07959c-.38082349.1444478-.62927779.5132149-.62012.92041.00160881.1306435.02881525.2597042.08008.37988.0507013.1211779.12172189.2328088.21.33008.19173569.1825316.44522246.2860944.70992.29004.4040437-.0009565.76746662-.2459406.91992-.62012.05126475-.1201758.07847119-.2492365.08008-.37988-.00306828-.2668015-.11071836-.5217433-.2998-.71-.28576633-.2794137-.71032621-.3621221-1.08008-.21041z"/><path d="m10.55957 14.16992c-.0556082-.0379753-.1160391-.0683538-.17969-.09033-.0597537-.0302312-.1241005-.05036-.19043-.05957-.32607564-.0657419-.66345454.0355382-.89941.27-.38672008.3943133-.38672008 1.0256067 0 1.41992.19061385.1842853.44483539.2881496.70996.29006.0635675-.0018282.1269021-.0085143.18945-.02.0663037-.0096041.1306136-.0298868.19043-.06006.0636509-.0219762.1240818-.0523547.17969-.09033.0498-.03955.10059-.07959.15039-.11963.3867201-.3943133.3867201-1.0256067 0-1.41992-.0475788-.0431399-.0978067-.0832647-.15039-.12014z"/><path d="m6.62012 16.07959c-.38082349.1444478-.62927779.5132149-.62012.92041.00160881.1306435.02881525.2597042.08008.37988.0507013.1211779.12172189.2328088.21.33008.19173569.1825316.44522246.2860944.70992.29004.4040437-.0009565.76746662-.2459406.91992-.62012.05126475-.1201758.07847119-.2492365.08008-.37988-.00306828-.2668015-.11071836-.5217433-.2998-.71-.28576633-.2794137-.71032621-.3621221-1.08008-.21041z"/><path d="m10.55957 18.16992c-.0556082-.0379753-.1160391-.0683538-.17969-.09033-.0597537-.0302312-.1241005-.05036-.19043-.05957-.32582271-.0606914-.66088406.0398929-.89941.27-.28844012.2860873-.37513522.7182444-.21935649 1.0934466.15577872.3752021.52306756.6188713.92931649.6165334.0635675-.0018282.1269021-.0085143.18945-.02.0663037-.0096041.1306136-.0298868.19043-.06006.0636509-.0219762.1240818-.0523547.17969-.09033.0525933-.0366877.1028351-.076636.15043-.11961.3867201-.3943133.3867201-1.0256067 0-1.41992-.04984-.04008-.10062-.08008-.15043-.12016z"/><path d="m6.62012 20.07959c-.38082349.1444478-.62927779.5132149-.62012.92041.00160881.1306435.02881525.2597042.08008.37988.0507013.1211779.12172189.2328088.21.33008.19173569.1825316.44522246.2860944.70992.29004.4040437-.0009565.76746662-.2459406.91992-.62012.05126475-.1201758.07847119-.2492365.08008-.37988-.00306828-.2668015-.11071836-.5217433-.2998-.71-.28576633-.2794137-.71032621-.3621221-1.08008-.21041z"/><path d="m10.91992 22.61963c-.0220982-.0635094-.0522938-.1239041-.08984-.17969-.04-.05029-.08008-.1001-.12012-.1499-.0498-.04-.10059-.08008-.15039-.12012-.0556082-.0379753-.1160391-.0683538-.17969-.09033-.0597537-.0302312-.1241005-.05036-.19043-.05957-.32582271-.0606914-.66088406.0398929-.89941.27-.04309578.0474393-.08321255.0975018-.12012.1499-.03792522.055564-.0681468.1160105-.08984.17969-.03040094.0597631-.05085267.1240839-.06055.19043-.01135796.0627274-.01788712.1262338-.01953.18996-.00258562.2660007.10194072.5218597.29004051.7099595.1880998.1880998.44395877.2926261.70995949.2900405.0635675-.0018282.1269021-.0085143.18945-.02.0663037-.0096041.1306136-.0298868.19043-.06006.0636509-.0219762.1240818-.0523547.17969-.09033.0498-.03955.10059-.07959.15039-.11963.1824666-.1918019.2860172-.4452805.29004-.70998-.0014893-.063777-.0083503-.1273152-.02051-.18994-.0089101-.0663964-.0290543-.1307923-.05957-.19043z"/><path d="m6.62012 24.07959c-.38082349.1444478-.62927779.5132149-.62012.92041.00160881.1306435.02881525.2597042.08008.37988.0507013.1211779.12172189.2328088.21.33008.19173569.1825316.44522246.2860944.70992.29004.4040437-.0009565.76746662-.2459406.91992-.62012.05126475-.1201758.07847119-.2492365.08008-.37988-.00306828-.2668015-.11071836-.5217433-.2998-.71-.28576633-.2794137-.71032621-.3621221-1.08008-.21041z"/><path d="m10.71 26.29c-.0475794-.043133-.0978072-.0832512-.15039-.12012-.0556082-.0379753-.1160391-.0683538-.17969-.09033-.0597537-.0302312-.1241005-.05036-.19043-.05957-.32607564-.0657419-.66345454.0355382-.89941.27-.38672008.3943133-.38672008 1.0256067 0 1.41992.19059756.1842904.4448037.2881686.70992.2901.0635675-.0018282.1269021-.0085143.18945-.02.0663037-.0096041.1306136-.0298868.19043-.06006.0636509-.0219762.1240818-.0523547.17969-.09033.0498-.03955.10059-.07959.15039-.11963.1824666-.1918019.2860172-.4452805.29004-.70998-.001557-.1308074-.0287642-.2600384-.08008-.38037-.0506815-.1210344-.121677-.2325161-.20992-.32963z"/><path d="m6.62012 28.07959c-.30885231.1270518-.53400005.3997623-.60027507.7270841s.0350532.6661361.27015507.9033259c.19176204.1825356.44528015.2860852.71.29.26214694-.0023489.51315868-.1063098.7002-.29.04593227-.0476177.0892874-.0976557.12988-.1499.03764886-.055901.06784998-.1164713.08984-.18018.02898871-.0566458.04908086-.117418.05957-.18018.01165599-.0659967.01851063-.1327517.02051-.19974-.00306828-.2668015-.11071836-.5217433-.2998-.71-.28576633-.2794137-.71032621-.3621221-1.08008-.21041z"/><path d="m10.55957 30.16992c-.0556082-.0379753-.1160391-.0683538-.17969-.09033-.0597537-.0302312-.1241005-.05036-.19043-.05957-.32582271-.0606914-.66088406.0398929-.89941.27-.28844012.2860873-.37513522.7182444-.21935649 1.0934466.15577872.3752021.52306756.6188713.92931649.6165334.0635675-.0018282.1269021-.0085143.18945-.02.0663037-.0096041.1306136-.0298868.19043-.06006.0636509-.0219762.1240818-.0523547.17969-.09033.0525933-.0366877.1028351-.076636.15043-.11961.3867201-.3943133.3867201-1.0256067 0-1.41992-.04984-.04008-.10062-.08008-.15043-.12016z"/><path d="m6.62012 32.07959c-.30885231.1270518-.53400005.3997623-.60027507.7270841s.0350532.6661361.27015507.9033259c.19176204.1825356.44528015.2860852.71.29.26214694-.0023489.51315868-.1063098.7002-.29.04593227-.0476177.0892874-.0976557.12988-.1499.03764886-.055901.06784998-.1164713.08984-.18018.02898871-.0566458.04908086-.117418.05957-.18018.01165599-.0659967.01851063-.1327517.02051-.19974-.00306828-.2668015-.11071836-.5217433-.2998-.71-.28576633-.2794137-.71032621-.3621221-1.08008-.21041z"/><path d="m10.91992 34.61963c-.0220982-.0635094-.0522938-.1239041-.08984-.17969-.04-.05029-.08008-.1001-.12012-.1499-.0498-.04-.10059-.08008-.15039-.12012-.0556082-.0379753-.1160391-.0683538-.17969-.09033-.0597537-.0302312-.1241005-.05036-.19043-.05957-.32582271-.0606914-.66088406.0398929-.89941.27-.04309578.0474393-.08321255.0975018-.12012.1499-.03792522.055564-.0681468.1160105-.08984.17969-.03040094.0597631-.05085267.1240839-.06055.19043-.01135796.0627274-.01788712.1262338-.01953.18996-.00258562.2660007.10194072.5218597.29004051.7099595.1880998.1880998.44395877.2926261.70995949.2900405.0635675-.0018282.1269021-.0085143.18945-.02.0663037-.0096041.1306136-.0298868.19043-.06006.0636509-.0219762.1240818-.0523547.17969-.09033.0498-.03955.10059-.07959.15039-.11963.1824666-.1918019.2860172-.4452805.29004-.70998-.0014893-.063777-.0083503-.1273152-.02051-.18994-.0089101-.0663964-.0290543-.1307923-.05957-.19043z"/><path d="m6.62012 36.07959c-.30885231.1270518-.53400005.3997623-.60027507.7270841s.0350532.6661361.27015507.9033259c.19176204.1825356.44528015.2860852.71.29.26214694-.0023489.51315868-.1063098.7002-.29.04593227-.0476177.0892874-.0976557.12988-.1499.03764886-.055901.06784998-.1164713.08984-.18018.02898871-.0566458.04908086-.117418.05957-.18018.01165599-.0659967.01851063-.1327517.02051-.19974-.00306828-.2668015-.11071836-.5217433-.2998-.71-.28576633-.2794137-.71032621-.3621221-1.08008-.21041z"/><path d="m10.71 38.29c-.0475794-.043133-.0978072-.0832512-.15039-.12012-.0556082-.0379753-.1160391-.0683538-.17969-.09033-.0597537-.0302312-.1241005-.05036-.19043-.05957-.32607564-.0657419-.66345454.0355382-.89941.27-.38672008.3943133-.38672008 1.0256067 0 1.41992.19059756.1842904.4448037.2881686.70992.2901.0635675-.0018282.1269021-.0085143.18945-.02.0663037-.0096041.1306136-.0298868.19043-.06006.0636509-.0219762.1240818-.0523547.17969-.09033.0498-.03955.10059-.07959.15039-.11963.1824666-.1918019.2860172-.4452805.29004-.70998-.001557-.1308074-.0287642-.2600384-.08008-.38037-.0506815-.1210344-.121677-.2325161-.20992-.32963z"/><path d="m6.62012 40.07959c-.30885231.1270518-.53400005.3997623-.60027507.7270841s.0350532.6661361.27015507.9033259c.19176204.1825356.44528015.2860852.71.29.26214694-.0023489.51315868-.1063098.7002-.29.04593227-.0476177.0892874-.0976557.12988-.1499.03764886-.055901.06784998-.1164713.08984-.18018.02898871-.0566458.04908086-.117418.05957-.18018.01165599-.0659967.01851063-.1327517.02051-.19974-.00306828-.2668015-.11071836-.5217433-.2998-.71-.28576633-.2794137-.71032621-.3621221-1.08008-.21041z"/><path d="m9.62012 42.07959c-.12367067.0460239-.23618274.1177362-.33012.21041-.28845995.2860905-.37516186.7182668-.21937095 1.0934815s.52310588.6188811.92937095.6165185c.0635675-.0018282.1269021-.0085143.18945-.02.0663037-.0096041.1306136-.0298868.19043-.06006.0636509-.0219762.1240818-.0523547.17969-.09033.0525933-.0366877.1028351-.076636.15043-.11961.0882781-.0972712.1592987-.2089021.21-.33008.0512424-.1201938.0784217-.2492684.08-.37992-.0039148-.2647198-.1074644-.518238-.29-.71-.28779-.2831823-.71735946-.3661141-1.08988-.21041z"/><path d="m52.43945 5.82959c.0559449.03799325.1166985.06837004.18066.09033.0566352.02870898.1171768.0489513.17969.06008.0662268.01101766.1331024.01769855.2002.02.2660007.00258562.5218597-.10194072.7099595-.29004051.1880998-.1880998.2926261-.44395877.2900405-.70995949-.001557-.13080741-.0287642-.26003839-.08008-.38037-.0482239-.12230311-.119488-.23420651-.20992-.32963-.0973367-.08830779-.2089461-.15946689-.33008-.21045-.2431925-.10833217-.5202433-.11183955-.7661004-.00969859-.245857.10214095-.4388629.30093268-.5336996.54969859-.0513397.12035366-.0785608.24961293-.08012.38045.003556.26479291.1071571.51843693.29.71.0472654.04295104.0971802.0828929.14945.11959z"/><path d="m49.29 7.71c.0498.04.09961.08008.14941.11963.0559449.03799325.1166985.06837004.18066.09033.0566363.02870206.1171779.04893763.17969.06006.0662405.01101269.1331295.0176869.20024.01998.0671257-.00187155.1340307-.00855536.2002-.02.0624741-.01127117.1229946-.03149967.17969-.06006.0636509-.02197619.1240818-.05235473.17969-.09033.0498-.03955.10059-.07959.15039-.11963.0882781-.09727122.1592987-.20890206.21-.33008.0512501-.12018551.0784396-.24925313.08003-.3799-.0014854-.0671736-.0083439-.13412061-.02051-.2002-.0104891-.06276197-.0305813-.12353424-.05957-.18018-.0220982-.06350944-.0522938-.12390413-.08984-.17969-.04-.05029-.08008-.1001-.12012-.1499-.0498-.04-.10059-.08008-.15039-.12012-.0556082-.03797527-.1160391-.06835381-.17969-.09033-.0566199-.02863031-.1171714-.04870857-.17968-.05958-.1317466-.03027348-.2686434-.03027348-.40039 0-.0625485.01071961-.123125.03080165-.17969.05957-.0639615.02195996-.1247151.05233675-.18066.09033l-.14946.1201c-.0430958.0474393-.0832126.09750177-.12012.1499-.0379252.05556396-.0681468.11601048-.08984.17969-.028856.05678838-.049255.11749021-.06055.18018-.01135.06618154-.0178639.13310196-.01949.20023-.0036521.13117126.023789.26134494.08008.37988.050673.12118638.1216665.23283067.20992.33012z"/><path d="m52.29 9.71c.0498.04.09961.08008.14941.11963.0559449.03799325.1166985.06837004.18066.09033.0566363.02870206.1171779.04893763.17969.06006.0662405.01101269.1331295.0176869.20024.01998.2646822-.00409891.5181359-.10762223.71-.29.0882781-.09727122.1592987-.20890206.21-.33008.1067698-.24217057.1067698-.51807943 0-.76025-.0914283-.25090914-.2890909-.44857175-.54-.54-.3734213-.14673105-.7979835-.06480612-1.09.21033-.0882676.0970958-.1592902.20856407-.21.32959-.1067698.24217057-.1067698.51807943 0 .76025.0506933.12120622.1217142.23286468.21.33016z"/><path d="m49.43945 11.82959c.0559449.0379932.1166985.06837.18066.09033.0566363.0287021.1171779.0489376.17969.06006.0662264.0110244.133102.0177119.2002.02002.0671257-.0018715.1340307-.0085554.2002-.02.0624741-.0112712.1229946-.0314997.17969-.06006.0636509-.0219762.1240818-.0523547.17969-.09033.0525898-.036688.1028283-.0766363.15042-.11961.1824566-.1918131.2859931-.445299.29-.71-.001557-.1308074-.0287642-.2600384-.08008-.38037-.0507098-.1210259-.1217324-.2324942-.21-.32959-.2420356-.2316088-.5809785-.33215663-.91016-.27-.0625485.0107196-.123125.0308016-.17969.05957-.0639615.02196-.1247151.0523368-.18066.09033l-.14941.12006c-.0882676.0970958-.1592902.2085641-.21.32959-.0563205.1187109-.0837348.2490695-.08.38041.003556.2647929.1071571.5184369.29.71.0472654.042951.0971802.0828929.14945.11959z"/><path d="m52.08008 13.37988c.0215846.0638781.0518118.1245009.08984.18018.04.0498.08008.09961.12012.1499.190617.184278.4448382.288135.70996.29004.1306435-.0016088.2597042-.0288152.37988-.08008.1210211-.051001.2326037-.121991.33008-.21.04-.05029.08008-.1001.12012-.1499.0376489-.055901.06785-.1164713.08984-.18018.0304453-.059493.0505872-.1237158.05957-.18994.0121317-.0626156.0189924-.1261381.02051-.1899.0025649-.3012297-.1317051-.5873489-.3650412-.777875-.2333362-.1905261-.5405256-.264872-.8351588-.202125-.0625485.0107196-.123125.0308016-.17969.05957-.0639615.02196-.1247151.0523368-.18066.09033-.052273.0368769-.1021871.0769886-.14945.1201-.1829218.191512-.2865361.4451884-.29.71.0016688.063718.0081978.1272157.01953.18994.0097711.066173.0302204.1303208.06055.18994z"/><path d="m50 16c.2650558-.0022552.51916-.1060442.71-.29.388201-.3913529.3864983-1.0230467-.0038069-1.4123011-.3903051-.3892545-1.0220011-.3892545-1.4123062 0-.3903052.3892544-.3920079 1.0209482-.0038069 1.4123011.1906133.1842538.4448176.2880955.70992.29z"/><path d="m52.08008 17.37988c.0215846.0638781.0518118.1245009.08984.18018.04.0498.08008.09961.12012.1499.0498.04.09961.08008.14941.11963.0559449.0379932.1166985.06837.18066.09033.0566363.0287021.1171779.0489376.17969.06006.0662264.0110244.133102.0177119.2002.02002.1306435-.0016088.2597042-.0288152.37988-.08008.1210211-.051001.2326037-.121991.33008-.21.04-.05029.08008-.1001.12012-.1499.0376489-.055901.06785-.1164713.08984-.18018.0289887-.0566458.0490809-.117418.05957-.18018.0121384-.0659016.0189969-.1326669.02051-.19966-.001557-.1308074-.0287642-.2600384-.08008-.38037-.0482524-.1222953-.1195436-.2341852-.21-.32959-.0973367-.0883078-.2089461-.1594669-.33008-.21045-.1824682-.0796121-.3851963-.1004392-.58004-.05959-.0625485.0107196-.123125.0308016-.17969.05957-.0639615.02196-.1247151.0523368-.18066.09033l-.14945.1201c-.0904564.0954048-.1617476.2072947-.21.32959-.0512934.1203496-.0784735.2495945-.08.38041.0016647.0669551.0081918.1337008.01953.19971.0112959.0626864.0316949.1233848.06055.18017z"/><path d="m49.29 19.71c.0498.04.09961.08008.14941.11963.0559449.0379932.1166985.06837.18066.09033.0566363.0287021.1171779.0489376.17969.06006.0662405.0110127.1331295.0176869.20024.01998.0671257-.0018715.1340307-.0085554.2002-.02.0624741-.0112712.1229946-.0314997.17969-.06006.0636509-.0219762.1240818-.0523547.17969-.09033.0498-.03955.10059-.07959.15039-.11963.0882781-.0972712.1592987-.2089021.21-.33008.0512501-.1201855.0784396-.2492531.08003-.3799-.0039148-.2647198-.1074644-.518238-.29-.71-.0475794-.043133-.0978072-.0832512-.15039-.12012-.0556082-.0379753-.1160391-.0683538-.17969-.09033-.0566341-.0286237-.1171993-.0486919-.17972-.05955-.1317466-.0302735-.2686434-.0302735-.40039 0-.0625485.0107196-.123125.0308016-.17969.05957-.0639615.02196-.1247151.0523368-.18066.09033-.0522764.0368766-.1021939.0769883-.14946.1201-.1829218.191512-.2865361.4451884-.29.71-.0036521.1311713.023789.2613449.08008.37988.050673.1211864.1216665.2328307.20992.33012z"/><path d="m53 22c.1306435-.0016088.2597042-.0288152.37988-.08008.1210211-.051001.2326037-.121991.33008-.21.1824526-.1917868.2860022-.4452413.29004-.70992-.001557-.1308074-.0287642-.2600384-.08008-.38037-.0914283-.2509091-.2890909-.4485717-.54-.54-.3729334-.1516588-.8002174-.069187-1.08992.21037-.0882676.0970958-.1592902.2085641-.21.32959-.0512934.1203496-.0784735.2495945-.08.38041.003556.2647929.1071571.5184369.29.71.1906333.1842729.4448699.288116.71.29z"/><path d="m49.08008 23.37988c.0215846.0638781.0518118.1245009.08984.18018.0371369.0522273.077229.1022889.12008.14994.0498.04.09961.08008.14941.11963.0559449.0379932.1166985.06837.18066.09033.0566363.0287021.1171779.0489376.17969.06006.0662405.0110127.1331295.0176869.20024.01998.0671257-.0018715.1340307-.0085554.2002-.02.0624741-.0112712.1229946-.0314997.17969-.06006.0636509-.0219762.1240818-.0523547.17969-.09033.0498-.03955.10059-.07959.15039-.11963.04-.05029.08008-.1001.12012-.1499.0376489-.055901.06785-.1164713.08984-.18018.0289887-.0566458.0490809-.117418.05957-.18018.0121382-.0659216.0189934-.1327071.0205-.19972-.001557-.1308074-.0287642-.2600384-.08008-.38037-.0507098-.1210259-.1217324-.2324942-.21-.32959-.2420356-.2316088-.5809785-.3321566-.91016-.27-.0625485.0107196-.123125.0308016-.17969.05957-.0639615.02196-.1247151.0523368-.18066.09033l-.14941.12006c-.0882676.0970958-.1592902.2085641-.21.32959-.0563205.1187109-.0837348.2490695-.08.38041.0016647.0669551.0081918.1337008.01953.19971.0112959.0626864.0316949.1233848.06055.18017z"/><path d="m53 26c.1306435-.0016088.2597042-.0288152.37988-.08008.1210211-.051001.2326037-.121991.33008-.21.3143066-.3124705.3857397-.7944177.1755822-1.1846231s-.6518764-.5957783-1.0857422-.5052969c-.0625485.0107196-.123125.0308016-.17969.05957-.0639615.02196-.1247151.0523368-.18066.09033l-.14945.1201c-.3867201.3943133-.3867201 1.0256067 0 1.41992.1906207.1843021.4448588.2881745.71.29008z"/><path d="m50 28c.2650558-.0022552.51916-.1060442.71-.29.388201-.3913529.3864983-1.0230467-.0038069-1.4123011-.3903051-.3892545-1.0220011-.3892545-1.4123062 0-.3903052.3892544-.3920079 1.0209482-.0038069 1.4123011.1906133.1842538.4448176.2880955.70992.29z"/><path d="m52.08008 29.37988c.0215846.0638781.0518118.1245009.08984.18018.04.0498.08008.09961.12012.1499.0498.04.09961.08008.14941.11963.0559449.0379932.1166985.06837.18066.09033.0566363.0287021.1171779.0489376.17969.06006.0662264.0110244.133102.0177119.2002.02002.2646822-.0040989.5181359-.1076222.71-.29.04-.05029.08008-.1001.12012-.1499.0376489-.055901.06785-.1164713.08984-.18018.0289887-.0566458.0490809-.117418.05957-.18018.0121292-.065929.0189743-.1327213.02047-.19974-.001557-.1308074-.0287642-.2600384-.08008-.38037-.0482524-.1222953-.1195436-.2341852-.21-.32959-.0973367-.0883078-.2089461-.1594669-.33008-.21045-.1824682-.0796121-.3851963-.1004392-.58004-.05959-.0625485.0107196-.123125.0308016-.17969.05957-.0639615.02196-.1247151.0523368-.18066.09033l-.14945.1201c-.0904564.0954048-.1617476.2072947-.21.32959-.0512934.1203496-.0784735.2495945-.08.38041.0016647.0669551.0081918.1337008.01953.19971.0112959.0626864.0316949.1233848.06055.18017z"/><path d="m49.29 31.71c.0498.04.09961.08008.14941.11963.0559449.0379932.1166985.06837.18066.09033.0566363.0287021.1171779.0489376.17969.06006.0662405.0110127.1331295.0176869.20024.01998.0671257-.0018715.1340307-.0085554.2002-.02.0624741-.0112712.1229946-.0314997.17969-.06006.0636509-.0219762.1240818-.0523547.17969-.09033.0498-.03955.10059-.07959.15039-.11963.0882781-.0972712.1592987-.2089021.21-.33008.0512501-.1201855.0784396-.2492531.08003-.3799-.0039148-.2647198-.1074644-.518238-.29-.71-.0475794-.043133-.0978072-.0832512-.15039-.12012-.0556082-.0379753-.1160391-.0683538-.17969-.09033-.0566341-.0286237-.1171993-.0486919-.17972-.05955-.1317466-.0302735-.2686434-.0302735-.40039 0-.0625485.0107196-.123125.0308016-.17969.05957-.0639615.02196-.1247151.0523368-.18066.09033-.0522764.0368766-.1021939.0769883-.14946.1201-.1829218.191512-.2865361.4451884-.29.71-.0036521.1311713.023789.2613449.08008.37988.050673.1211864.1216665.2328307.20992.33012z"/><path d="m52.29 33.71c.1906333.1842729.4448699.288116.71.29.1306435-.0016088.2597042-.0288152.37988-.08008.1210211-.051001.2326037-.121991.33008-.21.0882781-.0972712.1592987-.2089021.21-.33008.0512459-.1201662.0784386-.2492127.08004-.37984-.0039148-.2647198-.1074644-.518238-.29-.71-.0973367-.0883078-.2089461-.1594669-.33008-.21045-.3734214-.1466657-.7979451-.0646954-1.08992.21045-.1829218.191512-.2865361.4451884-.29.71.0016088.1306435.0288152.2597042.08008.37988.050673.1211864.1216665.2328307.20992.33012z"/><path d="m49.08008 35.37988c.0215846.0638781.0518118.1245009.08984.18018.0371369.0522273.077229.1022889.12008.14994.0498.04.09961.08008.14941.11963.0559449.0379932.1166985.06837.18066.09033.0566363.0287021.1171779.0489376.17969.06006.0662405.0110127.1331295.0176869.20024.01998.0671257-.0018715.1340307-.0085554.2002-.02.0624741-.0112712.1229946-.0314997.17969-.06006.0636509-.0219762.1240818-.0523547.17969-.09033.0498-.03955.10059-.07959.15039-.11963.04-.05029.08008-.1001.12012-.1499.0376489-.055901.06785-.1164713.08984-.18018.0289887-.0566458.0490809-.117418.05957-.18018.0121382-.0659216.0189934-.1327071.0205-.19972-.001557-.1308074-.0287642-.2600384-.08008-.38037-.0507098-.1210259-.1217324-.2324942-.21-.32959-.2420356-.2316088-.5809785-.3321566-.91016-.27-.0625485.0107196-.123125.0308016-.17969.05957-.0639615.02196-.1247151.0523368-.18066.09033l-.14941.12006c-.0882676.0970958-.1592902.2085641-.21.32959-.0563205.1187109-.0837348.2490695-.08.38041.0016647.0669551.0081918.1337008.01953.19971.0112959.0626864.0316949.1233848.06055.18017z"/><path d="m52.43945 37.82959c.0559449.0379932.1166985.06837.18066.09033.0566363.0287021.1171779.0489376.17969.06006.0662264.0110244.133102.0177119.2002.02002.1306435-.0016088.2597042-.0288152.37988-.08008.1210211-.051001.2326037-.121991.33008-.21.3867201-.3943133.3867201-1.0256067 0-1.41992-.0973367-.0883078-.2089461-.1594669-.33008-.21045-.3729376-.1516207-.8002026-.0691181-1.08988.21045-.3867201.3943133-.3867201 1.0256067 0 1.41992.047263.0429785.0971779.0829471.14945.11967z"/><path d="m50 40c.2650558-.0022552.51916-.1060442.71-.29.388201-.3913529.3864983-1.0230467-.0038069-1.4123011-.3903051-.3892545-1.0220011-.3892545-1.4123062 0-.3903052.3892544-.3920079 1.0209482-.0038069 1.4123011.1906133.1842538.4448176.2880955.70992.29z"/><path d="m52.08008 41.37988c.0215846.0638781.0518118.1245009.08984.18018.04.0498.08008.09961.12012.1499.0498.04.09961.08008.14941.11963.0559449.0379932.1166985.06837.18066.09033.0566363.0287021.1171779.0489376.17969.06006.0662264.0110244.133102.0177119.2002.02002.2646822-.0040989.5181359-.1076222.71-.29.04-.05029.08008-.1001.12012-.1499.0376489-.055901.06785-.1164713.08984-.18018.0289887-.0566458.0490809-.117418.05957-.18018.0121292-.065929.0189743-.1327213.02047-.19974-.001557-.1308074-.0287642-.2600384-.08008-.38037-.0482524-.1222953-.1195436-.2341852-.21-.32959-.0973367-.0883078-.2089461-.1594669-.33008-.21045-.2431925-.1083322-.5202433-.1118395-.7661004-.0096986-.245857.102141-.4388629.3009327-.5336996.5496986-.0513071.1203468-.0785009.2495918-.08004.38041.0016647.0669551.0081918.1337008.01953.19971.0112959.0626864.0316949.1233848.06055.18017z"/><path d="m49.29 43.71c.3943133.3867201 1.0256067.3867201 1.41992 0 .0882781-.0972712.1592987-.2089021.21-.33008.0512699-.1201882.0784764-.249263.08008-.37992-.0039148-.2647198-.1074644-.518238-.29-.71-.0475794-.043133-.0978072-.0832512-.15039-.12012-.0556082-.0379753-.1160391-.0683538-.17969-.09033-.0566341-.0286237-.1171993-.0486919-.17972-.05955-.1317466-.0302735-.2686434-.0302735-.40039 0-.0625485.0107196-.123125.0308016-.17969.05957-.0639615.02196-.1247151.0523368-.18066.09033-.0522764.0368766-.1021939.0769883-.14946.1201-.1829218.191512-.2865361.4451884-.29.71-.0036521.1311713.023789.2613449.08008.37988.050673.1211864.1216665.2328307.20992.33012z"/><path d="m21.27734 24.55566c.03149 0 .06061-.00867.092-.00928l-2.80684 4.11182c-.1494838.2191025-.205787.4886216-.1565189.7492438.0492682.2606223.2000702.4909901.4192189.6404062.1654587.1138568.3616522.1746576.5625.17432.3308619.000432.6405252-.1627949.82715-.436l4.77832-7c.0134451-.0278825.0254836-.0564217.03607-.08551.6605375-.8314201 1.0220818-1.8609283 1.02643-2.92279 0-2.6386589-2.1390078-4.7777398-4.7776667-4.77783-2.6386588-.0000902-4.7778129 2.1388445-4.7779933 4.7775034-.0001804 2.6386588 2.1386812 4.777886 4.77734 4.7781566zm0-7.55566c1.1235719-.0001982 2.1366199.6764727 2.5667296 1.7144609s.1925713 2.2328628-.6018439 3.0274182c-.7944153.7945554-1.9892479 1.0323046-3.027312.602378s-1.7149137-1.4428552-1.7149137-2.5664271c.0017464-1.5332379 1.2441024-2.7758131 2.77734-2.77783z"/><path d="m39.81836 18.5957.18164-.18164v10.80811c0 .5522847.4477153 1 1 1s1-.4477153 1-1v-13.22217c.0000015-.4044386-.2436325-.7690518-.6172899-.9238121-.3736574-.1547602-.8037478-.0691881-1.0897101.2168121l-1.8887 1.88864c-.3904819.3904819-.3904819 1.0235781 0 1.41406s1.0235781.3904819 1.41406 0z"/><path d="m28.5 23.5h2.5v2.5c0 .5522847.4477153 1 1 1s1-.4477153 1-1v-2.5h2.5c.5522847 0 1-.4477153 1-1s-.4477153-1-1-1h-2.5v-2.5c0-.5522847-.4477153-1-1-1s-1 .4477153-1 1v2.5h-2.5c-.5522847 0-1 .4477153-1 1s.4477153 1 1 1z"/></svg>