<?xml version="1.0" encoding="UTF-8"?>
<svg width="58px" height="58px" viewBox="0 0 58 58" version="1.1" xmlns="http://www.w3.org/2000/svg" xmlns:xlink="http://www.w3.org/1999/xlink">
    <!-- Generator: Sketch 43.2 (39069) - http://www.bohemiancoding.com/sketch -->
    <title>4 -Sheep- (animal, wild, pet)</title>
    <desc>Created with Sketch.</desc>
    <defs></defs>
    <g id="Page-1" stroke="none" stroke-width="1" fill="none" fill-rule="evenodd">
        <g id="Icons" transform="translate(-480.000000, -368.000000)">
            <g id="4--Sheep--(animal,-wild,-pet)" transform="translate(480.000000, 368.000000)">
                <path d="M47.6159,12.0071 C46.9369,12.7431 44.0559,16.1441 42.9999,21.7891 C44.8449,37.2961 57.7739,35.8391 57.7739,35.8391 C57.7739,23.9321 51.7609,16.0361 47.6159,12.0071" id="Fill-21" fill="#BDC3C7"></path>
                <path d="M47.6159,12.0071 C47.5849,12.0411 47.5439,12.0871 47.5029,12.1321 C51.3709,16.5371 55.7739,23.7811 55.7739,33.9711 C55.7739,33.9711 50.9529,34.5071 46.7789,31.3981 C51.2199,36.5721 57.7739,35.8391 57.7739,35.8391 C57.7739,23.9321 51.7609,16.0361 47.6159,12.0071" id="Fill-23" fill="#9BA5AA"></path>
                <path d="M10.3851,12.0071 C6.2401,16.0361 0.2261,23.9331 0.2261,35.8401 C0.2261,35.8401 13.1551,37.2971 15.0001,21.7891 C13.9451,16.1461 11.0661,12.7451 10.3851,12.0071" id="Fill-25" fill="#BDC3C7"></path>
                <path d="M10.3851,12.0071 C10.0351,12.3481 9.6681,12.7261 9.2951,13.1221 C10.4441,14.6731 12.2201,17.6161 13.0001,21.7891 C11.6101,33.4731 3.9301,35.5261 0.2261,35.8291 L0.2261,35.8401 C0.2261,35.8401 13.1551,37.2971 15.0001,21.7891 C13.9451,16.1461 11.0661,12.7451 10.3851,12.0071" id="Fill-27" fill="#9BA5AA"></path>
                <path d="M29,0.0071 C24.583,-0.0759 24,2.0121 24,2.0121 C13.5,-2.1549 14,8.0121 14,8.0121 C10,7.7621 10,12.0121 10,12.0121 C10,12.0121 16.25,18.1781 15,29.0121 C15,29.0121 14,32.4281 14,42.0121 C14,42.0121 13.166,58.0081 29,58.0121 L29,58.0071 C44.834,58.0031 44,42.0071 44,42.0071 C44,32.4241 43,29.0071 43,29.0071 C41.75,18.1741 48,12.0071 48,12.0071 C48,12.0071 48,7.7571 44,8.0071 C44,8.0071 44.5,-2.1599 34,2.0071 C34,2.0071 33.417,-0.0809 29,0.0021 L29,0.0071 Z" id="Fill-29" fill="#ECF0F1"></path>
                <path d="M14.0505,38.4795 C29.6185,26.4145 33.8155,7.4765 34.7555,1.7295 C34.5085,1.8155 34.2605,1.9035 33.9995,2.0075 C33.9995,2.0075 33.4165,-0.0805 28.9995,0.0025 L28.9995,0.0075 C24.5835,-0.0765 23.9995,2.0115 23.9995,2.0115 C13.4995,-2.1555 13.9995,8.0115 13.9995,8.0115 C9.9995,7.7615 9.9995,12.0115 9.9995,12.0115 C9.9995,12.0115 16.2495,18.1785 14.9995,29.0115 C14.9995,29.0115 14.2525,31.5795 14.0505,38.4795" id="Fill-32" fill="#D4DBDD"></path>
                <path d="M29,35.0071 C22.108,35.0071 16.252,38.2811 14,42.8641 C14.092,46.1631 15.371,58.0081 29,58.0121 L29,58.0071 C42.624,58.0041 43.907,46.1691 44,42.8631 C41.748,38.2811 35.892,35.0071 29,35.0071" id="Fill-400" fill="#FAC176"></path>
                <path d="M24.6904,47.0071 L21.3094,47.0071 C20.7084,47.0071 20.3164,46.3741 20.5854,45.8361 L22.2764,42.4551 C22.5744,41.8581 23.4254,41.8581 23.7244,42.4551 L25.4144,45.8361 C25.6834,46.3741 25.2924,47.0071 24.6904,47.0071" id="Fill-402" fill="#D75D72"></path>
                <path d="M36.6904,47.0071 L33.3094,47.0071 C32.7084,47.0071 32.3164,46.3741 32.5854,45.8361 L34.2764,42.4551 C34.5744,41.8581 35.4254,41.8581 35.7244,42.4551 L37.4144,45.8361 C37.6834,46.3741 37.2924,47.0071 36.6904,47.0071" id="Fill-404" fill="#D75D72"></path>
                <path d="M20,9.0046 C18.72,9.0046 17.439,8.5176 16.464,7.5426 C16.074,7.1526 16.074,6.5196 16.464,6.1286 C16.855,5.7376 17.488,5.7376 17.878,6.1286 C19.048,7.2976 20.952,7.2976 22.122,6.1286 C22.512,5.7376 23.145,5.7376 23.536,6.1286 C23.926,6.5196 23.926,7.1526 23.536,7.5426 C22.561,8.5176 21.28,9.0046 20,9.0046" id="Fill-406" fill="#BDC3C7"></path>
                <path d="M38,9.0046 C36.72,9.0046 35.439,8.5176 34.464,7.5426 C34.074,7.1526 34.074,6.5196 34.464,6.1286 C34.855,5.7376 35.488,5.7376 35.878,6.1286 C37.048,7.2976 38.952,7.2976 40.122,6.1286 C40.512,5.7376 41.145,5.7376 41.536,6.1286 C41.926,6.5196 41.926,7.1526 41.536,7.5426 C40.561,8.5176 39.28,9.0046 38,9.0046" id="Fill-408" fill="#BDC3C7"></path>
                <path d="M29,7.0071 C27.932,7.0071 26.927,6.5911 26.172,5.8351 C25.781,5.4451 25.781,4.8111 26.172,4.4211 C26.562,4.0301 27.195,4.0301 27.586,4.4211 C28.342,5.1771 29.658,5.1771 30.414,4.4211 C30.804,4.0301 31.438,4.0301 31.828,4.4211 C32.219,4.8111 32.219,5.4451 31.828,5.8351 C31.073,6.5911 30.068,7.0071 29,7.0071" id="Fill-410" fill="#BDC3C7"></path>
                <path d="M29,55.0071 C25.604,55.0071 22.682,53.7271 21.181,51.5821 C20.864,51.1301 20.974,50.5071 21.427,50.1901 C21.88,49.8731 22.503,49.9831 22.819,50.4361 C23.946,52.0461 26.257,53.0071 29,53.0071 C31.743,53.0071 34.054,52.0451 35.181,50.4341 C35.497,49.9831 36.121,49.8721 36.573,50.1881 C37.026,50.5051 37.136,51.1281 36.819,51.5811 C35.319,53.7261 32.396,55.0071 29,55.0071" id="Fill-485" fill="#D75D72"></path>
                <path d="M26,17.0071 C26,19.7681 24.209,22.0071 22,22.0071 C19.791,22.0071 18,19.7681 18,17.0071 C18,14.2461 19.791,12.0071 22,12.0071 C24.209,12.0071 26,14.2461 26,17.0071" id="Fill-780" fill="#FFFFFF"></path>
                <path d="M24.4,19.0071 C24.4,20.6641 23.325,22.0071 22,22.0071 C20.675,22.0071 19.6,20.6641 19.6,19.0071 C19.6,17.3501 20.675,16.0071 22,16.0071 C23.325,16.0071 24.4,17.3501 24.4,19.0071" id="Fill-782" fill="#35495E"></path>
                <path d="M24,17.0071 C24,17.5591 23.552,18.0071 23,18.0071 C22.448,18.0071 22,17.5591 22,17.0071 C22,16.4551 22.448,16.0071 23,16.0071 C23.552,16.0071 24,16.4551 24,17.0071" id="Fill-784" fill="#FFFFFF"></path>
                <path d="M40,17.0071 C40,19.7681 38.209,22.0071 36,22.0071 C33.791,22.0071 32,19.7681 32,17.0071 C32,14.2461 33.791,12.0071 36,12.0071 C38.209,12.0071 40,14.2461 40,17.0071" id="Fill-786" fill="#FFFFFF"></path>
                <path d="M38.4,19.0071 C38.4,20.6641 37.325,22.0071 36,22.0071 C34.675,22.0071 33.6,20.6641 33.6,19.0071 C33.6,17.3501 34.675,16.0071 36,16.0071 C37.325,16.0071 38.4,17.3501 38.4,19.0071" id="Fill-788" fill="#35495E"></path>
                <path d="M38,17.0071 C38,17.5591 37.552,18.0071 37,18.0071 C36.448,18.0071 36,17.5591 36,17.0071 C36,16.4551 36.448,16.0071 37,16.0071 C37.552,16.0071 38,16.4551 38,17.0071" id="Fill-790" fill="#FFFFFF"></path>
            </g>
        </g>
    </g>
</svg>