<svg height="53" viewBox="0 0 48 53" width="48" xmlns="http://www.w3.org/2000/svg"><g fill="none" fill-rule="evenodd"><path d="m41 36-17 8-17-8v-21l17-8 17 8zm-17-36-24 11v29l24 13 24-13v-29z" fill="#283747"/><path d="m24 7-17 8v21l17 8 17-8v-21z" fill="#f0c419"/><path d="m24 0-24 11 7 4 17-8 17 8 7-4z" fill="#ac92ba"/><path d="m24 0 1.5.687-22.5 10.313 5.645 3.226-1.645.774-7-4z" fill="#cdbed6"/><path d="m41 15v21l-17 8v9l24-13v-29z" fill="#71597e"/><path d="m45 12.7148v28.91l3-1.625v-29z" fill="#55435f"/><path d="m7 15-7-4v29l24 13v-9l-17-8z" fill="#9777a8"/><path d="m32 16-8 5-8-5-4 5 12 7 12-7z" fill="#bf3e00"/><path d="m24 28-12-7v11l12 6 12-6v-11z" fill="#e64c3c"/><path d="m3 12.7148v28.91l-3-1.625v-29z" fill="#ac92ba"/><path d="m24 0-1.5.687 22.5 10.313-5.645 3.226 1.645.774 7-4z" fill="#816e8b"/></g></svg>