<svg height="58" viewBox="0 0 56 58" width="56" xmlns="http://www.w3.org/2000/svg"><g fill="none"><path d="m28 0-10 5-4 2-4 2-10 5v30l28 14 28-14v-30z" fill="#fdd7ad"/><path d="m42 21-4 2-28-14 4-2z" fill="#cbb292"/><path d="m28 28v30l-28-14v-30z" fill="#cbb292"/><path d="m56 14v30l-28 14v-30l10-5v4l8-4v-4z" fill="#7f6e5d"/><path d="m46 19v4l-8 4v-4z" fill="#7f5b53"/><path d="m46 19-4 2-28-14 4-2z" fill="#cbb292"/><path d="m37.65836 31.17082 8.89443-4.44721c.3099822-.1549895.678113-.1384285.9729262.043769.2948132.1821974.4742703.504051.4742838.850621v.52787c-.0000007 1.1363158-.6420081 2.1751044-1.65836 2.68328l-8.89443 4.44721c-.3099774.1549872-.6781021.1384291-.9729135-.0437611s-.4742726-.5040343-.4742965-.8505989v-.5279c.0000007-1.1363158.6420081-2.1751044 1.65836-2.68328z" fill="#2c3e50"/></g></svg>