<?xml version="1.0" encoding="UTF-8"?>
<svg width="56px" height="58px" viewBox="0 0 56 58" version="1.1" xmlns="http://www.w3.org/2000/svg" xmlns:xlink="http://www.w3.org/1999/xlink">
    <!-- Generator: Sketch 47.1 (45422) - http://www.bohemiancoding.com/sketch -->
    <title>Packing and Shipping - Flat - 009 - Carboard Box</title>
    <desc>Created with Sketch.</desc>
    <defs></defs>
    <g id="Page-1" stroke="none" stroke-width="1" fill="none" fill-rule="evenodd">
        <g id="Packing-and-Shipping---Flat---009---Carboard-Box" fill-rule="nonzero">
            <polygon id="Shape" fill="#FDD7AD" points="28 0 18 5 14 7 10 9 0 14 0 44 28 58 56 44 56 14"></polygon>
            <polygon id="Shape" fill="#CBB292" points="42 21 38 23 10 9 14 7"></polygon>
            <polygon id="Shape" fill="#CBB292" points="28 28 28 58 0 44 0 14"></polygon>
            <polygon id="Shape" fill="#7F6E5D" points="56 14 56 44 28 58 28 28 38 23 38 27 46 23 46 19"></polygon>
            <polygon id="Shape" fill="#7F5B53" points="46 19 46 23 38 27 38 23"></polygon>
            <polygon id="Shape" fill="#CBB292" points="46 19 42 21 14 7 18 5"></polygon>
            <path d="M37.65836,31.17082 L46.55279,26.72361 C46.8627722,26.5686205 47.230903,26.5851815 47.5257162,26.767379 C47.8205294,26.9495764 47.9999865,27.27143 48,27.618 L48,28.14587 C47.9999993,29.2821858 47.3579919,30.3209744 46.34164,30.82915 L37.44721,35.27636 C37.1372326,35.4313472 36.7691079,35.4147891 36.4742965,35.2325989 C36.1794851,35.0504087 36.0000239,34.7285646 36,34.382 L36,33.8541 C36.0000007,32.7177842 36.6420081,31.6789956 37.65836,31.17082 L37.65836,31.17082 Z" id="Shape" fill="#2C3E50"></path>
        </g>
    </g>
</svg>