<svg height="58" viewBox="0 0 58 58" width="58" xmlns="http://www.w3.org/2000/svg"><g fill="none" fill-rule="evenodd"><path d="m56 58h-54c-1.105 0-2-.895-2-2v-54c0-1.105.895-2 2-2h54c1.105 0 2 .895 2 2v54c0 1.105-.895 2-2 2" fill="#e8edee"/><path d="m24 9h10v-4h-10z" fill="#0f81e0"/><path d="m9.9883 8h-5.988c-.553 0-1-.448-1-1s.447-1 1-1h5.988c.553 0 1 .448 1 1s-.447 1-1 1" fill="#dd342e"/><path d="m20 8h-6c-.553 0-1-.448-1-1s.447-1 1-1h6c.553 0 1 .448 1 1s-.447 1-1 1" fill="#ecba16"/><path d="m43.9883 8h-5.988c-.553 0-1-.448-1-1s.447-1 1-1h5.988c.553 0 1 .448 1 1s-.447 1-1 1" fill="#42b05c"/><path d="m54 8h-6c-.553 0-1-.448-1-1s.447-1 1-1h6c.553 0 1 .448 1 1s-.447 1-1 1" fill="#7383bf"/><path d="m4 30h50v-16h-50z" fill="#ed7161"/><path d="m12 36h-7c-.553 0-1-.448-1-1s.447-1 1-1h7c.553 0 1 .448 1 1s-.447 1-1 1" fill="#ecba16"/><path d="m31 36h-13c-.553 0-1-.448-1-1s.447-1 1-1h13c.553 0 1 .448 1 1s-.447 1-1 1" fill="#7383bf"/><path d="m54 36h-17c-.553 0-1-.448-1-1s.447-1 1-1h17c.553 0 1 .448 1 1s-.447 1-1 1" fill="#ecba16"/><path d="m18 42h-13c-.553 0-1-.448-1-1s.447-1 1-1h13c.553 0 1 .448 1 1s-.447 1-1 1" fill="#dd342e"/><path d="m28 42h-4c-.553 0-1-.448-1-1s.447-1 1-1h4c.553 0 1 .448 1 1s-.447 1-1 1" fill="#42b05c"/><path d="m12 48h-7c-.553 0-1-.448-1-1s.447-1 1-1h7c.553 0 1 .448 1 1s-.447 1-1 1" fill="#42b05c"/><path d="m28 48h-10c-.553 0-1-.448-1-1s.447-1 1-1h10c.553 0 1 .448 1 1s-.447 1-1 1" fill="#ecba16"/><path d="m18 54h-13c-.553 0-1-.448-1-1s.447-1 1-1h13c.553 0 1 .448 1 1s-.447 1-1 1" fill="#7383bf"/><path d="m28 54h-4c-.553 0-1-.448-1-1s.447-1 1-1h4c.553 0 1 .448 1 1s-.447 1-1 1" fill="#dd342e"/><path d="m34 53h20v-12h-20z" fill="#42b05c"/></g></svg>