<?xml version="1.0" encoding="UTF-8"?>
<svg width="58px" height="52px" viewBox="0 0 58 52" version="1.1" xmlns="http://www.w3.org/2000/svg" xmlns:xlink="http://www.w3.org/1999/xlink">
    <!-- Generator: Sketch 43.2 (39069) - http://www.bohemiancoding.com/sketch -->
    <title>39 -Tiger Eye- (Flat)</title>
    <desc>Created with Sketch.</desc>
    <defs></defs>
    <g id="Page-1" stroke="none" stroke-width="1" fill="none" fill-rule="evenodd">
        <g id="Icons" transform="translate(-1081.000000, -713.000000)">
            <g id="39--Tiger-Eye--(Flat)" transform="translate(1081.000000, 713.000000)">
                <polygon id="Fill-10" fill="#DFFBE4" points="29 0.041 0 51.041 58 51.041"></polygon>
                <polygon id="Fill-861" fill="#A5F4B4" points="17 42.041 29 16.041 41 42.041"></polygon>
                <polygon id="Fill-862" fill="#A5F4B4" points="58 51.041 41 42.041 29 16.041 29 0.041"></polygon>
                <polygon id="Fill-863" fill="#C9F9D2" points="0 51.041 17 42.041 29 16.041 29 0.041"></polygon>
                <polygon id="Fill-864" fill="#DFFBE4" points="58 51.041 41 42.041 17 42.041 0 51.041"></polygon>
                <polygon id="Fill-865" fill="#C9F9D2" points="17 42.041 29 51.041 41 42.041"></polygon>
                <polygon id="Fill-866" fill="#DFFBE4" points="41 42.041 43.5 25.541 29 16.041"></polygon>
                <polygon id="Fill-867" fill="#C9F9D2" points="0 51.041 17 42.041 29 16.041 29 0.041"></polygon>
                <polygon id="Fill-868" fill="#DFFBE4" points="17 42.041 14.5 25.541 29 16.041"></polygon>
            </g>
        </g>
    </g>
</svg>