<svg height="58" viewBox="0 0 58 58" width="58" xmlns="http://www.w3.org/2000/svg"><g fill="none" fill-rule="evenodd"><path d="m0 0h58v58h-58z" fill="#ecf0f1"/><path d="m0 0h58v12h-58z" fill="#546a79"/><path d="m9 6c0 1.657-1.343 3-3 3s-3-1.343-3-3 1.343-3 3-3 3 1.343 3 3" fill="#ed7161"/><path d="m18 6c0 1.657-1.343 3-3 3s-3-1.343-3-3 1.343-3 3-3 3 1.343 3 3" fill="#f0c419"/><path d="m27 6c0 1.657-1.343 3-3 3s-3-1.343-3-3 1.343-3 3-3 3 1.343 3 3" fill="#4fba6f"/><path d="m6 18h20v14h-20z" fill="#67b9cc"/><path d="m6 38h20v14h-20z" fill="#f0c419"/><path d="m32 18h20v14h-20z" fill="#9777a8"/><path d="m32 38h20v14h-20z" fill="#ed7161"/></g></svg>