<svg height="58" viewBox="0 0 58 58" width="58" xmlns="http://www.w3.org/2000/svg"><g fill="none" fill-rule="evenodd"><path d="m0 0h58v58h-58z" fill="#ecf0f1"/><path d="m0 0h58v12h-58z" fill="#546a79"/><path d="m9 6c0 1.657-1.343 3-3 3s-3-1.343-3-3 1.343-3 3-3 3 1.343 3 3" fill="#ed7161"/><path d="m18 6c0 1.657-1.343 3-3 3s-3-1.343-3-3 1.343-3 3-3 3 1.343 3 3" fill="#f0c419"/><path d="m27 6c0 1.657-1.343 3-3 3s-3-1.343-3-3 1.343-3 3-3 3 1.343 3 3" fill="#4fba6f"/><g fill="#8697cb"><path d="m46 20h5c.552 0 1-.447 1-1s-.448-1-1-1h-5c-.552 0-1 .447-1 1s.448 1 1 1"/><path d="m51 21h-5c-.552 0-1 .447-1 1s.448 1 1 1h5c.552 0 1-.447 1-1s-.448-1-1-1"/><path d="m51 24h-5c-.552 0-1 .447-1 1s.448 1 1 1h5c.552 0 1-.447 1-1s-.448-1-1-1"/></g><g fill="#bdc3c7"><path d="m7 36h21c.552 0 1-.447 1-1s-.448-1-1-1h-21c-.552 0-1 .447-1 1s.448 1 1 1"/><path d="m32 36h9c.552 0 1-.447 1-1s-.448-1-1-1h-9c-.552 0-1 .447-1 1s.448 1 1 1"/><path d="m45 36h6c.552 0 1-.447 1-1s-.448-1-1-1h-6c-.552 0-1 .447-1 1s.448 1 1 1"/><path d="m51 39h-21c-.552 0-1 .447-1 1s.448 1 1 1h21c.552 0 1-.447 1-1s-.448-1-1-1"/><path d="m17 39c-.552 0-1 .447-1 1s.448 1 1 1h9c.552 0 1-.447 1-1s-.448-1-1-1z"/><path d="m7 41h6c.552 0 1-.447 1-1s-.448-1-1-1h-6c-.552 0-1 .447-1 1s.448 1 1 1"/><path d="m28 44h-21c-.552 0-1 .447-1 1s.448 1 1 1h21c.552 0 1-.447 1-1s-.448-1-1-1"/><path d="m41 46c.552 0 1-.447 1-1s-.448-1-1-1h-9c-.552 0-1 .447-1 1s.448 1 1 1z"/><path d="m51 44h-6c-.552 0-1 .447-1 1s.448 1 1 1h6c.552 0 1-.447 1-1s-.448-1-1-1"/><path d="m51 49h-21c-.552 0-1 .447-1 1s.448 1 1 1h21c.552 0 1-.447 1-1s-.448-1-1-1"/><path d="m26 49h-9c-.552 0-1 .447-1 1s.448 1 1 1h9c.552 0 1-.447 1-1s-.448-1-1-1"/><path d="m13 49h-6c-.552 0-1 .447-1 1s.448 1 1 1h6c.552 0 1-.447 1-1s-.448-1-1-1"/></g><path d="m11 26c-2.209 0-4-1.791-4-4s1.791-4 4-4 4 1.791 4 4-1.791 4-4 4" fill="#cbb292"/></g></svg>