<?xml version="1.0" encoding="UTF-8"?>
<svg width="60px" height="52px" viewBox="0 0 60 52" version="1.1" xmlns="http://www.w3.org/2000/svg" xmlns:xlink="http://www.w3.org/1999/xlink">
    <!-- Generator: Sketch 47.1 (45422) - http://www.bohemiancoding.com/sketch -->
    <title>Education - Outline - 017 - Mathmatics</title>
    <desc>Created with Sketch.</desc>
    <defs></defs>
    <g id="Page-1" stroke="none" stroke-width="1" fill="none" fill-rule="evenodd">
        <g id="Education---Outline---017---Mathmatics" fill-rule="nonzero" fill="#000000">
            <path d="M58,46.18427 L58,3 C57.9981923,1.34389511 56.6561049,0.00180771165 55,0 L5,0 C3.34389511,0.00180771165 2.00180771,1.34389511 2,3 L2,46.18427 C0.622752723,46.6684816 -0.20411397,48.075789 0.0432793744,49.5145619 C0.290672719,50.9533348 1.54011721,52.0036257 3,52 L57,52 C58.4598828,52.0036257 59.7093273,50.9533348 59.9567206,49.5145619 C60.204114,48.075789 59.3772473,46.6684816 58,46.18427 Z M4,3 C4.00055123,2.44794374 4.44794374,2.00055123 5,2 L55,2 C55.5520563,2.00055123 55.9994488,2.44794374 56,3 L56,46 L31,46 L31,43 C30.9981923,41.3438951 29.6561049,40.0018077 28,40 L19,40 C17.3438951,40.0018077 16.0018077,41.3438951 16,43 L16,46 L4,46 L4,3 Z M29,46 L18,46 L18,43 C18.0005512,42.4479437 18.4479437,42.0005512 19,42 L28,42 C28.5520563,42.0005512 28.9994488,42.4479437 29,43 L29,46 Z M57,50 L3,50 C2.44771525,50 2,49.5522847 2,49 C2,48.4477153 2.44771525,48 3,48 L57,48 C57.5522847,48 58,48.4477153 58,49 C58,49.5522847 57.5522847,50 57,50 Z" id="Shape"></path>
            <path d="M6.62012,4.07959 C6.23929651,4.22403785 5.99084221,4.5928049 6,5 C6.00160881,5.13064347 6.02881525,5.25970417 6.08008,5.37988 C6.13075302,5.50106638 6.20174651,5.61271067 6.29,5.71 C6.48176204,5.89253559 6.73528015,5.99608525 7,6 C7.4040437,5.99904351 7.76746662,5.75405936 7.91992,5.37988 C7.97118475,5.25970417 7.99839119,5.13064347 8,5 C7.99693172,4.73319852 7.88928164,4.47825669 7.7002,4.29 C7.41443367,4.0105863 6.98987379,3.92787795 6.62012,4.07959 Z" id="Shape"></path>
            <path d="M10,8 C10.0635675,7.99817183 10.1269021,7.99148567 10.18945,7.98 C10.2557537,7.97039594 10.3200636,7.95011317 10.37988,7.91994 C10.4435309,7.89796381 10.5039618,7.86758527 10.55957,7.82961 C10.6121633,7.79292232 10.6624051,7.75297399 10.71,7.71 C11.0967201,7.31568674 11.0967201,6.68439326 10.71,6.29008 C10.6602,6.25008 10.60941,6.21 10.55961,6.16996 C10.5040018,6.13198473 10.4435709,6.10160619 10.37992,6.07963 C10.3201663,6.04939883 10.2558195,6.02926996 10.18949,6.02006 C9.86366729,5.95936859 9.52860594,6.05995293 9.29008,6.29006 C9.0016742,6.57614616 8.91499513,7.00827461 9.07075982,7.38345532 C9.22652452,7.75863602 9.59377606,8.00230498 10,8 Z" id="Shape"></path>
            <path d="M6.62012,8.07959 C6.23929651,8.22403785 5.99084221,8.5928049 6,9 C6.00160881,9.13064347 6.02881525,9.25970417 6.08008,9.37988 C6.1307813,9.50105794 6.20180189,9.61268878 6.29008,9.70996 C6.48181569,9.89249159 6.73530246,9.99605439 7,10 C7.4040437,9.99904351 7.76746662,9.75405936 7.91992,9.37988 C7.97118475,9.25970417 7.99839119,9.13064347 8,9 C7.99693172,8.73319852 7.88928164,8.47825669 7.7002,8.29 C7.41443367,8.0105863 6.98987379,7.92787795 6.62012,8.07959 Z" id="Shape"></path>
            <path d="M10.91992,10.61963 C10.8978218,10.5561206 10.8676262,10.4957259 10.83008,10.43994 C10.79008,10.38965 10.75,10.33984 10.70996,10.29004 C10.66016,10.25004 10.60937,10.20996 10.55957,10.16992 C10.5039618,10.1319447 10.4435309,10.1015662 10.37988,10.07959 C10.3201263,10.0493588 10.2557795,10.02923 10.18945,10.02002 C9.86362729,9.95932859 9.52856594,10.0599129 9.29004,10.29002 C9.24694422,10.3374593 9.20682745,10.3875218 9.16992,10.43992 C9.13199478,10.495484 9.1017732,10.5559305 9.08008,10.61961 C9.04967906,10.6793731 9.02922733,10.7436939 9.01953,10.81004 C9.00817204,10.8727674 9.00164288,10.9362738 9,11 C8.99741438,11.2660007 9.10194072,11.5218597 9.29004051,11.7099595 C9.47814031,11.8980593 9.73399928,12.0025856 10,12 C10.0635675,11.9981718 10.1269021,11.9914857 10.18945,11.98 C10.2557537,11.9703959 10.3200636,11.9501132 10.37988,11.91994 C10.4435309,11.8979638 10.5039618,11.8675853 10.55957,11.82961 C10.60937,11.79006 10.66016,11.75002 10.70996,11.70998 C10.8924266,11.5181781 10.9959772,11.2646995 11,11 C10.9985107,10.936223 10.9916497,10.8726848 10.97949,10.81006 C10.9705799,10.7436636 10.9504357,10.6792677 10.91992,10.61963 L10.91992,10.61963 Z" id="Shape"></path>
            <path d="M6.62012,12.07959 C6.23929651,12.2240378 5.99084221,12.5928049 6,13 C6.00160881,13.1306435 6.02881525,13.2597042 6.08008,13.37988 C6.1307813,13.5010579 6.20180189,13.6126888 6.29008,13.70996 C6.48181569,13.8924916 6.73530246,13.9960544 7,14 C7.4040437,13.9990435 7.76746662,13.7540594 7.91992,13.37988 C7.97118475,13.2597042 7.99839119,13.1306435 8,13 C7.99693172,12.7331985 7.88928164,12.4782567 7.7002,12.29 C7.41443367,12.0105863 6.98987379,11.9278779 6.62012,12.07959 Z" id="Shape"></path>
            <path d="M10.55957,14.16992 C10.5039618,14.1319447 10.4435309,14.1015662 10.37988,14.07959 C10.3201263,14.0493588 10.2557795,14.02923 10.18945,14.02002 C9.86337436,13.9542781 9.52599546,14.0555582 9.29004,14.29002 C8.90331992,14.6843333 8.90331992,15.3156267 9.29004,15.70994 C9.48065385,15.8942253 9.73487539,15.9980896 10,16 C10.0635675,15.9981718 10.1269021,15.9914857 10.18945,15.98 C10.2557537,15.9703959 10.3200636,15.9501132 10.37988,15.91994 C10.4435309,15.8979638 10.5039618,15.8675853 10.55957,15.82961 C10.60937,15.79006 10.66016,15.75002 10.70996,15.70998 C11.0966801,15.3156667 11.0966801,14.6843733 10.70996,14.29006 C10.6623812,14.2469201 10.6121533,14.2067953 10.55957,14.16992 L10.55957,14.16992 Z" id="Shape"></path>
            <path d="M6.62012,16.07959 C6.23929651,16.2240378 5.99084221,16.5928049 6,17 C6.00160881,17.1306435 6.02881525,17.2597042 6.08008,17.37988 C6.1307813,17.5010579 6.20180189,17.6126888 6.29008,17.70996 C6.48181569,17.8924916 6.73530246,17.9960544 7,18 C7.4040437,17.9990435 7.76746662,17.7540594 7.91992,17.37988 C7.97118475,17.2597042 7.99839119,17.1306435 8,17 C7.99693172,16.7331985 7.88928164,16.4782567 7.7002,16.29 C7.41443367,16.0105863 6.98987379,15.9278779 6.62012,16.07959 L6.62012,16.07959 Z" id="Shape"></path>
            <path d="M10.55957,18.16992 C10.5039618,18.1319447 10.4435309,18.1015662 10.37988,18.07959 C10.3201263,18.0493588 10.2557795,18.02923 10.18945,18.02002 C9.86362729,17.9593286 9.52856594,18.0599129 9.29004,18.29002 C9.00159988,18.5761073 8.91490478,19.0082644 9.07068351,19.3834666 C9.22646223,19.7586687 9.59375107,20.0023379 10,20 C10.0635675,19.9981718 10.1269021,19.9914857 10.18945,19.98 C10.2557537,19.9703959 10.3200636,19.9501132 10.37988,19.91994 C10.4435309,19.8979638 10.5039618,19.8675853 10.55957,19.82961 C10.6121633,19.7929223 10.6624051,19.752974 10.71,19.71 C11.0967201,19.3156867 11.0967201,18.6843933 10.71,18.29008 C10.66016,18.25 10.60938,18.21 10.55957,18.16992 Z" id="Shape"></path>
            <path d="M6.62012,20.07959 C6.23929651,20.2240378 5.99084221,20.5928049 6,21 C6.00160881,21.1306435 6.02881525,21.2597042 6.08008,21.37988 C6.1307813,21.5010579 6.20180189,21.6126888 6.29008,21.70996 C6.48181569,21.8924916 6.73530246,21.9960544 7,22 C7.4040437,21.9990435 7.76746662,21.7540594 7.91992,21.37988 C7.97118475,21.2597042 7.99839119,21.1306435 8,21 C7.99693172,20.7331985 7.88928164,20.4782567 7.7002,20.29 C7.41443367,20.0105863 6.98987379,19.9278779 6.62012,20.07959 L6.62012,20.07959 Z" id="Shape"></path>
            <path d="M10.91992,22.61963 C10.8978218,22.5561206 10.8676262,22.4957259 10.83008,22.43994 C10.79008,22.38965 10.75,22.33984 10.70996,22.29004 C10.66016,22.25004 10.60937,22.20996 10.55957,22.16992 C10.5039618,22.1319447 10.4435309,22.1015662 10.37988,22.07959 C10.3201263,22.0493588 10.2557795,22.02923 10.18945,22.02002 C9.86362729,21.9593286 9.52856594,22.0599129 9.29004,22.29002 C9.24694422,22.3374593 9.20682745,22.3875218 9.16992,22.43992 C9.13199478,22.495484 9.1017732,22.5559305 9.08008,22.61961 C9.04967906,22.6793731 9.02922733,22.7436939 9.01953,22.81004 C9.00817204,22.8727674 9.00164288,22.9362738 9,23 C8.99741438,23.2660007 9.10194072,23.5218597 9.29004051,23.7099595 C9.47814031,23.8980593 9.73399928,24.0025856 10,24 C10.0635675,23.9981718 10.1269021,23.9914857 10.18945,23.98 C10.2557537,23.9703959 10.3200636,23.9501132 10.37988,23.91994 C10.4435309,23.8979638 10.5039618,23.8675853 10.55957,23.82961 C10.60937,23.79006 10.66016,23.75002 10.70996,23.70998 C10.8924266,23.5181781 10.9959772,23.2646995 11,23 C10.9985107,22.936223 10.9916497,22.8726848 10.97949,22.81006 C10.9705799,22.7436636 10.9504357,22.6792677 10.91992,22.61963 L10.91992,22.61963 Z" id="Shape"></path>
            <path d="M6.62012,24.07959 C6.23929651,24.2240378 5.99084221,24.5928049 6,25 C6.00160881,25.1306435 6.02881525,25.2597042 6.08008,25.37988 C6.1307813,25.5010579 6.20180189,25.6126888 6.29008,25.70996 C6.48181569,25.8924916 6.73530246,25.9960544 7,26 C7.4040437,25.9990435 7.76746662,25.7540594 7.91992,25.37988 C7.97118475,25.2597042 7.99839119,25.1306435 8,25 C7.99693172,24.7331985 7.88928164,24.4782567 7.7002,24.29 C7.41443367,24.0105863 6.98987379,23.9278779 6.62012,24.07959 Z" id="Shape"></path>
            <path d="M10.71,26.29 C10.6624206,26.246867 10.6121928,26.2067488 10.55961,26.16988 C10.5040018,26.1319047 10.4435709,26.1015262 10.37992,26.07955 C10.3201663,26.0493188 10.2558195,26.02919 10.18949,26.01998 C9.86341436,25.9542381 9.52603546,26.0555182 9.29008,26.28998 C8.90335992,26.6842933 8.90335992,27.3155867 9.29008,27.7099 C9.48067756,27.8941904 9.7348837,27.9980686 10,28 C10.0635675,27.9981718 10.1269021,27.9914857 10.18945,27.98 C10.2557537,27.9703959 10.3200636,27.9501132 10.37988,27.91994 C10.4435309,27.8979638 10.5039618,27.8675853 10.55957,27.82961 C10.60937,27.79006 10.66016,27.75002 10.70996,27.70998 C10.8924266,27.5181781 10.9959772,27.2646995 11,27 C10.998443,26.8691926 10.9712358,26.7399616 10.91992,26.61963 C10.8692385,26.4985956 10.798243,26.3871139 10.71,26.29 L10.71,26.29 Z" id="Shape"></path>
            <path d="M6.62012,28.07959 C6.31126769,28.2066418 6.08611995,28.4793523 6.01984493,28.8066741 C5.95356991,29.1339959 6.05489813,29.4728102 6.29,29.71 C6.48176204,29.8925356 6.73528015,29.9960852 7,30 C7.26214694,29.9976511 7.51315868,29.8936902 7.7002,29.71 C7.74613227,29.6623823 7.7894874,29.6123443 7.83008,29.5601 C7.86772886,29.504199 7.89792998,29.4436287 7.91992,29.37992 C7.94890871,29.3232742 7.96900086,29.262502 7.97949,29.19974 C7.99114599,29.1337433 7.99800063,29.0669883 8,29 C7.99693172,28.7331985 7.88928164,28.4782567 7.7002,28.29 C7.41443367,28.0105863 6.98987379,27.9278779 6.62012,28.07959 L6.62012,28.07959 Z" id="Shape"></path>
            <path d="M10.55957,30.16992 C10.5039618,30.1319447 10.4435309,30.1015662 10.37988,30.07959 C10.3201263,30.0493588 10.2557795,30.02923 10.18945,30.02002 C9.86362729,29.9593286 9.52856594,30.0599129 9.29004,30.29002 C9.00159988,30.5761073 8.91490478,31.0082644 9.07068351,31.3834666 C9.22646223,31.7586687 9.59375107,32.0023379 10,32 C10.0635675,31.9981718 10.1269021,31.9914857 10.18945,31.98 C10.2557537,31.9703959 10.3200636,31.9501132 10.37988,31.91994 C10.4435309,31.8979638 10.5039618,31.8675853 10.55957,31.82961 C10.6121633,31.7929223 10.6624051,31.752974 10.71,31.71 C11.0967201,31.3156867 11.0967201,30.6843933 10.71,30.29008 C10.66016,30.25 10.60938,30.21 10.55957,30.16992 Z" id="Shape"></path>
            <path d="M6.62012,32.07959 C6.31126769,32.2066418 6.08611995,32.4793523 6.01984493,32.8066741 C5.95356991,33.1339959 6.05489813,33.4728102 6.29,33.71 C6.48176204,33.8925356 6.73528015,33.9960852 7,34 C7.26214694,33.9976511 7.51315868,33.8936902 7.7002,33.71 C7.74613227,33.6623823 7.7894874,33.6123443 7.83008,33.5601 C7.86772886,33.504199 7.89792998,33.4436287 7.91992,33.37992 C7.94890871,33.3232742 7.96900086,33.262502 7.97949,33.19974 C7.99114599,33.1337433 7.99800063,33.0669883 8,33 C7.99693172,32.7331985 7.88928164,32.4782567 7.7002,32.29 C7.41443367,32.0105863 6.98987379,31.9278779 6.62012,32.07959 L6.62012,32.07959 Z" id="Shape"></path>
            <path d="M10.91992,34.61963 C10.8978218,34.5561206 10.8676262,34.4957259 10.83008,34.43994 C10.79008,34.38965 10.75,34.33984 10.70996,34.29004 C10.66016,34.25004 10.60937,34.20996 10.55957,34.16992 C10.5039618,34.1319447 10.4435309,34.1015662 10.37988,34.07959 C10.3201263,34.0493588 10.2557795,34.02923 10.18945,34.02002 C9.86362729,33.9593286 9.52856594,34.0599129 9.29004,34.29002 C9.24694422,34.3374593 9.20682745,34.3875218 9.16992,34.43992 C9.13199478,34.495484 9.1017732,34.5559305 9.08008,34.61961 C9.04967906,34.6793731 9.02922733,34.7436939 9.01953,34.81004 C9.00817204,34.8727674 9.00164288,34.9362738 9,35 C8.99741438,35.2660007 9.10194072,35.5218597 9.29004051,35.7099595 C9.47814031,35.8980593 9.73399928,36.0025856 10,36 C10.0635675,35.9981718 10.1269021,35.9914857 10.18945,35.98 C10.2557537,35.9703959 10.3200636,35.9501132 10.37988,35.91994 C10.4435309,35.8979638 10.5039618,35.8675853 10.55957,35.82961 C10.60937,35.79006 10.66016,35.75002 10.70996,35.70998 C10.8924266,35.5181781 10.9959772,35.2646995 11,35 C10.9985107,34.936223 10.9916497,34.8726848 10.97949,34.81006 C10.9705799,34.7436636 10.9504357,34.6792677 10.91992,34.61963 L10.91992,34.61963 Z" id="Shape"></path>
            <path d="M6.62012,36.07959 C6.31126769,36.2066418 6.08611995,36.4793523 6.01984493,36.8066741 C5.95356991,37.1339959 6.05489813,37.4728102 6.29,37.71 C6.48176204,37.8925356 6.73528015,37.9960852 7,38 C7.26214694,37.9976511 7.51315868,37.8936902 7.7002,37.71 C7.74613227,37.6623823 7.7894874,37.6123443 7.83008,37.5601 C7.86772886,37.504199 7.89792998,37.4436287 7.91992,37.37992 C7.94890871,37.3232742 7.96900086,37.262502 7.97949,37.19974 C7.99114599,37.1337433 7.99800063,37.0669883 8,37 C7.99693172,36.7331985 7.88928164,36.4782567 7.7002,36.29 C7.41443367,36.0105863 6.98987379,35.9278779 6.62012,36.07959 L6.62012,36.07959 Z" id="Shape"></path>
            <path d="M10.71,38.29 C10.6624206,38.246867 10.6121928,38.2067488 10.55961,38.16988 C10.5040018,38.1319047 10.4435709,38.1015262 10.37992,38.07955 C10.3201663,38.0493188 10.2558195,38.02919 10.18949,38.01998 C9.86341436,37.9542381 9.52603546,38.0555182 9.29008,38.28998 C8.90335992,38.6842933 8.90335992,39.3155867 9.29008,39.7099 C9.48067756,39.8941904 9.7348837,39.9980686 10,40 C10.0635675,39.9981718 10.1269021,39.9914857 10.18945,39.98 C10.2557537,39.9703959 10.3200636,39.9501132 10.37988,39.91994 C10.4435309,39.8979638 10.5039618,39.8675853 10.55957,39.82961 C10.60937,39.79006 10.66016,39.75002 10.70996,39.70998 C10.8924266,39.5181781 10.9959772,39.2646995 11,39 C10.998443,38.8691926 10.9712358,38.7399616 10.91992,38.61963 C10.8692385,38.4985956 10.798243,38.3871139 10.71,38.29 L10.71,38.29 Z" id="Shape"></path>
            <path d="M6.62012,40.07959 C6.31126769,40.2066418 6.08611995,40.4793523 6.01984493,40.8066741 C5.95356991,41.1339959 6.05489813,41.4728102 6.29,41.71 C6.48176204,41.8925356 6.73528015,41.9960852 7,42 C7.26214694,41.9976511 7.51315868,41.8936902 7.7002,41.71 C7.74613227,41.6623823 7.7894874,41.6123443 7.83008,41.5601 C7.86772886,41.504199 7.89792998,41.4436287 7.91992,41.37992 C7.94890871,41.3232742 7.96900086,41.262502 7.97949,41.19974 C7.99114599,41.1337433 7.99800063,41.0669883 8,41 C7.99693172,40.7331985 7.88928164,40.4782567 7.7002,40.29 C7.41443367,40.0105863 6.98987379,39.9278779 6.62012,40.07959 L6.62012,40.07959 Z" id="Shape"></path>
            <path d="M9.62012,42.07959 C9.49644933,42.1256139 9.38393726,42.1973262 9.29,42.29 C9.00154005,42.5760905 8.91483814,43.0082668 9.07062905,43.3834815 C9.22641996,43.7586962 9.59373493,44.0023626 10,44 C10.0635675,43.9981718 10.1269021,43.9914857 10.18945,43.98 C10.2557537,43.9703959 10.3200636,43.9501132 10.37988,43.91994 C10.4435309,43.8979638 10.5039618,43.8675853 10.55957,43.82961 C10.6121633,43.7929223 10.6624051,43.752974 10.71,43.71 C10.7982781,43.6127288 10.8692987,43.5010979 10.92,43.37992 C10.9712424,43.2597262 10.9984217,43.1306516 11,43 C10.9960852,42.7352802 10.8925356,42.481762 10.71,42.29 C10.42221,42.0068177 9.99264054,41.9238859 9.62012,42.07959 Z" id="Shape"></path>
            <path d="M52.43945,5.82959 C52.4953949,5.86758325 52.5561485,5.89796004 52.62011,5.91992 C52.6767452,5.94862898 52.7372868,5.9688713 52.7998,5.98 C52.8660268,5.99101766 52.9329024,5.99769855 53,6 C53.2660007,6.00258562 53.5218597,5.89805928 53.7099595,5.70995949 C53.8980593,5.52185969 54.0025856,5.26600072 54,5 C53.998443,4.86919259 53.9712358,4.73996161 53.91992,4.61963 C53.8716961,4.49732689 53.800432,4.38542349 53.71,4.29 C53.6126633,4.20169221 53.5010539,4.13053311 53.37992,4.07955 C53.1367275,3.97121783 52.8596767,3.96771045 52.6138196,4.06985141 C52.3679626,4.17199236 52.1749567,4.37078409 52.08012,4.61955 C52.0287803,4.73990366 52.0015592,4.86916293 52,5 C52.003556,5.26479291 52.1071571,5.51843693 52.29,5.71 C52.3372654,5.75295104 52.3871802,5.7928929 52.43945,5.82959 L52.43945,5.82959 Z" id="Shape"></path>
            <path d="M49.29,7.71 C49.3398,7.75 49.38961,7.79008 49.43941,7.82963 C49.4953549,7.86762325 49.5561085,7.89800004 49.62007,7.91996 C49.6767063,7.94866206 49.7372479,7.96889763 49.79976,7.98002 C49.8660005,7.99103269 49.9328895,7.9977069 50,8 C50.0671257,7.99812845 50.1340307,7.99144464 50.2002,7.98 C50.2626741,7.96872883 50.3231946,7.94850033 50.37989,7.91994 C50.4435409,7.89796381 50.5039718,7.86758527 50.55958,7.82961 C50.60938,7.79006 50.66017,7.75002 50.70997,7.70998 C50.7982481,7.61270878 50.8692687,7.50107794 50.91997,7.3799 C50.9712201,7.25971449 50.9984096,7.13064687 51,7 C50.9985146,6.9328264 50.9916561,6.86587939 50.97949,6.7998 C50.9690009,6.73703803 50.9489087,6.67626576 50.91992,6.61962 C50.8978218,6.55611056 50.8676262,6.49571587 50.83008,6.43993 C50.79008,6.38964 50.75,6.33983 50.70996,6.29003 C50.66016,6.25003 50.60937,6.20995 50.55957,6.16991 C50.5039618,6.13193473 50.4435309,6.10155619 50.37988,6.07958 C50.3232601,6.05094969 50.2627086,6.03087143 50.2002,6.02 C50.0684534,5.98972652 49.9315566,5.98972652 49.79981,6.02 C49.7372615,6.03071961 49.676685,6.05080165 49.62012,6.07957 C49.5561585,6.10152996 49.4954049,6.13190675 49.43946,6.1699 L49.29,6.29 C49.2469042,6.3374393 49.2067874,6.38750177 49.16988,6.4399 C49.1319548,6.49546396 49.1017332,6.55591048 49.08004,6.61959 C49.051184,6.67637838 49.030785,6.73708021 49.01949,6.79977 C49.00814,6.86595154 49.0016261,6.93287196 49,7 C48.9963479,7.13117126 49.023789,7.26134494 49.08008,7.37988 C49.130753,7.50106638 49.2017465,7.61271067 49.29,7.71 L49.29,7.71 Z" id="Shape"></path>
            <path d="M52.29,9.71 C52.3398,9.75 52.38961,9.79008 52.43941,9.82963 C52.4953549,9.86762325 52.5561085,9.89800004 52.62007,9.91996 C52.6767063,9.94866206 52.7372479,9.96889763 52.79976,9.98002 C52.8660005,9.99103269 52.9328895,9.9977069 53,10 C53.2646822,9.99590109 53.5181359,9.89237777 53.71,9.71 C53.7982781,9.61272878 53.8692987,9.50109794 53.92,9.37992 C54.0267698,9.13774943 54.0267698,8.86184057 53.92,8.61967 C53.8285717,8.36876086 53.6309091,8.17109825 53.38,8.07967 C53.0065787,7.93293895 52.5820165,8.01486388 52.29,8.29 C52.2017324,8.3870958 52.1307098,8.49856407 52.08,8.61959 C51.9732302,8.86176057 51.9732302,9.13766943 52.08,9.37984 C52.1306933,9.50104622 52.2017142,9.61270468 52.29,9.71 L52.29,9.71 Z" id="Shape"></path>
            <path d="M49.43945,11.82959 C49.4953949,11.8675832 49.5561485,11.89796 49.62011,11.91992 C49.6767463,11.9486221 49.7372879,11.9688576 49.7998,11.97998 C49.8660264,11.9910044 49.932902,11.9976919 50,12 C50.0671257,11.9981285 50.1340307,11.9914446 50.2002,11.98 C50.2626741,11.9687288 50.3231946,11.9485003 50.37989,11.91994 C50.4435409,11.8979638 50.5039718,11.8675853 50.55958,11.82961 C50.6121698,11.792922 50.6624083,11.7529737 50.71,11.71 C50.8924566,11.5181869 50.9959931,11.264701 51,11 C50.998443,10.8691926 50.9712358,10.7399616 50.91992,10.61963 C50.8692102,10.4986041 50.7981876,10.3871358 50.70992,10.29004 C50.4678844,10.0584312 50.1289415,9.95788337 49.79976,10.02004 C49.7372115,10.0307596 49.676635,10.0508416 49.62007,10.07961 C49.5561085,10.10157 49.4953549,10.1319468 49.43941,10.16994 L49.29,10.29 C49.2017324,10.3870958 49.1307098,10.4985641 49.08,10.61959 C49.0236795,10.7383009 48.9962652,10.8686595 49,11 C49.003556,11.2647929 49.1071571,11.5184369 49.29,11.71 C49.3372654,11.752951 49.3871802,11.7928929 49.43945,11.82959 L49.43945,11.82959 Z" id="Shape"></path>
            <path d="M52.08008,13.37988 C52.1016646,13.4437581 52.1318918,13.5043809 52.16992,13.56006 C52.20992,13.60986 52.25,13.65967 52.29004,13.70996 C52.480657,13.894238 52.7348782,13.998095 53,14 C53.1306435,13.9983912 53.2597042,13.9711848 53.37988,13.91992 C53.5009011,13.868919 53.6124837,13.797929 53.70996,13.70992 C53.74996,13.65963 53.79004,13.60982 53.83008,13.56002 C53.8677289,13.504119 53.89793,13.4435487 53.91992,13.37984 C53.9503653,13.320347 53.9705072,13.2561242 53.97949,13.1899 C53.9916217,13.1272844 53.9984824,13.0637619 54,13 C54.0025649,12.6987703 53.8682949,12.4126511 53.6349588,12.222125 C53.4016226,12.0315989 53.0944332,11.957253 52.7998,12.02 C52.7372515,12.0307196 52.676675,12.0508016 52.62011,12.07957 C52.5561485,12.10153 52.4953949,12.1319068 52.43945,12.1699 C52.387177,12.2067769 52.3372629,12.2468886 52.29,12.29 C52.1070782,12.481512 52.0034639,12.7351884 52,13 C52.0016688,13.063718 52.0081978,13.1272157 52.01953,13.18994 C52.0293011,13.256113 52.0497504,13.3202608 52.08008,13.37988 L52.08008,13.37988 Z" id="Shape"></path>
            <path d="M50,16 C50.2650558,15.9977448 50.51916,15.8939558 50.71,15.71 C51.098201,15.3186471 51.0964983,14.6869533 50.7061931,14.2976989 C50.315888,13.9084444 49.684192,13.9084444 49.2938869,14.2976989 C48.9035817,14.6869533 48.901879,15.3186471 49.29008,15.71 C49.4806933,15.8942538 49.7348976,15.9980955 50,16 L50,16 Z" id="Shape"></path>
            <path d="M52.08008,17.37988 C52.1016646,17.4437581 52.1318918,17.5043809 52.16992,17.56006 C52.20992,17.60986 52.25,17.65967 52.29004,17.70996 C52.33984,17.74996 52.38965,17.79004 52.43945,17.82959 C52.4953949,17.8675832 52.5561485,17.89796 52.62011,17.91992 C52.6767463,17.9486221 52.7372879,17.9688576 52.7998,17.97998 C52.8660264,17.9910044 52.932902,17.9976919 53,18 C53.1306435,17.9983912 53.2597042,17.9711848 53.37988,17.91992 C53.5009011,17.868919 53.6124837,17.797929 53.70996,17.70992 C53.74996,17.65963 53.79004,17.60982 53.83008,17.56002 C53.8677289,17.504119 53.89793,17.4435487 53.91992,17.37984 C53.9489087,17.3231942 53.9690009,17.262422 53.97949,17.19966 C53.9916284,17.1337584 53.9984869,17.0669931 54,17 C53.998443,16.8691926 53.9712358,16.7399616 53.91992,16.61963 C53.8716676,16.4973347 53.8003764,16.3854448 53.70992,16.29004 C53.6125833,16.2017322 53.5009739,16.1305731 53.37984,16.07959 C53.1973718,15.9999779 52.9946437,15.9791508 52.7998,16.02 C52.7372515,16.0307196 52.676675,16.0508016 52.62011,16.07957 C52.5561485,16.10153 52.4953949,16.1319068 52.43945,16.1699 L52.29,16.29 C52.1995436,16.3854048 52.1282524,16.4972947 52.08,16.61959 C52.0287066,16.7399396 52.0015265,16.8691845 52,17 C52.0016647,17.0669551 52.0081918,17.1337008 52.01953,17.19971 C52.0308259,17.2623964 52.0512249,17.3230948 52.08008,17.37988 L52.08008,17.37988 Z" id="Shape"></path>
            <path d="M49.29,19.71 C49.3398,19.75 49.38961,19.79008 49.43941,19.82963 C49.4953549,19.8676232 49.5561085,19.898 49.62007,19.91996 C49.6767063,19.9486621 49.7372479,19.9688976 49.79976,19.98002 C49.8660005,19.9910327 49.9328895,19.9977069 50,20 C50.0671257,19.9981285 50.1340307,19.9914446 50.2002,19.98 C50.2626741,19.9687288 50.3231946,19.9485003 50.37989,19.91994 C50.4435409,19.8979638 50.5039718,19.8675853 50.55958,19.82961 C50.60938,19.79006 50.66017,19.75002 50.70997,19.70998 C50.7982481,19.6127088 50.8692687,19.5010779 50.91997,19.3799 C50.9712201,19.2597145 50.9984096,19.1306469 51,19 C50.9960852,18.7352802 50.8925356,18.481762 50.71,18.29 C50.6624206,18.246867 50.6121928,18.2067488 50.55961,18.16988 C50.5040018,18.1319047 50.4435709,18.1015262 50.37992,18.07955 C50.3232859,18.0509263 50.2627207,18.0308581 50.2002,18.02 C50.0684534,17.9897265 49.9315566,17.9897265 49.79981,18.02 C49.7372615,18.0307196 49.676685,18.0508016 49.62012,18.07957 C49.5561585,18.10153 49.4954049,18.1319068 49.43946,18.1699 C49.3871836,18.2067766 49.3372661,18.2468883 49.29,18.29 C49.1070782,18.481512 49.0034639,18.7351884 49,19 C48.9963479,19.1311713 49.023789,19.2613449 49.08008,19.37988 C49.130753,19.5010664 49.2017465,19.6127107 49.29,19.71 L49.29,19.71 Z" id="Shape"></path>
            <path d="M53,22 C53.1306435,21.9983912 53.2597042,21.9711848 53.37988,21.91992 C53.5009011,21.868919 53.6124837,21.797929 53.70996,21.70992 C53.8924126,21.5181332 53.9959622,21.2646787 54,21 C53.998443,20.8691926 53.9712358,20.7399616 53.91992,20.61963 C53.8284917,20.3687209 53.6308291,20.1710583 53.37992,20.07963 C53.0069866,19.9279712 52.5797026,20.010443 52.29,20.29 C52.2017324,20.3870958 52.1307098,20.4985641 52.08,20.61959 C52.0287066,20.7399396 52.0015265,20.8691845 52,21 C52.003556,21.2647929 52.1071571,21.5184369 52.29,21.71 C52.4806333,21.8942729 52.7348699,21.998116 53,22 Z" id="Shape"></path>
            <path d="M49.08008,23.37988 C49.1016646,23.4437581 49.1318918,23.5043809 49.16992,23.56006 C49.2070569,23.6122873 49.247149,23.6623489 49.29,23.71 C49.3398,23.75 49.38961,23.79008 49.43941,23.82963 C49.4953549,23.8676232 49.5561085,23.898 49.62007,23.91996 C49.6767063,23.9486621 49.7372479,23.9688976 49.79976,23.98002 C49.8660005,23.9910327 49.9328895,23.9977069 50,24 C50.0671257,23.9981285 50.1340307,23.9914446 50.2002,23.98 C50.2626741,23.9687288 50.3231946,23.9485003 50.37989,23.91994 C50.4435409,23.8979638 50.5039718,23.8675853 50.55958,23.82961 C50.60938,23.79006 50.66017,23.75002 50.70997,23.70998 C50.74997,23.65969 50.79005,23.60988 50.83009,23.56008 C50.8677389,23.504179 50.89794,23.4436087 50.91993,23.3799 C50.9489187,23.3232542 50.9690109,23.262482 50.9795,23.19972 C50.9916382,23.1337984 50.9984934,23.0670129 51,23 C50.998443,22.8691926 50.9712358,22.7399616 50.91992,22.61963 C50.8692102,22.4986041 50.7981876,22.3871358 50.70992,22.29004 C50.4678844,22.0584312 50.1289415,21.9578834 49.79976,22.02004 C49.7372115,22.0307596 49.676635,22.0508416 49.62007,22.07961 C49.5561085,22.10157 49.4953549,22.1319468 49.43941,22.16994 L49.29,22.29 C49.2017324,22.3870958 49.1307098,22.4985641 49.08,22.61959 C49.0236795,22.7383009 48.9962652,22.8686595 49,23 C49.0016647,23.0669551 49.0081918,23.1337008 49.01953,23.19971 C49.0308259,23.2623964 49.0512249,23.3230948 49.08008,23.37988 Z" id="Shape"></path>
            <path d="M53,26 C53.1306435,25.9983912 53.2597042,25.9711848 53.37988,25.91992 C53.5009011,25.868919 53.6124837,25.797929 53.70996,25.70992 C54.0242666,25.3974495 54.0956997,24.9155023 53.8855422,24.5252969 C53.6753847,24.1350915 53.2336658,23.9295186 52.7998,24.02 C52.7372515,24.0307196 52.676675,24.0508016 52.62011,24.07957 C52.5561485,24.10153 52.4953949,24.1319068 52.43945,24.1699 L52.29,24.29 C51.9032799,24.6843133 51.9032799,25.3156067 52.29,25.70992 C52.4806207,25.8942221 52.7348588,25.9980945 53,26 Z" id="Shape"></path>
            <path d="M50,28 C50.2650558,27.9977448 50.51916,27.8939558 50.71,27.71 C51.098201,27.3186471 51.0964983,26.6869533 50.7061931,26.2976989 C50.315888,25.9084444 49.684192,25.9084444 49.2938869,26.2976989 C48.9035817,26.6869533 48.901879,27.3186471 49.29008,27.71 C49.4806933,27.8942538 49.7348976,27.9980955 50,28 L50,28 Z" id="Shape"></path>
            <path d="M52.08008,29.37988 C52.1016646,29.4437581 52.1318918,29.5043809 52.16992,29.56006 C52.20992,29.60986 52.25,29.65967 52.29004,29.70996 C52.33984,29.74996 52.38965,29.79004 52.43945,29.82959 C52.4953949,29.8675832 52.5561485,29.89796 52.62011,29.91992 C52.6767463,29.9486221 52.7372879,29.9688576 52.7998,29.97998 C52.8660264,29.9910044 52.932902,29.9976919 53,30 C53.2646822,29.9959011 53.5181359,29.8923778 53.71,29.71 C53.75,29.65971 53.79008,29.6099 53.83012,29.5601 C53.8677689,29.504199 53.89797,29.4436287 53.91996,29.37992 C53.9489487,29.3232742 53.9690409,29.262502 53.97953,29.19974 C53.9916592,29.133811 53.9985043,29.0670187 54,29 C53.998443,28.8691926 53.9712358,28.7399616 53.91992,28.61963 C53.8716676,28.4973347 53.8003764,28.3854448 53.70992,28.29004 C53.6125833,28.2017322 53.5009739,28.1305731 53.37984,28.07959 C53.1973718,27.9999779 52.9946437,27.9791508 52.7998,28.02 C52.7372515,28.0307196 52.676675,28.0508016 52.62011,28.07957 C52.5561485,28.10153 52.4953949,28.1319068 52.43945,28.1699 L52.29,28.29 C52.1995436,28.3854048 52.1282524,28.4972947 52.08,28.61959 C52.0287066,28.7399396 52.0015265,28.8691845 52,29 C52.0016647,29.0669551 52.0081918,29.1337008 52.01953,29.19971 C52.0308259,29.2623964 52.0512249,29.3230948 52.08008,29.37988 L52.08008,29.37988 Z" id="Shape"></path>
            <path d="M49.29,31.71 C49.3398,31.75 49.38961,31.79008 49.43941,31.82963 C49.4953549,31.8676232 49.5561085,31.898 49.62007,31.91996 C49.6767063,31.9486621 49.7372479,31.9688976 49.79976,31.98002 C49.8660005,31.9910327 49.9328895,31.9977069 50,32 C50.0671257,31.9981285 50.1340307,31.9914446 50.2002,31.98 C50.2626741,31.9687288 50.3231946,31.9485003 50.37989,31.91994 C50.4435409,31.8979638 50.5039718,31.8675853 50.55958,31.82961 C50.60938,31.79006 50.66017,31.75002 50.70997,31.70998 C50.7982481,31.6127088 50.8692687,31.5010779 50.91997,31.3799 C50.9712201,31.2597145 50.9984096,31.1306469 51,31 C50.9960852,30.7352802 50.8925356,30.481762 50.71,30.29 C50.6624206,30.246867 50.6121928,30.2067488 50.55961,30.16988 C50.5040018,30.1319047 50.4435709,30.1015262 50.37992,30.07955 C50.3232859,30.0509263 50.2627207,30.0308581 50.2002,30.02 C50.0684534,29.9897265 49.9315566,29.9897265 49.79981,30.02 C49.7372615,30.0307196 49.676685,30.0508016 49.62012,30.07957 C49.5561585,30.10153 49.4954049,30.1319068 49.43946,30.1699 C49.3871836,30.2067766 49.3372661,30.2468883 49.29,30.29 C49.1070782,30.481512 49.0034639,30.7351884 49,31 C48.9963479,31.1311713 49.023789,31.2613449 49.08008,31.37988 C49.130753,31.5010664 49.2017465,31.6127107 49.29,31.71 Z" id="Shape"></path>
            <path d="M52.29,33.71 C52.4806333,33.8942729 52.7348699,33.998116 53,34 C53.1306435,33.9983912 53.2597042,33.9711848 53.37988,33.91992 C53.5009011,33.868919 53.6124837,33.797929 53.70996,33.70992 C53.7982381,33.6126488 53.8692587,33.5010179 53.91996,33.37984 C53.9712059,33.2596738 53.9983986,33.1306273 54,33 C53.9960852,32.7352802 53.8925356,32.481762 53.71,32.29 C53.6126633,32.2016922 53.5010539,32.1305331 53.37992,32.07955 C53.0064986,31.9328843 52.5819749,32.0148546 52.29,32.29 C52.1070782,32.481512 52.0034639,32.7351884 52,33 C52.0016088,33.1306435 52.0288152,33.2597042 52.08008,33.37988 C52.130753,33.5010664 52.2017465,33.6127107 52.29,33.71 Z" id="Shape"></path>
            <path d="M49.08008,35.37988 C49.1016646,35.4437581 49.1318918,35.5043809 49.16992,35.56006 C49.2070569,35.6122873 49.247149,35.6623489 49.29,35.71 C49.3398,35.75 49.38961,35.79008 49.43941,35.82963 C49.4953549,35.8676232 49.5561085,35.898 49.62007,35.91996 C49.6767063,35.9486621 49.7372479,35.9688976 49.79976,35.98002 C49.8660005,35.9910327 49.9328895,35.9977069 50,36 C50.0671257,35.9981285 50.1340307,35.9914446 50.2002,35.98 C50.2626741,35.9687288 50.3231946,35.9485003 50.37989,35.91994 C50.4435409,35.8979638 50.5039718,35.8675853 50.55958,35.82961 C50.60938,35.79006 50.66017,35.75002 50.70997,35.70998 C50.74997,35.65969 50.79005,35.60988 50.83009,35.56008 C50.8677389,35.504179 50.89794,35.4436087 50.91993,35.3799 C50.9489187,35.3232542 50.9690109,35.262482 50.9795,35.19972 C50.9916382,35.1337984 50.9984934,35.0670129 51,35 C50.998443,34.8691926 50.9712358,34.7399616 50.91992,34.61963 C50.8692102,34.4986041 50.7981876,34.3871358 50.70992,34.29004 C50.4678844,34.0584312 50.1289415,33.9578834 49.79976,34.02004 C49.7372115,34.0307596 49.676635,34.0508416 49.62007,34.07961 C49.5561085,34.10157 49.4953549,34.1319468 49.43941,34.16994 L49.29,34.29 C49.2017324,34.3870958 49.1307098,34.4985641 49.08,34.61959 C49.0236795,34.7383009 48.9962652,34.8686595 49,35 C49.0016647,35.0669551 49.0081918,35.1337008 49.01953,35.19971 C49.0308259,35.2623964 49.0512249,35.3230948 49.08008,35.37988 Z" id="Shape"></path>
            <path d="M52.43945,37.82959 C52.4953949,37.8675832 52.5561485,37.89796 52.62011,37.91992 C52.6767463,37.9486221 52.7372879,37.9688576 52.7998,37.97998 C52.8660264,37.9910044 52.932902,37.9976919 53,38 C53.1306435,37.9983912 53.2597042,37.9711848 53.37988,37.91992 C53.5009011,37.868919 53.6124837,37.797929 53.70996,37.70992 C54.0966801,37.3156067 54.0966801,36.6843133 53.70996,36.29 C53.6126233,36.2016922 53.5010139,36.1305331 53.37988,36.07955 C53.0069424,35.9279293 52.5796774,36.0104319 52.29,36.29 C51.9032799,36.6843133 51.9032799,37.3156067 52.29,37.70992 C52.337263,37.7528985 52.3871779,37.7928671 52.43945,37.82959 L52.43945,37.82959 Z" id="Shape"></path>
            <path d="M50,40 C50.2650558,39.9977448 50.51916,39.8939558 50.71,39.71 C51.098201,39.3186471 51.0964983,38.6869533 50.7061931,38.2976989 C50.315888,37.9084444 49.684192,37.9084444 49.2938869,38.2976989 C48.9035817,38.6869533 48.901879,39.3186471 49.29008,39.71 C49.4806933,39.8942538 49.7348976,39.9980955 50,40 L50,40 Z" id="Shape"></path>
            <path d="M52.08008,41.37988 C52.1016646,41.4437581 52.1318918,41.5043809 52.16992,41.56006 C52.20992,41.60986 52.25,41.65967 52.29004,41.70996 C52.33984,41.74996 52.38965,41.79004 52.43945,41.82959 C52.4953949,41.8675832 52.5561485,41.89796 52.62011,41.91992 C52.6767463,41.9486221 52.7372879,41.9688576 52.7998,41.97998 C52.8660264,41.9910044 52.932902,41.9976919 53,42 C53.2646822,41.9959011 53.5181359,41.8923778 53.71,41.71 C53.75,41.65971 53.79008,41.6099 53.83012,41.5601 C53.8677689,41.504199 53.89797,41.4436287 53.91996,41.37992 C53.9489487,41.3232742 53.9690409,41.262502 53.97953,41.19974 C53.9916592,41.133811 53.9985043,41.0670187 54,41 C53.998443,40.8691926 53.9712358,40.7399616 53.91992,40.61963 C53.8716676,40.4973347 53.8003764,40.3854448 53.70992,40.29004 C53.6125833,40.2017322 53.5009739,40.1305731 53.37984,40.07959 C53.1366475,39.9712578 52.8595967,39.9677505 52.6137396,40.0698914 C52.3678826,40.1720324 52.1748767,40.3708241 52.08004,40.61959 C52.0287329,40.7399368 52.0015391,40.8691818 52,41 C52.0016647,41.0669551 52.0081918,41.1337008 52.01953,41.19971 C52.0308259,41.2623964 52.0512249,41.3230948 52.08008,41.37988 L52.08008,41.37988 Z" id="Shape"></path>
            <path d="M49.29,43.71 C49.6843133,44.0967201 50.3156067,44.0967201 50.70992,43.71 C50.7981981,43.6127288 50.8692187,43.5010979 50.91992,43.37992 C50.9711899,43.2597318 50.9983964,43.130657 51,43 C50.9960852,42.7352802 50.8925356,42.481762 50.71,42.29 C50.6624206,42.246867 50.6121928,42.2067488 50.55961,42.16988 C50.5040018,42.1319047 50.4435709,42.1015262 50.37992,42.07955 C50.3232859,42.0509263 50.2627207,42.0308581 50.2002,42.02 C50.0684534,41.9897265 49.9315566,41.9897265 49.79981,42.02 C49.7372615,42.0307196 49.676685,42.0508016 49.62012,42.07957 C49.5561585,42.10153 49.4954049,42.1319068 49.43946,42.1699 C49.3871836,42.2067766 49.3372661,42.2468883 49.29,42.29 C49.1070782,42.481512 49.0034639,42.7351884 49,43 C48.9963479,43.1311713 49.023789,43.2613449 49.08008,43.37988 C49.130753,43.5010664 49.2017465,43.6127107 49.29,43.71 Z" id="Shape"></path>
            <path d="M21.27734,24.55566 C21.30883,24.55566 21.33795,24.54699 21.36934,24.54638 L18.5625,28.6582 C18.4130162,28.8773025 18.356713,29.1468216 18.4059811,29.4074438 C18.4552493,29.6680661 18.6060513,29.8984339 18.8252,30.04785 C18.9906587,30.1617068 19.1868522,30.2225076 19.3877,30.22217 C19.7185619,30.222602 20.0282252,30.0593751 20.21485,29.78617 L24.99317,22.78617 C25.0066151,22.7582875 25.0186536,22.7297483 25.02924,22.70066 C25.6897775,21.8692399 26.0513218,20.8397317 26.05567,19.77787 C26.05567,17.1392111 23.9166622,15.0001302 21.2780033,15.00004 C18.6393445,14.9999498 16.5001904,17.1388845 16.50001,19.7775434 C16.4998296,22.4162022 18.6386912,24.5554294 21.27735,24.5557 L21.27734,24.55566 Z M21.27734,17 C22.4009119,16.9998018 23.4139599,17.6764727 23.8440696,18.7144609 C24.2741793,19.7524491 24.0366409,20.9473237 23.2422257,21.7418791 C22.4478104,22.5364345 21.2529778,22.7741837 20.2149137,22.3442571 C19.1768496,21.9143305 18.5,20.9014019 18.5,19.77783 C18.5017464,18.2445921 19.7441024,17.0020169 21.27734,17 L21.27734,17 Z" id="Shape"></path>
            <path d="M39.81836,18.5957 L40,18.41406 L40,29.22217 C40,29.7744547 40.4477153,30.22217 41,30.22217 C41.5522847,30.22217 42,29.7744547 42,29.22217 L42,16 C42.0000015,15.5955614 41.7563675,15.2309482 41.3827101,15.0761879 C41.0090527,14.9214277 40.5789623,15.0069998 40.293,15.293 L38.4043,17.18164 C38.0138181,17.5721219 38.0138181,18.2052181 38.4043,18.5957 C38.7947819,18.9861819 39.4278781,18.9861819 39.81836,18.5957 L39.81836,18.5957 Z" id="Shape"></path>
            <path d="M28.5,23.5 L31,23.5 L31,26 C31,26.5522847 31.4477153,27 32,27 C32.5522847,27 33,26.5522847 33,26 L33,23.5 L35.5,23.5 C36.0522847,23.5 36.5,23.0522847 36.5,22.5 C36.5,21.9477153 36.0522847,21.5 35.5,21.5 L33,21.5 L33,19 C33,18.4477153 32.5522847,18 32,18 C31.4477153,18 31,18.4477153 31,19 L31,21.5 L28.5,21.5 C27.9477153,21.5 27.5,21.9477153 27.5,22.5 C27.5,23.0522847 27.9477153,23.5 28.5,23.5 Z" id="Shape"></path>
        </g>
    </g>
</svg>