<svg height="46" viewBox="0 0 58 46" width="58" xmlns="http://www.w3.org/2000/svg"><g fill="none" fill-rule="evenodd"><g fill="#bdc3c7"><path d="m15 22c-.553 0-1-.447-1-1v-15c0-.553.447-1 1-1s1 .447 1 1v15c0 .553-.447 1-1 1"/><path d="m21 22c-.553 0-1-.447-1-1v-15c0-.553.447-1 1-1s1 .447 1 1v15c0 .553-.447 1-1 1"/><path d="m27 22c-.553 0-1-.447-1-1v-15c0-.553.447-1 1-1s1 .447 1 1v15c0 .553-.447 1-1 1"/><path d="m33 22c-.553 0-1-.447-1-1v-15c0-.553.447-1 1-1s1 .447 1 1v15c0 .553-.447 1-1 1"/><path d="m44.0518 22.1543c-.419 0-.809-.265-.948-.684l-5.052-15.154c-.175-.524.108-1.091.632-1.265.527-.175 1.09.109 1.264.632l5.052 15.155c.175.524-.108 1.09-.632 1.264-.105.035-.212.052-.316.052"/></g><path d="m6 43c-.553 0-1-.447-1-1v-34c0-.553.447-1 1-1s1 .447 1 1v34c0 .553-.447 1-1 1" fill="#ecf0f1"/><path d="m52 43c-.553 0-1-.447-1-1v-34c0-.553.447-1 1-1s1 .447 1 1v34c0 .553-.447 1-1 1" fill="#ecf0f1"/><path d="m56 46h-54c-1.105 0-2-.895-2-2s.895-2 2-2h54c1.105 0 2 .895 2 2s-.895 2-2 2" fill="#ecf0f1"/><path d="m18 24c0-1.657-1.343-3-3-3s-3 1.343-3 3 1.343 3 3 3 3-1.343 3-3" fill="#bdc3c7"/><path d="m24 24c0-1.657-1.343-3-3-3s-3 1.343-3 3 1.343 3 3 3 3-1.343 3-3" fill="#ecf0f1"/><path d="m30 24c0-1.657-1.343-3-3-3s-3 1.343-3 3 1.343 3 3 3 3-1.343 3-3" fill="#bdc3c7"/><path d="m36 24c0-1.657-1.343-3-3-3s-3 1.343-3 3 1.343 3 3 3 3-1.343 3-3" fill="#ecf0f1"/><g fill="#bdc3c7"><path d="m48 24c0-1.657-1.343-3-3-3s-3 1.343-3 3 1.343 3 3 3 3-1.343 3-3"/><path d="m10 4c0-2.209-1.791-4-4-4s-4 1.791-4 4 1.791 4 4 4 4-1.791 4-4"/><path d="m56 4c0-2.209-1.791-4-4-4s-4 1.791-4 4 1.791 4 4 4 4-1.791 4-4"/></g><path d="m48.5548 6c-.344-.59-.555-1.268-.555-2s.211-1.41.555-2h-39.11c.344.59.555 1.268.555 2s-.211 1.41-.555 2z" fill="#ecf0f1"/></g></svg>