<?xml version="1.0" encoding="UTF-8"?>
<svg width="58px" height="58px" viewBox="0 0 58 58" version="1.1" xmlns="http://www.w3.org/2000/svg" xmlns:xlink="http://www.w3.org/1999/xlink">
    <!-- Generator: Sketch 43.2 (39069) - http://www.bohemiancoding.com/sketch -->
    <title>44 -Polaroid Camera- (photography, video, record)</title>
    <desc>Created with Sketch.</desc>
    <defs></defs>
    <g id="Page-1" stroke="none" stroke-width="1" fill="none" fill-rule="evenodd">
        <g id="Icons" transform="translate(-481.000000, -803.000000)">
            <g id="44--Polaroid-Camera--(photography,-video,-record)" transform="translate(481.000000, 803.000000)">
                <g id="Page-1" transform="translate(42.000000, 16.000000)"></g>
                <path d="M54,0 L4,0 C1.791,0 0,1.791 0,4 L0,20 C0,21.105 0.895,22 2,22 L3,22 L55,22 L56,22 C57.105,22 58,21.105 58,20 L58,4 C58,1.791 56.209,0 54,0" id="Fill-222" fill="#525464"></path>
                <path d="M54,0 L52,0 C54.209,0 56,1.791 56,4 L56,20 C56,21.105 55.105,22 54,22 L55,22 L56,22 C57.105,22 58,21.105 58,20 L58,4 C58,1.791 56.209,0 54,0" id="Fill-223" fill="#3E3F4B"></path>
                <path d="M56,42 L55,42 L3,42 L2,42 C0.895,42 0,42.895 0,44 L0,52 C0,55.314 2.686,58 6,58 L52,58 C55.314,58 58,55.314 58,52 L58,44 C58,42.895 57.105,42 56,42" id="Fill-224" fill="#525464"></path>
                <path d="M56,42 L55,42 L54,42 C55.105,42 56,42.895 56,44 L56,52 C56,55.314 53.314,58 50,58 L52,58 C55.314,58 58,55.314 58,52 L58,44 C58,42.895 57.105,42 56,42" id="Fill-225" fill="#3E3F4B"></path>
                <path d="M6,53 C6,53.552 5.552,54 5,54 C4.448,54 4,53.552 4,53 C4,52.448 4.448,52 5,52 C5.552,52 6,52.448 6,53" id="Fill-1388" fill="#707384"></path>
                <path d="M10,53 C10,53.552 9.552,54 9,54 C8.448,54 8,53.552 8,53 C8,52.448 8.448,52 9,52 C9.552,52 10,52.448 10,53" id="Fill-1389" fill="#707384"></path>
                <path d="M14,53 C14,53.552 13.552,54 13,54 C12.448,54 12,53.552 12,53 C12,52.448 12.448,52 13,52 C13.552,52 14,52.448 14,53" id="Fill-1390" fill="#707384"></path>
                <path d="M53,48 L5,48 C3.895,48 3,47.105 3,46 L3,14 C3,12.895 3.895,12 5,12 L53,12 C54.105,12 55,12.895 55,14 L55,46 C55,47.105 54.105,48 53,48" id="Fill-1397" fill="#707384"></path>
                <path d="M53,12 L51,12 C52.105,12 53,12.895 53,14 L53,46 C53,47.105 52.105,48 51,48 L53,48 C54.105,48 55,47.105 55,46 L55,14 C55,12.895 54.105,12 53,12" id="Fill-1398" fill="#383A42"></path>
                <path d="M4,0 L6,0 C3.791,0 2,1.791 2,4 L2,20 C2,21.105 2.895,22 4,22 L3,22 L2,22 C0.895,22 0,21.105 0,20 L0,4 C0,1.791 1.791,0 4,0" id="Fill-1399" fill="#9798A2"></path>
                <path d="M2,42 L3,42 L4,42 C2.895,42 2,42.895 2,44 L2,52 C2,55.314 4.686,58 8,58 L6,58 C2.686,58 0,55.314 0,52 L0,44 C0,42.895 0.895,42 2,42" id="Fill-1400" fill="#9798A2"></path>
                <path d="M5,12 L7,12 C5.895,12 5,12.895 5,14 L5,46 C5,47.105 5.895,48 7,48 L5,48 C3.895,48 3,47.105 3,46 L3,14 C3,12.895 3.895,12 5,12" id="Fill-1401" fill="#A9ABB5"></path>
                <path d="M50,8 L42.618,8 C41.875,8 41.391,7.218 41.724,6.553 L42.724,4.553 C42.893,4.214 43.239,4 43.618,4 L50,4 C50.552,4 51,4.448 51,5 L51,7 C51,7.552 50.552,8 50,8" id="Fill-1408" fill="#F0C419"></path>
                <path d="M36,39 L22,39 C20.895,39 20,38.105 20,37 L20,23 C20,21.895 20.895,21 22,21 L36,21 C37.105,21 38,21.895 38,23 L38,37 C38,38.105 37.105,39 36,39" id="Fill-1409" fill="#556080"></path>
                <path d="M22,22 C21.449,22 21,22.449 21,23 L21,37 C21,37.551 21.449,38 22,38 L36,38 C36.551,38 37,37.551 37,37 L37,23 C37,22.449 36.551,22 36,22 L22,22 Z M36,40 L22,40 C20.346,40 19,38.654 19,37 L19,23 C19,21.346 20.346,20 22,20 L36,20 C37.654,20 39,21.346 39,23 L39,37 C39,38.654 37.654,40 36,40 L36,40 Z" id="Fill-1410" fill="#8697CB"></path>
                <path d="M34,30 C34,32.761 31.761,35 29,35 C26.239,35 24,32.761 24,30 C24,27.239 26.239,25 29,25 C31.761,25 34,27.239 34,30" id="Fill-1411" fill="#FFFFFF"></path>
                <path d="M11,20 L9,20 C8.448,20 8,19.552 8,19 L8,17 C8,16.448 8.448,16 9,16 L11,16 C11.552,16 12,16.448 12,17 L12,19 C12,19.552 11.552,20 11,20" id="Fill-1412" fill="#464656"></path>
                <path d="M49,22 L43,22 C42.448,22 42,21.552 42,21 L42,17 C42,16.448 42.448,16 43,16 L49,16 C49.552,16 50,16.448 50,17 L50,21 C50,21.552 49.552,22 49,22" id="Fill-1413" fill="#464656"></path>
                <path d="M49,16 L48.333,16 L42,20.75 L42,21 C42,21.552 42.448,22 43,22 L43.667,22 L50,17.25 L50,17 C50,16.448 49.552,16 49,16" id="Fill-1764" fill="#525464"></path>
            </g>
        </g>
    </g>
</svg>