<svg height="52" viewBox="0 0 58 52" width="58" xmlns="http://www.w3.org/2000/svg"><g fill="none"><g fill="#95a5a5"><path d="m49.99994 5.99991h4v6.77h-4z"/><path d="m51 0h2c1.1045695 0 2 .8954305 2 2v3h-6v-3c0-1.1045695.8954305-2 2-2z"/><path d="m7 0h-2c-1.1045695 0-2 .8954305-2 2v3h6v-3c0-1.1045695-.8954305-2-2-2z"/><path d="m4 7.375h4v5.395h-4z"/></g><path d="m1 21c-.4043959-.0000863-.76893405-.2437275-.92367798-.6173454-.15474393-.373618-.06922994-.8036603.21667798-1.0896546l2.87988-2.87988c.25259749-.2525975.62076635-.351248.96582094-.2587909s.6145729.3619754.70703.70703c.0924571.3450545-.00619345.7132234-.25879094.9658209l-2.87994 2.87982c-.18729024.1878521-.44173418.2933006-.707.293z" fill="#7f8c8d"/><path d="m57 21c-.2652658.0003006-.5197098-.1051479-.707-.293l-2.87988-2.87988c-.2525975-.2525975-.351248-.6207664-.2587909-.9658209.0924571-.3450546.3619754-.6145729.70703-.70703.3450545-.0924571.7132234.0061934.9658209.2587909l2.87982 2.87994c.2859079.2859943.3714219.7160366.216678 1.0896546-.1547439.3736179-.5192821.6172591-.923678.6173454z" fill="#7f8c8d"/><g fill="#cb9080"><path d="m15.0719 15h27.9281v4h-27.9281z"/><path d="m47.68458 38h-37.36968c-.37359409.0255727-.73028799-.1592366-.92486087-.4791864s-.19457288-.7216774 0-1.0416272.55126678-.5047591.92486087-.4791864h37.36968c.3735941-.0255727.730288.1592366.9248609.4791864s.1945729.7216774 0 1.0416272-.5512668.5047591-.9248609.4791864z"/><path d="m50.92925 48h-43.8585c-.37359409.0255727-.73028799-.1592366-.92486087-.4791864s-.19457288-.7216774 0-1.0416272.55126678-.5047591.92486087-.4791864h43.8585c.3735941-.0255727.730288.1592366.9248609.4791864s.1945729.7216774 0 1.0416272-.5512668.5047591-.9248609.4791864z"/></g><rect fill="#af8066" height="4" rx="1" width="58" y="4"/><circle cx="6" cy="15" fill="#bdc3c7" r="3"/><circle cx="52" cy="15" fill="#bdc3c7" r="3"/><path d="m17 6v13l-9.59 31.64c-.24228347.8080312-.98642745 1.3610563-1.83 1.36h-.01c-.60373486.0007913-1.17196708-.285183-1.53104385-.7705285-.35907677-.4853456-.46632007-1.1123767-.28895615-1.6894715l9.25-30.54v-13z" fill="#af8066"/><path d="m52.43 52h-.01c-.8435726.0010563-1.5877165-.5519688-1.83-1.36l-9.59-31.64v-13h4v13l9.25 30.54c.1773639.5770948.0701206 1.2041259-.2889562 1.6894715-.3590767.4853455-.9273089.7713198-1.5310438.7705285z" fill="#af8066"/></g></svg>