<svg height="56" viewBox="0 0 58 56" width="58" xmlns="http://www.w3.org/2000/svg"><g fill="none" fill-rule="evenodd"><path d="m39.7734 53h-21.548c-.223 0-.31-.308-.124-.437l1.806-1.273c1.947-1.373 2.867-3.891 2.3-6.29h13.587v.002c-.568 2.399.353 4.917 2.301 6.29l1.804 1.271c.186.131.098.437-.126.437" fill="#bdc3c7"/><path d="m54.502 45h-51.004c-1.932 0-3.498-1.566-3.498-3.499v-38.002c0-1.933 1.566-3.499 3.498-3.499h51.004c1.932 0 3.498 1.566 3.498 3.499v38.002c0 1.933-1.566 3.499-3.498 3.499" fill="#ecf0f1"/><path d="m58 36h-58v-32.501c0-1.933 1.566-3.499 3.498-3.499h51.004c1.932 0 3.498 1.566 3.498 3.499z" fill="#35495e"/><path d="m54.502 0h-3c1.932 0 3.498 1.566 3.498 3.499v32.501h3v-32.501c0-1.933-1.566-3.499-3.498-3.499" fill="#283747"/><path d="m3.498 45h3c-1.932 0-3.498-1.566-3.498-3.499v-5.501h-3v5.501c0 1.933 1.566 3.499 3.498 3.499" fill="#f4f7f7"/><path d="m54.502 45h-3c1.932 0 3.498-1.566 3.498-3.499v-5.501h3v5.501c0 1.933-1.566 3.499-3.498 3.499" fill="#b1b4b5"/><path d="m3.498 0h3c-1.932 0-3.498 1.566-3.498 3.499v32.501h-3v-32.501c0-1.933 1.566-3.499 3.498-3.499" fill="#5d6d7e"/><path d="m40.5 56h-23c-.825 0-1.5-.675-1.5-1.5s.675-1.5 1.5-1.5h23c.825 0 1.5.675 1.5 1.5s-.675 1.5-1.5 1.5" fill="#ecf0f1"/><path d="m29 28-10-5v-11l10 4z" fill="#e57e25"/><path d="m29 28 10-5v-11l-10 4z" fill="#c1631e"/><path d="m29 16-10-4 10-5 10 5z" fill="#f29c1f"/><path d="m15 6h-5c-.553 0-1-.448-1-1s.447-1 1-1h5c.553 0 1 .448 1 1s-.447 1-1 1" fill="#4482c3"/><path d="m6 6h-1c-.553 0-1-.448-1-1s.447-1 1-1h1c.553 0 1 .448 1 1s-.447 1-1 1" fill="#e64c3c"/><path d="m9 10h-4c-.553 0-1-.448-1-1s.447-1 1-1h4c.553 0 1 .448 1 1s-.447 1-1 1" fill="#24ae5f"/><path d="m15 10h-2c-.553 0-1-.448-1-1s.447-1 1-1h2c.553 0 1 .448 1 1s-.447 1-1 1" fill="#f0c419"/><path d="m53 28h-5c-.553 0-1-.448-1-1s.447-1 1-1h5c.553 0 1 .448 1 1s-.447 1-1 1" fill="#894b9d"/><path d="m44 28h-1c-.553 0-1-.448-1-1s.447-1 1-1h1c.553 0 1 .448 1 1s-.447 1-1 1" fill="#4482c3"/><path d="m47 32h-4c-.553 0-1-.448-1-1s.447-1 1-1h4c.553 0 1 .448 1 1s-.447 1-1 1" fill="#f29c1f"/><path d="m53 32h-2c-.553 0-1-.448-1-1s.447-1 1-1h2c.553 0 1 .448 1 1s-.447 1-1 1" fill="#e64c3c"/><path d="m50 12c-.553 0-1-.448-1-1v-6c0-.552.447-1 1-1s1 .448 1 1v6c0 .552-.447 1-1 1" fill="#f0c419"/><path d="m53 9h-6c-.553 0-1-.448-1-1s.447-1 1-1h6c.553 0 1 .448 1 1s-.447 1-1 1" fill="#f0c419"/><g fill="#894b9d"><path d="m7 32c-.256 0-.512-.098-.707-.293-.391-.391-.391-1.023 0-1.414l6-6c.391-.391 1.023-.391 1.414 0s.391 1.023 0 1.414l-6 6c-.195.195-.451.293-.707.293"/><path d="m13 32c-.256 0-.512-.098-.707-.293l-6-6c-.391-.391-.391-1.023 0-1.414s1.023-.391 1.414 0l6 6c.391.391.391 1.023 0 1.414-.195.195-.451.293-.707.293"/></g></g></svg>