<svg height="56" viewBox="0 0 43 56" width="43" xmlns="http://www.w3.org/2000/svg"><g fill="none" fill-rule="evenodd"><path d="m30.485 0h-29.022c-.808 0-1.463.655-1.463 1.926v53.074c0 .345.655 1 1.463 1h40.074c.808 0 1.463-.655 1.463-1v-42.022c0-.696-.093-.92-.257-1.085l-11.636-11.636c-.165-.164-.389-.257-.622-.257" fill="#e9e9e0"/><path d="m31 .151v11.849h11.849z" fill="#d9d7ca"/><path d="m41.537 56h-40.074c-.808 0-1.463-.655-1.463-1.463v-15.537h43v15.537c0 .808-.655 1.463-1.463 1.463" fill="#f29c1f"/><g fill="#fff"><path d="m12.879 48.105 2.557 4.895h-1.901l-1.599-3.801h-.137l-1.723 3.801h-1.9l2.556-4.895-2.72-5.181h1.873l1.777 4.101h.137l1.928-4.101h1.873z"/><path d="m25.498 42.924h1.668v10.076h-1.668v-6.932l-2.256 5.606h-1.449l-2.27-5.606v6.932h-1.667v-10.076h1.667l2.995 6.891z"/><path d="m31.363 42.924v8.832h4.635v1.244h-6.303v-10.076z"/></g><g fill="#f29c1f"><path d="m9 24c-.256 0-.512-.098-.707-.293-.391-.391-.391-1.023 0-1.414l6-6c.391-.391 1.023-.391 1.414 0s.391 1.023 0 1.414l-6 6c-.195.195-.451.293-.707.293"/><path d="m15 30c-.256 0-.512-.098-.707-.293l-6-6c-.391-.391-.391-1.023 0-1.414s1.023-.391 1.414 0l6 6c.391.391.391 1.023 0 1.414-.195.195-.451.293-.707.293"/><path d="m27 30c-.256 0-.512-.098-.707-.293-.391-.391-.391-1.023 0-1.414l6-6c.391-.391 1.023-.391 1.414 0s.391 1.023 0 1.414l-6 6c-.195.195-.451.293-.707.293"/><path d="m33 24c-.256 0-.512-.098-.707-.293l-6-6c-.391-.391-.391-1.023 0-1.414s1.023-.391 1.414 0l6 6c.391.391.391 1.023 0 1.414-.195.195-.451.293-.707.293"/><path d="m18 32c-.11 0-.223-.018-.333-.057-.52-.184-.794-.755-.61-1.276l6-17c.184-.521.753-.795 1.276-.61.521.184.794.755.61 1.276l-6 17c-.145.411-.531.667-.943.667"/></g></g></svg>