<svg height="52" viewBox="0 0 58 52" width="58" xmlns="http://www.w3.org/2000/svg"><g fill="none"><path d="m48.52148 12.31641c.3049262.186314.4872923.5211514.4784027.8783822-.0088896.3572309-.2076843.6825832-.5215.8535-.3138158.1709169-.6949765.1614318-.9999027-.0248822l-16.00973-10.16989h-4.9375l-16.00977 10.16992c-.471375.2880165-1.0869835.139375-1.375-.332s-.13937503-1.0869835.332-1.375l18.47877-11.67933c.6401512-.39112622 1.4453488-.39112622 2.0855 0z" fill="#bdc3c7"/><rect fill="#95a5a5" height="40" rx="2" width="58" y="12"/><path d="m13 7h32v50h-32z" fill="#fdd7ad" transform="matrix(0 1 -1 0 61 3)"/><path d="m47 31c-.5522847 0-1-.4477153-1-1v-4c0-.5522847.4477153-1 1-1s1 .4477153 1 1v4c0 .5522847-.4477153 1-1 1z" fill="#7f8c8d"/><path d="m13 45c-.5522847 0-1-.4477153-1-1v-7c0-.5522847.4477153-1 1-1s1 .4477153 1 1v7c0 .5522847-.4477153 1-1 1z" fill="#7f8c8d"/><g fill="#cc4b4c"><path d="m18 45h-1c-.5522847 0-1-.4477153-1-1s.4477153-1 1-1h1c.5522847 0 1 .4477153 1 1s-.4477153 1-1 1z"/><path d="m23 45h-1c-.5522847 0-1-.4477153-1-1s.4477153-1 1-1h1c.5522847 0 1 .4477153 1 1s-.4477153 1-1 1z"/><path d="m28 45h-1c-.5522847 0-1-.4477153-1-1s.4477153-1 1-1h1c.5522847 0 1 .4477153 1 1s-.4477153 1-1 1z"/><path d="m33 45h-1.00049c-.5522847 0-1-.4477153-1-1s.4477153-1 1-1h1.00049c.5522847 0 1 .4477153 1 1s-.4477153 1-1 1z"/><path d="m38 45h-.99951c-.5522847 0-1-.4477153-1-1s.4477153-1 1-1h.99951c.5522847 0 1 .4477153 1 1s-.4477153 1-1 1z"/><path d="m42.99951 45h-.99951c-.5522847 0-1-.4477153-1-1s.4477153-1 1-1h.99951c.5522847 0 1 .4477153 1 1s-.4477153 1-1 1z"/><path d="m44 42c-.5522847 0-1-.4477153-1-1v-.99951c0-.5522847.4477153-1 1-1s1 .4477153 1 1v.99951c0 .5522847-.4477153 1-1 1z"/><path d="m24 35c-.5522847 0-1-.4477153-1-1v-.99951c0-.5522847.4477153-1 1-1s1 .4477153 1 1v.99951c0 .5522847-.4477153 1-1 1z"/><path d="m38 38h-1c-.5522847 0-1-.4477153-1-1s.4477153-1 1-1h1c.5522847 0 1 .4477153 1 1s-.4477153 1-1 1z"/><path d="m43 38h-1c-.5522847 0-1-.4477153-1-1s.4477153-1 1-1h1c.5522847 0 1 .4477153 1 1s-.4477153 1-1 1z"/><path d="m33 38h-1c-.5522847 0-1-.4477153-1-1s.4477153-1 1-1h1c.5522847 0 1 .4477153 1 1s-.4477153 1-1 1z"/><path d="m28 38h-1c-.5522847 0-1-.4477153-1-1s.4477153-1 1-1h1c.5522847 0 1 .4477153 1 1s-.4477153 1-1 1z"/><path d="m28 31h-1c-.5522847 0-1-.4477153-1-1s.4477153-1 1-1h1c.5522847 0 1 .4477153 1 1s-.4477153 1-1 1z"/><path d="m33 31h-1c-.5522847 0-1-.4477153-1-1s.4477153-1 1-1h1c.5522847 0 1 .4477153 1 1s-.4477153 1-1 1z"/><path d="m37.99951 31h-.999c-.5522847 0-1-.4477153-1-1s.4477153-1 1-1h.999c.5522847 0 1 .4477153 1 1s-.4477153 1-1 1z"/><path d="m43 31h-1c-.5522847 0-1-.4477153-1-1s.4477153-1 1-1h1c.5522847 0 1 .4477153 1 1s-.4477153 1-1 1z"/></g><circle cx="29" cy="3" fill="#7f8c8d" r="3"/><g fill="#cc4b4c"><circle cx="47" cy="23" r="3"/><circle cx="13" cy="32" r="5"/></g></g></svg>