<svg height="58" viewBox="0 0 58 58" width="58" xmlns="http://www.w3.org/2000/svg"><g fill="none" fill-rule="evenodd"><path d="m47.6159 12.0071c-.679.736-3.56 4.137-4.616 9.782 1.845 15.507 14.774 14.05 14.774 14.05 0-11.907-6.013-19.803-10.158-23.832" fill="#bdc3c7"/><path d="m47.6159 12.0071c-.031.034-.072.08-.113.125 3.868 4.405 8.271 11.649 8.271 21.839 0 0-4.821.536-8.995-2.573 4.441 5.174 10.995 4.441 10.995 4.441 0-11.907-6.013-19.803-10.158-23.832" fill="#9ba5aa"/><path d="m10.3851 12.0071c-4.145 4.029-10.159 11.926-10.159 23.833 0 0 12.929 1.457 14.774-14.051-1.055-5.643-3.934-9.044-4.615-9.782" fill="#bdc3c7"/><path d="m10.3851 12.0071c-.35.341-.717.719-1.09 1.115 1.149 1.551 2.925 4.494 3.705 8.667-1.39 11.684-9.07 13.737-12.774 14.04v.011s12.929 1.457 14.774-14.051c-1.055-5.643-3.934-9.044-4.615-9.782" fill="#9ba5aa"/><path d="m29 .0071c-4.417-.083-5 2.005-5 2.005-10.5-4.167-10 6-10 6-4-.25-4 4-4 4s6.25 6.166 5 17c0 0-1 3.416-1 13 0 0-.834 15.996 15 16v-.005c15.834-.004 15-16 15-16 0-9.583-1-13-1-13-1.25-10.833 5-17 5-17s0-4.25-4-4c0 0 .5-10.167-10-6 0 0-.583-2.088-5-2.005z" fill="#ecf0f1"/><path d="m14.0505 38.4795c15.568-12.065 19.765-31.003 20.705-36.75-.247.086-.495.174-.756.278 0 0-.583-2.088-5-2.005v.005c-4.416-.084-5 2.004-5 2.004-10.5-4.167-10 6-10 6-4-.25-4 4-4 4s6.25 6.167 5 17c0 0-.747 2.568-.949 9.468" fill="#d4dbdd"/><path d="m29 35.0071c-6.892 0-12.748 3.274-15 7.857.092 3.299 1.371 15.144 15 15.148v-.005c13.624-.003 14.907-11.838 15-15.144-2.252-4.582-8.108-7.856-15-7.856" fill="#fac176"/><path d="m24.6904 47.0071h-3.381c-.601 0-.993-.633-.724-1.171l1.691-3.381c.298-.597 1.149-.597 1.448 0l1.69 3.381c.269.538-.122 1.171-.724 1.171" fill="#d75d72"/><path d="m36.6904 47.0071h-3.381c-.601 0-.993-.633-.724-1.171l1.691-3.381c.298-.597 1.149-.597 1.448 0l1.69 3.381c.269.538-.122 1.171-.724 1.171" fill="#d75d72"/><g fill="#bdc3c7"><path d="m20 9.0046c-1.28 0-2.561-.487-3.536-1.462-.39-.39-.39-1.023 0-1.414.391-.391 1.024-.391 1.414 0 1.17 1.169 3.074 1.169 4.244 0 .39-.391 1.023-.391 1.414 0 .39.391.39 1.024 0 1.414-.975.975-2.256 1.462-3.536 1.462"/><path d="m38 9.0046c-1.28 0-2.561-.487-3.536-1.462-.39-.39-.39-1.023 0-1.414.391-.391 1.024-.391 1.414 0 1.17 1.169 3.074 1.169 4.244 0 .39-.391 1.023-.391 1.414 0 .39.391.39 1.024 0 1.414-.975.975-2.256 1.462-3.536 1.462"/><path d="m29 7.0071c-1.068 0-2.073-.416-2.828-1.172-.391-.39-.391-1.024 0-1.414.39-.391 1.023-.391 1.414 0 .756.756 2.072.756 2.828 0 .39-.391 1.024-.391 1.414 0 .391.39.391 1.024 0 1.414-.755.756-1.76 1.172-2.828 1.172"/></g><path d="m29 55.0071c-3.396 0-6.318-1.28-7.819-3.425-.317-.452-.207-1.075.246-1.392s1.076-.207 1.392.246c1.127 1.61 3.438 2.571 6.181 2.571s5.054-.962 6.181-2.573c.316-.451.94-.562 1.392-.246.453.317.563.94.246 1.393-1.5 2.145-4.423 3.426-7.819 3.426" fill="#d75d72"/><path d="m26 17.0071c0 2.761-1.791 5-4 5s-4-2.239-4-5 1.791-5 4-5 4 2.239 4 5" fill="#fff"/><path d="m24.4 19.0071c0 1.657-1.075 3-2.4 3s-2.4-1.343-2.4-3 1.075-3 2.4-3 2.4 1.343 2.4 3" fill="#35495e"/><path d="m24 17.0071c0 .552-.448 1-1 1s-1-.448-1-1 .448-1 1-1 1 .448 1 1" fill="#fff"/><path d="m40 17.0071c0 2.761-1.791 5-4 5s-4-2.239-4-5 1.791-5 4-5 4 2.239 4 5" fill="#fff"/><path d="m38.4 19.0071c0 1.657-1.075 3-2.4 3s-2.4-1.343-2.4-3 1.075-3 2.4-3 2.4 1.343 2.4 3" fill="#35495e"/><path d="m38 17.0071c0 .552-.448 1-1 1s-1-.448-1-1 .448-1 1-1 1 .448 1 1" fill="#fff"/></g></svg>