<svg xmlns="http://www.w3.org/2000/svg" viewBox="0 0 684.7 539.38"><defs><style>.cls-1{isolation:isolate;}.cls-11,.cls-2{fill:#ecf3f6;}.cls-13,.cls-2,.cls-8{stroke:#aac6ca;}.cls-10,.cls-13,.cls-2,.cls-5,.cls-8{stroke-miterlimit:10;}.cls-13,.cls-2{stroke-width:1.62px;}.cls-3,.cls-9{fill:#baccd3;}.cls-3{opacity:0.5;}.cls-3,.cls-6,.cls-9{mix-blend-mode:multiply;}.cls-4{fill:#f1f6f8;}.cls-5{fill:#ff8288;stroke:#e8606d;stroke-width:2px;}.cls-6{fill:#e8606d;opacity:0.2;}.cls-12,.cls-7{fill:#fff;}.cls-10,.cls-13,.cls-8{fill:none;}.cls-10,.cls-8{stroke-width:1.37px;}.cls-9{opacity:0.3;}.cls-10{stroke:#ff8288;}.cls-12{opacity:0.8;}.cls-14{fill:#aac6ca;}</style></defs><title>Ship Shape 404</title><g class="cls-1"><g id="Layer_1" data-name="Layer 1"><path class="cls-2" d="M410.21,246.72c-13.49-3.61-32,21-32,21-11.93-33.24,23.32-45.87,23.32-45.87S446,205.48,446,267.68C446,267.68,429.8,252,410.21,246.72Z"/><path class="cls-3" d="M402.88,242.26s23.55-13.24,33.39,15.2l-34.66-13.15Z"/><path class="cls-4" d="M540.81,106a2.31,2.31,0,0,0-4.2,1.37c.24,18.87-2.43,73.21-38,113.36-41.33,46.66-66.23,72.78-65.79,146.89s53.27,18.53,53.27,18.53-8.19-74.89,29.58-125.71C551.47,212.23,565.82,141,540.81,106Z"/><rect class="cls-4" x="550.38" y="125.14" width="5.53" height="15.23" rx="2.77" transform="translate(-13.71 85.12) rotate(-8.69)"/><rect class="cls-4" x="552.73" y="152.39" width="5.53" height="15.23" rx="2.77" transform="translate(8.33 -26.52) rotate(2.76)"/><rect class="cls-4" x="549.09" y="179.19" width="5.53" height="15.23" rx="2.77" transform="translate(52.56 -113.45) rotate(12.32)"/><rect class="cls-4" x="541.69" y="203.11" width="5.53" height="15.23" rx="2.77" transform="translate(102.77 -171.05) rotate(19.68)"/><rect class="cls-4" x="530.32" y="228.06" width="5.53" height="15.23" rx="2.77" transform="translate(176.89 -225.68) rotate(28.48)"/><rect class="cls-4" x="515.27" y="252.11" width="5.53" height="15.23" rx="2.77" transform="translate(244.82 -251.33) rotate(35.24)"/><rect class="cls-4" x="501.99" y="275.82" width="5.53" height="15.23" rx="2.77" transform="translate(152.06 -175.61) rotate(23.15)"/><rect class="cls-4" x="491.16" y="306.22" width="5.53" height="15.23" rx="2.77" transform="matrix(0.96, 0.26, -0.26, 0.96, 100.8, -119.65)"/><rect class="cls-4" x="486.2" y="332.14" width="5.53" height="15.23" rx="2.77" transform="translate(58.03 -71.11) rotate(8.84)"/><rect class="cls-4" x="484.48" y="359.91" width="5.53" height="15.23" rx="2.77" transform="matrix(1, 0.03, -0.03, 1, 12.15, -15.58)"/><path class="cls-5" d="M401.82,432.1c-36,4.54-76.11-13.46-81.49-56.13l-7.15-56.73c-5.35-42.42,29-70.05,65-74.59,38.72-4.88,75,10.84,81.74,56.1l6.65,56.79C472,400.21,438.07,427.53,401.82,432.1Zm-18.65-148c-12.09,1.53-24.57,11.87-22.39,29.13l7.09,56.24c2.24,17.76,16.89,24.68,29,23.16,12.34-1.56,24.81-11.9,22.57-29.66l-7.08-56.23C410.15,289.48,395.5,282.56,383.17,284.11Z"/><path class="cls-6" d="M401.82,433c34.24-4.32,66.35-28.92,65.3-67.56h-1c-24.11,0-25.27,8.29-47.21,9.08-2.75,11.26-12.45,17.81-22.07,19-12.08,1.52-26.74-5.4-29-23.16l-.62-4.93-2.38,0c-23.23,0-25.16,7.69-44.86,9l.32,2.48C325.71,419.54,365.82,437.54,401.82,433Z"/><circle class="cls-4" cx="172.6" cy="151.19" r="151.19"/><path class="cls-7" d="M0,108.17A40.38,40.38,0,0,1,74.83,93.89a22.73,22.73,0,0,1,32.23,14.28Z"/><path class="cls-7" d="M380.1,193.31a49.62,49.62,0,0,0-92-17.54,27.91,27.91,0,0,0-39.6,17.54Z"/><path class="cls-4" d="M667,161.58a2.32,2.32,0,0,0-4.21,1.37c.24,18.88-2.42,73.21-38,113.36C583.48,323,558.58,349.09,559,423.2s53.26,18.53,53.26,18.53-8.18-74.88,29.58-125.7C677.68,267.85,692,196.57,667,161.58Z"/><rect class="cls-4" x="676.59" y="180.77" width="5.53" height="15.23" rx="2.77" transform="translate(-20.67 104.83) rotate(-8.69)"/><rect class="cls-4" x="678.94" y="208.01" width="5.53" height="15.23" rx="2.77" transform="translate(11.15 -32.52) rotate(2.76)"/><rect class="cls-4" x="675.3" y="234.81" width="5.53" height="15.23" rx="2.77" transform="translate(67.34 -139.09) rotate(12.32)"/><rect class="cls-4" x="667.9" y="258.73" width="5.53" height="15.23" rx="2.77" transform="translate(128.88 -210.31) rotate(19.68)"/><rect class="cls-4" x="656.52" y="283.68" width="5.53" height="15.23" rx="2.77" transform="translate(218.69 -279.13) rotate(28.48)"/><rect class="cls-4" x="641.48" y="307.73" width="5.53" height="15.23" rx="2.77" transform="translate(300.04 -313.95) rotate(35.24)"/><rect class="cls-4" x="628.19" y="331.44" width="5.53" height="15.23" rx="2.77" transform="translate(184.09 -220.74) rotate(23.15)"/><rect class="cls-4" x="617.36" y="361.84" width="5.53" height="15.23" rx="2.77" transform="translate(120.04 -151.1) rotate(15.36)"/><rect class="cls-4" x="612.4" y="387.77" width="5.53" height="15.23" rx="2.77" transform="translate(68.08 -89.85) rotate(8.84)"/><rect class="cls-4" x="610.69" y="415.54" width="5.53" height="15.23" rx="2.77" transform="translate(14.02 -19.64) rotate(1.86)"/><path class="cls-7" d="M203.25,208.94c-35.57-40.15-38.24-94.49-38-113.36a2.32,2.32,0,0,0-4.21-1.37,63.35,63.35,0,0,0-9.35,20.42,2.74,2.74,0,0,0-1.84-1.15,2.77,2.77,0,0,0-3.15,2.32l-1.46,9.58a2.75,2.75,0,0,0,3.91,2.92,115.59,115.59,0,0,0-.66,13.7,2.76,2.76,0,0,0-5.13,1.54l.47,9.69a2.76,2.76,0,0,0,5.3.93c.46,4.78,1.16,9.65,2.09,14.56a2.76,2.76,0,0,0-5,2.19l2.07,9.47a2.76,2.76,0,0,0,5.43-.23c1,4,2.18,8,3.47,11.93a2.73,2.73,0,0,0-2.4-.28,2.76,2.76,0,0,0-1.67,3.54l3.26,9.13a2.77,2.77,0,0,0,3.54,1.67,2.74,2.74,0,0,0,1.7-1.8q2.55,6.41,5.55,12.66a2.76,2.76,0,0,0-3.18,4l4.62,8.53a2.75,2.75,0,0,0,5-.23q3.48,6.14,7.36,12a2.77,2.77,0,0,0-2.21,4.36l5.59,7.92a2.76,2.76,0,0,0,3.86.66h0a2.74,2.74,0,0,0,1-1.28,127.66,127.66,0,0,1,7.06,11.77,2.76,2.76,0,0,0-3.61,3.63l3.81,8.92a2.76,2.76,0,0,0,5.3-1,166.29,166.29,0,0,1,6.66,19,2.76,2.76,0,0,0-4.44,2.85l2.57,9.35a2.76,2.76,0,0,0,5.05.65c.94,4.42,1.71,8.77,2.33,13a2.75,2.75,0,0,0-4.52,2.51l1.49,9.58a2.76,2.76,0,0,0,4.65,1.57c.45,5.08.71,9.84.84,14.19a2.72,2.72,0,0,0-2-.81,2.77,2.77,0,0,0-2.68,2.85l.32,9.69a2.76,2.76,0,0,0,4.43,2.12c-.2,7.23-.66,11.53-.66,11.53S268.6,429.94,269,355.83,244.58,255.6,203.25,208.94Z"/><path class="cls-7" d="M61.08,378.44c25.32,0,25.32,9.15,50.63,9.15s25.32-9.15,50.63-9.15,25.31,9.15,50.63,9.15,25.31-9.15,50.63-9.15,25.32,9.15,50.63,9.15,25.32-9.15,50.64-9.15V481.21H61.68Z"/><path class="cls-8" d="M61.08,378.44c25.32,0,25.32,9.15,50.63,9.15s25.32-9.15,50.63-9.15,25.31,9.15,50.63,9.15,25.31-9.15,50.63-9.15,25.32,9.15,50.63,9.15,25.32-9.15,50.64-9.15"/><path class="cls-7" d="M364.87,378.44c25.31,0,25.31,9.15,50.63,9.15s25.31-9.15,50.63-9.15,25.31,9.15,50.63,9.15,25.31-9.15,50.62-9.15,25.32,9.15,50.64,9.15,25.32-9.15,50.64-9.15V481.21H360.53Z"/><path class="cls-8" d="M364.87,378.44c25.31,0,25.31,9.15,50.63,9.15s25.31-9.15,50.63-9.15,25.31,9.15,50.63,9.15,25.31-9.15,50.62-9.15,25.32,9.15,50.64,9.15,25.32-9.15,50.64-9.15"/><path class="cls-9" d="M500,525.58a4.83,4.83,0,0,0,1.17.86,4.79,4.79,0,0,0-1.17.85,4.74,4.74,0,0,0-.88,5.49l6.16-6.15,3.5,2.6a18.74,18.74,0,0,0,22.31,0l3.76-2.79-3.76-2.79a18.71,18.71,0,0,0-22.31,0l-3.5,2.6-6.16-6.16A4.73,4.73,0,0,0,500,525.58Z"/><path class="cls-9" d="M4.74,441.3a4.63,4.63,0,0,0,1.18.86,4.63,4.63,0,0,0-1.18.86,4.73,4.73,0,0,0-.87,5.48L10,442.35l3.51,2.6a18.71,18.71,0,0,0,22.31,0l3.76-2.79-3.76-2.79a18.71,18.71,0,0,0-22.31,0L10,442l-6.15-6.16A4.74,4.74,0,0,0,4.74,441.3Z"/><path class="cls-10" d="M381.69,171.62a9.38,9.38,0,0,1,9.37,9.37"/><path class="cls-10" d="M400.83,171.62a9.37,9.37,0,0,0-9.37,9.37"/><path class="cls-10" d="M406.81,146.5a9.38,9.38,0,0,1,9.37,9.37"/><path class="cls-10" d="M426,146.5a9.37,9.37,0,0,0-9.37,9.37"/><path class="cls-5" d="M211.19,396.67l-78.05-1.44.56-30.07,83.59-110.34,44.48.82-1.88,102.15,19.38.36-.73,39.77-19.39-.36-.82,44.49-48-.89Zm1.28-69.59L190.05,356.5l21.87.4Z"/><path class="cls-5" d="M560.08,448.76l-77-12.85L488,406.25l98.84-96.93,43.88,7.32L614,417.41l19.12,3.19-6.54,39.24-19.13-3.19-7.32,43.89-47.32-7.89Zm11.45-68.66-26.48,25.82,21.58,3.6Z"/><path class="cls-6" d="M210.36,440l48,.89.41-22.48a73.55,73.55,0,0,0-15.62-1.47c-17.11,0-23.19,4-32.46,6.82Z"/><path class="cls-7" d="M190.05,438.48c26.53,0,26.53-9.59,53.07-9.59s26.54,9.59,53.07,9.59,26.54-9.59,53.07-9.59v73.17H190.05Z"/><path class="cls-8" d="M190.05,438.48c26.53,0,26.53-9.59,53.07-9.59s26.54,9.59,53.07,9.59,26.54-9.59,53.07-9.59"/><path class="cls-11" d="M133.65,205.56c-38.93-5.23-62.15,34.33-62.15,34.33s-27.4,43.7-16.23,92.65,67.29,83.29,63.1,133.49l67.33.3C181,399.2,109.43,370.52,91,321.89c-17.26-45.68,4.26-78.5,4.26-78.5l18.47-25.88,9.68-7.66Z"/><path class="cls-12" d="M131.81,205.56s-81,23.08-54.29,119.61C90.9,373.56,157.2,410.28,153,460.48l32.69,5.85c-4-62.22-76.82-97.88-94.42-144.44-17.26-45.68,4.26-78.5,4.26-78.5l14.07-21.26,9.53-9.25Z"/><path class="cls-13" d="M71.5,239.89s-27.4,43.7-16.23,92.65,67.29,83.29,63.1,133.49l67.33.3C181,399.2,109.43,370.52,91,321.89c-17.26-45.68,4.26-78.5,4.26-78.5s12.51-25.32,30.38-34.83a1.87,1.87,0,0,0-1-3.51C112.5,205.57,90,210.92,71.5,239.89Z"/><path class="cls-9" d="M130.55,442.16a76.56,76.56,0,0,0-13.81,1.11,65.81,65.81,0,0,1,1.63,20.79l67.33.3A95.27,95.27,0,0,0,184,451.75h-.33C157.08,451.75,157.08,442.16,130.55,442.16Z"/><path class="cls-7" d="M77.48,462.85c26.53,0,26.53-9.59,53.07-9.59s26.53,9.59,53.07,9.59,26.54-9.59,53.07-9.59v73.18H77.48Z"/><path class="cls-8" d="M77.48,462.85c26.53,0,26.53-9.59,53.07-9.59s26.53,9.59,53.07,9.59,26.54-9.59,53.07-9.59"/><path class="cls-10" d="M593.8,201a9.37,9.37,0,0,1,9.36,9.37"/><path class="cls-10" d="M612.93,201a9.38,9.38,0,0,0-9.37,9.37"/><path class="cls-6" d="M606,462c-24.24,0-26.35-8-46.76-9.38l-6.34,38,47.32,7.9L606.34,462Z"/><path class="cls-7" d="M499.72,475.54c26.53,0,26.53-9.59,53.07-9.59s26.53,9.59,53.07,9.59S632.4,466,658.93,466v73.18H499.72Z"/><path class="cls-8" d="M499.72,475.54c26.53,0,26.53-9.59,53.07-9.59s26.53,9.59,53.07,9.59S632.4,466,658.93,466"/><path class="cls-9" d="M541.66,506.16a4.83,4.83,0,0,0,1.17.86,4.54,4.54,0,0,0-1.17.85,4.73,4.73,0,0,0-.88,5.49l6.16-6.15,3.5,2.6a18.74,18.74,0,0,0,22.31,0l3.76-2.79-3.76-2.8a18.74,18.74,0,0,0-22.31,0l-3.5,2.6-6.16-6.15A4.73,4.73,0,0,0,541.66,506.16Z"/><path class="cls-9" d="M604.75,532a4.58,4.58,0,0,0,1.17.86,4.58,4.58,0,0,0-1.17.86,4.73,4.73,0,0,0-.88,5.49l6.16-6.16,3.5,2.6a18.71,18.71,0,0,0,22.31,0l3.76-2.79-3.76-2.79a18.71,18.71,0,0,0-22.31,0l-3.5,2.6-6.16-6.15A4.72,4.72,0,0,0,604.75,532Z"/><rect class="cls-2" x="373.31" y="420.37" width="64.44" height="64.44" transform="translate(38.49 -31.74) rotate(4.7)"/><rect class="cls-2" x="380.13" y="427.19" width="50.8" height="50.8" transform="translate(38.49 -31.74) rotate(4.7)"/><polygon class="cls-2" points="378.53 471.02 378.13 475.82 382.94 476.22 432.53 434.16 432.93 429.36 428.13 428.96 378.53 471.02"/><polygon class="cls-2" points="429.16 475.18 428.76 479.99 423.96 479.59 381.9 429.99 382.3 425.19 387.1 425.58 429.16 475.18"/><line class="cls-2" x1="382.04" y1="428.37" x2="382.86" y2="418.4"/><line class="cls-2" x1="432.67" y1="432.53" x2="433.49" y2="422.56"/><line class="cls-2" x1="377.57" y1="482.62" x2="378.39" y2="472.64"/><line class="cls-2" x1="428.2" y1="486.78" x2="429.02" y2="476.81"/><path class="cls-9" d="M404.22,454.41c-16,0-22.36-3.48-30.71-6.25l-2.9,35.32,64.22,5.28,3.42-41.62C428.05,450,422.27,454.41,404.22,454.41Z"/><path class="cls-7" d="M298.25,463.52c26.53,0,26.53-9.59,53.07-9.59s26.53,9.59,53.07,9.59,26.53-9.59,53.07-9.59v73.18H298.25Z"/><path class="cls-8" d="M298.25,463.52c26.53,0,26.53-9.59,53.07-9.59s26.53,9.59,53.07,9.59,26.53-9.59,53.07-9.59"/><path class="cls-9" d="M222.21,501.68a4.58,4.58,0,0,0,1.17.86,4.58,4.58,0,0,0-1.17.86,4.72,4.72,0,0,0-.88,5.48l6.16-6.15,3.5,2.6a18.71,18.71,0,0,0,22.31,0l3.76-2.79-3.76-2.79a18.71,18.71,0,0,0-22.31,0l-3.5,2.6-6.16-6.16A4.73,4.73,0,0,0,222.21,501.68Z"/><path class="cls-6" d="M378.17,267.68a75.42,75.42,0,0,1,51.05-14.86s-42.84-23.45-44.9,2.73Z"/><path class="cls-11" d="M380.1,238.9s-7.3,9.07-8.83,26.43a2.72,2.72,0,0,0,4.83,1.91c7.14-9,19.72-26,37.69-28.34"/><path class="cls-14" d="M380.73,239.41a32,32,0,0,0-2.55,4.35,44.37,44.37,0,0,0-2.05,4.69,61.2,61.2,0,0,0-2.75,9.87c-.19.83-.32,1.68-.44,2.52s-.27,1.7-.34,2.55l-.14,1.28-.07.63a2.22,2.22,0,0,0,0,.45,1.48,1.48,0,0,0,.82,1.18,1.59,1.59,0,0,0,1.47,0,1.74,1.74,0,0,0,.6-.54l.81-1q1.61-2.06,3.27-4.08a89.56,89.56,0,0,1,14.93-14.9,40.31,40.31,0,0,1,9.17-5.37,27.34,27.34,0,0,1,10.33-2.16,52.17,52.17,0,0,0-18.26,9.16,87.58,87.58,0,0,0-14.41,14.7l-3.23,4.07-.82,1A4,4,0,0,1,375.7,269a3.9,3.9,0,0,1-3.55-.08,3.74,3.74,0,0,1-2-3,4,4,0,0,1,0-.85l.07-.66.16-1.32c.08-.88.22-1.75.37-2.63s.28-1.74.47-2.61a56.55,56.55,0,0,1,3.05-10.16,40,40,0,0,1,5.17-9.34Z"/></g></g></svg>