<svg xmlns="http://www.w3.org/2000/svg" width="791" height="299" viewBox="0 0 791 299">
  <g fill="none" fill-rule="evenodd" transform="translate(1)">
    <polygon fill="#3EBCA8" points="229.6 178 229.6 233.6 193.6 233.6 193.6 294 126.4 294 126.4 233.6 -.4 233.6 -.4 184 79.2 13.6 148.8 13.6 74 178 126.4 178 126.4 118.4 193.6 118.4 193.6 178"/>
    <polygon fill="#3EBCA8" points="789.6 178 789.6 233.6 753.6 233.6 753.6 294 686.4 294 686.4 233.6 559.6 233.6 559.6 184 639.2 13.6 708.8 13.6 634 178 686.4 178 686.4 118.4 753.6 118.4 753.6 178"/>
    <path fill="#40BCA8" d="M469.291287,137.329794 C455.264878,137.329794 443.884183,125.993421 443.884183,111.983724 C443.884183,97.990563 455.264878,86.6372076 469.291287,86.6372076 C483.318593,86.6372076 494.698391,97.990563 494.698391,111.983724 C494.698391,125.993421 483.318593,137.329794 469.291287,137.329794 M325.317101,111.983724 C325.317101,97.990563 336.697795,86.6372076 350.724205,86.6372076 C364.75151,86.6372076 376.131309,97.990563 376.131309,111.983724 C376.131309,125.993421 364.75151,137.329794 350.724205,137.329794 C336.697795,137.329794 325.317101,125.993421 325.317101,111.983724 M409.999683,0 C282.963266,0 283,118.282256 283,118.282256 L283,298.737372 L314.773215,256.538463 L346.49133,298.737372 L378.213028,256.538463 L409.936519,298.737372 L441.660457,256.538463 L473.385291,298.737372 L505.134764,256.538463 L536.999365,298.737372 L536.999365,118.282256 C536.999365,118.282256 537.035651,0 409.999683,0"/>
  </g>
</svg>
