<svg height="299" viewBox="0 0 791 299" width="791" xmlns="http://www.w3.org/2000/svg"><g fill="none" fill-rule="evenodd" transform="translate(1)"><path d="m229.6 178v55.6h-36v60.4h-67.2v-60.4h-126.8v-49.6l79.6-170.4h69.6l-74.8 164.4h52.4v-59.6h67.2v59.6z" fill="#3ebca8"/><path d="m789.6 178v55.6h-36v60.4h-67.2v-60.4h-126.8v-49.6l79.6-170.4h69.6l-74.8 164.4h52.4v-59.6h67.2v59.6z" fill="#3ebca8"/><path d="m469.291287 137.329794c-14.026409 0-25.407104-11.336373-25.407104-25.34607 0-13.993161 11.380695-25.3465164 25.407104-25.3465164 14.027306 0 25.407104 11.3533554 25.407104 25.3465164 0 14.009697-11.379798 25.34607-25.407104 25.34607m-143.974186-25.34607c0-13.993161 11.380694-25.3465164 25.407104-25.3465164 14.027305 0 25.407104 11.3533554 25.407104 25.3465164 0 14.009697-11.379799 25.34607-25.407104 25.34607-14.02641 0-25.407104-11.336373-25.407104-25.34607m84.682582-111.983724c-127.036417 0-126.999683 118.282256-126.999683 118.282256v180.455116l31.773215-42.198909 31.718115 42.198909 31.721698-42.198909 31.723491 42.198909 31.723938-42.198909 31.724834 42.198909 31.749473-42.198909 31.864601 42.198909v-180.455116s.036286-118.282256-126.999682-118.282256" fill="#40bca8"/></g></svg>