<?xml version="1.0" encoding="UTF-8"?>
<svg width="56px" height="60px" viewBox="0 0 56 60" version="1.1" xmlns="http://www.w3.org/2000/svg" xmlns:xlink="http://www.w3.org/1999/xlink">
    <!-- Generator: Sketch 51.3 (57544) - http://www.bohemiancoding.com/sketch -->
    <title>011 - Anchor</title>
    <desc>Created with Sketch.</desc>
    <defs></defs>
    <g id="Page-1" stroke="none" stroke-width="1" fill="none" fill-rule="evenodd" stroke-linecap="round" stroke-linejoin="round">
        <g id="011---Anchor" transform="translate(1.000000, 1.000000)" stroke="#000000" stroke-width="2">
            <path d="M4.02,45.78 C8.75,50.86 13.63,52.77 22.43,53.34 C23.27,53.4 24.13,58 25,58 M9.24,41.79 C11.82,44.84 13.49,45.68 18.74,46.78 C19.3202171,46.8954894 19.9217935,46.7481775 20.3830009,46.3776678 C20.8442083,46.0071581 21.1177182,45.4514718 21.13,44.86 L21.82,18 L15.23,18 C14.6669944,18.6411361 13.8532257,19.0060548 13,19 C11.3431458,19 10,17.6568542 10,16 C10,14.3431458 11.3431458,13 13,13 C13.8532257,12.9939452 14.6669944,13.3588639 15.23,14 L21.93,14 L22,11.19 C19.6546502,9.82951205 18.5131562,7.06517732 19.2152735,4.44627976 C19.9173908,1.82738221 22.2886221,0.00479687605 25,0 M25,8 C23.8954305,8 23,7.1045695 23,6 C23,4.8954305 23.8954305,4 25,4" id="Shape"></path>
            <path d="M5.823,43.248 L2.678,47.648 C2.43035901,47.995096 1.98987372,48.1469934 1.58092537,48.0263165 C1.17197702,47.9056395 0.884526569,47.5389347 0.865,47.113 L0.37,36.5 C0.354368824,36.1656348 0.507067476,35.8456234 0.77681671,35.6474321 C1.04656594,35.4492408 1.39758699,35.399157 1.712,35.514 L11.461,39.072 C11.8542717,39.2154184 12.1165968,39.5886109 12.1183819,40.0072137 C12.120167,40.4258165 11.8610343,40.8012327 11.469,40.948 L6.285,42.892 C6.09904637,42.9621224 5.9382037,43.0860617 5.823,43.248 Z" id="Shape"></path>
            <path d="M25,8 C23.8954305,8 23,7.1045695 23,6 C23,4.8954305 23.8954305,4 25,4" id="Shape"></path>
            <path d="M25,58 C25.87,58 26.73,53.4 27.57,53.34 C36.37,52.77 41.25,50.86 45.98,45.78 M25,0 C27.7113779,0.00479687605 30.0826092,1.82738221 30.7847265,4.44627976 C31.4868438,7.06517732 30.3453498,9.82951205 28,11.19 L28.07,14 L34.77,14 C35.3330056,13.3588639 36.1467743,12.9939452 37,13 C38.6568542,13 40,14.3431458 40,16 C40,17.6568542 38.6568542,19 37,19 C36.1467743,19.0060548 35.3330056,18.6411361 34.77,18 L28.18,18 L28.87,44.86 C28.8822818,45.4514718 29.1557917,46.0071581 29.6169991,46.3776678 C30.0782065,46.7481775 30.6797829,46.8954894 31.26,46.78 C36.51,45.68 38.18,44.84 40.76,41.79 M25,4 C26.1045695,4 27,4.8954305 27,6 C27,7.1045695 26.1045695,8 25,8" id="Shape"></path>
            <path d="M44.177,43.248 L47.322,47.648 C47.569641,47.995096 48.0101263,48.1469934 48.4190746,48.0263165 C48.828023,47.9056395 49.1154734,47.5389347 49.135,47.113 L49.635,36.498 C49.6506312,36.1636348 49.4979325,35.8436234 49.2281833,35.6454321 C48.9584341,35.4472408 48.607413,35.397157 48.293,35.512 L38.544,39.07 C38.1507283,39.2134184 37.8884032,39.5866109 37.8866181,40.0052137 C37.884833,40.4238165 38.1439657,40.7992327 38.536,40.946 L43.72,42.89 C43.9043822,42.9615183 44.0634183,43.0861024 44.177,43.248 Z" id="Shape"></path>
            <path d="M25,4 C26.1045695,4 27,4.8954305 27,6 C27,7.1045695 26.1045695,8 25,8" id="Shape"></path>
            <path d="M19.67,8.76 C18.93,10.5 17.97,12.18 17.87,14 C17.8165885,14.7257449 17.9153647,15.4546446 18.16,16.14 C18.4039186,16.8080433 18.7478365,17.4351877 19.18,18 C19.8453073,18.8471894 20.6380767,19.585983 21.53,20.19 C21.61,20.24 21.68,20.3 21.76,20.34 C23.8500016,21.6939818 26.0473403,22.8745915 28.33,23.87 C28.42,23.91 28.5,23.95 28.59,23.99 C30.7985623,24.8717886 32.6520851,26.4615274 33.86,28.51 C35.2049077,30.9478091 35.3524473,33.8690922 34.26,36.43 C33.1976313,38.588032 31.140371,40.0842213 28.76,40.43" id="Shape"></path>
            <path d="M21.25,40.29 C19.931555,40.0069938 18.5603514,40.096676 17.29,40.549 C16.7966439,40.7878494 16.4085928,41.2001091 16.2,41.707 C15.63,43.215 17.007,44.646 17.979,45.607 C18.8774906,46.5184926 19.8851179,47.3155258 20.979,47.98 C23.1826528,49.4541839 25.9842492,49.7080527 28.417,48.654 C29.8028274,47.9610301 30.9202838,46.8288056 31.595,45.434 C32.14,44.309 32.513,42.815 33.986,42.661 C35.4557745,42.6444632 36.8212251,43.4184477 37.562,44.688 C38.3961522,46.3570355 38.9315726,48.1592568 39.144,50.013 C39.404,51.344 39.67,52.686 39.999,54.002 C40.399,55.596 41.124,57.196 42.831,57.825 C44.0339202,58.1442861 45.3159847,57.9331568 46.353,57.245 C48.8624787,55.6705026 51.0372129,53.6170777 52.753,51.202 C53.182,50.659 53.601,50.102 53.996,49.539" id="Shape"></path>
        </g>
    </g>
</svg>