<svg xmlns="http://www.w3.org/2000/svg" viewBox="0 0 528.24 400.83"><defs><style>.cls-1{isolation:isolate;}.cls-2{fill:#f1f6f8;}.cls-3,.cls-6,.cls-8{fill:#fff;}.cls-19,.cls-4{fill:#ecf3f6;}.cls-11,.cls-4,.cls-6{stroke:#aac6ca;}.cls-10,.cls-11,.cls-13,.cls-14,.cls-15,.cls-4,.cls-6,.cls-7,.cls-8{stroke-miterlimit:10;stroke-width:1.26px;}.cls-16,.cls-17,.cls-5{fill:#baccd3;}.cls-5{opacity:0.4;}.cls-12,.cls-16,.cls-17,.cls-5{mix-blend-mode:multiply;}.cls-10,.cls-11,.cls-13,.cls-14,.cls-15,.cls-7{fill:none;}.cls-10,.cls-7,.cls-8{stroke:#ff8288;}.cls-9{fill:#ff8288;}.cls-10,.cls-14{stroke-linecap:round;stroke-dasharray:3.03;}.cls-13{stroke:#baccd3;}.cls-14,.cls-15{stroke:#fff;}.cls-16{opacity:0.2;}.cls-17{opacity:0.3;}.cls-18{fill:#aac6ca;}</style></defs><title>Build</title><g class="cls-1"><g id="Layer_1" data-name="Layer 1"><path class="cls-2" d="M150.69,268.4a23.94,23.94,0,0,0-33.84,0L113,272.23,97.23,256.45a36.28,36.28,0,0,0-51.31,0L10.79,291.58H173.87Z"/><rect class="cls-2" x="85.57" y="216.95" width="2.58" height="38.93"/><path class="cls-2" d="M83,202.08h7.46a0,0,0,0,1,0,0v12.27a3.73,3.73,0,0,1-3.73,3.73h0A3.73,3.73,0,0,1,83,214.35V202.08a0,0,0,0,1,0,0Z"/><path class="cls-2" d="M86.86,204.64H62.08a31.61,31.61,0,0,1,17.25-5.12h7.53Z"/><path class="cls-2" d="M87.79,203.83l-19,15.93h0a31.54,31.54,0,0,1,9.91-15l5.77-4.84Z"/><path class="cls-2" d="M87.44,204.19,68.32,188.44h0a31.56,31.56,0,0,1,16.57,7l5.81,4.78Z"/><path class="cls-2" d="M86.76,204.64h24.78a31.63,31.63,0,0,0-17.25-5.12H86.76Z"/><path class="cls-2" d="M85.82,203.83l19,15.93h0a31.54,31.54,0,0,0-9.91-15l-5.77-4.84Z"/><path class="cls-2" d="M86.17,204.19l19.13-15.75h0a31.52,31.52,0,0,0-16.57,7l-5.81,4.78Z"/><rect class="cls-2" x="39.3" y="236.54" width="2.58" height="38.93"/><path class="cls-2" d="M36.76,221.67h7.46a0,0,0,0,1,0,0v12.27a3.73,3.73,0,0,1-3.73,3.73h0a3.73,3.73,0,0,1-3.73-3.73V221.67a0,0,0,0,1,0,0Z"/><path class="cls-2" d="M40.58,224.23H15.81a31.53,31.53,0,0,1,17.24-5.13h7.53Z"/><path class="cls-2" d="M41.52,223.42l-19,15.92h0a31.6,31.6,0,0,1,9.92-15l5.77-4.84Z"/><path class="cls-2" d="M41.17,223.77,22,208h0a31.62,31.62,0,0,1,16.58,7l5.81,4.79Z"/><path class="cls-2" d="M40.49,224.23H65.26A31.53,31.53,0,0,0,48,219.1H40.49Z"/><path class="cls-2" d="M39.55,223.42l19,15.92h0a31.6,31.6,0,0,0-9.92-15l-5.76-4.84Z"/><path class="cls-2" d="M39.9,223.77,59,208h0a31.56,31.56,0,0,0-16.57,7l-5.82,4.79Z"/><path class="cls-3" d="M269.9,290.5c-1.32.07-2.73.12-4.26.12-20.83,0-20.83-7.53-41.66-7.53s-20.83,7.53-41.67,7.53-20.83-7.53-41.66-7.53-20.83,7.53-41.67,7.53-20.83-7.53-41.66-7.53-20.83,7.53-41.66,7.53A53.25,53.25,0,0,1,0,288.6v16H269.9Z"/><path class="cls-4" d="M224.27,30h29.31a0,0,0,0,1,0,0V52a2.32,2.32,0,0,1-2.32,2.32H205.34A2.32,2.32,0,0,1,203,52v-.73A21.25,21.25,0,0,1,224.27,30Z" transform="translate(-2.47 67.51) rotate(-16.73)"/><circle class="cls-2" cx="387.85" cy="138.69" r="106.95"/><path class="cls-4" d="M327.93,164.51H384a12,12,0,0,1,12,12v24.2h-65.8Z"/><path class="cls-4" d="M322,170.49H382.6a7.5,7.5,0,0,1,7.5,7.5v28.68H324.29Z"/><path class="cls-5" d="M322,170.49H382.6a7.5,7.5,0,0,1,7.5,7.5v28.68H324.29Z"/><path class="cls-4" d="M327.93,165.52v-6.44H144.27a11.34,11.34,0,0,0-11.34,11.33V319h269.9V200.69H363.1A35.17,35.17,0,0,1,327.93,165.52Z"/><path class="cls-6" d="M363.1,200.69a35.16,35.16,0,0,1-31.18-18.9H148.65V319H388.09V200.69Z"/><polyline class="cls-7" points="203.88 145.44 118.96 145.44 118.96 236.87"/><rect class="cls-8" x="116.58" y="143.07" width="4.75" height="4.75" transform="translate(-26.48 264.4) rotate(-90)"/><polygon class="cls-9" points="118.96 239.21 121.66 234.53 116.26 234.53 118.96 239.21"/><polygon class="cls-9" points="206.91 145.44 202.23 142.74 202.23 148.14 206.91 145.44"/><rect class="cls-4" x="164.34" y="197.66" width="113.96" height="79" rx="2.7"/><rect class="cls-10" x="290.18" y="212.64" width="84.32" height="64.02" rx="2.09"/><line class="cls-11" x1="235.23" y1="122.75" x2="235.23" y2="52.93"/><path class="cls-11" d="M258,53.72,211.09,67.81a6.1,6.1,0,0,1-4.66-.47l-1.91-1"/><line class="cls-7" x1="274.26" y1="6.45" x2="192.89" y2="30.91"/><polygon class="cls-4" points="249.01 23.23 291.78 10.37 293.26 15.31 253.56 38.35 249.01 23.23"/><polyline class="cls-11" points="280.35 13.81 286.72 1.98 290.56 0.82 291.78 10.37"/><polyline class="cls-11" points="283.8 21.17 293.37 25.48 297.21 24.33 293.26 15.31"/><line class="cls-11" x1="227.56" y1="55.06" x2="227.2" y2="62.97"/><line class="cls-11" x1="243.48" y1="50.27" x2="243.12" y2="58.18"/><circle class="cls-7" cx="238.4" cy="36.33" r="4.6"/><rect class="cls-11" x="231.27" y="22.8" width="6.05" height="4.75" transform="translate(2.67 68.52) rotate(-16.73)"/><line class="cls-11" x1="233.61" y1="22.9" x2="231.82" y2="16.95"/><line class="cls-11" x1="266.7" y1="17.91" x2="269.91" y2="28.59"/><path class="cls-7" d="M137.72,98.75a7,7,0,0,1,7,7"/><path class="cls-7" d="M152.11,98.75a7.05,7.05,0,0,0-7.05,7"/><path class="cls-7" d="M354.78,98.75a7,7,0,0,1,7,7"/><path class="cls-7" d="M369.17,98.75a7.05,7.05,0,0,0-7.05,7"/><g class="cls-12"><path class="cls-7" d="M159,80.68a7,7,0,0,1,7,7"/><path class="cls-7" d="M173.39,80.68a7,7,0,0,0-7,7"/></g><path class="cls-7" d="M159,80.68a7,7,0,0,1,7,7"/><path class="cls-7" d="M173.39,80.68a7,7,0,0,0-7,7"/><rect class="cls-4" x="353.13" y="177.26" width="19.47" height="9.06"/><line class="cls-4" x1="364.76" y1="177.26" x2="364.76" y2="200.69"/><line class="cls-4" x1="360.98" y1="177.26" x2="360.98" y2="200.69"/><line class="cls-4" x1="352.6" y1="181.96" x2="331.92" y2="181.96"/><polyline class="cls-11" points="372.6 181.79 381.67 181.79 381.67 200.38"/><polyline class="cls-13" points="321.75 236.9 314.18 244.47 321.75 252.04"/><polyline class="cls-13" points="341.67 252.04 349.24 244.47 341.67 236.9"/><line class="cls-13" x1="336.91" y1="233.93" x2="326.29" y2="255.36"/><path class="cls-14" d="M222.6,163.68H145.76a8.16,8.16,0,0,0-8.16,8.16V313.39"/><line class="cls-15" x1="171.91" y1="270.04" x2="273.28" y2="202.88"/><line class="cls-15" x1="273.28" y1="270.04" x2="171.91" y2="202.88"/><path class="cls-5" d="M275.6,197.66H167a2.7,2.7,0,0,0-2.7,2.7v8.88a2.7,2.7,0,0,1,2.7-2.7h9.71l9.81,47a6.09,6.09,0,0,0,7.2,4.71l84.54-17.67V200.36A2.7,2.7,0,0,0,275.6,197.66Z"/><path class="cls-6" d="M227.72,45.44,223.37,31h0l-2.48.75a21.25,21.25,0,0,0-15.07,22l20.84-6.31A1.58,1.58,0,0,0,227.72,45.44Z"/><line class="cls-7" x1="417.84" y1="281.03" x2="417.84" y2="205.66"/><polygon class="cls-9" points="417.84 284.56 420.54 279.88 415.14 279.88 417.84 284.56"/><polygon class="cls-9" points="417.84 202.47 415.14 207.15 420.54 207.15 417.84 202.47"/><rect class="cls-6" x="184.01" y="160.18" width="113.96" height="79" rx="2.12" transform="translate(-35.76 53.53) rotate(-11.81)"/><polyline class="cls-13" points="254.69 156.46 232.64 133.82 206.04 166.63"/><path class="cls-16" d="M402.83,306.12c-1.32.08-2.72.12-4.25.12-20.83,0-20.83-7.53-41.66-7.53s-20.84,7.53-41.67,7.53-20.83-7.53-41.67-7.53-20.83,7.53-41.66,7.53-20.83-7.53-41.66-7.53-20.84,7.53-41.67,7.53a53,53,0,0,1-15.66-2v16h269.9Z"/><path class="cls-3" d="M106.93,305.86c20.83,0,20.83,7.53,41.66,7.53s20.83-7.53,41.67-7.53,20.83,7.53,41.66,7.53,20.83-7.53,41.66-7.53,20.84,7.53,41.67,7.53,20.83-7.53,41.67-7.53v84.56H107.42Z"/><path class="cls-11" d="M106.93,305.86c20.83,0,20.83,7.53,41.66,7.53s20.83-7.53,41.67-7.53,20.83,7.53,41.66,7.53,20.83-7.53,41.66-7.53,20.84,7.53,41.67,7.53,20.83-7.53,41.67-7.53"/><path class="cls-3" d="M440.24,305.86c-20.83,0-20.83,7.53-41.66,7.53s-20.83-7.53-41.66-7.53l.49,84.56"/><path class="cls-11" d="M440.24,305.86c-20.83,0-20.83,7.53-41.66,7.53s-20.83-7.53-41.66-7.53"/><path class="cls-17" d="M202.17,348.46a2.74,2.74,0,0,0,.75.54,3,3,0,0,0-1.3,4l3.9-3.9,2.22,1.64a11.87,11.87,0,0,0,14.15,0l2.39-1.77-2.39-1.77a11.9,11.9,0,0,0-14.15,0l-2.22,1.65-3.9-3.9A3,3,0,0,0,202.17,348.46Z"/><path class="cls-17" d="M311.41,331.94a2.8,2.8,0,0,0,.74.55,2.56,2.56,0,0,0-.74.54,3,3,0,0,0-.56,3.48l3.9-3.9,2.23,1.65a11.88,11.88,0,0,0,14.14,0l2.39-1.77-2.39-1.77a11.85,11.85,0,0,0-14.14,0l-2.23,1.64-3.9-3.9A3,3,0,0,0,311.41,331.94Z"/><path class="cls-17" d="M162.78,331.94a3.16,3.16,0,0,0,.74.55,2.86,2.86,0,0,0-.74.54,3,3,0,0,0-.55,3.48l3.9-3.9,2.22,1.65a11.9,11.9,0,0,0,14.15,0l2.38-1.77-2.38-1.77a11.87,11.87,0,0,0-14.15,0l-2.22,1.64-3.9-3.9A3,3,0,0,0,162.78,331.94Z"/><path class="cls-4" d="M412.62,336.76h36.65a0,0,0,0,1,0,0v1.65a18.32,18.32,0,0,1-18.32,18.32h0a18.32,18.32,0,0,1-18.32-18.32v-1.65a0,0,0,0,1,0,0Z" transform="translate(141.52 -124.61) rotate(19.63)"/><polygon class="cls-6" points="420.79 332.62 447.74 342.23 453.23 307.87 438.28 302.54 420.79 332.62"/><polygon class="cls-4" points="442.12 291.09 452.11 287.38 457.29 296.5 453.23 307.87 438.06 302.46 442.12 291.09"/><line class="cls-6" x1="457.29" y1="296.5" x2="442.12" y2="291.09"/><line class="cls-7" x1="452.12" y1="314.84" x2="431.02" y2="315.03"/><line class="cls-7" x1="450.39" y1="325.66" x2="424.7" y2="325.89"/><path class="cls-3" d="M342,349.18c20.83,0,20.83,7.52,41.67,7.52s20.83-7.52,41.66-7.52,20.83,7.52,41.67,7.52,20.83-7.52,41.66-7.52v51.65H342Z"/><path class="cls-11" d="M342,349.18c20.83,0,20.83,7.52,41.67,7.52s20.83-7.52,41.66-7.52,20.83,7.52,41.67,7.52,20.83-7.52,41.66-7.52"/><line class="cls-11" x1="449.7" y1="293.79" x2="445.95" y2="305.04"/><line class="cls-4" x1="415.49" y1="337.24" x2="449.7" y2="349.18"/><line class="cls-11" x1="439.61" y1="290.06" x2="460.41" y2="297.63"/><line class="cls-11" x1="435.55" y1="301.42" x2="456.35" y2="308.98"/><circle class="cls-18" cx="264.48" cy="22.03" r="0.56"/><circle class="cls-18" cx="266.42" cy="27.61" r="0.56"/><circle class="cls-6" cx="234.9" cy="124.42" r="2.9"/><path class="cls-6" d="M234.9,127.32v4.23a2.27,2.27,0,0,1-2.26,2.27h0a2.27,2.27,0,0,1-2.27-2.27v-1"/><rect class="cls-19" x="197.67" y="178.29" width="60.98" height="2.72" transform="translate(-33.32 53.32) rotate(-12.43)"/><rect class="cls-19" x="210.08" y="182.78" width="60.98" height="2.72" transform="translate(-33.99 56.09) rotate(-12.43)"/><rect class="cls-19" x="215.74" y="208.44" width="60.98" height="2.72" transform="translate(-39.38 57.91) rotate(-12.43)"/><rect class="cls-19" x="228.43" y="212.03" width="60.98" height="2.72" transform="translate(-39.86 60.73) rotate(-12.43)"/><rect class="cls-19" x="230.82" y="188.56" width="32.72" height="2.72" transform="translate(-35.08 57.65) rotate(-12.43)"/><rect class="cls-19" x="227.6" y="202.7" width="32.72" height="2.72" transform="translate(-38.2 57.29) rotate(-12.43)"/><polygon class="cls-19" points="264.33 220.47 209.11 232.77 208.52 230.12 263.75 217.82 264.33 220.47"/><rect class="cls-19" x="226.48" y="194.51" width="45.32" height="2.72" transform="translate(-36.32 58.21) rotate(-12.43)"/><path class="cls-3" d="M528.24,140.3a37.34,37.34,0,0,0-69.19-13.2,21,21,0,0,0-29.79,13.2Z"/></g></g></svg>