<?xml version="1.0" encoding="UTF-8"?>
<svg width="60px" height="44px" viewBox="0 0 60 44" version="1.1" xmlns="http://www.w3.org/2000/svg" xmlns:xlink="http://www.w3.org/1999/xlink">
    <!-- Generator: Sketch 41.1 (35376) - http://www.bohemiancoding.com/sketch -->
    <title>4 -Laptop Coding- (development, coding, code, programming, outline)</title>
    <desc>Created with Sketch.</desc>
    <defs></defs>
    <g id="Page-1" stroke="none" stroke-width="1" fill="none" fill-rule="evenodd" stroke-linecap="round">
        <g id="Icons" transform="translate(-480.000000, -358.000000)" stroke="#000000" stroke-width="2">
            <g id="4--Laptop-Coding--(development,-coding,-code,-programming,-outline)" transform="translate(481.000000, 359.000000)">
                <path d="M34.9073,38 C34.6993,38.58 34.1493,39 33.5003,39 L25.5003,39 C24.8513,39 24.3003,38.58 24.0923,38 L0.5783,38 C0.2583,38 0.0003,38.259 0.0003,38.578 L0.0003,41.422 C0.0003,41.741 0.2583,42 0.5783,42 L57.4223,42 C57.7413,42 58.0003,41.741 58.0003,41.422 L58.0003,38.578 C58.0003,38.259 57.7413,38 57.4223,38 L34.9073,38 L34.9073,38 Z" id="Stroke-20"></path>
                <path d="M24.0927,38 C24.3007,38.58 24.8507,39 25.4997,39 L33.4997,39 C34.1487,39 34.6997,38.58 34.9077,38 L55.9997,38 L55.9997,3 C55.9997,1.343 54.6567,0 52.9997,0 L4.9997,0 C3.3427,0 1.9997,1.343 1.9997,3 L1.9997,38 L24.0927,38 L24.0927,38 Z" id="Stroke-21"></path>
                <polygon id="Stroke-22" stroke-linejoin="round" points="6 34 52 34 52 4 6 4"></polygon>
                <polyline id="Stroke-270" stroke-linejoin="round" points="24.0014 25.0014 18.0004 19.0004 17.9894 19.0004 23.9964 12.9934"></polyline>
                <polyline id="Stroke-271" stroke-linejoin="round" points="34.0016 12.9991 39.9896 19.0001 34.0016 25.0071"></polyline>
                <path d="M28.0016,25.0011 L30.0016,13.0001" id="Stroke-272" stroke-linejoin="round"></path>
            </g>
        </g>
    </g>
</svg>