<svg viewBox="0 0 529 401" xmlns="http://www.w3.org/2000/svg"><g fill="none" fill-rule="evenodd"><path d="m150.69 268.4c-9.347287-9.338308-24.492713-9.338308-33.84 0l-3.85 3.83-15.77-15.78c-6.8039146-6.804533-16.0323743-10.627332-25.655-10.627332s-18.8510854 3.822799-25.655 10.627332l-35.13 35.13h163.08z" fill="#f1f6f8"/><path d="m85.57 216.95h2.58v38.93h-2.58z" fill="#f1f6f8"/><path d="m83 202.08h7.46v12.27c0 2.060022-1.6699779 3.73-3.73 3.73-.9892575 0-1.9379976-.392981-2.6375083-1.092492-.6995107-.69951-1.0924917-1.64825-1.0924917-2.637508z" fill="#f1f6f8"/><path d="m86.86 204.64h-24.78c5.1325661-3.341763 11.1254091-5.120508 17.25-5.12h7.53z" fill="#f1f6f8"/><path d="m87.79 203.83-19 15.93c1.7781917-5.855517 5.2214266-11.067275 9.91-15l5.77-4.84z" fill="#f1f6f8"/><path d="m87.44 204.19-19.12-15.75c6.0854232.676569 11.8426384 3.108706 16.57 7l5.81 4.78z" fill="#f1f6f8"/><path d="m86.76 204.64h24.78c-5.133053-3.340708-11.125576-5.119359-17.25-5.12h-7.53z" fill="#f1f6f8"/><path d="m85.82 203.83 19 15.93c-1.778192-5.855517-5.2214266-11.067275-9.91-15l-5.77-4.84z" fill="#f1f6f8"/><path d="m86.17 204.19 19.13-15.75c-6.0860124.67431-11.8438474 3.106708-16.57 7l-5.81 4.78z" fill="#f1f6f8"/><path d="m39.3 236.54h2.58v38.93h-2.58z" fill="#f1f6f8"/><path d="m36.76 221.67h7.46v12.27c0 2.060022-1.6699779 3.73-3.73 3.73s-3.73-1.669978-3.73-3.73z" fill="#f1f6f8"/><path d="m40.58 224.23h-24.77c5.1266654-3.347661 11.1171303-5.130207 17.24-5.13h7.53z" fill="#f1f6f8"/><path d="m41.52 223.42-19 15.92c1.7841045-5.85524 5.2303489-11.066295 9.92-15l5.77-4.84z" fill="#f1f6f8"/><path d="m41.17 223.77-19.17-15.77c6.0880421.678067 11.8480554 3.109919 16.58 7l5.81 4.79z" fill="#f1f6f8"/><path d="m40.49 224.23h24.77c-5.1323651-3.351386-11.1303227-5.134093-17.26-5.13l-7.51-.000007z" fill="#f1f6f8"/><path d="m39.55 223.42 19 15.92c-1.7841045-5.85524-5.2303489-11.066295-9.92-15l-5.76-4.84z" fill="#f1f6f8"/><path d="m39.9 223.77 19.1-15.77c-6.0854232.676569-11.8426384 3.108706-16.57 7l-5.82 4.79z" fill="#f1f6f8"/><path d="m269.9 290.5c-1.32.07-2.73.12-4.26.12-20.83 0-20.83-7.53-41.66-7.53s-20.83 7.53-41.67 7.53-20.83-7.53-41.66-7.53-20.83 7.53-41.67 7.53-20.83-7.53-41.66-7.53-20.83 7.53-41.66 7.53c-5.2913783.108628-10.56938854-.572188-15.66-2.02v16h269.9z" fill="#fff"/><path d="m224.273191 30.0094322 29.31-.0000094v22.0000094c0 1.2813007-1.038699 2.32-2.32 2.32h-45.92c-.61876.0053344-1.214012-.2367366-1.653431-.6724005-.43942-.4356639-.686592-1.0288162-.686569-1.6475995v-.73c-.005313-5.6427819 2.233921-11.0559773 6.223972-15.0460285 3.990051-3.9900511 9.403247-6.2292848 15.046028-6.2239715z" fill="#ecf3f6" stroke="#aac6ca" stroke-width="1.26" transform="matrix(.9576719 -.287862 .287862 .9576719 -2.475772 67.501886)"/><circle cx="387.85" cy="138.69" fill="#f1f6f8" r="106.95"/><path d="m327.93 164.51h56.07c6.627417 0 12 5.372583 12 12v24.2h-65.8z" fill="#ecf3f6" stroke="#aac6ca" stroke-width="1.26"/><path d="m322 170.49h60.6c4.142136 0 7.5 3.357864 7.5 7.5v28.68h-65.81z" fill="#ecf3f6" stroke="#aac6ca" stroke-width="1.26"/><path d="m322 170.49h60.6c4.142136 0 7.5 3.357864 7.5 7.5v28.68h-65.81z" fill="#baccd3" opacity=".4"/><path d="m327.93 165.52v-6.44h-183.66c-6.259006-.000002-11.334481 5.070997-11.34 11.33v148.59h269.9v-118.31h-39.73c-9.327664 0-18.273291-3.7054-24.868945-10.301055-6.595655-6.595654-10.301055-15.541281-10.301055-24.868945z" fill="#ecf3f6" stroke="#aac6ca" stroke-width="1.26"/><path d="m363.1 200.69c-13.103128.002118-25.120362-7.282222-31.18-18.9h-183.27v137.21h239.44v-118.31z" fill="#fff" stroke="#aac6ca" stroke-width="1.26"/><path d="m203.88 145.44h-84.92v91.43" stroke="#ff8288" stroke-width="1.26"/><path d="m116.59 143.07h4.75v4.75h-4.75z" fill="#fff" stroke="#ff8288" stroke-width="1.26" transform="matrix(0 -1 1 0 -26.48 264.41)"/><path d="m118.96 239.21 2.7-4.68h-5.4z" fill="#ff8288"/><path d="m206.91 145.44-4.68-2.7v5.4z" fill="#ff8288"/><g stroke-width="1.26"><rect fill="#ecf3f6" height="79" rx="2.7" stroke="#aac6ca" width="113.96" x="164.34" y="197.66"/><path d="m292.27 212.64h80.14c1.154275 0 2.09.935725 2.09 2.09v59.84c0 1.154275-.935725 2.09-2.09 2.09h-80.14c-1.154275 0-2.09-.935725-2.09-2.09v-59.84c0-1.154275.935725-2.09 2.09-2.09z" stroke="#ff8288" stroke-dasharray="3.03" stroke-linecap="round"/><path d="m235.23 122.75v-69.82" stroke="#aac6ca"/><path d="m258 53.72-46.91 14.09c-1.55399.4696655-3.231093.3005155-4.66-.47l-1.91-1" stroke="#aac6ca"/><path d="m274.26 6.45-81.37 24.46" stroke="#ff8288"/><path d="m249.01 23.23 42.77-12.86 1.48 4.94-39.7 23.04z" fill="#ecf3f6" stroke="#aac6ca"/><path d="m280.35 13.81 6.37-11.83 3.84-1.16 1.22 9.55" stroke="#aac6ca"/><path d="m283.8 21.17 9.57 4.31 3.84-1.15-3.95-9.02" stroke="#aac6ca"/><path d="m227.56 55.06-.36 7.91" stroke="#aac6ca"/><path d="m243.48 50.27-.36 7.91" stroke="#aac6ca"/><circle cx="238.4" cy="36.33" r="4.6" stroke="#ff8288"/><path d="m231.269664 22.809764h6.05v4.75h-6.05z" stroke="#aac6ca" transform="matrix(.9576719 -.287862 .287862 .9576719 2.667511 68.510553)"/><path d="m233.61 22.9-1.79-5.95" stroke="#aac6ca"/><path d="m266.7 17.91 3.21 10.68" stroke="#aac6ca"/><path d="m137.72 98.75c3.865993 0 7 3.134007 7 7" stroke="#ff8288"/><path d="m152.11 98.75c-3.874165-.0000974-7.022524 3.125933-7.05 7" stroke="#ff8288"/><path d="m354.78 98.75c3.865993 0 7 3.134007 7 7" stroke="#ff8288"/><path d="m369.17 98.75c-3.874165-.0000974-7.022524 3.125933-7.05 7" stroke="#ff8288"/><g stroke="#ff8288" transform="translate(159 80)"><path d="m0 .68c3.86599325 0 7 3.13400675 7 7"/><path d="m14.39.68c-3.8659932 0-7 3.13400675-7 7"/></g><path d="m159 80.68c3.865993 0 7 3.1340068 7 7" stroke="#ff8288"/><path d="m173.39 80.68c-3.865993 0-7 3.1340068-7 7" stroke="#ff8288"/><path d="m353.13 177.26h19.47v9.06h-19.47z" fill="#ecf3f6" stroke="#aac6ca"/><path d="m364.76 177.26v23.43" fill="#ecf3f6" stroke="#aac6ca"/><path d="m360.98 177.26v23.43" fill="#ecf3f6" stroke="#aac6ca"/><path d="m352.6 181.96h-20.68" fill="#ecf3f6" stroke="#aac6ca"/><path d="m372.6 181.79h9.07v18.59" stroke="#aac6ca"/><path d="m321.75 236.9-7.57 7.57 7.57 7.57" stroke="#baccd3"/><path d="m341.67 252.04 7.57-7.57-7.57-7.57" stroke="#baccd3"/><path d="m336.91 233.93-10.62 21.43" stroke="#baccd3"/><path d="m222.6 163.68h-76.84c-4.506644 0-8.16 3.653356-8.16 8.16v141.55" stroke="#fff" stroke-dasharray="3.03" stroke-linecap="round"/><path d="m171.91 270.04 101.37-67.16" stroke="#fff"/><path d="m273.28 270.04-101.37-67.16" stroke="#fff"/></g><path d="m275.6 197.66h-108.6c-1.491169 0-2.7 1.208831-2.7 2.7v8.88c0-1.491169 1.208831-2.7 2.7-2.7h9.71l9.81 47c.690673 3.286754 3.911837 5.393932 7.2 4.71l84.54-17.67v-40.22c.000162-1.475687-1.184475-2.678138-2.66-2.7z" fill="#baccd3" opacity=".4"/><path d="m227.72 45.44-4.35-14.44-2.48.75c-9.5721 2.8766391-15.845671 12.0351378-15.07 22l20.84-6.31c.409034-.1198099.752313-.3997927.951909-.7763885.199595-.3765958.238575-.8178571.108091-1.2236115z" fill="#fff" stroke="#aac6ca" stroke-width="1.26"/><path d="m417.84 281.03v-75.37" stroke="#ff8288" stroke-width="1.26"/><path d="m417.84 284.56 2.7-4.68h-5.4z" fill="#ff8288"/><path d="m417.84 202.47-2.7 4.68h5.4z" fill="#ff8288"/><rect fill="#fff" height="79" rx="2.12" stroke="#aac6ca" stroke-width="1.26" transform="matrix(.97883168 -.20466689 .20466689 .97883168 -35.76239 53.550487)" width="113.96" x="184.016532" y="160.160436"/><path d="m254.69 156.46-22.05-22.64-26.6 32.81" stroke="#baccd3" stroke-width="1.26"/><path d="m402.83 306.12c-1.32.08-2.72.12-4.25.12-20.83 0-20.83-7.53-41.66-7.53s-20.84 7.53-41.67 7.53-20.83-7.53-41.67-7.53-20.83 7.53-41.66 7.53-20.83-7.53-41.66-7.53-20.84 7.53-41.67 7.53c-5.290574.118877-10.56912-.555267-15.66-2v16h269.9z" fill="#baccd3" opacity=".2"/><path d="m106.93 305.86c20.83 0 20.83 7.53 41.66 7.53s20.83-7.53 41.67-7.53 20.83 7.53 41.66 7.53 20.83-7.53 41.66-7.53 20.84 7.53 41.67 7.53 20.83-7.53 41.67-7.53v84.56h-249.5z" fill="#fff"/><path d="m106.93 305.86c20.83 0 20.83 7.53 41.66 7.53s20.83-7.53 41.67-7.53 20.83 7.53 41.66 7.53 20.83-7.53 41.66-7.53 20.84 7.53 41.67 7.53 20.83-7.53 41.67-7.53" stroke="#aac6ca" stroke-width="1.26"/><path d="m440.24 305.86c-20.83 0-20.83 7.53-41.66 7.53s-20.83-7.53-41.66-7.53l.49 84.56" fill="#fff"/><path d="m440.24 305.86c-20.83 0-20.83 7.53-41.66 7.53s-20.83-7.53-41.66-7.53" stroke="#aac6ca" stroke-width="1.26"/><path d="m202.17 348.46c.217622.221167.471228.403764.75.54-1.451923.755477-2.03036 2.535281-1.3 4l3.9-3.9 2.22 1.64c4.20118 3.118575 9.94882 3.118575 14.15 0l2.39-1.77-2.39-1.77c-4.204409-3.108793-9.945591-3.108793-14.15 0l-2.22 1.65-3.9-3.9c-.603671 1.164432-.380913 2.586029.55 3.51z" fill="#baccd3" opacity=".3"/><path d="m311.41 331.94c.21458.222965.464636.408818.74.55-.277128.134043-.527808.316971-.74.54-.920287.916481-1.146314 2.321077-.56 3.48l3.9-3.9 2.23 1.65c4.200194 3.110367 9.939806 3.110367 14.14 0l2.39-1.77-2.39-1.77c-4.196953-3.120175-9.943047-3.120175-14.14 0l-2.23 1.64-3.9-3.9c-.586314 1.158923-.360287 2.563519.56 3.48z" fill="#baccd3" opacity=".3"/><path d="m162.78 331.94c.21845.218526.46777.403832.74.55-.274079.13907-.523951.321408-.74.54-.916911.918847-1.138859 2.323172-.55 3.48l3.9-3.9 2.22 1.65c4.204409 3.108793 9.945591 3.108793 14.15 0l2.38-1.77-2.38-1.77c-4.20118-3.118575-9.94882-3.118575-14.15 0l-2.22 1.64-3.9-3.9c-.588859 1.156828-.366911 2.561153.55 3.48z" fill="#baccd3" opacity=".3"/><path d="m412.607027 336.771489h36.65v1.65c0 10.117856-8.202143 18.32-18.32 18.32-10.117856 0-18.32-8.202144-18.32-18.32v-1.65z" fill="#ecf3f6" stroke="#aac6ca" stroke-width="1.26" transform="matrix(.94188168 .33594478 -.33594478 .94188168 141.536078 -124.616463)"/><path d="m420.79 332.62 26.95 9.61 5.49-34.36-14.95-5.33z" fill="#fff" stroke="#aac6ca" stroke-width="1.26"/><path d="m442.12 291.09 9.99-3.71 5.18 9.12-4.06 11.37-15.17-5.41z" fill="#ecf3f6" stroke="#aac6ca" stroke-width="1.26"/><path d="m457.29 296.5-15.17-5.41" fill="#fff" stroke="#aac6ca" stroke-width="1.26"/><path d="m452.12 314.84-21.1.19" stroke="#ff8288" stroke-width="1.26"/><path d="m450.39 325.66-25.69.23" stroke="#ff8288" stroke-width="1.26"/><path d="m342 349.18c20.83 0 20.83 7.52 41.67 7.52s20.83-7.52 41.66-7.52 20.83 7.52 41.67 7.52 20.83-7.52 41.66-7.52v51.65h-166.66z" fill="#fff"/><path d="m342 349.18c20.83 0 20.83 7.52 41.67 7.52s20.83-7.52 41.66-7.52 20.83 7.52 41.67 7.52 20.83-7.52 41.66-7.52" stroke="#aac6ca" stroke-width="1.26"/><path d="m449.7 293.79-3.75 11.25" stroke="#aac6ca" stroke-width="1.26"/><path d="m415.49 337.24 34.21 11.94" fill="#ecf3f6" stroke="#aac6ca" stroke-width="1.26"/><path d="m439.61 290.06 20.8 7.57" stroke="#aac6ca" stroke-width="1.26"/><path d="m435.55 301.42 20.8 7.56" stroke="#aac6ca" stroke-width="1.26"/><circle cx="264.48" cy="22.03" fill="#aac6ca" r="1"/><circle cx="266.42" cy="27.61" fill="#aac6ca" r="1"/><circle cx="234.9" cy="124.42" fill="#fff" r="2.9" stroke="#aac6ca" stroke-width="1.26"/><path d="m234.9 127.32v4.23c.000012 1.249791-1.010221 2.264494-2.26 2.27-1.253686 0-2.27-1.016314-2.27-2.27v-1" fill="#fff" stroke="#aac6ca" stroke-width="1.26"/><path d="m197.67093 178.288269h60.98v2.72h-60.98z" fill="#ecf3f6" transform="matrix(.97655971 -.21524668 .21524668 .97655971 -33.320535 53.321891)"/><path d="m210.086493 182.771811h60.98v2.72h-60.98z" fill="#ecf3f6" transform="matrix(.97655971 -.21524668 .21524668 .97655971 -33.994578 56.099395)"/><path d="m215.747051 208.432036h60.98v2.72h-60.98z" fill="#ecf3f6" transform="matrix(.97655971 -.21524668 .21524668 .97655971 -39.385172 57.919295)"/><path d="m228.432329 212.026405h60.98v2.72h-60.98z" fill="#ecf3f6" transform="matrix(.97655971 -.21524668 .21524668 .97655971 -39.861501 60.734012)"/><path d="m230.825679 188.553545h32.72v2.72h-32.72z" fill="#ecf3f6" transform="matrix(.97655971 -.21524668 .21524668 .97655971 -35.084156 57.657526)"/><path d="m227.604745 202.695194h32.72v2.72h-32.72z" fill="#ecf3f6" transform="matrix(.97655971 -.21524668 .21524668 .97655971 -38.203599 57.295715)"/><path d="m264.33 220.47-55.22 12.3-.59-2.65 55.23-12.3z" fill="#ecf3f6"/><path d="m226.480454 194.502192h45.32v2.72h-45.32z" fill="#ecf3f6" transform="matrix(.97655971 -.21524668 .21524668 .97655971 -36.318762 58.217723)"/><path d="m528.24 140.3c-2.369605-15.661754-14.362959-28.124151-29.922335-31.092553-15.559375-2.968402-31.298488 4.203221-39.267665 17.892553-5.632211-2.867177-12.256202-3.045316-18.034375-.484998-5.778172 2.560319-10.095991 7.586792-11.755625 13.684998z" fill="#fff"/></g></svg>
