<svg xmlns="http://www.w3.org/2000/svg" width="256" height="256" viewBox="0 0 256 256">
  <g fill="none" fill-rule="evenodd" transform="translate(16 29)">
    <path fill="#5E6977" d="M222.02,2.297 L91.686,2.302 L91.689,187.936 L222.02,187.931 L222.02,2.297 Z M222.025,187.931 L222.025,188.931 L222.025,187.931 Z M222.025,189.931 L91.686,189.931 C90.585,189.931 89.689,189.036 89.689,187.936 L89.689,2.297 C89.689,1.197 90.585,0.302 91.686,0.302 L222.025,0.302 C223.125,0.302 224.02,1.197 224.02,2.297 L224.02,187.936 C224.02,189.036 223.125,189.931 222.025,189.931 L222.025,189.931 Z"/>
    <path fill="#6CA3BB" d="M223.02,11.901 L223.02,2.297 C223.02,1.747 222.572,1.302 222.025,1.302 L91.686,1.302 C91.135,1.302 90.689,1.747 90.689,2.297 L90.689,11.901 L223.02,11.901"/>
    <path fill="#5E6977" d="M91.689,10.901 L222.02,10.901 L222.02,2.297 L91.686,2.302 L91.689,10.901 Z M223.02,12.901 L90.689,12.901 C90.137,12.901 89.689,12.454 89.689,11.901 L89.689,2.297 C89.689,1.197 90.585,0.302 91.686,0.302 L222.025,0.302 C223.125,0.302 224.02,1.197 224.02,2.297 L224.02,11.901 C224.02,12.454 223.572,12.901 223.02,12.901 L223.02,12.901 Z"/>
    <path fill="#FFF" d="M108.311,6.508 C108.311,7.445 107.551,8.205 106.615,8.205 C105.678,8.205 104.917,7.445 104.917,6.508 C104.917,5.57 105.678,4.813 106.615,4.813 C107.551,4.813 108.311,5.57 108.311,6.508"/>
    <path fill="#5E6977" d="M106.615,5.813 C106.23,5.813 105.917,6.125 105.917,6.508 C105.917,6.892 106.23,7.205 106.615,7.205 C106.999,7.205 107.311,6.892 107.311,6.508 C107.311,6.125 106.999,5.813 106.615,5.813 Z M106.615,9.205 C105.127,9.205 103.917,7.995 103.917,6.508 C103.917,5.021 105.127,3.813 106.615,3.813 C108.102,3.813 109.311,5.021 109.311,6.508 C109.311,7.995 108.102,9.205 106.615,9.205 L106.615,9.205 Z"/>
    <path fill="#FFF" d="M102.77,6.508 C102.77,7.445 102.012,8.205 101.074,8.205 C100.137,8.205 99.379,7.445 99.379,6.508 C99.379,5.57 100.137,4.813 101.074,4.813 C102.012,4.813 102.77,5.57 102.77,6.508"/>
    <path fill="#5E6977" d="M101.074,5.813 C100.69,5.813 100.379,6.125 100.379,6.508 C100.379,6.892 100.69,7.205 101.074,7.205 C101.458,7.205 101.77,6.892 101.77,6.508 C101.77,6.125 101.458,5.813 101.074,5.813 Z M101.074,9.205 C99.588,9.205 98.379,7.995 98.379,6.508 C98.379,5.021 99.588,3.813 101.074,3.813 C102.561,3.813 103.77,5.021 103.77,6.508 C103.77,7.995 102.561,9.205 101.074,9.205 L101.074,9.205 Z"/>
    <path fill="#FFF" d="M97.233,6.508 C97.233,7.445 96.473,8.205 95.533,8.205 C94.596,8.205 93.838,7.445 93.838,6.508 C93.838,5.57 94.596,4.813 95.533,4.813 C96.473,4.813 97.233,5.57 97.233,6.508"/>
    <path fill="#5E6977" d="M95.533,5.813 C95.149,5.813 94.838,6.125 94.838,6.508 C94.838,6.892 95.149,7.205 95.533,7.205 C95.919,7.205 96.233,6.892 96.233,6.508 C96.233,6.125 95.919,5.813 95.533,5.813 Z M95.533,9.205 C94.047,9.205 92.838,7.995 92.838,6.508 C92.838,5.021 94.047,3.813 95.533,3.813 C97.022,3.813 98.233,5.021 98.233,6.508 C98.233,7.995 97.022,9.205 95.533,9.205 L95.533,9.205 Z"/>
    <polygon fill="#5E6977" points="101.492 29.21 125.158 29.21 125.158 27.21 101.492 27.21"/>
    <polygon fill="#5E6977" points="112.992 33.543 145.914 33.543 145.914 31.543 112.992 31.543"/>
    <polygon fill="#5E6977" points="112.992 37.876 142.658 37.876 142.658 35.876 112.992 35.876"/>
    <polygon fill="#5E6977" points="112.992 42.209 136.658 42.209 136.658 40.209 112.992 40.209"/>
    <polygon fill="#5E6977" points="101.492 78.21 125.158 78.21 125.158 76.21 101.492 76.21"/>
    <polygon fill="#5E6977" points="112.992 82.543 176.414 82.543 176.414 80.543 112.992 80.543"/>
    <polygon fill="#5E6977" points="112.992 86.876 166.487 86.876 166.487 84.876 112.992 84.876"/>
    <polygon fill="#5E6977" points="118.992 91.209 142.658 91.209 142.658 89.209 118.992 89.209"/>
    <polygon fill="#5E6977" points="101.492 54.71 125.158 54.71 125.158 52.71 101.492 52.71"/>
    <polygon fill="#5E6977" points="112.992 59.043 210.242 59.043 210.242 57.043 112.992 57.043"/>
    <polygon fill="#5E6977" points="112.992 63.376 206.987 63.376 206.987 61.376 112.992 61.376"/>
    <polygon fill="#5E6977" points="112.992 67.709 136.658 67.709 136.658 65.709 112.992 65.709"/>
    <path fill="#5E6977" d="M13.176,91.49 L23.057,91.49 L23.057,76.496 L13.176,76.496 L13.176,91.49 Z M24.057,93.49 L12.176,93.49 C11.623,93.49 11.176,93.042 11.176,92.49 L11.176,75.496 C11.176,74.944 11.623,74.496 12.176,74.496 L24.057,74.496 C24.609,74.496 25.057,74.944 25.057,75.496 L25.057,92.49 C25.057,93.042 24.609,93.49 24.057,93.49 L24.057,93.49 Z"/>
    <path fill="#5E6977" d="M18.154,92.713 C17.878,92.713 17.654,92.489 17.654,92.213 L17.654,75.773 C17.654,75.497 17.878,75.273 18.154,75.273 C18.431,75.273 18.654,75.497 18.654,75.773 L18.654,92.213 C18.654,92.489 18.431,92.713 18.154,92.713"/>
    <path fill="#5E6977" d="M24.131 81.548L12.176 81.548C11.899 81.548 11.676 81.324 11.676 81.048 11.676 80.771 11.899 80.548 12.176 80.548L24.131 80.548C24.407 80.548 24.631 80.771 24.631 81.048 24.631 81.324 24.407 81.548 24.131 81.548M24.131 87.239L12.176 87.239C11.899 87.239 11.676 87.016 11.676 86.739 11.676 86.463 11.899 86.239 12.176 86.239L24.131 86.239C24.407 86.239 24.631 86.463 24.631 86.739 24.631 87.016 24.407 87.239 24.131 87.239M9.346 84.635L5.637 84.635C5.084 84.635 4.637 84.187 4.637 83.635 4.637 83.083 5.084 82.635 5.637 82.635L9.346 82.635C9.898 82.635 10.346 83.083 10.346 83.635 10.346 84.187 9.898 84.635 9.346 84.635M1.283 72.747C.73 72.747.283 72.299.283 71.747L.283 69.57C.283 69.018.73 68.57 1.283 68.57 1.836 68.57 2.283 69.018 2.283 69.57L2.283 71.747C2.283 72.299 1.836 72.747 1.283 72.747M13.701 72.747C13.148 72.747 12.701 72.299 12.701 71.747L12.701 69.57C12.701 69.018 13.148 68.57 13.701 68.57 14.254 68.57 14.701 69.018 14.701 69.57L14.701 71.747C14.701 72.299 14.254 72.747 13.701 72.747"/>
    <path fill="#5E6977" d="M7.492,84.277 C6.939,84.277 6.492,83.83 6.492,83.277 L6.492,70.216 C6.492,69.664 6.939,69.216 7.492,69.216 C8.045,69.216 8.492,69.664 8.492,70.216 L8.492,83.277 C8.492,83.83 8.045,84.277 7.492,84.277"/>
    <path fill="#5E6977" d="M13.701 70.57L1.283 70.57C.73 70.57.283 70.123.283 69.57.283 69.018.73 68.57 1.283 68.57L13.701 68.57C14.254 68.57 14.701 69.018 14.701 69.57 14.701 70.123 14.254 70.57 13.701 70.57M67.855 198.224C67.435 198.224 67.043 197.956 66.905 197.535L60.838 178.99 54.771 197.535C54.6 198.059 54.031 198.347 53.51 198.174 52.984 198.002 52.698 197.438 52.87 196.913L59.888 175.463C60.022 175.052 60.405 174.774 60.838 174.774 61.271 174.774 61.653 175.052 61.788 175.463L68.806 196.913C68.978 197.438 68.691 198.002 68.166 198.174 68.063 198.208 67.958 198.224 67.855 198.224"/>
    <path fill="#5E6977" d="M55.688 198.224L52.338 198.224C51.785 198.224 51.338 197.776 51.338 197.224 51.338 196.671 51.785 196.224 52.338 196.224L55.688 196.224C56.24 196.224 56.688 196.671 56.688 197.224 56.688 197.776 56.24 198.224 55.688 198.224M69.338 198.224L65.989 198.224C65.437 198.224 64.989 197.776 64.989 197.224 64.989 196.671 65.437 196.224 65.989 196.224L69.338 196.224C69.891 196.224 70.338 196.671 70.338 197.224 70.338 197.776 69.891 198.224 69.338 198.224M65.32 191.607L56.348 191.607C55.795 191.607 55.348 191.16 55.348 190.607 55.348 190.055 55.795 189.607 56.348 189.607L65.32 189.607C65.873 189.607 66.32 190.055 66.32 190.607 66.32 191.16 65.873 191.607 65.32 191.607M73.408 181.765C73.019 181.868 72.578 181.974 72.084 182.083 70.983 182.326 70.215 182.501 69.795 182.614 69.505 182.694 69.229 182.849 68.959 183.085 68.837 183.189 68.711 183.346 68.711 183.741 68.711 184.092 68.829 184.361 69.095 184.614 69.264 184.776 69.563 184.99 70.213 184.99 70.85 184.99 71.413 184.854 71.937 184.574 72.435 184.31 72.795 183.979 73.01 183.59 73.145 183.358 73.343 182.85 73.408 181.765zM70.213 186.99C69.2 186.99 68.359 186.678 67.714 186.061 67.049 185.427 66.711 184.646 66.711 183.741 66.711 182.605 67.225 181.933 67.656 181.569 68.138 181.147 68.685 180.846 69.27 180.685 69.711 180.565 70.509 180.383 71.652 180.131 72.742 179.888 73.559 179.666 74.076 179.47 74.384 179.355 74.729 179.396 74.998 179.583 75.269 179.769 75.43 180.077 75.43 180.405L75.43 180.995C75.43 182.615 75.207 183.786 74.75 184.576 74.354 185.292 73.721 185.891 72.878 186.339 72.07 186.771 71.173 186.99 70.213 186.99L70.213 186.99z"/>
    <path fill="#5E6977" d="M74.525,186.896 C73.973,186.896 73.525,186.449 73.525,185.896 L73.525,179.37 C73.525,178.22 72.665,177.284 71.607,177.284 L70.92,177.284 C70.154,177.284 69.462,177.777 69.157,178.541 C68.952,179.053 68.364,179.299 67.857,179.098 C67.345,178.892 67.095,178.311 67.3,177.797 C67.911,176.271 69.332,175.284 70.92,175.284 L71.607,175.284 C73.768,175.284 75.525,177.117 75.525,179.37 L75.525,185.896 C75.525,186.449 75.078,186.896 74.525,186.896"/>
    <polyline fill="#6CA3BB" points="54.486 90.62 29.41 62.643 79.562 62.643 54.486 90.62"/>
    <path fill="#5E6977" d="M31.649,63.643 L54.486,89.122 L77.322,63.643 L31.649,63.643 Z M54.486,91.62 C54.202,91.62 53.932,91.499 53.741,91.288 L28.665,63.31 C28.402,63.016 28.336,62.595 28.497,62.235 C28.658,61.875 29.016,61.643 29.41,61.643 L79.562,61.643 C79.956,61.643 80.313,61.875 80.475,62.235 C80.636,62.595 80.569,63.016 80.307,63.31 L55.231,91.288 C55.041,91.499 54.771,91.62 54.486,91.62 L54.486,91.62 Z"/>
    <polyline fill="#FFF" points="54.486 90.62 43.432 62.643 65.541 62.643 54.486 90.62"/>
    <path fill="#5E6977" d="M44.902,63.643 L54.486,87.899 L64.07,63.643 L44.902,63.643 Z M54.486,91.62 C54.076,91.62 53.707,91.369 53.557,90.988 L42.502,63.01 C42.38,62.702 42.419,62.354 42.604,62.08 C42.791,61.807 43.101,61.643 43.432,61.643 L65.541,61.643 C65.872,61.643 66.182,61.807 66.368,62.08 C66.554,62.354 66.593,62.702 66.471,63.01 L55.416,90.988 C55.266,91.369 54.896,91.62 54.486,91.62 L54.486,91.62 Z"/>
    <polyline fill="#6CA3BB" points="29.41 62.708 79.562 62.708 72.664 53.813 36.309 53.813 29.41 62.708"/>
    <path fill="#5E6977" d="M31.451,61.708 L77.521,61.708 L72.174,54.813 L36.799,54.813 L31.451,61.708 Z M79.562,63.708 L29.41,63.708 C29.028,63.708 28.68,63.491 28.512,63.148 C28.344,62.805 28.386,62.397 28.62,62.095 L35.519,53.201 C35.708,52.957 36,52.813 36.309,52.813 L72.664,52.813 C72.974,52.813 73.265,52.957 73.454,53.201 L80.352,62.095 C80.586,62.397 80.628,62.805 80.46,63.148 C80.292,63.491 79.943,63.708 79.562,63.708 L79.562,63.708 Z"/>
    <polyline fill="#FFF" points="54.486 53.726 43.432 62.708 65.541 62.708 54.486 53.726"/>
    <path fill="#5E6977" d="M46.248,61.708 L62.725,61.708 L54.486,55.014 L46.248,61.708 Z M65.541,63.708 L43.432,63.708 C43.009,63.708 42.631,63.441 42.489,63.042 C42.348,62.644 42.473,62.199 42.801,61.932 L53.855,52.95 C54.223,52.651 54.75,52.651 55.117,52.95 L66.172,61.932 C66.5,62.199 66.625,62.644 66.483,63.042 C66.342,63.441 65.964,63.708 65.541,63.708 L65.541,63.708 Z"/>
    <polyline fill="#FFF" points="43.341 62.708 36.328 53.813 36.309 53.813 29.41 62.708 43.341 62.708"/>
    <path fill="#5E6977" d="M31.451,61.708 L41.279,61.708 L36.325,55.424 L31.451,61.708 Z M43.341,63.708 L29.41,63.708 C29.028,63.708 28.68,63.491 28.512,63.148 C28.344,62.805 28.386,62.397 28.62,62.095 L35.519,53.201 C35.896,52.713 36.732,52.711 37.113,53.194 L44.126,62.089 C44.363,62.39 44.408,62.8 44.24,63.145 C44.073,63.489 43.724,63.708 43.341,63.708 L43.341,63.708 Z"/>
    <polyline fill="#FFF" points="65.632 62.708 72.645 53.813 72.664 53.813 79.562 62.708 65.632 62.708"/>
    <path fill="#5E6977" d="M67.693,61.708 L77.521,61.708 L72.647,55.424 L67.693,61.708 Z M79.581,63.708 C79.576,63.708 79.568,63.709 79.562,63.708 L65.632,63.708 C65.249,63.708 64.899,63.489 64.732,63.145 C64.564,62.8 64.609,62.39 64.847,62.089 L71.859,53.194 C72.24,52.71 73.076,52.714 73.454,53.201 L80.251,61.965 C80.454,62.148 80.581,62.413 80.581,62.708 C80.581,63.26 80.134,63.708 79.581,63.708 L79.581,63.708 Z"/>
    <polygon fill="#FFF" points="23.991 167.38 171.987 167.38 171.987 103.271 23.991 103.271"/>
    <path fill="#5E6977" d="M22.991,168.38 L172.987,168.38 L172.987,102.271 L22.991,102.271 L22.991,168.38 Z M24.991,166.38 L170.987,166.38 L170.987,104.271 L24.991,104.271 L24.991,166.38 Z"/>
    <path fill="#5E6977" d="M34.108 124.002L44.684 124.002 44.684 113.424 34.108 113.424 34.108 124.002zM36.108 122.002L42.684 122.002 42.684 115.424 36.108 115.424 36.108 122.002zM48.755 124.002L59.334 124.002 59.334 113.424 48.755 113.424 48.755 124.002zM50.755 122.002L57.334 122.002 57.334 115.424 50.755 115.424 50.755 122.002zM63.405 124.002L73.984 124.002 73.984 113.424 63.405 113.424 63.405 124.002zM65.405 122.002L71.984 122.002 71.984 115.424 65.405 115.424 65.405 122.002zM78.052 124.002L88.631 124.002 88.631 113.424 78.052 113.424 78.052 124.002zM80.052 122.002L86.631 122.002 86.631 115.424 80.052 115.424 80.052 122.002zM92.697 124.002L103.277 124.002 103.277 113.424 92.697 113.424 92.697 124.002zM94.697 122.002L101.277 122.002 101.277 115.424 94.697 115.424 94.697 122.002zM107.348 124.002L117.927 124.002 117.927 113.424 107.348 113.424 107.348 124.002zM109.348 122.002L115.927 122.002 115.927 115.424 109.348 115.424 109.348 122.002zM121.994 124.002L132.573 124.002 132.573 113.424 121.994 113.424 121.994 124.002zM123.994 122.002L130.573 122.002 130.573 115.424 123.994 115.424 123.994 122.002zM136.645 124.002L147.22 124.002 147.22 113.424 136.645 113.424 136.645 124.002zM138.645 122.002L145.22 122.002 145.22 115.424 138.645 115.424 138.645 122.002zM151.291 124.002L161.87 124.002 161.87 113.424 151.291 113.424 151.291 124.002zM153.291 122.002L159.87 122.002 159.87 115.424 153.291 115.424 153.291 122.002zM34.108 138.606L44.684 138.606 44.684 128.027 34.108 128.027 34.108 138.606zM36.108 136.606L42.684 136.606 42.684 130.027 36.108 130.027 36.108 136.606zM48.755 138.606L59.334 138.606 59.334 128.027 48.755 128.027 48.755 138.606zM50.755 136.606L57.334 136.606 57.334 130.027 50.755 130.027 50.755 136.606zM63.405 138.606L73.984 138.606 73.984 128.027 63.405 128.027 63.405 138.606zM65.405 136.606L71.984 136.606 71.984 130.027 65.405 130.027 65.405 136.606zM78.052 138.606L88.631 138.606 88.631 128.027 78.052 128.027 78.052 138.606zM80.052 136.606L86.631 136.606 86.631 130.027 80.052 130.027 80.052 136.606zM92.697 138.606L103.277 138.606 103.277 128.027 92.697 128.027 92.697 138.606zM94.697 136.606L101.277 136.606 101.277 130.027 94.697 130.027 94.697 136.606zM107.348 138.606L117.927 138.606 117.927 128.027 107.348 128.027 107.348 138.606zM109.348 136.606L115.927 136.606 115.927 130.027 109.348 130.027 109.348 136.606zM121.994 138.606L132.573 138.606 132.573 128.027 121.994 128.027 121.994 138.606zM123.994 136.606L130.573 136.606 130.573 130.027 123.994 130.027 123.994 136.606zM136.645 138.606L147.22 138.606 147.22 128.027 136.645 128.027 136.645 138.606zM138.645 136.606L145.22 136.606 145.22 130.027 138.645 130.027 138.645 136.606zM151.291 138.606L161.87 138.606 161.87 128.027 151.291 128.027 151.291 138.606zM153.291 136.606L159.87 136.606 159.87 130.027 153.291 130.027 153.291 136.606zM34.108 153.214L44.684 153.214 44.684 142.635 34.108 142.635 34.108 153.214zM36.108 151.214L42.684 151.214 42.684 144.635 36.108 144.635 36.108 151.214zM48.755 153.214L117.927 153.214 117.927 142.635 48.755 142.635 48.755 153.214zM50.755 151.214L115.927 151.214 115.927 144.635 50.755 144.635 50.755 151.214zM121.994 153.214L132.573 153.214 132.573 142.635 121.994 142.635 121.994 153.214zM123.994 151.214L130.573 151.214 130.573 144.635 123.994 144.635 123.994 151.214zM136.645 153.214L147.22 153.214 147.22 142.635 136.645 142.635 136.645 153.214zM138.645 151.214L145.22 151.214 145.22 144.635 138.645 144.635 138.645 151.214zM151.291 153.214L161.87 153.214 161.87 142.635 151.291 142.635 151.291 153.214zM153.291 151.214L159.87 151.214 159.87 144.635 153.291 144.635 153.291 151.214zM45.877 38.3C45.621 38.3 45.365 38.202 45.17 38.007L36.6 29.433C36.209 29.042 36.209 28.409 36.6 28.019L45.17 19.442C45.561 19.052 46.193 19.052 46.584 19.442 46.975 19.833 46.975 20.466 46.584 20.856L38.721 28.726 46.584 36.593C46.975 36.983 46.975 37.617 46.584 38.007 46.389 38.202 46.133 38.3 45.877 38.3M52.627 38.3C52.501 38.3 52.373 38.276 52.249 38.226 51.737 38.017 51.492 37.433 51.701 36.922L58.701 19.771C58.91 19.26 59.494 19.016 60.005 19.224 60.517 19.432 60.762 20.016 60.553 20.527L53.553 37.678C53.395 38.065 53.021 38.3 52.627 38.3M65.307 38.3C65.051 38.3 64.795 38.202 64.6 38.007 64.209 37.617 64.209 36.983 64.6 36.593L72.463 28.726 64.6 20.856C64.209 20.466 64.209 19.833 64.6 19.442 64.99 19.052 65.623 19.052 66.014 19.442L74.584 28.019C74.975 28.409 74.975 29.042 74.584 29.433L66.014 38.007C65.818 38.202 65.563 38.3 65.307 38.3"/>
  </g>
</svg>
