<svg height="256" viewBox="0 0 256 256" width="256" xmlns="http://www.w3.org/2000/svg"><g fill="none" fill-rule="evenodd" transform="translate(16 29)"><path d="m222.02 2.297-130.334.005.003 185.634 130.331-.005zm.005 185.634v1zm0 2h-130.339c-1.101 0-1.997-.895-1.997-1.995v-185.639c0-1.1.896-1.995 1.997-1.995h130.339c1.1 0 1.995.895 1.995 1.995v185.639c0 1.1-.895 1.995-1.995 1.995z" fill="#5e6977"/><path d="m223.02 11.901v-9.604c0-.55-.448-.995-.995-.995h-130.339c-.551 0-.997.445-.997.995v9.604z" fill="#6ca3bb"/><path d="m91.689 10.901h130.331v-8.604l-130.334.005zm131.331 2h-132.331c-.552 0-1-.447-1-1v-9.604c0-1.1.896-1.995 1.997-1.995h130.339c1.1 0 1.995.895 1.995 1.995v9.604c0 .553-.448 1-1 1z" fill="#5e6977"/><path d="m108.311 6.508c0 .937-.76 1.697-1.696 1.697-.937 0-1.698-.76-1.698-1.697 0-.938.761-1.695 1.698-1.695.936 0 1.696.757 1.696 1.695" fill="#fff"/><path d="m106.615 5.813c-.385 0-.698.312-.698.695 0 .384.313.697.698.697.384 0 .696-.313.696-.697 0-.383-.312-.695-.696-.695zm0 3.392c-1.488 0-2.698-1.21-2.698-2.697s1.21-2.695 2.698-2.695c1.487 0 2.696 1.208 2.696 2.695s-1.209 2.697-2.696 2.697z" fill="#5e6977"/><path d="m102.77 6.508c0 .937-.758 1.697-1.696 1.697-.937 0-1.695-.76-1.695-1.697 0-.938.758-1.695 1.695-1.695.938 0 1.696.757 1.696 1.695" fill="#fff"/><path d="m101.074 5.813c-.384 0-.695.312-.695.695 0 .384.311.697.695.697s.696-.313.696-.697c0-.383-.312-.695-.696-.695zm0 3.392c-1.486 0-2.695-1.21-2.695-2.697s1.209-2.695 2.695-2.695c1.487 0 2.696 1.208 2.696 2.695s-1.209 2.697-2.696 2.697z" fill="#5e6977"/><path d="m97.233 6.508c0 .937-.76 1.697-1.7 1.697-.937 0-1.695-.76-1.695-1.697 0-.938.758-1.695 1.695-1.695.94 0 1.7.757 1.7 1.695" fill="#fff"/><g fill="#5e6977"><path d="m95.533 5.813c-.384 0-.695.312-.695.695 0 .384.311.697.695.697.386 0 .7-.313.7-.697 0-.383-.314-.695-.7-.695zm0 3.392c-1.486 0-2.695-1.21-2.695-2.697s1.209-2.695 2.695-2.695c1.489 0 2.7 1.208 2.7 2.695s-1.211 2.697-2.7 2.697z"/><path d="m101.492 29.21h23.666v-2h-23.666z"/><path d="m112.992 33.543h32.922v-2h-32.922z"/><path d="m112.992 37.876h29.666v-2h-29.666z"/><path d="m112.992 42.209h23.666v-2h-23.666z"/><path d="m101.492 78.21h23.666v-2h-23.666z"/><path d="m112.992 82.543h63.422v-2h-63.422z"/><path d="m112.992 86.876h53.495v-2h-53.495z"/><path d="m118.992 91.209h23.666v-2h-23.666z"/><path d="m101.492 54.71h23.666v-2h-23.666z"/><path d="m112.992 59.043h97.25v-2h-97.25z"/><path d="m112.992 63.376h93.995v-2h-93.995z"/><path d="m112.992 67.709h23.666v-2h-23.666z"/><path d="m13.176 91.49h9.881v-14.994h-9.881zm10.881 2h-11.881c-.553 0-1-.448-1-1v-16.994c0-.552.447-1 1-1h11.881c.552 0 1 .448 1 1v16.994c0 .552-.448 1-1 1z"/><path d="m18.154 92.713c-.276 0-.5-.224-.5-.5v-16.44c0-.276.224-.5.5-.5.277 0 .5.224.5.5v16.44c0 .276-.223.5-.5.5"/><path d="m24.131 81.548h-11.955c-.277 0-.5-.224-.5-.5 0-.277.223-.5.5-.5h11.955c.276 0 .5.223.5.5 0 .276-.224.5-.5.5m0 5.691h-11.955c-.277 0-.5-.223-.5-.5 0-.276.223-.5.5-.5h11.955c.276 0 .5.224.5.5 0 .277-.224.5-.5.5m-14.785-2.604h-3.709c-.553 0-1-.448-1-1s.447-1 1-1h3.709c.552 0 1 .448 1 1s-.448 1-1 1m-8.063-11.888c-.553 0-1-.448-1-1v-2.177c0-.552.447-1 1-1s1 .448 1 1v2.177c0 .552-.447 1-1 1m12.418 0c-.553 0-1-.448-1-1v-2.177c0-.552.447-1 1-1s1 .448 1 1v2.177c0 .552-.447 1-1 1"/><path d="m7.492 84.277c-.553 0-1-.447-1-1v-13.061c0-.552.447-1 1-1s1 .448 1 1v13.061c0 .553-.447 1-1 1"/><path d="m13.701 70.57h-12.418c-.553 0-1-.447-1-1 0-.552.447-1 1-1h12.418c.553 0 1 .448 1 1 0 .553-.447 1-1 1m54.154 127.654c-.42 0-.812-.268-.95-.689l-6.067-18.545-6.067 18.545c-.171.524-.74.812-1.261.639-.526-.172-.812-.736-.64-1.261l7.018-21.45c.134-.411.517-.689.95-.689s.815.278.95.689l7.018 21.45c.172.525-.115 1.089-.64 1.261-.103.034-.208.05-.311.05"/><path d="m55.688 198.224h-3.35c-.553 0-1-.448-1-1 0-.553.447-1 1-1h3.35c.552 0 1 .447 1 1 0 .552-.448 1-1 1m13.65 0h-3.349c-.552 0-1-.448-1-1 0-.553.448-1 1-1h3.349c.553 0 1 .447 1 1 0 .552-.447 1-1 1m-4.018-6.617h-8.972c-.553 0-1-.447-1-1 0-.552.447-1 1-1h8.972c.553 0 1 .448 1 1 0 .553-.447 1-1 1m8.088-9.842c-.389.103-.83.209-1.324.318-1.101.243-1.869.418-2.289.531-.29.08-.566.235-.836.471-.122.104-.248.261-.248.656 0 .351.118.62.384.873.169.162.468.376 1.118.376.637 0 1.2-.136 1.724-.416.498-.264.858-.595 1.073-.984.135-.232.333-.74.398-1.825zm-3.195 5.225c-1.013 0-1.854-.312-2.499-.929-.665-.634-1.003-1.415-1.003-2.32 0-1.136.514-1.808.945-2.172.482-.422 1.029-.723 1.614-.884.441-.12 1.239-.302 2.382-.554 1.09-.243 1.907-.465 2.424-.661.308-.115.653-.074.922.113.271.186.432.494.432.822v.59c0 1.62-.223 2.791-.68 3.581-.396.716-1.029 1.315-1.872 1.763-.808.432-1.705.651-2.665.651z"/><path d="m74.525 186.896c-.552 0-1-.447-1-1v-6.526c0-1.15-.86-2.086-1.918-2.086h-.687c-.766 0-1.458.493-1.763 1.257-.205.512-.793.758-1.3.557-.512-.206-.762-.787-.557-1.301.611-1.526 2.032-2.513 3.62-2.513h.687c2.161 0 3.918 1.833 3.918 4.086v6.526c0 .553-.447 1-1 1"/></g><path d="m54.486 90.62-25.076-27.977h50.152z" fill="#6ca3bb"/><path d="m31.649 63.643 22.837 25.479 22.836-25.479zm22.837 27.977c-.284 0-.554-.121-.745-.332l-25.076-27.978c-.263-.294-.329-.715-.168-1.075s.519-.592.913-.592h50.152c.394 0 .751.232.913.592.161.36.094.781-.168 1.075l-25.076 27.978c-.19.211-.46.332-.745.332z" fill="#5e6977"/><path d="m54.486 90.62-11.054-27.977h22.109z" fill="#fff"/><path d="m44.902 63.643 9.584 24.256 9.584-24.256zm9.584 27.977c-.41 0-.779-.251-.929-.632l-11.055-27.978c-.122-.308-.083-.656.102-.93.187-.273.497-.437.828-.437h22.109c.331 0 .641.164.827.437.186.274.225.622.103.93l-11.055 27.978c-.15.381-.52.632-.93.632z" fill="#5e6977"/><path d="m29.41 62.708h50.152l-6.898-8.895h-36.355z" fill="#6ca3bb"/><path d="m31.451 61.708h46.07l-5.347-6.895h-35.375zm48.111 2h-50.152c-.382 0-.73-.217-.898-.56s-.126-.751.108-1.053l6.899-8.894c.189-.244.481-.388.79-.388h36.355c.31 0 .601.144.79.388l6.898 8.894c.234.302.276.71.108 1.053s-.517.56-.898.56z" fill="#5e6977"/><path d="m54.486 53.726-11.054 8.982h22.109z" fill="#fff"/><path d="m46.248 61.708h16.477l-8.239-6.694zm19.293 2h-22.109c-.423 0-.801-.267-.943-.666-.141-.398-.016-.843.312-1.11l11.054-8.982c.368-.299.895-.299 1.262 0l11.055 8.982c.328.267.453.712.311 1.11-.141.399-.519.666-.942.666z" fill="#5e6977"/><path d="m43.341 62.708-7.013-8.895h-.019l-6.899 8.895z" fill="#fff"/><path d="m31.451 61.708h9.828l-4.954-6.284zm11.89 2h-13.931c-.382 0-.73-.217-.898-.56s-.126-.751.108-1.053l6.899-8.894c.377-.488 1.213-.49 1.594-.007l7.013 8.895c.237.301.282.711.114 1.056-.167.344-.516.563-.899.563z" fill="#5e6977"/><path d="m65.632 62.708 7.013-8.895h.019l6.898 8.895z" fill="#fff"/><path d="m67.693 61.708h9.828l-4.874-6.284zm11.888 2c-.005 0-.013.001-.019 0h-13.93c-.383 0-.733-.219-.9-.563-.168-.345-.123-.755.115-1.056l7.012-8.895c.381-.484 1.217-.48 1.595.007l6.797 8.764c.203.183.33.448.33.743 0 .552-.447 1-1 1z" fill="#5e6977"/><path d="m23.991 167.38h147.996v-64.109h-147.996z" fill="#fff"/><path d="m22.991 168.38h149.996v-66.109h-149.996zm2-2h145.996v-62.109h-145.996z" fill="#5e6977"/><path d="m34.108 124.002h10.576v-10.578h-10.576zm2-2h6.576v-6.578h-6.576zm12.647 2h10.579v-10.578h-10.579zm2-2h6.579v-6.578h-6.579zm12.65 2h10.579v-10.578h-10.579zm2-2h6.579v-6.578h-6.579zm12.647 2h10.579v-10.578h-10.579zm2-2h6.579v-6.578h-6.579zm12.645 2h10.58v-10.578h-10.58zm2-2h6.58v-6.578h-6.58zm12.651 2h10.579v-10.578h-10.579zm2-2h6.579v-6.578h-6.579zm12.646 2h10.579v-10.578h-10.579zm2-2h6.579v-6.578h-6.579zm12.651 2h10.575v-10.578h-10.575zm2-2h6.575v-6.578h-6.575zm12.646 2h10.579v-10.578h-10.579zm2-2h6.579v-6.578h-6.579zm-119.183 16.604h10.576v-10.579h-10.576zm2-2h6.576v-6.579h-6.576zm12.647 2h10.579v-10.579h-10.579zm2-2h6.579v-6.579h-6.579zm12.65 2h10.579v-10.579h-10.579zm2-2h6.579v-6.579h-6.579zm12.647 2h10.579v-10.579h-10.579zm2-2h6.579v-6.579h-6.579zm12.645 2h10.58v-10.579h-10.58zm2-2h6.58v-6.579h-6.58zm12.651 2h10.579v-10.579h-10.579zm2-2h6.579v-6.579h-6.579zm12.646 2h10.579v-10.579h-10.579zm2-2h6.579v-6.579h-6.579zm12.651 2h10.575v-10.579h-10.575zm2-2h6.575v-6.579h-6.575zm12.646 2h10.579v-10.579h-10.579zm2-2h6.579v-6.579h-6.579zm-119.183 16.608h10.576v-10.579h-10.576zm2-2h6.576v-6.579h-6.576zm12.647 2h69.172v-10.579h-69.172zm2-2h65.172v-6.579h-65.172zm71.239 2h10.579v-10.579h-10.579zm2-2h6.579v-6.579h-6.579zm12.651 2h10.575v-10.579h-10.575zm2-2h6.575v-6.579h-6.575zm12.646 2h10.579v-10.579h-10.579zm2-2h6.579v-6.579h-6.579zm-107.414-112.914c-.256 0-.512-.098-.707-.293l-8.57-8.574c-.391-.391-.391-1.024 0-1.414l8.57-8.577c.391-.39 1.023-.39 1.414 0 .391.391.391 1.024 0 1.414l-7.863 7.87 7.863 7.867c.391.39.391 1.024 0 1.414-.195.195-.451.293-.707.293m6.75 0c-.126 0-.254-.024-.378-.074-.512-.209-.757-.793-.548-1.304l7-17.151c.209-.511.793-.755 1.304-.547.512.208.757.792.548 1.303l-7 17.151c-.158.387-.532.622-.926.622m12.68 0c-.256 0-.512-.098-.707-.293-.391-.39-.391-1.024 0-1.414l7.863-7.867-7.863-7.87c-.391-.39-.391-1.023 0-1.414.39-.39 1.023-.39 1.414 0l8.57 8.577c.391.39.391 1.023 0 1.414l-8.57 8.574c-.196.195-.451.293-.707.293" fill="#5e6977"/></g></svg>