<svg height="30" viewBox="0 0 30 30" width="30" xmlns="http://www.w3.org/2000/svg"><path d="m720 199c-8.284271 0-15-6.715729-15-15s6.715729-15 15-15 15 6.715729 15 15-6.715729 15-15 15zm0-2.727273c6.77804 0 12.272727-5.494687 12.272727-12.272727s-5.494687-12.272727-12.272727-12.272727-12.272727 5.494687-12.272727 12.272727 5.494687 12.272727 12.272727 12.272727zm7.075477-17.623326-2.890909 8.672728c-.135729.407188-.455251.72671-.862439.862439l-8.672728 2.890909c-1.066033.355345-2.080223-.658845-1.724878-1.724878l2.890909-8.672728c.135729-.407188.455251-.72671.862439-.862439l8.672728-2.890909c1.066033-.355345 2.080223.658845 1.724878 1.724878zm-8.888337 3.537739-1.81286 5.43858 5.43858-1.81286 1.81286-5.43858z" fill="#bba46f" transform="translate(-705 -169)"/></svg>