<svg height="14" viewBox="0 0 12 14" width="12" xmlns="http://www.w3.org/2000/svg"><path d="m8.984 8.391v.852q0 .391-.285.695t-.734.473-.922.254-.918.086q-1.602 0-2.676-1.086t-1.074-2.703q0-1.586 1.062-2.648t2.648-1.062q.266 0 .59.035t.727.141.723.266.539.441.219.633v.852q0 .125-.125.125h-.922q-.125 0-.125-.125v-.547q0-.336-.512-.527t-1.074-.191q-1.094 0-1.785.715t-.691 1.855q0 1.18.715 1.949t1.824.77q.531 0 1.078-.187t.547-.516v-.547q0-.055.035-.09t.082-.035h.93q.047 0 .086.035t.039.09zm-2.984-6.391q-1.016 0-1.941.398t-1.594 1.066-1.066 1.594-.398 1.941.398 1.941 1.066 1.594 1.594 1.066 1.941.398 1.941-.398 1.594-1.066 1.066-1.594.398-1.941-.398-1.941-1.066-1.594-1.594-1.066-1.941-.398zm6 5q0 1.633-.805 3.012t-2.184 2.184-3.012.805-3.012-.805-2.184-2.184-.805-3.012.805-3.012 2.184-2.184 3.012-.805 3.012.805 2.184 2.184.805 3.012z"/></svg>