<svg height="255" viewBox="0 0 255 255" width="255" xmlns="http://www.w3.org/2000/svg"><g fill="none" fill-rule="evenodd" transform="translate(49 33)"><path d="m156.351 53.022v.503c-1.323.675-2.769 1.012-4.214 1.012-1.446 0-2.892-.338-4.215-1.012v102.75c1.323.674 2.769 1.012 4.215 1.012 1.445 0 2.891-.337 4.214-1.012.001-5.3.001-103.251.001-103.251z" fill="#e5b2ba"/><path d="m133.384 187.846c0 .549-.446.995-.993.995h-130.341c-.551 0-.996-.446-.996-.995v-185.639c0-.55.445-.995.996-.995h130.341c.547 0 .993.445.993.995z" fill="#fff"/><path d="m132.384 2.207-130.334.005.004 185.634 130.331-.005zm.007 185.634v1zm0 2h-130.341c-1.101 0-1.996-.895-1.996-1.995v-185.639c0-1.1.895-1.995 1.996-1.995h130.341c1.098 0 1.993.895 1.993 1.995v185.639c0 1.1-.895 1.995-1.993 1.995z" fill="#5e6977"/><path d="m133.384 11.812v-9.605c0-.55-.446-.995-.993-.995h-130.341c-.551 0-.996.445-.996.995v9.605z" fill="#6ca3bb"/><path d="m2.054 10.812h130.33v-8.605l-130.334.005zm131.33 2h-132.33c-.553 0-1-.448-1-1v-9.605c0-1.1.895-1.995 1.996-1.995h130.341c1.098 0 1.993.895 1.993 1.995v9.605c0 .552-.447 1-1 1z" fill="#5e6977"/><path d="m1.054 165.708v22.138c0 .55.445.995.996.995h130.341c.547 0 .993-.445.993-.995v-22.138z" fill="#e8e9ea"/><path d="m2.054 166.708v21.138l130.331-.005-.001-21.133zm130.337 21.133v1zm0 2h-130.341c-1.101 0-1.996-.895-1.996-1.995v-22.138c0-.553.447-1 1-1h132.33c.553 0 1 .447 1 1v22.138c0 1.1-.895 1.995-1.993 1.995z" fill="#5e6977"/><path d="m1.054 96.365h132.33v-50.041h-132.33z" fill="#aebfc6"/><path d="m2.054 95.365h130.33v-48.041h-130.33zm131.33 2h-132.33c-.553 0-1-.448-1-1v-50.041c0-.552.447-1 1-1h132.33c.553 0 1 .448 1 1v50.041c0 .552-.447 1-1 1z" fill="#5e6977"/><path d="m31.266 66.536h71.906v-4.722h-71.906z" fill="#fff"/><path d="m32.266 65.536h69.906v-2.722h-69.906zm70.906 2h-71.906c-.553 0-1-.448-1-1v-4.722c0-.552.447-1 1-1h71.906c.553 0 1 .448 1 1v4.722c0 .552-.447 1-1 1z" fill="#5e6977"/><path d="m18.674 6.418c0 .937-.76 1.697-1.695 1.697-.938 0-1.698-.76-1.698-1.697 0-.938.76-1.695 1.698-1.695.935 0 1.695.757 1.695 1.695" fill="#fff"/><path d="m16.979 5.723c-.385 0-.698.312-.698.695 0 .384.313.697.698.697.383 0 .695-.313.695-.697 0-.383-.312-.695-.695-.695zm0 3.392c-1.488 0-2.698-1.21-2.698-2.697 0-1.486 1.21-2.695 2.698-2.695 1.486 0 2.695 1.209 2.695 2.695 0 1.487-1.209 2.697-2.695 2.697z" fill="#5e6977"/><path d="m13.134 6.418c0 .937-.758 1.697-1.695 1.697s-1.695-.76-1.695-1.697c0-.938.758-1.695 1.695-1.695s1.695.757 1.695 1.695" fill="#fff"/><path d="m11.439 5.723c-.383 0-.695.312-.695.695 0 .384.312.697.695.697s.695-.313.695-.697c0-.383-.312-.695-.695-.695zm0 3.392c-1.486 0-2.695-1.21-2.695-2.697 0-1.486 1.209-2.695 2.695-2.695s2.695 1.209 2.695 2.695c0 1.487-1.209 2.697-2.695 2.697z" fill="#5e6977"/><path d="m7.598 6.418c0 .937-.762 1.697-1.7 1.697s-1.695-.76-1.695-1.697c0-.938.757-1.695 1.695-1.695s1.7.757 1.7 1.695" fill="#fff"/><path d="m5.898 5.723c-.383 0-.695.312-.695.695 0 .384.312.697.695.697.386 0 .7-.313.7-.697 0-.383-.314-.695-.7-.695zm0 3.392c-1.486 0-2.695-1.21-2.695-2.697 0-1.486 1.209-2.695 2.695-2.695 1.489 0 2.7 1.209 2.7 2.695 0 1.487-1.211 2.697-2.7 2.697z" fill="#5e6977"/><path d="m12.385 38.85h20.068v-2h-20.068z" fill="#5e6977"/><path d="m34.785 38.85h20.069v-2h-20.069z" fill="#5e6977"/><path d="m57.185 38.85h20.067v-2h-20.067z" fill="#5e6977"/><path d="m79.584 38.85h20.068v-2h-20.068z" fill="#5e6977"/><path d="m101.984 38.85h20.068v-2h-20.068z" fill="#5e6977"/><path d="m122.709 176.535c0 1.516-1.229 2.743-2.746 2.743-1.514 0-2.742-1.227-2.742-2.743s1.228-2.744 2.742-2.744c1.517 0 2.746 1.228 2.746 2.744" fill="#fff"/><path d="m119.963 174.791c-.961 0-1.742.782-1.742 1.744 0 .961.781 1.743 1.742 1.743.963 0 1.746-.782 1.746-1.743 0-.962-.783-1.744-1.746-1.744zm0 5.487c-2.064 0-3.742-1.678-3.742-3.743 0-2.064 1.678-3.744 3.742-3.744 2.065 0 3.746 1.68 3.746 3.744 0 2.065-1.681 3.743-3.746 3.743z" fill="#5e6977"/><path d="m114.127 176.535c0 1.516-1.227 2.743-2.744 2.743-1.515 0-2.743-1.227-2.743-2.743s1.228-2.744 2.743-2.744c1.517 0 2.744 1.228 2.744 2.744" fill="#fff"/><path d="m111.383 174.791c-.961 0-1.743.782-1.743 1.744 0 .961.782 1.743 1.743 1.743.962 0 1.744-.782 1.744-1.743 0-.962-.782-1.744-1.744-1.744zm0 5.487c-2.065 0-3.743-1.678-3.743-3.743 0-2.064 1.678-3.744 3.743-3.744 2.064 0 3.744 1.68 3.744 3.744 0 2.065-1.68 3.743-3.744 3.743z" fill="#5e6977"/><path d="m105.546 176.535c0 1.516-1.228 2.743-2.745 2.743-1.515 0-2.742-1.227-2.742-2.743s1.227-2.744 2.742-2.744c1.517 0 2.745 1.228 2.745 2.744" fill="#fff"/><path d="m102.801 174.791c-.961 0-1.742.782-1.742 1.744 0 .961.781 1.743 1.742 1.743.962 0 1.745-.782 1.745-1.743 0-.962-.783-1.744-1.745-1.744zm0 5.487c-2.064 0-3.742-1.678-3.742-3.743 0-2.064 1.678-3.744 3.742-3.744 2.065 0 3.745 1.68 3.745 3.744 0 2.065-1.68 3.743-3.745 3.743z" fill="#5e6977"/><path d="m11.729 175.85h23.666v-2h-23.666z" fill="#5e6977"/><path d="m11.729 180.183h48.921v-2h-48.921z" fill="#5e6977"/><path d="m12.659 137.806h31.118v-31.12h-31.118z" fill="#6ca3bb"/><path d="m11.659 138.806h33.118v-33.12h-33.118zm2-2h29.118v-29.12h-29.118z" fill="#5e6977"/><path d="m43.715 106.75-30.993 30.992z" fill="#fff"/><path d="m13.429 138.449-1.414-1.414 30.993-30.992 1.414 1.414z" fill="#5e6977"/><path d="m43.715 137.742-30.993-30.992z" fill="#fff"/><path d="m43.008 138.449-30.993-30.992 1.414-1.414 30.993 30.992z" fill="#5e6977"/><path d="m11.855 144.85h23.667v-2h-23.667z" fill="#5e6977"/><path d="m11.855 149.183h32.922v-2h-32.922z" fill="#5e6977"/><path d="m11.855 153.516h29.667v-2h-29.667z" fill="#5e6977"/><path d="m11.855 157.849h23.667v-2h-23.667z" fill="#5e6977"/><path d="m51.659 137.806h31.118v-31.12h-31.118z" fill="#6ca3bb"/><path d="m50.659 138.806h33.118v-33.12h-33.118zm2-2h29.118v-29.12h-29.118z" fill="#5e6977"/><path d="m82.715 106.75-30.993 30.992z" fill="#fff"/><path d="m52.429 138.449-1.414-1.414 30.993-30.992 1.414 1.414z" fill="#5e6977"/><path d="m82.715 137.742-30.993-30.992z" fill="#fff"/><path d="m82.008 138.449-30.993-30.992 1.414-1.414 30.993 30.992z" fill="#5e6977"/><path d="m50.855 144.85h23.667v-2h-23.667z" fill="#5e6977"/><path d="m50.855 149.183h32.922v-2h-32.922z" fill="#5e6977"/><path d="m50.855 153.516h29.667v-2h-29.667z" fill="#5e6977"/><path d="m50.855 157.849h23.667v-2h-23.667z" fill="#5e6977"/><path d="m90.659 137.806h31.118v-31.12h-31.118z" fill="#6ca3bb"/><path d="m89.659 138.806h33.118v-33.12h-33.118zm2-2h29.118v-29.12h-29.118z" fill="#5e6977"/><path d="m121.715 106.75-30.993 30.992z" fill="#fff"/><path d="m91.429 138.449-1.414-1.414 30.993-30.992 1.414 1.414z" fill="#5e6977"/><path d="m121.715 137.742-30.993-30.992z" fill="#fff"/><g fill="#5e6977"><path d="m121.008 138.449-30.993-30.992 1.414-1.414 30.993 30.992z"/><path d="m89.855 144.85h23.667v-2h-23.667z"/><path d="m89.855 149.183h32.922v-2h-32.922z"/><path d="m89.855 153.516h29.667v-2h-29.667z"/><path d="m89.855 157.849h23.667v-2h-23.667z"/><path d="m25.553 74.517h83.332v-2h-83.332z"/><path d="m38.885 81.517h56.668v-2h-56.668z"/></g><path d="m73.885 25.517c0 3.681-2.985 6.666-6.666 6.666-3.682 0-6.667-2.985-6.667-6.666 0-3.683 2.985-6.667 6.667-6.667 3.681 0 6.666 2.984 6.666 6.667" fill="#e5b2ba"/><g fill="#5e6977"><path d="m67.219 19.85c-3.125 0-5.667 2.542-5.667 5.667 0 3.124 2.542 5.666 5.667 5.666 3.124 0 5.666-2.542 5.666-5.666 0-3.125-2.542-5.667-5.666-5.667zm0 13.333c-4.228 0-7.667-3.439-7.667-7.666 0-4.228 3.439-7.667 7.667-7.667 4.227 0 7.666 3.439 7.666 7.667 0 4.227-3.439 7.666-7.666 7.666zm-58.145 43.773-2.559-3.518c-.255-.351-.255-.826 0-1.177l2.559-3.518 1.617 1.176-2.131 2.931 2.131 2.929z"/><path d="m7.323 73.85h7.79v-2h-7.79z"/><path d="m125.363 76.956-1.617-1.177 2.131-2.929-2.131-2.931 1.617-1.176 2.559 3.519c.255.35.255.825 0 1.176z"/><path d="m119.323 73.85h7.79v-2h-7.79z"/><path d="m148.922 155.638c2.031.852 4.405.85 6.429 0 .001-9.664.001-97.616.001-102.41l-3.215-7.579-3.215 7.579zm3.215 2.649c-1.615 0-3.229-.388-4.669-1.121-.335-.17-.546-.515-.546-.891v-103.251c0-.134.027-.267.079-.39l4.215-9.937c.157-.369.519-.609.921-.609.401 0 .763.24.921.609l4.214 9.937c.052.123.08.256.08.39 0 0 0 97.951-.001 103.251 0 .376-.211.72-.546.891-1.437.733-3.051 1.121-4.668 1.121z"/><path d="m148.349 155.036h7.577v-2h-7.577z"/><path d="m152.137 55.422c-1.456 0-2.912-.338-4.24-1.014l.909-1.783c2.087 1.065 4.577 1.064 6.662 0l.908 1.783c-1.327.676-2.783 1.014-4.239 1.014m0-5.158c-.998 0-1.996-.232-2.907-.696l.909-1.782c1.252.638 2.745.639 3.995 0l.908 1.781c-.909.465-1.907.697-2.905.697"/></g></g></svg>