<?xml version="1.0" encoding="UTF-8"?>
<svg width="60px" height="60px" viewBox="0 0 60 60" version="1.1" xmlns="http://www.w3.org/2000/svg" xmlns:xlink="http://www.w3.org/1999/xlink">
    <!-- Generator: Sketch 51.1 (57501) - http://www.bohemiancoding.com/sketch -->
    <title>029 - code adn layout view</title>
    <desc>Created with Sketch.</desc>
    <defs></defs>
    <g id="Page-1" stroke="none" stroke-width="1" fill="none" fill-rule="evenodd">
        <g id="029---code-adn-layout-view" transform="translate(1.000000, 1.000000)">
            <rect id="Rectangle-path" stroke="#000000" stroke-width="2" stroke-linecap="round" stroke-linejoin="round" x="0" y="0" width="58" height="49.999" rx="4"></rect>
            <polyline id="Shape" stroke="#000000" stroke-width="2" stroke-linecap="round" stroke-linejoin="round" points="0 43 21 43 37 43 58 43"></polyline>
            <rect id="Rectangle-path" stroke="#000000" stroke-width="2" stroke-linecap="round" stroke-linejoin="round" x="21" y="50" width="16" height="4"></rect>
            <path d="M16,54 L42,54 C43.6568542,54 45,55.3431458 45,57 L45,58 L13,58 L13,57 C13,55.3431458 14.3431458,54 16,54 Z" id="Shape" stroke="#000000" stroke-width="2" stroke-linecap="round" stroke-linejoin="round"></path>
            <path d="M29,43 L29,0" id="Shape" stroke="#000000" stroke-width="2" stroke-linecap="round" stroke-linejoin="round"></path>
            <circle id="Oval" stroke="#000000" stroke-width="2" stroke-linecap="round" stroke-linejoin="round" cx="35" cy="6" r="2"></circle>
            <path d="M42,6 L53,6" id="Shape" stroke="#000000" stroke-width="2" stroke-linecap="round" stroke-linejoin="round"></path>
            <path d="M29,12 L58,12" id="Shape" stroke="#000000" stroke-width="2" stroke-linecap="round" stroke-linejoin="round"></path>
            <rect id="Rectangle-path" stroke="#000000" stroke-width="2" stroke-linecap="round" stroke-linejoin="round" x="33" y="16" width="21" height="11" rx="1"></rect>
            <path d="M37,35 L40,35" id="Shape" stroke="#000000" stroke-width="2" stroke-linecap="round" stroke-linejoin="round"></path>
            <path d="M33,36 C32.9362393,35.998339 32.872709,35.9916516 32.81,35.98 C32.7437653,35.9707292 32.6795467,35.9504496 32.62,35.92 C32.556027,35.897957 32.4951855,35.8677044 32.439,35.83 L32.29,35.71 C32.2017473,35.6127393 32.1307291,35.5011393 32.08,35.38 C32.0239476,35.2613445 31.9965453,35.1311833 32,35 C32.0033865,34.7351726 32.107012,34.481469 32.29,34.29 L32.439,34.17 C32.4951855,34.1322956 32.556027,34.102043 32.62,34.08 C32.6795467,34.0495504 32.7437653,34.0292708 32.81,34.02 C32.9345512,33.9899903 33.0644488,33.9899903 33.189,34.02 C33.2555406,34.0293265 33.3200792,34.0496004 33.38,34.08 C33.4413713,34.1001169 33.4988621,34.1305533 33.55,34.17 C33.609,34.21 33.66,34.25 33.71,34.29 C33.892565,34.481743 33.9961196,34.7352731 34,35 C33.99842,35.1306773 33.971241,35.2597777 33.92,35.38 C33.8692709,35.5011393 33.7982527,35.6127393 33.71,35.71 C33.66,35.75 33.61,35.79 33.55,35.83 C33.4988621,35.8694467 33.4413713,35.8998831 33.38,35.92 C33.3200792,35.9503996 33.2555406,35.9706735 33.189,35.98 C33.1266278,35.991653 33.0634297,35.9983406 33,36 Z" id="Shape" fill="#000000" fill-rule="nonzero"></path>
            <path d="M37,31.003 L40,31.003" id="Shape" stroke="#000000" stroke-width="2" stroke-linecap="round" stroke-linejoin="round"></path>
            <path d="M33,32 C32.9362727,31.9978455 32.8727792,31.991162 32.81,31.98 C32.7439953,31.9697302 32.6799321,31.9494998 32.62,31.92 C32.5560025,31.8975809 32.4951665,31.8669949 32.439,31.829 L32.29,31.71 C32.2017473,31.6127393 32.1307291,31.5011393 32.08,31.38 C32.024054,31.2613087 31.9966571,31.1311731 32,31 C32.0031874,30.7351323 32.1068415,30.4813584 32.29,30.29 L32.439,30.17 C32.4951665,30.1320051 32.5560025,30.1014191 32.62,30.079 C32.6794395,30.0484806 32.7437283,30.0285173 32.81,30.02 C32.9344322,29.9890045 33.0645678,29.9890045 33.189,30.02 C33.2555887,30.0285232 33.3202051,30.0484833 33.38,30.079 C33.4414157,30.0994768 33.4989018,30.1302488 33.55,30.17 C33.609,30.21 33.66,30.25 33.71,30.29 C33.8927337,30.4816338 33.9963165,30.735233 34,31 C33.99842,31.1306773 33.971241,31.2597777 33.92,31.38 C33.8692709,31.5011393 33.7982527,31.6127393 33.71,31.71 C33.66,31.75 33.61,31.79 33.55,31.829 C33.4989018,31.8687512 33.4414157,31.8995232 33.38,31.92 C33.3197202,31.9495096 33.2553262,31.9697381 33.189,31.98 C33.1265571,31.9911618 33.0633961,31.9978455 33,32 Z" id="Shape" fill="#000000" fill-rule="nonzero"></path>
            <path d="M37,39.003 L40,39.003" id="Shape" stroke="#000000" stroke-width="2" stroke-linecap="round" stroke-linejoin="round"></path>
            <path d="M33,40 C32.9362727,39.9978455 32.8727792,39.991162 32.81,39.98 C32.7439953,39.9697302 32.6799321,39.9494998 32.62,39.92 C32.5560025,39.8975809 32.4951665,39.8669949 32.439,39.829 L32.29,39.71 C32.2017473,39.6127393 32.1307291,39.5011393 32.08,39.38 C32.024054,39.2613087 31.9966571,39.1311731 32,39 C32.0031874,38.7351323 32.1068415,38.4813584 32.29,38.29 L32.439,38.17 C32.4951665,38.1320051 32.5560025,38.1014191 32.62,38.079 C32.6794395,38.0484806 32.7437283,38.0285173 32.81,38.02 C32.9344322,37.9890045 33.0645678,37.9890045 33.189,38.02 C33.2555887,38.0285232 33.3202051,38.0484833 33.38,38.079 C33.4414157,38.0994768 33.4989018,38.1302488 33.55,38.17 C33.609,38.21 33.66,38.25 33.71,38.29 C33.8927337,38.4816338 33.9963165,38.735233 34,39 C33.99842,39.1306773 33.971241,39.2597777 33.92,39.38 C33.8692709,39.5011393 33.7982527,39.6127393 33.71,39.71 C33.66,39.75 33.61,39.79 33.55,39.829 C33.4989018,39.8687512 33.4414157,39.8995232 33.38,39.92 C33.3197202,39.9495096 33.2553262,39.9697381 33.189,39.98 C33.1265571,39.9911618 33.0633961,39.9978455 33,40 Z" id="Shape" fill="#000000" fill-rule="nonzero"></path>
            <rect id="Rectangle-path" stroke="#000000" stroke-width="2" stroke-linecap="round" stroke-linejoin="round" x="44" y="31" width="10" height="8" rx="1"></rect>
            <path d="M4,5 L10,5" id="Shape" stroke="#000000" stroke-width="2" stroke-linecap="round" stroke-linejoin="round"></path>
            <path d="M14,5 L16,5" id="Shape" stroke="#000000" stroke-width="2" stroke-linecap="round" stroke-linejoin="round"></path>
            <path d="M21,9 L10,9" id="Shape" stroke="#000000" stroke-width="2" stroke-linecap="round" stroke-linejoin="round"></path>
            <path d="M6,9 L4,9" id="Shape" stroke="#000000" stroke-width="2" stroke-linecap="round" stroke-linejoin="round"></path>
            <path d="M21,19 L10,19" id="Shape" stroke="#000000" stroke-width="2" stroke-linecap="round" stroke-linejoin="round"></path>
            <path d="M6,19 L4,19" id="Shape" stroke="#000000" stroke-width="2" stroke-linecap="round" stroke-linejoin="round"></path>
            <path d="M8,23 L19,23" id="Shape" stroke="#000000" stroke-width="2" stroke-linecap="round" stroke-linejoin="round"></path>
            <path d="M23,23 L25,23" id="Shape" stroke="#000000" stroke-width="2" stroke-linecap="round" stroke-linejoin="round"></path>
            <path d="M25,13 L14,13" id="Shape" stroke="#000000" stroke-width="2" stroke-linecap="round" stroke-linejoin="round"></path>
            <path d="M10,13 L8,13" id="Shape" stroke="#000000" stroke-width="2" stroke-linecap="round" stroke-linejoin="round"></path>
            <path d="M4,29 L10,29" id="Shape" stroke="#000000" stroke-width="2" stroke-linecap="round" stroke-linejoin="round"></path>
            <path d="M14,29 L16,29" id="Shape" stroke="#000000" stroke-width="2" stroke-linecap="round" stroke-linejoin="round"></path>
            <path d="M21,33 L10,33" id="Shape" stroke="#000000" stroke-width="2" stroke-linecap="round" stroke-linejoin="round"></path>
            <path d="M6,33 L4,33" id="Shape" stroke="#000000" stroke-width="2" stroke-linecap="round" stroke-linejoin="round"></path>
            <path d="M25,37 L14,37" id="Shape" stroke="#000000" stroke-width="2" stroke-linecap="round" stroke-linejoin="round"></path>
            <path d="M10,37 L8,37" id="Shape" stroke="#000000" stroke-width="2" stroke-linecap="round" stroke-linejoin="round"></path>
            <polyline id="Shape" stroke="#000000" stroke-width="2" stroke-linecap="round" stroke-linejoin="round" points="47.5 27 44.7 24.2 44.6 24.107 40.5 20 33.59 26.916"></polyline>
            <polyline id="Shape" stroke="#000000" stroke-width="2" stroke-linecap="round" stroke-linejoin="round" points="53.41 26.916 47.5 21.4 44.6 24.107"></polyline>
        </g>
    </g>
</svg>