<svg enable-background="new 0 0 595.563 160.13" height="160.13" viewBox="0 0 595.563 160.13" width="595.563" xmlns="http://www.w3.org/2000/svg"><path clip-rule="evenodd" d="m421.541 116.413c-.709-7.078-7.08-4.444-7.08-4.444s-10.27 7.956-19.289 7.071c-9.029-.885-6.199-21.066-6.199-21.066s1.949-18.497-3.361-20.047c-5.309-1.55-11.859 4.82-11.859 4.82s-8.141 9.025-12.029 20.529l-1.061.354s1.24-20.174-.18-24.775c-1.061-2.301-10.791-2.123-12.391 1.946-1.59 4.069-9.369 32.385-9.91 44.241 0 0-15.209 12.919-28.49 15.043-13.27 2.123-16.459-6.194-16.459-6.194s36.11-10.087 34.87-38.933-29.119-18.178-32.27-15.807c-3.051 2.293-19.34 12.119-24.09 39.33-.17.926-.451 4.969-.451 4.969s-13.979 9.379-21.77 11.856c0 0 21.77-36.632-4.77-53.267-12.041-7.256-21.59 7.963-21.59 7.963s35.92-39.994 27.959-73.795c-3.799-16.097-11.84-17.824-19.229-15.219-11.211 4.424-15.461 10.972-15.461 10.972s-14.51 21.06-17.869 52.382c-3.371 31.322-8.32 69.193-8.32 69.193s-6.9 6.726-13.271 7.08c-6.369.354-3.539-18.936-3.539-18.936s4.949-29.377 4.6-34.332-.711-7.609-6.551-9.379-12.209 5.663-12.209 5.663-16.811 25.483-18.23 29.376l-.879 1.593-.891-1.062s11.859-34.686.529-35.217c-11.32-.53-18.75 12.388-18.75 12.388s-12.92 21.59-13.449 24.067l-.891-1.062s5.311-25.129 4.25-31.323c-1.061-6.193-6.9-4.955-6.9-4.955s-7.439-.885-9.379 3.893c-1.951 4.779-9.031 36.455-9.91 46.543 0 0-18.58 13.273-30.791 13.449-12.219.178-10.979-7.744-10.979-7.744s44.779-15.325 32.568-45.586c-5.488-7.787-11.859-10.236-20.889-10.06-9.02.177-20.221 5.685-27.48 21.966-3.461 7.766-4.721 15.135-5.43 20.713 0 0-7.84 1.599-12.09-1.94-4.24-3.539-6.43 0-6.43 0s-7.291 9.294-.041 12.126c7.26 2.831 18.59 4.154 18.59 4.154h-.01c1.041 4.955 4.07 13.373 12.9 20.082 13.279 10.088 38.75-.926 38.75-.926l10.439-5.861s.359 9.576 7.971 10.979c7.609 1.395 10.789-.021 24.061-32.229 7.789-16.459 8.318-15.582 8.318-15.582l.891-.176s-6.02 31.5-3.721 39.994c2.301 8.494 12.391 7.61 12.391 7.61s5.48 1.062 9.91-14.513c4.42-15.572 12.92-32.738 12.92-32.738h1.061s-3.721 32.208 1.939 42.473c5.67 10.264 20.359 3.454 20.359 3.454s10.261-5.182 11.851-6.774c0 0 12.18 10.371 29.369 8.488 38.41-7.561 52.07-17.769 52.07-17.769s6.6 16.72 27.042 18.271c23.359 1.77 36.1-12.926 36.1-12.926s-.17 9.557 7.971 12.918c8.139 3.363 13.619-15.529 13.619-15.529l13.631-37.561h1.238s.711 24.422 14.16 28.314c13.451 3.894 30.971-9.116 30.971-9.116s4.241-2.34 3.54-9.42zm-380.66 3.498c.531-21.06 14.33-30.262 19.109-25.66 4.781 4.601 3.012 14.511-6.01 20.705-9.028 6.193-13.099 4.955-13.099 4.955zm179.62-81.582s12.57-32.739 15.57-16.812c3.01 15.928-26.361 63.354-26.361 63.354.352-10.618 10.791-46.542 10.791-46.542zm15.04 91.138c-8.309 21.767-28.488 12.919-28.488 12.919s-2.301-7.787 4.25-29.555c6.549-21.766 21.939-13.271 21.939-13.271s10.619 8.14 2.299 29.907zm55.75-9.556s-1.949-6.902 5.311-20.174c7.25-13.273 12.92-6.018 12.92-6.018s6.189 6.725-.889 16.812c-7.08 10.087-17.342 9.38-17.342 9.38z" fill="#555d60" fill-rule="evenodd"/><g fill="#8e9ba0"><path d="m434.611 160.13c-5.129 0-9.629-.941-13.51-2.824-3.869-1.881-7.119-4.4-9.74-7.557-2.619-3.156-4.59-6.811-5.93-10.963s-2.01-8.471-2.01-12.955c0-3.209.561-7.059 1.67-11.543 1.109-4.485 2.32-8.401 3.631-11.75 1.309-3.352 2.92-6.547 4.85-9.594 1.92-3.043 4.139-5.717 6.67-8.013 2.539-2.298 5.359-4.125 8.48-5.481 3.119-1.357 6.539-2.035 10.27-2.035 3.35 0 6.459.484 9.32 1.451 2.859.971 5.299 2.315 7.33 4.029 2.029 1.719 3.629 3.752 4.77 6.104 1.15 2.354 1.73 4.889 1.73 7.6 0 1.883-.271 3.737-.811 5.564-.541 1.826-1.59 3.973-3.15 6.435-1.561 2.466-3.07 4.142-4.539 5.026-1.461.886-3.131 1.328-4.98 1.328-2.801 0-4.609-.691-5.43-2.076-1.34-2.159-1.76-4.069-1.271-5.73.172-.884.66-2.933 1.49-6.145.111-.442.141-1.439.08-2.99 0-1.329-.129-2.436-.41-3.322-.27-.884-.879-1.328-1.818-1.328-2.262 0-4.191.541-5.791 1.617-1.6 1.083-2.959 2.492-4.09 4.238-1.131 1.742-2.24 4.206-3.35 7.389-1.1 3.186-1.891 5.856-2.35 8.016-.471 2.158-.762 4.222-.871 6.188-.109 1.965-.17 3.612-.17 4.939 0 1.994.18 4.07.541 6.229.359 2.159 1.08 4.14 2.148 5.938 1.07 1.799 2.461 3.293 4.17 4.484 1.711 1.19 3.92 1.785 6.621 1.785 2.66 0 5.59-.816 8.799-2.449 3.211-1.634 6.441-3.697 9.682-6.188 3.24-2.492 6.318-5.232 9.26-8.223 2.93-2.988 5.449-5.812 7.559-8.469l5.73 9.633c-4.16 5.926-8.639 11.211-13.459 15.861-2.051 1.993-4.281 3.932-6.68 5.812-2.41 1.884-4.932 3.559-7.561 5.027-2.631 1.465-5.371 2.656-8.221 3.567-2.848.919-5.739 1.375-8.659 1.375z"/><path d="m494.412 94.298c2.5-4.467 5.15-9.492 7.959-15.074 2.801-5.583 5.451-11.332 7.951-17.253 2.5-5.917 4.67-11.821 6.5-17.713 1.83-5.888 3-11.374 3.5-16.456 0-1.618-.041-3-.121-4.145s-.33-1.717-.74-1.717c-1.529 0-3.17 1.053-4.92 3.155-1.76 2.103-3.52 4.948-5.279 8.538-1.75 3.59-3.85 9.427-6.289 17.516-2.441 8.084-3.66 12.129-3.66 12.131 0 0-.75 3.754-2.24 11.258-1.491 7.5-2.372 14.088-2.661 19.76zm-.08 65.832c-2.98 0-5.75-1.294-8.311-3.883-2.57-2.59-4.799-6.062-6.709-10.424-1.9-4.357-3.391-9.414-4.461-15.162-1.08-5.748-1.619-11.784-1.619-18.106 0-5.433.799-12.685 2.4-21.756 1.6-9.071 2.389-13.606 2.389-13.606s1.211-4.527 3.631-13.59c2.42-9.06 4.84-16.328 7.279-21.801 2.43-5.471 5.07-10.584 7.92-15.34 2.859-4.755 5.85-8.899 8.98-12.433 3.129-3.53 6.4-6.31 9.811-8.326 3.41-2.021 6.879-3.03 10.41-3.03 2.559 0 4.68.49 6.34 1.469 1.67.978 2.979 2.27 3.939 3.877.949 1.604 1.619 3.423 2.01 5.453.391 2.033.58 4.104.58 6.21 0 5.235-.619 10.565-1.85 15.993-1.24 5.428-2.91 10.885-5.01 16.367-2.102 5.484-4.541 10.982-7.301 16.492-2.76 5.514-5.641 10.983-8.629 16.412-2.99 5.426-6 10.773-9.021 16.033-3.029 5.26-5.809 10.404-8.369 15.428-.281.56-.57 1.285-.881 2.178-.299.895-.59 1.855-.869 2.89-.281 1.035-.551 2.136-.83 3.31-.281 1.172-.5 2.316-.67 3.432v1.173c0 1.452.15 2.86.459 4.229.301 1.367.68 2.597 1.121 3.685.449 1.09.92 1.955 1.42 2.599.5.639.969.961 1.41.961 1.08 0 2.32-.223 3.699-.67 1.391-.447 2.871-1.047 4.43-1.8 1.551-.753 3.16-1.618 4.801-2.596s3.23-1.97 4.76-2.974c3.57-2.345 16.58-11.873 20.5-14.943l4.801 19.889c-5.08 3.37-16.83 10.807-21.791 13.438-2.17 1.105-4.41 2.197-6.719 3.275-2.301 1.08-4.631 2.043-6.971 2.883-2.33.844-4.609 1.517-6.84 2.015-2.219.499-4.3.749-6.239.749z"/><path d="m595.092 127.983c-.33-.688-.77-1.291-1.32-1.818-.549-.524-1.18-.953-1.869-1.283-.691-.329-1.381-.551-2.08-.66-.689-.111-1.35-.095-1.961.047-.619.145-1.08.467-1.52.848-.881.77-1.76 1.608-2.65 2.432-1.48 1.242-2.039 1.822-3.83 3.41-2.379 2.105-4.82 4.139-7.309 6.104-2.49 1.964-4.961 3.642-7.391 5.023-2.439 1.385-4.65 2.075-6.65 2.075-1.709 0-2.85-.733-3.4-2.198-.559-1.466-.83-3.445-.83-5.937 0-2.545.4-5.373 1.191-8.486.799-3.113 1.459-6.248 1.979-9.403.531-3.155 1.5-6.968 2.932-11.438 1.42-4.473 2.5-8.129 3.229-10.974.721-2.845 1.371-5.379 1.941-7.606.568-2.223.85-3.942.85-5.162 0-1.438-.41-2.588-1.221-3.447-.82-.857-2.369-1.286-4.65-1.286-1.25 0-2.648.156-4.199.461-1.551.312-3.051.785-4.49 1.429-1.439.646-2.73 1.471-3.881 2.478-1.25 1.12-2.01 2.379-2.279 3.776-.49 1.996-1.789 6.301-3.891 12.914-2.27 8.113-3.779 13.351-4.529 15.717-.459 1.187-1.48 6.59-3.08 16.209-.779 4.652-1.16 8.721-1.16 12.209 0 2.49.26 4.775.791 6.85.52 2.079 1.389 3.836 2.609 5.275 1.221 1.441 2.811 2.561 4.779 3.361 1.961.803 4.391 1.205 7.271 1.205 3.199 0 6.6-.58 10.17-1.744 3.568-1.162 7.068-2.617 10.5-4.357 3.439-1.747 6.629-3.655 9.6-5.732 2.59-1.816 4.74-3.521 6.59-5.148 2.24-1.59 4.449-3.746 7.4-7.064.969-1.086 1.719-2.061 2.15-3.021.439-.963.658-1.873.68-2.734.018-.866-.142-1.639-.472-2.325z"/><path d="m563.332 68.009c2.82 0 5.25-.432 7.27-1.299 2.02-.866 3.689-1.999 5.02-3.395 1.33-1.398 2.301-2.99 2.91-4.779.611-1.787.91-3.633.91-5.532 0-2.068-.369-3.854-1.119-5.366-.75-1.508-1.76-2.725-3.031-3.646-1.279-.92-2.77-1.604-4.488-2.055-1.711-.443-3.541-.669-5.48-.669-3.1 0-5.68.49-7.76 1.468-2.08.979-3.74 2.182-4.99 3.604-1.24 1.425-2.141 2.949-2.689 4.57-.561 1.621-.83 3.072-.83 4.358 0 3.854 1.158 6.944 3.479 9.261 2.327 2.32 5.927 3.48 10.798 3.48z"/></g></svg>