<?xml version="1.0" encoding="utf-8"?>
<!-- Generator: Adobe Illustrator 16.0.0, SVG Export Plug-In . SVG Version: 6.00 Build 0)  -->
<!DOCTYPE svg PUBLIC "-//W3C//DTD SVG 1.1//EN" "http://www.w3.org/Graphics/SVG/1.1/DTD/svg11.dtd">
<svg version="1.1" id="Layer_1" xmlns="http://www.w3.org/2000/svg" xmlns:xlink="http://www.w3.org/1999/xlink" x="0px" y="0px"
	 width="579.812px" height="130.257px" viewBox="0 0 579.812 130.257" enable-background="new 0 0 579.812 130.257"
	 xml:space="preserve">
<path fill-rule="evenodd" clip-rule="evenodd" fill="#555D60" d="M341.702,94.365c-0.57-5.737-5.74-3.604-5.74-3.604
	s-8.32,6.451-15.631,5.734c-7.318-0.719-5.02-17.078-5.02-17.078s1.57-14.992-2.73-16.25c-4.299-1.256-9.609,3.908-9.609,3.908
	s-6.6,7.316-9.76,16.641l-0.859,0.287c0,0,1.01-16.354-0.141-20.084c-0.859-1.865-8.75-1.721-10.041,1.578
	c-1.289,3.299-7.6,26.252-8.039,35.863c0,0-12.33,10.471-23.09,12.193c-10.76,1.721-13.34-5.021-13.34-5.021
	s29.26-8.177,28.26-31.559c-1.01-23.383-23.6-14.735-26.16-12.813c-2.471,1.859-15.68,9.823-19.529,31.88
	c-0.131,0.752-0.361,4.028-0.361,4.028s-11.33,7.603-17.639,9.612c0,0,17.639-29.695-3.881-43.18c-9.75-5.881-17.5,6.455-17.5,6.455
	s29.119-32.419,22.67-59.818c-3.08-13.048-9.6-14.448-15.59-12.336c-9.09,3.586-12.529,8.893-12.529,8.893
	s-11.762,17.07-14.49,42.462c-2.721,25.392-6.74,56.089-6.74,56.089s-5.59,5.451-10.76,5.738c-5.16,0.287-2.871-15.35-2.871-15.35
	s4.021-23.812,3.73-27.828c-0.279-4.018-0.57-6.17-5.311-7.604c-4.729-1.435-9.889,4.59-9.889,4.59s-13.631,20.657-14.781,23.813
	l-0.719,1.291l-0.711-0.861c0,0,9.611-28.116,0.43-28.546c-9.18-0.432-15.209,10.041-15.209,10.041s-10.471,17.501-10.9,19.51
	l-0.721-0.861c0,0,4.311-20.369,3.441-25.391c-0.861-5.021-5.59-4.017-5.59-4.017s-6.021-0.718-7.602,3.155
	s-7.318,29.552-8.039,37.729c0,0-15.061,10.76-24.961,10.902c-9.889,0.143-8.889-6.277-8.889-6.277s36.289-12.423,26.389-36.953
	c-4.439-6.312-9.609-8.297-16.92-8.154c-7.318,0.144-16.4,4.608-22.279,17.806c-2.811,6.295-3.83,12.269-4.4,16.79
	c0,0-6.359,1.296-9.799-1.573c-3.441-2.869-5.221,0-5.221,0s-5.91,7.534-0.02,9.83c5.879,2.295,15.059,3.368,15.059,3.368h-0.01
	c0.85,4.016,3.301,10.839,10.461,16.279c10.76,8.176,31.41-0.752,31.41-0.752l8.469-4.752c0,0,0.281,7.764,6.451,8.899
	c6.17,1.131,8.75-0.017,19.51-26.125c6.311-13.341,6.74-12.629,6.74-12.629l0.719-0.144c0,0-4.879,25.535-3.01,32.42
	c1.861,6.885,10.041,6.168,10.041,6.168s4.449,0.86,8.029-11.762c3.59-12.625,10.471-26.539,10.471-26.539h0.869
	c0,0-3.02,26.107,1.57,34.428s16.5,2.801,16.5,2.801s8.32-4.201,9.609-5.492c0,0,9.881,8.406,23.811,6.88
	c31.131-6.128,42.211-14.401,42.211-14.401s5.35,13.553,21.92,14.81c18.93,1.435,29.26-10.478,29.26-10.478
	s-0.141,7.746,6.459,10.471c6.59,2.726,11.041-12.588,11.041-12.588l11.049-30.446h1c0,0,0.58,19.796,11.48,22.952
	s25.1-7.391,25.1-7.391S342.272,100.104,341.702,94.365L341.702,94.365z M33.142,97.199c0.43-17.069,11.619-24.53,15.49-20.8
	c3.869,3.73,2.439,11.764-4.881,16.783C36.443,98.204,33.142,97.199,33.142,97.199L33.142,97.199z M178.742,31.069
	c0,0,10.189-26.539,12.621-13.628c2.439,12.911-21.371,51.354-21.371,51.354C170.283,60.189,178.742,31.069,178.742,31.069
	L178.742,31.069z M190.933,104.946c-6.74,17.645-23.092,10.473-23.092,10.473s-1.869-6.312,3.441-23.957
	c5.309-17.645,17.789-10.758,17.789-10.758S197.683,87.302,190.933,104.946L190.933,104.946z M236.123,97.199
	c0,0-1.58-5.594,4.299-16.353c5.891-10.76,10.48-4.877,10.48-4.877s5.02,5.451-0.719,13.627
	C244.443,97.773,236.123,97.199,236.123,97.199L236.123,97.199z"/>
<path fill="#8E9BA0" d="M392.712,30.229c0.279-3.143,0.42-5.635,0.42-7.477c0-2.424-0.221-4.107-0.66-5.051
	c-0.43-0.941-1.061-1.414-1.881-1.414c-1.459,0-2.779,0.908-3.969,2.727c-1.191,1.816-2.141,4.161-2.861,7.029
	c-0.719,2.869-1.5,5.989-2.35,9.358s-1.469,6.669-1.859,9.897c-0.391,3.23-0.699,6.142-0.939,8.734c-0.24,2.59-0.4,4.432-0.5,5.525
	c-0.191,2.23-0.352,4.379-0.471,6.447c-0.129,2.069-0.211,3.957-0.26,5.662c-0.051,1.707-0.08,3.196-0.08,4.469
	c0,1.275,0,2.252,0,2.934v0.684c2.5-5.98,4.801-11.934,6.9-17.869c0.879-2.528,1.75-5.168,2.6-7.91
	c0.859-2.747,1.699-5.473,2.541-8.174c0.85-2.703,1.559-5.379,2.139-8.027C392.062,35.124,392.472,32.609,392.712,30.229
	L392.712,30.229z M360.952,76.157c-2.961,1.446-5.6,3.361-7.91,5.736s-4.24,5.506-5.791,9.4c-1.549,3.891-2.729,7.24-3.539,10.045
	c-0.801,2.805-1.211,5.338-1.211,7.603c0,0.703,0.102,1.403,0.301,2.106c0.211,0.701,0.57,1.334,1.109,1.897
	c0.541,0.56,1.311,1.019,2.291,1.368c0.99,0.354,2.27,0.527,3.84,0.527c0.811,0,1.609-0.178,2.389-0.539
	c0.791-0.354,1.541-0.823,2.262-1.399c0.719-0.576,1.398-1.235,2.049-1.972c0.65-0.734,1.25-1.502,1.791-2.299
	c1.26-1.832,2.398-3.899,3.439-6.207c-0.141-0.633-0.25-1.64-0.34-3.021c-0.1-1.378-0.17-3.484-0.211-6.311
	c-0.049-2.828-0.09-5.149-0.129-6.959c-0.051-1.81-0.08-3.459-0.109-4.955c-0.021-1.493-0.061-2.713-0.102-3.664
	C361.032,76.564,360.991,76.111,360.952,76.157L360.952,76.157z M407.612,115.913c-3.191,2.619-6.33,4.957-9.432,7.006
	c-1.299,0.856-2.658,1.705-4.1,2.539c-1.439,0.832-2.85,1.573-4.25,2.217c-1.379,0.644-2.738,1.166-4.049,1.572
	c-1.311,0.404-2.521,0.606-3.6,0.606c-0.65,0-1.602-0.144-2.871-0.429c-1.26-0.289-2.641-0.869-4.131-1.752
	c-1.5-0.881-2.988-2.158-4.479-3.824c-1.5-1.67-2.791-3.887-3.891-6.648c-1.67,1.715-3.43,3.348-5.301,4.895
	c-1.869,1.549-3.809,2.896-5.809,4.037c-2.01,1.145-4.031,2.062-6.08,2.752c-2.041,0.691-4.111,1.037-6.18,1.037
	c-2.91,0-5.441-0.606-7.57-1.82c-2.131-1.215-3.9-2.828-5.32-4.846c-1.41-2.014-2.471-4.299-3.16-6.857
	c-0.699-2.555-1.049-5.202-1.049-7.934c0-2.912,0.369-5.861,1.119-8.848c0.74-2.98,1.811-5.875,3.23-8.676
	c1.41-2.801,2.979-5.727,4.709-8.781c1.73-3.051,4.02-5.83,6.871-8.336c2.84-2.505,5.77-4.395,8.779-5.671
	c3-1.274,6.211-2.071,9.629-2.392c0.131-5.83,0.75-10.967,1.852-15.41c1.1-4.441,2.289-9.221,3.57-14.34
	c1.27-5.117,2.898-9.83,4.908-14.139c2.012-4.309,4.211-8.032,6.611-11.174c2.389-3.141,4.939-5.598,7.65-7.369
	c2.709-1.771,5.5-2.659,8.389-2.659c2.111,0,3.91,0.551,5.391,1.651c1.48,1.102,2.68,2.562,3.6,4.385
	c0.92,1.821,1.58,3.934,1.98,6.338c0.41,2.406,0.609,4.891,0.609,7.453c0,1.599-0.01,3.244-0.039,4.934
	c-0.131,6.443-1.131,12.441-2.98,17.992c-1.859,5.549-3.699,11.037-5.52,16.459c-1.82,5.424-4.01,10.791-6.57,16.098
	c-3.92,8.124-6.42,13.639-7.5,16.542c-0.23,0.635-0.461,1.407-0.701,2.315c-0.229,0.908-0.449,1.894-0.658,2.959
	c-0.211,1.066-0.391,2.157-0.531,3.27c-0.139,1.111-0.209,2.189-0.209,3.23c0,1.317,0.08,2.566,0.24,3.746
	c0.148,1.18,0.398,2.235,0.75,3.164c0.35,0.932,0.818,1.67,1.41,2.213c0.59,0.545,1.318,0.816,2.189,0.816
	c0.859,0,1.789-0.17,2.799-0.51c1.012-0.338,2.08-0.801,3.201-1.391c1.119-0.588,2.25-1.256,3.389-2.002
	c1.15-0.748,2.262-1.504,3.342-2.275c2.459-1.809,5.039-3.869,7.738-6.176L407.612,115.913L407.612,115.913z"/>
<path fill="#8E9BA0" d="M416.751,107.964c0,1.158,0.08,2.28,0.24,3.369c0.15,1.088,0.43,2.059,0.84,2.916
	c0.4,0.856,0.941,1.551,1.621,2.084c0.67,0.53,1.529,0.797,2.559,0.797c1.66,0,3.17-0.722,4.521-2.168
	c1.35-1.445,2.52-3.186,3.5-5.219c0.99-2.033,1.789-4.136,2.4-6.303c0.609-2.168,0.998-3.977,1.18-5.424l5.02-21.883
	c-1.84,0-3.641,0.457-5.391,1.367c-1.75,0.914-3.398,2.146-4.939,3.705c-1.551,1.557-2.98,3.336-4.279,5.338
	c-1.301,2.002-2.58,4.473-3.842,7.407c-1.248,2.937-2.139,5.517-2.648,7.741C417.011,103.917,416.751,106.009,416.751,107.964
	L416.751,107.964z M474.501,113.239c-1.029,1.451-2.41,3.152-4.139,5.105c-1.73,1.951-3.66,3.812-5.82,5.582
	c-2.15,1.769-4.471,3.269-6.93,4.494c-2.471,1.225-4.941,1.836-7.41,1.836c-2.98,0-5.471-0.942-7.461-2.832
	c-1.99-1.889-3.709-4.629-5.15-8.229c-1.09,1.244-2.42,2.509-4.01,3.797c-1.58,1.289-3.309,2.455-5.189,3.5
	c-1.881,1.042-3.83,1.897-5.869,2.563c-2.031,0.668-4.07,1-6.111,1c-2.148,0-4.25-0.442-6.289-1.325
	c-2.041-0.884-3.85-2.149-5.42-3.802c-1.57-1.654-2.83-3.668-3.77-6.045c-0.941-2.379-1.41-5.061-1.41-8.049
	c0-3.353,0.469-6.797,1.42-10.33c0.949-3.533,2.41-7.354,4.398-11.471c1.99-4.115,4.121-7.669,6.4-10.666
	c2.281-2.994,4.771-5.611,7.48-7.847c2.711-2.237,5.57-4.015,8.57-5.334s6.061-1.979,9.18-1.979c1.029,0,1.85,0.205,2.439,0.611
	c0.58,0.409,1.07,0.875,1.451,1.395c0.379,0.522,0.76,1.035,1.119,1.533c0.359,0.497,0.811,0.861,1.35,1.088
	c0.541,0.226,1.102,0.373,1.66,0.441c0.57,0.066,1.141,0.102,1.73,0.102c0.49,0,1-0.011,1.52-0.035
	c0.521-0.021,1.031-0.031,1.531-0.031c0.67,0,1.309,0.066,1.889,0.201c0.59,0.138,1.111,0.431,1.561,0.886
	c0.449,0.456,0.801,1.088,1.039,1.903c0.25,0.816,0.371,1.929,0.371,3.334c0,2.146-0.221,4.527-0.67,7.142
	c-0.451,2.614-0.961,5.294-1.541,8.038s-1.238,5.87-1.979,9.384c-0.74,3.511-1.111,6.47-1.111,8.878c0,2.057,0.191,3.664,0.57,4.822
	c0.381,1.161,1.201,1.74,2.461,1.74c0.939,0,1.92-0.234,2.959-0.7c1.031-0.47,2.07-1.08,3.131-1.834
	c1.049-0.757,2.109-1.613,3.16-2.572c1.059-0.956,2.059-1.946,3-2.97c2.199-2.402,4.42-5.116,6.66-8.141L474.501,113.239
	L474.501,113.239z"/>
<path fill="#8E9BA0" d="M510.052,115.581c-1.609,1.481-3.621,3.062-6.02,4.747c-2.4,1.681-4.99,3.232-7.781,4.644
	c-2.779,1.416-5.619,2.593-8.51,3.535c-2.9,0.942-5.65,1.414-8.25,1.414c-2.33,0-4.299-0.326-5.889-0.976
	c-1.59-0.651-2.881-1.56-3.871-2.728c-0.99-1.166-1.689-2.594-2.119-4.273c-0.432-1.686-0.641-3.535-0.641-5.555
	c0-2.827,0.311-6.127,0.939-9.896c1.301-7.798,2.131-12.176,2.5-13.14c0.611-1.917,8.49-43.576,10.33-50.152
	c1.701-5.36,2.75-8.848,3.15-10.467c0.221-1.133,0.84-2.153,1.85-3.063c0.93-0.816,1.98-1.486,3.15-2.006
	c1.17-0.523,2.381-0.908,3.641-1.158c1.25-0.25,2.389-0.375,3.398-0.375c1.852,0,3.111,0.348,3.771,1.045
	c0.66,0.695,0.99,1.627,0.99,2.793c0,0.988-0.23,2.383-0.691,4.185c-0.459,1.804-0.988,3.858-1.568,6.163
	c-0.592,2.309-1.471,5.271-2.621,8.896c-1.16,3.625-8.609,44.129-9.029,46.684c-0.43,2.559-0.961,5.1-1.611,7.624
	c-0.639,2.522-0.969,4.817-0.969,6.879c0,2.021,0.229,3.622,0.68,4.812c0.439,1.188,1.359,1.783,2.76,1.783
	c1.609,0,3.41-0.56,5.381-1.683c1.979-1.12,3.969-2.479,5.99-4.074c2.02-1.592,3.998-3.239,5.93-4.946
	c1.93-1.705,3.629-3.164,5.109-4.375V115.581L510.052,115.581z"/>
<path fill="#8E9BA0" d="M522.062,107.964c0,1.158,0.08,2.28,0.23,3.369c0.16,1.088,0.439,2.059,0.85,2.916
	c0.4,0.856,0.939,1.551,1.619,2.084c0.672,0.53,1.521,0.797,2.561,0.797c1.66,0,3.17-0.722,4.521-2.168
	c1.338-1.445,2.51-3.186,3.498-5.219c0.99-2.033,1.791-4.136,2.391-6.303c0.609-2.168,1.01-3.977,1.189-5.424l5.021-21.883
	c-1.852,0-3.641,0.457-5.391,1.367c-1.75,0.914-3.4,2.146-4.949,3.705c-1.551,1.557-2.971,3.336-4.271,5.338
	c-1.309,2.002-2.58,4.473-3.84,7.407c-1.26,2.937-2.139,5.517-2.66,7.741C522.321,103.917,522.062,106.009,522.062,107.964
	L522.062,107.964z M579.812,113.239c-1.029,1.451-2.41,3.152-4.141,5.105c-1.729,1.951-3.67,3.812-5.818,5.582
	c-2.16,1.769-4.471,3.269-6.941,4.494c-2.459,1.225-4.93,1.836-7.398,1.836c-2.98,0-5.471-0.942-7.461-2.832
	c-1.99-1.889-3.711-4.629-5.16-8.229c-1.08,1.244-2.42,2.509-4,3.797c-1.59,1.289-3.311,2.455-5.189,3.5
	c-1.881,1.042-3.84,1.897-5.871,2.563c-2.039,0.668-4.068,1-6.109,1c-2.15,0-4.25-0.442-6.291-1.325
	c-2.049-0.884-3.85-2.149-5.42-3.802c-1.568-1.654-2.83-3.668-3.77-6.045c-0.939-2.379-1.42-5.061-1.42-8.049
	c0-3.353,0.48-6.797,1.43-10.33c0.941-3.533,2.41-7.354,4.4-11.471c1.98-4.115,4.121-7.669,6.4-10.666
	c2.279-2.994,4.77-5.611,7.48-7.847c2.709-2.237,5.57-4.015,8.57-5.334s6.059-1.979,9.17-1.979c1.039,0,1.85,0.205,2.439,0.611
	c0.59,0.409,1.07,0.875,1.459,1.395c0.381,0.522,0.75,1.035,1.111,1.533c0.359,0.497,0.82,0.861,1.359,1.088
	c0.539,0.226,1.09,0.373,1.66,0.441c0.561,0.066,1.141,0.102,1.73,0.102c0.49,0,1-0.011,1.52-0.035
	c0.52-0.021,1.029-0.031,1.52-0.031c0.68,0,1.311,0.066,1.9,0.201c0.59,0.138,1.1,0.431,1.561,0.886
	c0.449,0.456,0.789,1.088,1.039,1.903c0.25,0.816,0.371,1.929,0.371,3.334c0,2.146-0.221,4.527-0.67,7.142
	c-0.451,2.614-0.971,5.294-1.541,8.038c-0.59,2.744-1.25,5.87-1.99,9.384c-0.74,3.511-1.109,6.47-1.109,8.878
	c0,2.057,0.189,3.664,0.58,4.822c0.379,1.161,1.199,1.74,2.449,1.74c0.951,0,1.932-0.234,2.971-0.7
	c1.029-0.47,2.07-1.08,3.119-1.834c1.061-0.757,2.111-1.613,3.17-2.572c1.051-0.956,2.051-1.946,3-2.97
	c2.191-2.402,4.41-5.116,6.66-8.141L579.812,113.239L579.812,113.239z"/>
<path fill="#8E9BA0" d="M500.562,57.561c0.35-0.167,0.949-0.226,1.791-0.179c0.85,0.051,1.818,0.064,2.92,0.047
	c1.09-0.021,2.279-0.043,3.559-0.072c1.281-0.027,2.521-0.047,3.721-0.064c1.199-0.014,2.311-0.023,3.35-0.033
	c1.041-0.006,1.9-0.002,2.58,0.006c0.801,0.011,1.41,0.482,1.811,1.416c0.41,0.935,0.65,2.129,0.719,3.582
	c0.092,1.681-0.238,3.072-0.988,4.168c-0.75,1.099-1.602,1.67-2.551,1.718l-23,1.153l-19.949-1.164
	c-1.221-0.141-2.16-0.281-2.842-0.424c-0.67-0.142-1.379-0.283-2.129-0.42c-0.75-0.139-1.699-0.279-2.859-0.422
	c-1.15-0.143-2.82-0.311-5-0.503c-0.971-0.102-1.73-0.352-2.281-0.753c-0.539-0.398-0.939-0.88-1.219-1.445
	c-0.26-0.562-0.441-1.156-0.512-1.783c-0.068-0.625-0.119-1.161-0.139-1.612c-0.031-0.71,0.33-1.272,1.09-1.685
	c0.77-0.414,1.75-0.742,2.971-0.992c1.209-0.247,2.549-0.42,4.01-0.518c1.459-0.095,2.869-0.152,4.209-0.176
	c1.35-0.021,2.551-0.049,3.621-0.081c1.059-0.028,1.789-0.099,2.189-0.21L500.562,57.561L500.562,57.561z"/>
</svg>
