<svg height="100" viewBox="0 0 259 100" width="259" xmlns="http://www.w3.org/2000/svg"><g fill="#e04e39" fill-rule="evenodd" transform="translate(.041404)"><path d="m253.776 68.6144704s-6.28 4.872-11.808 4.328-3.792-12.896-3.792-12.896 1.192-11.328-2.064-12.28c-3.248-.944-7.256 2.952-7.256 2.952s-4.984 5.528-7.368 12.576l-.656.216s.76-12.36-.104-15.176c-.648-1.408-6.608-1.296-7.584 1.192-.976 2.496-5.744 19.832-6.072 27.096 0 0-9.32 7.912-17.44 9.208-8.128 1.304-10.08-3.792-10.08-3.792s22.104-6.176 21.344-23.84c-.752-17.664-17.824-11.128-19.752-9.68-1.872 1.408-11.848 7.424-14.76 24.088-.096.56-.272 3.04-.272 3.04s-8.56 5.736-13.328 7.256c0 0 13.328-22.432-2.92-32.616-4.569753-2.7507736-8.553008-.2199876-10.922459 2.1038863-1.45506 1.427071 19.698459-21.7118863 14.818459-42.41588629-2.32-9.856-7.248-10.912-11.768-9.312-6.864 2.704-9.464 6.712-9.464 6.712s-8.888 12.89599999-10.952 32.07999999c-2.056 19.176-5.088 42.368-5.088 42.368s-4.232 4.12-8.128 4.336c-3.904.208-2.168-11.6-2.168-11.6s3.032-17.984 2.824-21.024c-.224-3.032-.44-4.656-4.016-5.736-3.576-1.088-7.4799995 3.464-7.4799995 3.464s-10.288 15.6-11.152 17.984l-.552.984-.536-.656s7.256-21.24.328-21.56c-6.936-.328-11.488 7.584-11.488 7.584s-7.912 13.224-8.24 14.736l-.536-.648s3.248-15.384 2.6-19.184c-.656-3.792-4.224-3.032-4.224-3.032s-4.552-.544-5.744 2.384-5.528 22.32-6.072 28.496c0 0-11.376 8.128-18.856 8.232-7.472.112-6.712-4.736-6.712-4.736s27.416-9.384 19.936-27.912c-3.36-4.768-7.256-6.264-12.784-6.16-5.528.112-12.384 3.48-16.824 13.448-2.128 4.752-2.896 9.272-3.336 12.68 0 0-4.79200002.984-7.39200002-1.184-2.608-2.168-3.944 0-3.944 0s-4.464 5.696-.024 7.424c4.448 1.736 11.37600002 2.544 11.37600002 2.544.64 3.032 2.488 8.192 7.904 12.296 8.128 6.1759996 23.72-.568 23.72-.568l6.392-3.584s.216 5.864 4.88 6.72c4.656.856 6.608-.016 14.736-19.736 4.768-10.08 5.096-9.536 5.096-9.536.536-.112-3.144 19.176-1.736 24.376 1.408 5.208 7.584 4.664 7.584 4.664s3.36.648 6.072-8.888c2.704-9.536 7.912-20.048 7.912-20.048.64 0-1.632 19.72 1.832 26.008 3.4719995 6.2879996 12.4639995 2.112 12.4639995 2.112s6.288-3.168 7.264-4.144c0 0 7.456 6.352 17.976 5.2 23.52-4.632 31.888-10.888 31.888-10.888s4.04 10.24 16.56 11.192c14.296 1.08 22.104-7.912 22.104-7.912s-.112 5.848 4.872 7.912c4.992 2.056 8.344-9.52 8.344-9.52l8.344-22.992c.76 0 1.192 14.952 9.432 17.336 8.232 2.384 18.96-5.584 18.96-5.584s2.6-1.432 2.168-5.768c-.44-4.336-4.336-2.72-4.336-2.72zm-217.0399995-10.848c2.92 2.816 1.84 8.88-3.688 12.672-5.52 3.8-8.016 3.04-8.016 3.04.328-12.896 8.784-18.536 11.704-15.712zm107.8159995-44.536c1.84 9.752-16.144 38.792-16.144 38.792.216-6.504 6.608-28.496 6.608-28.496s7.688-20.04799999 9.536-10.296zm-17.776 74.008s-1.408-4.768 2.6-18.096c4.016-13.328 13.44-8.128 13.44-8.128s6.504 4.984 1.408 18.312c-5.088 13.328-17.448 7.912-17.448 7.912zm54.832-26.112c4.44-8.128 7.912-3.688 7.912-3.688s3.792 4.12-.544 10.296-10.616 5.744-10.616 5.744-1.192-4.232 3.248-12.352z"/><path d="m225.958879 94.0133376v-1.5560619h.986947c.136876 0 .273752.0144079.417831.0288159.14408.021612.280956.0576319.39622.1080599.122468.0504279.21612.1224678.288159.2161197.079244.0936519.115264.2233237.115264.3818115 0 .3601995-.10806.5907272-.324179.6843791-.21612.0936519-.497076.1368758-.835663.1368758zm-1.17425-2.4709687v5.9216802h1.17425v-2.5286007h.734807l1.440798 2.5286007h1.231883l-1.584878-2.5862326c.21612-.021612.417831-.0648359.612339-.1296719.187304-.0648359.352996-.1584877.489871-.2809556.14408-.1224678.25214-.2809556.331384-.4754634.086448-.1945077.122468-.4250354.122468-.698787 0-.6411552-.201712-1.0950066-.597931-1.3543503-.403424-.2665476-.979743-.3962194-1.721754-.3962194zm-1.880242 2.9680441c0-.6051352.100856-1.1598425.309772-1.6641219.208916-.5042793.489871-.9365187.850071-1.3039222.352995-.3674036.778031-.6555632 1.260698-.8644789.489871-.2089157 1.008559-.3097716 1.563266-.3097716.547503 0 1.066191.1008559 1.548858.3097716.489871.2089157.907703.4970753 1.267902.8644789.3602.3674035.641155.7996429.857275 1.3039222.208916.5042794.316976 1.0589867.316976 1.6641219s-.10806 1.1598424-.316976 1.6713258c-.21612.5042793-.497075.9509267-.857275 1.3183302-.360199.3746075-.778031.6627672-1.267902.8716829-.482667.2089157-1.001355.3097716-1.548858.3097716-.554707 0-1.073395-.1008559-1.563266-.3097716-.482667-.2089157-.907703-.4970754-1.260698-.8716829-.3602-.3674035-.641155-.8140509-.850071-1.3183302-.208916-.5114834-.309772-1.0661906-.309772-1.6713258zm-1.448002 0c0 .8140509.151284 1.5416539.446648 2.1900131.302567.6555631.698787 1.2102704 1.195862 1.6713258.504279.4610554 1.080599.8140509 1.736162 1.0589866s1.339942.3674035 2.053137.3674035c.720399 0 1.404778-.1224678 2.060341-.3674035s1.231883-.5979312 1.736162-1.0589866c.497075-.4610554.893295-1.0157627 1.195862-1.6713258.295364-.6483592.439444-1.3759622.439444-2.1900131 0-.799643-.14408-1.527246-.439444-2.1756052-.302567-.6555631-.698787-1.2102704-1.195862-1.6641218-.504279-.4610554-1.080599-.8140509-1.736162-1.0589866-.655563-.2521397-1.339942-.3746075-2.060341-.3746075-.713195 0-1.397574.1224678-2.053137.3746075-.655563.2449357-1.231883.5979312-1.736162 1.0589866-.497075.4538514-.893295 1.0085587-1.195862 1.6641218-.295364.6483592-.446648 1.3759622-.446648 2.1756052z"/></g></svg>