<svg height="132" viewBox="0 0 216 132" width="216" xmlns="http://www.w3.org/2000/svg"><g fill="none" fill-rule="evenodd" transform="translate(0 -1)"><path d="m131.076.999-131.076 51.156 5.083 51.824 145.675 28.179 65.224-31.87-12.161-42.68z" fill="#e15d44"/><g fill-rule="nonzero"><path d="m159.7715 100.9987h39.744l-39.744 8.754zm-59.9551 0v8.965l-40.701-8.965zm89.1929-27.6498c.283 2.817-1.409 3.781-1.409 3.781s-6.976 5.215-12.328 3.664c-5.355-1.55-5.637-11.215-5.637-11.215h-.495l-5.424 14.892s-2.182 7.459-5.424 6.121c-3.241-1.34-3.171-5.147-3.171-5.147s-5.071 5.84-14.373 5.137c-8.136-.616-10.765-7.286-10.765-7.286s-5.438 4.037-20.731 7.047c-6.841.745-11.691-3.433-11.691-3.433-.635.636-4.721 2.588-4.721 2.588s-5.847 2.502-8.102-1.583c-2.254-4.083-.775-17.336-.775-17.336h-.423s-3.382 7.262-5.144 13.462c-1.76 6.2-3.946 6.197-3.946 6.197s-4.014.35-4.93-3.031c-.916-3.382 1.481-15.926 1.481-15.926l-.354.059s-.211-.368-3.309 6.187c-5.285 12.821-6.553 13.35-9.583 12.794-3.031-.558-3.17-4.443-3.17-4.443l-4.156 2.186s-10.145 4.102-15.427.088c-3.519-2.674-4.723-5.573-5.138-8.573h.002s-4.499.052-7.388-1.076c-2.89-1.129.022-4.256.022-4.256s.888-1.407 2.578 0c1.692 1.407 4.848.773 4.848.773.281-2.221.75-5.152 2.127-8.247 2.889-6.483 7.313-8.673 10.906-8.744 3.592-.07 6.13.904 8.314 4.004 4.861 12.049-12.963 18.148-12.963 18.148s-.494 3.154 4.367 3.084c4.862-.068 12.259-5.355 12.259-5.355.353-4.015 3.171-16.627 3.945-18.527.775-1.904 3.735-1.551 3.735-1.551s2.325-.494 2.747 1.971c.422 2.467-1.69 12.471-1.69 12.471l.351.425c.212-.988 5.355-9.583 5.355-9.583s2.959-5.143 7.469-4.933c4.508.211-.212 14.023-.212 14.023l.352.422.353-.635c.564-1.553 7.256-11.695 7.256-11.695s2.537-2.96 4.861-2.256c2.324.705 2.466 1.761 2.608 3.736.14 1.971-1.832 13.665-1.832 13.665s-1.128 7.68 1.408 7.539c2.537-.138 5.284-2.816 5.284-2.816s1.973-15.078 3.312-27.547c1.339-12.471 7.116-20.855 7.116-20.855s1.689-2.607 6.154-4.37c2.941-1.036 6.147-.346 7.654 6.061 3.171 13.455-11.131 29.378-11.131 29.378s3.804-6.058 8.596-3.169c10.567 6.62 1.902 21.207 1.902 21.207 3.1-.987 8.665-4.721 8.665-4.721s.113-1.61.177-1.979c1.891-10.833 8.379-14.743 9.593-15.658 1.257-.944 12.352-5.191 12.845 6.293s-13.878 15.5-13.878 15.5 1.27 3.313 6.552 2.466c5.283-.844 11.342-5.988 11.342-5.988.211-4.72 3.313-15.993 3.946-17.614.634-1.62 4.509-1.691 4.933-.776.563 1.833.068 9.865.068 9.865l.423-.142c1.552-4.578 4.791-8.17 4.791-8.17s2.607-2.537 4.721-1.921c2.113.619 1.34 7.98 1.34 7.98s-1.126 8.035 2.464 8.388c3.593.351 7.68-2.815 7.68-2.815s2.535-1.051 2.818 1.77zm-72.0054 30.6586c-.108.571-.44.903-.997.995h-1.228c-.588-.06-.919-.386-.996-.973v-.925c-.109-1.16-.742-1.81-1.901-1.948-1.22.138-1.885.788-1.993 1.948v7.437c.108 1.206.773 1.863 1.993 1.972 1.159-.109 1.792-.766 1.901-1.972v-.995c.077-.587.425-.911 1.043-.975h1.136c.586.079.934.403 1.042.975v.995c-.356 3.091-2.063 4.776-5.122 5.053-3.121-.247-4.806-1.932-5.053-5.053v-7.509c.233-3.121 1.917-4.842 5.053-5.168 3.091.326 4.798 2.047 5.122 5.168zm7.3043-6.1424c3.107.309 4.814 2.016 5.123 5.123v7.554c-.324 3.09-2.032 4.775-5.123 5.052-3.089-.293-4.781-1.976-5.075-5.052v-7.554c.263-3.107 1.955-4.814 5.075-5.123zm1.994 12.699v-7.484c-.125-1.206-.788-1.863-1.994-1.971-1.204.124-1.861.781-1.969 1.971v7.484c.108 1.206.765 1.849 1.969 1.927 1.206-.078 1.869-.721 1.994-1.927zm15.607 4.0107c-.015.542-.293.812-.834.812h-.139-.185-.927-.093-.138c-.635.031-1.075-.239-1.323-.812-1.158-2.719-2.301-5.438-3.429-8.158v6.328 1.669c-.062.601-.386.926-.974.973h-1.182c-.556-.047-.865-.341-.927-.881v-15.691-.114c.031-.466.294-.674.788-.627h.324.905.232c.618-.047 1.074.225 1.367.81 1.112 2.768 2.248 5.517 3.406 8.253v-8.089c.063-.572.387-.896.975-.974h1.205c.54.045.864.339.972.881v4.332 7.023c-.014 1.391-.023 2.774-.023 4.149zm11.5351-16.5254c.571.095.903.427.997.998v1.205c-.094.618-.433.943-1.02.973h-5.516c-.309.03-.48.202-.511.51v2.99c.031.309.202.47.511.488h3.5c.57.077.889.393.95.947v1.253c-.061.604-.387.912-.974.928h-3.476c-.309.045-.48.225-.511.533v2.571 3.013c-.045.587-.362.914-.95.975h-1.182c-.555-.03-.865-.317-.926-.859v-3.129-.299-11.033-1.088c.014-.541.285-.868.811-.976z" fill="#fefefe"/><path d="m37.4633 74.7409c.212-8.384 5.707-12.048 7.61-10.215 1.903 1.831 1.197 5.776-2.396 8.242-3.592 2.466-5.214 1.973-5.214 1.973zm71.511-32.48s5.004-13.034 6.201-6.691c1.195 6.339-10.499 25.221-10.499 25.221.141-4.227 4.298-18.53 4.298-18.53zm5.989 36.283c-3.312 8.669-11.343 5.144-11.343 5.144s-.916-3.1 1.691-11.766c2.606-8.664 8.736-5.285 8.736-5.285s4.227 3.243.916 11.907zm22.192-3.803s-.774-2.748 2.114-8.032c2.888-5.285 5.145-2.396 5.145-2.396s2.464 2.678-.353 6.695c-2.819 4.013-6.906 3.733-6.906 3.733z" fill="#e15d44"/></g></g></svg>