<svg version="1.1" xmlns="http://www.w3.org/2000/svg" xmlns:xlink="http://www.w3.org/1999/xlink" width="13" height="14" viewBox="0 0 13 14">
<path d="M5 9.5q0 0.312-0.098 0.641t-0.336 0.594-0.566 0.266-0.566-0.266-0.336-0.594-0.098-0.641 0.098-0.641 0.336-0.594 0.566-0.266 0.566 0.266 0.336 0.594 0.098 0.641zM10 9.5q0 0.312-0.098 0.641t-0.336 0.594-0.566 0.266-0.566-0.266-0.336-0.594-0.098-0.641 0.098-0.641 0.336-0.594 0.566-0.266 0.566 0.266 0.336 0.594 0.098 0.641zM11.25 9.5q0-0.937-0.539-1.594t-1.461-0.656q-0.32 0-1.523 0.164-0.555 0.086-1.227 0.086t-1.227-0.086q-1.187-0.164-1.523-0.164-0.922 0-1.461 0.656t-0.539 1.594q0 0.688 0.25 1.199t0.633 0.805 0.953 0.469 1.094 0.23 1.164 0.055h1.313q0.641 0 1.164-0.055t1.094-0.23 0.953-0.469 0.633-0.805 0.25-1.199zM13 8.125q0 1.617-0.477 2.586-0.297 0.602-0.824 1.039t-1.102 0.672-1.328 0.371-1.34 0.172-1.305 0.035q-0.609 0-1.109-0.023t-1.152-0.098-1.191-0.234-1.070-0.402-0.945-0.633-0.672-0.898q-0.484-0.961-0.484-2.586 0-1.852 1.062-3.094-0.211-0.641-0.211-1.328 0-0.906 0.398-1.703 0.844 0 1.484 0.309t1.477 0.965q1.148-0.273 2.414-0.273 1.156 0 2.187 0.25 0.82-0.641 1.461-0.945t1.477-0.305q0.398 0.797 0.398 1.703 0 0.68-0.211 1.313 1.062 1.25 1.062 3.109z"></path>
</svg>
