<?xml version="1.0" encoding="UTF-8"?>
<svg width="60px" height="52px" viewBox="0 0 60 52" version="1.1" xmlns="http://www.w3.org/2000/svg" xmlns:xlink="http://www.w3.org/1999/xlink">
    <!-- Generator: Sketch 51.3 (57544) - http://www.bohemiancoding.com/sketch -->
    <title>012 - Kraken</title>
    <desc>Created with Sketch.</desc>
    <defs></defs>
    <g id="Page-1" stroke="none" stroke-width="1" fill="none" fill-rule="evenodd" stroke-linecap="round" stroke-linejoin="round">
        <g id="012---Kraken" stroke="#000000" stroke-width="2">
            <path d="M0.994,48.31 C2.21494134,50.1533522 4.3507366,51.1758406 6.55225093,50.9709513 C8.75376525,50.766062 10.6641932,49.367002 11.524,47.33 C11.5957708,47.1322578 11.7836359,47.0005872 11.994,47.0005872 C12.2043641,47.0005872 12.3922292,47.1322578 12.464,47.33 C13.400682,49.5551214 15.5797634,51.002104 17.994,51.002104 C20.4082366,51.002104 22.587318,49.5551214 23.524,47.33 C23.5957708,47.1322578 23.7836359,47.0005872 23.994,47.0005872 C24.2043641,47.0005872 24.3922292,47.1322578 24.464,47.33 C25.400682,49.5551214 27.5797634,51.002104 29.994,51.002104 C32.4082366,51.002104 34.587318,49.5551214 35.524,47.33 C35.5957708,47.1322578 35.7836359,47.0005872 35.994,47.0005872 C36.2043641,47.0005872 36.3922292,47.1322578 36.464,47.33 C37.400682,49.5551214 39.5797634,51.002104 41.994,51.002104 C44.4082366,51.002104 46.587318,49.5551214 47.524,47.33 C47.5957708,47.1322578 47.7836359,47.0005872 47.994,47.0005872 C48.2043641,47.0005872 48.3922292,47.1322578 48.464,47.33 C49.3238068,49.367002 51.2342347,50.766062 53.4357491,50.9709513 C55.6372634,51.1758406 57.7730587,50.1533522 58.994,48.31" id="Shape"></path>
            <path d="M40.144,50.7 C40.8611747,47.2696866 42.1635264,43.988437 43.994,41 C47.994,34 49.994,22 39.994,15 L39.866,14.911 C39.718,14.811 39.566,14.711 39.417,14.611 C35.6886236,12.1717529 31.3762789,10.772856 26.926,10.559 C22.4196558,10.437043 17.9497419,11.3972086 13.891,13.359 C11.068,14.625 7.929,15.359 4.991,14.003 C4.65299303,13.8342811 4.29974431,13.6980041 3.936,13.596 C2.988,13.363 2.736,13.761 3.182,14.596 C3.95728499,15.812304 4.96279628,16.8653732 6.142,17.696 C9.553,20.396 13.66,21.308 17.958,21.272 C20.322,21.253 22.836,21.148 24.872,22.572 C26.7292541,23.7699642 27.8924,25.7922435 27.994,28 C27.994,33 25.994,35 20.994,38 C19.3261474,38.9952166 17.8715769,40.3104474 16.714,41.87 C15.1824443,43.9923408 14.0816977,46.3942787 13.474,48.94" id="Shape"></path>
            <path d="M6.554,50.97 C5.61886354,49.7012427 4.7638665,48.3753293 3.994,47 C3.53310653,46.1886721 3.16799419,45.326564 2.906,44.431 C2.44729939,42.8439952 2.23846538,41.1952525 2.287,39.544 C2.365,36.253 3.403,32.487 6.292,30.566 C7.228,29.943 8.557,29.651 9.092,28.566 C9.38902602,27.7077737 9.5486588,26.8080252 9.565,25.9 C9.593,25.689 9.725,24.586 10.138,25 C11.138,26 13.138,30 11.138,33 C9.138,36 8.994,38 10.994,40 C12.184,41.19 14.794,41.67 16.714,41.87" id="Shape"></path>
            <path d="M47.224,27.58 C53.042,29.727 57.037,35.316 58.994,41" id="Shape"></path>
            <path d="M27.734,30.71 C27.254,30.51 26.674,30.27 25.994,30 C25.0130716,29.5943998 24.002431,29.2647631 22.971,29.014 C21.938,28.776 20.241,28.242 19.425,29.222 C18.848,29.914 19.308,31.109 19.309,31.909 C19.3727004,32.4482436 19.0386866,32.9549649 18.518,33.109 C18.1293073,33.1795537 17.7293419,33.0740683 17.426,32.821 C16.7693038,32.2933378 16.265586,31.5997333 15.967,30.812 C15.4764504,29.7212677 15.4815551,28.471688 15.981,27.385 C16.6511719,26.2406914 17.7264014,25.3895721 18.994,25 C21.4253682,24.3557365 23.9287553,24.0230716 26.444,24.01" id="Shape"></path>
            <ellipse id="Oval" transform="translate(26.494691, 42.370280) rotate(-47.131000) translate(-26.494691, -42.370280) " cx="26.4946914" cy="42.3702796" rx="5" ry="3.5"></ellipse>
            <ellipse id="Oval" transform="translate(33.525999, 30.072263) rotate(-78.366000) translate(-33.525999, -30.072263) " cx="33.5259985" cy="30.0722628" rx="4.083" ry="2.514"></ellipse>
            <ellipse id="Oval" transform="translate(51.123970, 17.275082) rotate(-74.343000) translate(-51.123970, -17.275082) " cx="51.1239702" cy="17.2750818" rx="3.433" ry="2.113"></ellipse>
            <ellipse id="Oval" transform="translate(28.315773, 19.610542) rotate(-54.817000) translate(-28.315773, -19.610542) " cx="28.3157735" cy="19.6105421" rx="1.708" ry="2.494"></ellipse>
            <path d="M42.714,43.41 C42.8097739,44.040191 43.2100733,44.5826528 43.784,44.86 C44.904,45.35 46.344,44.52 47.014,43.01 C47.684,41.5 47.324,39.86 46.214,39.37 C45.7765044,39.1862111 45.2841319,39.1826172 44.844,39.36" id="Shape"></path>
            <path d="M12.464,47.34 C12.8097655,46.9802544 13.0001394,46.4989319 12.994,46 C12.994,44.8954305 12.0985695,44 10.994,44 C9.8894305,44 8.994,44.8954305 8.994,46 C8.994,47.1045695 9.8894305,48 10.994,48 C11.0608257,48.0019152 11.1276986,47.9985716 11.194,47.99" id="Shape"></path>
            <path d="M41.994,37 C41.994,37 44.994,30 42.994,25" id="Shape"></path>
            <path d="M40.994,22 C40.3014387,20.1512229 38.8427771,18.6925613 36.994,18" id="Shape"></path>
            <path d="M46.554,23.89 C46.5935406,23.8491826 46.6302903,23.8057512 46.664,23.76 C47.652077,22.4877685 48.5065797,21.1172131 49.214,19.67" id="Shape"></path>
            <path d="M50.964,14.1 C51.1925722,12.6035103 51.2161222,11.08285 51.034,9.58 C50.9054619,8.16992859 50.533277,6.79284468 49.934,5.51 C49.5948377,4.8946634 49.1593236,4.33761049 48.644,3.86 C48.194,3.42 47.394,2.95 47.314,2.28 C47.124,0.8 49.134,0.94 50.044,1.08 C55.444,1.9 58.054,7.25 58.764,12.15 C59.3995045,17.325877 58.5534075,22.5758393 56.324,27.29 C55.6241794,28.8835389 54.7307898,30.3848364 53.664,31.76 C53.634,31.8 53.604,31.83 53.574,31.87" id="Shape"></path>
        </g>
    </g>
</svg>