<svg height="57" viewBox="0 0 58 57" width="58" xmlns="http://www.w3.org/2000/svg"><g fill="#007aaa" fill-rule="evenodd" transform="translate(0 -1)"><path d="m7.0571.9831c3.835.003 6.998 3.171 6.99 7.025-.009 4.036-3.358 7.078-7.037 6.99-3.732.076-7.011-3.041-7.01-7.017 0-3.855 3.175-7.001 7.057-6.998"/><path d="m11 57.9918h-8c-1.066 0-2-.925-2-1.992v-34.993c0-1.067.848-2.007 1.915-2.007h8.085c1.066 0 2 .934 2 2v35.061c0 1.066-.934 1.931-2 1.931"/><path d="m58.0004 31.1899c0-7.349-5.521-13.19-12.871-13.19h-2.107c-4.021 0-7.886 1.934-10.022 5-.709.709-1 1-1 1v-4c0-.442-.557-1-1-1h-10c-.443 0-1 .434-1 .877v37.314c0 .442.557.801 1 .801l11 .003c.443 0 1-.359 1-.802v-21.557c0-3.726 2.751-6.82 6.477-6.862 1.902-.022 3.627.741 4.869 1.984 1.227 1.226 1.654 2.921 1.654 4.792v21.45c0 .443.557 1 1 1h10c.443 0 1-.557 1-1z"/></g></svg>