<svg xmlns="http://www.w3.org/2000/svg" id="Layer_1" data-name="Layer 1" viewBox="0 -10 155 275">
  <defs>
    <style>
      .cls-1,.cls-2,.cls-8{fill:none;}.cls-2{clip-rule:evenodd;}.cls-3{clip-path:url(#clip-path);}.cls-4{clip-path:url(#clip-path-2);}.cls-5{fill:#3D434B;}.cls-6{clip-path:url(#clip-path-3);}.cls-7{clip-path:url(#clip-path-5);}.cls-8{stroke:#3D434B;stroke-miterlimit:10;stroke-width:30px;}
    </style>
    <clipPath id="clip-path" transform="translate(-10 -10)">
      <circle cx="50.54" cy="125.5" r="10.5" class="cls-1"/>
    </clipPath>
    <clipPath id="clip-path-2" transform="translate(-10 -10)">
      <path d="M7 8h160v260H7z" class="cls-1"/>
    </clipPath>
    <clipPath id="clip-path-3" transform="translate(-10 -10)">
      <circle cx="124.5" cy="125.43" r="10.5" class="cls-1"/>
    </clipPath>
    <clipPath id="clip-path-5" transform="translate(-10 -10)">
      <path
        d="M40 160.1c-6.08 10.18-5.89 24-8.25 23.19s-3.55-15.12 0-23.19a75.47 75.47 0 0 0 4.35-14.37C27.18 127-20.26 18 87.22 18c113 0 54.93 120.43 50.21 129.86a71.07 71.07 0 0 0 3.89 12.24c3.55 8.07 2.36 22.34 0 23.19s-2.17-13-8.25-23.19a41 41 0 0 1-2.18-4.13c1.39 8.41 2.34 20.59-1.94 27.63-5.1 8.73 4.23 36.92 7 37.3 3.86.53 0-17.58 3.31-15.32 4.92 3.35 8.84 20.66-1.83 24.43-9.72 3.44-27.43-24.43-22-46.41 3-8.91-2.69-27.64-4.22-35.15a168.07 168.07 0 0 1-.42 52.68c-5.47 34.44 5.5 45.12 9.09 43.73 5-2 1.62-11.9 1.62-11.9 2.28-4 20 8.71 8.12 20.89-10.42 11.06-36.82 4-33.81-51.42 1.82-17.91-4.1-34.46-9.34-45.12-5.29 10.64-11.42 27.42-9.57 45.59 3 55.39-23.39 62.48-33.81 51.42-11.9-12.18 5.84-24.94 8.12-20.89 0 0-3.36 9.95 1.62 11.9 3.59 1.39 14.57-9.29 9.09-43.73-4.24-26.7-1.45-45.87 0-53.15-1.69 7.51-7.33 26.25-4.38 35.15 5.47 22-12.24 49.85-22 46.41-10.67-3.77-6.75-21.08-1.83-24.43 3.31-2.25-.55 15.86 3.31 15.32 2.77-.38 12.1-28.57 7-37.3-4.28-7-3.33-19.22-1.94-27.63A41 41 0 0 1 40 160.1zM0 0h174.5v276.73H0z"
        class="cls-2"/>
    </clipPath>
  </defs>
  <g class="cls-3">
    <path d="M25.04 100h31v31h-31z" class="cls-5"/>
  </g>
  <g class="cls-6">
    <path d="M99 99.93h31v31H99z" class="cls-5"/>
  </g>
  <g class="cls-7">
    <path
      d="M30 150.1c-6.08 10.18-5.89 24-8.25 23.19s-3.55-15.12 0-23.19a75.47 75.47 0 0 0 4.35-14.37C17.18 117-30.26 8 77.22 8c113 0 54.93 120.43 50.21 129.86a71.07 71.07 0 0 0 3.89 12.24c3.55 8.07 2.36 22.34 0 23.19s-2.17-13-8.25-23.19a41 41 0 0 1-2.18-4.13c1.39 8.41 2.34 20.59-1.94 27.63-5.1 8.73 4.23 36.92 7 37.3 3.86.53 0-17.58 3.31-15.32 4.92 3.35 8.84 20.66-1.83 24.43-9.72 3.44-27.43-24.43-22-46.41 3-8.91-2.69-27.64-4.22-35.15a168.06 168.06 0 0 1-.42 52.68c-5.47 34.44 5.5 45.12 9.09 43.73 5-2 1.62-11.9 1.62-11.9 2.28-4 20 8.71 8.12 20.89-10.42 11.06-36.82 4-33.81-51.42 1.82-17.91-4.1-34.46-9.34-45.12-5.29 10.64-11.42 27.42-9.57 45.59 3 55.39-23.39 62.48-33.81 51.42-11.9-12.18 5.84-24.94 8.12-20.89 0 0-3.36 9.95 1.62 11.9 3.59 1.39 14.57-9.29 9.09-43.73-4.24-26.69-1.45-45.87 0-53.15-1.69 7.51-7.33 26.25-4.38 35.15 5.47 22-12.24 49.85-22 46.41-10.67-3.77-6.75-21.08-1.83-24.43 3.31-2.25-.55 15.86 3.31 15.32 2.77-.38 12.1-28.57 7-37.3-4.28-7-3.33-19.22-1.94-27.63A41 41 0 0 1 30 150.1z"
      class="cls-8"/>
  </g>
</svg>
