<svg enable-background="new 0 0 512 512" viewBox="0 0 512 512" xmlns="http://www.w3.org/2000/svg"><path d="m491.318 235.318h-470.636c-11.422 0-20.682 9.259-20.682 20.682s9.26 20.682 20.682 20.682h470.636c11.423 0 20.682-9.259 20.682-20.682 0-11.422-9.259-20.682-20.682-20.682z"/><path d="m491.318 78.439h-470.636c-11.422 0-20.682 9.26-20.682 20.682s9.26 20.682 20.682 20.682h470.636c11.423 0 20.682-9.26 20.682-20.682s-9.259-20.682-20.682-20.682z"/><path d="m491.318 392.197h-470.636c-11.422 0-20.682 9.259-20.682 20.682s9.26 20.682 20.682 20.682h470.636c11.423 0 20.682-9.259 20.682-20.682s-9.259-20.682-20.682-20.682z"/></svg>