<svg enable-background="new 0 0 32 64" height="64" viewBox="0 0 32 64" width="32" xmlns="http://www.w3.org/2000/svg"><g fill="none" stroke-linecap="square" stroke-miterlimit="10" stroke-width="2"><g stroke="#8e9ba0"><path d="m20.076 25.395v5.435"/><path d="m11.924 30.83v-5.435"/><path d="m7.847 30.83h16.305"/><path d="m14.641 5.014h2.716"/><path d="m28.229 25.395h-24.458c-1.495 0-2.718-1.223-2.718-2.717v-19.023c0-1.494 1.223-2.717 2.718-2.717h24.458c1.494 0 2.717 1.223 2.717 2.717v19.022c-.001 1.495-1.221 2.718-2.717 2.718z"/><path d="m1.054 19.96h29.891"/></g><path d="m20.076 57.564v5.436" stroke="#da4843"/><path d="m11.924 63v-5.436" stroke="#da4843"/><path d="m7.847 63h16.305" stroke="#da4843"/><path d="m14.641 37.184h2.716" stroke="#da4843"/><path d="m28.229 57.564h-24.458c-1.495 0-2.718-1.224-2.718-2.717v-19.023c0-1.494 1.223-2.717 2.718-2.717h24.458c1.494 0 2.717 1.223 2.717 2.717v19.023c-.001 1.495-1.221 2.717-2.717 2.717z" stroke="#da4843"/><path d="m1.054 52.131h29.891" stroke="#da4843"/></g></svg>