<svg xmlns="http://www.w3.org/2000/svg" viewBox="0 0 429.96 398.87"><defs><style>.cls-1{isolation:isolate;}.cls-2{fill:#f1f6f8;}.cls-3,.cls-4,.cls-7{fill:#fff;}.cls-11,.cls-4,.cls-5,.cls-6,.cls-7,.cls-8{stroke:#aac6ca;}.cls-11,.cls-14,.cls-4,.cls-5,.cls-6,.cls-7,.cls-8,.cls-9{stroke-miterlimit:10;}.cls-11,.cls-14,.cls-5,.cls-9{fill:none;}.cls-12,.cls-6,.cls-8{fill:#ecf3f6;}.cls-11,.cls-14,.cls-7,.cls-8,.cls-9{stroke-width:1.26px;}.cls-14,.cls-9{stroke:#ff8288;}.cls-10,.cls-13{fill:#baccd3;mix-blend-mode:multiply;}.cls-10{opacity:0.4;}.cls-13{opacity:0.3;}.cls-14{stroke-linecap:round;}</style></defs><title>Ship</title><g class="cls-1"><g id="Layer_1" data-name="Layer 1"><circle class="cls-2" cx="263.11" cy="106.95" r="106.95"/><path class="cls-3" d="M122.72,117.21A37.33,37.33,0,0,1,191.91,104a21,21,0,0,1,29.79,13.19Z"/><path class="cls-3" d="M387.05,67.29A37.33,37.33,0,0,0,317.86,54.1a21,21,0,0,0-29.79,13.19Z"/><polygon class="cls-4" points="139.7 248.18 21.56 130.78 16.55 135.23 122.81 269.6 139.81 269.6 139.7 248.18"/><line class="cls-5" x1="186.6" y1="200.51" x2="21.91" y2="130.56"/><polygon class="cls-6" points="19.4 132.8 139.81 269.6 122.81 269.6 16.55 135.23 19.4 132.8"/><line class="cls-5" x1="16.55" y1="135.23" x2="16.55" y2="181.97"/><circle class="cls-6" cx="21.12" cy="135.36" r="5.44"/><path class="cls-7" d="M102.32,118.89H290.5a4.39,4.39,0,0,1,4.39,4.39V249.83a0,0,0,0,1,0,0h-197a0,0,0,0,1,0,0V123.28A4.39,4.39,0,0,1,102.32,118.89Z"/><line class="cls-7" x1="195.41" y1="126.78" x2="195.41" y2="249.83"/><path class="cls-8" d="M290.5,118.35H102.32a4.4,4.4,0,0,0-4.39,4.39v6h197v-6A4.39,4.39,0,0,0,290.5,118.35Z"/><rect class="cls-8" x="97.93" y="128.78" width="97.48" height="127.52"/><rect class="cls-7" x="97.93" y="128.78" width="196.95" height="13.73"/><line class="cls-9" x1="286.15" y1="135.65" x2="243.79" y2="135.65"/><polygon class="cls-10" points="194.75 142.81 98.56 142.81 98.56 150.26 187.28 150.26 187.28 248.87 194.73 248.87 194.73 150.26 194.75 150.26 194.75 142.81"/><polyline class="cls-5" points="24.74 190.23 16.48 181.97 8.21 190.23"/><circle class="cls-3" cx="105.11" cy="123.57" r="1.72"/><circle class="cls-3" cx="110.99" cy="123.57" r="1.72"/><line class="cls-9" x1="110.45" y1="162.97" x2="166.86" y2="162.97"/><line class="cls-9" x1="121.96" y1="171.29" x2="178.37" y2="171.29"/><line class="cls-9" x1="121.96" y1="196.96" x2="178.37" y2="196.96"/><line class="cls-9" x1="121.96" y1="205.75" x2="178.37" y2="205.75"/><line class="cls-11" x1="131.89" y1="179.59" x2="169.35" y2="179.59"/><line class="cls-11" x1="131.89" y1="188.87" x2="169.35" y2="188.87"/><line class="cls-11" x1="131.89" y1="214.19" x2="169.35" y2="214.19"/><line class="cls-11" x1="131.89" y1="222.15" x2="169.35" y2="222.15"/><circle class="cls-12" cx="245.52" cy="190.99" r="33.51"/><rect class="cls-8" x="239.01" y="234.87" width="75.83" height="17.33"/><rect class="cls-8" x="254.61" y="209.5" width="53.88" height="25.37"/><polyline class="cls-10" points="308.49 234.87 308.49 209.5 254.61 209.5"/><rect class="cls-5" x="0.5" y="189.9" width="31.69" height="31.69"/><rect class="cls-5" x="4.93" y="194.34" width="22.82" height="22.82"/><polygon class="cls-8" points="387.32 222.08 387.32 190.24 376.54 190.24 365.08 222.08 387.32 222.08"/><polygon class="cls-12" points="308.62 222.08 308.62 181.36 302.94 167.85 302.94 162.41 351.7 162.41 351.7 181.36 373.54 222.08 308.62 222.08"/><polygon class="cls-3" points="332.29 167.85 310.99 167.85 302.94 167.85 308.62 181.36 351.7 181.36 351.7 167.85 332.29 167.85"/><polygon class="cls-8" points="387.32 262.16 387.32 288.11 376.54 294.01 365.05 259.06 387.32 262.16"/><path class="cls-8" d="M377.14,265.27h0a22.84,22.84,0,0,0-22.84,22.84H72l25-12a10.68,10.68,0,0,0,6-9.62h0a12.63,12.63,0,0,0-6.79-11.21l-18.49-9.67a27.41,27.41,0,0,1-13.31-23.49H138a2.52,2.52,0,0,1,2.53,2.52V232A17.45,17.45,0,0,0,158,249.49h133.2A17.45,17.45,0,0,0,308.62,232v-10h99.67v12.44a30.75,30.75,0,0,1-31.15,30.75Z"/><polygon class="cls-11" points="308.62 222.08 308.62 181.36 302.94 167.85 302.94 162.41 351.7 162.41 351.7 181.36 373.54 222.08 308.62 222.08"/><line class="cls-8" x1="367.51" y1="267.4" x2="102.74" y2="267.4"/><line class="cls-8" x1="302.94" y1="167.85" x2="351.7" y2="167.85"/><line class="cls-8" x1="351.7" y1="181.36" x2="308.19" y2="181.36"/><path class="cls-3" d="M68.44,279.18c20.83,0,20.83,7.53,41.66,7.53s20.83-7.53,41.66-7.53,20.83,7.53,41.67,7.53,20.83-7.53,41.66-7.53,20.83,7.53,41.67,7.53,20.83-7.53,41.66-7.53v84.57H57Z"/><path class="cls-11" d="M68.44,279.18c20.83,0,20.83,7.53,41.66,7.53s20.83-7.53,41.66-7.53,20.83,7.53,41.67,7.53,20.83-7.53,41.66-7.53,20.83,7.53,41.67,7.53,20.83-7.53,41.66-7.53"/><path class="cls-3" d="M401.75,279.18c-20.83,0-20.83,7.53-41.67,7.53s-20.83-7.53-41.66-7.53l.49,84.57"/><path class="cls-11" d="M401.75,279.18c-20.83,0-20.83,7.53-41.67,7.53s-20.83-7.53-41.66-7.53"/><line class="cls-8" x1="319.7" y1="167.85" x2="319.7" y2="181.36"/><line class="cls-8" x1="337.19" y1="167.85" x2="337.19" y2="181.36"/><line class="cls-8" x1="308.19" y1="229.28" x2="408.29" y2="229.28"/><line class="cls-8" x1="65.44" y1="229.28" x2="140.52" y2="229.28"/><circle class="cls-3" cx="320.96" cy="195.25" r="4.01"/><circle class="cls-3" cx="335.47" cy="195.25" r="4.01"/><circle class="cls-3" cx="320.96" cy="209.5" r="4.01"/><circle class="cls-3" cx="335.47" cy="209.5" r="4.01"/><circle class="cls-3" cx="349.42" cy="209.5" r="4.01"/><line class="cls-8" x1="337.19" y1="161.51" x2="337.19" y2="147.43"/><line class="cls-8" x1="331.46" y1="161.51" x2="331.46" y2="153.46"/><line class="cls-8" x1="375.2" y1="194.33" x2="387.32" y2="194.33"/><path class="cls-13" d="M174.26,322.71a3.19,3.19,0,0,0,.74.54,3.19,3.19,0,0,0-.74.54,3,3,0,0,0-.55,3.49l3.9-3.91,2.22,1.65A11.87,11.87,0,0,0,194,325l2.38-1.77L194,321.48a11.87,11.87,0,0,0-14.15,0l-2.22,1.65-3.9-3.9A3,3,0,0,0,174.26,322.71Z"/><path class="cls-13" d="M142.15,307.93a3,3,0,0,0,.75.55,2.74,2.74,0,0,0-.75.54,3,3,0,0,0-.55,3.48l3.9-3.9,2.22,1.65a11.9,11.9,0,0,0,14.15,0l2.39-1.77-2.39-1.77a11.87,11.87,0,0,0-14.15,0l-2.22,1.64-3.9-3.9A3,3,0,0,0,142.15,307.93Z"/><path class="cls-9" d="M394.29,155.88a7,7,0,0,1,7,7.05"/><path class="cls-9" d="M408.68,155.88a7,7,0,0,0-7,7.05"/><path class="cls-9" d="M415.57,137.82a7,7,0,0,1,7.05,7"/><path class="cls-9" d="M430,137.82a7,7,0,0,0-7,7"/><circle class="cls-9" cx="75.91" cy="242.38" r="1.99"/><line class="cls-9" x1="75.91" y1="244.49" x2="75.91" y2="265.92"/><line class="cls-9" x1="80.98" y1="252.14" x2="70.85" y2="252.14"/><path class="cls-9" d="M64.44,260.48a14.94,14.94,0,0,0,22.73.39"/><line class="cls-9" x1="32.19" y1="189.9" x2="0.5" y2="221.59"/><polyline class="cls-8" points="357.09 332.8 366.51 321.89 386.07 321.89 386.07 332.8"/><line class="cls-14" x1="373.55" y1="321.89" x2="373.55" y2="309.52"/><path class="cls-14" d="M379.61,321.89V309.07a6,6,0,0,1,6-6"/><path class="cls-8" d="M389.3,332.8H338.13l-13.68,7v23.1l13.68,7H389.3a18.51,18.51,0,0,0,0-37Z"/><polygon class="cls-8" points="317.85 337.11 312.37 337.11 312.37 365.51 317.85 365.51 324.45 362.86 324.45 354.81 324.45 347.81 324.45 339.76 317.85 337.11"/><circle class="cls-7" cx="390.5" cy="351.31" r="6.4"/><circle class="cls-7" cx="371.58" cy="351.31" r="6.4"/><circle class="cls-7" cx="352.66" cy="351.31" r="6.4"/><line class="cls-11" x1="338.13" y1="332.8" x2="338.13" y2="369.82"/><path class="cls-3" d="M285.09,356.71c17,0,17,6.14,34,6.14s17-6.14,34-6.14,17,6.14,34,6.14,17-6.14,34-6.14v42.16h-136Z"/><path class="cls-11" d="M285.09,356.71c17,0,17,6.14,34,6.14s17-6.14,34-6.14,17,6.14,34,6.14,17-6.14,34-6.14"/><path class="cls-13" d="M328.86,382.32a3.41,3.41,0,0,0,.74.54,3.41,3.41,0,0,0-.74.54,3,3,0,0,0-.55,3.48l3.9-3.9,2.22,1.65a11.87,11.87,0,0,0,14.15,0l2.38-1.77-2.38-1.77a11.87,11.87,0,0,0-14.15,0l-2.22,1.65-3.9-3.91A3,3,0,0,0,328.86,382.32Z"/><path class="cls-10" d="M141.22,222.85l46.06,26H158.09A17.11,17.11,0,0,1,141,231.3Z"/></g></g></svg>