<svg xmlns="http://www.w3.org/2000/svg" width="256" height="256" viewBox="0 0 256 256">
  <g fill="none" fill-rule="evenodd" transform="translate(30 18)">
    <path fill="#5E6977" d="M44.467,110.527 C43.914,110.527 43.467,110.08 43.467,109.527 L43.467,104.517 C43.467,103.964 43.914,103.517 44.467,103.517 C45.02,103.517 45.467,103.964 45.467,104.517 L45.467,109.527 C45.467,110.08 45.02,110.527 44.467,110.527"/>
    <path fill="#5E6977" d="M46.973 108.021L41.961 108.021C41.408 108.021 40.961 107.574 40.961 107.021 40.961 106.469 41.408 106.021 41.961 106.021L46.973 106.021C47.525 106.021 47.973 106.469 47.973 107.021 47.973 107.574 47.525 108.021 46.973 108.021M112.27 52.77C111.717 52.77 111.27 52.322 111.27 51.77L111.27 46.76C111.27 46.207 111.717 45.76 112.27 45.76 112.822 45.76 113.27 46.207 113.27 46.76L113.27 51.77C113.27 52.322 112.822 52.77 112.27 52.77"/>
    <path fill="#5E6977" d="M114.776 50.265L109.764 50.265C109.211 50.265 108.764 49.817 108.764 49.265 108.764 48.712 109.211 48.265 109.764 48.265L114.776 48.265C115.329 48.265 115.776 48.712 115.776 49.265 115.776 49.817 115.329 50.265 114.776 50.265M128.6 91.691C128.047 91.691 127.6 91.244 127.6 90.691L127.6 85.682C127.6 85.129 128.047 84.682 128.6 84.682 129.152 84.682 129.6 85.129 129.6 85.682L129.6 90.691C129.6 91.244 129.152 91.691 128.6 91.691"/>
    <path fill="#5E6977" d="M131.105 89.187L126.094 89.187C125.541 89.187 125.094 88.739 125.094 88.187 125.094 87.634 125.541 87.187 126.094 87.187L131.105 87.187C131.658 87.187 132.105 87.634 132.105 88.187 132.105 88.739 131.658 89.187 131.105 89.187M18.719 70.351C18.166 70.351 17.719 69.903 17.719 69.351L17.719 64.34C17.719 63.787 18.166 63.34 18.719 63.34 19.271 63.34 19.719 63.787 19.719 64.34L19.719 69.351C19.719 69.903 19.271 70.351 18.719 70.351"/>
    <path fill="#5E6977" d="M21.225 67.846L16.213 67.846C15.66 67.846 15.213 67.398 15.213 66.846 15.213 66.293 15.66 65.846 16.213 65.846L21.225 65.846C21.777 65.846 22.225 66.293 22.225 66.846 22.225 67.398 21.777 67.846 21.225 67.846M192.636 124.975C192.083 124.975 191.636 124.527 191.636 123.975L191.636 118.964C191.636 118.411 192.083 117.964 192.636 117.964 193.188 117.964 193.636 118.411 193.636 118.964L193.636 123.975C193.636 124.527 193.188 124.975 192.636 124.975"/>
    <path fill="#5E6977" d="M195.143 122.469L190.131 122.469C189.578 122.469 189.131 122.021 189.131 121.469 189.131 120.916 189.578 120.469 190.131 120.469L195.143 120.469C195.695 120.469 196.143 120.916 196.143 121.469 196.143 122.021 195.695 122.469 195.143 122.469M4.9 144.432C4.348 144.432 3.9 143.984 3.9 143.432L3.9 138.422C3.9 137.869 4.348 137.422 4.9 137.422 5.453 137.422 5.9 137.869 5.9 138.422L5.9 143.432C5.9 143.984 5.453 144.432 4.9 144.432"/>
    <path fill="#5E6977" d="M7.406,141.927 L2.395,141.927 C1.842,141.927 1.395,141.479 1.395,140.927 C1.395,140.374 1.842,139.927 2.395,139.927 L7.406,139.927 C7.959,139.927 8.406,140.374 8.406,140.927 C8.406,141.479 7.959,141.927 7.406,141.927"/>
    <path fill="#AEBFC6" d="M77.98,70.945 C88.666,70.946 97.793,77.599 101.459,86.986 C102.571,84.146 103.188,81.057 103.188,77.82 C103.188,63.896 91.902,52.613 77.98,52.613 C64.059,52.613 52.771,63.898 52.772,77.82 C52.772,81.056 53.389,84.146 54.498,86.986 C58.166,77.598 67.293,70.945 77.98,70.945"/>
    <path fill="#5E6977" d="M77.98,69.945 C87.974,69.946 96.876,75.476 101.322,84.236 C101.897,82.153 102.188,80.004 102.188,77.82 C102.188,64.473 91.328,53.613 77.98,53.613 C71.514,53.613 65.435,56.131 60.862,60.703 C56.29,65.275 53.772,71.354 53.772,77.82 C53.772,80.002 54.063,82.15 54.636,84.234 C59.084,75.475 67.987,69.945 77.98,69.945 Z M101.459,87.986 C101.459,87.986 101.459,87.986 101.458,87.986 C101.047,87.986 100.678,87.733 100.527,87.35 C96.873,77.993 88.023,71.946 77.98,71.945 C67.938,71.945 59.086,77.992 55.43,87.351 C55.279,87.733 54.91,87.986 54.498,87.986 C54.086,87.986 53.717,87.733 53.566,87.351 C52.376,84.303 51.772,81.097 51.772,77.82 C51.771,70.82 54.498,64.239 59.448,59.289 C64.398,54.339 70.979,51.613 77.98,51.613 C92.431,51.613 104.188,63.37 104.188,77.82 C104.188,81.1 103.583,84.306 102.39,87.351 C102.24,87.734 101.87,87.986 101.459,87.986 L101.459,87.986 Z"/>
    <path fill="#AEBFC6" d="M84.416,53.445 L84.416,71.793 C92.227,73.853 98.557,79.556 101.459,86.986 C102.571,84.146 103.188,81.057 103.188,77.82 C103.188,66.123 95.219,56.289 84.416,53.445"/>
    <path fill="#5E6977" d="M85.416,71.034 C92.304,73.072 98.069,77.889 101.32,84.243 C101.896,82.158 102.188,80.007 102.188,77.82 C102.188,67.271 95.354,57.977 85.416,54.779 L85.416,71.034 Z M101.459,87.986 L101.459,87.986 C101.047,87.986 100.678,87.733 100.527,87.351 C97.727,80.178 91.607,74.724 84.161,72.76 C83.722,72.645 83.416,72.247 83.416,71.793 L83.416,53.445 C83.416,53.135 83.56,52.843 83.806,52.653 C84.052,52.463 84.37,52.398 84.671,52.479 C96.162,55.503 104.188,65.924 104.188,77.82 C104.188,81.1 103.583,84.306 102.39,87.351 C102.24,87.734 101.87,87.986 101.459,87.986 L101.459,87.986 Z"/>
    <path fill="#FFF" d="M77.979,74.221 C81.08,74.222 84.067,74.706 86.874,75.596 C91.037,67.165 93.551,56.293 93.553,44.412 C93.553,25.537 87.219,9.195 77.98,1.18 C68.739,9.195 62.406,25.537 62.405,44.412 C62.406,56.293 64.92,67.167 69.086,75.596 C71.891,74.706 74.879,74.222 77.979,74.221"/>
    <path fill="#5E6977" d="M77.979,73.221 C80.818,73.222 83.629,73.615 86.346,74.392 C90.351,65.93 92.551,55.323 92.553,44.412 C92.553,26.784 86.989,10.85 77.98,2.522 C68.971,10.848 63.406,26.782 63.405,44.412 C63.406,55.327 65.606,65.933 69.614,74.392 C72.33,73.615 75.14,73.222 77.979,73.221 Z M69.086,76.596 C68.714,76.596 68.361,76.388 68.189,76.039 C63.815,67.189 61.406,55.958 61.405,44.412 C61.406,25.796 67.507,8.94 77.325,0.424 C77.702,0.098 78.261,0.099 78.636,0.425 C88.454,8.943 94.553,25.798 94.553,44.412 C94.551,55.954 92.143,67.186 87.771,76.038 C87.553,76.482 87.041,76.7 86.572,76.549 C81.015,74.788 74.938,74.79 69.389,76.549 C69.288,76.581 69.187,76.596 69.086,76.596 L69.086,76.596 Z"/>
    <path fill="#E5B2BA" d="M77.979,19.048 C81.895,19.048 85.73,19.185 89.473,19.434 C86.725,11.67 82.744,5.312 77.98,1.18 C73.216,5.313 69.234,11.67 66.486,19.434 C70.229,19.185 74.064,19.048 77.979,19.048"/>
    <path fill="#5E6977" d="M77.979,18.048 C81.279,18.048 84.645,18.146 88.005,18.341 C85.465,11.697 82.025,6.268 77.98,2.522 C73.934,6.27 70.494,11.698 67.954,18.341 C71.314,18.146 74.68,18.048 77.979,18.048 Z M89.473,20.434 C89.45,20.434 89.429,20.433 89.406,20.432 C81.758,19.922 74.201,19.922 66.553,20.432 C66.219,20.441 65.892,20.307 65.689,20.038 C65.486,19.77 65.432,19.417 65.544,19.1 C68.369,11.116 72.443,4.659 77.325,0.424 C77.702,0.098 78.259,0.098 78.636,0.424 C83.516,4.657 87.589,11.115 90.415,19.1 C90.527,19.417 90.473,19.77 90.27,20.038 C90.08,20.288 89.784,20.434 89.473,20.434 L89.473,20.434 Z"/>
    <path fill="#AEBFC6" d="M77.98,51.084 C75.997,54.42 74.639,61.215 74.639,69.066 C74.638,76.916 75.997,83.712 77.979,87.048 C79.961,83.712 81.322,76.916 81.322,69.065 C81.322,61.215 79.963,54.42 77.98,51.084"/>
    <path fill="#5E6977" d="M77.98,53.381 C76.533,57.022 75.639,62.872 75.639,69.066 C75.638,75.259 76.532,81.107 77.979,84.75 C79.428,81.106 80.322,75.257 80.322,69.065 C80.322,62.872 79.428,57.023 77.98,53.381 Z M77.979,88.048 C77.627,88.048 77.3,87.862 77.12,87.559 C74.972,83.943 73.638,76.857 73.639,69.066 C73.639,61.271 74.973,54.186 77.121,50.573 C77.301,50.27 77.628,50.084 77.98,50.084 C78.333,50.084 78.66,50.27 78.84,50.573 C80.988,54.188 82.322,61.273 82.322,69.065 C82.322,76.855 80.987,83.941 78.839,87.559 C78.659,87.862 78.332,88.048 77.979,88.048 L77.979,88.048 Z"/>
    <path fill="#AEBFC6" d="M77.89,51.247 L77.89,86.883 C77.92,86.936 77.949,86.996 77.979,87.048 C79.961,83.712 81.322,76.916 81.322,69.065 C81.322,61.215 79.963,54.42 77.98,51.084 C77.951,51.137 77.922,51.195 77.89,51.247"/>
    <path fill="#5E6977" d="M78.89,56.231 L78.89,81.896 C79.793,78.387 80.322,73.827 80.322,69.065 C80.322,64.301 79.793,59.74 78.89,56.231 Z M77.979,88.048 L77.977,88.048 C77.622,88.047 77.295,87.858 77.116,87.553 C77.109,87.54 77.055,87.441 77.048,87.429 C76.972,87.284 76.89,87.046 76.89,86.883 L76.89,51.247 C76.89,51.061 76.942,50.877 77.041,50.719 C77.043,50.714 77.104,50.603 77.106,50.599 C77.28,50.285 77.608,50.089 77.966,50.084 C78.322,50.087 78.658,50.266 78.84,50.573 C80.988,54.188 82.322,61.273 82.322,69.065 C82.322,76.855 80.987,83.941 78.839,87.559 C78.659,87.862 78.332,88.048 77.979,88.048 L77.979,88.048 Z"/>
    <path fill="#AEBFC6" d="M77.979,44.412 C73.154,44.41 69.229,40.486 69.229,35.66 C69.229,30.835 73.154,26.909 77.979,26.908 C82.805,26.908 86.73,30.835 86.729,35.66 C86.73,40.486 82.805,44.412 77.979,44.412"/>
    <path fill="#5E6977" d="M77.979,27.908 C73.705,27.909 70.229,31.387 70.229,35.66 C70.229,39.933 73.706,43.41 77.979,43.412 C80.046,43.412 81.991,42.604 83.457,41.139 C84.923,39.673 85.729,37.728 85.729,35.66 C85.729,33.594 84.923,31.647 83.457,30.182 C81.991,28.716 80.046,27.908 77.979,27.908 Z M77.979,45.412 L77.979,45.412 C72.603,45.41 68.229,41.035 68.229,35.66 C68.229,30.284 72.603,25.909 77.979,25.908 C80.58,25.908 83.027,26.924 84.871,28.768 C86.715,30.611 87.73,33.06 87.729,35.66 C87.73,38.261 86.715,40.709 84.871,42.553 C83.028,44.396 80.58,45.412 77.979,45.412 L77.979,45.412 Z"/>
    <path fill="#6CA3BB" d="M77.979,30.329 C75.04,30.329 72.648,32.721 72.648,35.66 C72.648,38.6 75.039,40.99 77.979,40.99 C80.919,40.99 83.311,38.601 83.311,35.66 C83.311,32.722 80.918,30.329 77.979,30.329"/>
    <path fill="#5E6977" d="M77.979 31.329C75.592 31.329 73.648 33.272 73.648 35.66 73.648 38.048 75.592 39.99 77.979 39.99 80.367 39.99 82.311 38.048 82.311 35.66 82.311 33.272 80.367 31.329 77.979 31.329zM77.979 41.99C74.488 41.99 71.648 39.15 71.648 35.66 71.648 32.169 74.488 29.329 77.979 29.329 81.471 29.329 84.311 32.169 84.311 35.66 84.311 39.15 81.471 41.99 77.979 41.99L77.979 41.99zM55.549 167.93C52.162 167.93 48.979 166.611 46.584 164.216 44.189 161.821 42.87 158.637 42.871 155.25L44.871 155.25C44.871 158.103 45.981 160.785 47.998 162.802 50.015 164.819 52.696 165.93 55.549 165.93 61.437 165.93 66.227 161.14 66.227 155.252L66.227 84.48 68.227 84.48 68.227 155.252C68.227 162.242 62.539 167.93 55.549 167.93M99.871 209.332C94.022 209.332 88.524 207.055 84.39 202.92 80.255 198.785 77.978 193.287 77.979 187.438L77.978 99.801 79.978 99.801 79.979 187.438C79.979 192.753 82.047 197.748 85.804 201.506 89.562 205.263 94.557 207.332 99.871 207.332L99.871 209.332M127.807 186.108C127.805 186.108 127.804 186.108 127.804 186.108 125.561 186.108 123.314 185.917 121.126 185.54L121.466 183.569C123.542 183.927 125.675 184.108 127.803 184.108 127.803 184.108 127.806 184.108 127.807 184.108 137.694 184.108 146.988 180.259 153.979 173.268 160.972 166.275 164.822 156.979 164.822 147.092L166.822 147.092C166.822 157.514 162.764 167.313 155.394 174.682 148.024 182.051 138.228 186.108 127.807 186.108"/>
    <path fill="#5E6977" d="M99.955,174.421 C92.752,167.082 88.785,157.376 88.785,147.092 L88.785,80.365 L90.785,80.365 L90.785,147.092 C90.785,156.85 94.549,166.058 101.383,173.021 L99.955,174.421"/>
    <path fill="#5E6977" d="M128.002,177.352 C110.329,177.352 95.951,162.974 95.951,145.3 C95.951,127.626 110.329,113.248 128.002,113.248 C145.676,113.248 160.055,127.626 160.055,145.3 L158.055,145.3 C158.055,128.729 144.573,115.248 128.002,115.248 C111.432,115.248 97.951,128.729 97.951,145.3 C97.951,161.87 111.432,175.352 128.002,175.352 L128.002,177.352"/>
    <path fill="#5E6977" d="M128.002 167.388C122.343 167.388 116.685 165.234 112.377 160.927L113.791 159.513C121.627 167.349 134.379 167.347 142.215 159.513 146.011 155.716 148.102 150.668 148.102 145.299 148.102 139.931 146.012 134.883 142.215 131.087 138.418 127.291 133.371 125.2 128.003 125.2 122.634 125.199 117.587 127.29 113.791 131.087L112.377 129.673C116.55 125.499 122.099 123.2 128.002 123.2 128.002 123.2 128.002 123.2 128.003 123.2 133.905 123.2 139.454 125.499 143.629 129.673 147.803 133.847 150.102 139.396 150.102 145.299 150.102 151.202 147.803 156.752 143.629 160.927 139.32 165.234 133.661 167.388 128.002 167.388M32.123 214.38C30.781 214.38 29.432 214.297 28.078 214.127 10.543 211.932-1.937 195.877.256 178.34 1.319 169.846 5.628 162.273 12.387 157.019 19.146 151.765 27.548 149.456 36.041 150.521L35.793 152.506C27.829 151.509 19.953 153.672 13.614 158.598 7.277 163.524 3.237 170.624 2.24 178.588.184 195.031 11.886 210.084 28.326 212.143 36.293 213.137 44.169 210.976 50.506 206.047 56.844 201.119 60.883 194.02 61.879 186.055L63.863 186.303C62.801 194.798 58.493 202.37 51.733 207.626 46.051 212.044 39.207 214.38 32.123 214.38"/>
    <path fill="#5E6977" d="M32.071,205.506 C31.117,205.506 30.152,205.446 29.181,205.325 C16.497,203.735 7.471,192.125 9.06,179.444 C9.828,173.301 12.943,167.824 17.832,164.023 C22.72,160.223 28.797,158.551 34.938,159.322 L34.69,161.307 C29.072,160.6 23.525,162.129 19.06,165.603 C14.593,169.075 11.746,174.079 11.044,179.692 C9.593,191.28 17.84,201.889 29.429,203.341 C41.031,204.781 51.626,196.539 53.076,184.954 L55.061,185.202 C53.595,196.911 43.583,205.506 32.071,205.506"/>
    <path fill="#5E6977" d="M54.536 173.776C51.984 173.776 49.452 173.171 47.114 171.976 43.232 169.99 40.356 166.61 39.017 162.46 37.676 158.311 38.031 153.886 40.018 150.004 42.005 146.121 45.385 143.245 49.534 141.904 53.683 140.564 58.107 140.92 61.991 142.909L61.079 144.688C57.673 142.943 53.791 142.632 50.148 143.808 46.508 144.984 43.542 147.508 41.799 150.915 40.056 154.321 39.743 158.204 40.919 161.846 42.096 165.487 44.619 168.452 48.025 170.194 51.434 171.939 55.317 172.252 58.957 171.074 62.599 169.898 65.563 167.374 67.307 163.967L69.088 164.877C67.102 168.76 63.722 171.637 59.572 172.978 57.92 173.512 56.224 173.776 54.536 173.776M161.967 206.037C152.957 206.037 145.628 198.708 145.628 189.699L147.628 189.699C147.628 197.605 154.061 204.037 161.967 204.037 169.872 204.037 176.304 197.604 176.304 189.697L178.304 189.697C178.304 198.707 170.975 206.037 161.967 206.037"/>
    <path fill="#5E6977" d="M163.295 213.716C161.11 213.716 158.916 213.373 156.777 212.683 151.406 210.947 147.033 207.225 144.462 202.199L146.243 201.289C148.57 205.838 152.53 209.208 157.393 210.779 162.254 212.349 167.437 211.933 171.987 209.604 176.537 207.277 179.908 203.317 181.479 198.455 183.049 193.593 182.632 188.409 180.304 183.858 175.496 174.469 163.945 170.739 154.56 175.544L153.647 173.764C164.019 168.457 176.775 172.576 182.084 182.947 184.655 187.974 185.116 193.699 183.382 199.07 181.646 204.441 177.924 208.814 172.898 211.385 169.875 212.933 166.597 213.716 163.295 213.716M102.127 219.605C97.291 219.605 92.415 218.12 88.231 215.04L89.417 213.429C98.957 220.455 112.432 218.406 119.457 208.87 122.859 204.25 124.26 198.581 123.398 192.907 122.537 187.233 119.519 182.234 114.897 178.832 105.358 171.808 91.884 173.853 84.858 183.392L83.247 182.206C90.927 171.779 105.657 169.545 116.083 177.221 121.135 180.941 124.435 186.405 125.376 192.607 126.317 198.809 124.787 205.006 121.066 210.056 116.469 216.299 109.343 219.604 102.127 219.605"/>
  </g>
</svg>
