<svg viewBox="0 0 430 399" xmlns="http://www.w3.org/2000/svg"><g fill="none" fill-rule="evenodd"><circle cx="263.11" cy="106.95" fill="#f1f6f8" r="106.95"/><path d="m122.72 117.21c2.355385-15.67121 14.348582-28.1473683 29.914644-31.1192961 15.566062-2.9719277 31.312099 4.2081583 39.275356 17.9092961 5.630843-2.867387 12.253515-3.046844 18.031378-.488602 5.777863 2.558241 10.09664 7.5822 11.758622 13.678602z" fill="#fff"/><path d="m387.05 67.29c-2.361819-15.6681424-14.357628-28.1381642-29.92248-31.1053617-15.564852-2.9671976-31.307052 4.2150032-39.26752 17.9153617-5.630843-2.867387-12.253515-3.0468437-18.031378-.4886022s-10.09664 7.5822002-11.758622 13.6786022z" fill="#fff"/><path d="m139.7 248.18-118.14-117.4-5.01 4.45 106.26 134.37h17z" fill="#fff" stroke="#aac6ca"/><path d="m186.6 200.51-164.69-69.95" stroke="#aac6ca"/><path d="m19.4 132.8 120.41 136.8h-17l-106.26-134.37z" fill="#ecf3f6" stroke="#aac6ca"/><path d="m16.55 135.23v46.74" stroke="#aac6ca"/><circle cx="21.12" cy="135.36" fill="#ecf3f6" r="5.44" stroke="#aac6ca"/><path d="m102.32 118.89h188.18c2.42453 0 4.39 1.96547 4.39 4.39v126.55h-197v-126.55c-.0000486-1.171264.4679547-2.293983 1.299911-3.118427.831956-.824444 1.958874-1.282245 3.130089-1.271573z" fill="#fff" stroke="#aac6ca" stroke-width="1.26"/><path d="m195.41 126.78v123.05" fill="#fff" stroke="#aac6ca" stroke-width="1.26"/><path d="m290.5 118.35h-188.18c-2.4222487.005499-4.3845011 1.967751-4.39 4.39v6h197v-6c.000049-1.171264-.467955-2.293983-1.299911-3.118427s-1.958874-1.282245-3.130089-1.271573z" fill="#ecf3f6" stroke="#aac6ca" stroke-width="1.26"/><path d="m97.93 128.78h97.48v127.52h-97.48z" fill="#ecf3f6" stroke="#aac6ca" stroke-width="1.26"/><path d="m97.93 128.78h196.95v13.73h-196.95z" fill="#fff" stroke="#aac6ca" stroke-width="1.26"/><path d="m286.15 135.65h-42.36" stroke="#ff8288" stroke-width="1.26"/><path d="m194.75 142.81h-96.19v7.45h88.72v98.61h7.45v-98.61h.02z" fill="#baccd3" opacity=".4"/><path d="m24.74 190.23-8.26-8.26-8.27 8.26" stroke="#aac6ca"/><circle cx="105.11" cy="123.57" fill="#fff" r="1.72"/><circle cx="110.99" cy="123.57" fill="#fff" r="1.72"/><path d="m110.45 162.97h56.41" stroke="#ff8288" stroke-width="1.26"/><path d="m121.96 171.29h56.41" stroke="#ff8288" stroke-width="1.26"/><path d="m121.96 196.96h56.41" stroke="#ff8288" stroke-width="1.26"/><path d="m121.96 205.75h56.41" stroke="#ff8288" stroke-width="1.26"/><path d="m131.89 179.59h37.46" stroke="#aac6ca" stroke-width="1.26"/><path d="m131.89 188.87h37.46" stroke="#aac6ca" stroke-width="1.26"/><path d="m131.89 214.19h37.46" stroke="#aac6ca" stroke-width="1.26"/><path d="m131.89 222.15h37.46" stroke="#aac6ca" stroke-width="1.26"/><circle cx="245.52" cy="190.99" fill="#ecf3f6" r="33.51"/><path d="m239.01 234.87h75.83v17.33h-75.83z" fill="#ecf3f6" stroke="#aac6ca" stroke-width="1.26"/><path d="m254.61 209.5h53.88v25.37h-53.88z" fill="#ecf3f6" stroke="#aac6ca" stroke-width="1.26"/><path d="m308.49 234.87v-25.37h-53.88" fill="#baccd3" opacity=".4"/><path d="m.5 189.9h31.69v31.69h-31.69z" stroke="#aac6ca"/><path d="m4.93 194.34h22.82v22.82h-22.82z" stroke="#aac6ca"/><path d="m387.32 222.08v-31.84h-10.78l-11.46 31.84z" fill="#ecf3f6" stroke="#aac6ca" stroke-width="1.26"/><path d="m308.62 222.08v-40.72l-5.68-13.51v-5.44h48.76v18.95l21.84 40.72z" fill="#ecf3f6"/><path d="m332.29 167.85h-21.3-8.05l5.68 13.51h43.08v-13.51z" fill="#fff"/><path d="m387.32 262.16v25.95l-10.78 5.9-11.49-34.95z" fill="#ecf3f6" stroke="#aac6ca" stroke-width="1.26"/><path d="m377.14 265.27c-12.614184 0-22.84 10.225816-22.84 22.84h-282.3l25-12c3.677485-1.792765 6.007658-5.528809 6-9.62.004207-4.710499-2.61331-9.031908-6.79-11.21l-18.49-9.67c-8.2526926-4.950502-13.304635-13.866364-13.31-23.49h73.59c.670077-.002659 1.31362.261666 1.788377.734546s.741628 1.115372.741623 1.785454v7.36c-.010636 4.638422 1.825892 9.09022 5.103884 12.371964 3.277991 3.281744 7.727685 5.123364 12.366116 5.118036h133.2c4.629766-.007947 9.066603-1.855426 12.333776-5.135727 3.267173-3.280302 5.096843-7.724512 5.086224-12.354273v-10h99.67v12.44c.000696 8.225187-3.293878 16.107805-9.147425 21.886186s-13.778084 8.970808-22.002575 8.863814z" fill="#ecf3f6" stroke="#aac6ca" stroke-width="1.26"/><path d="m308.62 222.08v-40.72l-5.68-13.51v-5.44h48.76v18.95l21.84 40.72z" stroke="#aac6ca" stroke-width="1.26"/><path d="m367.51 267.4h-264.77" fill="#ecf3f6" stroke="#aac6ca" stroke-width="1.26"/><path d="m302.94 167.85h48.76" fill="#ecf3f6" stroke="#aac6ca" stroke-width="1.26"/><path d="m351.7 181.36h-43.51" fill="#ecf3f6" stroke="#aac6ca" stroke-width="1.26"/><path d="m68.44 279.18c20.83 0 20.83 7.53 41.66 7.53s20.83-7.53 41.66-7.53 20.83 7.53 41.67 7.53 20.83-7.53 41.66-7.53 20.83 7.53 41.67 7.53 20.83-7.53 41.66-7.53v84.57h-261.42z" fill="#fff"/><path d="m68.44 279.18c20.83 0 20.83 7.53 41.66 7.53s20.83-7.53 41.66-7.53 20.83 7.53 41.67 7.53 20.83-7.53 41.66-7.53 20.83 7.53 41.67 7.53 20.83-7.53 41.66-7.53" stroke="#aac6ca" stroke-width="1.26"/><path d="m401.75 279.18c-20.83 0-20.83 7.53-41.67 7.53s-20.83-7.53-41.66-7.53l.49 84.57" fill="#fff"/><path d="m401.75 279.18c-20.83 0-20.83 7.53-41.67 7.53s-20.83-7.53-41.66-7.53" stroke="#aac6ca" stroke-width="1.26"/><path d="m319.7 167.85v13.51" fill="#ecf3f6" stroke="#aac6ca" stroke-width="1.26"/><path d="m337.19 167.85v13.51" fill="#ecf3f6" stroke="#aac6ca" stroke-width="1.26"/><path d="m308.19 229.28h100.1" fill="#ecf3f6" stroke="#aac6ca" stroke-width="1.26"/><path d="m65.44 229.28h75.08" fill="#ecf3f6" stroke="#aac6ca" stroke-width="1.26"/><circle cx="320.96" cy="195.25" fill="#fff" r="4.01"/><circle cx="335.47" cy="195.25" fill="#fff" r="4.01"/><circle cx="320.96" cy="209.5" fill="#fff" r="4.01"/><circle cx="335.47" cy="209.5" fill="#fff" r="4.01"/><circle cx="349.42" cy="209.5" fill="#fff" r="4.01"/><path d="m337.19 161.51v-14.08" fill="#ecf3f6" stroke="#aac6ca" stroke-width="1.26"/><path d="m331.46 161.51v-8.05" fill="#ecf3f6" stroke="#aac6ca" stroke-width="1.26"/><path d="m375.2 194.33h12.12" fill="#ecf3f6" stroke="#aac6ca" stroke-width="1.26"/><path d="m174.26 322.71c.219402.214665.468638.39654.74.54-.271362.14346-.520598.325335-.74.54-.921558.920565-1.143774 2.330629-.55 3.49l3.9-3.91 2.22 1.65c4.209713 3.122551 9.969119 3.114422 14.17-.02l2.38-1.77-2.38-1.75c-4.20118-3.118575-9.94882-3.118575-14.15 0l-2.22 1.65-3.9-3.9c-.593974 1.15264-.380177 2.556441.53 3.48z" fill="#baccd3" opacity=".3"/><path d="m142.15 307.93c.219889.221206.472929.406769.75.55-.278772.136236-.532378.318833-.75.54-.916911.918847-1.138859 2.323172-.55 3.48l3.9-3.9 2.22 1.65c4.204409 3.108793 9.945591 3.108793 14.15 0l2.39-1.77-2.39-1.77c-4.20118-3.118575-9.94882-3.118575-14.15 0l-2.22 1.64-3.9-3.9c-.588859 1.156828-.366911 2.561153.55 3.48z" fill="#baccd3" opacity=".3"/><g stroke-width="1.26"><path d="m394.29 155.88c1.865211-.000048 3.653308.74431 4.967509 2.067899 1.314202 1.323588 2.045814 3.116938 2.032491 4.982101" stroke="#ff8288"/><path d="m408.68 155.88c-1.865211-.000048-3.653308.74431-4.967509 2.067899-1.314202 1.323588-2.045814 3.116938-2.032491 4.982101" stroke="#ff8288"/><path d="m415.57 137.82c1.865163-.013323 3.658513.718289 4.982101 2.032491 1.323589 1.314201 2.067947 3.102298 2.067899 4.967509" stroke="#ff8288"/><path d="m430 137.82c-3.865993 0-7 3.134007-7 7" stroke="#ff8288"/><circle cx="75.91" cy="242.38" r="1.99" stroke="#ff8288"/><path d="m75.91 244.49v21.43" stroke="#ff8288"/><path d="m80.98 252.14h-10.13" stroke="#ff8288"/><path d="m64.44 260.48c2.7810012 3.375983 6.9017459 5.363711 11.2750281 5.438747 4.3732822.075037 8.5597919-1.770156 11.4549719-5.048747" stroke="#ff8288"/><path d="m32.19 189.9-31.69 31.69" stroke="#ff8288"/><path d="m357.09 332.8 9.42-10.91h19.56v10.91" fill="#ecf3f6" stroke="#aac6ca"/><path d="m373.55 321.89v-12.37" stroke="#ff8288" stroke-linecap="round"/><path d="m379.61 321.89v-12.82c0-3.313708 2.686292-6 6-6" stroke="#ff8288" stroke-linecap="round"/><path d="m389.3 332.8h-51.17l-13.68 7v23.1l13.68 7h51.17c9.980575-.328204 17.901642-8.51403 17.901642-18.5s-7.921067-18.171796-17.901642-18.5z" fill="#ecf3f6" stroke="#aac6ca"/><path d="m317.85 337.11h-5.48v28.4h5.48l6.6-2.65v-8.05-7-8.05z" fill="#ecf3f6" stroke="#aac6ca"/><circle cx="390.5" cy="351.31" fill="#fff" r="6.4" stroke="#aac6ca"/><circle cx="371.58" cy="351.31" fill="#fff" r="6.4" stroke="#aac6ca"/><circle cx="352.66" cy="351.31" fill="#fff" r="6.4" stroke="#aac6ca"/><path d="m338.13 332.8v37.02" stroke="#aac6ca"/></g><path d="m285.09 356.71c17 0 17 6.14 34 6.14s17-6.14 34-6.14 17 6.14 34 6.14 17-6.14 34-6.14v42.16h-136z" fill="#fff"/><path d="m285.09 356.71c17 0 17 6.14 34 6.14s17-6.14 34-6.14 17 6.14 34 6.14 17-6.14 34-6.14" stroke="#aac6ca" stroke-width="1.26"/><path d="m328.86 382.32c.221256.212464.470168.394103.74.54-.269832.145897-.518744.327536-.74.54-.916911.918847-1.138859 2.323172-.55 3.48l3.9-3.9 2.22 1.65c4.20118 3.118575 9.94882 3.118575 14.15 0l2.38-1.77-2.38-1.77c-4.20118-3.118575-9.94882-3.118575-14.15 0l-2.22 1.65-3.9-3.91c-.593774 1.159371-.371558 2.569435.55 3.49z" fill="#baccd3" opacity=".3"/><path d="m141.22 222.85 46.06 26h-29.19c-4.611658-.003865-9.026489-1.869164-12.243838-5.173112-3.217348-3.303948-4.964757-7.766754-4.846162-12.376888z" fill="#baccd3" opacity=".4"/></g></svg>
