<svg height="256" viewBox="0 0 256 256" width="256" xmlns="http://www.w3.org/2000/svg"><g fill="none" fill-rule="evenodd" transform="translate(30 18)"><g fill="#5e6977"><path d="m44.467 110.527c-.553 0-1-.447-1-1v-5.01c0-.553.447-1 1-1s1 .447 1 1v5.01c0 .553-.447 1-1 1"/><path d="m46.973 108.021h-5.012c-.553 0-1-.447-1-1 0-.552.447-1 1-1h5.012c.552 0 1 .448 1 1 0 .553-.448 1-1 1m65.297-55.251c-.553 0-1-.448-1-1v-5.01c0-.553.447-1 1-1 .552 0 1 .447 1 1v5.01c0 .552-.448 1-1 1"/><path d="m114.776 50.265h-5.012c-.553 0-1-.448-1-1 0-.553.447-1 1-1h5.012c.553 0 1 .447 1 1 0 .552-.447 1-1 1m13.824 41.426c-.553 0-1-.447-1-1v-5.009c0-.553.447-1 1-1 .552 0 1 .447 1 1v5.009c0 .553-.448 1-1 1"/><path d="m131.105 89.187h-5.011c-.553 0-1-.448-1-1 0-.553.447-1 1-1h5.011c.553 0 1 .447 1 1 0 .552-.447 1-1 1m-112.386-18.836c-.553 0-1-.448-1-1v-5.011c0-.553.447-1 1-1 .552 0 1 .447 1 1v5.011c0 .552-.448 1-1 1"/><path d="m21.225 67.846h-5.012c-.553 0-1-.448-1-1 0-.553.447-1 1-1h5.012c.552 0 1 .447 1 1 0 .552-.448 1-1 1m171.411 57.129c-.553 0-1-.448-1-1v-5.011c0-.553.447-1 1-1 .552 0 1 .447 1 1v5.011c0 .552-.448 1-1 1"/><path d="m195.143 122.469h-5.012c-.553 0-1-.448-1-1 0-.553.447-1 1-1h5.012c.552 0 1 .447 1 1 0 .552-.448 1-1 1m-190.243 21.963c-.552 0-1-.448-1-1v-5.01c0-.553.448-1 1-1 .553 0 1 .447 1 1v5.01c0 .552-.447 1-1 1"/><path d="m7.406 141.927h-5.011c-.553 0-1-.448-1-1 0-.553.447-1 1-1h5.011c.553 0 1 .447 1 1 0 .552-.447 1-1 1"/></g><path d="m77.98 70.945c10.686.001 19.813 6.654 23.479 16.041 1.112-2.84 1.729-5.929 1.729-9.166 0-13.924-11.286-25.207-25.208-25.207-13.921 0-25.209 11.285-25.208 25.207 0 3.236.617 6.326 1.726 9.166 3.668-9.388 12.795-16.041 23.482-16.041" fill="#aebfc6"/><path d="m77.98 69.945c9.994.001 18.896 5.531 23.342 14.291.575-2.083.866-4.232.866-6.416 0-13.347-10.86-24.207-24.208-24.207-6.466 0-12.545 2.518-17.118 7.09-4.572 4.572-7.09 10.651-7.09 17.117 0 2.182.291 4.33.864 6.414 4.448-8.759 13.351-14.289 23.344-14.289zm23.479 18.041s0 0-.001 0c-.411 0-.78-.253-.931-.636-3.654-9.357-12.504-15.404-22.547-15.405-10.042 0-18.894 6.047-22.55 15.406-.151.382-.52.635-.932.635s-.781-.253-.932-.635c-1.19-3.048-1.794-6.254-1.794-9.531-.001-7 2.726-13.581 7.676-18.531s11.531-7.676 18.532-7.676c14.451 0 26.208 11.757 26.208 26.207 0 3.28-.605 6.486-1.798 9.531-.15.383-.52.635-.931.635z" fill="#5e6977"/><path d="m84.416 53.445v18.348c7.811 2.06 14.141 7.763 17.043 15.193 1.112-2.84 1.729-5.929 1.729-9.166 0-11.697-7.969-21.531-18.772-24.375" fill="#aebfc6"/><path d="m85.416 71.034c6.888 2.038 12.653 6.855 15.904 13.209.576-2.085.868-4.236.868-6.423 0-10.549-6.834-19.843-16.772-23.041zm16.043 16.952c-.412 0-.781-.253-.932-.635-2.8-7.173-8.92-12.627-16.366-14.591-.439-.115-.745-.513-.745-.967v-18.348c0-.31.144-.602.39-.792s.564-.255.865-.174c11.491 3.024 19.517 13.445 19.517 25.341 0 3.28-.605 6.486-1.798 9.531-.15.383-.52.635-.931.635z" fill="#5e6977"/><path d="m77.979 74.221c3.101.001 6.088.485 8.895 1.375 4.163-8.431 6.677-19.303 6.679-31.184 0-18.875-6.334-35.217-15.573-43.232-9.241 8.015-15.574 24.357-15.575 43.232.001 11.881 2.515 22.755 6.681 31.184 2.805-.89 5.793-1.374 8.893-1.375" fill="#fff"/><path d="m77.979 73.221c2.839.001 5.65.394 8.367 1.171 4.005-8.462 6.205-19.069 6.207-29.98 0-17.628-5.564-33.562-14.573-41.89-9.009 8.326-14.574 24.26-14.575 41.89.001 10.915 2.201 21.521 6.209 29.98 2.716-.777 5.526-1.17 8.365-1.171zm-8.893 3.375c-.372 0-.725-.208-.897-.557-4.374-8.85-6.783-20.081-6.784-31.627.001-18.616 6.102-35.472 15.92-43.988.377-.326.936-.325 1.311.001 9.818 8.518 15.917 25.373 15.917 43.987-.002 11.542-2.41 22.774-6.782 31.626-.218.444-.73.662-1.199.511-5.557-1.761-11.634-1.759-17.183 0-.101.032-.202.047-.303.047z" fill="#5e6977"/><path d="m77.979 19.048c3.916 0 7.751.137 11.494.386-2.748-7.764-6.729-14.122-11.493-18.254-4.764 4.133-8.746 10.49-11.494 18.254 3.743-.249 7.578-.386 11.493-.386" fill="#e5b2ba"/><path d="m77.979 18.048c3.3 0 6.666.098 10.026.293-2.54-6.644-5.98-12.073-10.025-15.819-4.046 3.748-7.486 9.176-10.026 15.819 3.36-.195 6.726-.293 10.025-.293zm11.494 2.386c-.023 0-.044-.001-.067-.002-7.648-.51-15.205-.51-22.853 0-.334.009-.661-.125-.864-.394-.203-.268-.257-.621-.145-.938 2.825-7.984 6.899-14.441 11.781-18.676.377-.326.934-.326 1.311 0 4.88 4.233 8.953 10.691 11.779 18.676.112.317.058.67-.145.938-.19.25-.486.396-.797.396z" fill="#5e6977"/><path d="m77.98 51.084c-1.983 3.336-3.341 10.131-3.341 17.982-.001 7.85 1.358 14.646 3.34 17.982 1.982-3.336 3.343-10.132 3.343-17.983 0-7.85-1.359-14.645-3.342-17.981" fill="#aebfc6"/><path d="m77.98 53.381c-1.447 3.641-2.341 9.491-2.341 15.685-.001 6.193.893 12.041 2.34 15.684 1.449-3.644 2.343-9.493 2.343-15.685 0-6.193-.894-12.042-2.342-15.684zm-.001 34.667c-.352 0-.679-.186-.859-.489-2.148-3.616-3.482-10.702-3.481-18.493 0-7.795 1.334-14.88 3.482-18.493.18-.303.507-.489.859-.489.353 0 .68.186.86.489 2.148 3.615 3.482 10.7 3.482 18.492 0 7.79-1.335 14.876-3.483 18.494-.18.303-.507.489-.86.489z" fill="#5e6977"/><path d="m77.89 51.247v35.636c.03.053.059.113.089.165 1.982-3.336 3.343-10.132 3.343-17.983 0-7.85-1.359-14.645-3.342-17.981-.029.053-.058.111-.09.163" fill="#aebfc6"/><path d="m78.89 56.231v25.665c.903-3.509 1.432-8.069 1.432-12.831 0-4.764-.529-9.325-1.432-12.834zm-.911 31.817h-.002c-.355-.001-.682-.19-.861-.495-.007-.013-.061-.112-.068-.124-.076-.145-.158-.383-.158-.546v-35.636c0-.186.052-.37.151-.528.002-.005.063-.116.065-.12.174-.314.502-.51.86-.515.356.003.692.182.874.489 2.148 3.615 3.482 10.7 3.482 18.492 0 7.79-1.335 14.876-3.483 18.494-.18.303-.507.489-.86.489z" fill="#5e6977"/><path d="m77.979 44.412c-4.825-.002-8.75-3.926-8.75-8.752 0-4.825 3.925-8.751 8.75-8.752 4.826 0 8.751 3.927 8.75 8.752.001 4.826-3.924 8.752-8.75 8.752" fill="#aebfc6"/><path d="m77.979 27.908c-4.274.001-7.75 3.479-7.75 7.752s3.477 7.75 7.75 7.752c2.067 0 4.012-.808 5.478-2.273 1.466-1.466 2.272-3.411 2.272-5.479 0-2.066-.806-4.013-2.272-5.478-1.466-1.466-3.411-2.274-5.478-2.274zm0 17.504c-5.376-.002-9.75-4.377-9.75-9.752 0-5.376 4.374-9.751 9.75-9.752 2.601 0 5.048 1.016 6.892 2.86 1.844 1.843 2.859 4.292 2.858 6.892.001 2.601-1.014 5.049-2.858 6.893-1.843 1.843-4.291 2.859-6.892 2.859z" fill="#5e6977"/><path d="m77.979 30.329c-2.939 0-5.331 2.392-5.331 5.331 0 2.94 2.391 5.33 5.331 5.33s5.332-2.389 5.332-5.33c0-2.938-2.393-5.331-5.332-5.331" fill="#6ca3bb"/><g fill="#5e6977"><path d="m77.979 31.329c-2.387 0-4.331 1.943-4.331 4.331s1.944 4.33 4.331 4.33c2.388 0 4.332-1.942 4.332-4.33s-1.944-4.331-4.332-4.331zm0 10.661c-3.491 0-6.331-2.84-6.331-6.33 0-3.491 2.84-6.331 6.331-6.331 3.492 0 6.332 2.84 6.332 6.331 0 3.49-2.84 6.33-6.332 6.33zm-22.43 125.94c-3.387 0-6.57-1.319-8.965-3.714s-3.714-5.579-3.713-8.966h2c0 2.853 1.11 5.535 3.127 7.552s4.698 3.128 7.551 3.128c5.888 0 10.678-4.79 10.678-10.678v-70.772h2v70.772c0 6.99-5.688 12.678-12.678 12.678m44.322 41.402c-5.849 0-11.347-2.277-15.481-6.412-4.135-4.135-6.412-9.633-6.411-15.482l-.001-87.637h2l.001 87.637c0 5.315 2.068 10.31 5.825 14.068 3.758 3.757 8.753 5.826 14.067 5.826zm27.936-23.224c-.002 0-.003 0-.003 0-2.243 0-4.49-.191-6.678-.568l.34-1.971c2.076.358 4.209.539 6.337.539h.004c9.887 0 19.181-3.849 26.172-10.84 6.993-6.993 10.843-16.289 10.843-26.176h2c0 10.422-4.058 20.221-11.428 27.59s-17.166 11.426-27.587 11.426"/><path d="m99.955 174.421c-7.203-7.339-11.17-17.045-11.17-27.329v-66.727h2v66.727c0 9.758 3.764 18.966 10.598 25.929z"/><path d="m128.002 177.352c-17.673 0-32.051-14.378-32.051-32.052s14.378-32.052 32.051-32.052c17.674 0 32.053 14.378 32.053 32.052h-2c0-16.571-13.482-30.052-30.053-30.052-16.57 0-30.051 13.481-30.051 30.052 0 16.57 13.481 30.052 30.051 30.052z"/><path d="m128.002 167.388c-5.659 0-11.317-2.154-15.625-6.461l1.414-1.414c7.836 7.836 20.588 7.834 28.424 0 3.796-3.797 5.887-8.845 5.887-14.214 0-5.368-2.09-10.416-5.887-14.212s-8.844-5.887-14.212-5.887c-5.369-.001-10.416 2.09-14.212 5.887l-1.414-1.414c4.173-4.174 9.722-6.473 15.625-6.473h.001c5.902 0 11.451 2.299 15.626 6.473 4.174 4.174 6.473 9.723 6.473 15.626s-2.299 11.453-6.473 15.628c-4.309 4.307-9.968 6.461-15.627 6.461m-95.879 46.992c-1.342 0-2.691-.083-4.045-.253-17.535-2.195-30.015-18.25-27.822-35.787 1.063-8.494 5.372-16.067 12.131-21.321s15.161-7.563 23.654-6.498l-.248 1.985c-7.964-.997-15.84 1.166-22.179 6.092-6.337 4.926-10.377 12.026-11.374 19.99-2.056 16.443 9.646 31.496 26.086 33.555 7.967.994 15.843-1.167 22.18-6.096 6.338-4.928 10.377-12.027 11.373-19.992l1.984.248c-1.062 8.495-5.37 16.067-12.13 21.323-5.682 4.418-12.526 6.754-19.61 6.754"/><path d="m32.071 205.506c-.954 0-1.919-.06-2.89-.181-12.684-1.59-21.71-13.2-20.121-25.881.768-6.143 3.883-11.62 8.772-15.421 4.888-3.8 10.965-5.472 17.106-4.701l-.248 1.985c-5.618-.707-11.165.822-15.63 4.296-4.467 3.472-7.314 8.476-8.016 14.089-1.451 11.588 6.796 22.197 18.385 23.649 11.602 1.44 22.197-6.802 23.647-18.387l1.985.248c-1.466 11.709-11.478 20.304-22.99 20.304"/><path d="m54.536 173.776c-2.552 0-5.084-.605-7.422-1.8-3.882-1.986-6.758-5.366-8.097-9.516-1.341-4.149-.986-8.574 1.001-12.456 1.987-3.883 5.367-6.759 9.516-8.1 4.149-1.34 8.573-.984 12.457 1.005l-.912 1.779c-3.406-1.745-7.288-2.056-10.931-.88-3.64 1.176-6.606 3.7-8.349 7.107-1.743 3.406-2.056 7.289-.88 10.931 1.177 3.641 3.7 6.606 7.106 8.348 3.409 1.745 7.292 2.058 10.932.88 3.642-1.176 6.606-3.7 8.35-7.107l1.781.91c-1.986 3.883-5.366 6.76-9.516 8.101-1.652.534-3.348.798-5.036.798m107.431 32.261c-9.01 0-16.339-7.329-16.339-16.338h2c0 7.906 6.433 14.338 14.339 14.338 7.905 0 14.337-6.433 14.337-14.34h2c0 9.01-7.329 16.34-16.337 16.34"/><path d="m163.295 213.716c-2.185 0-4.379-.343-6.518-1.033-5.371-1.736-9.744-5.458-12.315-10.484l1.781-.91c2.327 4.549 6.287 7.919 11.15 9.49 4.861 1.57 10.044 1.154 14.594-1.175 4.55-2.327 7.921-6.287 9.492-11.149 1.57-4.862 1.153-10.046-1.175-14.597-4.808-9.389-16.359-13.119-25.744-8.314l-.913-1.78c10.372-5.307 23.128-1.188 28.437 9.183 2.571 5.027 3.032 10.752 1.298 16.123-1.736 5.371-5.458 9.744-10.484 12.315-3.023 1.548-6.301 2.331-9.603 2.331m-61.168 5.889c-4.836 0-9.712-1.485-13.896-4.565l1.186-1.611c9.54 7.026 23.015 4.977 30.04-4.559 3.402-4.62 4.803-10.289 3.941-15.963-.861-5.674-3.879-10.673-8.501-14.075-9.539-7.024-23.013-4.979-30.039 4.56l-1.611-1.186c7.68-10.427 22.41-12.661 32.836-4.985 5.052 3.72 8.352 9.184 9.293 15.386s-.589 12.399-4.31 17.449c-4.597 6.243-11.723 9.548-18.939 9.549"/></g></g></svg>