<svg enable-background="new 0 0 32 32" height="32" viewBox="0 0 32 32" width="32" xmlns="http://www.w3.org/2000/svg"><path d="m16 0c-8.8 0-16 7.2-16 16s7.2 16 16 16 16-7.2 16-16-7.2-16-16-16zm6.4 12.7v.4c0 4.3-3.3 9.3-9.3 9.3-1.9 0-3.6-.5-5-1.5h.8c1.5 0 3-.5 4.1-1.4-1.4 0-2.6-1-3.1-2.3.2 0 .4.1.6.1.3 0 .6 0 .9-.1-1.5-.3-2.6-1.6-2.6-3.2.4.2.9.4 1.5.4-.9-.6-1.5-1.6-1.5-2.7 0-.6.2-1.2.4-1.7 1.6 2 4 3.3 6.8 3.4-.1-.2-.1-.5-.1-.7 0-1.8 1.5-3.3 3.3-3.3.9 0 1.8.4 2.4 1 .7-.1 1.5-.4 2.1-.8-.2.8-.8 1.4-1.4 1.8.7-.1 1.3-.3 1.9-.5-.6.8-1.2 1.4-1.8 1.8z" fill="#444"/></svg>