<svg enable-background="new 0 0 32 64" height="64" viewBox="0 0 32 64" width="32" xmlns="http://www.w3.org/2000/svg"><g fill="none" stroke-linecap="square" stroke-miterlimit="10" stroke-width="2"><g stroke="#8e9ba0"><path d="m5.183 9.113c-1.489 0-2.705-1.216-2.705-2.705 0-1.487 1.216-2.704 2.705-2.704 1.487 0 2.704 1.217 2.704 2.704 0 1.489-1.217 2.705-2.704 2.705z"/><path d="m9.239 21.284v6.762h-5.409v-5.409l-2.705-4.058v-5.408h8.114"/><path d="m26.818 9.113c1.487 0 2.706-1.216 2.706-2.705 0-1.487-1.219-2.704-2.706-2.704-1.487 0-2.703 1.217-2.703 2.704 0 1.489 1.216 2.705 2.703 2.705z"/><path d="m22.762 21.284v6.762h5.409v-5.409l2.704-4.058v-5.408h-8.113"/><path d="m16 9.113c-2.231 0-4.058-1.826-4.058-4.056.001-2.231 1.827-4.057 4.058-4.057 2.231 0 4.058 1.826 4.058 4.057.001 2.231-1.827 4.056-4.058 4.056z"/><path d="m18.706 30.75h-5.41v-5.41l-4.057-4.056v-8.113h13.523v8.113l-4.056 4.056z"/></g><path d="m5.185 41.363c-1.489 0-2.705-1.217-2.705-2.705 0-1.486 1.216-2.703 2.705-2.703 1.486 0 2.703 1.217 2.703 2.703 0 1.488-1.217 2.705-2.703 2.705z" stroke="#da4843"/><path d="m9.239 53.534v6.762h-5.408v-5.409l-2.705-4.058v-5.408h8.113" stroke="#da4843"/><path d="m26.819 41.363c1.487 0 2.706-1.217 2.706-2.705 0-1.486-1.219-2.703-2.706-2.703-1.487 0-2.703 1.217-2.703 2.703 0 1.488 1.216 2.705 2.703 2.705z" stroke="#da4843"/><path d="m22.763 53.534v6.762h5.409v-5.409l2.704-4.058v-5.408h-8.113" stroke="#da4843"/><path d="m16.001 41.363c-2.23 0-4.057-1.826-4.057-4.057 0-2.23 1.826-4.057 4.057-4.057 2.231 0 4.059 1.826 4.059 4.057 0 2.231-1.828 4.057-4.059 4.057z" stroke="#da4843"/><path d="m18.707 63h-5.409v-5.41l-4.059-4.056v-8.113h13.524v8.113l-4.056 4.056z" stroke="#da4843"/></g></svg>