<svg height="113" viewBox="0 0 118 113" width="118" xmlns="http://www.w3.org/2000/svg"><g fill="none" fill-rule="evenodd" transform="translate(.083217 .647968)"><path d="m26.6207529 86.4152273.294393-.6869168.038162-.098131c.2289723-.5451721.4579446-1.1176028.6760134-1.6845817.2889412-.7468858.5451721-1.4992233.8341133-2.2297539.1580999-.4252342.3107481-.8504684.468848-1.2702509.370717-1.0085684.877727-2.3551434 1.4937715-3.652653.3652653-.7577892.6651099-1.3247682.975858-1.8481334s.7196272-1.1339579 1.0903442-1.6736783l.3380067-.4579445.4742997-.2998447c.0702157-.0476104.143017-.0912912.2180689-.1308413.2178792-.1222371.4437257-.2296964.6760133-.3216515.332555-.136293.7250789-.2725861 1.1884752-.4143308.6487548-.1908102 1.3629302-.370717 2.2515607-.5451721 1.2647992-.2780377 2.6658915-.5451721 4.4104422-.8068547 2.6113743-.4143308 5.3972036-.7795961 8.7718188-1.1503131 5.9478275-.643303 11.8629446-1.0903441 17.5817998-1.3956405 3.0257051-.1417448 5.3426864-.2071654 7.5124713-.2071654h1.368382c1.5402732.0051131 3.0787639.1052515 4.6067041.2998446.483454.0671993.9597412.1785155 1.4228991.332555.1417448.0490655.2616826.1035827.3380067.136293l.4470411.2017137.3543619.332555c.1471965.136293.2943929.272586.4361377.4197825.5643912.5654378 1.0941697 1.164397 1.5864507 1.7936162 1.8720921 2.4408793 3.4494701 5.0942414 4.6993834 7.9049952 1.2085444 2.5659637 2.1053803 5.2674531 2.6713432 8.04674l.6760134 3.5490703h-8.3847467l-.5015583-2.3660469c-.5451721-2.5732122-7.479761-9.3497013-10.9307003-10.6853729-.3489101-.1308413-1.8372299-.5451721-6.3730617-.5451721-9.3497012 0-22.6191898 1.6627749-24.5327438 2.0607505-2.2352056 1.0412787-5.7025001 5.4953346-7.6705713 9.8785182l-.8068547 1.8045196" fill="#fff" fill-rule="nonzero"/><path d="m84.1091494 72.9494768c-.4222437-.5401246-.8754996-1.0552709-1.3574785-1.542837l-.3434584-.3271033-.0872276-.0327103c-.2772219-.0888755-.5618492-.1527342-.8504684-.1908102-1.3941513-.1766037-2.797985-.2658227-4.2032768-.2671343-2.8785086-.0381621-5.7842758.0545172-8.6845913.1908102-5.8060827.2834895-11.6176172.7523375-17.401893 1.3847371-2.889412.3161998-5.7733724.6760134-8.6300741 1.1285062-1.4228992.2235206-2.8457983.468848-4.2359871.7741444-.6923686.1471964-1.3792854.3107481-2.0280402.50701-.3216515.0926793-.6323996.2017137-.9049856.3107481-.1195916.0472079-.2361213.1018312-.3489102.1635516l-.0545172.0327103c-.3434584.4633963-.6542065.9322443-.9540511 1.4228992-.2998447.4906549-.5778824 1.0467304-.839565 1.5973542-.5179135 1.0903442-.9649546 2.246109-1.3956406 3.4127773-.4306859 1.1666682-.8504684 2.3496916-1.3138647 3.5272634-.2235206.5887858-.4579446.9976649-.703272 1.5864507-.1144861.2780378-.234424.6542065-.3543619.6542065h3.9197873c2.1207195-4.9065487 6.1004757-9.9657457 9.4423806-11.3286759.9213408-.3761688 15.7336664-2.1316229 25.524957-2.1316229 3.6308461 0 6.1440894.1308413 7.4743093.6487548 4.0124666 1.5482887 11.9937859 8.9953394 12.8169957 12.811544h2.2733676c-.4900696-2.5090198-1.3113818-4.9417905-2.4423709-7.2344336-1.1486648-2.5310235-2.5983864-4.914278-4.3177629-7.0981405z" fill="#ba8449" fill-rule="nonzero"/><path d="m82.3773229 71.0540987-.0063621-.0063621-.0063621-.0063621.0190863.0190862z" fill="#fff" fill-rule="nonzero"/><path d="m82.3773229 71.0540987-.0063621-.0063621-.0063621-.0063621.0190863.0190862z" fill="#ba8449" fill-rule="nonzero"/><path d="m88.3178779 90.5530834-.468848-2.420564c-.4744485-2.3105299-1.2229947-4.5561685-2.2297538-6.6892615-1.0464441-2.3558912-2.3656932-4.5808661-3.9306908-6.6292926-.2889412-.3598136-.5451721-.6760134-.839565-.9704063-1.2164855-.1359111-2.4395039-.2050699-3.6635564-.2071654h-1.2429924c-2.0716539 0-4.3014077.0599689-7.2180784.196262-5.5989173.2780377-11.3886448.7359823-17.2110827 1.3683819-3.2710325.3652653-5.9696344.7141754-8.4883294 1.0903442-1.6355163.2562309-2.9166707.4906549-4.061532.741434-.7359823.1580999-1.308413.3052964-1.8045196.4470411l-.1908103.059969c-.1090344.174455-.2180688.3434584-.3271032.545172-.2071654.3543619-.430686.7686927-.7087237 1.3465751-.4961066 1.0467304-.9213409 2.1806883-1.2757027 3.1401912-.1580999.4252342-.3107481.8341133-.4579446 1.2484441-.2780377.7632409-.545172 1.5482887-.877727 2.3442399-.234424.5996893-.4797515 1.2211855-.7359823 1.8208748l-.0327104.0872275c-.1090344.2616826-.2235205.4579446-.3380067.7250789l-.7959512 1.7554541h-5.3753968l-.7686926-.3107481h-.0817758c-1.2403839-.5887223-1.9602355-1.909551-1.7827127-3.2710325v-.136293l.0981309-.4143308.1308413-.5015583c.0926793-.3489101.1908103-.6814651.2889412-1.0140201.196262-.6814651.4034274-1.3302199.6214962-1.9626195.4088791-1.2157337.9049857-2.480533 1.5101267-3.8543666.605141-1.3738337 1.2593475-2.6549881 1.9081023-3.8162046.3271032-.5887859.703272-1.2157338 1.1448614-1.8917472.4415894-.6760133.8722753-1.2920578 1.346575-1.8917471.2985215-.3829593.6489896-.7224179 1.0412787-1.0085684.2226082-.159647.4537395-.3070614.6923686-.4415893.3178134-.1718124.6454858-.3247262.9813097-.4579446.4746014-.1900122.958621-.3555978 1.4501578-.4961066.9267925-.272586 1.7936161-.4633963 2.4532743-.605141 1.3411234-.2780378 2.7258605-.5451721 4.5630904-.801403 2.6549881-.4034273 5.4517209-.7523375 8.9026602-1.0903442 5.9968929-.6160444 11.9937859-1.0521821 17.7508031-1.2975095 2.7640225-.1144862 4.9065487-.1635516 6.9073303-.1635516h2.1207194c1.6722189.0075947 3.3421661.1241449 4.999228.3489101h.0545173c.6043893.09134 1.1992471.2373174 1.777261.4361377h.038162c.2661675.0952322.5249222.2100319.7741444.3434584.188435.1034705.3704866.2181631.545172.3434584l.2235206.1635516.1744551.1417448.1799068.1635516c.174455.1635516.3489101.3271032.5124617.4961066.6261845.6386879 1.215904 1.312133 1.7663576 2.0171367 1.9750392 2.6064513 3.6348093 5.4373932 4.9447108 8.4338122.6631722 1.4767459 1.2437669 2.9892044 1.7390989 4.53038.4864433 1.4782576.8618382 2.990771 1.1230545 4.5249283l.5724307 3.4727462z" fill="#fff" fill-rule="nonzero"/><path d="m29.5592305 90.5530834 2.0607505-4.2796008c1.7118403-3.6472013 5.8224378-10.2764939 10.3582696-12.1355307h.0872275c1.5319336-.5724307 16.9003347-2.3442399 26.250036-2.3442399 5.2609106 0 7.2235301.5451721 8.2430019.9213408 4.7429971 1.8263265 12.9750956 9.5623184 14.0872467 14.1472156l.9158891 3.7071702z" fill="#fff" fill-rule="nonzero"/><path d="m85.2703659 90.5530834-.5451721-2.2624641c-.545172-2.1534298-7.0054613-8.6355259-10.3582696-9.9275837-.3107481-.1199379-1.6355162-.4906549-6.0459584-.4906549-9.0389532 0-22.0631143 1.602806-24.1947372 2.0171367-1.7554541.8722754-4.9065488 4.5412835-6.9836544 8.9735326l-.839565 1.6900334h-7.6814747l1.9353609-4.2359871c2.2624642-5.0482935 6.6947132-11.2578035 11.0669933-13.045968 1.6845818-.6923685 17.2546966-2.4314675 26.6807219-2.4314675 4.1105975 0 6.836458.3216515 8.5755569.9922132 4.726642 1.8263265 13.6020436 9.8130976 14.7196463 15.1121702l.7577892 3.6090392z" fill="#fff" fill-rule="nonzero"/><path d="m88.7812742 90.5530834-.8777271-.7468857c-3.320098-3.085674-4.2305354-9.4314771-3.1947084-12.0646583.5708291-1.73236 2.402953-2.7096528 4.159663-2.2188504.5833341-.038162 1.9844264-1.17212 2.3987572-1.8535851.6636322-1.2353379 1.9733648-1.9843611 3.3746152-1.9299091 2.2624641 0 5.9205689 1.7936161 7.1199479 3.4891013.670776.9041087.854222 2.080198.490654 3.1456429-.03271.0872276-.087227.2671344-.174455.5124618-1.242992 3.7344288-2.845798 8.2211951-4.1596627 10.3092041l-.877727 1.3574785z" fill="#fff" fill-rule="nonzero"/><path d="m88.5032364 90.5530834 2.8457983-4.5794455c1.1071165-1.7634005 2.0978063-3.5972693 2.9657361-5.4898829-1.6082576 1.1230545-3.8707218 1.875392-7.2071749 2.0225885l-.0926793-.0654207-.0599689.3107481c-1.4694996-.0218106-2.7904396-.9010535-3.3777201-2.2482751-.5872806-1.3472217-.332355-2.9134156.6518596-4.0048487.6523349-.7234889 1.5673378-1.1554646 2.540502-1.1993786 3.2710325-.1471965 3.6962667-.9213408 4.3123112-2.0880091.8341133-1.5646439 2.6386329-2.4696296 4.9556142-2.4696296.584769-.0026846 1.1680326.0594814 1.739099.1853586 2.7765424.5120072 4.8198944 2.8913779 4.9065484 5.7134034.130842 2.9112189-1.450157 7.0872371-4.699383 12.4953442l-.8886305 1.4174474z" fill="#fff" fill-rule="nonzero"/><path d="m100.627864 81.6340681c-3.7235258 0-7.7741544-2.4260158-9.85126-4.8193212-1.8917471-2.1806884-2.0771057-4.0996941-1.9026506-5.331783.2630386-1.8270108 1.8807574-3.148661 3.7235254-3.0420603.3983819.0055557.7957325.0420098 1.1884751.1090345.3652653-1.6355163 1.2375406-5.0864556 4.764804-5.0864556.1598164-.0080283.3199351-.0080283.4797515 0 1.6463676.1426968 3.0362716 1.2814649 3.5000046 2.8676052.59629-.3154923 1.260752-.480204 1.935361-.4797515 1.117484.0074542 2.18094.4818584 2.933026 1.308413 1.245983 1.320618 1.543484 3.2750045.746886 4.9065488.847302.5245844 1.467671 1.347205 1.739099 2.3060779.383243 1.3108821.12452 2.7257723-.697821 3.8162046-1.635516 2.2297539-5.326331 3.320098-8.292067 3.418229z" fill="#fff" fill-rule="nonzero"/><path d="m96.9206934 5.87150336c-3.3691635 2.10981597-7.0490751 6.95094414-11.5303896 13.57478494-.7071841 1.0446973-1.895242 1.6602713-3.1565464 1.6355163-1.6627749 0-3.7507839-.997665-6.1931549-2.9657362-3.8761735-3.1183843-3.9579493-4.9065488-3.9906597-5.5444001-.0937656-1.8656074 1.3206579-3.46409973 3.183805-3.59813577 3.7235254-.34891013 6.8091994-2.57866396 9.8130976-4.7320937s5.7679206-4.15966302 9.0716635-4.15966302c.660492-.0014438 1.3183776.08285352 1.9571678.25077916" fill="#fff" fill-rule="nonzero"/><path d="m75.5390442 12.010141c9.0062429-.839565 14.2726052-10.17291107 19.7624881-8.72275332-3.6635564 2.28972276-7.3271128 6.89097512-12.4353753 14.44706022-1.2048303 1.7718093-9.7803872-5.4953346-7.3271128-5.7243069z" fill="#fff8ef" fill-rule="nonzero"/><path d="m17.1456621 7.68692641c2.246109-2.07710565 5.2881692-3.12928777 9.0335015-3.12928777 3.2274187 0 7.0381716.79049952 11.3286759 2.34969169 1.2381412.3629869 2.5268768.52315832 3.8162046.47429971h.9049857.7632409c1.0903442 0 3.3310014 0 4.257794 2.08800909.603624 1.42328947.4086563 3.05977327-.5124618 4.30140777-1.4883198 2.3333365-5.5062381 4.8193212-9.3497013 4.8193212h-.1853585c-2.0662022 0-4.0124665-1.0903441-6.269479-2.3714986-2.8130879-1.5700956-5.9968929-3.3473566-9.7422251-3.3473566-.5232733-.0003716-1.0459863.0342331-1.5646439.1035827" fill="#fff" fill-rule="nonzero"/><path d="m86.5079066 30.0389819c-1.6682266 0-4.7648041-.6923685-6.7873925-5.3644933-.9222594-2.1776562-1.4235723-4.5103337-1.4774164-6.87462 0-3.2710325 1.7063887-4.1105975 2.7258605-4.3613767.7359823-.7468857 2.1152677-2.6113743 3.1565463-4.01791826 4.2250837-5.68614485 7.2453371-9.42057364 10.761697-9.42057364.5822228-.0013634 1.1594147.10778506 1.7009369.32165153 4.7539006 1.90265058 7.0327196 5.88785853 6.2531236 10.93615207-.545172 3.728977-2.8839601 8.1775813-6.3512545 12.1791444-1.6355163 1.8808437-5.8115345 6.2967376-9.5023495 6.5747753z" fill="#fff" fill-rule="nonzero"/><path d="m32.1651531 31.6744982c-.3991241.0327029-.8002545.0327029-1.1993786 0-5.8878586-.9595029-13.2367783-6.8800717-16.0117042-12.9969025-1.8971988-4.1814699-1.0467304-7.0272682 0-8.69549481 1.5233356-2.60313858 4.3333028-4.18113948 7.3489197-4.12695269 3.750784 0 7.5288265 2.06620221 10.859828 3.88707697 1.2647992.67056163 3.123836 1.70638863 3.9088838 1.89719883.2887916-.0849245.5876618-.1307635.8886305-.136293 1.2239934.0244468 2.341123.7026297 2.9275741 1.777261 1.5264819 2.6549881.605141 9.7749355-1.7936161 13.9345985-1.6682266 2.9275741-4.1433079 4.4595077-6.9291372 4.4595077z" fill="#fff" fill-rule="nonzero"/><path d="m52.65272 82.9206742c-13.8092089 0-27.4494145-6.7056166-31.9852462-11.6012619-4.7375455-5.1137142-6.465741-10.8707314-5.1409728-17.1892759 1.0903442-5.1900383 3.9852079-9.8458079 6.542065-13.9727606 1.7609059-2.8348948 3.4236807-5.5116898 3.8598184-7.4361472 5.6098208-24.77807131 19.686164-27.95097285 31.3146846-27.95097285.741434 0 1.5210301 0 2.3769503.03816205 24.7726196.74688575 27.2586043 12.713413 28.7251172 19.8660708.1985409 1.1574088.4902479 2.2968893.8722753 3.4073255 8.3138743 20.4275981 9.6822563 32.6667114 4.590349 40.936972-5.0046798 8.1285157-15.9898973 12.0864651-37.9003634 13.8528226-1.0903442.0817759-2.1806884.0490655-3.2710325.0490655z" fill="#fff" fill-rule="nonzero"/><path d="m28.8941205 33.4026937c-1.9353609 8.5482983-18.8247921 22.0794695-5.9968929 35.9213887 4.3613767 4.7102868 18.8738576 11.699393 32.7648424 10.5817902 37.6168739-3.0311568 46.296013-12.4135684 30.7258987-50.6737454-2.5295985-6.2204135.3052964-20.5529876-26.8606287-21.365294-11.3995483-.34345842-25.1160779 1.22118547-30.6332195 25.5358605z"/><path d="m52.1402583 83.1223879c-14.0599881 0-27.089601-7.0000096-31.4727845-11.7266516-4.7375455-5.1137141-6.465741-10.9034417-5.1409728-17.2274379 1.0903442-5.1900382 3.9852079-9.862163 6.542065-13.9891157 1.7609059-2.8403465 3.4236807-5.5225932 3.8598184-7.4470507 5.6098208-24.77807127 19.686164-27.95642453 31.3146846-27.95642453.741434 0 1.5210301 0 2.3769503.03816205 24.7726196.74143403 27.2586043 12.70796128 28.7251172 19.86061908.1985409 1.1574088.4902479 2.2968893.8722753 3.4073255 8.1775813 20.1059466 9.5296081 32.2196703 4.5031215 40.506286-5.762469 9.5023495-19.2718333 12.6098303-37.7749739 14.354381-1.2320889.1199379-2.518695.1799068-3.8053011.1799068z" fill="#fff" fill-rule="nonzero"/><path d="m87.9471609 65.8349811c.1690033-.4143308.3489101-.8504685.5451721-1.3029613 1.9026505-4.5249283 3.2710325-8.4719742 1.0358269-10.9743141-2.6604398-2.949381-13.9673088-8.2539054-23.943958-12.9805474-19.1682505-9.0389531-31.0039365-14.8722945-32.7103251-20.7165392-.4456683-1.4382523-.2468449-2.9990155.5451721-4.2796009 3.2710325-5.1845865 12.5389579-10.76169696 25.1705952-10.76169696h.3816204c11.8902032.10358269 20.5584394 3.53271511 25.7593811 10.18381456 4.394087 5.6207242 5.3917519 12.1736927 6.1168308 16.9548519.2507791 1.6355162.545172 3.6635564.877727 4.2196319 9.0171466 15.4992424 4.9065488 26.9260493 1.6355163 32.3559633z" fill="#fff" fill-rule="nonzero"/><path d="m36.0304231 17.2274379c-4.9556142 7.8559298 48.2368262 25.9229327 55.760201 34.2858725 4.1215009 4.5794455.7141754 11.1923829-1.0140201 15.4665321 1.6028059-2.6713433 7.577892-13.378523-1.6355163-29.2539342-2.9602844-5.0864555 1.6355163-29.55923046-30.1425646-29.83726822-12.2391133-.10903442-20.427598 5.32087952-22.9681 9.33879782z"/><g fill-rule="nonzero"><path d="m78.5320389 48.0296608c-4.6503178 0-12.4081166-1.1557649-15.1012667-3.7289771-2.109816-2.0171367-2.9221224-5.3481382-3.7017185-8.6028155-.3384616-1.5587212-.8052664-3.0867775-1.3956405-4.5685421h-.0436138c-.1962619.5451721-.4197825 1.0903442-.605141 1.6355163-1.2593475 3.5109082-2.9766396 8.3138743-6.6347443 10.9034417-1.5755473 1.1285062-7.2017232 2.1806883-11.5740034 2.1806883-4.3613767 0-7.6705712-.9485994-9.8676147-2.8076362-3.1674498-2.676795-5.5825622-7.5942472-7.1744647-14.6051602l-.2180688-.1417448c-.9276093-.5069613-1.6958742-1.2620127-2.2188504-2.1806883-.8286616-1.6627749-.4906549-4.6176076.370717-6.1549928.5852176-1.1177209 1.6938505-1.8656896 2.949381-1.9898782h.3870722c.6850958.023648 1.3670652.1038797 2.0389436.2398758.7657918.1525831 1.5422647.2455412 2.3224331.2780377.1379575.0091853.2763732.0091853.4143308 0 4.0367305-.6167854 8.1121186-.9465329 12.1954995-.9867614 9.0662118 0 13.8255641 1.8590368 15.6137285 2.556857l.3598136.1362931c.8100562.1999087 1.6407482.3042027 2.4750813.310748.3648355.0015589.7292838-.0239525 1.0903442-.076324 3.8365786-.6004488 7.7126018-.9138837 11.5958102-.937696 9.5677701 0 14.6433223 2.1806883 16.8131072 3.1183843l.4797514.2017137h.1853585c.7468926-.0485915 1.487777-.1653811 2.2133987-.3489102.5724307-.1253895 1.1176027-.2398757 1.6355162-.2998446.1429329-.0172026.2867248-.0263034.430686-.0272586 1.4872604.0262739 2.8345912.8830921 3.4891013 2.2188504.8722754 1.5973542 1.4610612 4.9719694.234424 6.9018786-.8177581 1.2866061-2.1806883 1.8971988-3.2710325 2.3878537l-.4633963.2126171c-.3652653.6269479-1.0194718 1.9244575-1.5646439 2.9984465-1.5973542 3.1565464-3.4018738 6.7274235-5.0646486 8.651881-1.4501578 1.6954852-4.1978251 2.5241468-8.3956502 2.5241468z" fill="#fff"/><path d="m76.6784539 47.2555164c-3.6853633 0-8.8590464-.5451721-12.5880235-3.1783533-2.1370746-1.4992232-3.0965775-4.5630903-4.4267973-9.4260253-.3676831-1.4561337-.8117031-2.8919198-1.3302199-4.3014078-.234424.5451721-.5015583 1.2866061-.7250789 1.8808437-1.3847371 3.7071702-3.2710325 8.788174-6.7165201 10.9034417-1.7718093 1.0903442-7.3325646 2.0989126-11.6612309 2.0989126-4.6339627 0-7.9758676-1.035827-9.9275837-3.0747706-4.9065488-5.1464245-5.898762-10.0638767-6.4766444-12.9969025-.0817758-.4197825-.1853585-.9485995-.2780377-1.308413-2.8894121-1.5155784-3.0802223-3.7780426-3.0202534-4.7211903.078017-1.7341463 1.4970687-3.1053379 3.2328705-3.1238361.8833335.0339636 1.7313886.3555736 2.4151123.9158891l.1690034.1144862.2453274.0763241c1.7599936.398475 3.0928375 1.8396802 3.3528083 3.6253943.5230547 2.2251971 1.2007133 4.4111924 2.0280402 6.5420651 1.9081023 4.9065487 3.2383222 5.7515655 3.3528083 5.8169861 1.7608523.5654317 3.6025742.8380066 5.4517209.8068547 2.5009256.0036077 4.9885495-.3638404 7.38163-1.0903442.6814651-1.0903441 2.0662022-3.8162046 3.0257051-5.7134034 2.9166706-5.762469 3.4127772-6.6347443 4.6230593-7.2671439.7928676-.3882768 1.6690914-.5755041 2.5514053-.5451721 1.4652124.0147895 2.9181612.2689174 4.3014078.7523375 2.1261711.8995339 3.2710325 3.6799116 5.6915966 10.8053107.4361376 1.2811544 1.0085683 2.949381 1.3520267 3.8162046 1.8317782.8831788 5.996893 1.4937715 10.4073352 1.4937715 1.2429923 0 2.147978-.0490655 2.7258604-.1035827.4143308-.8559201 1.0031166-2.1043642 1.5101267-3.1783532 3.5272634-7.4852128 4.0560803-8.3356812 4.9774211-9.0389532 1.686273-1.1491621 3.6541442-1.8164287 5.6915966-1.9299092 1.6287905-.0906317 3.0753845 1.032688 3.3909704 2.6331812.4906548 2.6876984-2.109816 3.6799116-2.9602845 4.0070148-.2071654.0763241-.5451721.2071654-.7741443.3107481-.3161998.5451721-.9049857 1.7281955-1.4010923 2.7258604-3.7562357 7.3652749-5.0210349 9.3769599-6.443934 10.2274284-1.6900335.9813097-5.9314723 1.444706-9.1479876 1.444706z" fill="#fff" opacity=".3"/><path d="m28.2344623 25.4813433c-1.2795048-.0587437-2.5408674-.3257475-3.7344288-.7904995-.5778824-.1908103-1.0303752-.3707171-1.3411233-.4906549-.6760134-.2616826-2.4423709-.9485994-2.4423709-3.0584154v-3.0965775h2.9929947c.309743.0062006.6167379.0595111.9104374.1580999.6378513.0926793 2.7258604.2507792 3.418229.2998447l.4034273.0327103c.5451721 0 2.246109-.2289723 2.9766396-.3380067.5114719-.0901201 1.0290653-.1411504 1.5482887-.1526482h2.6386329l.4088791 2.5950192c.221652 1.5289991-.7257094 2.9850422-2.2133987 3.4018738l-.6814651.234424c-1.4721821.6212419-3.0250285 1.0305619-4.6121558 1.2157337z" fill="#fff" opacity=".3"/><path d="m88.9829878 29.9081406c-1.3008586-.0875075-2.5443472-.5685512-3.5654254-1.3792854-1.3247682-.9267925-2.5514054-1.8208747-2.5514054-3.4400358v-3.047512h3.2001602c.456156.000393.9079054.0892617 1.3302199.2616826.3434584.1471965 1.6355162.5451721 2.1806883.6760134.1853585-.0272586.5887859-.1853585 1.3193165-.3380067.3101494-.111242.6321221-.186247.9595028-.2235205h2.5950191l.4197826 2.6604397c.250326 1.4986479-.6256146 2.9570082-2.0662022 3.4400359-.1090345.0436138-.3870722.2071654-.5451721.2998447-.8484841.4901179-1.7681249.8450993-2.7258605 1.0521821-.1821695.0279313-.3663428.0406958-.5506238.038162z" fill="#fff" opacity=".3"/><path d="m67.601339 87.282051h10.903442v9.813098h-10.903442z" fill="#fff"/><path d="m84.1091494 72.9494768c-.4222437-.5401246-.8754996-1.0552709-1.3574785-1.542837l-.3434584-.3271033-.0872276-.0327103c-.2772219-.0888755-.5618492-.1527342-.8504684-.1908102-1.3941513-.1766037-2.797985-.2658227-4.2032768-.2671343-2.8785086-.0381621-5.7842758.0545172-8.6845913.1908102-5.8060827.2834895-11.6176172.7523375-17.401893 1.3847371-2.889412.3161998-5.7733724.6760134-8.6300741 1.1285062-1.4228992.2235206-2.8457983.468848-4.2359871.7741444-.6923686.1471964-1.3792854.3107481-2.0280402.50701-.3216515.0926793-.6323996.2017137-.9049856.3107481-.1195916.0472079-.2361213.1018312-.3489102.1635516l-.0545172.0327103c-.3434584.4633963-.6542065.9322443-.9540511 1.4228992-.2998447.4906549-.5778824 1.0467304-.839565 1.5973542-.5179135 1.0903442-.9649546 2.246109-1.3956406 3.4127773-.4306859 1.1666682-.8504684 2.3496916-1.3138647 3.5272634-.2235206.5887858-.4579446.9976649-.703272 1.5864507-.1144861.2780378-.234424.6542065-.3543619.6542065h3.9197873c2.1207195-4.9065487 6.1004757-9.9657457 9.4423806-11.3286759.9213408-.3761688 15.7336664-2.1316229 25.524957-2.1316229 3.6308461 0 6.1440894.1308413 7.4743093.6487548 4.0124666 1.5482887 11.9937859 8.9953394 12.8169957 12.811544h2.2733676c-.4900696-2.5090198-1.3113818-4.9417905-2.4423709-7.2344336-1.1486648-2.5310235-2.5983864-4.914278-4.3177629-7.0981405z" fill="#ba8449"/><path d="m82.3773229 71.0540987-.0063621-.0063621-.0063621-.0063621.0190863.0190862z" fill="#ba8449"/><path d="m90.5312766 79.2789247c-1.2081777-2.7729588-2.7398298-5.3934197-4.5630904-7.8068643-.4761974-.6143415-.9877048-1.2004815-1.5319336-1.7554541l-.4306859-.4143308-.0817758-.0763241-.059969-.0490654-.0872275-.0654207c-.0791016-.0550597-.1609858-.1060098-.2453274-.1526482-.1526482-.0763241-.2780378-.1253896-.4034274-.174455-.4166496-.1413106-.8455525-.2435173-1.2811544-.3052964-1.5034394-.204785-3.0185387-.3122259-4.5358317-.3216515-2.9657362-.059969-5.9042137 0-8.8426913.136293-5.8660516.2507791-11.7193826.6778306-17.5599928 1.2811544-2.9221224.3052963-5.8387931.6487548-8.7609155 1.0903442-1.4610611.2235205-2.9166706.4688479-4.3613766.7741443-.7359824.1580999-1.4719647.3271033-2.2297539.5451721-.3761687.1090344-.7577892.234424-1.1612165.3925239-.2202058.0891304-.4350072.1910701-.6433031.3052964-.1303291.0699209-.2559827.1482268-.3761687.234424-.1754174.129656-.3330478.2817877-.468848.4524928-.421166.5239675-.8142421 1.0699065-1.1775717 1.6355163-.370717.545172-.7250789 1.1448613-1.0467304 1.7281955-.6978203 1.2157337-1.2429924 2.3987571-1.7881645 3.592684-.545172 1.1939269-1.0031166 2.3933055-1.4174474 3.6144909-.2071654.6105928-.3979756 1.2211855-.5778824 1.83723-.0926792.3107481-.1799068.6160444-.2616826.9267925l-.1253896.4633963-.0545172.234424c0 .038162.0763241-.0763241.2671343.0327103l.0490655-.1526482h2.6658915c.1199379 0 .2398757-.3761687.3543619-.6542065.2453274-.5887858.4797514-1.0903442.703272-1.6736783.4633962-1.1775717.877727-2.3169813 1.3138647-3.4836496s.8777271-2.2951745 1.3956405-3.3909704c.2616826-.5451721.5451721-1.0903442.8395651-1.5864508.2943929-.4961066.6105927-.9540511.9540511-1.4174474l.0545172-.0272586c.1127888-.0617204.2293186-.1163437.3489101-.1635516.2954715-.1208029.5976298-.2245561.9049857-.3107481.6487548-.1962619 1.3356716-.3598136 2.0280402-.50701 1.3901888-.3052964 2.8130879-.5451721 4.2359871-.7741444 2.8567017-.4524928 5.740662-.8123064 8.6300741-1.1285062 5.7842758-.6323996 11.5958103-1.0903442 17.401893-1.3847371 2.9003155-.136293 5.8060827-.2289723 8.6845913-.1908102 1.4052918.0013116 2.8091254.0905306 4.2032768.2671343.2886192.038076.5732465.1019347.8504684.1908102l.0872276.0327103.3434584.3271033c.4819789.4875661.9352348 1.0027124 1.3574785 1.542837 1.7186283 2.1804566 3.1683263 4.5600114 4.3177629 7.0872371 1.1243759 2.2971699 1.9383613 4.7336263 2.420564 7.245337h2.2897228c-.2289723-1.0903441-.5833341-2.6277294-1.0140201-3.9743045-.4603958-1.3727025-.9991846-2.7178542-1.6137093-4.0288217z" fill="#895c2f"/><path d="m75.4518167 75.3700408c-1.2266372-.4742997-3.6308461-.6214961-7.1472061-.6214961-9.8512596 0-24.3855474 1.7281955-25.1814986 2.0280401-2.987543 1.2375407-6.7056167 6.1440894-8.7772706 10.5054661h53.3069265c-.8177581-3.2710325-8.2320985-10.3582696-12.2009512-11.9120101z" fill="#fff8ef"/><path d="m75.7789199 74.5141207c-1.3302199-.5451721-3.8434632-.6923686-7.4743093-.6923686-9.8130975 0-24.6036162 1.7063887-25.524957 2.0825574-3.3419049 1.3683819-7.343468 6.4711927-9.4423806 11.3777414h1.0085684c2.0552988-4.3613767 5.7733724-9.2406668 8.7609154-10.4618523.7959513-.2998446 15.3302391-2.0716539 25.1814987-2.0716539 3.5163599 0 5.9205688.1035827 7.147206.5778824 3.9688528 1.5319335 11.3831931 8.6845913 12.2173064 11.9556238h.9267926c-.8068547-3.8162046-8.788174-11.2196415-12.8006406-12.7679302z" fill="#e5d1ae"/><path d="m93.9822159 75.0701962c-.5451721 1.1176028-3.4563911 3.9306907-5.9042137 3.2328705-1.2811544-.3652653-1.0467304 6.2531238 1.9026505 8.9789842h5.3535899c1.4719647-2.1806883 3.7780426-9.355153 4.0397252-10.096587.3052964-.8668236-4.8356764-3.2328705-5.3917519-2.1152677z" fill="#ba8449"/><path d="m99.6520055 76.596678c-.0654206-1.4774163-.9867614-2.4369192-2.5295984-2.7858293-1.2429924-.2780378-2.911219 0-3.3255498.7795961-.8177581 1.5482887-1.8372299 3.494553-6.87462 3.7126219-.3390617.020503-.5988517.3094283-.5833341.6487548.0147533.3359769.2962263.5980379.6323996.5887858 5.2609107-.2289723 6.7873925-2.2406573 7.8831884-4.3014078.792907-.3158833 1.6767225-.3158833 2.4696295 0 .645346.1632583 1.0956024.7463404 1.0903442 1.4119958.1308413 2.8621534-2.8457983 7.9049952-4.4813145 10.6308556h1.4719646c1.8208748-3.2710325 4.3613767-7.7414436 4.2468905-10.6853729z" fill="#895c2f"/><path d="m89.2991876 87.789061c3.2710326-.763241 6.1549929-4.0179183 6.4112238-8.7227534.0490655-.8668236-1.7281955-2.5405019-1.7281955-2.9984465 0-.4579445 5.4953346.098131 5.7461137 1.3738337.2507792 1.2757027-3.4073255 9.0553083-4.628511 10.3255593-1.2211854 1.2702509-7.7032815.468848-5.800631.0218069z" fill="#c7893e" opacity=".15"/><path d="m91.8942068 71.9191015c-.4088791 2.8239915 5.1464245 6.7819408 8.9026602 6.6401961 3.156546-.1035827 6.667455-1.5755474 6.154993-3.3037429s-3.559974.3052964-3.816205-.9158891 3.565426-3.4618427 2.038944-5.0919073c-1.411996-1.4992232-3.052964 2.3933055-4.732094 1.8317782-1.67913-.5615272.327103-4.3613767-1.7281954-4.5794455-2.442371-.2507791-1.5264819 5.1900383-3.3582601 5.293621-1.3247682.0926792-3.3310014-.8068547-3.4618427.1253895z" fill="#f8b1ab" stroke="#f38089" stroke-width=".56"/><path d="m93.4533989 71.9027464c.605141.4470411 2.7258605 1.0576338 3.0965775.2671343s.6596582-2.3278848.408879-2.5568571c-.1690033.7250789-.4034273 2.1043643-1.210282 2.4096606-.6160444.2398758-1.8699402-.0490654-2.2951745-.1199378z" fill="#f8b1ab" opacity=".5"/><path d="m99.4121298 68.8497827c-.1090344.50701-.4961066 2.8894121.7141752 3.221967 1.090344.2889412 1.842682-.3598135 2.665892-1.717292-.44159.4306859-1.586451 1.4174474-2.50234 1.0303752-.9158892-.3870722-.9485995-1.3138647-.8777272-2.5350502z" fill="#f8b1ab" opacity=".5"/><path d="m94.0421848 75.288265c6.2585752-3.0529636 7.5342782 1.9190058 7.2289822 2.9384776-2.4423713.4306859-6.8473618-2.1261712-7.2289822-2.9384776z" fill="#f8b1ab" opacity=".25"/><path d="m103.162914 73.3201938c-1.090344 1.2048303-.545172 2.1806884.141745 2.284271.899533.1690034 1.995329-.7141754 1.853585-.7250788-.245328 0-1.935361.5778824-2.262465-.2671343-.245327-.6378514.141745-1.0031167.267135-1.2920579z" fill="#f8b1ab" opacity=".5"/><path d="m31.7617257 81.3287717c20.0677845 11.5249379 59.9689294-.1690033 57.8427583-3.9688527-2.7967328-4.9828729-3.9143356-8.1775813-10.058425-7.8450264-6.1440894.332555-45.4837071 3.4345842-47.086513 4.6557697-1.6028059 1.2211854-3.3255497 5.6479828-.6978203 7.1581094z" fill="#c7893e" opacity=".15"/><path d="m75.5390442 12.010141c9.0062429-.839565 14.2726052-10.17291107 19.7624881-8.72275332-3.6635564 2.28972276-7.3271128 6.89097512-12.4353753 14.44706022-1.2048303 1.7718093-9.7803872-5.4953346-7.3271128-5.7243069z" fill="#fff8ef" stroke="#e5d1ae" stroke-linecap="round" stroke-linejoin="round" stroke-width=".84"/><path d="m19.217316 9.94939056c4.0724355-3.76168739 11.3450311-2.29517448 17.2492448-.15264818 3.3582601 1.22118552 7.7087333.22897232 8.0140297.91588912.7196271 1.6355162-3.6253944 4.9065488-7.2126267 4.8465798-3.5872323-.0599689-9.5023495-6.75468212-18.0506478-5.60982074z" fill="#ba8449" stroke="#895c2f" stroke-linecap="round" stroke-linejoin="round" stroke-width=".56"/><path d="m81.7212956 16.4369384c2.0607505.6105927 9.9166803-14.80687386 13.7328849-13.28039202 12.1409825 4.85748328-3.6635564 23.44239972-8.7227534 23.81311672-5.0591969.370717-6.1931549-10.8816349-5.0101315-10.5327247z" fill="#f8b1ab" stroke="#f38089" stroke-width=".56"/><path d="m37.8403945 14.6051602c-3.3582601 1.4501577-15.2648184-10.99066927-20.3022085-2.9766396-3.3146463 5.2772658 6.7165201 15.9517352 13.8909847 17.0965966 7.1744647 1.1448614 8.183033-14.8831979 6.4112238-14.119957z" fill="#f8b1ab" stroke="#f38089" stroke-width=".56"/><path d="m91.0819004 6.13318596c-.66511 2.10981598-6.0786688 7.58334374-5.3154279 12.28817884.2780378 1.7281955 2.1316229 6.8909751 2.9221224 6.6892615.7904995-.2017137 2.7749259-1.4228992 2.5950191-1.1448614-1.1538799 1.0136228-2.4068167 1.9085777-3.7398805 2.6713432-.937696-.50701-5.0646487-10.0039078-4.4758628-10.5327247 1.7554541-1.5755473 7.2507887-9.86761474 8.0140297-9.97119744z" fill="#f8b1ab"/><path d="m17.7180928 11.933817c3.6635564-2.24065732 10.3582696-1.2975096 14.2726052 2.518695 1.3847371 1.3574785 1.777261 5.9968929-1.3520268 9.1316324-1.2375406 1.2538958 7.3761783-4.4486042 7.4034369-6.0841204.0272586-1.6355163-.545172-2.1207195-1.8317782-2.5950192-4.726642-1.7663575-9.6986114-5.76792064-14.0163743-5.68069311-1.8740099.02083001-3.5885483 1.05874181-4.4758628 2.70950531z" fill="#f8b1ab"/><path d="m92.553865 4.96106598c8.357488 4.61760757-5.1082625 11.60126202-4.121501 20.30220852-1.7500024-.1908103-6.0677653-8.6082673-4.9937763-9.3497013 1.4883198-1.0412787 7.714185-11.35048284 9.1152773-10.95250722z" fill="#f8b1ab" opacity=".25"/><path d="m29.8154614 33.631666-.0436138.1635516c0 .1090344-.0654206.272586-.1471965.5451721-.2065433.6753671-.4616212 1.3349257-.7632409 1.9735229-1.1399786 2.2709165-2.4143066 4.4718631-3.8162046 6.5911305-.8613719 1.3520268-1.777261 2.8785087-2.6931501 4.5794456-.9838476 1.7960893-1.7943632 3.6818159-2.420564 5.6316276-.6972829 2.1565365-.9349964 4.4352427-.6978203 6.6892615.3208946 2.4747497 1.2768706 4.8243098 2.7749259 6.8201028.3870722.5451721.801403 1.0521821 1.2538958 1.5591922.4378321.5042142.9115497.9761099 1.4174474 1.4119957 1.0814118.9008773 2.2356817 1.7105074 3.4509393 2.420564 2.5952662 1.5497953 5.3337705 2.8460207 8.1775813 3.8707218 3.0072094 1.103852 6.1095901 1.9287203 9.2679255 2.4641779 3.2756885.5763151 6.6084861.7593353 9.9275836.545172 6.8691683-.545172 14.0109226-1.2320889 20.9509633-3.0802222 3.4509393-.9267926 6.8800717-2.1207195 9.922132-4.0506286 1.5260125-.9685741 2.8832507-2.1803282 4.0179182-3.5872324.2834895-.3543618.5451721-.7359823.8504685-1.0903441.3188281-.3379482.58197-.7243804.7795961-1.1448614.392615-.8376051.7118287-1.7076903.9540511-2.6004709.9322443-3.5981357.7577892-7.3598231.1580999-10.9634106-.6538747-3.5873426-1.5871439-7.1180895-2.7912811-10.5599833-1.1557648-3.4345841-2.5023398-6.776489-3.8162046-10.0693284-.3434584-.8341133-.6869168-1.602806-1.0249235-2.4859847-.1669513-.4386542-.3089234-.8864124-.4252342-1.3411234-.1253896-.4470411-.2289723-.8886305-.3271033-1.3247681-.3979756-1.7445507-.6923685-3.4345842-1.1884751-5.0319384-.4561054-1.5690881-1.1334755-3.0651765-2.011685-4.4431525-.8698547-1.3330366-1.9592575-2.5090754-3.221967-3.4781979-2.5529686-1.8666118-5.4627484-3.1878894-8.5482983-3.88162524-2.9691855-.70794124-5.9963201-1.14586306-9.0444049-1.30841301-2.8545779-.22882542-5.7234542-.21423482-8.5755569.04361377-2.6107673.24663314-5.1663055.90345616-7.5724403 1.94626438-4.0938645 1.803963-7.4659504 4.9265491-9.5786736 8.8699498-.8183827 1.5479918-1.5146834 3.1575036-2.0825573 4.8138695-.5015583 1.504675-.899534 2.8567017-1.2048303 4.0506286-.1526482.5942376-.2889412 1.1448614-.3870722 1.6355163-.1536676.4490767-.3357597.8879186-.5451721 1.3138647-.2984888.5856518-.5535878 1.1924229-.7632409 1.815423-.1417448.4197825-.1908102.6433031-.1908102.6433031zm-1.8154231-.4361377c.1965031-.8961103.3078501-1.8087908.332555-2.7258604.0438661-.4984246.1185154-.9936593.2235205-1.4828681.0973769-.2626863.2102439-.5193676.3380067-.7686926l.3380067-.8722754c.5438793-1.3740151 1.1589393-2.7187765 1.8426817-4.0288217 1.8498818-3.5330241 4.2681858-6.7377834 7.1581095-9.4859943 1.7800125-1.6674889 3.825075-3.0271791 6.0514101-4.02336998 2.4662554-1.08827556 5.0808917-1.80302857 7.7577988-2.12071941 2.8941039-.34290095 5.8112548-.45047089 8.7227534-.32165153 3.1261538.06700048 6.2402818.40997416 9.3060875 1.02492352 3.1510946.69236855 6.4221271 1.7827127 9.2679254 3.8761735 1.4373471 1.0540609 2.6853448 2.3444572 3.6908151 3.8162046.9898605 1.514714 1.7486987 3.1683566 2.2515607 4.9065488.4896002 1.7227461.8899259 3.4696221 1.1993786 5.233652.0926792.4252342.1799067.8450168.2889412 1.2538958.093852.4035918.2140473.8006005.3598135 1.1884752.3089309.8213926.6233135 1.6482369.9431477 2.480533 1.2684338 3.3546255 2.4005745 6.8073821 3.3964221 10.3582696 1.0212883 3.5471479 1.7506179 7.1719158 2.1806884 10.838021.2171463 1.845097.290057 3.7043197.2180688 5.5607553-.057716 1.8465392-.3489728 3.6783431-.8668236 5.4517209-.2516213.8924558-.5818333 1.7608585-.9867615 2.5950191-.0981309.2071654-.1853585.4197825-.2780377.6378513-.0926793.2180689-.1417448.4470412-.234424.66511-.0813756.2217132-.1798009.4367907-.294393.6433031l-.370717.5996892c-1.0484141 1.578634-2.3486428 2.9746303-3.8489149 4.1324045-.7458062.5810538-1.5249116 1.118054-2.3333365 1.6082576-.8177582.4742997-1.6355163.9158891-2.5023399 1.3138647-1.6937715.7793761-3.4431437 1.4317461-5.233652 1.9517161-3.5144006.9903076-7.091573 1.7425337-10.7071798 2.2515607-3.554522.5451721-7.0872371.9049857-10.5599833 1.1884752-3.4855922.262314-6.9902298.093857-10.4345937-.5015584-3.2810515-.5595402-6.5038175-1.4190661-9.627739-2.5677605-2.9694871-1.0765759-5.8299584-2.4328811-8.5428466-4.0506286-1.3121721-.7829887-2.5575645-1.6728152-3.7235254-2.6604398-.5847627-.5040892-1.131427-1.0507535-1.6355162-1.6355162-.4848774-.5527055-.9415843-1.1295027-1.368382-1.7281955-1.68042-2.2821506-2.7415689-4.9603777-3.0802222-7.774154-.2330322-2.5297937.0697591-5.080299.8886304-7.4852127.6899756-2.0535335 1.5677821-4.0390915 2.6222778-5.9314723.9540511-1.7390989 1.9190057-3.2710325 2.7694742-4.6557696 1.3466867-2.0666362 2.5700066-4.2110869 3.6635564-6.4221272.2602949-.5579486.4807328-1.1336378.6596582-1.7227438.0480001-.1504341.088035-.3032945.1199379-.4579445l.0436137-.1635516z" fill="#e5d1ae"/><path d="m28.8941205 33.4026937c-1.9353609 8.5482983-18.8247921 22.0794695-5.9968929 35.9213887 4.3613767 4.7102868 18.5358509 11.9229135 32.7648424 10.5817902 36.9572156-3.4891013 46.296013-12.4135684 30.7258987-50.6737454-2.5295985-6.2204135.3052964-20.5529876-26.8606287-21.365294-11.3995483-.34345842-25.1160779 1.22118547-30.6332195 25.5358605z" fill="#fff8ef"/><path d="m36.2430403 17.2492448-.0763241.1253896c-.0741254.1159446-.141476.2360834-.2017137.3598135-.2396219.4620712-.4349388.9458001-.5833341 1.4447061-.5421065 1.9850628-.7267072 4.0507442-.5451721 6.1004756.2207818 3.223792 1.0030506 6.3842315 2.3115296 9.3387978 1.6617874 3.8455163 4.2210781 7.2367167 7.4634059 9.8894217 1.8458406 1.508129 3.8960793 2.7470826 6.0895722 3.6799116 2.3580873.9875744 4.8335378 1.6673613 7.3652748 2.0225884 2.6967702.3701002 5.4252546.4523385 8.1394193.2453274.6923685-.0436137 1.3956405-.1199378 2.0934608-.1962619h.136293.1144862l.2562308-.0436138c.1580999-.0327103.3107481-.0599689.4852032-.1035827.332555-.0817758.6760134-.1799068 1.0194718-.2780377 1.3792854-.3925239 2.7858294-.8232099 4.2359871-1.1503131 2.8894121-.6487548 5.9968929-.9758581 9.0280497-.3107481 1.5194339.3401904 2.9701709.9356009 4.2905044 1.7609058.3298302.1913092.6500513.3987251.9595028.6214962l.4633963.3652653.4361377.3870722c.2998446.2562308.5451721.545172.839565.8286615.1308413.1308413.2780377.2889412.3979756.4361377.1313218.1581072.2532851.3237588.3652653.4961066.8031723 1.4027547 1.1978521 3.0022466 1.1394097 4.6176076-.0119546 1.5833231-.1947368 3.1607333-.5451721 4.7048351-.1690034.7741443-.3598136 1.542837-.5724307 2.3006262l-.3052964 1.1285062-.1580999.5451721-.0599689.2616826v.0327103c-.1144862-.0817758.2671343.2180688-.2725861-.430686-.7632409 0-.3870721.1308413-.4961066.0926793v-.0327103c.7862949-1.3077468 1.4453366-2.6879007 1.9680713-4.121501 1.0246112-2.8732403 1.4639214-5.9224609 1.2920578-8.9680808-.1838343-3.013876-.842521-5.9798062-1.9517161-8.788174-.5293338-1.3996204-1.1447361-2.765158-1.8426816-4.0887907-.3434584-.6651099-.7087237-1.3138647-1.0903442-1.9571678-.2251127-.3700372-.4184331-.7585017-.5778824-1.1612165-.1494896-.3950289-.2733195-.799297-.370717-1.210282-.3652653-1.5755474-.5451721-3.0584154-.7795961-4.5303801-.234424-1.4719646-.4470411-2.9003155-.7523375-4.3014077-.5472802-2.7227306-1.5108186-5.3448791-2.8567017-7.774154-1.2844157-2.278074-3.0342337-4.2600865-5.135521-5.8169861-2.0430451-1.4743711-4.3111963-2.6084467-6.7165201-3.3582601-2.2760212-.71779955-4.6169116-1.21081081-6.9891062-1.47196459-2.2005399-.25054266-4.4147264-.36161616-6.6292925-.33255498-1.9924649.01389356-3.9816037.16508268-5.9532792.45249283-3.2031501.42325785-6.3133023 1.37767654-9.2025048 2.82399144-1.8361744.9334115-3.4963449 2.1785393-4.9065488 3.6799115-.366172.3964611-.7118963.8113302-1.035827 1.2429924l-.310748.4579446zm-.9158891-.5451721.3325549-.4961066c.3380741-.4740409.7020767-.9290441 1.0903442-1.3629302 1.4800595-1.6179388 3.2285161-2.9680128 5.1682314-3.9906597 2.981996-1.56973267 6.2012608-2.63975145 9.529608-3.16744979 2.0348273-.34660387 4.0916256-.5488223 6.1549929-.60514102 2.2789777-.07676775 4.5605292-.00939552 6.8310062.20171368 2.4931297.21633454 4.9585482.68019847 7.3598232 1.38473709 2.6175838.75822849 5.0915849 1.94457004 7.3216611 3.51090824 2.3654848 1.6934126 4.3490828 3.8645981 5.8224379 6.3730617 1.4700118 2.6156406 2.5169625 5.4473753 3.1020291 8.3901984.3216516 1.4719646.5451721 2.9602844.7795961 4.4431525.234424 1.482868.3816205 2.9820913.6923686 4.3613767.0717307.3267512.1627521.6489669.272586.9649546.1195876.303742.2636221.5972807.4306859.877727.3761688.6760134.7468858 1.3629302 1.0903442 2.0662022.6952299 1.4153451 1.3033214 2.8718517 1.8208748 4.3613767 1.0702782 3.0170728 1.6464865 6.1871391 1.7063886 9.3878633.0561527 3.2259265-.5390538 6.4300288-1.7500024 9.4205737-.6095546 1.4887427-1.3656103 2.9131955-2.2570124 4.2523422-.0201839.0320074-.0420204.0629423-.0654207.0926793-.1417447 0 .2071654.1690033-.5996893.174455-.5778824-.6869168-.174455-.4470411-.2889412-.5724306v-.1090345c.0272586-.1144861.0545172-.2126171.0872276-.310748l.1853585-.5451721.3489101-1.0903442c.2289723-.7359823.4361377-1.4828681.6160445-2.2297538.3726204-1.4852565.5882372-3.0055375.643303-4.5358318.093804-1.4948689-.2309118-2.9862958-.937696-4.3068595-.0981309-.1526481-.1962619-.2998446-.3052963-.4415894-.1180672-.1463203-.2436245-.2864351-.3761688-.4197825-.2616826-.2671343-.5451721-.545172-.8068547-.7904995l-.4197825-.3761687-.4415894-.3434584c-.2889412-.2398758-.6105927-.4361377-.9158891-.6487548-1.2587107-.799599-2.6570112-1.3544802-4.1215009-1.6355163-2.9166707-.5724307-5.898762-.1417447-8.6845913.5942376-1.406544.3543619-2.774926.8123064-4.1596631 1.2484441-.3434584.1090344-.6923685.2180688-1.0521821.3161998-.1744551.0490655-.370717.0926792-.5451721.136293l-.2671343.0490655h-.1471965-.136293c-.7196271.0872275-1.4283508.1799068-2.1425263.234424-2.79449.2616864-5.6088985.2251356-8.3956501-.1090344-2.6605899-.3245039-5.2648349-1.0085767-7.7414436-2.0334919-2.3174564-.9579409-4.4856599-2.2430743-6.4384823-3.8162046-3.3810183-2.8268063-6.0340173-6.4239664-7.7359919-10.4891109-1.3323902-3.0979817-2.1181471-6.4033256-2.3224331-9.7694838-.1566346-2.1897196.0759319-4.3898727.6869168-6.4984513.1795438-.5646385.4094397-1.1120097.6869168-1.6355162.098131-.196262.1744551-.294393.2235206-.3816205l.0763241-.1253896z" fill="#e5bfa1"/><path d="m37.3715465 17.8979996-.1471965.2943929-.038162.0708724v.038162.098131c.0244268.2231294.0910286.4395854.1962619.6378513.361956.6195407.8118639 1.1833028 1.3356716 1.6736783 1.2097565 1.1277563 2.5158827 2.1474833 3.9034322 3.047512 2.8403465 1.8590368 5.8987619 3.554522 8.9190153 5.1900383 6.1222825 3.2383221 12.4135684 6.2204134 18.6830474 9.2679254 3.1347395 1.5210301 6.2694789 3.0529637 9.3824116 4.6448662 1.5591921.8014029 3.1074808 1.6355162 4.6394144 2.4696295s3.0584154 1.739099 4.5412835 2.7258605c.741434.4961066 1.4719646 1.01402 2.1806883 1.5864507.3489102.294393.6978203.5996893 1.0303753.9267926l.2507791.2616826.1199379.1308413.0327103.0327103.0490655.0654206.0490655.0654207.3925239.5451721.1962619.2616826c.0654207.098131.1308413.2180688.1908103.3216515l.370717.66511c.1025223.2204588.1935072.4461015.272586.6760133.0941695.2207637.1707323.4486291.2289723.6814652.127089.4605483.2146343.9311043.2616826 1.4065439 0 .234424.0599689.468848.0599689.703272v.703272c-.0980295 1.8166258-.4806747 3.6065962-1.1339579 5.3045244-.5942376 1.67913-1.3356716 3.2710325-2.0062333 4.862935l-1.0903442-.5451721c1.0653739-1.8345454 1.8691005-3.808997 2.3878538-5.8660516.5139465-2.0526412.7504759-4.164904.703272-6.2803824-.0272586-.5451721 0-1.0521822-.0654207-1.5809991l-.1690033-1.5755473c-.0545172-.5451721-.1853585-1.0412787-.2725861-1.5591922-.0866938-.5218712-.2013449-1.0387113-.3434584-1.5482887l-.4197825-1.5319336c-.1199378-.5451721-.3489101-1.0031166-.5124617-1.5046749l-.5451721-1.4992233-.6596583-1.4501577c-.2289722-.4797514-.4197825-.975858-.6760133-1.444706l-.7686927-1.4010923-.3870722-.6978203-.1962619-.3925239-.1253896-.2398757-.0926792-.1853585c-.059969-.1308413-.1199379-.2289723-.1799068-.3816205l-.1799068-.4797514-.0817758-.2398757-.059969-.2126171-.1144861-.4252342c-.5451721-2.2515608-.7632409-4.3613767-1.1775717-6.4929996-.3681043-2.082216-.9153086-4.1287601-1.6355163-6.1168308-.7126347-1.9446314-1.6944158-3.7797362-2.9166706-5.4517208-1.2178098-1.6444456-2.7031666-3.0726733-4.394087-4.2250837-1.7084917-1.1586314-3.5687261-2.0759068-5.528045-2.7258604-.4873652-.1797314-.9842174-.332609-1.4883198-.4579446-.50701-.1308413-1.0031166-.2780378-1.5155784-.3979756-1.0303752-.1908102-2.0443953-.43068596-3.0965774-.5451721-.5451721-.06542065-1.0412787-.15264818-1.5646439-.20171367l-1.5809991-.11448614-.7904995-.05996893h-.7959512l-1.5755474-.0272586h-.7632409-.8177581c-.5451721 0-1.0903442 0-1.5973542.06542065l-1.5319336.1308413-1.5482887.21261711c-2.0556653.32099958-4.0763527.83575468-6.035055 1.53738528-1.9442482.6717035-3.8017744 1.5721005-5.5334967 2.6822467l-.6378513.4197825-.6160445.4742997c-.4143307.2943929-.779596.6323996-1.1557648.9540511-.7124114.6460699-1.3456072 1.3744281-1.8862954 2.1697849zm-2.6059226-1.4883198c1.363901-1.9666182 3.1128854-3.6358504 5.1409728-4.9065488 1.9263214-1.2639802 3.9961623-2.29432539 6.1658963-3.06931883 2.1534826-.7522039 4.3730588-1.29979673 6.6292925-1.63551626l1.6900335-.21261711 1.7227438-.12538958c.5887858-.05451721 1.0903442-.04361377 1.6682266-.05451721h.8177581.4470411.4197825l1.67913.07087237.8341133.03816204.839565.08177582 1.6736783.1580999c.5451721.06542065 1.0903442.16355163 1.6682266.24532744 1.0903442.14174474 2.2188504.42523423 3.3255497.6542065.5451721.14174475 1.0903442.31074809 1.6355163.46339628.5451721.15264818 1.0903442.34345841 1.6355163.54517208 2.1735324.76156145 4.2304149 1.82211286 6.111379 3.15109466 1.8984621 1.3495415 3.5570073 3.0080867 4.9065488 4.9065488 1.3177812 1.877937 2.3656339 3.9314345 3.1129326 6.1004756.735953 2.1285105 1.2832346 4.3176367 1.6355163 6.542065.3816204 2.1806884.5833341 4.3613767 1.0194718 6.3894169l.0872275.3598136.0490655.1799067.0490655.1471965.0872275.2943929c.0327103.1035827.1090344.2398758.1635516.3598136l.0872276.1853585s-.0545172-.1035827 0-.038162v.0436137l.0490655.0926793.1962619.370717.3816205.7414341.7741443 1.482868c.2562309.4906549.4524929 1.0194718.6760134 1.5264819l.6596583 1.5373852.545172 1.5864508c.1635517.5451721.3870722 1.0467304.5070101 1.5973542l.4034273 1.6355163c.1377314.5384212.2433177 1.0845575.3161998 1.6355162.0817758.5451721.2017137 1.0903442.2453275 1.6355163l.1308413 1.67913c.0599689.5451721 0 1.1230545 0 1.6845818-.0180662 2.2465055-.3315018 4.4808794-.9322443 6.6456477-.6094477 2.1584027-1.5177802 4.2209597-2.6986018 6.1277342-.1613944.2799899-.513008.3857284-.8020651.2411999-.289057-.1445285-.4154344-.4892626-.2882791-.786372.6433031-1.6355162 1.3302199-3.221967 1.8535851-4.8411281.5644068-1.5767717.8771633-3.2325412.9267925-4.9065487.0551889-1.5774678-.4273164-3.1268673-1.3683819-4.3940871l-.4088791-.50701-.0490654-.0654206c-.0381621-.0436138.038162.0436137 0 .0327103l-.0272586-.0272586-.1035827-.1035827-.2071654-.2071654c-.2889412-.2725861-.6051411-.5451721-.9267926-.7904995-.6596582-.5070101-1.3683819-.9758581-2.0825573-1.4338026-2.9508987-1.7866185-5.989503-3.4241897-9.1043739-4.9065488-3.1183843-1.5210301-6.269479-2.9820913-9.4314771-4.4431525-6.3294479-2.889412-12.6916061-5.7243069-18.9501817-8.9026602-3.1292877-1.5864507-6.2367686-3.2274187-9.2679254-5.1464244-.7523375-.4852032-1.4992233-.9867615-2.2297539-1.5264819-.7535128-.5435859-1.4710088-1.135429-2.147978-1.7718093-.7635837-.6880123-1.4163902-1.489769-1.9353609-2.3769503-.3059909-.5684619-.4915732-1.1938741-.5451721-1.8372299-.018218-.1812674-.018218-.3639046 0-.5451721-.0051223-.094427-.0051223-.1890624 0-.2834895 0-.1090344.0490655-.2235205.0817759-.3325549.0327103-.1090344.0654206-.2235206.1035827-.3271033l.0545172-.1471964.038162-.0708724.1471965-.2943929z" fill="#895c2f"/><path d="m35.779644 16.9548519c-5.0482935 7.8014125.9922132 37.8512979 32.7375837 33.8006693 3.3637118-.4252342 14.5288361-6.3785134 22.0522109 1.9844264 4.121501 4.5794455-1.4392543 16.2134178 0 13.8146606 1.6028059-2.6713432 7.7850574-12.9750956-1.4501577-28.8505068-2.9820914-5.0646486 1.9244574-29.61374765-29.8863338-29.89178541-12.2227581-.12538958-20.0950431 3.96885281-23.4533031 9.14253591z" fill="#ba8449"/><path d="m34.8910135 18.8520507c9.158891-5.8987619 36.8372778-5.4953346 45.6854208 8.651881 5.8878585 9.3987668-4.9065488 32.557677-8.848143 35.5125097s-9.4968977 5.5116898-24.0148304 2.0334919c-12.2772753-2.9548327 6.2585756-14.4088983-8.221195-16.0771248-13.2258748-1.5264819-14.5288361-23.7040823-4.6012524-30.1207578z" fill="#c7893e" opacity=".15"/><path d="m60.5141015 41.6456956c0 .703272-1.3411233 1.270251-2.9984465 1.270251-1.6573231 0-3.0038981-.5451721-3.0038981-1.270251 0-.7250788 1.3302198-1.248444 2.9929947-1.248444s3.0093499.545172 3.0093499 1.248444z" fill="#c7893e" opacity=".25"/><path d="m55.2368357 37.8785565c.6869169-.4579445 4.3613767-.3052964 4.8084178.1526482s1.4883198 2.4042089.3052964 3.2056119c-.4034274.2780377-.4361377-.8722754-1.3356716-.6869169-1.0903442.2289723-.5451721 1.6682266-1.3738337 1.6355163-1.3356716-.0381621-.0490655-1.5482887-1.2211854-1.7554541-.8777271-.1526482-1.0903442.6760134-1.4501578.6105927-1.2975096-.2235205-.6923685-2.518695.2671343-3.1619981z" fill="#f38089"/><path d="m57.243069 37.9112668c.8858063-.0539668 1.7738049.060733 2.616826.3380067.4809721.5629192.7491499 1.2767737.7577892 2.0171368-.0138501.2594445-.1365986.5009817-.3380067.6651099l-.0708724-.0872275c-.1946599-.3623505-.5650119-.5961481-.975858-.6160445-.0832675-.0104331-.1675116-.0104331-.2507791 0-.5741206.1647019-.9851422.6692364-1.0303753 1.2647992-.1090344.4197825-.1471965.5124618-.272586.5124618-.3761688 0-.3870722-.1580999-.3761688-.6160445.0109035-.4579445 0-1.0903441-.8014029-1.2429923-.0858136-.0220243-.1733647-.0366162-.2616826-.0436138-.3967961.009652-.7718385.1833559-1.035827.4797515l-.1526482.1417447c-.2493013-.0367938-.4408966-.2396595-.4633963-.4906549-.0853179-.8045896.2306691-1.5996537.8450168-2.1261711.5828462-.1923988 1.1978294-.2683456 1.8099713-.2235206zm0-.3325549c-.6714983-.0496629-1.3459086.0432311-1.9789747.272586-.9595028.6433031-1.5646439 2.9384776-.2671343 3.1674498h.0436138c.3216515 0 .5451721-.6323996 1.1993786-.6323996.0654206 0 .136293-.0763241.2071654-.0599689 1.1721199.2017137-.1144862 1.6736783 1.2211854 1.6736783.8232099 0 .2562309-1.3356716 1.3520268-1.5591922.0633171-.0085349.1274931-.0085349.1908102 0 .6323996 0 .7523375.7686927 1.0249236.7686927.0390545.0121606.0808833.0121606.1199378 0 1.1830234-.801403.1526482-2.7258605-.3052964-3.2001602-.2671343-.2671343-1.6355162-.4252342-2.8294431-.4252342z" fill="#f38089"/><path d="m85.8700552 49.9541182c1.3520268 8.8263361-9.6659011 19.9423949-24.5000335 22.2157625-14.8341325 2.2733676-25.8138983-11.0124761-27.1713768-19.8388122s7.7796057-5.4571726 22.5919313-7.7359919c14.8123255-2.2788193 27.7110971-3.4672945 29.079479 5.3590416z" fill="#f6e8d0" opacity=".25"/><path d="m10.6308557 20.291305c.2706707.37029.6333698.6634562 1.0521821.8504685.4097601.1986324.8391392.3539397 1.2811544.4633963.8946921.2209516 1.8066304.3650378 2.7258604.4306859 1.8141435.1406934 3.6360197.1516247 5.4517209.0327103 1.8263265-.1090344 3.6417495-.3052963 5.4517208-.5778824.899534-.1417447 1.7990679-.2943929 2.6876984-.4961066.8832016-.1765562 1.7469092-.4395031 2.578664-.7850478.1744551-.0817758.3979756-.234424.3870722-.2889412l.1690033-.6596582c.1308413-.4415894.2834895-.8940822.4361377-1.3302199.3216515-.8613719.6651099-1.7118404 1.0194718-2.5623088.7087237-1.6954852 1.4828681-3.3582601 2.2788193-5.0155832.3925239-.82866156.8068547-1.63551625 1.2211855-2.47508126s.8450167-1.63551626 1.2757027-2.44782267c.4306859-.8123064.8995339-1.63551625 1.3792853-2.42056406.2507792-.39797562.4906549-.79595124.7686927-1.19937859l.4361376-.59423757c.1744551-.20716539.3707171-.41433078.5451721-.61604446l.8831788 1.57009561c-1.67913.54517209-3.35826 1.09034417-5.0537452 1.55919217-.8450168.24532743-1.7009369.45794455-2.5514054.6814651-.8504684.22352056-1.7118403.41433079-2.5677605.62149618s-1.7172921.37071702-2.578664.54517209c-.8613719.17445506-1.7336472.32710325-2.5950191.49065487-.8613719.16355163-1.739099.27803777-2.6113743.42523423s-1.7445507.24532744-2.616826.34891014c-.8722753.10358269-1.7500024.21261711-2.6331812.27803776s-1.7554541.16900335-2.6386329.19626195l-2.6386329.10903442h-2.654988c-.8831788 0-1.77180931-.08177582-2.65498809-.12538958l-1.32476816-.08177582-1.32476817-.1580999-1.30841301-.17445507-.65965822-.08177581-.65965823-.17990679-2.62227773-.54517208.49065488-1.70638863 1.10669933.58878585.27258605.16355163.25623088.1853585.51246176.37071702c.17040104.11619347.33420577.2417771.49065487.37616874l.45249283.41978251.44704112.4197825c.14174474.15264819.2616826.31619981.3925239.468848.26875309.3006194.51648386.61939061.74143403.95405115.22775421.32337837.43882949.65818743.63239962 1.00311664.17445507.35981357.38707218.69236853.54517209 1.05218213.1580999.3598136.32710325.7141754.47429971 1.0903442l.40342735 1.0903441.35981357 1.0903442c.22352056.741434.43068595 1.4883198.62149618 2.2352056.19081023.7468857.39797562 1.4937715.61604446 2.2352055.11993786.370717.21806883.741434.36526528 1.0903442.1316837.374335.2939663.7371917.4852032 1.0848924zm0 0c-.2000493-.3319274-.3714885-.6802772-.5124618-1.0412787-.15809989-.3543618-.26168259-.7305305-.38707217-1.0903441l-.67056167-2.2188504c-.23442399-.7414341-.47975143-1.4719646-.74143403-2.1806884l-.41978251-1.0903441-.49065488-1.035827c-.17990678-.3434584-.37071701-.6705617-.54517208-1.0031166-.17445507-.332555-.41978251-.63785137-.63239962-.94859946-.21647968-.30627215-.45325199-.59768422-.70872371-.87227533-.23856898-.28564487-.50321053-.5484613-.79049953-.78504781-.14174474-.11993786-.27258604-.25077916-.41433078-.3652653l-.50155832-.29439292-.45249283-.29984465c-.1548728-.09469276-.31713368-.17673478-.48520316-.24532744l-.49065487-.22352055-.2071654-.10903442-.2616826-.07632409-1.03037524-.27258604c-.47526459-.1280314-.76105986-.61243016-.64330306-1.09034418.11659186-.41554512.51338868-.68848629.94314771-.64875478l.19626195.03271033 2.51324331.47429971.6269479.10903442.63785134.07632409 1.27570268.15809991 1.27570268.15264818 1.2811544.07632409c.8613719.03816205 1.71184039.13629302 2.57321229.11993786h2.5841156l2.578664-.10903442c.8613719 0 1.7227438-.1308413 2.5841157-.19081023s1.7172921-.16355162 2.5732122-.27258604c.8559202-.10903442 1.7118404-.19626195 2.5677606-.34345841.8559201-.14719647 1.7118403-.24532744 2.556857-.41433079.8450168-.16900335 1.7063887-.30529637 2.5514054-.47975143.8450167-.17445507 1.6954852-.35436186 2.5350502-.54517209s1.6845818-.38707218 2.5241468-.61059274c.839565-.22352055 1.67913-.42523422 2.5077916-.66510994 1.6682265-.46339627 3.320098-.97585803 4.9501625-1.52648184.3973717-.13948177.8385455.01177638 1.066739.36573567s.1838436.81822902-.1072361 1.12258412l-.0763241.08177582-.3979756.35981357-.4197826.47975144c-.2780377.32165153-.545172.68146511-.8177581 1.03037524-.5451721.72507887-1.0303752 1.47741635-1.5264818 2.23520555s-.9704063 1.53193356-1.4338026 2.31698137c-.4633963.7850478-.9267926 1.56464388-1.3683819 2.36059513-.8886305 1.5919025-1.739099 3.2056119-2.5295985 4.8465798-.3961584.8177582-.7596065 1.6464197-1.0903442 2.4859847-.1690033.4197826-.3216515.8341133-.468848 1.2647993l-.1962619.6542065c-.0545055.1589427-.1649515.2926405-.3107481.3761687-.1055581.0692763-.2168096.1294616-.332555.1799068-.8720843.3259257-1.7741578.5651395-2.6931501.7141755-.9049857.1690033-1.8099713.310748-2.7258604.4306859-1.8208748.234424-3.6472013.3816205-5.4517209.4524928-1.8299462.0881795-3.6636618.059044-5.4898829-.0872275-.9200089-.0746988-1.8319488-.2279047-2.7258604-.4579446-.4438701-.1139739-.8749668-.2728952-1.2866061-.4742997-.4333315-.1881725-.8080578-.4894599-1.0848925-.8722753z" fill="#d7cab2" opacity=".5" transform="translate(36.52653 43.068595)"/><path d="m10.0802319 19.7515847c.273685.3674056.635558.659904 1.0521821.8504684.4109741.2002422.842334.3556049 1.2866061.4633963.8950007.2204856 1.8067457.3663648 2.7258604.4361377 1.8143603.1341722 3.6356601.1469213 5.4517209.038162 1.8208748-.098131 3.6417495-.2780378 5.4517209-.5451721.8995339-.1308413 1.8045196-.2780377 2.6931501-.468848.8900004-.1726049 1.7609744-.4318885 2.6004708-.7741443.1853585-.0926793.4197825-.2180689.4524928-.3489102l.1744551-.6651099c.1308413-.4361377.2889412-.8777271.4415894-1.308413.3271032-.8613719.6741961-1.7118404 1.0412787-2.5514054.7359823-1.67913 1.5319335-3.3255497 2.3551434-4.96651768.4034273-.82320985.8232098-1.63551626 1.2484441-2.44782267.4252342-.8123064.8722753-1.63551625 1.3193164-2.41511234.4470411-.77959608.9267926-1.59190249 1.4228992-2.37149857.2562308-.38707218.5015583-.77959608.779596-1.15576482l.430686-.54517209c.1635516-.19081023.3434584-.37071702.5451721-.54517208l.4415894.7850478c-1.6627749.54517209-3.3364532 1.09034417-5.0264867 1.54828872-.839565.24532744-1.6954852.45794456-2.5405019.68146511-.8450167.22352056-1.7009369.40887907-2.5568571.61604446-.8559201.20716539-1.7118403.37071702-2.5677605.54517208-.8559202.17445507-1.7227438.32165153-2.5841157.48520316s-1.7281955.27803776-2.5950191.41978251c-.8668236.14174474-1.7336472.24532744-2.6059226.35436185-.8722753.10903442-1.7390989.21261712-2.616826.27258605-.877727.05996892-1.7500024.16900334-2.6277294.19626195l-2.6440847.08722753h-2.6386329c-.877727 0-1.75545407-.08177581-2.63318113-.12538958l-1.31931644-.08177581-1.31386473-.16355163-1.31386473-.1580999-.6542065-.08177582-.64875478-.22897227-2.59501913-.62149618.25077916-.77959608 1.09034417.57243069.27258604.15264818.25077916.17445507.50701004.33800669c.16355163.11448614.34345842.20716539.4961066.3380067l.44704111.39797562.45249283.3925239c.13629302.14174474.2616826.29984465.3925239.44704111.28375045.28218341.54444898.58663554.77959609.91043738.23610117.31282819.45451145.63862352.6542065.97585804.18535851.34891013.39797562.67601338.54517209 1.02492352.14719646.3489101.33800669.703272.49065487 1.0903442l.42523423 1.0903441.37616874 1.0903442c.234424.741434.44704111 1.4828681.64875478 2.2297538.20171367.7468858.40887907 1.4937716.63239962 2.2297539.11993786.3652653.21806883.741434.37071702 1.0903441.13396952.3541077.29622798.6968559.48520319 1.0249236zm0 0c-.19829148-.3320518-.36790919-.6804064-.50701007-1.0412787-.15264819-.3543619-.25623089-.7305306-.38162046-1.0903442l-.65965823-2.2243021c-.21806883-.741434-.45794455-1.4774164-.70872371-2.1806883l-.40342734-1.0903442-.468848-1.0521821c-.16900334-.3489102-.35981357-.6814651-.54517208-1.0249236-.18535851-.34345837-.40342735-.64875474-.60514102-.97040627-.21547605-.31482552-.44655387-.61868376-.69236855-.91043739-.2259328-.29952295-.47570813-.58029231-.74688575-.83956501-.13629303-.1308413-.26713433-.26713432-.40887907-.38707218l-.48520315-.34345841-.45249284-.33255498c-.15550786-.1031452-.3175873-.19602219-.48520315-.27803776l-.4961066-.2616826-.24532744-.1308413-.2616826-.08722753-1.05218212-.35436186c-.23894198-.08027807-.36808394-.33856199-.28894121-.57788241.08052608-.19427712.29382519-.29741075.4961066-.23987572l.03816204.07632409 2.54050192.43068595.63785134.08722753.64330306.05996893 1.28660613.15264819 1.28660612.15264818 1.29750956.07632409c.8613719.03816205 1.72274382.13629303 2.59501912.11993786l2.6222777.01635517 2.6004709-.10903442c.8668236 0 1.7281955-.1308413 2.5950191-.19081023s1.7281955-.16355163 2.5895674-.27258604c.8613719-.10903442 1.7227438-.20171368 2.578664-.34891014s1.7227438-.24532744 2.5732122-.41433078c.8504685-.16900335 1.7118404-.30529637 2.5623088-.48520316.8504685-.17990679 1.7009369-.35436186 2.5459537-.54517209.8450167-.19081023 1.6900334-.3925239 2.5350502-.61059273.8450167-.21806884 1.6845817-.43068595 2.518695-.67601339 1.6736783-.45794455 3.3310015-.97585803 4.9719694-1.53193356.1149413-.03994661.2410552-.03250428.3505004.02068402.1094451.0531883.1932213.14774859.2328338.26280546.0541898.16344624.0144227.34344491-.1035827.468848l-.0381621.03271032-.4415894.42523423-.4252342.50701004c-.2780378.34345841-.5451721.71417543-.8068547 1.09034417-.5124617.74143404-1.0031166 1.50467496-1.4828681 2.27881932-.4797514.77414436-.9431477 1.55919217-1.3956405 2.34969169s-.9049857 1.58645077-1.3356716 2.38785372c-.8613719 1.6355163-1.6900335 3.2383222-2.4587261 4.9065488-.3634481.8250271-.7268961 1.6591404-1.0903442 2.5023399-.1635516.4252342-.3216515.8450167-.4633963 1.2757026l-.1908102.6596583c-.0440121.1364205-.1399824.250018-.2671343.3161998-.0993776.0684552-.2052952.1268925-.3161998.174455-.8623899.330753-1.7553616.5754528-2.6658915.7305306-.899534.1744551-1.8045196.3271033-2.7258604.4470411-1.8172403.2507792-3.6344806.4161481-5.4517209.4961066-1.8277936.0972302-3.6600511.0717316-5.4844312-.076324-.9200089-.0746989-1.8319488-.2279047-2.7258604-.4579446-.4438701-.113974-.8749668-.2728952-1.2866061-.4742997-.422786-.1985034-.7857245-.5050266-1.0521822-.8886305z" fill="#d7cab2" opacity=".5" transform="translate(37.071702 43.613767)"/><path d="m47.146482 63.3708032c2.3660468 3.6635565 21.501587 1.1394097 21.8068834-.3052963.839565-3.7398805 7.7087333-16.8676244 9.922132-18.6994026-3.9688528 1.3738337-24.5000336 7.9377056-41.209558 3.9688528 7.5833437 2.4205641 7.6433126 12.1900479 9.4805426 15.0358461z" fill="#333"/><path d="m76.3677058 46.1433653c-2.8730569 4.3341181-7.2834991 12.7897372-8.2211951 16.4751005-1.1339579.6214961-7.0872371 1.7281955-12.9369336 1.7281955-4.666673 0-6.8255545-.7577892-7.283499-1.4719647-.5445534-1.0969355-.9545861-2.255644-1.2211855-3.4509393-.7904995-2.8239914-1.8699403-6.6620028-4.5085732-9.3497012 2.3945109.2964779 4.8052906.4421444 7.2180784.4361376 11.0124762 0 21.7523663-2.7858293 26.9587597-4.3613766zm2.5350502-1.7718092c-3.0693189 1.0903441-16.0389628 5.2282003-29.4883582 5.2282003-3.9426082.0346497-7.8759385-.3879546-11.7211998-1.2593476 7.5560851 2.4151124 7.616054 12.1845962 9.453284 15.0303944.9049856 1.3956406 4.2523422 1.8917472 8.0576434 1.8917472 6.1767997 0 13.5693332-1.3029613 13.7710469-2.1806884.839565-3.7398805 7.7087333-16.8676243 9.9221319-18.6994025z" fill="#333"/><path d="m46.0070723 60.1651914c1.270251 1.0903442 5.5934656-3.7671391 5.1355211-5.6479828-1.17212-4.7811592-6.4602893-4.121501-8.3956502-4.4267974-1.9353609-.3052963-5.6752414-1.9571678-4.1215009-1.4719646 4.4813145 1.3738337 13.0241611.7632409 14.0436329 1.0903442 1.2866061.3816204 2.1806883 5.5934656.9158891 6.7655856-1.2647992 1.1721199-5.7406621 7.986771-6.4112237 6.8201028-.6705617-1.1666683-.8341133-2.4151124-1.1666683-3.1292878z" fill="#818181"/><path d="m66.2547636 54.5172086c1.0249235.9976649 3.7126219 2.1806883 5.3917519 1.5755473-.3030264.9430804-.7127417 1.848478-1.2211855 2.6986018-11.601262-1.0194718-8.4447156-9.158891-7.5833437-9.9221319.8613719-.763241 11.601262-2.2897228 13.6892711-2.7258605-3.1565464.6923686-13.8364675 4.9174522-10.2764938 8.3738433z" fill="#818181"/><path d="m55.0623807 65.289809c-3.9470459 0-6.5420651-.5451721-7.5342783-1.6355163-.0763241-.0926792-.0926792-.643303.3598136-1.6736783 1.0903442-2.518695 4.4976697-6.87462 10.3582696-7.2289818.3925239 0 .7850478-.0381621 1.1666683-.0381621 6.8964269 0 11.0506382 3.5000048 11.0615416 4.1269527l-.3380067.8123064c-.370717.8940822-.937696 2.246109-1.4392543 3.750784-.4906549.4906548-7.4361472 1.8862954-13.6347538 1.8862954z" fill="#f8b1ab"/><path d="m59.4237573 54.5717258v.4415894c5.996893 0 10.2764939 2.9602844 10.723535 3.8162046-.0763241.1908102-.1799068.4252342-.294393.703272-.3652653.8722753-.9158891 2.1806883-1.4065439 3.6417495-.9758581.5451721-7.4252438 1.8099713-13.4112333 1.8099713-3.7453323 0-6.3185445-.5451721-7.2671439-1.4937715-.0436138-.3216515.272586-1.5919025 1.4174474-3.2274187 1.0249235-1.4610612 3.9688528-4.9065488 9.0662118-5.2063935.3816204 0 .779596-.038162 1.1612165-.038162v-.6105927zm-.0109034-.1635516c-.3870722 0-.7850478 0-1.1884751.038162-8.0685469.4797514-11.797524 8.4774259-10.9470555 9.393315 1.1775717 1.2920579 4.2686974 1.739099 7.7577988 1.739099 6.2204135 0 13.7165296-1.4283509 13.9400502-2.0934608.6869168-2.0607505 1.4774163-3.8162046 1.7827127-4.5794455.3052964-.763241-4.3613767-4.5140249-11.3559345-4.5140249z" fill="#f38089"/><path d="m47.4299715 63.3926101c-.5451721 2.5023399 14.6760325-9.6877079 22.8972276-3.8162046 1.6355162-2.2788193-7.4306956-6.0950239-12.7243165-5.2118451-4.4649594.7523375-9.0553084 3.6144909-10.1729111 9.0280497z" fill="#f8b1ab"/><path d="m50.504742 50.3193835c.7414341 1.3738337 2.2133987 8.0685469 2.8239914 8.2430019.6105928.1744551 4.3613767 1.2211855 4.9065488.9922132.5451721-.2289722.4961066-1.5264818 1.0903442-1.1448613.4579445.3052963.6869168.9158891 1.1448613.6869168.8177582-.4088791 3.2710326-1.9081023 3.6635565-2.5950191.3925239-.6869169.3052963-4.5031215 0-7.5560851-1.6464197.6869168-10.8816349 1.67913-13.6293022 1.3738336z" fill="#fef6e4"/><path d="m63.8232961 49.3598806c.2889412 3.1347395.2943929 6.465741 0 6.9945579-.294393.5288169-2.5350502 1.9680712-3.5327151 2.4696295-.0198647.0031609-.0401043.0031609-.059969 0-.0708723 0-.2071654-.1471964-.3216515-.272586-.137197-.154283-.2907456-.2932079-.4579446-.4143308-.1060356-.073495-.230888-.1151125-.3598135-.1199378-.3925239 0-.5451721.3979756-.6869169.7196271-.0817758.196262-.1908102.468848-.3052963.5451721-.0397885.0055234-.0801494.0055234-.1199379 0-1.3912493-.1913306-2.7655679-.490254-4.1105975-.8940822l-.4197825-.1090344c-.2889412-.3271033-.899534-2.4750813-1.3465751-4.0560804-.4034273-1.4065439-.7850478-2.7258604-1.0903441-3.5599737h.8504684c3.5054565 0 9.9384871-.7305306 11.9937859-1.3247681zm.2998446-.4361376c-1.3956405.5996893-8.6028155 1.4338026-12.244565 1.4338026-.4477766.0031754-.8954172-.016841-1.3411234-.059969.7087238 1.3956406 2.1806884 8.0903538 2.7912811 8.2648088.6105928.1744551 3.6635564 1.0249236 4.6503179 1.0249236.0795036.0039474.1590377-.0071504.234424-.0327104.468848-.2017136.4961066-1.2157337.8777271-1.2157337.0693034.0038015.135829.028511.1908102.0708724.3870722.2562308.6105927.7359823.9485994.7359823.0682852-.0013339.1353826-.0181083.196262-.0490655.8177581-.4088791 3.2710325-1.9081023 3.6635564-2.5950191.3925239-.6869169.3052964-4.5031215 0-7.5560851z" fill="#ffd085"/><path d="m51.5732793 53.5249954c-.2507792-2.4696296 11.1923829-3.2710325 12.6207338-3.0802223 0-.5833341-.1035827-.9867615-.0763241-1.6355163-1.8862954.9485995-12.1627892 1.9462644-13.5856884 1.5373853.4255992 1.0321009.7736567 2.0944966 1.0412787 3.1783533z" fill="#eadcbe"/><path d="m57.2866828 51.6605068c.1587885.3268881.3007194.6616995.4252342 1.0031167.2398757.6105927.5451721 1.4338026.7904995 2.2570124.2453275.8232099.5451721 1.6355163.7141755 2.2733676l.310748 1.0249235-.7904995.2289723-.2398757-1.0903442c-.1417447-.6323996-.332555-1.4719646-.5451721-2.3115296s-.4252342-1.6682266-.6105927-2.284271c-.1853585-.6160445-.3380067-1.0085684-.3380067-1.0085684z" fill="#ffd085"/><path d="m18.5358509 12.7243165c6.0786688 1.5482887 5.0864556 12.0537548 8.7227534 12.8715129 3.6362978.8177582 8.3683915-8.6409775 8.8263361-10.7235349-7.0054613-2.9766396-10.2492353-6.49299954-15.2648184-5.45172086-1.6573232.31619981-3.985208 2.86215346-2.2842711 3.30374286z" fill="#f8b1ab" opacity=".4"/><path d="m35.3707649 43.4284083c7.6324092.6105928 13.9400503.9158892 16.1807075-1.4283508 2.2406573-2.34424 3.0529637-12.7188648 6.7655856-12.4626339 3.1129326.2126171 4.1705665 13.7383366 6.2040583 14.1417639 2.0334919.4034274 16.3551626 4.3286664 19.8933295.66511 3.5381668-3.6635565 5.1900382-5.9532792 4.3613766-8.1775813-.8286615-2.2243021-21.7196559-9.3987668-25.9829016-9.785839s-33.1682697 3.2056119-33.8988003 5.0373901-1.4937715 1.5700956-1.3574785 3.5272634c.2671344 3.6472012.2017137 7.8722849 7.8341229 8.4828776z" fill="#c7893e" opacity=".5"/><path d="m56.7633176 28.0382004c.5451721 0 2.7258604-.1526482 3.2056118.2289722 2.7694742 2.1806884 2.6495364 11.0179279 5.5716587 13.809209 2.578664 2.4641778 16.6386521 4.2741491 19.081023 1.4501577 2.442371-2.8239914 6.0241516-11.366838 6.8637166-11.9937859s2.6713432-1.0903441 3.2056119-1.9081023c.5342686-.8177581.0763241-4.5794455-1.2211855-4.4267973s-3.7398805.9922132-5.2663624.5451721c-1.5264818-.4470411-8.924467-5.1137142-27.5475454-2.2897228-1.6076731.2037813-3.2394277.1001779-4.8084178-.3052963-1.2211855-.3052964-8.243002-4.3613767-26.9369528-1.6791301-1.8699402.2671344-4.4267973-.5451721-5.3426864-.4579445-.9158891.0872275-1.2157338 2.9820913-.839565 3.7453322.3761687.7632409 2.2897227 1.3738337 2.518695 2.2897228s1.9081023 9.9166802 6.3348996 13.6565607c4.6612214 3.9415942 16.6441038 1.2157338 17.7017376.4579446 4.8084178-3.4345842 5.8769551-13.1222921 7.4797611-13.1222921z" fill="#333"/><path d="m40.6752893 21.4797802c8.319326 0 12.5716683 1.6627748 14.1744742 2.284271.2468904.1075472.4999291.2003887.7577892.2780378 1.1429769.28654 2.3162259.4347976 3.4945531.4415894.5583176.0025359 1.1160139-.0375599 1.6682266-.1199379 3.6476087-.5642339 7.3324116-.8539884 11.0233796-.8668236 8.7500119 0 13.3021989 1.9571678 15.2648184 2.7967328.3925239.1690033.6760134.2889412.9049856.3598136.4327356.1216938.8807385.1804483 1.3302199.174455 1.0284059-.0410762 2.0497446-.1890698 3.047512-.4415894.4252342-.0872275.8286615-.174455 1.1448614-.2235205.4252342.4633963.6814651 2.5241468.4579445 3.0093499-.4615465.3830331-.9902521.6769638-1.5591922.8668236-.5023601.2033961-.9827601.4572957-1.4338025.7577892-.4906549.3543619-1.0140201 1.3356716-2.5023399 4.2796009-1.4174474 2.8021845-3.1783533 6.2912859-4.5194766 7.8395746-.468848.5451721-2.1316229 1.0903442-5.3972037 1.0903442-4.8465798 0-10.9688623-1.3029613-12.3590511-2.6277295-1.2647993-1.210282-1.9408127-4.0015631-2.5895674-6.6947132-.7250789-3.0093499-1.4338026-5.8496965-3.0693189-7.1363026-.4143308-.3271033-1.0903442-.4579446-2.3660468-.4579446-.3761688 0-.7359824 0-1.0194718 0h-.3870722c-1.2866061 0-1.8590368 1.5973543-2.8076363 4.2523423-1.0521821 3.0584154-2.5350502 7.1853681-5.1682313 9.0553084-.5833342.3543618-4.9065488 1.4610611-9.2679255 1.4610611-3.3364532 0-5.8660516-.643303-7.3107577-1.8644885-1.7500024-1.4774163-4.2032767-4.9065488-5.9478274-12.7951888-.0381621-.1799068-.0654207-.3107481-.0872275-.3870722-.2126172-.8504685-1.0303753-1.3847371-1.7554542-1.8535851-.297697-.17476-.5755449-.3813179-.8286615-.6160445-.1338824-.8156561-.0434272-1.6523665.2616826-2.420564.4243676.0385693.8465085.0986152 1.2647992.1799068.986994.1918447 1.9879615.3030633 2.9929948.3325549.3182628.0132945.6370665.0041858.9540511-.0272586 3.851552-.5805602 7.7390824-.890251 11.6339723-.9267925zm0-.9158891c-3.9436955.0232832-7.8807203.3275327-11.7811688.9104374-.2782335.0378053-.5587788.0560225-.839565.0545172-1.6355162 0-3.5054565-.5451721-4.3613767-.5451721h-.136293c-.9158891.0763241-1.2211854 2.9766396-.839565 3.7398805.3816205.7632409 2.2897228 1.3738336 2.518695 2.2897227.2289723.9158892 1.9081023 9.9166803 6.3348997 13.6565608 1.8590368 1.5700956 4.8738384 2.0825574 7.8995435 2.0825574 4.5739938 0 9.1697945-1.1666683 9.8130975-1.6355163 4.8084178-3.4345841 5.8769551-13.1222921 7.4797611-13.1222921.2453274 0 .8123064-.0327103 1.4065439-.0327103.7414341 0 1.5319336.0490655 1.7990679.2616826 2.7694742 2.1806883 2.6495364 11.0179278 5.5716587 13.8092089 1.6355163 1.5755473 7.9922228 2.8839603 12.9914508 2.8839603 2.8185397 0 5.2063935-.4143307 6.0895722-1.4338025 2.442371-2.8239914 6.0241516-11.366838 6.8637166-11.9937859s2.6713432-1.0903442 3.2056119-1.9081023c.5342686-.8177582.0981309-4.4322491-1.1448614-4.4322491h-.0763241c-1.0249235.1199379-2.7585708.6705617-4.1978251.6705617-.3680564.0062081-.7351407-.0396775-1.0903441-.136293-1.17212-.3543619-5.8333414-3.1947085-16.4096798-3.1947085-3.7300347.0225841-7.4531138.3250957-11.1378657.9049857-.5072772.0738866-1.0193054.1103299-1.5319336.1090344-1.1029854-.0068742-2.2011678-.1459773-3.2710325-.4143308-.9049857-.136293-5.1300693-2.5241467-15.155784-2.5241467z" fill="#1a1a1a"/></g><path d="m30.4369575 27.1223113c-.4252342.545172-.6869168 8.6954947 2.7258605 10.9034417 2.2515607 1.4556094 11.8302342 1.1448614 13.7383365.0763241 3.0311568-1.6791301 5.9805378-9.4205737 5.1300694-10.5218213-1.3738337-1.8317782-11.2905139-4.2741491-18.7757267-2.3660468-1.0865469.3858853-2.0566609 1.0426356-2.8185397 1.9081023z" opacity=".5" stroke="#333" stroke-width="1.12"/><path d="m30.4369575 27.1223113c-.4252342.545172-.6869168 8.6954947 2.7258605 10.9034417 2.2515607 1.4556094 11.8302342 1.1448614 13.7383365.0763241 3.0311568-1.6791301 5.9805378-9.4205737 5.1300694-10.5218213-1.3738337-1.8317782-11.2905139-4.2741491-18.7757267-2.3660468-1.0865469.3858853-2.0566609 1.0426356-2.8185397 1.9081023z" fill="#fff" fill-rule="nonzero"/><path d="m86.6332961 30.6877367c.3489102.5942376-.4470411 8.7227534-4.1378561 10.4673041-2.4205641 1.1448613-11.8792997-.3979757-13.6293021-1.7063887-2.7694742-2.0607505-4.6721248-10.1183939-3.7071702-11.1051554 1.5973542-1.6355162 11.7539102-2.7749259 18.9174714.0872276 1.0315893.5208387 1.9120302 1.2980296 2.556857 2.2570124z" opacity=".5" stroke="#333" stroke-width="1.12"/><path d="m86.6332961 30.6877367c.3489102.5942376-.4470411 8.7227534-4.1378561 10.4673041-2.4205641 1.1448613-11.8792997-.3979757-13.6293021-1.7063887-2.7694742-2.0607505-4.6721248-10.1183939-3.7071702-11.1051554 1.5973542-1.6355162 11.7539102-2.7749259 18.9174714.0872276 1.0315893.5208387 1.9120302 1.2980296 2.556857 2.2570124z" fill="#fff" fill-rule="nonzero"/><path d="m41.3294958 32.0670221c-.2507791 1.7718093-1.1503131 3.1129326-2.0062333 2.987543-.8559201-.1253896-1.3411233-1.6355162-1.0903441-3.4291324.2507791-1.7936162 1.1503131-3.1129326 2.0062332-2.987543.8559202.1253895 1.3411234 1.6573231 1.0903442 3.4291324z" fill="#010101" fill-rule="nonzero"/><path d="m77.9596083 34.1277726c.1908102 1.7827127-.3598136 3.2710325-1.2157338 3.3855186-.8559202.1144862-1.7063886-1.2811544-1.8917471-3.0638671s.3598135-3.2982911 1.2211854-3.3855187c.8613719-.0872275 1.7063887 1.2811544 1.8862955 3.0638672z" fill="#010101" fill-rule="nonzero"/><path d="m23.6822754 23.611403c1.0412787.6923686 2.0225884.2671344 2.2515607 1.6355163s3.3964221 13.3512644 7.3652749 14.7196463c6.4984513 2.2624642 14.6760325.0490655 15.7663767-.6596582s6.2967376-12.3208892 7.1744647-12.7788337c.877727-.4579446 3.6417495.0490655 4.2359871.3052964 1.7936161.7632409 5.0810038 13.3621678 5.9968929 14.0000191 4.0070148 2.8239914 16.8294623 2.5950191 17.4455068 1.8317782.6160444-.7632409 5.4517208-11.775717 6.2912858-12.4353752 1.2593475-.9540512 4.159663-1.602806 4.2359871-1.1830235s-2.3278848.801403-3.0529637 1.7172921c-.7250788.9158891-5.5662069 11.4486138-7.0872371 12.3590512-1.5210301.9104374-12.7624785 2.4260158-18.4322682-1.5646439-2.7258604-1.9081023-3.7780425-13.3894264-5.9151171-14.0000192-1.1103992-.3655822-2.3023047-.4053124-3.4345842-.1144861-1.3356716.8777271-3.2056118 10.6035971-7.2126266 13.0841301-1.5864508.9867614-14.0654399 3.3855186-17.7780618-.4961066-6.9454923-7.2453371-4.8465798-13.7328849-7.0872371-14.686936-1.5482887-.6542065-1.8699402-1.4501578-1.8317782-2.0225885.0381621-.5724307.4961066-.0926792 1.0685373.2889412z" fill="#333" fill-rule="nonzero" opacity=".3"/><path d="m23.7967615 21.1690321c-.7250788-.2671343 3.1292878 1.3356716 4.552187 1.2375406 1.4228991-.098131 3.8162046-1.0903441 4.5794455-1.3356716.7632409-.2453274-3.5872323.5451721-4.6557696.4961066s-4.0560804-.2507791-4.4758629-.3979756z" fill="#333" fill-rule="nonzero" opacity=".3"/><path d="m53.6340298 23.3061067c1.3356716.6105927 1.9462643 2.0989125 3.2710325 2.2515607s2.8621535.3816204 3.5872323-.0381621c.9782721-.577107 2.0031399-1.0713048 3.0638672-1.4774163.545172-.1144862-4.0070149.6105927-5.6861449.4579445-1.7827127-.174455-3.7398805-1.1176027-4.2359871-1.1939268z" fill="#333" fill-rule="nonzero" opacity=".3"/><path d="m86.2625791 25.0997228c-.5451721-.2289722 2.0171367 1.8699403 2.7803777 1.7554541.7632409-.1144861 2.1806883-.9867614 2.7258604-1.1830234.4579445-.1526482-1.8317782.4579446-2.518695.3434584-1.016803-.23221-2.0153029-.5383195-2.9875431-.9158891z" fill="#333" fill-rule="nonzero" opacity=".3"/><path d="m28.9867998 25.9392878c3.3964221-3.35826 11.4813241-2.2133986 12.9532888-1.9081023-9.7095149.703272-9.88397 1.4283509-11.5794551 3.145643-.4755417 3.2237315-.151664 6.5149279.9431477 9.5841252-1.6682266-.9595028-3.4509393-9.6986114-2.3169814-10.8216659z" fill="#333" fill-rule="nonzero" opacity=".3"/><path d="m88.4814295 29.548327c-2.9221224-3.7725908-11.0888002-3.7017184-12.5880234-3.592684 9.5350597 1.973523 9.6059321 2.7258604 11.0669933 4.6394145.0486796 3.2567188-.6999707 6.4759148-2.1806884 9.3769598 1.7663576-.7305306 4.6830283-9.158891 3.7017185-10.4236903z" fill="#333" fill-rule="nonzero" opacity=".3"/><path d="m30.5296368 32.732132c.3380067-3.9852079.6869168-7.1581095 8.5319431-7.4034369 6.2803825-.1962619 11.2905139 1.2757027 12.031948 2.7858294.4633962.9485994.0981309 5.1900382-3.047512 9.06076 2.0389436-1.815423 5.2554589-8.9081119 3.8543667-9.8130975-5.1137142-3.2710325-15.2648184-3.3582601-19.042861-2.0007816-.9706498.4221142-1.8362327 1.053152-2.5350502 1.8481334-.098131.9976649-.1144861 4.9665177.2071654 5.5225932z" fill="#d0dddc" fill-rule="nonzero"/><path d="m30.7695125 32.9992663c1.1939269 7.7032816 15.3138839 5.3644934 16.1534489 5.059197-.0545172.430686-7.4034369 2.4696296-13.5856884.1035827-2.4859847-.9540512-2.7095052-6.0459584-2.5677605-5.1627797z" fill="#d0dddc" fill-rule="nonzero"/><path d="m85.9790896 36.1776196c.1526482-3.9961114.196262-7.1853681-7.5560851-8.3956501-6.20951-.9649546-11.366838-.1144862-12.2827271 1.2866061-.5778824.8886305-.7359823 5.1409728 1.9135541 9.3715082-1.8045196-2.0498471-4.1269527-9.4859943-2.6222778-10.2056215 5.4517209-2.6277294 15.5755665-1.4610612 19.140992.3489102.9135576.5367025 1.6958137 1.2705333 2.2897227 2.147978-.0272586.9922132-.4906549 4.9338073-.8831788 5.4462691z" fill="#d0dddc" fill-rule="nonzero"/><path d="m85.7119553 36.4120436c-2.1316228 7.5015679-15.8536042 3.4509393-16.6495555 3.0420602 0 .4361377 7.0436234 3.3582601 13.4657505 1.7663576 2.5841157-.6378513 3.4291325-5.6697897 3.183805-4.8084178z" fill="#d0dddc" fill-rule="nonzero"/><circle cx="40.626224" cy="29.793655" fill="#fff" fill-rule="nonzero" opacity=".25" r="1"/><circle cx="76.95104" cy="31.930729" fill="#fff" fill-rule="nonzero" opacity=".25" r="1"/><path d="m23.9112477 23.1152964c1.0903442 1.2593476 1.7718093 1.3792854 3.2710325 1.1830235 14.3216707-1.8917472 22.2157625-1.7936162 26.1082912 1.8699402.8450167.7959513.3816204-2.3278848-1.2211855-2.7258604-12.0537548-3.1892567-20.7928633-.3271033-22.6300933-.098131-1.8372299.2289723-3.2001601-.1908102-5.5280449-.2289723z" fill="#d0dddc" fill-rule="nonzero" opacity=".1"/><path d="m63.4416756 24.9470746c-.3216515.332555-.1853585 3.6472013 1.3738337 2.4042089 4.5031214-3.5872323 13.9291468-2.7258604 20.4930187-.545172-1.0903442-2.0607505-8.7227534-3.5109083-13.0514198-3.4345842-2.0280401.0436138-7.9268021.6705617-8.8154326 1.5755473z" fill="#d0dddc" fill-rule="nonzero" opacity=".1"/><ellipse cx="89.081119" cy="27.601284" fill="#d0dddc" fill-rule="nonzero" rx="1.602806" ry="1"/><path d="m28.6978586 23.5950479c0 .1308413-.7523375.1199378-1.6355163 0-.8831787-.1199379-1.5591921-.3761688-1.5373852-.5124618.0218068-.136293.7523374-.1253896 1.6355162 0s1.5591922.3761687 1.5373853.5124618z" fill="#d0dddc" fill-rule="nonzero"/><path d="m117.719008 97.3023139c-.278037-2.8021846-2.327884-4.0560804-4.235987-4.0560804-.631478.0020925-1.256803.1241974-1.842681.3598136l-.376169.1635516-.3162.234424c-.594147.4387191-1.245243.7945293-1.935361 1.0576339-.034868-.6403458-.012975-1.2825213.065421-1.9190058v-.1035827c.517913-4.9338073-.512462-7.8123159-3.069319-8.5592017-.430444-.1248612-.876584-.187284-1.324768-.1853585-1.385022.0631989-2.71719.5503915-3.816205 1.3956405-.8981585-1.0181877-2.2156648-1.5653049-3.5708769-1.482868-2.3387882 0-4.2196319 1.0903441-4.9065487 2.85125-.0654207.1690033-.1580999.4470411-.2725861.8014029-1.2034411-2.6487242-3.885323-4.3103718-6.7928442-4.2087285-2.0389871-.0014728-4.0381073.5648502-5.7733724 1.6355163l-.1417447.1035827c-2.2997427 1.6202835-4.1707819 3.7757207-5.4517209 6.2803824-.7073846-2.4188315-2.3072631-4.478602-4.4758628-5.7624689l-.0436137-.0272586-.1908103-.1144862c2.4151124-4.295956 4.5521869-9.9930043 3.2710325-15.4120148-1.3629302-5.7842759-4.764804-6.6510995-6.6674546-6.6510995-.8238718.0081476-1.6404293.1556072-2.4151123.4361377h-.0490655-.0545172c-3.5872323 1.4119957-5.1682314 3.5327151-5.5116898 4.0397251-2.8777731 4.6263989-4.6673245 9.845924-5.233652 15.2648184-.1035827.9649546-.2126171 1.9626195-.3271033 2.9602845-.725483-.9610008-1.7557548-1.6472079-2.9221223-1.9462644-.4488418-.1369445-.9154691-.2067548-1.3847371-.2071654-1.9789747 0-3.6035875 1.2157338-4.4595077 2.0225885-.7395957-1.0932109-1.9524769-1.7724244-3.2710325-1.8317782h-.3216515c-1.8620575.0345312-3.6497489.7368385-5.0373901 1.9789746-.8066741-1.409384-2.3179834-2.2664197-3.9415942-2.2352055-.1417447 0-.272586 0-.3925239 0h-.2834895c-2.3496917 0-4.197825 1.0903441-4.9501625 2.949381-.0545172.1417447-.1199379.3271032-.1908103.545172-1.8426816-2.2897227-4.1923733-3.3637117-7.3434679-3.3637117h-.3161999c-1.9626195.038162-6.8637165.8613719-9.87851815 7.6324092-.45210166 1.0081861-.81688692 2.0532959-1.09034417 3.123836-.54281311-.2467-1.13195274-.3749354-1.72819551-.3761687-1.32602551.0070428-2.56605846.6575519-3.32554973 1.7445507-.46884799.6869168-1.94626434 3.1020291-1.22118547 5.451721.39427611 1.260736 1.35069413 2.267492 2.58956741 2.72586 1.12850622.44159 2.55140536.872276 3.63084609 1.183024.86935077 1.937138 2.22538958 3.616222 3.93614243 4.873838 1.630187 1.166334 3.6012881 1.758815 5.6043691 1.684582 2.68851-.092173 5.3330934-.708872 7.7850574-1.815423l.1471964-.065421.0381621-.027258c.7686597.792697 1.7687759 1.321384 2.8567017 1.510126.4460074.082229.8985042.124194 1.3520268.12539 2.0334918 0 3.4618427-1.008569 4.7702557-2.954833 1.1905592 1.756807 3.2060033 2.771749 5.3263313 2.682247.1253896 0 .2562309.06542.3925239.06542 1.210282 0 2.7258604-.447041 4.0015631-2.480533 1.0734285 1.895029 3.111554 3.035959 5.2881692 2.960285 1.4360067-.032886 2.8477753-.376993 4.1378562-1.008568l.0654206-.032711c.6869168-.365265 1.2484441-.676013 1.7063886-.943148 2.0519513 1.116209 4.3479569 1.708002 6.6838098 1.722744.4844345.001765.9685849-.023717 1.4501578-.076324h.1308413.1253895c5.996893-1.177572 9.8894217-2.616826 12.2173065-3.701718 2.0274712 2.254149 4.8574753 3.624137 7.8831883 3.816204.4197825.032711.8395651.049066 1.2538958.049066 2.5372671.007568 5.0365456-.616315 7.2725957-1.815423.6164415.666884 1.3721202 1.189903 2.2133986 1.531933.5422824.226576 1.1241275.343315 1.7118404.343459 3.728977 0 5.4517206-4.426798 5.9478276-5.936924l.904985-2.404209c.820163.906411 1.874794 1.568621 3.047512 1.913554.721621.20541 1.46857.308185 2.218851.305296 4.08879 0 8.041288-2.900315 8.662784-3.380067 1.626033-1.308287 2.447405-3.3730967 2.164333-5.4408171z" fill="#fff" fill-rule="nonzero"/><circle cx="102.725664" cy="107.152219" fill="#fff" r="4.284539"/><path d="m3.3605202.65832047c.72976477-.0000069 1.42946745.29070507 1.9443685.80784482s.80257471 1.21809707.79940182 1.94785493c-.00001046 1.11565985-.67271323 2.12123445-1.70391298 2.54705598-1.03119975.42582152-2.21740547.18786081-3.004583-.60273924-.78717753-.79060004-1.01998981-1.97782696-.58969856-3.00716963s1.43877483-1.69767656 2.55442422-1.69284686zm0 5.05808093c1.26885794-.00652382 2.29585736-1.03352325 2.30238118-2.30238118 0-1.27157001-1.03081116-2.30238118-2.30238118-2.30238118-1.27157001 0-2.30238117 1.03081117-2.30238117 2.30238118s1.03081116 2.30238118 2.30238117 2.30238118zm.76348392-1.96835697c.12403292.13708024.23580266.28477597.33402421.44138914l.35788308.5606835h-.69190729l-.4294597-.63226012c-.14315324-.21472985-.29823591-.35788308-.29823591-.41753026-.05077431-.05168893-.1117001-.09230612-.17894154-.11929436-.09472384-.01648237-.19158263-.01648237-.28630647 0h-.11929436v1.19294361h-.5606835v-2.87499411h1.19294362c.22588976-.01248239.4521817.0158041.66804842.08350605.13822192.05269194.25549124.1490203.33402421.27437703.08417687.13578765.12572902.29368579.11929436.45331858.00872664.19338832-.05996244.38228329-.19087097.52489519-.1497269.15328939-.34777158.25020488-.5606835.27437703.11514216.06295374.21978325.14344689.31016534.23858872zm-.89470771-.63226011c.17628538.00659292.35268862-.00944374.52489519-.04771775.06850035-.01775858.12799711-.06025627.1670121-.11929436.0389703-.0648504.05958714-.13907105.05964718-.21472985.00348944-.0852956-.02171171-.16929943-.07157661-.23858872-.06074056-.06109744-.14090662-.09907084-.22665929-.10736493h-.87084884v.72769561z" fill="#e24c32" fill-rule="nonzero" transform="translate(99.298032 103.724588)"/><path d="m114.6824 97.6076102c-.185359-1.8753919-1.875392-1.1775717-1.875392-1.1775717s-2.72586 2.1043643-5.108262 1.8699403-1.635517-5.5825622-1.635517-5.5825622.545172-4.9065488-.88863-5.3099761c-1.433803-.4034273-3.145643 1.2811544-3.145643 1.2811544-1.380929 1.6106715-2.4595181 3.4575706-3.1838051 5.4517209l-.2834895.0926792s.3271032-5.3426864-.0490655-6.542065c-.2780378-.605141-2.8567017-.5451721-3.2710325.5179135-.4143308 1.0630855-2.480533 8.5810086-2.6222778 11.7211998 0 0-4.0342734 3.4236807-7.5506333 3.9852077-3.51636.561528-4.3613767-1.635516-4.3613767-1.635516s9.5677701-2.6713432 9.2679254-10.3146559c-.2998446-7.6433126-7.714185-4.8193212-8.5482983-4.1869216s-5.1246176 3.2110636-6.3839651 10.4182386c-.0436138.2453274-.1199379 1.3138647-.1199379 1.3138647s-3.7017184 2.4859852-5.7679206 3.1456432c0 0 5.7679206-9.7040634-1.2647993-14.1145056-3.2328704-1.9680712-5.740662 2.0662022-5.740662 2.0662022s9.5187046-10.5926936 7.4088886-19.5498709c-1.0085683-4.2632458-3.1347395-4.7211903-5.0919073-4.0342735-2.9711878 1.1775717-4.099694 2.911219-4.099694 2.911219-2.6163275 4.2049516-4.2436902 8.949096-4.7593524 13.8746295-.8886305 8.2975192-2.1806883 18.3341373-2.1806883 18.3341373s-1.8263265 1.777261-3.5109082 1.875392c-1.6845818.098131-.937696-5.021035-.937696-5.021035s1.308413-7.7796056 1.2157337-9.0934703c-.0926792-1.3138648-.1853585-2.0171368-1.7336472-2.4859848-1.5482887-.4688479-3.2546774 1.4992233-3.2546774 1.4992233s-4.4540559 6.7546821-4.8302246 7.7850574l-.234424.4197825-.234424-.2780378s3.1401912-9.1916014.1417447-9.3278944-4.9719694 3.2710325-4.9719694 3.2710325-3.4236807 5.7188552-3.5654254 6.3730617l-.234424-.2834895s1.4338025-6.6456477 1.1285062-8.2866157c-.0452937-.4278905-.2716066-.8159185-.6217407-1.0660143s-.7905864-.3383286-1.2100375-.2423987c0 0-1.9680713-.234424-2.480533 1.0303753-.5124618 1.2647992-2.3933055 9.6549976-2.6277295 12.3317928 0 0-4.9065487 3.510908-8.1775813 3.559973-3.2710325.049066-2.9057672-2.049847-2.9057672-2.049847s11.8574929-4.0615316 8.6246224-12.081013c-1.4556095-2.0607505-3.1401912-2.7258604-5.5334967-2.6604398-2.3933054.0654207-5.3863002 1.504675-7.3053059 5.8169862-.83979383 1.7203134-1.33079651 3.5898293-1.44470603 5.5007863 0 0-2.04984704.4197825-3.17835326-.5179135-1.12850622-.9376959-1.69003346 0-1.69003346 0s-1.92445747 2.7531188 0 3.5000048c1.60360621.569409 3.24259022 1.033788 4.90654877 1.390189.53122782 2.018501 1.73752728 3.794282 3.41822898 5.031938 3.5163599 2.671343 10.2655904-.387072 10.2655904-.387072l2.7640224-1.635516s.0926793 2.50234 2.109816 2.873057 2.8621535-.027259 6.3785134-8.559202c2.0607505-4.3613768 2.1806884-4.1324045 2.1806884-4.1324045l.234424-.0545172s-1.5973543 8.3411327-.9867615 10.5926937c.6105927 2.251561 3.2710325 2.017137 3.2710325 2.017137s1.4556095.387072 2.6277294-3.734429c.9228774-2.945326 2.0861901-5.8098467 3.478198-8.5646536h.2780377s-.9813097 8.4229086.5451721 11.1433176 5.3753968.850468 5.3753968.850468c1.0838251-.540607 2.1326207-1.148763 3.1401912-1.820875 2.2191597 1.698237 4.9974462 2.496483 7.7796056 2.235206 10.1783629-2.000782 13.7928538-4.715738 13.7928538-4.715738 1.3071421 2.811691 4.056738 4.674794 7.1526578 4.846579 3.5416185.345529 7.0519329-.912584 9.5677701-3.429132 0 0-.0490655 2.529598 2.109816 3.423681 2.1588814.894082 3.6090392-3.892529 3.6090392-3.892529l3.6090393-9.7313218h.327103s.19081 6.2476718 3.750784 7.2780478c3.559974 1.030375 8.177581-2.524147 8.177581-2.524147s1.155765-.7305308.964955-2.6059228zm-100.8568359.9213409c.1417447-5.5771105 3.8162046-8.0140297 5.0646487-6.7928442 1.248444 1.2211854.7959512 3.8434632-1.5919025 5.4844311-2.3878538 1.640968-3.4618428 1.3084131-3.4618428 1.3084131zm47.5989748-21.6051698s3.3310014-8.6736879 4.1269527-4.4540559c.7959512 4.2196319-6.9891062 16.7858485-6.9891062 16.7858485.098131-2.8185397 2.8621535-12.3317926 2.8621535-12.3317926zm3.9961114 24.1402197c-2.1806884 5.767921-7.5506334 3.423681-7.5506334 3.423681s-.605141-2.066202 1.1285062-7.8341229c1.7336472-5.7679207 5.8115344-3.5109083 5.8115344-3.5109083s2.7912811 2.1534298.6105928 7.9213502zm14.7687118-2.5350499s-.5179135-1.8263265 1.406544-5.3426865c1.9244574-3.5163599 3.4236807-1.5919025 3.4236807-1.5919025s1.6355162 1.7827127-.234424 4.454056c-1.0209402 1.548682-2.7517823 2.4806739-4.6067042 2.480533z" fill="#e24c32" fill-rule="nonzero"/></g></svg>