<svg height="46" viewBox="0 0 57 46" width="57" xmlns="http://www.w3.org/2000/svg"><path d="m39.7746 1.0001c-6.606.121-11.775 5.791-11.775 12.398v1.602c-11.75-2.125-17.625-5.312-24-12-3.813 7.375.354 13.625 5 17-3.109 0-5.66-.446-7.665-2.194-.151-.132-.389.004-.335.197 1.744 6.167 7.489 10.654 12 11.997-4.072 0-6.833.607-9.685-1.227-.165-.106-.377.054-.311.239 2.159 6.065 6.566 7.988 12.996 7.988-3.197 2.352-7.451 4.823-15.591 4.993-.33.007-.49.419-.232.626 3.073 2.478 10.44 4.381 20.823 4.381 17.135 0 31-15.207 31-34v-1c2.666-.997 4.23-3.383 4.992-5.779.043-.133-.09-.257-.222-.212l-5.628 1.942c-.128.044-.216-.119-.112-.204 2.356-1.94 4.225-4.327 4.963-6.604.029-.088-.066-.168-.151-.132-2.701 1.133-5.274 2.198-7.307 2.829-.339.106-.698.062-1.008-.112-1.334-.747-5.197-2.775-7.752-2.728" fill="#65bbf2" fill-rule="evenodd" transform="translate(0 -1)"/></svg>